<?xml version="1.0" encoding="UTF-8"?>
<!-- Generator: visioncortex VTracer 0.6.12 -->
<svg version="1.1" xmlns="http://www.w3.org/2000/svg" width="3840" height="2560">
<path d="M0 0 C1267.2 0 2534.4 0 3840 0 C3840 844.8000000000001 3840 1689.6000000000001 3840 2560 C2572.8 2560 1305.6 2560 0 2560 C0 1715.1999999999998 0 870.3999999999999 0 0 Z " fill="#006533" transform="translate(0,0)"/>
<path d="M0 0 C633.5999999999999 0 1267.1999999999998 0 1920 0 C1920 844.8000000000001 1920 1689.6000000000001 1920 2560 C1286.4 2560 652.8000000000002 2560 0 2560 C0 2348.8 0 2137.6 0 1920 C15.509999999999991 1919.34 31.019999999999982 1918.68 47 1918 C59.04641708684994 1916.8266476863457 71.01429640076753 1915.6055198997237 83 1914 C84.23073242187502 1913.8374169921874 85.46146484375004 1913.674833984375 86.7294921875 1913.50732421875 C124.58358333220463 1908.4253013294788 161.77212830477265 1900.102415702285 198 1888 C198.6621551513672 1887.77892578125 199.32431030273438 1887.5578515625 200.00653076171875 1887.330078125 C257.06472568742265 1868.2278176738944 311.3609956145747 1842.1602976218414 361 1808 C361.7081787109373 1807.5132177734374 362.4163574218751 1807.026435546875 363.14599609375 1806.52490234375 C388.8927347253489 1788.7533872773633 413.38298251928336 1769.0753833372592 436.2060546875 1747.67626953125 C438.16345090322557 1745.847270835391 440.13229319170887 1744.0310492025421 442.1015625 1742.21484375 C450.90478286735197 1734.0596825952625 459.29550219499424 1725.6567752177355 467.37109375 1716.78173828125 C468.9741619596907 1715.0282622928924 470.5930654951326 1713.2911004335183 472.21875 1711.55859375 C477.6127789392931 1705.7998529851739 482.79349069153204 1699.9513011704464 487.734375 1693.79296875 C489.7588727436473 1691.297251703952 491.8326625303689 1688.852942374764 493.930908203125 1686.419189453125 C500.1125772114351 1679.230363910858 505.8427197895144 1671.7554480953595 511.44970703125 1664.1123046875 C512.4812100579202 1662.7068615084843 513.5160335564556 1661.3038491701477 514.55419921875 1659.9033203125 C523.2545357535259 1648.1636951346939 531.3133232925015 1636.060369228152 539.21630859375 1623.7724609375 C541.4564536547668 1620.2905163285616 543.7084126060818 1616.816300803956 545.96044921875 1613.342041015625 C547.9768577945911 1610.2301059953559 549.9886892877853 1607.115231768399 552 1604 C548.8149340383379 1607.1025512994427 545.9245935656545 1610.2491960097125 543.1875 1613.75 C533.289413275138 1625.939761976431 522.0712381945896 1637.0128438184186 511 1648.125 C510.5641357421873 1648.5632006835938 510.5641357421873 1648.5632006835938 508.3583984375 1650.78076171875 C503.3991734679712 1655.7276219156277 498.3294081922427 1660.4561118826657 493 1665 C491.8703004807762 1665.9847678052026 490.74136528136387 1666.9704132630977 489.61328125 1667.95703125 C482.5436342401904 1674.0904763140247 475.3580081052178 1679.997981754708 467.8623046875 1685.60595703125 C466.5400861348289 1686.5957142331054 465.22071148903933 1687.5892756858614 463.9033203125 1688.58544921875 C438.1898308623204 1708.0135436245225 410.78854708180324 1724.5420349832539 382 1739 C381.5381933593749 1739.2332397460937 381.5381933593749 1739.2332397460937 379.201171875 1740.41357421875 C348.7433912639631 1755.7013253090051 316.0607241690195 1767.6545081227264 283 1776 C282.0800927734376 1776.2367041015625 281.16018554687525 1776.473408203125 280.21240234375 1776.71728515625 C265.7677807014011 1780.4132918931273 251.33348922921914 1783.2884530681174 236.601806640625 1785.56494140625 C234.19294267866417 1785.9677372756516 231.82327442130463 1786.4564652043553 229.4375 1786.9765625 C204.24030813020318 1792.0875347520039 177.90650259083395 1792.3913750559996 152.3125 1792.375 C151.1209127807615 1792.3766314697266 149.92932556152346 1792.3782629394532 148.70162963867188 1792.3799438476563 C126.25655249961756 1792.3764607206163 104.2103023753134 1790.6024027750404 82 1787.4375 C81.11922790527342 1787.3129443359376 80.23845581054684 1787.188388671875 79.33099365234375 1787.06005859375 C8.968561035525909 1776.968561035526 8.968561035525909 1776.968561035526 0 1768 C-0.09705965359376023 1766.3996628726277 -0.12371613946902471 1764.7950185860366 -0.1230478286743164 1763.191740989685 C-0.12503887712955475 1762.1447312682867 -0.1270299255847931 1761.0977215468884 -0.12908130884170532 1760.018984258175 C-0.12616846740252186 1758.854612610936 -0.12325562596311102 1757.6902409636975 -0.1202545166015625 1756.4905853271484 C-0.12110894143575024 1755.2646651941538 -0.12196336627016535 1754.038745061159 -0.1228436827659607 1752.7756758332253 C-0.1242119209618977 1749.3574419236327 -0.12106425439560553 1745.939264563042 -0.1160656213760376 1742.5210374593735 C-0.11176457943770401 1738.8407207067046 -0.11320729736485191 1735.1604058375385 -0.1139678955078125 1731.4800872802734 C-0.11449335209567835 1725.0985516316716 -0.11134430153447283 1718.717026172994 -0.10573005676269531 1712.3354930877686 C-0.09761797251553617 1703.1087615379317 -0.09500013704609955 1693.8820349370878 -0.09374206513166428 1684.655300207436 C-0.09155108572258541 1669.6871081490626 -0.0848897571793259 1654.7189215268575 -0.075439453125 1639.750732421875 C-0.06626652264594668 1625.2067873869687 -0.05918510811920896 1610.6628438262937 -0.054931640625 1596.118896484375 C-0.05466891713444966 1595.223060534522 -0.054406193643899314 1594.3272245846688 -0.054135508835315704 1593.4042420908809 C-0.052830512473519775 1588.910291358216 -0.05156679463175351 1584.4163406150706 -0.05032360553741455 1579.9223898649216 C-0.039949561339199136 1542.6149227372223 -0.022330000202373412 1505.307461791105 0 1468 C1.7540961029271784 1467.3601957233657 3.5083730719723007 1466.7208872977883 5.262725830078125 1466.081787109375 C6.239619312286322 1465.7257188415526 7.21651279449452 1465.3696505737305 8.22300910949707 1465.0027923583984 C11.528215446453714 1463.8092574177672 14.84623599827978 1462.6747730367986 18.1796875 1461.5625 C18.799172668457004 1461.3556860351562 19.418657836914008 1461.1488720703126 20.056915283203125 1460.935791015625 C21.34873366545139 1460.5049612600799 22.64079711306067 1460.0748656175915 23.93310546875 1459.6455078125 C25.86631342675105 1459.0028875156738 27.79843344971573 1458.3570736395013 29.73046875 1457.7109375 C36.72432450050519 1455.3785384011694 43.74117287625472 1453.1451147132477 50.79345703125 1450.99609375 C56.39299820869269 1449.2566291539922 61.94408945843361 1447.3732816900792 67.5 1445.5 C69.75989461222639 1444.738033232011 72.0203109004367 1443.97761191231 74.28125 1443.21875 C75.2615820312501 1442.88810546875 76.24191406249997 1442.5574609375 77.251953125 1442.216796875 C80.50407937349632 1441.1609997656653 83.76441956793838 1440.1498801162772 87.034423828125 1439.1513671875 C94.11084155681215 1436.98180843396 101.14062326103226 1434.6822455379356 108.16796875 1432.359375 C109.51619250220756 1431.9149595578688 110.86447079228378 1431.4707095386848 112.21279907226563 1431.026611328125 C115.06419674554309 1430.087360036548 117.91542483287844 1429.1475969014496 120.76651000976563 1428.2073974609375 C148.60182949665023 1419.0297324842138 176.4719005397019 1409.9717372355346 204.40786743164063 1401.104248046875 C204.80128829956038 1400.979249267578 204.80128829956038 1400.979249267578 206.792236328125 1400.3466796875 C207.52157379150412 1400.1163806152344 208.2509112548828 1399.8860815429687 209.00234985351563 1399.6488037109375 C210.76757005500713 1399.075489399938 212.51573449703847 1398.4502270382886 214.260498046875 1397.8173828125 C217.08627390667016 1396.9742585295846 219.08008009572768 1396.5652099047345 222 1397 C223.646484375 1398.4584960937498 223.646484375 1398.4584960937498 225.09375 1400.5234375 C225.36799804687507 1400.90564453125 225.36799804687507 1400.90564453125 226.755859375 1402.83984375 C227.3314257812499 1403.6764453125 227.90699218749978 1404.513046875 228.5 1405.375 C229.11166015624985 1406.2348046875 229.72332031250016 1407.094609375 230.353515625 1407.98046875 C231.6263423346527 1409.771077694784 232.89254791019584 1411.5664102074309 234.15234375 1413.3662109375 C236.8937697826059 1417.2740470949727 239.6987654891127 1421.1349510300272 242.5 1425 C243.57296931798192 1426.4895454082455 244.64588559887034 1427.979129022253 245.71875 1429.46875 C249.1137976070877 1434.1695851482755 252.55387822491184 1438.8365370155527 256 1443.5 C262.1902549508377 1451.8793767458567 268.30474458400977 1460.3110757082216 274.39111328125 1468.76611328125 C277.0901211789087 1472.5135976915046 279.79531493914465 1476.2566120054826 282.5 1480 C285.7413145330029 1484.486103792602 288.98141953981394 1488.9730483056885 292.21484375 1493.46484375 C297.7680462374228 1501.174629727684 303.35437204931713 1508.8575763110268 309 1516.5 C316.2794262168809 1526.3540782084829 323.448303241325 1536.2857433353288 330.6044921875 1546.2294921875 C332.2146550535808 1548.4661013966154 333.82574932141233 1550.7020347514701 335.4375 1552.9375 C335.9625512695311 1553.6659008789063 336.48760253906266 1554.3943017578124 337.028564453125 1555.144775390625 C341.8328543609018 1561.7958031223716 346.70263354666577 1568.3980085113537 351.595458984375 1574.984130859375 C352.15692626953114 1575.7421801757812 352.7183935546873 1576.5002294921876 353.296875 1577.28125 C353.5461474609374 1577.616728515625 353.5461474609374 1577.616728515625 354.8076171875 1579.314453125 C356 1581.0000000000002 356 1581.0000000000002 357 1583 C357.3299999999999 1506.44 357.65999999999985 1429.88 358 1351 C397.99999999998954 1338.0000000000032 397.99999999998954 1338.0000000000032 411 1334 C413.46035655299966 1333.2109469918603 415.9183703018434 1332.4144879643832 418.372314453125 1331.605712890625 C418.68715789794896 1331.5021472930907 418.68715789794896 1331.5021472930907 420.28045654296875 1330.978042602539 C421.618344333443 1330.5377802205871 422.9560484321091 1330.0969592576603 424.2935733795166 1329.655595779419 C426.428327110164 1328.9511931296415 428.56361189593827 1328.2484203260897 430.6990203857422 1327.5460052490234 C435.2373038883352 1326.052889497141 439.7749466106611 1324.557832838246 444.3125 1323.0625 C449.57192370757366 1321.3293286544401 454.8316281622474 1319.5970178524524 460.0919704437256 1317.8666362762451 C462.163470208076 1317.1847810651514 464.23449639959654 1316.5015023794392 466.3054962158203 1315.818130493164 C473.5386356353556 1313.4358074958575 480.7883132485226 1311.1178195203443 488.0608797073364 1308.8587503433228 C494.4133156122084 1306.8812462094081 500.73676238403823 1304.8186952183853 507.05517578125 1302.7350616455078 C509.0767699290386 1302.0684348846066 511.09887547005474 1301.4033783659568 513.12109375 1300.7386474609375 C517.4144913811629 1299.3270666695823 521.7072947671686 1297.913684796441 526 1296.5 C530.9880551583756 1294.8573207665709 535.9763750913794 1293.21545437023 540.96533203125 1291.5755157470703 C542.9238200801633 1290.9313079513436 544.8818448078791 1290.2857071783474 546.83984375 1289.6400146484375 C550.5570860840512 1288.4177957055094 554.2771664357333 1287.205080457949 558 1286 C558.7120458984373 1285.769489440918 559.424091796875 1285.5389788818359 560.15771484375 1285.3014831542969 C562.3534887305645 1284.5934783513346 564.5513549845764 1283.8923915257453 566.75 1283.193359375 C567.4300610351561 1282.973808364868 568.1101220703126 1282.7542573547364 568.810791015625 1282.5280532836914 C571.6641159010642 1281.627980748655 573.9872023204598 1281 577 1281 C577 1280.34 577 1279.68 577 1279 C575.8425830078127 1278.7741723632812 574.6851660156249 1278.5483447265624 573.49267578125 1278.315673828125 C566.2230935332063 1276.6949553806428 559.1888778695602 1274.261333989059 552.1171875 1271.94921875 C550.5742600837211 1271.4480430848744 549.0312178867207 1270.947220663166 547.4880676269531 1270.4467315673828 C543.4386447219745 1269.132263831541 539.3908896446101 1267.812731333436 535.3434448242188 1266.4921875 C532.0755489376293 1265.4268872164207 528.806519895476 1264.3650915164146 525.5374126434326 1263.3035154342651 C500.0418297689198 1255.0241494187044 500.0418297689198 1255.0241494187044 489.1689453125 1251.38671875 C483.00114696808623 1249.3260076403585 476.8170831973421 1247.3249935174542 470.6171875 1245.36328125 C468.5356593991801 1244.7017880345293 466.4542002709227 1244.0400777512666 464.372802734375 1243.378173828125 C463.31052459716784 1243.040570373535 462.2482464599607 1242.7029669189453 461.1537780761719 1242.3551330566406 C444.69129131185036 1237.1201545078543 428.2728814872321 1231.8117978694065 411.970458984375 1226.09716796875 C406.15803613320895 1224.0661584373042 400.35306591910285 1222.145676980516 394.4375 1220.4375 C382.2074754923078 1216.904381808889 370.1194553432206 1212.8955392174637 358 1209 C357.83500000000004 1170.72 357.83500000000004 1170.72 357 977 C353.03999999999996 982.61 349.0799999999999 988.22 345 994 C342.6996061823879 997.1567968934551 340.39498075601887 1000.3051037859544 338.0625 1003.4375 C331.8452793841657 1011.8334712696935 325.7124030548657 1020.2872546191296 319.60888671875 1028.76611328125 C316.36853805404326 1033.2652316852054 313.11972298294904 1037.758241188016 309.87255859375 1042.25244140625 C307.1740197819936 1045.9879449970658 304.4774204684063 1049.7248148008066 301.78515625 1053.46484375 C295.65243320917807 1061.979206806675 289.4676721052788 1070.452162021619 283.23291015625 1078.89208984375 C277.0908036627061 1087.2150274917287 271.0420931684307 1095.6043221524483 265 1104 C257.8067396859501 1113.9952606798392 250.57401488062533 1123.9577683372402 243.2548828125 1133.861328125 C238.5162853033985 1140.2803358432116 233.83383409169164 1146.73860184635 229.173828125 1153.21484375 C226.81066198646295 1156.4985279884781 224.44773400601207 1159.7784119439775 222 1163 C215.7295140299525 1162.4262211902137 210.21212011299804 1160.9730116000937 204.2578125 1158.96484375 C203.3173306274416 1158.6545976257323 202.37684875488276 1158.3443515014649 201.40786743164063 1158.0247039794922 C198.31140931380696 1157.0020647106435 195.218300527069 1155.9696466371295 192.125 1154.9375 C187.6964361322698 1153.4718510795285 183.2661545151277 1152.0114243567473 178.8359375 1150.55078125 C177.69846069335927 1150.1749993896485 176.56098388671853 1149.7992175292968 175.3890380859375 1149.4120483398438 C164.26462572831042 1145.7426093757276 153.1052679816903 1142.1860160188196 141.94131469726563 1138.6390991210938 C126.21694465881728 1133.642390445072 110.54174796401117 1128.5605024567142 94.97314453125 1123.0966796875 C88.42210373064881 1120.80455703455 81.8611310234985 1118.7033037818446 75.179443359375 1116.829345703125 C68.17918883634434 1114.836649172441 61.35253815271881 1112.3625898175742 54.4931640625 1109.9365234375 C48.98728509174748 1108.0017302652984 43.49080548830284 1106.21183080932 37.875 1104.625 C25.11358108971126 1100.8504958152666 12.580946578861585 1096.3382574409868 0 1092 C0 993 0 894 0 792 C6.853695423790668 789.0627019612325 13.445723993779893 787.0845882175418 20.625 785.1875 C21.28005523681645 785.0139196777344 21.935110473632903 784.8403393554687 22.610015869140625 784.6614990234375 C45.78310281519839 778.5467334494797 69.21947886560656 773.9867162500071 93 771 C94.16112304687499 770.8490185546875 95.32224609374998 770.698037109375 96.5185546875 770.54248046875 C139.77803157067774 765.1012952488442 185.97015911112703 765.8294915608884 229 773 C230.24152832031268 773.20109375 231.4830566406249 773.4021875 232.76220703125 773.609375 C311.3132682473188 786.3788555188662 386.06440748735076 815.7286038515532 451 862 C451.8509423828127 862.606181640625 452.701884765625 863.21236328125 453.57861328125 863.8369140625 C462.72058259320147 870.3866458575072 471.6149062582731 877.1269492034454 480.10546875 884.50390625 C482.79314255680356 886.8216168607254 485.53557504642777 889.0408019258248 488.3125 891.25 C499.9010705813057 900.7209468923476 510.47086500830756 911.3847571808599 521.0625 921.9375 C521.9427685546875 922.813095703125 522.823037109375 923.68869140625 523.72998046875 924.5908203125 C528.6930126187035 929.5661817989618 533.4569051095482 934.638909914227 538 940 C538.5181225585939 940.6070678710937 539.0362451171877 941.2141357421875 539.570068359375 941.839599609375 C541.0308039817787 943.5556413132527 542.4853444574537 945.2766950822894 543.9375 947 C544.4305664062499 947.5839453125 544.9236328124998 948.167890625 545.431640625 948.76953125 C546.6217294621192 950.1791510376557 547.810961059371 951.5894944935756 549 953 C534.8372358166616 925.3318151186261 515.1933262685129 899.5948737919202 495.4326171875 875.73681640625 C493.3711786757149 873.2376559473473 491.3458329332493 870.7095462873814 489.3125 868.1875 C485.4766508568937 863.5000219645711 481.4451170976672 859.0183062295642 477.34375 854.5625 C475.3138633318413 852.343157242813 473.33504501755306 850.0932796567892 471.375 847.8125 C468.3928734692481 844.3753541629127 465.210008039493 841.1913925311933 461.96875 838 C460.0601354494479 836.0610899803914 458.27289448382044 834.0630044902637 456.5 832 C451.0913157747318 825.7327944691339 445.2058220985091 820.1067593478411 438.93359375 814.71484375 C437.04505402849645 813.0399570070906 435.26844352379067 811.3005241319322 433.5 809.5 C429.8370337397073 805.7878664073546 425.95765398985895 802.3931911841743 422 799 C420.9566861981916 798.0928446062579 419.9137462104213 797.185259188913 418.87109375 796.27734375 C410.77762830014353 789.2530877161357 402.51013249643984 782.5122825419514 394 776 C393.27603027343775 775.444736328125 392.55206054687505 774.88947265625 391.80615234375 774.3173828125 C372.95007049738706 759.8991904790013 353.7154450422204 746.2281741406853 333.1884765625 734.28466796875 C331.2223327524084 733.1305125996399 329.27536803639805 731.952231758516 327.3359375 730.75390625 C277.8205200784996 700.1991685342812 222.28630504239163 677.0762999354914 165.9375 662.5625 C165.1320776367188 662.3542358398438 164.3266552734376 662.1459716796875 163.496826171875 661.931396484375 C161.81885756458632 661.4985348742607 160.14055339668812 661.0669719385686 158.4619140625 660.63671875 C156.12428946023556 660.0321446759515 153.79244729484344 659.4089252378649 151.4609375 658.78125 C102.01575953586143 645.6835379648186 50.92592145017102 641.6427716596829 0 640 C0 428.79999999999995 0 217.59999999999997 0 0 Z " fill="#FEFEFE" transform="translate(1920,0)"/>
<path d="M0 0 C0.5814175415039244 -0.00066970825196222 0.5814175415039244 -0.00066970825196222 3.52374267578125 -0.004058837890625 C24.4185062917943 0.0011118093050299649 45.04272541105229 1.0210485806983343 65.8125 3.25 C66.40313232421886 3.311391601562491 66.40313232421886 3.311391601562491 69.39208984375 3.6220703125 C82.32151782230198 4.995006499779379 95.03583355902265 7.071637519101728 107.775390625 9.64794921875 C111.23632094392701 10.334014666215808 114.70325279919939 10.982868704919952 118.171875 11.62890625 C139.70695010452982 15.653951343666336 160.95627022903 20.326837875956357 181.77001953125 27.24658203125 C184.05216856799234 27.999240716935333 186.33636827482587 28.7420722569625 188.62451171875 29.47607421875 C252.75500281409995 50.05063099953111 315.92939428899035 78.97362248339971 369.86962890625 119.79443359375 C372.0158097056901 121.40231621831185 374.1832796522681 122.97822338784988 376.35546875 124.55078125 C387.17932108590185 132.4024288703191 397.6021274918421 140.6176632329939 407.8125 149.25 C408.12372802734353 149.51167968749996 408.12372802734353 149.51167968749996 409.69873046875 150.8359375 C417.6879676502467 157.5601232399407 425.45489357953466 164.49063841098075 433.07470703125 171.6298828125 C434.91396034166473 173.34458988863253 436.7666379717266 175.04394059417382 438.62109375 176.7421875 C447.8232780689882 185.2101429496713 456.4978719641881 194.06081046101065 464.97119140625 203.255859375 C466.69435659003193 205.1220504676986 468.4285767323645 206.97706702721655 470.16796875 208.828125 C475.51859380108544 214.5391203492843 480.6599620362458 220.36470221692866 485.55859375 226.47265625 C487.52681360343104 228.89796702259866 489.5456607970159 231.2679786218098 491.59130859375 233.6279296875 C509.1941450384379 254.02091467274954 524.3370401811212 276.57724448089004 538.8125 299.25 C539.2627050781248 299.948349609375 539.71291015625 300.64669921875 540.1767578125 301.3662109375 C541.3558547606517 303.1970335275088 542.5239788074623 305.0342525104454 543.6875 306.875 C544.3242968750001 307.87789062499996 544.9610937500001 308.8807812499999 545.6171875 309.9140625 C546.0116406249999 310.684921875 546.4060937499999 311.45578125 546.8125 312.25 C546.4825000000001 312.9100000000001 546.1525000000001 313.56999999999994 545.8125 314.25 C537.3152019844028 304.84709425938445 537.3152019844028 304.84709425938445 533.4375 300.375 C525.2972635221081 291.0797299678127 516.849638935807 282.18716180082345 508.125 273.4375 C507.23409667968735 272.5420043945312 506.3431933593747 271.6465087890625 505.42529296875 270.723876953125 C500.38103781055906 265.6913526208832 495.2333948432429 260.8724402338901 489.8125 256.25 C488.72933287705973 255.30077375491487 487.647251869093 254.35030630832625 486.56640625 253.3984375 C477.623443901869 245.59769234039015 468.33448438517917 238.3288297984044 458.8125 231.25 C458.0904638671873 230.71229980468752 457.368427734375 230.17459960937504 456.62451171875 229.62060546875 C432.0590487999307 211.40591968071521 406.09143402410155 196.0241496151823 378.8125 182.25 C377.8845361328126 181.78062011718748 376.95657226562525 181.31124023437496 376.00048828125 180.82763671875 C333.0662279130038 159.28126418379793 286.08348705560275 144.52383465190655 238.8125 136.25 C238.0264941406249 136.10965332031253 237.24048828124978 135.96930664062506 236.4306640625 135.82470703125 C188.67715991084833 127.32518396526416 137.9088380554449 125.95836419565694 89.8125 132.25 C88.52053710937503 132.41097167968746 87.22857421875005 132.57194335937504 85.8974609375 132.73779296875 C69.23367713356583 134.83484806903198 52.86638623976796 137.92445113061763 36.5 141.6875 C35.70818328857422 141.86855285644538 34.91636657714844 142.04960571289064 34.100555419921875 142.23614501953125 C21.813276706448733 145.06902180808163 9.921017737442526 148.61744467876724 -2.1875 152.25 C-2.5174999999999272 251.25 -2.8474999999998545 350.25 -3.1875 452.25 C-1.537499999999909 452.5799999999999 0.11249999999995453 452.9100000000001 1.8125 453.25 C4.461399502891936 454.08210302045427 7.090469890524673 454.93957997588905 9.71875 455.83203125 C10.47990112304683 456.08748214721686 11.241052246093659 456.3429330444337 12.0252685546875 456.6061248779297 C14.455319101475197 457.42205573152387 16.88399721581709 458.2419750533363 19.3125 459.0625 C22.488879583427206 460.13361221687205 25.665916173109963 461.20274118518046 28.84375 462.26953125 C29.620208740234375 462.53021392822257 30.39666748046875 462.79089660644536 31.1966552734375 463.0594787597656 C36.68056819519779 464.89222497213404 42.19136394702582 466.6172888161623 47.724609375 468.295654296875 C54.42688054670816 470.3670630579604 61.06007516383056 472.65338265017544 67.70703125 474.89453125 C68.82464843749995 475.2696484375001 69.94226562499989 475.644765625 71.09375 476.03125 C72.07408203124987 476.3618945312501 73.05441406249997 476.6925390624999 74.064453125 477.033203125 C77.31657937349541 478.08900023433443 80.57691956793906 479.100119883723 83.846923828125 480.0986328125 C90.92334155681192 482.26819156604006 97.95312326103249 484.5677544620644 104.98046875 486.890625 C106.32869250220756 487.33504044213123 107.67697079228378 487.7792904613152 109.02529907226563 488.223388671875 C111.87669674554218 489.16263996345174 114.7279248328789 490.10240309855067 117.57901000976563 491.0426025390625 C145.41432949665068 500.2202675157862 173.2844005397019 509.27826276446535 201.22036743164063 518.145751953125 C204.56425753330586 519.2081820754033 207.90207398853818 520.2799924051656 211.229248046875 521.39404296875 C215.94727088535728 522.9573534376773 215.94727088535728 522.9573534376773 218.8125 522.25 C221.1730677597634 519.8778931520255 222.95619643731607 517.1491157926698 224.8125 514.375 C225.9696508269585 512.7093565853643 227.12721416467366 511.04399968524035 228.28515625 509.37890625 C228.57849853515654 508.9510180664063 228.57849853515654 508.9510180664063 230.06298828125 506.78564453125 C232.73187583354047 502.9175080369587 235.48982937356504 499.1157583631689 238.25 495.3125 C238.78302734374984 494.57402832031244 239.31605468750013 493.8355566406249 239.865234375 493.07470703125 C244.39375108851846 486.8039316420218 248.98366862335297 480.5793575336261 253.57958984375 474.35791015625 C259.1768217360468 466.77331160039125 264.6965862690922 459.13411670310643 270.20361328125 451.48388671875 C273.4439619459572 446.9847683147941 276.69277701705096 442.49175881198425 279.93994140625 437.99755859375 C282.6384802180064 434.2620550029342 285.3350795315937 430.5251851991934 288.02734375 426.78515625 C294.16006679082193 418.27079319332483 300.34482789472077 409.79783797838127 306.57958984375 401.35791015625 C312.72169633729436 393.03497250827104 318.77040683156883 384.64567784755195 324.8125 376.25 C331.65268566563145 366.7453476112985 338.5133130433114 357.25620917614674 345.4375 347.8125 C346.02974365234377 347.0011157226563 346.62198730468754 346.1897314453124 347.232177734375 345.353759765625 C347.50968872070325 344.97634643554693 347.50968872070325 344.97634643554693 348.9140625 343.06640625 C349.40213378906265 342.40068603515624 349.89020507812484 341.7349658203125 350.39306640625 341.049072265625 C351.8125 339.2500000000002 351.8125 339.2500000000002 354.8125 336.25 C354.8125 413.1399999999999 354.8125 490.03 354.8125 569.25 C358.1125000000002 569.9099999999999 361.4124999999999 570.5700000000002 364.8125 571.25 C367.18833620409805 571.9477099359733 369.55120210590576 572.6920591691069 371.89453125 573.4921875 C372.51543136596683 573.7018313598633 373.13633148193367 573.9114752197265 373.7760467529297 574.1274719238281 C375.7277210621887 574.7875297219189 377.67645326256115 575.4557726329517 379.625 576.125 C381.56333136709236 576.7855118598857 383.5022745595529 577.4441612974874 385.4418182373047 578.1011047363281 C387.20949684976586 578.7006288548 388.97553968181546 579.3049699791222 390.741455078125 579.90966796875 C394.0833600916526 581.0300428563894 397.4486593953525 582.0637682593951 400.81982421875 583.092529296875 C407.611285490053 585.171665236229 414.3615453306502 587.3688095768966 421.1060733795166 589.594404220581 C423.240827110164 590.2988068703585 425.37611189593827 591.0015796739103 427.5115203857422 591.7039947509766 C432.0498038883343 593.1971105028585 436.5874466106616 594.6921671617542 441.125 596.1875 C446.3844237075732 597.9206713455596 451.6441281622474 599.6529821475478 456.9044704437256 601.3833637237549 C458.97597020807734 602.0652189348489 461.0469963995956 602.7484976205606 463.1179962158203 603.4318695068359 C470.35354656031905 605.8149869456593 477.6056389286391 608.1337909574513 484.880615234375 610.3936614990234 C491.19987322303587 612.3607989616162 497.4905228756734 614.4117831303199 503.77597999572754 616.4843730926514 C505.78579898739736 617.1470656372933 507.7961265566091 617.8081965974534 509.8065643310547 618.4690093994141 C514.0798050693456 619.8738712594663 518.3524457636049 621.280551922609 522.625 622.6875 C528.2560584888479 624.5417402629469 533.8874064819975 626.395094453542 539.51953125 628.24609375 C540.1931482315063 628.467504081726 540.8667652130125 628.688914413452 541.5607948303223 628.9170341491699 C552.2867439459437 632.4405821163098 563.0324124136741 635.895634220253 573.8125 639.25 C573.8125 639.9099999999999 573.8125 640.5700000000002 573.8125 641.25 C520.0804485408262 658.8531068920486 520.0804485408262 658.8531068920486 498.5 665.875 C497.72498138427727 666.1272534179689 496.94996276855454 666.3795068359375 496.1514587402344 666.639404296875 C486.19732102923217 669.8771241096026 476.2318943860646 673.0781574570037 466.2578125 676.25390625 C461.88014625373853 677.6482427012118 457.50254096945173 679.04277028965 453.125 680.4375 C452.0527014160157 680.7790109252928 450.98040283203136 681.1205218505861 449.8756103515625 681.4723815917969 C436.11376003090936 685.8593932472829 422.41437186136136 690.3747083418552 408.783447265625 695.152587890625 C401.6487864133396 697.6461983550075 394.4993813902074 699.905533457141 387.2265625 701.95703125 C380.1237452185005 703.9900471003002 373.1158225499348 706.3527095035383 366.0986328125 708.66064453125 C365.0683496093752 708.9956396484376 364.03806640625 709.3306347656248 362.9765625 709.67578125 C362.0531103515623 709.9791137695313 361.129658203125 710.2824462890626 360.17822265625 710.594970703125 C357.8125 711.25 357.8125 711.25 354.8125 711.25 C354.8125 788.1399999999999 354.8125 865.03 354.8125 944.25 C352.1714790710448 941.6089790710448 350.13693540539134 939.503245942371 348.03515625 936.5546875 C347.52863525390603 935.8483618164064 347.0221142578125 935.1420361328123 346.500244140625 934.414306640625 C345.9639135742186 933.6588354492187 345.42758300781225 932.9033642578124 344.875 932.125 C343.70839658388195 930.4960484501057 342.5417281301029 928.8671434764717 341.375 927.23828125 C340.7820312499998 926.4076416015625 340.1890625000001 925.5770019531251 339.578125 924.72119140625 C336.85514062540096 920.9100675346115 334.1164792606769 917.11033292095 331.375 913.3125 C330.84205322265643 912.5737060546876 330.3091064453124 911.834912109375 329.760009765625 911.07373046875 C325.810514068301 905.6079263649542 321.8192683699681 900.173917724364 317.8125 894.75 C311.62238881462326 886.3705154194085 305.5077569139203 877.9389263726671 299.42138671875 869.48388671875 C296.7223788210913 865.7364023084954 294.0171850608558 861.9933879945174 291.3125 858.25 C288.0711854669976 853.7638962073986 284.83108046018606 849.2769516943115 281.59765625 844.78515625 C276.0444537625772 837.0753702723155 270.45812795068287 829.3924236889734 264.8125 821.75 C258.62238881462326 813.3705154194085 252.50775691392028 804.9389263726671 246.42138671875 796.48388671875 C243.7223787187636 792.7364021664168 241.01711245867227 788.9934406053812 238.3125 785.25 C237.24606398201195 783.7734589995591 236.17965784207445 782.2968964191596 235.11328125 780.8203125 C234.84620361328143 780.4505126953125 234.84620361328143 780.4505126953125 233.49462890625 778.5791015625 C228.60058593750045 771.8027343750005 223.70654296875 765.0263671874998 218.8125 758.25 C212.5420140299525 758.8237788097863 207.02462011299758 760.2769883999063 201.0703125 762.28515625 C200.60007156372058 762.4402793121337 200.60007156372058 762.4402793121337 198.22036743164063 763.2252960205078 C195.1239093138065 764.2479352893565 192.030800527069 765.2803533628703 188.9375 766.3125 C184.5089361322698 767.7781489204717 180.0786545151277 769.2385756432527 175.6484375 770.69921875 C174.51096069335927 771.0750006103517 173.37348388671853 771.450782470703 172.2015380859375 771.8379516601563 C161.07712572831042 775.5073906242724 149.9177679816903 779.0639839811804 138.75381469726563 782.6109008789063 C123.02944465881728 787.6076095549283 107.35424796401139 792.6894975432856 91.78564453125 798.1533203125 C85.23460373064881 800.44544296545 78.67363102349873 802.5466962181554 71.991943359375 804.420654296875 C66.01284598011262 806.1226676401154 60.172072381607904 808.1776889944858 54.3125 810.25 C47.12843624440484 812.7893661689359 39.95221334894586 815.1689562188562 32.618896484375 817.235107421875 C24.22873202709502 819.6364476253498 15.984049291624615 822.4948192199454 7.7236328125 825.304443359375 C6.599248046874891 825.6847973632812 5.474863281250009 826.0651513671874 4.31640625 826.45703125 C3.3039282226563955 826.8022583007812 2.2914501953123363 827.1474853515624 1.248291015625 827.503173828125 C-1.1875 828.25 -1.1875 828.25 -3.1875 828.25 C-2.8575000000000728 927.25 -2.5275000000001455 1026.25 -2.1875 1128.25 C30.627533526364005 1137.6257238646754 30.627533526364005 1137.6257238646754 41.4375 1140 C42.71906982421888 1140.284560546875 44.00063964843753 1140.56912109375 45.321044921875 1140.8623046875 C74.22774028458025 1147.1823609672867 104.46051901259261 1151.2736592748965 134.07421875 1151.48828125 C135.2069773864746 1151.4981204223632 136.33973602294918 1151.5079595947266 137.50682067871094 1151.5180969238281 C235.82556657831356 1152.194161084606 333.87757891007277 1129.7841615376913 462.080078125 1046.6015625 C463.8322193059803 1045.234615828931 465.594920440034 1043.8822515112608 467.359375 1042.53125 C476.13524673469965 1035.7708662397886 484.53729946956446 1028.612074954663 492.8125 1021.25 C493.33602050781246 1020.7857763671875 493.8595410156249 1020.321552734375 494.39892578125 1019.84326171875 C502.0845756825888 1012.9919828567811 509.3951106136474 1005.7659174456239 516.6875 998.5 C517.5796923828125 997.6124804687502 518.471884765625 996.7249609374999 519.39111328125 995.810546875 C524.4051000432573 990.7843239898639 529.2211533402333 985.6643504809163 533.8125 980.25 C534.340048828125 979.633505859375 534.8675976562499 979.0170117187499 535.4111328125 978.3818359375 C537.4583304192229 975.9881307084815 539.4998938907838 973.5897058060386 541.537109375 971.1875 C544.1867232832133 968.0808191011351 546.8695067914741 965.0876354564302 549.8125 962.25 C548.494157458977 965.8172798168857 546.9168159286464 968.856847089553 544.828125 972.03125 C544.2299194335938 972.944873046875 543.6317138671875 973.8584960937501 543.015380859375 974.7998046875 C542.3709301757813 975.7733691406252 541.7264794921875 976.7469335937499 541.0625 977.75 C540.3929125976565 978.767392578125 539.7233251953126 979.7847851562501 539.033447265625 980.8330078125 C537.6424459578284 982.944124200629 536.2492760968548 985.0538132485881 534.85400390625 987.162109375 C532.9612975596046 990.0249352387136 531.0789326242993 992.8942592479552 529.19921875 995.765625 C518.0694555376949 1012.7008582782646 506.17145209992304 1028.9065958512429 493.2451171875 1044.51318359375 C491.1836786757149 1047.0123440526527 489.15833293324977 1049.5404537126185 487.125 1052.0625 C483.28915085689414 1056.7499780354285 479.25761709766675 1061.231693770436 475.15625 1065.6875 C473.12636333184173 1067.9068427571865 471.14754501755306 1070.156720343211 469.1875 1072.4375 C466.2053734692481 1075.874645837087 463.022508039493 1079.0586074688072 459.78125 1082.25 C457.87263544944835 1084.1889100196076 456.08539448382 1086.186995509737 454.3125 1088.25 C448.92351691328804 1094.49437722746 443.0624697706944 1100.0976822283094 436.8125 1105.46875 C434.7291292192331 1107.3242521016205 432.7696879310097 1109.2622310075683 430.8125 1111.25 C426.97667354837995 1115.1302568738395 422.9573400611225 1118.705071000356 418.8125 1122.25 C417.7703741549749 1123.155721938608 416.7287471548807 1124.062018027807 415.6875 1124.96875 C407.59316260030846 1131.9948284632571 399.32409487896166 1138.7365983863808 390.8125 1145.25 C390.08853027343775 1145.805263671875 389.36456054687505 1146.36052734375 388.61865234375 1146.9326171875 C369.76257049738706 1161.3508095209986 350.5279450422204 1175.0218258593147 330.0009765625 1186.96533203125 C328.0348327524084 1188.11948740036 326.08786803639805 1189.297768241484 324.1484375 1190.49609375 C252.72315435283872 1234.570866951545 170.6749068867648 1261.9109309526898 58.1875 1278 C57.63203491210925 1278.0578466796874 57.63203491210925 1278.0578466796874 54.821044921875 1278.3505859375 C34.81991544857601 1280.2630676919766 14.702569020220835 1280.4846289965037 -5.375 1280.5 C-6.544391174316388 1280.5016717529297 -7.713782348632776 1280.5033435058594 -8.918609619140625 1280.5050659179688 C-27.990842866784533 1280.5066878858095 -46.79891993451247 1279.6663779025537 -65.75634765625 1277.6171875 C-68.68382526470396 1277.3039011528308 -71.60933136734138 1277.028148762772 -74.54296875 1276.78125 C-114.07953935467367 1273.3331968822758 -154.3983268710681 1264.157482150898 -192.1875 1252.25 C-193.4177490234374 1251.863603515625 -194.64799804687505 1251.47720703125 -195.91552734375 1251.0791015625 C-225.92202922019032 1241.5978253894823 -254.82477594015836 1229.8895716944894 -283.1875 1216.25 C-284.1971582031251 1215.7670849609376 -285.20681640625 1215.284169921875 -286.2470703125 1214.78662109375 C-301.689483236858 1207.3628607874175 -316.52208132265423 1199.1027071695646 -331.1875 1190.25 C-332.0909716796875 1189.7073046875 -332.99444335937505 1189.164609375 -333.92529296875 1188.60546875 C-368.3033506695474 1167.8916967653524 -400.19632046479524 1143.882167427262 -430.1875 1117.25 C-430.5819531249999 1116.901953125 -430.5819531249999 1116.901953125 -432.578125 1115.140625 C-437.4855785503705 1110.77509883556 -442.21713725799054 1106.302429548081 -446.7890625 1101.5859375 C-448.8106257613106 1099.6170534116225 -450.8717037668921 1097.7850298414583 -453.01171875 1095.94921875 C-457.0704289713394 1092.42425155498 -460.7389873219065 1088.641627025368 -464.375 1084.6875 C-465.0164697265625 1083.9956762695313 -465.657939453125 1083.3038525390625 -466.31884765625 1082.591064453125 C-467.63670399469675 1081.1694744117628 -468.9531191963763 1079.7465469910683 -470.26806640625 1078.322265625 C-472.0791887171313 1076.3669354068925 -473.9019438842988 1074.4234235784158 -475.73046875 1072.484375 C-481.36853912273546 1066.4930584296962 -486.81296759595375 1060.43554959777 -491.95703125 1054.0078125 C-493.9670112987542 1051.5226182540798 -496.02907094243733 1049.0918371023538 -498.1162109375 1046.67138671875 C-504.3028578275014 1039.4783727799518 -510.03547091496534 1031.997573960296 -515.64599609375 1024.34912109375 C-517.1690583072996 1022.2751127136266 -518.703414471154 1020.2098119077064 -520.23828125 1018.14453125 C-567.5042670939727 954.0868772796678 -603.262395041565 879.6153138945888 -622.66162109375 802.32568359375 C-623.2875123385477 799.8552437779329 -623.9356649908598 797.3909419594759 -624.58203125 794.92578125 C-628.4153848603321 780.1413924619296 -631.4737315638363 765.277018753703 -634.1875 750.25 C-634.433471917484 748.9290799816033 -634.6796578203175 747.6081997971783 -634.926025390625 746.287353515625 C-636.776221474078 736.2480210618535 -638.1628458685632 726.2114344227907 -639.25 716.0625 C-639.3339904785157 715.2820028686524 -639.4179809570312 714.5015057373048 -639.5045166015625 713.6973571777344 C-640.0134653215057 708.9320691097178 -640.502429290839 704.1650578266435 -640.9746704101563 699.39599609375 C-641.1665159588495 697.4615855712236 -641.3630025654688 695.5276366838398 -641.56005859375 693.59375 C-645.1551178097739 656.7941005062312 -645.3283272852559 617.993061325938 -641.1875 581.25 C-641.0974871826172 580.433056640625 -641.0074743652344 579.6161132812499 -640.9147338867188 578.7744140625 C-632.1341321204159 499.33721078005146 -610.8899105740556 423.95196028861255 -575.1875 352.25 C-574.6866992187499 351.23905273437504 -574.1858984375001 350.2281054687501 -573.669921875 349.1865234375 C-565.0863433394641 331.95907303061006 -555.3964166264832 315.5468503642917 -545.1875 299.25 C-544.6588232421875 298.4043750000001 -544.130146484375 297.5587499999999 -543.58544921875 296.6875 C-533.2921652003511 280.3024155250563 -522.1681245477291 264.4435222455045 -510.1875 249.25 C-509.307637590528 248.11402119153172 -508.4287613367044 246.977278003151 -507.55078125 245.83984375 C-498.9567839847375 234.74395275172924 -489.868904354046 224.10184110723617 -480.41796875 213.7265625 C-478.55359456796896 211.65648678825278 -476.7187084561251 209.56679354518292 -474.890625 207.46484375 C-464.27488369247226 195.3163937588232 -453.00409614944147 183.92125670013593 -441.11474609375 173.0244140625 C-439.21632928072177 171.27654309757872 -437.3343112708426 169.51271925200342 -435.45703125 167.7421875 C-429.4501864764152 162.08649215087337 -423.3766359869944 156.62630878959544 -416.9296875 151.46875 C-414.5149544758526 149.51494892063295 -412.1584644267891 147.50790154099525 -409.811767578125 145.473388671875 C-335.1655567466462 81.02583162603207 -240.9993814894724 37.97841375496682 -95.104736328125 6.638916015625 C-92.14709209929697 6.24461295624576 -89.21700720785066 5.7605413047735965 -86.27734375 5.25 C-79.70971935022612 4.13009334872811 -73.12505891010346 3.3773821674983537 -66.5 2.6875 C-65.38044921875007 2.5618164062500455 -64.26089843750015 2.4361328124999773 -63.107421875 2.306640625 C-42.17089496091239 0.1106622391731662 -21.031767067198643 0.014566245697665181 0 0 Z " fill="#D11034" transform="translate(1923.1875,639.75)"/>
<path d="M0 0 C0 99 0 198 0 300 C1.650000000000091 300.3299999999999 3.2999999999999545 300.6600000000001 5 301 C7.648899502891936 301.83210302045427 10.277969890524673 302.68957997588905 12.90625 303.58203125 C13.286825561523528 303.70975669860854 13.286825561523528 303.70975669860854 15.2127685546875 304.3561248779297 C17.642819101474743 305.17205573152387 20.071497215817317 305.9919750533363 22.5 306.8125 C25.67637958342698 307.8836122168718 28.853416173109963 308.95274118518046 32.03125 310.01953125 C32.807708740234375 310.28021392822257 33.58416748046875 310.54089660644536 34.3841552734375 310.8094787597656 C39.868068195197566 312.64222497213404 45.37886394702582 314.3672888161623 50.912109375 316.045654296875 C57.61438054670816 318.1170630579604 64.24757516383056 320.40338265017544 70.89453125 322.64453125 C72.01214843749995 323.0196484375001 73.12976562499989 323.394765625 74.28125 323.78125 C75.26158203124987 324.1118945312501 76.24191406249997 324.4425390624999 77.251953125 324.783203125 C80.50407937349541 325.83900023433443 83.76441956793906 326.850119883723 87.034423828125 327.8486328125 C94.11084155681215 330.01819156604006 101.14062326103226 332.3177544620644 108.16796875 334.640625 C109.51619250220756 335.08504044213123 110.86447079228378 335.5292904613152 112.21279907226563 335.973388671875 C115.06419674554263 336.91263996345197 117.91542483287867 337.85240309855044 120.76651000976563 338.7926025390625 C148.60182949665023 347.9702675157862 176.4719005397019 357.02826276446535 204.40786743164063 365.895751953125 C207.75175753330586 366.95818207540333 211.08957398853818 368.02999240516533 214.416748046875 369.14404296875 C219.13477088535728 370.7073534376773 219.13477088535728 370.7073534376773 222 370 C224.3605677597634 367.62789315202554 226.14369643731607 364.8991157926698 228 362.125 C229.1571508269585 360.45935658536405 230.31471416467366 358.79399968524035 231.47265625 357.12890625 C231.76599853515654 356.7010180664063 231.76599853515654 356.7010180664063 233.25048828125 354.53564453125 C235.91937583354047 350.6675080369587 238.67732937356504 346.8657583631689 241.4375 343.0625 C241.97052734374984 342.32402832031244 242.50355468750013 341.5855566406249 243.052734375 340.82470703125 C247.581251088518 334.5539316420218 252.17116862335297 328.3293575336261 256.76708984375 322.10791015625 C262.3643217360468 314.52331160039125 267.8840862690922 306.88411670310643 273.39111328125 299.23388671875 C276.6314619459572 294.7347683147941 279.88027701705096 290.24175881198425 283.12744140625 285.74755859375 C285.8259802180064 282.01205500293395 288.5225795315937 278.27518519919363 291.21484375 274.53515625 C297.34756679082193 266.02079319332483 303.53232789472077 257.54783797838127 309.76708984375 249.10791015625 C315.9091963372939 240.78497250827127 321.9579068315693 232.39567784755172 328 224 C334.84018566563145 214.49534761129848 341.7008130433114 205.00620917614674 348.625 195.5625 C348.92112182617166 195.15680786132816 348.92112182617166 195.15680786132816 350.419677734375 193.103759765625 C350.69718872070325 192.72634643554693 350.69718872070325 192.72634643554693 352.1015625 190.81640625 C352.58963378906265 190.15068603515624 353.07770507812484 189.48496582031248 353.58056640625 188.799072265625 C355 186.9999999999999 355 186.9999999999999 358 184 C358 260.8899999999999 358 337.78 358 417 C361.3000000000002 417.6600000000001 364.5999999999999 418.31999999999994 368 419 C370.37583620409805 419.6977099359731 372.73870210590576 420.44205916910687 375.08203125 421.2421875 C375.70293136596683 421.45183135986326 376.32383148193367 421.6614752197265 376.9635467529297 421.8774719238281 C378.91522106218963 422.5375297219193 380.8639532625607 423.2057726329515 382.8125 423.875 C384.75083136709236 424.5355118598857 386.6897745595529 425.19416129748765 388.6293182373047 425.8511047363281 C390.39699684976586 426.4506288548 392.16303968181546 427.05496997912223 393.928955078125 427.65966796875 C397.27086009165214 428.7800428563892 400.6361593953525 429.81376825939515 404.00732421875 430.842529296875 C410.798785490053 432.92166523622905 417.54904533065064 435.11880957689687 424.2935733795166 437.34440422058105 C426.428327110164 438.0488068703585 428.56361189593827 438.7515796739103 430.6990203857422 439.45399475097656 C435.23730388833474 440.9471105028588 439.7749466106616 442.442167161754 444.3125 443.9375 C449.5719237075732 445.67067134555964 454.8316281622474 447.4029821475476 460.0919704437256 449.1333637237549 C462.16347020807643 449.8152189348489 464.23449639959654 450.4984976205608 466.3054962158203 451.18186950683594 C473.54104656031905 453.56498694565926 480.7931389286391 455.8837909574513 488.068115234375 458.14366149902344 C494.3873732230354 460.1107989616162 500.6780228756734 462.1617831303199 506.96347999572754 464.23437309265137 C508.9732989873978 464.8970656372935 510.9836265566091 465.5581965974534 512.9940643310547 466.21900939941406 C517.2673050693461 467.62387125946634 521.5399457636054 469.030551922609 525.8125 470.4375 C531.4435584888479 472.2917402629471 537.0749064819975 474.145094453542 542.70703125 475.99609375 C543.3806482315063 476.217504081726 544.0542652130125 476.43891441345204 544.7482948303223 476.6670341491699 C555.4742439459437 480.19058211630977 566.2199124136741 483.645634220253 577 487 C577 487.6600000000001 577 488.31999999999994 577 489 C523.2679485408526 506.60310689203993 523.2679485408526 506.60310689203993 501.6875 513.625 C500.91248138427727 513.8772534179689 500.13746276855454 514.1295068359375 499.3389587402344 514.389404296875 C489.3848210292326 517.6271241096024 479.41939438606414 520.8281574570037 469.4453125 524.00390625 C465.0676462537381 525.398242701212 460.69004096945173 526.79277028965 456.3125 528.1875 C455.2402014160157 528.5290109252928 454.16790283203136 528.8705218505861 453.0631103515625 529.2223815917969 C439.3012600309089 533.6093932472832 425.6018718613618 538.1247083418552 411.970947265625 542.902587890625 C404.8362864133396 545.3961983550078 397.6868813902074 547.655533457141 390.4140625 549.70703125 C383.3112452185005 551.7400471003002 376.3033225499348 554.1027095035386 369.2861328125 556.41064453125 C368.2558496093752 556.7456396484376 367.22556640625 557.0806347656248 366.1640625 557.42578125 C365.2406103515623 557.7291137695313 364.317158203125 558.0324462890626 363.36572265625 558.344970703125 C361 559 361 559 358 559 C358 635.8899999999999 358 712.78 358 792 C355.3589790710448 789.3589790710448 353.32443540539134 787.253245942371 351.22265625 784.3046875 C350.71613525390603 783.5983618164064 350.2096142578125 782.8920361328123 349.687744140625 782.164306640625 C349.1514135742186 781.4088354492187 348.61508300781225 780.6533642578124 348.0625 779.875 C346.89589658388195 778.2460484501057 345.7292281301029 776.6171434764717 344.5625 774.98828125 C343.9695312499998 774.1576416015625 343.3765625000001 773.3270019531251 342.765625 772.47119140625 C340.0426406254014 768.6600675346117 337.3039792606769 764.8603329209498 334.5625 761.0625 C334.02955322265643 760.3237060546876 333.4966064453124 759.584912109375 332.947509765625 758.82373046875 C328.998014068301 753.3579263649542 325.0067683699681 747.923917724364 321 742.5 C314.80988881462326 734.1205154194088 308.6952569139203 725.6889263726671 302.60888671875 717.23388671875 C299.9098788210913 713.4864023084951 297.2046850608558 709.7433879945177 294.5 706 C291.2586854669976 701.5138962073988 288.01858046018606 697.0269516943115 284.78515625 692.53515625 C279.2319537625772 684.8253702723155 273.64562795068287 677.1424236889734 268 669.5 C261.80988881462326 661.1205154194088 255.69525691392028 652.6889263726671 249.60888671875 644.23388671875 C246.9098787187636 640.4864021664166 244.20461245867227 636.7434406053812 241.5 633 C240.43356398201195 631.5234589995591 239.36715784207445 630.0468964191596 238.30078125 628.5703125 C238.03370361328143 628.2005126953125 238.03370361328143 628.2005126953125 236.68212890625 626.3291015625 C231.78808593750045 619.5527343750005 226.89404296875 612.7763671875 222 606 C215.7295140299525 606.5737788097863 210.21212011299758 608.0269883999063 204.2578125 610.03515625 C203.78757156372058 610.1902793121337 203.78757156372058 610.1902793121337 201.40786743164063 610.9752960205078 C198.31140931380696 611.9979352893565 195.218300527069 613.0303533628705 192.125 614.0625 C187.6964361322698 615.5281489204715 183.2661545151277 616.9885756432527 178.8359375 618.44921875 C177.69846069335927 618.8250006103517 176.56098388671853 619.200782470703 175.3890380859375 619.5879516601563 C164.26462572831088 623.2573906242724 153.1052679816903 626.8139839811804 141.94131469726563 630.3609008789063 C126.21694465881706 635.3576095549283 110.54174796401117 640.4394975432856 94.97314453125 645.9033203125 C88.42210373064859 648.1954429654502 81.86113102349873 650.2966962181554 75.179443359375 652.170654296875 C69.20034598011216 653.8726676401157 63.35957238160813 655.9276889944856 57.5 658 C50.315936244405066 660.5393661689357 43.13971334894586 662.9189562188562 35.806396484375 664.985107421875 C27.41623202709502 667.3864476253498 19.171549291624615 670.2448192199454 10.9111328125 673.054443359375 C9.78674804687489 673.4347973632812 8.662363281250009 673.8151513671874 7.50390625 674.20703125 C6.491428222656168 674.5522583007812 5.478950195312564 674.8974853515624 4.435791015625 675.253173828125 C2 676 2 676 0 676 C0 775 0 874 0 976 C-63.76389664457565 958.6098463696612 -123.59072789054358 923.1513240357799 -174 881 C-174.59087402343744 880.5082226562499 -175.18174804687487 880.0164453124999 -175.79052734375 879.509765625 C-188.79830370362288 868.6512262061706 -201.05699526853004 857.0127949210328 -213.0625 845.0625 C-213.7525512695313 844.3771215820311 -214.4426025390626 843.6917431640625 -215.153564453125 842.985595703125 C-219.63877743697208 838.4861941881209 -223.85905862494246 833.816048749829 -228 829 C-229.04559800601055 827.8087737398087 -230.0924417074582 826.618639550496 -231.140625 825.4296875 C-238.3855176715947 817.1662515377998 -245.35148992605605 808.7503684999829 -252 800 C-252.5267431640625 799.3098681640627 -253.05348632812502 798.6197363281249 -253.59619140625 797.90869140625 C-267.82347306850124 779.1894579615196 -280.56942591712004 759.5416710064819 -292 739 C-292.512724609375 738.08669921875 -293.02544921875005 737.1733984375 -293.5537109375 736.232421875 C-328.9044114762171 673.0894889007391 -348.46123492277275 604.5005721467137 -355.614501953125 532.786865234375 C-355.8114649554632 530.8520374134318 -356.01094431439196 528.916922417894 -356.26495361328125 526.9887542724609 C-357.1216013293197 520.2957056350106 -357.144362861789 513.6588690726185 -357.1328125 506.91796875 C-357.13376922607426 505.6685700988769 -357.13472595214853 504.4191714477538 -357.1357116699219 503.1319122314453 C-357.13639006494145 500.4919585703153 -357.1350702663101 497.85209840238076 -357.13037109375 495.212158203125 C-357.123629010875 491.23842271437934 -357.1303019344548 487.2647520516214 -357.13671875 483.291015625 C-357.14546894493424 461.82392681079864 -356.33263724464473 440.9990836835286 -353.25 419.75 C-353.11616912841805 418.81123016357424 -352.9823382568359 417.8724603271485 -352.8444519042969 416.9052429199219 C-350.7807732406345 402.46715198278366 -348.39133882304805 388.19212134974714 -345 374 C-344.75701171874994 372.9452246093749 -344.5140234375001 371.89044921875006 -344.263671875 370.8037109375 C-324.8129021764739 286.5901654382428 -283.49093087612755 208.35324507480925 -225.265625 144.51171875 C-224.0108120078305 143.12060710523292 -222.76283050901839 141.72288449845894 -221.544677734375 140.299560546875 C-216.48649322272036 134.40417983567693 -211.06520261398646 128.91673693119753 -205.5625 123.4375 C-204.65951171875008 122.53064453125 -203.75652343749994 121.62378906250001 -202.826171875 120.689453125 C-198.24456121316302 116.11447767049367 -193.61083210057882 111.67110093564872 -188.696044921875 107.455322265625 C-186.54027599304823 105.60552543465678 -184.4615541515211 103.67721728904132 -182.375 101.75 C-176.78866803472306 96.71550933828394 -170.90832431990043 92.12034527619551 -164.9599609375 87.52734375 C-162.93989036351968 85.95315821053555 -160.94140291770054 84.35445842600916 -158.9453125 82.75 C-131.28188846632406 60.64468379342338 -100.61723689853352 42.79069774819061 -69 27 C-68.15840332031257 26.575253906250055 -67.31680664062492 26.150507812499995 -66.44970703125 25.712890625 C-15.271579250418881 0 -15.271579250418881 0 0 0 Z " fill="#006533" transform="translate(1920,792)"/>
<path d="M0 0 C0.32999999999992724 0 0.6599999999998545 0 1 0 C1 76.8900000000001 1 153.77999999999997 1 233 C4.300000000000182 233.66000000000008 7.599999999999909 234.31999999999994 11 235 C13.37583620409805 235.69770993597308 15.738702105905759 236.44205916910687 18.08203125 237.2421875 C18.702931365966833 237.45183135986326 19.323831481933667 237.66147521972653 19.963546752929688 237.87747192382813 C21.91522106218963 238.53752972191933 23.8639532625607 239.2057726329515 25.8125 239.875 C27.75083136709145 240.53551185988545 29.68977455955337 241.19416129748788 31.629318237304688 241.85110473632813 C33.396996849765856 242.45062885480002 35.16303968181546 243.05496997912223 36.928955078125 243.65966796875 C40.270860091652594 244.7800428563894 43.636159395352024 245.81376825939515 47.00732421875 246.842529296875 C53.79878549005343 248.92166523622905 60.54904533065064 251.11880957689664 67.2935733795166 253.34440422058105 C69.42832711016399 254.04880687035848 71.56361189593827 254.75157967391033 73.69902038574219 255.45399475097656 C78.23730388833519 256.9471105028588 82.77494661066157 258.442167161754 87.3125 259.9375 C92.5719237075732 261.67067134555964 97.8316281622474 263.4029821475476 103.09197044372559 265.1333637237549 C105.16347020807643 265.8152189348489 107.23449639959608 266.4984976205608 109.30549621582031 267.18186950683594 C116.54104656031859 269.56498694565926 123.79313892863911 271.8837909574513 131.068115234375 274.14366149902344 C137.3873732230354 276.1107989616162 143.67802287567338 278.1617831303199 149.96347999572754 280.23437309265137 C151.9732989873978 280.8970656372935 153.98362655660912 281.5581965974534 155.9940643310547 282.21900939941406 C160.26730506934655 283.62387125946657 164.53994576360492 285.03055192260877 168.8125 286.4375 C174.44355848884788 288.29174026294686 180.07490648199746 290.145094453542 185.70703125 291.99609375 C186.38064823150626 292.217504081726 187.0542652130125 292.43891441345204 187.74829483032227 292.6670341491699 C198.47424394594373 296.19058211630977 209.21991241367414 299.645634220253 220 303 C220 303.6600000000001 220 304.31999999999994 220 305 C166.2679485409035 322.60310689202333 166.2679485409035 322.60310689202333 144.6875 329.625 C143.91248138427727 329.87725341796886 143.13746276855454 330.1295068359375 142.33895874023438 330.389404296875 C132.38482102923263 333.6271241096026 122.41939438606414 336.8281574570037 112.4453125 340.00390625 C108.06764625373853 341.39824270121153 103.69004096945173 342.7927702896502 99.3125 344.1875 C98.24020141601568 344.52901092529305 97.16790283203136 344.8705218505859 96.0631103515625 345.2223815917969 C82.3012600309089 349.6093932472829 68.60187186136181 354.12470834185524 54.970947265625 358.902587890625 C47.83628641333962 361.39619835500775 40.68688139020742 363.655533457141 33.4140625 365.70703125 C26.311245218500517 367.7400471003 19.30332254993482 370.10270950353856 12.2861328125 372.41064453125 C11.255849609375218 372.7456396484374 10.225566406249982 373.08063476562506 9.1640625 373.42578125 C8.70233642578114 373.57744750976553 8.70233642578114 373.57744750976553 6.36572265625 374.344970703125 C4 375 4 375 1 375 C1 451.8899999999999 1 528.78 1 608 C-1.6410209289556406 605.3589790710446 -3.675564594608204 603.2532459423712 -5.77734375 600.3046875 C-6.283864746093968 599.5983618164064 -6.790385742187482 598.8920361328123 -7.312255859375 598.164306640625 C-7.848586425781377 597.4088354492187 -8.384916992187755 596.6533642578124 -8.9375 595.875 C-10.104103416117596 594.2460484501057 -11.27077186989709 592.6171434764717 -12.4375 590.98828125 C-13.030468750000182 590.1576416015625 -13.623437499999909 589.3270019531251 -14.234375 588.47119140625 C-16.957359374598582 584.6600675346117 -19.696020739323103 580.86033292095 -22.4375 577.0625 C-22.703973388671784 576.6931030273438 -22.703973388671784 576.6931030273438 -24.052490234375 574.82373046875 C-28.001985931698982 569.3579263649544 -31.993231630031914 563.923917724364 -36 558.5 C-42.190111185376736 550.1205154194085 -48.304743086079725 541.6889263726671 -54.39111328125 533.23388671875 C-57.0901211789087 529.4864023084956 -59.79531493914419 525.7433879945174 -62.5 522 C-65.74131453300242 517.5138962073988 -68.98141953981394 513.0269516943113 -72.21484375 508.53515625 C-77.76804623742282 500.82537027231547 -83.35437204931713 493.1424236889734 -89 485.5 C-95.19011118537674 477.12051541940855 -101.30474308607972 468.6889263726671 -107.39111328125 460.23388671875 C-110.0901212812364 456.4864021664166 -112.79538754132773 452.743440605381 -115.5 449 C-116.56643601798805 447.5234589995591 -117.63284215792555 446.0468964191598 -118.69921875 444.5703125 C-119.23337402343759 443.8307128906249 -119.76752929687518 443.09111328125005 -120.31787109375 442.3291015625 C-125.2119140625 435.5527343750002 -130.10595703125 428.7763671875 -135 422 C-141.2704859700475 422.5737788097863 -146.78787988700242 424.02698839990626 -152.7421875 426.03515625 C-153.21242843627942 426.1902793121337 -153.21242843627942 426.1902793121337 -155.59213256835938 426.9752960205078 C-158.6885906861935 427.99793528935675 -161.781699472931 429.0303533628705 -164.875 430.0625 C-169.3035638677302 431.5281489204715 -173.73384548487275 432.9885756432527 -178.1640625 434.44921875 C-179.30153930664073 434.8250006103515 -180.43901611328147 435.2007824707032 -181.6109619140625 435.58795166015625 C-192.73537427168912 439.25739062427215 -203.89473201831015 442.8139839811804 -215.05868530273438 446.36090087890625 C-230.78305534118294 451.35760955492833 -246.45825203598883 456.4394975432856 -262.02685546875 461.9033203125 C-268.5778962693514 464.19544296544996 -275.13886897650127 466.2966962181554 -281.820556640625 468.170654296875 C-287.79965401988784 469.87266764011565 -293.64042761839164 471.9276889944856 -299.5 474 C-306.68406375559493 476.53936616893566 -313.86028665105437 478.91895621885624 -321.193603515625 480.985107421875 C-329.58376797290475 483.38644762534955 -337.8284507083754 486.2448192199456 -346.0888671875 489.054443359375 C-347.2132519531251 489.4347973632812 -348.33763671875 489.8151513671876 -349.49609375 490.20703125 C-350.50857177734383 490.5522583007812 -351.52104980468744 490.8974853515624 -352.564208984375 491.253173828125 C-355 492 -355 492 -357 492 C-357 367.9200000000001 -357 243.83999999999992 -357 116 C-352.5367290376457 116.8926541924709 -348.3860039679357 118.1245657733632 -344.09375 119.58203125 C-343.33259887695317 119.83748214721686 -342.57144775390634 120.0929330444335 -341.7872314453125 120.35612487792969 C-339.35718089852526 121.17205573152387 -336.9285027841827 121.99197505333632 -334.5 122.8125 C-331.32362041657325 123.88361221687182 -328.14658382689004 124.95274118518046 -324.96875 126.01953125 C-324.1922912597656 126.28021392822257 -323.41583251953125 126.54089660644536 -322.6158447265625 126.80947875976563 C-317.13193180480266 128.64222497213382 -311.62113605297395 130.36728881616227 -306.087890625 132.045654296875 C-299.38561945329184 134.11706305796042 -292.75242483616944 136.40338265017544 -286.10546875 138.64453125 C-284.98785156250005 139.0196484375001 -283.8702343750001 139.394765625 -282.71875 139.78125 C-281.7384179687499 140.11189453125007 -280.7580859375 140.44253906249992 -279.748046875 140.783203125 C-276.4959206265039 141.83900023433466 -273.2355804320614 142.85011988372275 -269.965576171875 143.8486328125 C-262.8891584431881 146.01819156604006 -255.8593767389675 148.31775446206439 -248.83203125 150.640625 C-247.48380749779244 151.08504044213123 -246.13552920771622 151.5292904613152 -244.78720092773438 151.973388671875 C-241.93580325445714 152.91263996345197 -239.08457516712133 153.85240309855044 -236.23348999023438 154.7926025390625 C-208.39817050334977 163.9702675157862 -180.5280994602981 173.02826276446535 -152.59213256835938 181.895751953125 C-149.24824246669414 182.95818207540333 -145.91042601146182 184.02999240516533 -142.583251953125 185.14404296875 C-137.86522911464226 186.70735343767728 -137.86522911464226 186.70735343767728 -135 186 C-132.6394322402366 183.62789315202554 -130.8563035626844 180.89911579267005 -129 178.125 C-127.84284917304149 176.45935658536405 -126.68528583532634 174.79399968524035 -125.52734375 173.12890625 C-124.94065917968737 172.27312988281255 -124.3539746093752 171.4173535156251 -123.74951171875 170.53564453125 C-121.08062416645907 166.66750803695868 -118.32267062643496 162.86575836316888 -115.5625 159.0625 C-115.29598632812485 158.69326416015633 -115.29598632812485 158.69326416015633 -113.947265625 156.82470703125 C-109.41874891148154 150.55393164202178 -104.82883137664703 144.32935753362608 -100.23291015625 138.10791015625 C-94.63567826395274 130.52331160039103 -89.11591373090778 122.88411670310643 -83.60888671875 115.23388671875 C-80.3685380540428 110.73476831479411 -77.11972298294904 106.24175881198425 -73.87255859375 101.74755859375 C-71.1740197819936 98.01205500293418 -68.47742046840631 94.27518519919363 -65.78515625 90.53515625 C-59.65243320917807 82.02079319332483 -53.467672105279235 73.54783797838127 -47.23291015625 65.10791015625 C-41.09080366270564 56.78497250827127 -35.04209316843071 48.39567784755195 -29 40 C-21.556481964627892 29.656998372029875 -14.074225690625099 19.346046536590848 -6.492431640625 9.103759765625 C-5.934187011718677 8.348933105468745 -5.3759423828123545 7.594106445312491 -4.80078125 6.81640625 C-4.307473144531286 6.150686035156241 -3.8141650390625728 5.484965820312482 -3.305908203125 4.799072265625 C-2.164812314599203 3.227052149239512 -1.077510959877145 1.616266439815945 0 0 Z " fill="#D21034" transform="translate(2277,976)"/>
<path d="M0 0 C5.623582766439995 5.623582766439995 5.623582766439995 5.623582766439995 7.875 8.79296875 C8.126649169921848 9.144520263671893 8.126649169921848 9.144520263671893 9.400146484375 10.923583984375 C9.928098144531305 11.670676269531214 10.45604980468761 12.417768554687427 11 13.1875 C12.157463769587594 14.807354774701707 13.315018364812204 16.427144653365076 14.47265625 18.046875 C15.0593408203124 18.8712304687499 15.646025390625027 19.695585937500027 16.25048828125 20.544921875 C18.964407170342156 24.353346149171102 21.699702969365035 28.14622078881939 24.4375 31.9375 C24.970527343750064 32.67637451171868 25.5035546874999 33.41524902343758 26.052734375 34.176513671875 C30.002055878105693 39.64230368627818 33.99329932096316 45.076173908095825 38 50.5 C45.27942621688112 60.35407820848309 52.44830324132499 70.28574333532856 59.6044921875 80.2294921875 C65.6923875042055 88.68593036298444 71.80868741048221 97.11888909200115 78 105.5 C84.19011118537674 113.87948458059145 90.3047430860795 122.31107362733292 96.39111328125 130.76611328125 C99.6299194660985 135.26309000224592 102.87694435694357 139.75413825805117 106.123046875 144.245849609375 C108.84818122892875 148.01750442142338 111.56997872502143 151.79148212220093 114.28515625 155.5703125 C114.82769042968744 156.32417236328138 115.3702246093751 157.07803222656253 115.92919921875 157.854736328125 C117.00926754396164 159.35601515565008 118.08774592087639 160.8584392522082 119.16455078125 162.362060546875 C121.88038675269968 166.13691479456566 124.64591665044145 169.8551851133691 127.51953125 173.51171875 C128.0827709960936 174.23536621093763 128.64601074218763 174.95901367187503 129.226318359375 175.70458984375 C130.2988148752338 177.0758226170251 131.38371108257206 178.43747686530128 132.482666015625 179.78759765625 C136.05184233314958 184.3678499037767 136.05184233314958 184.3678499037767 135.79833984375 187.458984375 C134.96118935210598 190.1235294260798 133.98185806526135 191.7971151188151 132.296875 194.01171875 C132.01614135742193 194.38590942382825 132.01614135742193 194.38590942382825 130.595458984375 196.279541015625 C129.9864575195311 197.07416748046876 129.37745605468763 197.86879394531252 128.75 198.6875 C127.46401226629496 200.39781262188535 126.17887529763311 202.10876522249646 124.89453125 203.8203125 C124.24178222656246 204.68559570312505 123.58903320312493 205.5508789062501 122.91650390625 206.4423828125 C120.040628863871 210.28030216841898 117.23619546641044 214.1681212716478 114.4375 218.0625 C113.36332384937145 219.5534161096125 112.28910505026442 221.04430149274322 111.21484375 222.53515625 C110.68487792968745 223.2713720703125 110.15491210937489 224.00758789062502 109.60888671875 224.76611328125 C106.36853805404303 229.2652316852059 103.11972298294904 233.75824118801575 99.87255859375 238.25244140625 C97.17401978199382 241.98794499706582 94.47742046840608 245.72481480080637 91.78515625 249.46484375 C85.65243320917807 257.97920680667517 79.46767210527901 266.45216202161873 73.23291015625 274.89208984375 C67.09080366270587 283.21502749172873 61.04209316843094 291.60432215244805 55 300 C47.79936792072044 310.0055039786946 40.55749213778745 319.97688477949146 33.23291015625 329.89208984375 C29.270986345769643 335.260743883749 25.341096734910252 340.651299142761 21.4375 346.0625 C21.175296630859293 346.4256530761718 21.175296630859293 346.4256530761718 19.848388671875 348.263427734375 C17.009981405939925 352.1988587141434 14.183662045383471 356.1425914573547 11.3671875 360.09375 C10.772365722656332 360.92511474609364 10.177543945312436 361.7564794921875 9.564697265625 362.613037109375 C8.418404709492279 364.2154828688399 7.275519947765588 365.8203732303132 6.136474609375 367.427978515625 C5.879991455078198 367.785975341797 5.879991455078198 367.785975341797 4.58203125 369.59765625 C4.130617675781195 370.2319555664062 3.679204101562391 370.8662548828124 3.214111328125 371.519775390625 C2 373 2 373 0 374 C0 250.57999999999993 0 127.16000000000008 0 0 Z " fill="#FEFEFE" transform="translate(1920,1093)"/>
<path d="M0 0 C0 3.4132123481931558 -0.6686746559798848 4.394728850369347 -2.5 7.1875 C-2.964062500000182 7.902929687500091 -3.428124999999909 8.618359374999955 -3.90625 9.35546875 C-4.267187500000091 9.898164062499973 -4.628125000000182 10.440859374999945 -5 11 C-5.6599999999998545 10.339999999999918 -6.320000000000164 9.680000000000064 -7 9 C-4.690000000000055 6.029999999999973 -2.380000000000109 3.0599999999999454 0 0 Z " fill="#DD4D67" transform="translate(2472,1602)"/>
<path d="M0 0 C0.6599999999998545 0 1.3200000000001637 0 2 0 C1.8125 1.875 1.8125 1.875 1 4 C-1.5625 5.25 -1.5625 5.25 -4 6 C-2.8482664479834057 3.5319995313932395 -1.9521643451748787 1.9521643451746513 0 0 Z " fill="#D62848" transform="translate(2464,1612)"/>
</svg>
