<?xml version="1.0" encoding="UTF-8"?>
<!-- Generator: visioncortex VTracer 0.6.12 -->
<svg version="1.1" xmlns="http://www.w3.org/2000/svg" width="3840" height="2560">
<path d="M0 0 C1267.2 0 2534.4 0 3840 0 C3840 844.8000000000001 3840 1689.6000000000001 3840 2560 C2572.8 2560 1305.6 2560 0 2560 C0 1715.1999999999998 0 870.3999999999999 0 0 Z " fill="#FEFEFE" transform="translate(0,0)"/>
<path d="M0 0 C1267.2 0 2534.4 0 3840 0 C3840 281.49 3840 562.98 3840 853 C2572.8 853 1305.6 853 0 853 C0 571.5100000000002 0 290.02 0 0 Z " fill="#C8102E" transform="translate(0,1707)"/>
<path d="M0 0 C1267.2 0 2534.4 0 3840 0 C3840 281.49 3840 562.98 3840 853 C2572.8 853 1305.6 853 0 853 C0 571.51 0 290.02 0 0 Z " fill="#C8102E" transform="translate(0,0)"/>
</svg>
