<?xml version="1.0" encoding="UTF-8"?>
<!-- Generator: visioncortex VTracer 0.6.12 -->
<svg version="1.1" xmlns="http://www.w3.org/2000/svg" width="3840" height="3328">
<path d="M0 0 C1267.2 0 2534.4 0 3840 0 C3840 1098.24 3840 2196.48 3840 3328 C2572.8 3328 1305.6 3328 0 3328 C0 2229.76 0 1131.52 0 0 Z " fill="#FDDA25" transform="translate(0,0)"/>
<path d="M0 0 C422.4000000000001 0 844.8000000000002 0 1280 0 C1280 1098.24 1280 2196.48 1280 3328 C857.5999999999999 3328 435.1999999999998 3328 0 3328 C0 2229.76 0 1131.52 0 0 Z " fill="#EF3340" transform="translate(2560,0)"/>
<path d="M0 0 C422.40000000000003 0 844.8000000000001 0 1280 0 C1280 1098.24 1280 2196.48 1280 3328 C857.5999999999999 3328 435.19999999999993 3328 0 3328 C0 2229.76 0 1131.52 0 0 Z " fill="#000000" transform="translate(0,0)"/>
</svg>
