<?xml version="1.0" encoding="UTF-8"?>
<!-- Generator: visioncortex VTracer 0.6.12 -->
<svg version="1.1" xmlns="http://www.w3.org/2000/svg" width="250" height="125">
<path d="M0 0 C82.5 0 165 0 250 0 C250 41.25 250 82.5 250 125 C167.5 125 85 125 0 125 C0 83.75 0 42.5 0 0 Z " fill="#021588" transform="translate(0,0)"/>
<path d="M0 0 C40.92 0 81.84 0 124 0 C124 40.92 124 81.84 124 124 C119.70862954798093 120.32168246969793 115.68225658082753 116.80749418533848 111.71644592285156 112.84342956542969 C111.23268932282923 112.36123295605182 110.74893272280693 111.87903634667397 110.25051683187485 111.38222771883011 C108.6530078147481 109.78866247681398 107.05904371233936 108.19160109233218 105.465087890625 106.594482421875 C104.31156710832414 105.44231851647831 103.15783410175737 104.29036705234603 102.00390625 103.13861083984375 C98.88844921210176 100.02769096403962 95.77613720102025 96.9136427314285 92.66453862190247 93.79886412620544 C89.40558063561775 90.53736694520542 86.14417517791077 87.27831862204678 82.88316345214844 84.01887512207031 C77.4150200640263 78.55254732260305 71.94898075945338 73.08412221151194 66.484130859375 67.614501953125 C60.15851254740967 61.28342585334245 53.829277756113896 54.95598230287788 47.49818426370621 48.630381762981415 C42.061005627088434 43.19773220160482 36.62576689840358 37.76314758311414 31.192163407802582 32.32692223787308 C27.947133296510614 29.08033031503011 24.701424566730267 25.834424586038207 21.45396614074707 22.590261459350586 C18.40735812792282 19.5465297173088 15.363183043805051 16.500385945801842 12.320915222167969 13.452316284179688 C11.201056690667286 12.33112953580729 10.080335294900024 11.210803908005436 8.958715438842773 10.091379165649414 C7.435053367216355 8.570425775298554 5.914467030801006 7.046464817879844 4.3946685791015625 5.5216522216796875 C3.9678153276443453 5.094610457420349 3.9678153276443453 5.094610457420349 1.8076791763305664 2.9335203170776367 C0 1 0 1 0 0 Z " fill="#FDDC00" transform="translate(67,0)"/>
<path d="M0 0 C19.139999999999986 0 38.28 0 58 0 C58 41.25 58 82.5 58 125 C38.860000000000014 125 19.72 125 0 125 C0 83.75 0 42.5 0 0 Z " fill="#001489" transform="translate(192,0)"/>
<path d="M0 0 C0.6599999999999966 0 1.3199999999999932 0 2 0 C2.3299999999999983 2.3100000000000023 2.6599999999999966 4.619999999999997 3 7 C5.969999999999999 7 8.939999999999998 7 12 7 C11.154375000000002 7.659999999999997 10.308750000000003 8.32 9.4375 9 C7 12 7 12 6.890625 14.11328125 C7.15774969056325 16.092112839304093 7.570337826240177 18.04999474985931 8 20 C7.422499999999999 19.690624999999997 6.844999999999999 19.381249999999994 6.25 19.0625 C2.3486238532110093 17.22018348623854 2.3486238532110093 17.22018348623854 0 17 C-2.25 18.4375 -2.25 18.4375 -4 20 C-4.659999999999997 19.67 -5.319999999999993 19.340000000000003 -6 19 C-5.865937500000001 18.474062500000002 -5.865937500000001 18.474062500000002 -5.1875 15.8125 C-5 12 -5 12 -7.4375 9.0625 C-8.283124999999998 8.381875 -9.128749999999997 7.701250000000002 -10 7 C-7.030000000000001 7 -4.060000000000002 7 -1 7 C-0.6700000000000017 4.689999999999998 -0.3400000000000034 2.3800000000000026 0 0 Z " fill="#E3E5F2" transform="translate(104,50)"/>
<path d="M0 0 C0.6599999999999966 0 1.3199999999999932 0 2 0 C2.3300000000000125 2.3100000000000023 2.6599999999999966 4.6200000000000045 3 7 C5.969999999999999 7 8.939999999999998 7 12 7 C10 9 8 11 6 13 C6.659999999999997 15.310000000000002 7.319999999999993 17.620000000000005 8 20 C7.422500000000014 19.690624999999997 6.844999999999999 19.381249999999994 6.25 19.0625 C2.348623853210995 17.22018348623854 2.348623853210995 17.22018348623854 0 17 C-2.125 18.4375 -2.125 18.4375 -4 20 C-4.659999999999997 20 -5.319999999999993 20 -6 20 C-5.731875000000002 18.783125 -5.4637500000000045 17.566249999999997 -5.1875 16.3125 C-4.890625 14.11328125 -4.890625 14.11328125 -5 12 C-7.4375 9 -7.4375 9 -10 7 C-7.360000000000014 6.670000000000002 -4.719999999999999 6.340000000000003 -2 6 C-1.3400000000000034 4.019999999999996 -0.6800000000000068 2.0400000000000063 0 0 Z " fill="#E5E7F3" transform="translate(151,97)"/>
<path d="M0 0 C2 2 2 2 3 5 C5.640000000000001 5.33 8.280000000000001 5.66 11 6 C11 6.66 11 7.32 11 8 C8.499999999999986 9.625000000000009 8.499999999999986 9.625000000000009 6 11 C6.329999999999998 13.969999999999999 6.659999999999997 16.94 7 20 C6.113124999999997 19.29875 5.22625 18.5975 4.3125 17.875 C1 16 1 16 -1.75 16.6875 C-2.4924999999999997 17.120625 -3.2349999999999994 17.55375 -4 18 C-4.659999999999997 18.33 -5.32 18.66 -6 19 C-5.125 13.25 -5.125 13.25 -4 11 C-4.598124999999996 10.731875 -5.196249999999999 10.46375 -5.8125 10.1875 C-8 9 -8 9 -11 6 C-8.030000000000001 6 -5.060000000000002 6 -2 6 C-1.8556250000000034 5.195625 -1.7112499999999997 4.391249999999999 -1.5625 3.5625 C-1 0.9999999999999982 -1 0.9999999999999982 0 0 Z " fill="#E2E4F1" transform="translate(58,4)"/>
<path d="M0 0 C0.6599999999999966 0.3299999999999983 1.3199999999999932 0.6599999999999966 2 1 C2.625 4.062499999999986 2.625 4.062499999999986 3 7 C5.640000000000001 7 8.280000000000001 7 11 7 C10.154375000000016 7.866249999999994 9.308750000000003 8.732500000000002 8.4375 9.625 C6.178465884340142 12.29015260836276 5.981604118450434 12.668874132107831 6.1875 16.375 C6.455624999999998 17.241250000000008 6.7237499999999955 18.1075 7 19 C6.628749999999997 18.824687499999996 6.628749999999997 18.824687499999996 4.75 17.9375 C0.9522409329913728 16.64280940897433 -0.7269496656997632 17.398837342136005 -4.25 19.0625 C-4.538749999999993 19.217187499999994 -4.538749999999993 19.217187499999994 -6 20 C-5.731875000000002 18.783125 -5.4637500000000045 17.566249999999997 -5.1875 16.3125 C-4.890625 14.11328125 -4.890625 14.11328125 -5 12 C-7.4375 9 -7.4375 9 -10 7 C-7.359999999999999 7 -4.719999999999999 7 -2 7 C-1.3400000000000034 4.689999999999998 -0.6800000000000068 2.3799999999999955 0 0 Z " fill="#ECEDF6" transform="translate(120,66)"/>
<path d="M0 0 C0.6599999999999966 0.3299999999999983 1.3199999999999932 0.6600000000000001 2 1 C2.625 4.062499999999986 2.625 4.062499999999986 3 7 C5.640000000000001 7 8.280000000000001 7 11 7 C10.154375000000002 7.866250000000001 9.308750000000003 8.732500000000002 8.4375 9.625 C6.178465884340142 12.29015260836276 5.981604118450434 12.668874132107824 6.1875 16.375 C6.455624999999998 17.24125 6.7237499999999955 18.1075 7 19 C6.628749999999997 18.824687499999996 6.628749999999997 18.824687499999996 4.75 17.9375 C0.9522409329913728 16.64280940897433 -0.7269496656997632 17.398837342136005 -4.25 19.0625 C-4.538749999999993 19.2171875 -4.538749999999993 19.2171875 -6 20 C-5.731875000000002 18.783125 -5.4637500000000045 17.566249999999997 -5.1875 16.3125 C-4.890625 14.11328125 -4.890625 14.11328125 -5 12 C-7.4375 9 -7.4375 9 -10 7 C-7.359999999999999 7 -4.719999999999999 7 -2 7 C-1.3400000000000034 4.689999999999998 -0.6800000000000068 2.379999999999999 0 0 Z " fill="#EAEBF5" transform="translate(73,19)"/>
<path d="M0 0 C2.5654594042241 2.565459404224093 2.5404608707689817 4.476866675895565 3 8 C5.640000000000001 8 8.280000000000001 8 11 8 C9.710348239561682 9.375628544467546 8.373107074381537 10.70766392999385 7 12 C6.340000000000003 12 5.680000000000007 12 5 12 C5.659999999999997 14.969999999999999 6.319999999999993 17.939999999999998 7 21 C4.689999999999998 19.68 2.3799999999999955 18.36 0 17 C-0.6187500000000057 17.495000000000005 -1.2374999999999972 17.989999999999995 -1.875 18.5 C-4 20 -4 20 -6 20 C-5.477315340428717 17.23723822798034 -4.891304134687488 14.673912404062463 -4 12 C-4.804374999999993 11.71125 -5.608750000000001 11.4225 -6.4375 11.125 C-9 10 -9 10 -10 8 C-7.359999999999999 8 -4.719999999999999 8 -2 8 C-1.9278125000000017 7.525624999999998 -1.9278125000000017 7.525624999999998 -1.5625 5.125 C-1 2 -1 2 0 0 Z " fill="#EEEFF7" transform="translate(89,34)"/>
<path d="M0 0 C1.9451000030854857 2.9176500046282285 2.4527631652248942 4.625372852220167 3 8 C5.310000000000002 8 7.6200000000000045 8 10 8 C9.319375000000008 8.474374999999995 8.638750000000016 8.948750000000004 7.9375 9.4375 C5.662117860892096 12.446876377529833 5.823956655900133 13.142833019954423 6.25 16.75 C6.479064839999609 18.170202007997602 6.72251758407819 19.588459014658582 7 21 C5.02000000000001 19.680000000000007 3.039999999999992 18.36 1 17 C0.7009375000000091 17.154687499999994 0.7009375000000091 17.154687499999994 -0.8125 17.9375 C-3 19 -3 19 -6 20 C-5.477315340428703 17.23723822798034 -4.891304134687488 14.673912404062463 -4 12 C-4.804374999999993 11.711250000000007 -5.608749999999986 11.4225 -6.4375 11.125 C-9 10 -9 10 -10 8 C-7.360000000000014 8 -4.719999999999999 8 -2 8 C-1.8556250000000034 6.865624999999994 -1.7112500000000068 5.731250000000003 -1.5625 4.5625 C-1 1 -1 1 0 0 Z " fill="#EEEFF7" transform="translate(136,81)"/>
<path d="M0 0 C2.5654594042241 2.5654594042241 2.5404608707689817 4.476866675895565 3 8 C5.639999999999986 8 8.280000000000001 8 11 8 C8.74826390240571 11.00231479679239 7.398178777063777 12.718503108111946 3.65234375 13.47265625 C-2.1585351156833212 13.674240283047837 -5.603744180763584 12.81780110617899 -10 9 C-10 8.670000000000002 -10 8.340000000000003 -10 8 C-7.360000000000014 8 -4.719999999999999 8 -2 8 C-1.9278124999999875 7.525625000000005 -1.9278124999999875 7.525625000000005 -1.5625 5.125 C-1 2 -1 2 0 0 Z " fill="#EFF0F7" transform="translate(167,112)"/>
<path d="M0 0 C2.969999999999999 0 5.939999999999998 0 9 0 C9.659999999999997 2.31 10.32 4.62 11 7 C10.236874999999998 6.67 9.473749999999995 6.34 8.6875 6 C4.415359085750808 4.41036617144216 2.044134045998142 5.251185277406208 -2 7 C-1.3400000000000034 4.6899999999999995 -0.6799999999999997 2.38 0 0 Z " fill="#EEEFF7" transform="translate(38,0)"/>
</svg>
