<?xml version="1.0" encoding="UTF-8"?>
<!-- Generator: visioncortex VTracer 0.6.12 -->
<svg version="1.1" xmlns="http://www.w3.org/2000/svg" width="330" height="231">
<path d="M0 0 C108.9 0 217.8 0 330 0 C330 76.23 330 152.46 330 231 C221.1 231 112.19999999999999 231 0 231 C0 154.76999999999998 0 78.53999999999999 0 0 Z " fill="#00943F" transform="translate(0,0)"/>
<path d="M0 0 C2.6501353838388297 1.368396901617153 5.14237582465708 2.8381006535350366 7.646484375 4.458984375 C8.138060302734374 4.775529785156252 8.138060302734374 4.775529785156252 10.625732421875 6.37744140625 C11.679299316406258 7.061772460937497 12.732866210937487 7.746103515625002 13.818359375 8.451171875 C15.50293774612581 9.537480720179353 17.187520210023166 10.623783288981734 18.872360229492188 11.709686279296875 C20.618383830305504 12.83576092581579 22.363231377442617 13.963639994888723 24.10791015625 15.091796875 C29.479107874262553 18.562781028193406 34.86811461390076 22.005953076810414 40.255859375 25.451171875 C41.29323242187499 26.115200195312497 42.33060546875001 26.779228515625 43.3994140625 27.46337890625 C51.01124665684344 32.334904088379915 58.6338804672653 37.189262729881634 66.260498046875 42.03759765625 C74.26021591115992 47.12512174552718 82.24459526389882 52.23644305057239 90.227783203125 57.349853515625 C98.13727753641672 62.414462500780104 106.05883358619576 67.45985497973764 113.98486328125 72.49853515625 C121.19486690885293 77.08380345028257 128.3880667731218 81.69451555501715 135.568359375 86.326171875 C131.17022796451852 90.02520392647136 126.45344211156157 93.09647867494074 121.630859375 96.201171875 C120.75260498046873 96.76924560546875 119.87435058593752 97.3373193359375 118.969482421875 97.922607421875 C110.78441777641416 103.20775440838864 102.56319343180411 108.43599376681783 94.337890625 113.658203125 C88.2383036725814 117.53233583667003 82.15279156116253 121.42829592657347 76.068359375 125.326171875 C68.24281159479449 130.33848475700506 60.41091012369836 135.34050457355414 52.568359375 140.326171875 C45.704661471805224 144.6904559684696 38.84484338671518 149.0607122379136 31.9931640625 153.44384765625 C29.855914895758502 154.81033320946528 27.71726880081536 156.1746366597691 25.5771484375 157.53662109375 C20.802226148533208 160.5815534619264 16.05619799661048 163.6516247586499 11.384765625 166.853515625 C10.60528564453125 167.38114501953126 9.8258056640625 167.9087744140625 9.022705078125 168.452392578125 C7.597863207085908 169.42117142919477 6.182767638576394 170.40451344769164 4.780029296875 171.405029296875 C0.2760195581475102 174.44837379045717 0.2760195581475102 174.44837379045717 -2.919921875 173.896484375 C-3.748789062500009 173.37828125 -4.57765624999999 172.860078125 -5.431640625 172.326171875 C-5.9674072265625 172.0002001953125 -6.503173828125 171.674228515625 -7.05517578125 171.33837890625 C-9.019317669832589 170.12132092996885 -10.943763522432192 168.85363782688026 -12.869140625 167.576171875 C-14.398528718259286 166.57401492621548 -15.928505478565427 165.57275592348807 -17.458984375 164.572265625 C-18.268354492187484 164.0422998046875 -19.077724609374997 163.512333984375 -19.91162109375 162.96630859375 C-24.22966772273594 160.1559387765123 -28.581412521284335 157.39885974344904 -32.931640625 154.638671875 C-40.94181367305006 149.55030279628082 -48.94083267365802 144.444898097378 -56.931640625 139.326171875 C-65.65018837162394 133.74193936724447 -74.37862676691891 128.17363635331105 -83.116455078125 122.61962890625 C-91.18240096252265 117.49038788885395 -99.2321014557435 112.33593289414205 -107.27783203125 107.175048828125 C-112.21494291304583 104.0113766926782 -117.15948414210594 100.86155918770629 -122.130859375 97.751953125 C-122.56966430664062 97.47714111328125 -122.56966430664062 97.47714111328125 -124.790283203125 96.08642578125 C-126.41940390460172 95.06820558537214 -128.0506236170176 94.05333287613993 -129.684326171875 93.04248046875 C-130.40273681640625 92.5934033203125 -131.1211474609375 92.144326171875 -131.861328125 91.681640625 C-132.4824951171875 91.29645263671875 -133.103662109375 90.9112646484375 -133.74365234375 90.514404296875 C-135.51222869575753 89.2694431882229 -136.94944006717597 87.89651093635811 -138.431640625 86.326171875 C-136.1975131164573 84.90445436956372 -133.96338398823417 83.48273941006936 -131.729248046875 82.06103515625 C-129.75021743769796 80.801637012343 -127.77121434446391 79.54219562874968 -125.792236328125 78.28271484375 C-120.84583898669686 75.13475945699695 -115.89912760435321 71.98730231954787 -110.951171875 68.841796875 C-100.20502965887653 62.00906933659286 -89.47226580659827 55.15582749104246 -78.748779296875 48.28759765625 C-71.98355831091926 43.95580790004601 -65.21090595276739 39.63594434385013 -58.431640625 35.326171875 C-51.61967627395579 30.99426759615588 -44.81027772737471 26.658398047233142 -38.0087890625 22.31005859375 C-35.89102466546433 20.95666570140834 -33.77190406596321 19.60539239586037 -31.6513671875 18.25634765625 C-26.579684133688147 15.021620898001373 -21.547661196836827 11.746319312321958 -16.580078125 8.353515625 C-15.666938476562507 7.736779785156251 -14.753798828125014 7.120043945312503 -13.81298828125 6.484619140625 C-12.101617661740761 5.324704279285697 -10.400082583309995 4.150097013950656 -8.71044921875 2.958740234375 C-7.953286132812508 2.4483520507812493 -7.1961230468749875 1.9379638671874986 -6.416015625 1.412109375 C-5.763427734375 0.9588427734374996 -5.11083984375 0.5055761718749991 -4.4384765625 0.03857421875 C-2.431640625 -0.673828125 -2.431640625 -0.673828125 0 0 Z " fill="#FCCA00" transform="translate(166.431640625,28.673828125)"/>
<path d="M0 0 C0.8301562500000159 0.6741796875000006 1.6603125000000034 1.3483593750000011 2.515625 2.04296875 C3.448906249999993 2.789335937499999 4.382187499999986 3.5357031249999977 5.34375 4.3046875 C5.702109374999992 4.591503906250011 5.702109374999992 4.591503906250011 7.515625 6.04296875 C3.0768162632267604 22.16285310986069 -6.510431086762992 32.529916732018535 -20.484375 41.04296875 C-35.394066056030056 48.680163017549205 -52.6455424122218 48.9867739746893 -68.484375 44.04296875 C-84.74687161719828 37.18322970384935 -95.36713530367771 25.16634848335309 -102.296875 9.16015625 C-106.32386673928588 -1.4106970656254418 -107.57105671293664 -14.229491753541325 -103.484375 -24.95703125 C-68.31294588403927 -32.96353543899919 -28.08036594708662 -22.02302986421509 0 0 Z " fill="#352B83" transform="translate(212.484375,125.95703125)"/>
<path d="M0 0 C11.010323684821543 9.687762281239372 18.507118958049546 22.717463840618166 20.6015625 37.2890625 C20.81430780811752 41.96945927858533 20.78850891678954 46.60847813889907 20.6015625 51.2890625 C16.5371291615549 51.2890625 15.058524594246023 49.67564888692188 11.7890625 47.2890625 C7.086397597482346 43.928679207184615 2.318019939611901 40.82716866255659 -2.7109375 37.9765625 C-3.2974609375000057 37.64293701171874 -3.8839843750000114 37.3093115234375 -4.48828125 36.965576171875 C-7.6690844973959145 35.18268546276916 -10.883062333102032 33.58722105665086 -14.2109375 32.1015625 C-17.3984375 30.2890625 -17.3984375 30.2890625 -18.3984375 27.5390625 C-18.3984375 26.796562499999993 -18.3984375 26.0540625 -18.3984375 25.2890625 C-18.800624999999997 25.796953125 -19.202812499999993 26.304843750000003 -19.6171875 26.828125 C-21.3984375 28.2890625 -21.3984375 28.2890625 -23.4921875 28.25 C-24.286249999999995 28.056640625 -25.08031249999999 27.86328125 -25.8984375 27.6640625 C-26.789179687499995 27.455234375000003 -27.67992187499999 27.246406250000007 -28.59765625 27.03125 C-31.31091784120406 26.31225459926253 -34.01088136040866 25.555989134085962 -36.7109375 24.7890625 C-48.88404754119463 21.4400842472526 -60.69294690322408 21.02354497344507 -73.2109375 21.1640625 C-74.78970779394741 21.174123529728107 -76.36848437360212 21.18324379910868 -77.947265625 21.19140625 C-81.76448203398058 21.21314686059904 -85.58138758540754 21.247499849116593 -89.3984375 21.2890625 C-88.63364329841683 16.67985085099332 -86.92463589310822 13.687502182498932 -84.0859375 10.0390625 C-83.64370849609375 9.470585937500005 -83.2014794921875 8.902109374999995 -82.745849609375 8.31640625 C-73.84974096332147 -2.6631546211870756 -61.38129151987124 -10.329134397019317 -47.3515625 -12.43359375 C-29.73305279599191 -14.088242148127748 -14.221426715012853 -10.94271162221451 0 0 Z " fill="#322880" transform="translate(202.3984375,70.7109375)"/>
<path d="M0 0 C0.3299999999999841 -0.9899999999999949 0.6599999999999966 -1.980000000000004 1 -3 C1.6599999999999966 -3 2.319999999999993 -3 3 -3 C3.1804687499999886 -2.2523437499999943 3.3609375000000057 -1.5046875000000028 3.546875 -0.734375 C5.56162714152174 3.0568252663043154 8.483865110789964 4.090741550209373 12.25 5.75 C20.304395928842354 9.530690721076425 27.720574978296156 13.867544636596136 35 19 C35.57218261718748 19.400012207031253 36.144365234375016 19.800024414062506 36.73388671875 20.212158203125 C40.901964599360184 23.343997159548437 40.901964599360184 23.343997159548437 41.3671875 26.45703125 C41.20476562499999 27.234335937499992 41.042343749999986 28.011640625 40.875 28.8125 C40.72804687500002 29.602695312500003 40.58109374999998 30.392890625000007 40.4296875 31.20703125 C40.358789062499994 31.502871093750002 40.358789062499994 31.502871093750002 40 33 C36.250071907066115 31.69112457489217 33.76908160037033 30.128072533662504 30.8125 27.5 C16.38637624791957 15.692904667196075 -1.868642130821911 7.835971340446704 -20 4 C-20.862382812500016 3.806640625 -21.724765625000003 3.61328125 -22.61328125 3.4140625 C-38.71752043273119 -0.04221278338553702 -55.683388485514485 0.14282470566831762 -72 2 C-70.73913043478261 -4.565217391304344 -70.73913043478261 -4.565217391304344 -69 -7 C-47.301430553259706 -12.947213606351156 -20.72750810558415 -7.1444953006986225 0 0 Z " fill="#E3E9EC" transform="translate(181,99)"/>
<path d="M0 0 C0.6694665527343773 -0.0016717529296812472 1.3389331054687545 -0.0033435058593767053 2.0286865234375 -0.00506591796875 C12.765526279549505 -0.0066746743001999675 23.409874636262572 0.3721163333822801 33.8125 3.25 C34.4725 3.9099999999999966 35.13249999999999 4.569999999999993 35.8125 5.25 C34.82249999999999 5.25 33.83250000000001 5.25 32.8125 5.25 C32.482500000000016 7.230000000000004 32.1525 9.210000000000008 31.8125 11.25 C27.11060559265232 11.345348936017189 22.760626250234907 11.011151858647466 18.125 10.25 C4.807195568947577 8.387092832561123 -8.843114092849135 8.731126807316159 -22.1875 10.25 C-20.92663043478261 3.684782608695656 -20.92663043478261 3.684782608695656 -19.1875 1.25 C-12.978223838479721 -0.45185835356684834 -6.383492464605666 0.014838066653723558 0 0 Z " fill="#EAF0F0" transform="translate(131.1875,90.75)"/>
<path d="M0 0 C0.69287109375 0.0045117187499954525 1.3857421875 0.009023437500005116 2.099609375 0.013671875 C3.7956106823879736 0.02536843574060299 5.491567031591728 0.04330075884820417 7.1875 0.0625 C7.1875 2.042500000000004 7.1875 4.022499999999994 7.1875 6.0625 C4.287468728342418 7.685824277561309 1.9417929394319628 8.38303985708076 -1.359375 8.6953125 C-1.7815429687500028 8.737207031249994 -1.7815429687500028 8.737207031249994 -3.91796875 8.94921875 C-4.790664062499999 9.027851562500004 -5.663359374999999 9.106484375000008 -6.5625 9.1875 C-7.006582031250005 9.230683593750001 -7.006582031250005 9.230683593750001 -9.25390625 9.44921875 C-11.439529362474858 9.660730664110474 -13.625582383877742 9.864902272337588 -15.8125 10.0625 C-14.55163043478261 3.497282608695656 -14.55163043478261 3.497282608695656 -12.8125 1.0625 C-8.592813779193307 -0.16002591443931635 -4.354004693103533 -0.05416465168454465 0 0 Z " fill="#E2EDEA" transform="translate(124.8125,90.9375)"/>
<path d="M0 0 C1.3520891387249492 0.6277556715508581 2.6816370495798765 1.304197331722719 4 2 C4.763125000000002 2.3506249999999937 5.5262500000000045 2.7012500000000017 6.3125 3.0625 C8 5 8 5 8.02734375 7.1953125 C7.772167668587912 9.488303203393215 7.436844465083539 11.735056414729911 7 14 C2.0198723881712226 12.490870420657956 -1.2425994242833838 9.443381507429066 -5 6 C-3.3658755691608633 4.291597185940915 -2.1309390636494356 3.065469531824718 0 2 C0 1.3400000000000034 0 0.6800000000000068 0 0 Z " fill="#EEF1F1" transform="translate(214,118)"/>
<path d="M0 0 C1.980000000000004 0.6599999999999966 3.9599999999999937 1.3199999999999932 6 2 C6 3.319999999999993 6 4.640000000000001 6 6 C6.659999999999997 6.329999999999998 7.319999999999993 6.659999999999997 8 7 C8 5.019999999999996 8 3.0400000000000063 8 1 C8.329999999999998 1.6599999999999966 8.659999999999997 2.319999999999993 9 3 C9.659999999999997 3 10.319999999999993 3 11 3 C11 2.3400000000000034 11 1.6800000000000068 11 1 C11.659999999999997 1 12.319999999999993 1 13 1 C13 2.6500000000000057 13 4.299999999999997 13 6 C9.596486624725912 8.032194879411236 6.6767073021991195 8.368910393334843 2.75 8.625 C2.211171875000005 8.662382812499999 2.211171875000005 8.662382812499999 -0.515625 8.8515625 C-1.335468750000004 8.900546875000003 -2.1553124999999937 8.949531250000007 -3 9 C-2.3855000291313218 5.6617704285241786 -1.6543917130154426 2.9779050834277854 0 0 Z " fill="#B9D8C5" transform="translate(112,92)"/>
<path d="M0 0 C-1.3199999999999932 0.3299999999999983 -2.6399999999999864 0.6599999999999966 -4 1 C-4 1.6599999999999966 -4 2.319999999999993 -4 3 C-3.009999999999991 2.6700000000000017 -2.0200000000000102 2.3400000000000034 -1 2 C-1 3.6500000000000057 -1 5.299999999999997 -1 7 C-4.960000000000008 7 -8.919999999999987 7 -13 7 C-13 5.019999999999996 -13 3.0400000000000063 -13 1 C-8.605637894603404 0.14256349162992876 -4.474279239132727 -0.08948558478265056 0 0 Z " fill="#A1D3BA" transform="translate(147,91)"/>
<path d="M0 0 C0.8920312500000023 0.19464843750000682 1.7840625000000045 0.38929687499999943 2.703125 0.58984375 C3.378593749999993 0.7458203125000011 4.054062499999986 0.9017968750000023 4.75 1.0625 C3.759999999999991 1.3924999999999983 2.7700000000000102 1.7224999999999966 1.75 2.0625 C1.4199999999999875 4.042500000000004 1.0900000000000034 6.022499999999994 0.75 8.0625 C-2.625 8.1875 -2.625 8.1875 -6.25 8.0625 C-6.909999999999997 7.402500000000003 -7.569999999999993 6.742500000000007 -8.25 6.0625 C-7.590000000000003 5.402500000000003 -6.930000000000007 4.742500000000007 -6.25 4.0625 C-5.9199999999999875 3.072500000000005 -5.590000000000003 2.082499999999996 -5.25 1.0625 C-6.569999999999993 0.7325000000000017 -7.889999999999986 0.4025000000000034 -9.25 0.0625 C-5.845980522354779 -1.0748242647272548 -3.4754333589867485 -0.7773995671417708 0 0 Z " fill="#EDF0F3" transform="translate(162.25,93.9375)"/>
<path d="M0 0 C1.3199999999999932 0.3299999999999983 2.6399999999999864 0.6599999999999966 4 1 C4 1.9899999999999949 4 2.980000000000004 4 4 C4.659999999999997 4 5.319999999999993 4 6 4 C7.319999999999993 4 8.639999999999986 4 10 4 C10.330000000000013 4.659999999999997 10.659999999999997 5.319999999999993 11 6 C10.009999999999991 6.659999999999997 9.02000000000001 7.319999999999993 8 8 C8.330000000000013 8.659999999999997 8.659999999999997 9.319999999999993 9 10 C6 11 6 11 3.73828125 10.00390625 C2.937773437499999 9.528242187499998 2.1372656249999977 9.052578124999997 1.3125 8.5625 C0.5042578124999864 8.089414062499998 -0.30398437499999886 7.6163281249999955 -1.13671875 7.12890625 C-1.7516015625000136 6.756367187500004 -2.366484374999999 6.383828124999994 -3 6 C-2.009999999999991 4.019999999999996 -1.0200000000000102 2.0400000000000063 0 0 Z " fill="#DCE9E7" transform="translate(191,106)"/>
<path d="M0 0 C4.688949299868881 0.5561966887231904 8.199242672444598 1.881826728943281 12.375 4.0625 C13.434609375000008 4.6103515625 14.494218749999987 5.158203125 15.5859375 5.72265625 C16.38257812500001 6.144179687499999 17.17921874999999 6.565703124999999 18 7 C16.710348239561682 8.375628544467546 15.373107074381522 9.707663929993856 14 11 C13.340000000000003 11 12.680000000000007 11 12 11 C12.330000000000013 9.680000000000007 12.659999999999997 8.36 13 7 C11.680000000000007 6.340000000000003 10.360000000000014 5.680000000000007 9 5 C8.340000000000003 6.650000000000006 7.680000000000007 8.299999999999997 7 10 C6.340000000000003 9.670000000000002 5.680000000000007 9.340000000000003 5 9 C5.659999999999997 7.019999999999996 6.319999999999993 5.040000000000006 7 3 C5.680000000000007 3 4.360000000000014 3 3 3 C2.3400000000000034 3.989999999999995 1.6800000000000068 4.980000000000004 1 6 C0.6699999999999875 4.019999999999996 0.3400000000000034 2.0400000000000063 0 0 Z " fill="#EFF4F4" transform="translate(182,101)"/>
<path d="M0 0 C0.6599999999999966 0 1.3199999999999932 0 2 0 C2.3300000000000125 1.6500000000000057 2.6599999999999966 3.299999999999997 3 5 C2.009999999999991 5 1.0200000000000102 5 0 5 C-0.3300000000000125 6.650000000000006 -0.6599999999999966 8.299999999999997 -1 10 C-2.319999999999993 9.670000000000002 -3.6399999999999864 9.340000000000003 -5 9 C-4.4267656854814845 5.1306683769999495 -2.610464475020848 2.847779427295464 0 0 Z " fill="#8DB8AF" transform="translate(182,96)"/>
<path d="M0 0 C2.6399999999999864 0 5.280000000000001 0 8 0 C8 0.3299999999999983 8 0.6599999999999966 8 1 C6.02000000000001 1 4.039999999999992 1 2 1 C2 2.980000000000004 2 4.959999999999994 2 7 C8.75 6.125 8.75 6.125 11 5 C11 5.989999999999995 11 6.980000000000004 11 8 C6.050000000000011 8 1.0999999999999943 8 -4 8 C-3.009999999999991 7.340000000000003 -2.0200000000000102 6.680000000000007 -1 6 C-0.3125 2.875 -0.3125 2.875 0 0 Z " fill="#FAFDFB" transform="translate(132,91)"/>
<path d="M0 0 C4.875 1.75 4.875 1.75 6 4 C5.5049999999999955 4.433125000000004 5.009999999999991 4.866249999999994 4.5 5.3125 C3 7 3 7 3 10 C2.1750000000000114 9.670000000000002 2.1750000000000114 9.670000000000002 -2 8 C-2 5 -2 5 -0.5 3.3125 C-0.2524999999999977 3.095937500000005 -0.2524999999999977 3.095937500000005 1 2 C0.6699999999999875 1.3400000000000034 0.3400000000000034 0.6800000000000068 0 0 Z " fill="#EBF1F1" transform="translate(200,109)"/>
<path d="M0 0 C0.8250000000000028 0.16500000000000625 0.8250000000000028 0.16500000000000625 5 1 C4.6699999999999875 2.6500000000000057 4.340000000000003 4.299999999999997 4 6 C2.680000000000007 6 1.3600000000000136 6 0 6 C0 4.019999999999996 0 2.0400000000000063 0 0 Z " fill="#75C598" transform="translate(127,92)"/>
<path d="M0 0 C1.3199999999999932 0.3299999999999983 2.6399999999999864 0.6599999999999966 4 1 C3.6699999999999875 2.6500000000000057 3.3400000000000034 4.299999999999997 3 6 C1.3499999999999943 5.670000000000002 -0.30000000000001137 5.340000000000003 -2 5 C-1.3400000000000034 3.3499999999999943 -0.6800000000000068 1.7000000000000028 0 0 Z " fill="#73C496" transform="translate(204,113)"/>
<path d="M0 0 C0.6599999999999966 0.16500000000000625 0.6599999999999966 0.16500000000000625 4 1 C3.6700000000000017 2.6500000000000057 3.3400000000000034 4.299999999999997 3 6 C1.6800000000000068 5.670000000000002 0.35999999999999943 5.340000000000003 -1 5 C-0.6700000000000017 3.3499999999999943 -0.3400000000000034 1.7000000000000028 0 0 Z " fill="#7FC99F" transform="translate(114,93)"/>
<path d="M0 0 C1.3199999999999932 0.6599999999999966 2.6399999999999864 1.3199999999999932 4 2 C3.009999999999991 2.989999999999995 2.0200000000000102 3.980000000000004 1 5 C1.3300000000000125 5.659999999999997 1.6599999999999966 6.319999999999993 2 7 C1.009999999999991 7.329999999999998 0.020000000000010232 7.659999999999997 -1 8 C-1.625 5.6875 -1.625 5.6875 -2 3 C-1.3400000000000034 2.010000000000005 -0.6800000000000068 1.019999999999996 0 0 Z " fill="#69BC8F" transform="translate(198,109)"/>
<path d="M0 0 C0.6599999999999966 0.16500000000000625 0.6599999999999966 0.16500000000000625 4 1 C3.6699999999999875 2.6500000000000057 3.3400000000000034 4.299999999999997 3 6 C1.6800000000000068 5.670000000000002 0.36000000000001364 5.340000000000003 -1 5 C-0.6699999999999875 3.3499999999999943 -0.3400000000000034 1.7000000000000028 0 0 Z " fill="#73C496" transform="translate(185,103)"/>
<path d="M0 0 C1.3199999999999932 0 2.6399999999999864 0 4 0 C4 1.6500000000000057 4 3.299999999999997 4 5 C2.0200000000000102 5.329999999999998 0.03999999999999204 5.659999999999997 -2 6 C-1.3400000000000034 4.019999999999996 -0.6800000000000068 2.0400000000000063 0 0 Z " fill="#7EC29F" transform="translate(153,95)"/>
<path d="M0 0 C1.9375 0.375 1.9375 0.375 4 1 C4.3300000000000125 1.6599999999999966 4.659999999999997 2.319999999999993 5 3 C4.6699999999999875 3.989999999999995 4.340000000000003 4.980000000000004 4 6 C3.3400000000000034 6 2.680000000000007 6 2 6 C2 5.340000000000003 2 4.680000000000007 2 4 C1.009999999999991 4.329999999999998 0.020000000000010232 4.659999999999997 -1 5 C-0.6699999999999875 3.3499999999999943 -0.3400000000000034 1.7000000000000028 0 0 Z " fill="#5EBB86" transform="translate(171,98)"/>
<path d="M0 0 C1.3199999999999932 0 2.6399999999999864 0 4 0 C3.6699999999999875 1.6500000000000057 3.3400000000000034 3.299999999999997 3 5 C1.6800000000000068 4.670000000000002 0.36000000000001364 4.340000000000003 -1 4 C-0.6699999999999875 2.680000000000007 -0.3400000000000034 1.3599999999999994 0 0 Z " fill="#73C496" transform="translate(215,122)"/>
<path d="M0 0 C1.3199999999999932 0.6599999999999966 1.3199999999999932 0.6599999999999966 8 4 C6.710348239561682 5.375628544467546 5.373107074381522 6.707663929993856 4 8 C3.3400000000000034 8 2.680000000000007 8 2 8 C2.3300000000000125 6.680000000000007 2.6599999999999966 5.359999999999999 3 4 C2.009999999999991 3.3400000000000034 1.0200000000000102 2.680000000000007 0 2 C0 1.3400000000000034 0 0.6800000000000068 0 0 Z " fill="#E3EAEC" transform="translate(192,104)"/>
<path d="M0 0 C1.6500000000000057 0.3299999999999983 3.3000000000000114 0.6599999999999966 5 1 C5 1.9899999999999949 5 2.980000000000004 5 4 C3.0200000000000102 4.329999999999998 1.039999999999992 4.659999999999997 -1 5 C-0.6699999999999875 3.3499999999999943 -0.3400000000000034 1.7000000000000028 0 0 Z " fill="#5EBB86" transform="translate(164,96)"/>
<path d="M0 0 C1.6500000000000057 0 3.3000000000000114 0 5 0 C5 1.6500000000000057 5 3.299999999999997 5 5 C3.3499999999999943 5 1.6999999999999886 5 0 5 C0 3.3499999999999943 0 1.7000000000000028 0 0 Z " fill="#43B072" transform="translate(141,93)"/>
<path d="M0 0 C1.980000000000004 0 3.9599999999999937 0 6 0 C6 2.3100000000000023 6 4.6200000000000045 6 7 C5.010000000000005 6.670000000000002 4.019999999999996 6.340000000000003 3 6 C3 4.680000000000007 3 3.3599999999999994 3 2 C2.010000000000005 1.3400000000000034 1.019999999999996 0.6800000000000068 0 0 Z " fill="#FEFEFE" transform="translate(114,92)"/>
<path d="M0 0 C0.6599999999999966 0.16500000000000625 0.6599999999999966 0.16500000000000625 4 1 C4 1.9899999999999949 4 2.980000000000004 4 4 C3.3400000000000034 4.659999999999997 2.680000000000007 5.319999999999993 2 6 C0 4 0 4 -1 2 C-0.6699999999999875 1.3400000000000034 -0.3400000000000034 0.6800000000000068 0 0 Z " fill="#4FB57B" transform="translate(191,106)"/>
<path d="M0 0 C1.3199999999999932 0.3299999999999983 2.6399999999999864 0.6599999999999966 4 1 C3.3400000000000034 1.6599999999999966 2.680000000000007 2.319999999999993 2 3 C1.375 5.125 1.375 5.125 1 7 C0.009999999999990905 6.670000000000002 -0.9799999999999898 6.340000000000003 -2 6 C-1.3400000000000034 4.019999999999996 -0.6800000000000068 2.0400000000000063 0 0 Z " fill="#F9FCFB" transform="translate(176,99)"/>
<path d="M0 0 C1.3199999999999932 0.6599999999999966 2.6399999999999864 1.3199999999999932 4 2 C3.3400000000000034 3.319999999999993 2.680000000000007 4.640000000000001 2 6 C0.6800000000000068 5.670000000000002 -0.6399999999999864 5.340000000000003 -2 5 C-1.6699999999999875 4.340000000000003 -1.3400000000000034 3.680000000000007 -1 3 C-0.6699999999999875 3 -0.3400000000000034 3 0 3 C0 2.010000000000005 0 1.019999999999996 0 0 Z " fill="#50B57C" transform="translate(210,117)"/>
<path d="M0 0 C0.9900000000000091 0 1.9799999999999898 0 3 0 C2.3400000000000034 1.980000000000004 1.6800000000000068 3.9599999999999937 1 6 C0.009999999999990905 6 -0.9799999999999898 6 -2 6 C-1.3400000000000034 4.019999999999996 -0.6800000000000068 2.0400000000000063 0 0 Z " fill="#F6FBF8" transform="translate(189,104)"/>
</svg>
