<?xml version="1.0" encoding="UTF-8"?>
<!-- Generator: visioncortex VTracer 0.6.12 -->
<svg version="1.1" xmlns="http://www.w3.org/2000/svg" width="960" height="720">
<path d="M0 0 C316.8 0 633.6 0 960 0 C960 237.60000000000002 960 475.20000000000005 960 720 C643.2 720 326.4 720 0 720 C0 482.4 0 244.79999999999995 0 0 Z " fill="#007FFE" transform="translate(0,0)"/>
<path d="M0 0 C0 178.20000000000005 0 356.4000000000001 0 540 C-296.6700000000001 540 -593.34 540 -899 540 C-896.092164169643 537.092164169643 -893.2002733841529 535.1877430730677 -889.69140625 533.1484375 C-889.0619358825684 532.7774392700195 -888.4324655151368 532.4064410400391 -887.7839202880859 532.0242004394531 C-886.4242131156857 531.2232820084618 -885.0633336549191 530.4243511225169 -883.701416015625 529.627197265625 C-880.0466298853809 527.4875558934046 -876.4007069483871 525.3329014142106 -872.75390625 523.1796875 C-872.0119400024414 522.7420709228516 -871.2699737548828 522.3044543457031 -870.5055236816406 521.8535766601563 C-863.6334065690123 517.795471803012 -856.8120556244911 513.6580657129263 -850 509.5 C-839.3676704441168 503.0151844584127 -828.6763084147171 496.6352122052656 -817.958984375 490.2919921875 C-808.603159689428 484.7529492888033 -799.2830998835175 479.16003861469335 -790 473.5 C-779.3667115541523 467.0167321304459 -768.676332698411 460.635226577959 -757.958984375 454.2919921875 C-748.6031596894281 448.7529492888033 -739.2830998835175 443.16003861469324 -730 437.5 C-719.3667115541523 431.0167321304459 -708.6763326984111 424.6352265779591 -697.958984375 418.2919921875 C-688.603159689428 412.7529492888033 -679.2830998835176 407.16003861469335 -670 401.5 C-659.3667115541523 395.0167321304459 -648.6763326984111 388.6352265779591 -637.958984375 382.2919921875 C-628.6031596894281 376.7529492888033 -619.2830998835175 371.16003861469324 -610 365.5 C-599.3667115541523 359.0167321304459 -588.6763326984111 352.6352265779591 -577.958984375 346.2919921875 C-568.6031596894281 340.7529492888033 -559.2830998835175 335.16003861469335 -550 329.5 C-539.3667115541523 323.016732130446 -528.676332698411 316.6352265779591 -517.958984375 310.2919921875 C-508.6031596894281 304.7529492888033 -499.28309988351754 299.1600386146933 -490 293.5 C-479.36671155415223 287.016732130446 -468.6763326984111 280.6352265779591 -457.958984375 274.2919921875 C-448.6031596894281 268.7529492888033 -439.2830998835175 263.16003861469324 -430 257.5 C-419.3667115541523 251.01673213044597 -408.676332698411 244.6352265779591 -397.958984375 238.2919921875 C-388.60315968942814 232.75294928880328 -379.2830998835176 227.16003861469324 -370 221.5 C-359.3667115541522 215.01673213044592 -348.6763326984111 208.6352265779591 -337.958984375 202.2919921875 C-328.60315968942814 196.75294928880328 -319.2830998835176 191.16003861469324 -310 185.5 C-299.3667115541523 179.01673213044603 -288.676332698411 172.6352265779591 -277.958984375 166.2919921875 C-268.60315968942814 160.75294928880334 -259.2830998835175 155.16003861469324 -250 149.5 C-239.3667115541523 143.01673213044597 -228.676332698411 136.6352265779591 -217.958984375 130.2919921875 C-208.60315968942814 124.75294928880334 -199.28309988351748 119.16003861469324 -190 113.5 C-179.36671155415218 107.01673213044592 -168.6763326984111 100.63522657795909 -157.958984375 94.2919921875 C-148.60315968942814 88.75294928880334 -139.28309988351748 83.16003861469324 -130 77.5 C-119.36671155415229 71.01673213044597 -108.67633269841099 64.63522657795906 -97.958984375 58.2919921875 C-88.60316047781623 52.75294975556233 -79.28306732737212 47.16009128778404 -70 41.5 C-59.26487751831951 34.95565541647176 -48.47391043250559 28.51089879122557 -37.653289794921875 22.108978271484375 C-27.59671985639966 16.1583244419364 -17.587260831666526 10.138992794997677 -7.637451171875 4.010986328125 C-6.768381347656259 3.4775561523437375 -5.899311523437518 2.9441259765625034 -5.00390625 2.39453125 C-4.249240722656282 1.9289379882812625 -3.49457519531245 1.4633447265624966 -2.717041015625 0.983642578125 C-1 0 -1 0 0 0 Z " fill="#007FFE" transform="translate(960,180)"/>
<path d="M0 0 C0.6105196380615325 0.0000755310058593861 0.6105196380615325 0.0000755310058593861 3.7001190185546875 0.000457763671875 C4.35952735900878 0.005619049072265625 4.35952735900878 0.005619049072265625 7.696533203125 0.03173828125 C9.059878466267833 0.03546916973039471 10.423226413281554 0.03831578460886098 11.786575317382813 0.040313720703125 C15.372155996381593 0.047944251786702224 18.957574246717286 0.06758763043167068 22.5430908203125 0.0897216796875 C26.202939888531887 0.11019267464182039 29.86281524096296 0.11931811178604304 33.522705078125 0.12939453125 C40.70181552736733 0.15083417984911562 47.880792217359954 0.18496299094826346 55.059814453125 0.22705078125 C55.43390146790057 23.52279598120652 55.71587755188682 46.81804477403377 55.88880920410156 70.11618614196777 C55.971247197379626 80.93459968341344 56.0835880344232 91.75114515887212 56.266845703125 102.568359375 C56.42653653030902 111.99899698717063 56.52959318140313 121.42828182766864 56.56523036956787 130.8602339029312 C56.58605917850946 135.85335472655322 56.634832661026394 140.84260649844273 56.751495361328125 145.8344841003418 C56.86054591953098 150.53899252453488 56.893525532421336 155.23806185715162 56.869537353515625 159.9437141418457 C56.87392104586809 161.66525168049353 56.905521828772066 163.38698048105786 56.96710205078125 165.107421875 C57.39632986034917 177.72364234935395 57.39632986034917 177.72364234935395 53.52446365356445 181.87206888198853 C49.71173292842843 184.92272769194716 45.5405209866974 187.12720192533325 41.1411190032959 189.2085793018341 C37.793363286809154 190.84677959165393 34.65566770205157 192.8148178345346 31.481689453125 194.76220703125 C30.22264785776906 195.50932085223764 28.962381532344125 196.254377888818 27.700439453125 196.99658203125 C16.10569267239441 203.82899004013933 4.550081909556866 210.72036698070366 -6.940185546875 217.72705078125 C-17.573230437634493 224.21071218041223 -28.263858891954783 230.59182778022785 -38.981201171875 236.93505859375 C-48.337025857446974 242.47410149244672 -57.65708566335741 248.06701216655674 -66.940185546875 253.72705078125 C-77.57347399272271 260.210318650804 -88.26385284846401 266.59182420329097 -98.981201171875 272.93505859375 C-108.33702585744686 278.4741014924467 -117.65708566335752 284.06701216655676 -126.940185546875 289.72705078125 C-137.5734739927227 296.210318650804 -148.263852848464 302.5918242032909 -158.981201171875 308.93505859375 C-168.33702585744697 314.4741014924467 -177.6570856633574 320.0670121665567 -186.940185546875 325.72705078125 C-197.5734739927227 332.210318650804 -208.2638528484639 338.5918242032909 -218.981201171875 344.93505859375 C-228.33702585744697 350.4741014924468 -237.6570856633574 356.06701216655665 -246.940185546875 361.72705078125 C-257.5734739927228 368.210318650804 -268.2638528484639 374.59182420329086 -278.981201171875 380.93505859375 C-288.337025857447 386.4741014924467 -297.6570856633574 392.0670121665567 -306.940185546875 397.72705078125 C-317.5734739927228 404.2103186508041 -328.2638528484639 410.5918242032909 -338.981201171875 416.93505859375 C-348.337025857447 422.4741014924468 -357.6570856633574 428.0670121665567 -366.940185546875 433.72705078125 C-377.5734739927228 440.2103186508041 -388.2638528484639 446.5918242032909 -398.981201171875 452.93505859375 C-408.337025857447 458.4741014924467 -417.6570856633574 464.0670121665567 -426.940185546875 469.72705078125 C-437.57347399272277 476.210318650804 -448.2638528484639 482.5918242032909 -458.981201171875 488.93505859375 C-468.337025857447 494.4741014924467 -477.6570856633574 500.0670121665567 -486.940185546875 505.72705078125 C-497.57347399272277 512.2103186508041 -508.2638528484639 518.5918242032909 -518.981201171875 524.93505859375 C-528.337025857447 530.4741014924467 -537.6570856633574 536.0670121665567 -546.940185546875 541.72705078125 C-557.5734739927227 548.210318650804 -568.2638528484639 554.5918242032909 -578.981201171875 560.93505859375 C-588.337025857447 566.4741014924467 -597.6570856633575 572.0670121665568 -606.940185546875 577.72705078125 C-617.5734739927227 584.210318650804 -628.263852848464 590.5918242032909 -638.981201171875 596.93505859375 C-648.3370258574469 602.4741014924467 -657.6570856633574 608.0670121665568 -666.940185546875 613.72705078125 C-677.5734739927227 620.2103186508041 -688.2638528484639 626.5918242032909 -698.981201171875 632.93505859375 C-708.3370258574469 638.4741014924467 -717.6570856633575 644.0670121665568 -726.940185546875 649.72705078125 C-737.5734739927227 656.210318650804 -748.2638528484639 662.5918242032909 -758.981201171875 668.93505859375 C-769.474357826719 675.1474499977444 -779.9136909493707 681.4421207280651 -790.32470703125 687.791015625 C-800.8353667998654 694.1930937478579 -811.4189326180136 700.4705975209397 -822.020263671875 706.72119140625 C-822.6660386657715 707.1028646850586 -823.3118136596679 707.4845379638672 -823.9771575927734 707.8777770996094 C-828.6532716135573 710.6414461530053 -828.6532716135573 710.6414461530053 -830.9764108657837 711.9909076690674 C-832.940185546875 713.22705078125 -832.940185546875 713.22705078125 -835.2049779891968 714.9558544158936 C-842.9154447354897 720.5715212859095 -848.9901130228606 721.1755767809575 -858.358154296875 720.91064453125 C-859.7100413794116 720.8975528629093 -861.0619621758684 720.8876056003232 -862.4138946533203 720.8806304931641 C-865.9344918415645 720.8541825203597 -869.45299586521 720.7856769472512 -872.9727783203125 720.7077026367188 C-876.5794646827933 720.6354790130209 -880.1864967149924 720.6039945025727 -883.793701171875 720.56884765625 C-890.843374227767 720.4942709530884 -897.8916416696292 720.3751538254794 -904.940185546875 720.22705078125 C-905.150393530385 696.8617886997382 -905.309118348008 673.4966824309208 -905.4064950942993 650.1306667327881 C-905.452910071124 639.2814511506442 -905.5161928399835 628.4328229460722 -905.619140625 617.583984375 C-905.7088238164289 608.1284901942632 -905.7669041335057 598.6734213518195 -905.7869819998741 589.2175136804581 C-905.7987196442353 584.210039278986 -905.8263157239878 579.2037817156139 -905.8917560577393 574.1966972351074 C-905.9528584070493 569.4833307109425 -905.9716884250682 564.7716816574601 -905.9581546783447 560.0579566955566 C-905.9606302788313 558.3284954131425 -905.9785299970912 556.5989766021428 -906.0130348205566 554.8698577880859 C-906.2611342409315 541.7954236662306 -906.2611342409315 541.7954236662306 -902.9914426803589 537.9132928848267 C-900.6853523281702 536.3471598907945 -898.5186761669437 535.267191004493 -895.940185546875 534.22705078125 C-894.7559535135282 533.5295093618408 -893.5830219913976 532.8122308814767 -892.42529296875 532.071533203125 C-891.3100122070313 531.4151586914063 -890.1947314453125 530.7587841796875 -889.045654296875 530.08251953125 C-888.4246736145019 529.7157661437989 -887.8036929321289 529.3490127563476 -887.1638946533203 528.9711456298828 C-885.8395128002986 528.189065617627 -884.5145243447633 527.4080120212675 -883.18896484375 526.6279296875 C-879.6167561089493 524.5251371478862 -876.0497880731348 522.413500403145 -872.483154296875 520.30126953125 C-871.7597384643555 519.8729281616211 -871.0363226318359 519.4445867919922 -870.2909851074219 519.0032653808594 C-863.4759641519288 514.9623734984652 -856.704065880753 510.8527979404843 -849.940185546875 506.72705078125 C-839.3073474465743 500.2430554898291 -828.6165070022066 493.8622707048123 -817.899169921875 487.51904296875 C-808.543345236303 481.9800000700533 -799.2232854303926 476.3870893959433 -789.940185546875 470.72705078125 C-779.3068971010273 464.243782911696 -768.616518245286 457.8622773592091 -757.899169921875 451.51904296875 C-748.543345236303 445.9800000700533 -739.2232854303926 440.3870893959433 -729.940185546875 434.72705078125 C-719.3068971010273 428.243782911696 -708.6165182452861 421.8622773592091 -697.899169921875 415.51904296875 C-688.543345236303 409.9800000700533 -679.2232854303925 404.3870893959433 -669.940185546875 398.72705078125 C-659.3068971010273 392.243782911696 -648.616518245286 385.8622773592091 -637.899169921875 379.51904296875 C-628.543345236303 373.9800000700533 -619.2232854303926 368.3870893959433 -609.940185546875 362.72705078125 C-599.3068971010273 356.243782911696 -588.616518245286 349.8622773592091 -577.899169921875 343.51904296875 C-568.543345236303 337.9800000700533 -559.2232854303926 332.3870893959433 -549.940185546875 326.72705078125 C-539.3068971010273 320.243782911696 -528.616518245286 313.8622773592091 -517.899169921875 307.51904296875 C-508.5433452363031 301.9800000700533 -499.22328543039254 296.38708939594324 -489.940185546875 290.72705078125 C-479.3068971010273 284.243782911696 -468.6165182452861 277.8622773592091 -457.899169921875 271.51904296875 C-448.5433452363031 265.9800000700533 -439.22328543039254 260.3870893959433 -429.940185546875 254.72705078125 C-419.3068971010273 248.24378291169597 -408.61651824528604 241.8622773592091 -397.899169921875 235.51904296875 C-388.543345236303 229.98000007005325 -379.2232854303926 224.3870893959433 -369.940185546875 218.72705078125 C-359.3068971010273 212.24378291169597 -348.6165182452861 205.8622773592091 -337.899169921875 199.51904296875 C-328.54334523630325 193.98000007005336 -319.2232854303925 188.38708939594324 -309.940185546875 182.72705078125 C-299.3068971010274 176.24378291169606 -288.616518245286 169.86227735920903 -277.899169921875 163.51904296875 C-268.54334523630314 157.9800000700533 -259.2232854303925 152.38708939594324 -249.940185546875 146.72705078125 C-239.3068971010273 140.24378291169597 -228.616518245286 133.86227735920906 -217.899169921875 127.51904296875 C-208.54334523630314 121.98000007005334 -199.22328543039248 116.38708939594322 -189.940185546875 110.72705078125 C-179.3068971010273 104.24378291169603 -168.616518245286 97.86227735920906 -157.899169921875 91.51904296875 C-148.54334523630314 85.98000007005334 -139.22328543039237 80.38708939594318 -129.940185546875 74.72705078125 C-119.30689710102729 68.24378291169602 -108.61651824528599 61.86227735920907 -97.899169921875 55.51904296875 C-88.54334384914011 49.97999924879428 -79.2233352277783 44.38700955096062 -69.940185546875 38.72705078125 C-57.783159392604716 31.316853962847368 -45.554925838366785 24.030996604729857 -33.303009033203125 16.7789306640625 C-27.4199754343382 13.296093892671745 -21.543513561087252 9.802610480808305 -15.678466796875 6.28955078125 C-15.04676071166989 5.91177490234375 -14.415054626464894 5.5339990234375 -13.764205932617188 5.144775390625 C-5.152766432157023 -0.021248521369719775 -5.152766432157023 -0.021248521369719775 0 0 Z " fill="#CE1020" transform="translate(904.940185546875,-0.22705078125)"/>
<path d="M0 0 C0.7367529013600915 9.128651814352224 1.1940108534231513 18.234726343912058 0.9375 27.39453125 C0.9362915039062045 28.163366394042953 0.9350830078125227 28.932201538085934 0.933837890625 29.724334716796875 C0.7561658504831712 33.92114443642055 0.13726443293160173 36.3515442219649 -2.7822265625 39.457763671875 C-5.188917727681996 41.57823668962632 -7.3187774914240435 42.92544398718047 -10.421875 43.84375 C-17.19118244005051 46.25016549026441 -23.08965024228155 50.06867214726975 -29.1826171875 53.803192138671875 C-32.668375191195196 55.92647691699145 -36.18807270287925 57.992126071817694 -39.703125 60.06640625 C-47.16903329854176 64.48965350312756 -54.591095056318295 68.98210218382485 -62 73.5 C-72.63304489075949 79.9836613991622 -83.32367334507978 86.36477699897785 -94.041015625 92.7080078125 C-103.39684031057197 98.24705071119675 -112.71690011648252 103.83996138530676 -122 109.5 C-132.63328844584782 115.98326786955408 -143.3236673015889 122.36477342204091 -154.041015625 128.7080078125 C-163.39684031057197 134.24705071119672 -172.7169001164824 139.8399613853067 -182 145.5 C-192.63328844584782 151.98326786955408 -203.3236673015889 158.3647734220409 -214.041015625 164.7080078125 C-223.39684031057186 170.24705071119672 -232.71690011648252 175.83996138530676 -242 181.5 C-252.63328844584782 187.98326786955408 -263.3236673015888 194.36477342204086 -274.041015625 200.7080078125 C-283.396840310572 206.24705071119672 -292.7169001164825 211.83996138530676 -302 217.5 C-312.6332884458477 223.98326786955403 -323.3236673015889 230.3647734220409 -334.041015625 236.7080078125 C-343.396840310572 242.24705071119672 -352.7169001164824 247.83996138530676 -362 253.5 C-372.6332884458478 259.9832678695541 -383.3236673015889 266.3647734220409 -394.041015625 272.7080078125 C-403.396840310572 278.2470507111967 -412.7169001164824 283.8399613853067 -422 289.5 C-432.6332884458478 295.983267869554 -443.3236673015889 302.36477342204086 -454.041015625 308.7080078125 C-463.396840310572 314.2470507111967 -472.7169001164824 319.8399613853067 -482 325.5 C-492.63328844584765 331.98326786955397 -503.32366730158896 338.3647734220409 -514.041015625 344.7080078125 C-523.396840310572 350.2470507111967 -532.7169001164824 355.8399613853067 -542 361.5 C-552.6332884458477 367.983267869554 -563.3236673015889 374.3647734220409 -574.041015625 380.7080078125 C-583.396840310572 386.2470507111967 -592.7169001164824 391.83996138530665 -602 397.5 C-612.6332884458477 403.9832678695541 -623.323667301589 410.3647734220409 -634.041015625 416.7080078125 C-643.396840310572 422.2470507111967 -652.7169001164824 427.83996138530665 -662 433.5 C-672.6332884458477 439.9832678695541 -683.3236673015889 446.3647734220409 -694.041015625 452.7080078125 C-703.396840310572 458.2470507111967 -712.7169001164824 463.83996138530665 -722 469.5 C-732.6332884458477 475.9832678695541 -743.3236673015889 482.3647734220409 -754.041015625 488.7080078125 C-763.3968403105719 494.2470507111967 -772.7169001164825 499.83996138530665 -782 505.5 C-792.6332884458477 511.9832678695541 -803.3236673015889 518.3647734220409 -814.041015625 524.7080078125 C-824.534172279844 530.9203992164944 -834.9735054024957 537.2150699468151 -845.384521484375 543.56396484375 C-855.8951812529904 549.9660429666079 -866.4787470711386 556.2435467396897 -877.080078125 562.494140625 C-877.7258531188965 562.8758139038086 -878.3716281127929 563.2574871826172 -879.0369720458984 563.6507263183594 C-883.7010888835101 566.4073048167105 -883.7010888835101 566.4073048167105 -886.0222930908203 567.7561492919922 C-888.0000000000001 569.0000000000001 -888.0000000000001 569.0000000000001 -890.3901824951172 570.7981719970703 C-898.0155087728008 576.3029779099984 -903.9378713904619 576.9500712721249 -913.19921875 576.68359375 C-913.8573178863526 576.6786414337158 -913.8573178863526 576.6786414337158 -917.1876983642578 576.6535797119141 C-920.6491290131512 576.6271376250218 -924.1084291320608 576.5586380924897 -927.5690307617188 576.4806518554688 C-931.1153889047837 576.4084148216405 -934.662099056099 576.3769409547252 -938.208984375 576.341796875 C-945.1401857722406 576.2672307369668 -952.0699899988165 576.1481208128122 -959 576 C-956.224067474977 573.0904530889322 -953.1477326514333 571.1572071180283 -949.69140625 569.1484375 C-949.0619358825684 568.7774392700195 -948.4324655151368 568.4064410400391 -947.7839202880859 568.0242004394531 C-946.4242131156857 567.2232820084618 -945.0633336549191 566.4243511225169 -943.701416015625 565.627197265625 C-940.046629885381 563.4875558934048 -936.4007069483871 561.3329014142106 -932.75390625 559.1796875 C-932.0119400024414 558.7420709228516 -931.2699737548828 558.3044543457031 -930.5055236816406 557.8535766601563 C-923.6334065690123 553.795471803012 -916.8120556244911 549.6580657129263 -910 545.5 C-899.3676704441168 539.0151844584126 -888.6763084147171 532.6352122052656 -877.958984375 526.2919921875 C-868.603159689428 520.7529492888033 -859.2830998835176 515.1600386146932 -850 509.5 C-839.3667115541522 503.0167321304459 -828.6763326984111 496.6352265779592 -817.958984375 490.2919921875 C-808.603159689428 484.7529492888033 -799.2830998835175 479.16003861469335 -790 473.5 C-779.3667115541523 467.0167321304459 -768.676332698411 460.635226577959 -757.958984375 454.2919921875 C-748.603159689428 448.7529492888033 -739.2830998835176 443.16003861469335 -730 437.5 C-719.3667115541523 431.0167321304459 -708.676332698411 424.6352265779591 -697.958984375 418.2919921875 C-688.603159689428 412.7529492888033 -679.2830998835176 407.16003861469335 -670 401.5 C-659.3667115541523 395.0167321304459 -648.6763326984111 388.6352265779591 -637.958984375 382.2919921875 C-628.6031596894281 376.7529492888033 -619.2830998835175 371.16003861469335 -610 365.5 C-599.3667115541523 359.016732130446 -588.6763326984111 352.6352265779591 -577.958984375 346.2919921875 C-568.6031596894281 340.7529492888033 -559.2830998835175 335.1600386146933 -550 329.5 C-539.3667115541523 323.016732130446 -528.6763326984111 316.6352265779591 -517.958984375 310.2919921875 C-508.6031596894281 304.7529492888033 -499.28309988351754 299.16003861469324 -490 293.5 C-479.3667115541523 287.016732130446 -468.67633269841104 280.6352265779591 -457.958984375 274.2919921875 C-448.6031596894281 268.7529492888033 -439.2830998835176 263.1600386146933 -430 257.5 C-419.3667115541522 251.01673213044592 -408.6763326984111 244.6352265779591 -397.958984375 238.2919921875 C-388.60315968942814 232.75294928880328 -379.2830998835176 227.16003861469324 -370 221.5 C-359.3667115541523 215.01673213044597 -348.676332698411 208.6352265779591 -337.958984375 202.2919921875 C-328.60315968942814 196.75294928880334 -319.2830998835175 191.16003861469324 -310 185.5 C-299.3667115541523 179.01673213044603 -288.676332698411 172.6352265779591 -277.958984375 166.2919921875 C-268.60315968942814 160.75294928880334 -259.2830998835175 155.16003861469324 -250 149.5 C-239.36671155415218 143.01673213044592 -228.6763326984111 136.6352265779591 -217.958984375 130.2919921875 C-208.60315968942814 124.75294928880334 -199.28309988351748 119.16003861469324 -190 113.5 C-179.3667115541523 107.01673213044597 -168.676332698411 100.63522657795906 -157.958984375 94.2919921875 C-148.60315968942814 88.75294928880331 -139.28309988351748 83.16003861469324 -130 77.5 C-119.3667115541524 71.01673213044603 -108.67633269841099 64.63522657795903 -97.958984375 58.2919921875 C-88.60316047781623 52.752949755562355 -79.28306732737212 47.16009128778404 -70 41.5 C-59.26487751831951 34.95565541647176 -48.47391043250559 28.51089879122557 -37.653289794921875 22.108978271484375 C-27.59671985639966 16.158324441936372 -17.587260831666526 10.138992794997677 -7.637451171875 4.010986328125 C-6.768381347656259 3.4775561523437375 -5.899311523437518 2.9441259765625034 -5.00390625 2.39453125 C-4.249240722656282 1.9289379882812625 -3.49457519531245 1.4633447265624966 -2.717041015625 0.983642578125 C-1 0 -1 0 0 0 Z " fill="#F6D418" transform="translate(960,144)"/>
<path d="M0 0 C0.6005092620849837 0.0000755310058593861 0.6005092620849837 0.0000755310058593861 3.6394500732421875 0.000457763671875 C4.936392974853561 0.01078033447265625 6.233335876464821 0.0211029052734375 7.569580078125 0.03173828125 C8.91050505845601 0.03546922922493834 10.25143276781671 0.0383158160616828 11.592361450195313 0.040313720703125 C15.118759653515667 0.047943786962289875 18.64499266892244 0.06758675364749028 22.17132568359375 0.0897216796875 C25.7708512928059 0.11019368388438738 29.370403636046944 0.11931832675756147 32.969970703125 0.12939453125 C40.03058508735671 0.1508333341367238 47.09108741336195 0.18496164661749875 54.151611328125 0.22705078125 C51.50971607306053 2.9831649521525114 48.8193239805081 4.728144619512308 45.499267578125 6.64111328125 C45.21789443969726 6.804371032714844 45.21789443969726 6.804371032714844 43.793975830078125 7.63055419921875 C42.57561102359932 8.337202052270573 41.35610431783675 9.041883983767644 40.135589599609375 9.74481201171875 C36.82982577093014 11.649735907215138 33.53369014655277 13.571163755152627 30.237548828125 15.49267578125 C29.559496917724573 15.88768280029297 28.88144500732426 16.28268981933594 28.182846069335938 16.689666748046875 C21.518760907852425 20.580355972475395 14.924527769092379 24.5797635880272 8.339111328125 28.60205078125 C-1.6800394419486793 34.718211766764675 -11.746213537201697 40.749036720783415 -21.848388671875 46.72705078125 C-31.885480993919487 52.6673615349037 -41.89018866723961 58.65539397842376 -51.848388671875 64.72705078125 C-62.481677117722825 71.21031865080407 -73.1720559734639 77.5918242032909 -83.889404296875 83.93505859375 C-93.24522898244697 89.47410149244672 -102.5652887883574 95.06701216655671 -111.848388671875 100.72705078125 C-122.48167711772282 107.21031865080407 -133.1720559734639 113.5918242032909 -143.889404296875 119.93505859375 C-153.24522898244697 125.47410149244676 -162.5652887883574 131.0670121665567 -171.848388671875 136.72705078125 C-182.48167711772294 143.2103186508041 -193.17205597346378 149.59182420329083 -203.889404296875 155.93505859375 C-213.24522898244697 161.47410149244678 -222.5652887883574 167.0670121665567 -231.848388671875 172.72705078125 C-242.48167711772282 179.21031865080406 -253.1720559734639 185.59182420329088 -263.889404296875 191.93505859375 C-273.24522898244686 197.4741014924467 -282.5652887883575 203.06701216655676 -291.848388671875 208.72705078125 C-302.4816771177228 215.21031865080406 -313.1720559734639 221.5918242032909 -323.889404296875 227.93505859375 C-333.245228982447 233.4741014924467 -342.5652887883575 239.06701216655676 -351.848388671875 244.72705078125 C-362.4816771177227 251.21031865080403 -373.1720559734639 257.5918242032909 -383.889404296875 263.93505859375 C-393.245228982447 269.4741014924467 -402.5652887883574 275.0670121665567 -411.848388671875 280.72705078125 C-422.48167711772277 287.210318650804 -433.1720559734639 293.5918242032909 -443.889404296875 299.93505859375 C-453.2452289824469 305.4741014924467 -462.56528878835746 311.0670121665567 -471.848388671875 316.72705078125 C-482.4816771177228 323.2103186508041 -493.1720559734639 329.5918242032909 -503.889404296875 335.93505859375 C-513.245228982447 341.4741014924467 -522.5652887883574 347.0670121665567 -531.848388671875 352.72705078125 C-542.4816771177227 359.210318650804 -553.1720559734639 365.5918242032909 -563.889404296875 371.93505859375 C-573.245228982447 377.4741014924467 -582.5652887883575 383.0670121665567 -591.848388671875 388.72705078125 C-602.4816771177228 395.2103186508041 -613.1720559734639 401.59182420329086 -623.889404296875 407.93505859375 C-633.245228982447 413.4741014924467 -642.5652887883575 419.0670121665567 -651.848388671875 424.72705078125 C-662.4816771177227 431.210318650804 -673.172055973464 437.5918242032909 -683.889404296875 443.93505859375 C-693.2452289824469 449.4741014924467 -702.5652887883575 455.0670121665567 -711.848388671875 460.72705078125 C-722.4816771177227 467.210318650804 -733.1720559734639 473.5918242032909 -743.889404296875 479.93505859375 C-753.245228982447 485.4741014924467 -762.5652887883575 491.06701216655676 -771.848388671875 496.72705078125 C-782.4816771177227 503.210318650804 -793.1720559734639 509.5918242032909 -803.889404296875 515.93505859375 C-813.8188384946301 521.8137025219511 -823.7037088706095 527.7600687542008 -833.5553588867188 533.7680358886719 C-843.6523192489187 539.9233086561297 -853.8132201473849 545.9661028737825 -863.9929504394531 551.9833068847656 C-874.7874575450828 558.3670668867638 -885.4969130865676 564.8776218888684 -896.143798828125 571.504638671875 C-896.6461303710937 571.8165515136718 -896.6461303710937 571.8165515136718 -899.188232421875 573.39501953125 C-900.0685815429688 573.9444018554688 -900.9489306640625 574.4937841796875 -901.85595703125 575.059814453125 C-903.8483886718751 576.22705078125 -903.8483886718751 576.22705078125 -904.848388671875 576.22705078125 C-905.0716371458417 571.2102568688297 -905.2345087546709 566.196375475061 -905.3427734375 561.17578125 C-905.3879128561622 559.4701907426982 -905.4492459106158 557.7649462628193 -905.52734375 556.060546875 C-906.1512407219446 542.0901480130235 -906.1512407219446 542.0901480130235 -903.32568359375 538.049560546875 C-900.9265149886545 536.4167111522523 -898.5189775449585 535.3644280809557 -895.848388671875 534.22705078125 C-894.1557259384607 533.2335395442693 -892.4639793019469 532.2379824563332 -890.7914886474609 531.2108764648438 C-888.9082583822942 530.0545204464719 -887.0095648644799 528.9286329258019 -885.104248046875 527.80908203125 C-880.8627509131327 525.3129911502081 -876.6259397799179 522.80907272814 -872.391357421875 520.30126953125 C-871.6679415893555 519.8729281616211 -870.9445257568359 519.4445867919922 -870.1991882324219 519.0032653808594 C-863.3841672769288 514.9623734984652 -856.612269005753 510.8527979404843 -849.848388671875 506.72705078125 C-839.2155505715743 500.2430554898291 -828.5247101272066 493.8622707048123 -817.807373046875 487.51904296875 C-808.451548361303 481.9800000700533 -799.1314885553926 476.3870893959433 -789.848388671875 470.72705078125 C-779.2151002260273 464.243782911696 -768.524721370286 457.8622773592091 -757.807373046875 451.51904296875 C-748.451548361303 445.9800000700533 -739.1314885553926 440.3870893959433 -729.848388671875 434.72705078125 C-719.2151002260273 428.243782911696 -708.5247213702861 421.8622773592091 -697.807373046875 415.51904296875 C-688.451548361303 409.9800000700533 -679.1314885553925 404.3870893959433 -669.848388671875 398.72705078125 C-659.2151002260273 392.243782911696 -648.524721370286 385.8622773592091 -637.807373046875 379.51904296875 C-628.451548361303 373.9800000700533 -619.1314885553926 368.3870893959433 -609.848388671875 362.72705078125 C-599.2151002260273 356.243782911696 -588.524721370286 349.8622773592091 -577.807373046875 343.51904296875 C-568.451548361303 337.9800000700533 -559.1314885553926 332.3870893959433 -549.848388671875 326.72705078125 C-539.2151002260273 320.243782911696 -528.524721370286 313.8622773592091 -517.807373046875 307.51904296875 C-508.4515483613031 301.9800000700533 -499.13148855539254 296.38708939594324 -489.848388671875 290.72705078125 C-479.2151002260273 284.243782911696 -468.5247213702861 277.8622773592091 -457.807373046875 271.51904296875 C-448.4515483613031 265.9800000700533 -439.13148855539254 260.3870893959433 -429.848388671875 254.72705078125 C-419.2151002260273 248.24378291169597 -408.52472137028604 241.8622773592091 -397.807373046875 235.51904296875 C-388.451548361303 229.98000007005325 -379.1314885553926 224.3870893959433 -369.848388671875 218.72705078125 C-359.2151002260273 212.24378291169597 -348.5247213702861 205.8622773592091 -337.807373046875 199.51904296875 C-328.45154836130325 193.98000007005336 -319.1314885553925 188.38708939594324 -309.848388671875 182.72705078125 C-299.2151002260274 176.24378291169606 -288.524721370286 169.86227735920903 -277.807373046875 163.51904296875 C-268.45154836130314 157.9800000700533 -259.1314885553925 152.38708939594324 -249.848388671875 146.72705078125 C-239.2151002260273 140.24378291169597 -228.524721370286 133.86227735920906 -217.807373046875 127.51904296875 C-208.45154836130314 121.98000007005334 -199.13148855539248 116.38708939594322 -189.848388671875 110.72705078125 C-179.2151002260273 104.24378291169603 -168.524721370286 97.86227735920906 -157.807373046875 91.51904296875 C-148.45154836130314 85.98000007005334 -139.13148855539237 80.38708939594318 -129.848388671875 74.72705078125 C-119.21510022602729 68.24378291169602 -108.52472137028599 61.86227735920907 -97.807373046875 55.51904296875 C-88.45154697414011 49.97999924879428 -79.1315383527783 44.38700955096062 -69.848388671875 38.72705078125 C-57.691362517604716 31.316853962847368 -45.463128963366785 24.030996604729857 -33.211212158203125 16.7789306640625 C-27.3281785593382 13.296093892671745 -21.451716686087252 9.802610480808305 -15.586669921875 6.28955078125 C-14.95496383666989 5.91177490234375 -14.323257751464894 5.5339990234375 -13.672409057617188 5.144775390625 C-5.061016773587994 -0.021220196115673495 -5.061016773587994 -0.021220196115673495 0 0 Z " fill="#F5D519" transform="translate(904.848388671875,-0.22705078125)"/>
<path d="M0 0 C2.184600682062296 3.27690102309343 3.1975535040983516 6.462887401409645 4.3125 10.1875 C4.7615940484733414 11.656288134305761 5.2108159461703565 13.125037182868674 5.66015625 14.59375 C5.885903320312508 15.3375390625 6.1116503906249875 16.081328125 6.34423828125 16.84765625 C7.294528247869437 19.966701799410643 8.272829465165785 23.07678411056233 9.25 26.1875 C11.699298693353683 34.01715896354716 14.130422277256855 41.8524791855331 16.5625 49.6875 C16.938583984374986 50.89881591796875 17.31466796875 52.110131835937494 17.7021484375 53.358154296875 C20.14629988321866 61.23524097853053 22.579060142027828 69.11574925443465 25 77 C25.28883056640626 77.93835693359375 25.577661132812494 78.8767138671875 25.875244140625 79.843505859375 C26.671456871233858 82.43595196926952 27.461502186973576 85.03019852345892 28.25 87.625 C28.3840625 88.06005859375 28.3840625 88.06005859375 29.0625 90.26171875 C29.31515625 91.09574218749998 29.567812500000002 91.92976562500002 29.828125 92.7890625 C30.054033203124987 93.5285009765625 30.279941406250003 94.267939453125 30.5126953125 95.02978515625 C31 97 31 97 31 100 C64.32999999999998 100 97.65999999999997 100 132 100 C129.50806716745655 102.49193283254345 127.49341084709033 104.50333165581227 124.7421875 106.5234375 C124.12601562500004 106.979765625 123.50984374999996 107.43609375 122.875 107.90625 C122.21500000000003 108.3909375 121.555 108.87562500000001 120.875 109.375 C114.85478195587552 113.84018017294841 108.90298228294171 118.380996133629 103 123 C96.74066107309346 127.89274110949606 90.42759445649847 132.7015533760005 84.056640625 137.44775390625 C78.07070680920677 141.91933580894332 72.17271953730159 146.500415627165 66.2890625 151.10546875 C61.56937844757891 154.7965037140729 56.807232059379544 158.42369108906857 52 162 C53.59560713081376 169.92656445630055 55.94161520342507 177.54428147751273 58.375 185.25 C59.1537870632329 187.73433073171296 59.93243379522744 190.21870545893054 60.7109375 192.703125 C61.095400390625 193.9264453125 61.479863281250005 195.149765625 61.8759765625 196.41015625 C63.26339512150665 200.84121673906031 64.62822600139748 205.27899894046925 65.99072265625 209.7177734375 C67.81458413439913 215.64907331951179 69.6587539746202 221.57407849169573 71.5 227.5 C72.63240398823248 231.14456300649567 73.76436986463733 234.78925265341314 74.8935546875 238.434814453125 C75.64025465434665 240.84082937277674 76.39100249027791 243.2455912664501 77.1455078125 245.649169921875 C77.50483398437501 246.80006103515626 77.86416015625 247.95095214843752 78.234375 249.13671875 C78.55631835937501 250.16240966796875 78.87826171875 251.1881005859375 79.2099609375 252.244873046875 C80.14705327531118 255.5128233040441 80.6856154272549 258.6203658429903 81 262 C75.9045390071044 259.2478019605252 71.5163463120436 256.1863160081 67.0625 252.5 C61.851888754466984 248.25885022449052 56.581304252236066 244.13063864935538 51.1875 240.125 C45.40012023190073 235.82219971202414 39.681213842090045 231.44204127582623 34 227 C26.362833006063823 221.03210068145933 18.643781744197042 215.18315790506927 10.8701171875 209.39453125 C7.574557122327292 206.93705878364665 4.287591817801086 204.4681167528333 1 202 C-1.9755608341361324 203.3897629239335 -4.511134755996011 205.01044832970382 -7.1328125 206.984375 C-7.929694824218757 207.5826611328125 -8.726577148437514 208.180947265625 -9.547607421875 208.79736328125 C-10.398146972656264 209.4417333984375 -11.248686523437499 210.086103515625 -12.125 210.75 C-13.012277832031259 211.4188623046875 -13.899555664062518 212.08772460937496 -14.813720703125 212.77685546875 C-22.14074149811043 218.31497009258578 -29.395338348159214 223.94335465742301 -36.6328125 229.59765625 C-42.997513609413886 234.5660921939857 -49.42192864614779 239.4560787911122 -55.8427734375 244.3515625 C-58.10974630642386 246.08386227489518 -60.37175016803671 247.82249385578734 -62.6328125 249.5625 C-63.395212402343745 250.1482983398438 -64.1576123046875 250.73409667968747 -64.943115234375 251.337646484375 C-66.39426987293571 252.4528871589569 -67.84437601995339 253.5694940480962 -69.293212890625 254.687744140625 C-73.10726117447587 257.61521594633496 -76.96569221478696 260.38366042545283 -81 263 C-79.54668823893722 253.9615766205211 -76.72813502005106 245.3770516952605 -73.9375 236.6875 C-73.19358906899424 234.35108235616872 -72.45149713611293 232.01409148502086 -71.70941162109375 229.67709350585938 C-71.20732104594418 228.0965081392684 -70.70459345376364 226.51612498863403 -70.20123291015625 224.93594360351563 C-67.7980482977943 217.38756441374636 -65.45854200585677 209.82013626926752 -63.125 202.25 C-60.87199902129768 194.95025714784285 -58.59546618038499 187.66675318831324 -56.125 180.4375 C-54.06153298177064 174.36847935814893 -52.43080998237947 168.24670699624207 -51 162 C-51.6690234375 161.5011328125 -52.338046875 161.002265625 -53.02734375 160.48828125 C-61.32894817549729 154.28157834395705 -69.56673453657615 147.9936764624079 -77.79443359375 141.689453125 C-81.36119431922143 138.9573317811587 -84.93070359300529 136.22880727731896 -88.5 133.5 C-89.91668053416396 132.41668480132674 -91.33334718486816 131.3333514466389 -92.75 130.25 C-93.45125 129.71375 -94.1525 129.1775 -94.875 128.625 C-95.93750000000003 127.81249999999997 -95.93750000000003 127.81249999999997 -101.25 123.75 C-101.95261962890625 123.21278320312501 -102.6552392578125 122.67556640625 -103.379150390625 122.1220703125 C-104.78229725834525 121.04891412634444 -106.18513427576971 119.97535267948308 -107.587646484375 118.9013671875 C-111.33359951993404 116.03376050727937 -115.08615518333954 113.17531503968956 -118.84765625 110.328125 C-119.6365625 109.72935546874999 -120.42546875 109.1305859375 -121.23828125 108.513671875 C-122.76368341798035 107.3561608181208 -124.29096941522099 106.20112728316826 -125.8203125 105.048828125 C-127.56509593329132 103.72285893138866 -129.28541860032755 102.36479821050273 -131 101 C-131 100.67000000000002 -131 100.34 -131 100 C-98 100 -65 100 -31 100 C-30.00999999999999 96.04000000000002 -29.019999999999982 92.07999999999998 -28 88 C-26.930821154422517 84.66820054659024 -25.837650535807313 81.36496384096365 -24.6875 78.0625 C-22.251572775857596 70.92466673855941 -20.01905840713289 63.76656737352948 -18 56.5 C-15.786300622631643 48.54356894912402 -13.284764359380034 40.72705649214397 -10.616455078125 32.912353515625 C-8.140551121221336 25.59339694799729 -5.9895449685045605 18.202430523037904 -3.953125 10.75 C-3.7249609374999864 9.923710937499997 -3.496796875000001 9.097421875000002 -3.26171875 8.24609375 C-3.1635485839843795 7.883504638671873 -3.1635485839843795 7.883504638671873 -2.666748046875 6.048583984375 C-1.9683866117498212 3.902867835661958 -1.057037010501375 1.990524240554521 0 0 Z " fill="#F5D519" transform="translate(175,44)"/>
</svg>
