<?xml version="1.0" encoding="UTF-8"?>
<!-- Generator: visioncortex VTracer 0.6.12 -->
<svg version="1.1" xmlns="http://www.w3.org/2000/svg" width="330" height="220">
<path d="M0 0 C108.9 0 217.8 0 330 0 C330 72.60000000000001 330 145.20000000000002 330 220 C221.1 220 112.19999999999999 220 0 220 C0 147.39999999999998 0 74.79999999999998 0 0 Z " fill="#C8102E" transform="translate(0,0)"/>
<path d="M0 0 C108.9 0 217.8 0 330 0 C330 36.300000000000004 330 72.60000000000001 330 110 C221.1 110 112.19999999999999 110 0 110 C0 73.69999999999999 0 37.39999999999999 0 0 Z " fill="#FFCD00" transform="translate(0,0)"/>
<path d="M0 0 C108.9 0 217.8 0 330 0 C330 18.150000000000006 330 36.30000000000001 330 55 C221.1 55 112.19999999999999 55 0 55 C0 36.849999999999994 0 18.69999999999999 0 0 Z " fill="#003087" transform="translate(0,110)"/>
</svg>
