<?xml version="1.0" encoding="UTF-8"?>
<!-- Generator: visioncortex VTracer 0.6.12 -->
<svg version="1.1" xmlns="http://www.w3.org/2000/svg" width="3840" height="2259">
<path d="M0 0 C1267.2 0 2534.4 0 3840 0 C3840 745.47 3840 1490.94 3840 2259 C2572.8 2259 1305.6 2259 0 2259 C0 1513.53 0 768.06 0 0 Z " fill="#003893" transform="translate(0,0)"/>
<path d="M0 0 C1267.2 0 2534.4 0 3840 0 C3840 372.57 3840 745.14 3840 1129 C2572.8 1129 1305.6 1129 0 1129 C0 756.4300000000001 0 383.86 0 0 Z " fill="#003892" transform="translate(0,0)"/>
<path d="M0 0 C1267.2 0 2534.4 0 3840 0 C3840 186.45000000000005 3840 372.9000000000001 3840 565 C2572.8 565 1305.6 565 0 565 C0 378.54999999999995 0 192.0999999999999 0 0 Z " fill="#FEFEFE" transform="translate(0,1129)"/>
<path d="M0 0 C1267.2 0 2534.4 0 3840 0 C3840 62.039999999999964 3840 124.07999999999993 3840 188 C2572.8 188 1305.6 188 0 188 C0 125.96000000000004 0 63.92000000000007 0 0 Z " fill="#FEFEFE" transform="translate(0,1506)"/>
<path d="M0 0 C1267.2 0 2534.4 0 3840 0 C3840 62.039999999999964 3840 124.07999999999993 3840 188 C2572.8 188 1305.6 188 0 188 C0 125.96000000000004 0 63.92000000000007 0 0 Z " fill="#CF2027" transform="translate(0,1318)"/>
<path d="M0 0 C0.6600000000000819 0 1.3199999999999363 0 2 0 C2.9186870043758972 2.7285004029965876 3.834959708751967 5.4577764388486685 4.75 8.1875 C5.002656249999973 8.937089843749959 5.255312499999945 9.686679687500032 5.515625 10.458984375 C7.025027606463254 14.968324661809106 8.462740661548878 19.492592656398074 9.84375 24.04296875 C11.415454568675614 29.184914017941765 13.078330421013789 34.288668038534865 14.796875 39.3828125 C14.917311706542932 39.74018745422359 14.917311706542932 39.74018745422359 15.52679443359375 41.54872131347656 C16.52150665181989 44.496406114795946 17.518148303427324 47.44341187995519 18.52001953125 50.388671875 C19.26214180894658 52.572888814844646 19.998665909193733 54.75892854886911 20.734375 56.9453125 C20.96243835449218 57.61088165283206 21.190501708984357 58.27645080566401 21.42547607421875 58.962188720703125 C22.370304616581507 61.78093179508414 23 64.00292706373045 23 67 C46.75999999999999 67 70.51999999999998 67 95 67 C91.25537223814399 70.74462776185601 88.13767631452833 73.4741695982134 83.875 76.4375 C82.62661019664483 77.31368966967602 81.37927178009477 78.19137865639539 80.1328125 79.0703125 C79.46668945312513 79.53985351562505 78.80056640625003 80.00939453125 78.1142578125 80.4931640625 C73.48005746487888 83.7959682825367 68.917389759765 87.19805409743844 64.353759765625 90.597412109375 C60.215051024874356 93.67065280751535 56.04733177053754 96.67402560347148 51.78515625 99.57421875 C50.95081054687489 100.1500268554687 50.11646484375001 100.7258349609375 49.2568359375 101.319091796875 C47.66076221512526 102.41667145913527 46.05363949872708 103.49840150170883 44.4345703125 104.561767578125 C43.72010742187513 105.0570092773437 43.00564453125003 105.5522509765625 42.26953125 106.0625 C41.636359863281314 106.48660156250003 41.00318847656263 106.91070312500005 40.350830078125 107.34765625 C38.27298835167858 109.88928516823421 38.67973324496916 111.8034678281399 39 115 C39.7626953125 117.86157226562489 39.7626953125 117.86157226562489 40.828125 120.81640625 C41.216132812500064 121.91146484374997 41.60414062500013 123.00652343749994 42.00390625 124.134765625 C42.41511718750007 125.26591796875005 42.82632812499992 126.39707031249998 43.25 127.5625 C46.01580007696043 135.2788119410967 48.66385937503469 142.99476284135028 51.03564453125 150.842041015625 C51.97303275930699 153.91169082066745 52.954995922585795 156.96262530137778 53.95703125 160.01171875 C54.11075195312492 160.482548828125 54.11075195312492 160.482548828125 54.888671875 162.865234375 C55.51915356410905 164.79133594109408 56.154797484214214 166.71575347643682 56.794921875 168.638671875 C57.09591796874997 169.56615234375 57.396914062499945 170.49363281249998 57.70703125 171.44921875 C57.84355102539075 171.86345092773445 57.84355102539075 171.86345092773445 58.534423828125 173.959716796875 C59 176 59 176 58 178 C57.00742187500009 177.249765625 56.014843749999955 176.49953125000002 54.9921875 175.7265625 C47.304523777083205 169.92982375383144 39.570311726685304 164.21696525104767 31.71875 158.64453125 C27.338158471584165 155.53522189107252 22.980912501919875 152.3937508520836 18.625 149.25 C18.25640869140625 148.9844934082031 18.25640869140625 148.9844934082031 16.39111328125 147.640869140625 C11.552843001367364 144.1477755176237 6.761774853273209 140.59664263301568 2 137 C-0.6439866174330291 138.26575751073938 -3.0486757746105013 139.63675287133083 -5.44140625 141.328125 C-5.769472656249945 141.55951171874995 -5.769472656249945 141.55951171874995 -7.4296875 142.73046875 C-8.133515624999973 143.23191406249998 -8.837343749999945 143.73335937499996 -9.5625 144.25 C-10.3062890624999 144.7772265625 -11.050078125000027 145.304453125 -11.81640625 145.84765625 C-18.22498565557794 150.40842859363636 -24.552330479299144 155.07620649387593 -30.873046875 159.757568359375 C-36.39305483949556 163.83794461708078 -41.95570604733166 167.8522217371991 -47.5625 171.8125 C-48.28308593749989 172.32232421875005 -49.00367187500001 172.8321484375 -49.74609375 173.357421875 C-54.74160810406693 176.87080405203346 -54.74160810406693 176.87080405203346 -57 178 C-55.41006738905844 170.55003005158778 -53.18886055669964 163.4745961744195 -50.625 156.3125 C-48.123935586512516 149.3213202082751 -45.81559445977109 142.32259153837174 -43.787109375 135.179931640625 C-42.77409264261041 131.61531548823223 -41.71424768792804 128.08001875887544 -40.546875 124.5625 C-40.3092041015625 123.83901367187502 -40.071533203125 123.11552734375005 -39.82666015625 122.3701171875 C-39.37246624160957 120.9977372450029 -38.909169468074424 119.62832253012266 -38.43505859375 118.2626953125 C-37.19504652337923 114.4865187614264 -36.399006436384525 111.72105925918424 -38 108 C-39.941641045077404 106.29878159216582 -41.730389165122006 104.95696864483341 -43.875 103.5625 C-45.16019289255928 102.68685747959967 -46.443972022259004 101.80913747642057 -47.7265625 100.9296875 C-48.41782226562509 100.46014648437495 -49.109082031249955 99.99060546875 -49.8212890625 99.5068359375 C-53.698041096060706 96.8256040290355 -57.46719163096486 93.99892628349335 -61.25 91.1875 C-66.16870217029532 87.54455342459994 -71.09730151532722 83.91863073242621 -76.07421875 80.35546875 C-76.8905175781249 79.77063720703131 -77.70681640625003 79.18580566406251 -78.5478515625 78.583251953125 C-80.10087163445519 77.47306790700009 -81.65609470514914 76.36595688250645 -83.2138671875 75.262451171875 C-83.91543945312492 74.76076416015621 -84.61701171875006 74.25907714843754 -85.33984375 73.7421875 C-85.95206787109373 73.3076123046875 -86.56429199218746 72.87303710937499 -87.195068359375 72.42529296875 C-89.27363710515169 70.78391810903895 -91.12722672741597 68.87277327258414 -93 67 C-69.24000000000001 67 -45.48000000000002 67 -21 67 C-20.339999999999918 64.02999999999997 -19.680000000000064 61.059999999999945 -19 58 C-18.377450355530755 55.87427059002982 -17.722319071766833 53.75770118435935 -17.02880859375 51.654052734375 C-16.64856536865227 50.49352890014643 -16.26832214355477 49.33300506591797 -15.876556396484375 48.13731384277344 C-15.471277160644604 46.91508621215826 -15.065997924804606 45.692858581542964 -14.6484375 44.43359375 C-14.224934677042484 43.14620638739359 -13.801815007661617 41.8586929246452 -13.379058837890625 40.57106018066406 C-12.274841567718795 37.21125112605512 -11.165488148811846 33.85316068293548 -10.05499267578125 30.49542236328125 C-8.918922433493208 27.057231863395828 -7.787805964669587 23.617412646040407 -6.65625 20.177734375 C-4.442298216698191 13.450236485385858 -2.222906855588917 6.7245448066195195 0 0 Z " fill="#F3CE17" transform="translate(1439,749)"/>
<path d="M0 0 C0.6600000000000819 0 1.3199999999999363 0 2 0 C3.7801649825755703 5.3154926305553545 5.558227791646914 10.631682449419372 7.33447265625 15.948486328125 C7.937106693833357 17.751406666164712 8.54028243060202 19.554146044175695 9.14404296875 21.356689453125 C12.265106004009567 30.675883474658576 15.35356424242832 39.994615719790886 18.2041015625 49.400634765625 C19.45409297200058 53.483045359782295 20.86072572588955 57.5080822750524 22.265625 61.5390625 C23 64 23 64 23 67 C46.75999999999999 67 70.51999999999998 67 95 67 C89.3809523809523 72.61904761904759 89.3809523809523 72.61904761904759 86.4609375 74.62109375 C85.80786621093739 75.07427978515625 85.15479492187501 75.5274658203125 84.48193359375 75.994384765625 C84.1342895507812 76.23249877929686 84.1342895507812 76.23249877929686 82.375 77.4375 C75.97237659691405 81.88885435765974 69.64333614272596 86.42384206167412 63.375 91.0625 C62.58810791015617 91.64459228515625 61.801215820312564 92.2266845703125 60.990478515625 92.826416015625 C59.42718023787438 93.98341512349396 57.864107249337394 95.1407187020327 56.30126953125 96.29833984375 C52.64609746586916 99.00113522839933 48.979682415055095 101.68853452272265 45.3125 104.375 C44.67038574218759 104.84558837890631 44.028271484374955 105.31617675781251 43.36669921875 105.801025390625 C41.911285534293256 106.86755869907608 40.45566887832342 107.93381502185582 39 109 C39.56374237828686 113.58587148977688 40.42419420353917 117.77843588874805 41.87353515625 122.1630859375 C42.257081604003815 123.33409851074225 42.64062805175786 124.50511108398439 43.035797119140625 125.71160888671875 C43.4493746948242 126.95662170410151 43.862952270507776 128.20163452148438 44.2890625 129.484375 C44.71677337088431 130.78972932339707 45.14371202396342 132.09533689943942 45.569915771484375 133.40118408203125 C47.37317552904278 138.9213130493033 49.19092916565569 144.43663795590692 51.0126953125 149.95068359375 C52.130046863234156 153.33444140245842 53.238759097400816 156.72093292799866 54.34235763549805 160.10919952392578 C54.76396845920112 161.3973399959773 55.18902366608586 162.68435838359323 55.61757278442383 163.97020721435547 C56.21481520898942 165.76231753453294 56.80032036781972 167.55832664139712 57.38525390625 169.3544921875 C57.72199127197268 170.37484558105461 58.05872863769537 171.39519897460946 58.405670166015625 172.44647216796875 C59 175 59 175 58 178 C57.22398437499987 177.3941406250001 56.44796874999997 176.78828124999995 55.6484375 176.1640625 C48.21494586872359 170.38763703891868 40.64959558776604 164.84215590499844 32.96875 159.40087890625 C29.236110879563967 156.7448913971898 25.525148522069003 154.05882370026245 21.8125 151.375 C21.049938964843705 150.82392578124995 20.28737792968741 150.27285156250002 19.501708984375 149.705078125 C13.659699074975833 145.48117659942523 7.825226229024338 141.2470261713812 2 137 C-0.6614890904240838 138.2724265152931 -3.072338267027817 139.6560066235404 -5.4765625 141.36328125 C-6.13777099609365 141.83113037109376 -6.798979492187527 142.29897949218753 -7.480224609375 142.781005859375 C-8.188000488281205 143.2863989257812 -8.895776367187409 143.79179199218754 -9.625 144.3125 C-10.372092285156214 144.8430297851562 -11.119184570312427 145.37355957031252 -11.888916015625 145.920166015625 C-21.13653709325513 152.4988875892534 -30.326508900176577 159.1579898395255 -39.51220703125 165.82275390625 C-41.197267542927875 167.0452361547334 -42.88272461137967 168.26717200356074 -44.568603515625 169.488525390625 C-46.15987952139221 170.64135764101275 -47.75024853039258 171.79544312963003 -49.339599609375 172.950927734375 C-50.05253173828123 173.4672778320312 -50.765463867187464 173.98362792968737 -51.5 174.515625 C-52.12906249999992 174.97227539062487 -52.758125000000064 175.42892578124997 -53.40625 175.8994140625 C-55 177 -55 177 -57 178 C-54.99557716497452 169.4769646987911 -52.551772548955114 161.17821316412335 -49.8046875 152.8671875 C-49.41177520751944 151.66812774658206 -49.01886291503911 150.46906799316412 -48.614044189453125 149.23367309570313 C-47.581832280672415 146.08698855363343 -46.54585159739736 142.94157863228793 -45.5081787109375 139.79669189453125 C-44.65831788389369 137.21737165745049 -43.81281653113615 134.63663170911855 -42.96742057800293 132.05584526062012 C-41.95674649092507 128.97150020184085 -40.94323453877473 125.88808946756706 -39.9296875 122.8046875 C-39.550531921386664 121.64959686279303 -39.17137634277333 120.49450622558595 -38.780731201171875 119.30441284179688 C-38.430116271972565 118.2421548461914 -38.07950134277348 117.17989685058592 -37.71826171875 116.08544921875 C-37.40976287841795 115.14901580810545 -37.1012640380859 114.21258239746089 -36.783416748046875 113.24777221679688 C-36 111 -36 111 -35 109 C-35.53367187499998 108.75894531250003 -36.067343749999964 108.51789062500006 -36.6171875 108.26953125 C-39.64076958349051 106.65860636945172 -42.358962198301924 104.69586510569616 -45.125 102.6875 C-45.73190673828117 102.25018554687495 -46.338813476562564 101.81287109375 -46.964111328125 101.3623046875 C-48.284105160530316 100.41059229340897 -49.60316080549637 99.45757762010874 -50.92138671875 98.50341796875 C-53.029377404245906 96.97875193148388 -55.141204175723715 95.459535655953 -57.25390625 93.94140625 C-65.34248063130258 88.12356102315982 -73.40213699522701 82.26611420982886 -81.4375 76.375 C-82.24856201171883 75.78299804687504 -83.05962402343755 75.19099609374996 -83.895263671875 74.5810546875 C-84.2728381347656 74.30342285156246 -84.2728381347656 74.30342285156246 -86.18359375 72.8984375 C-86.51645385742188 72.65440185546879 -86.51645385742188 72.65440185546879 -88.200927734375 71.41943359375 C-90 70 -90 70 -93 67 C-69.24000000000001 67 -45.48000000000002 67 -21 67 C-20.339999999999918 64.02999999999997 -19.680000000000064 61.059999999999945 -19 58 C-18.08627890451885 55.11095794896869 -17.144973737292958 52.260735478282186 -16.13671875 49.40625 C-15.862858428955178 48.61585327148441 -15.588998107910129 47.82545654296871 -15.306838989257813 47.0111083984375 C-14.438423950323568 44.5057418792112 -13.563674381284045 42.002662500650786 -12.6875 39.5 C-8.84458297981837 28.509712361792594 -5.157918553927857 17.522353935081696 -1.956298828125 6.326171875 C-1.3464050036473054 4.204856208754222 -0.6979935983226824 2.093980794968388 0 0 Z " fill="#F4CF17" transform="translate(1107,857)"/>
<path d="M0 0 C0.6600000000000819 0 1.3199999999999363 0 2 0 C2.752074836607335 2.2284840445370264 3.5016492941037995 4.457765002022484 4.25 6.6875 C4.667656249999936 7.928867187500032 5.0853125000001 9.17023437499995 5.515625 10.44921875 C6.6588021042528 13.902336935611174 7.726171266476285 17.37447905983413 8.78125 20.85546875 C10.441251393825496 26.280312472442233 12.203929594448937 31.66357609959232 14.015625 37.0390625 C14.147119445800854 37.429610671997125 14.147119445800854 37.429610671997125 14.81256103515625 39.40602111816406 C15.902948399511843 42.6406867062982 16.995222611643158 45.87469092409151 18.0927734375 49.10693359375 C18.90439239981515 51.49964690563968 19.710418785665524 53.894184878043234 20.515625 56.2890625 C20.640593566894495 56.654657745361305 20.640593566894495 56.654657745361305 21.27301025390625 58.504791259765625 C22.263535047841287 61.46131514080321 23 63.85906914279815 23 67 C46.75999999999999 67 70.51999999999998 67 95 67 C92.3651148862541 69.6348851137459 90.28194218428462 71.65379705987232 87.33984375 73.7421875 C86.63835205078112 74.24379394531252 85.93686035156247 74.74540039062504 85.214111328125 75.26220703125 C84.46282958984375 75.7944287109375 83.7115478515625 76.32665039062499 82.9375 76.875 C81.31450981862463 78.03562766262291 79.69213404340599 79.19711488219878 78.0703125 80.359375 C77.65217285156245 80.65875976562506 77.65217285156245 80.65875976562506 75.5361328125 82.173828125 C71.43757728642481 85.1250406139336 67.3746539220599 88.12398016370264 63.3125 91.125 C62.52810546875003 91.70314453125002 61.743710937500055 92.28128906250004 60.935546875 92.876953125 C57.12891402459991 95.68367244196168 53.32890859806707 98.49877695874443 49.5390625 101.328125 C48.84514404296874 101.84358886718746 48.15122558593748 102.35905273437504 47.436279296875 102.89013671875 C46.135337926715465 103.85658662876722 44.83716524310512 104.82677839105759 43.542236328125 105.80126953125 C39.225591505131206 109 39.225591505131206 109 37 109 C37.281982421875 109.81041748046869 37.56396484375 110.62083496093749 37.8544921875 111.455810546875 C38.92240838155362 114.52858414946218 39.988226083049085 117.60207028418483 41.052734375 120.676025390625 C41.509607413911 121.99401452493441 41.96726114960825 123.31173335362496 42.42578125 124.629150390625 C45.12926411276317 132.39869927582458 47.71207040442687 140.18923503624717 50.09765625 148.063720703125 C51.582455983889986 152.89534581121347 53.229942435496014 157.67039819871184 54.88671875 162.4453125 C56.627951950622446 167.56873165575803 57.92601720175389 172.69711251141712 59 178 C52.78663228839309 173.9407103690969 46.762795778871805 169.68431652014078 40.8125 165.25 C34.612712690753824 160.65454361726927 28.402431369539954 156.08081595769147 22.08740234375 151.64453125 C18.98938956112829 149.4596265546453 15.96483460074046 147.20949912577692 12.98046875 144.87109375 C12.305966796875055 144.3511987304687 11.63146484375011 143.8313037109375 10.9365234375 143.295654296875 C9.632481632622785 142.28736305766188 8.339455229643363 141.2646134293634 7.0595703125 140.225830078125 C5.27734375 138.859375 5.27734375 138.859375 2 137 C-2.325568025193661 137.72202197689126 -5.3800970427873835 140.67733157052157 -8.75 143.375 C-13.790652492365098 147.34732857248548 -18.928969989398865 151.1336530381691 -24.1875 154.8125 C-31.152872589569597 159.68738546597774 -38.0612656377657 164.63441575710203 -44.936279296875 169.635986328125 C-48.90322565833412 172.51481973306636 -52.89985928406759 175.3139235624758 -57 178 C-56.04778167232803 173.15955683433435 -54.93345428102225 168.61582245144768 -53.1875 164 C-51.40636430832433 159.28328881648872 -49.947623381568974 154.5305698579432 -48.5625 149.6875 C-47.02400088796662 144.32231029998525 -45.358559382988005 139.05710997196115 -43.4375 133.8125 C-41.70521321989554 129.0500861854906 -40.09196988751614 124.28707055598113 -38.625 119.4375 C-38.28726562499992 118.32246093749995 -37.949531250000064 117.20742187500002 -37.6015625 116.05859375 C-36.62639306562892 111.10042708043773 -36.62639306562892 111.10042708043773 -38 108 C-40.42241046952063 105.72521899615754 -43.12495429448336 103.91792502787143 -45.875 102.0625 C-47.529474354541435 100.90873926116456 -49.18309325345376 99.75375102508224 -50.8359375 98.59765625 C-51.263745117187455 98.30125244140629 -51.263745117187455 98.30125244140629 -53.4287109375 96.80126953125 C-57.508614839858865 93.94316746216498 -61.50197333038773 90.97100683436224 -65.5 88 C-70.37733835342101 84.38877183147258 -75.26707103264243 80.79785382124078 -80.19921875 77.26171875 C-81.03582031249994 76.66166015625004 -81.8724218750001 76.06160156249996 -82.734375 75.443359375 C-84.34295916177552 74.29199220825149 -85.95357085516935 73.14345132206779 -87.56640625 71.998046875 C-88.28054687500003 71.48693359375 -88.99468750000005 70.97582031249999 -89.73046875 70.44921875 C-90.36364013671869 69.99893310546872 -90.9968115234376 69.54864746093745 -91.649169921875 69.084716796875 C-91.8720568847657 68.90573852539069 -91.8720568847657 68.90573852539069 -93 68 C-93 67.66999999999996 -93 67.34000000000003 -93 67 C-69.24000000000001 67 -45.48000000000002 67 -21 67 C-20.339999999999918 64.02999999999997 -19.680000000000064 61.059999999999945 -19 58 C-18.377450355530755 55.87427059002982 -17.722319071766833 53.75770118435935 -17.02880859375 51.654052734375 C-16.64856536865227 50.49352890014643 -16.26832214355477 49.33300506591797 -15.876556396484375 48.13731384277344 C-15.471277160644604 46.91508621215826 -15.065997924804606 45.692858581542964 -14.6484375 44.43359375 C-14.224934677042484 43.14620638739359 -13.801815007661617 41.8586929246452 -13.379058837890625 40.57106018066406 C-12.274841567718795 37.21125112605512 -11.165488148811846 33.85316068293548 -10.05499267578125 30.49542236328125 C-8.918922433493208 27.057231863395828 -7.787805964669587 23.617412646040407 -6.65625 20.177734375 C-4.442298216698191 13.450236485385858 -2.222906855588917 6.7245448066195195 0 0 Z " fill="#F4CF17" transform="translate(1771,857)"/>
<path d="M0 0 C0.6599999999999682 0 1.3199999999999363 0 2 0 C4.743287878094634 8.291032107296815 7.481793127702986 16.58362380742301 10.214179992675781 24.878254890441895 C11.483041920917117 28.72959682276155 12.753553997792324 32.58037798484861 14.02783203125 36.429931640625 C15.257168347656602 40.1439206530888 16.482176613270667 43.859311210120495 17.704177856445313 47.57571983337402 C18.171510325586496 48.9944216519616 18.640408676582865 50.41260863102434 19.110885620117188 51.830270767211914 C19.768812983350813 53.81365447752319 20.42118449108932 55.79878403002567 21.072265625 57.784423828125 C21.44532836914061 58.91471511840814 21.818391113281223 60.045006408691506 22.2027587890625 61.20954895019531 C23 64 23 64 23 67 C46.75999999999999 67 70.51999999999998 67 95 67 C92.3651148862541 69.6348851137459 90.2819421842845 71.6537970598722 87.33984375 73.7421875 C86.63835205078124 74.24379394531252 85.93686035156247 74.74540039062504 85.214111328125 75.26220703125 C84.46282958984375 75.79442871093761 83.7115478515625 76.32665039062499 82.9375 76.875 C81.31450981862451 78.03562766262303 79.69213404340587 79.19711488219878 78.0703125 80.359375 C77.65217285156245 80.65875976562506 77.65217285156245 80.65875976562506 75.5361328125 82.173828125 C71.43757728642481 85.1250406139336 67.37465392206002 88.12398016370253 63.3125 91.125 C62.52810546875003 91.70314453125002 61.743710937500055 92.28128906250004 60.935546875 92.876953125 C57.12891402459991 95.68367244196179 53.32890859806719 98.49877695874443 49.5390625 101.328125 C48.84514404296874 101.84358886718746 48.15122558593748 102.35905273437493 47.436279296875 102.89013671875 C46.13533792671535 103.85658662876722 44.83716524310512 104.82677839105759 43.542236328125 105.80126953125 C39.22559150513109 109 39.22559150513109 109 37 109 C37.31114746093749 109.92820556640618 37.62229492187498 110.85641113281258 37.94287109375 111.812744140625 C41.371043857196014 122.04522122872368 44.78273021320672 132.28311863278418 48.17950439453125 142.52606201171875 C48.717039171544116 144.1468235319644 49.25490922372853 145.7674739036845 49.79315185546875 147.38800048828125 C51.253530148225764 151.7862063710013 52.70615453279402 156.18681228408673 54.14605712890625 160.59176635742188 C54.590020269115485 161.94624223508663 55.03659192711757 163.2998659110517 55.48577880859375 164.65261840820313 C56.10824683868418 166.52910898730102 56.72042065374808 168.40900510181223 57.33203125 170.2890625 C57.67983642578122 171.34818847656243 58.027641601562436 172.40731445312508 58.385986328125 173.49853515625 C59 176 59 176 58 178 C57.2587890625 177.41734374999987 56.517578125 176.83468749999997 55.75390625 176.234375 C48.85983820094509 170.85350307355975 41.83432257776121 165.70609847964965 34.67236328125 160.68798828125 C29.230734004669102 156.87458223277918 23.823789234676042 153.0161865985824 18.4375 149.125 C17.712160644531195 148.60188232421888 16.986821289062505 148.07876464843753 16.239501953125 147.539794921875 C15.540427246093714 147.03424072265625 14.841352539062541 146.5286865234375 14.12109375 146.0078125 C13.439018554687436 145.51958007812505 12.756943359374986 145.0313476562501 12.05419921875 144.5283203125 C10.626990126782175 143.4664794620462 9.23423084718479 142.35737931612812 7.87158203125 141.2138671875 C5.963626627861231 139.63945793115818 4.158309198442225 138.2088176161094 2 137 C-2.324294460841543 137.57571967673925 -5.395936551189152 140.6900113842421 -8.75 143.375 C-13.790652492365098 147.34732857248537 -18.928969989398865 151.1336530381691 -24.1875 154.8125 C-31.152872589569483 159.68738546597774 -38.06126563776559 164.63441575710203 -44.936279296875 169.635986328125 C-48.90322565833412 172.51481973306636 -52.89985928406759 175.3139235624758 -57 178 C-55.66654293308011 171.56479603484013 -53.952818089259836 165.40565449320638 -51.8828125 159.171875 C-51.7335984802246 158.71644317626942 -51.7335984802246 158.71644317626942 -50.978485107421875 156.41168212890625 C-50.031336382977315 153.523117971401 -49.078455287252154 150.63648792442086 -48.125 147.75 C-46.00198914933253 141.2981820069249 -43.886352561638546 134.84402802778504 -41.7823486328125 128.385986328125 C-41.07444169868916 126.2270303389887 -40.3531668015454 124.07310026866253 -39.6279296875 121.919921875 C-39.44053222656248 121.347900390625 -39.44053222656248 121.347900390625 -38.4921875 118.453125 C-38.17362792968754 117.50083007812509 -37.85506835937497 116.54853515624995 -37.52685546875 115.5673828125 C-36.92137205372683 112.61684361306379 -37.02137491376641 110.8452067741016 -38 108 C-39.46435546875 106.461181640625 -39.46435546875 106.461181640625 -41.3671875 105.16015625 C-42.07810546874998 104.66193359375006 -42.789023437499964 104.1637109374999 -43.521484375 103.650390625 C-44.298144531250045 103.12638671874993 -45.07480468749998 102.60238281250008 -45.875 102.0625 C-47.529474354541435 100.90873926116456 -49.18309325345376 99.75375102508224 -50.8359375 98.59765625 C-51.263745117187455 98.30125244140618 -51.263745117187455 98.30125244140618 -53.4287109375 96.80126953125 C-57.50861483985875 93.94316746216509 -61.50197333038773 90.97100683436224 -65.5 88 C-70.37733835342112 84.3887718314727 -75.26707103264232 80.79785382124078 -80.19921875 77.26171875 C-81.03582031250005 76.66166015625004 -81.87242187499999 76.06160156250007 -82.734375 75.443359375 C-84.34295916177552 74.29199220825149 -85.95357085516923 73.1434513220679 -87.56640625 71.998046875 C-88.28054687500003 71.48693359375011 -88.99468750000005 70.97582031249999 -89.73046875 70.44921875 C-90.3636401367188 69.99893310546872 -90.99681152343749 69.54864746093745 -91.649169921875 69.084716796875 C-91.87205688476558 68.90573852539069 -91.87205688476558 68.90573852539069 -93 68 C-93 67.67000000000007 -93 67.33999999999992 -93 67 C-69.24000000000001 67 -45.48000000000002 67 -21 67 C-20.340000000000032 64.02999999999997 -19.680000000000064 61.059999999999945 -19 58 C-18.377450355530755 55.87427059002994 -17.722319071766833 53.75770118435935 -17.02880859375 51.654052734375 C-16.648565368652385 50.49352890014643 -16.268322143554656 49.33300506591786 -15.876556396484375 48.13731384277344 C-15.47127716064449 46.91508621215826 -15.06599792480472 45.69285858154308 -14.6484375 44.43359375 C-14.224934677042484 43.14620638739348 -13.801815007661617 41.858692924645084 -13.379058837890625 40.57106018066406 C-12.274841567718681 37.211251126055004 -11.165488148811846 33.85316068293537 -10.05499267578125 30.49542236328125 C-8.918922433493321 27.057231863395828 -7.787805964669587 23.617412646040293 -6.65625 20.177734375 C-4.442298216698305 13.450236485385858 -2.222906855589031 6.724544806619633 0 0 Z " fill="#F7D118" transform="translate(902,1135)"/>
<path d="M0 0 C0.6600000000000819 0 1.3199999999999363 0 2 0 C3.4953566187568867 4.460992926389281 4.988576198926921 8.922693927037926 6.47998046875 13.385009765625 C6.98560570695895 14.896915796553458 7.491773318019341 16.40864057184831 7.99853515625 17.920166015625 C10.803317335067959 26.28730334708871 13.540652464326058 34.663359594180974 16.1064453125 43.107666015625 C17.648647717512176 48.099598226602666 19.35385900295273 53.03566952295478 21.0625 57.97265625 C22.12221855701523 61.092337920397085 23 63.68077801855293 23 67 C46.75999999999999 67 70.51999999999998 67 95 67 C89.3809523809523 72.6190476190477 89.3809523809523 72.6190476190477 86.4609375 74.62109375 C85.80786621093739 75.07427978515625 85.15479492187478 75.5274658203125 84.48193359375 75.994384765625 C84.13428955078143 76.23249877929698 84.13428955078143 76.23249877929698 82.375 77.4375 C75.97237659691427 81.88885435765974 69.64333614272596 86.42384206167412 63.375 91.0625 C62.58810791015617 91.64459228515625 61.801215820312564 92.2266845703125 60.990478515625 92.826416015625 C59.42718023787438 93.98341512349384 57.864107249337394 95.1407187020327 56.30126953125 96.29833984375 C52.64609746586916 99.00113522839933 48.979682415055095 101.68853452272265 45.3125 104.375 C44.67038574218759 104.84558837890631 44.028271484374955 105.3161767578124 43.36669921875 105.801025390625 C41.911285534293256 106.8675586990762 40.45566887832342 107.93381502185571 39 109 C39.56374237828686 113.58587148977699 40.42419420353917 117.77843588874794 41.87353515625 122.1630859375 C42.257081604003815 123.33409851074225 42.64062805175786 124.50511108398427 43.035797119140625 125.71160888671875 C43.4493746948242 126.95662170410151 43.862952270507776 128.20163452148427 44.2890625 129.484375 C44.71677337088431 130.78972932339707 45.14371202396342 132.09533689943942 45.569915771484375 133.40118408203125 C47.37317552904278 138.9213130493033 49.19092916565569 144.43663795590692 51.0126953125 149.95068359375 C52.130046863234156 153.33444140245842 53.238759097400816 156.72093292799877 54.34235763549805 160.10919952392578 C54.76396845920112 161.3973399959773 55.18902366608586 162.68435838359323 55.61757278442383 163.97020721435547 C56.21481520898942 165.76231753453294 56.80032036781972 167.55832664139712 57.38525390625 169.3544921875 C57.72199127197268 170.37484558105461 58.05872863769537 171.39519897460946 58.405670166015625 172.44647216796875 C59 175 59 175 58 178 C57.22398437499987 177.3941406250001 56.44796874999997 176.78828124999995 55.6484375 176.1640625 C48.21494586872359 170.38763703891868 40.64959558776604 164.84215590499844 32.96875 159.40087890625 C29.236110879563967 156.7448913971898 25.525148522069003 154.05882370026256 21.8125 151.375 C21.049938964843705 150.82392578124995 20.28737792968741 150.2728515624999 19.501708984375 149.705078125 C13.659699074975833 145.48117659942523 7.825226229024338 141.2470261713811 2 137 C-0.6614890904240838 138.2724265152931 -3.072338267027817 139.6560066235404 -5.4765625 141.36328125 C-6.13777099609365 141.83113037109388 -6.798979492187527 142.29897949218753 -7.480224609375 142.781005859375 C-8.188000488281205 143.2863989257812 -8.895776367187409 143.79179199218743 -9.625 144.3125 C-10.372092285156214 144.8430297851562 -11.119184570312427 145.3735595703124 -11.888916015625 145.920166015625 C-21.13653709325513 152.4988875892534 -30.326508900176577 159.1579898395255 -39.51220703125 165.82275390625 C-41.197267542927875 167.0452361547334 -42.88272461137967 168.26717200356074 -44.568603515625 169.488525390625 C-46.15987952139221 170.64135764101275 -47.75024853039258 171.79544312963003 -49.339599609375 172.950927734375 C-50.05253173828123 173.4672778320312 -50.765463867187464 173.98362792968737 -51.5 174.515625 C-52.12906249999992 174.97227539062487 -52.758125000000064 175.42892578124997 -53.40625 175.8994140625 C-55 177 -55 177 -57 178 C-55.047843478994764 169.74135428115164 -52.71985571752475 161.68511161037554 -50.05859375 153.62890625 C-49.69024917602542 152.50354965209954 -49.321904602050836 151.3781930541993 -48.94239807128906 150.21873474121094 C-48.17035613614917 147.86270589767605 -47.39632075320287 145.50732941185743 -46.620361328125 143.152587890625 C-45.43310720042564 139.54916746795857 -44.25218161660837 135.94371976923685 -43.072265625 132.337890625 C-42.31807410063038 130.03894247437393 -41.563529343794016 127.74011016828103 -40.80859375 125.44140625 C-40.45647323608409 124.36742080688487 -40.10435272216796 123.2934353637695 -39.74156188964844 122.18690490722656 C-39.576302566528284 121.68592033386221 -39.576302566528284 121.68592033386221 -38.739990234375 119.150634765625 C-38.45147689819328 118.27415786743154 -38.16296356201178 117.39768096923831 -37.86570739746094 116.49464416503906 C-36.98666933623758 113.96158602471382 -36.01529540126285 111.48123254057509 -35 109 C-35.53367187499998 108.75894531249992 -36.067343749999964 108.51789062500006 -36.6171875 108.26953125 C-39.64076958349051 106.65860636945172 -42.358962198301924 104.69586510569616 -45.125 102.6875 C-45.73190673828117 102.25018554687495 -46.338813476562564 101.81287109374989 -46.964111328125 101.3623046875 C-48.284105160530316 100.41059229340908 -49.60316080549637 99.45757762010862 -50.92138671875 98.50341796875 C-53.029377404245906 96.97875193148388 -55.141204175723715 95.459535655953 -57.25390625 93.94140625 C-65.34248063130258 88.12356102315971 -73.40213699522701 82.26611420982886 -81.4375 76.375 C-82.24856201171883 75.78299804687504 -83.05962402343744 75.19099609375007 -83.895263671875 74.5810546875 C-84.2728381347656 74.30342285156257 -84.2728381347656 74.30342285156257 -86.18359375 72.8984375 C-86.51645385742177 72.65440185546868 -86.51645385742177 72.65440185546868 -88.200927734375 71.41943359375 C-90 70 -90 70 -93 67 C-69.24000000000001 67 -45.48000000000002 67 -21 67 C-20.339999999999918 64.02999999999997 -19.680000000000064 61.059999999999945 -19 58 C-18.556687465420964 56.484332684685114 -18.08720294769182 54.9754506396132 -17.567138671875 53.484375 C-17.30313766479503 52.71907470703127 -17.039136657714835 51.953774414062536 -16.767135620117188 51.165283203125 C-16.62702308654775 50.76676147460944 -16.62702308654775 50.76676147460944 -15.91796875 48.75 C-15.621912384033294 47.89301513671876 -15.32585601806636 47.03603027343752 -15.020828247070313 46.153076171875 C-14.081047991036712 43.4337409269549 -13.134965779860067 40.71666613534944 -12.1875 38 C-7.803320347389445 25.414154744989446 -3.620193839105241 12.828832042901922 0 0 Z " fill="#F7D118" transform="translate(1976,1135)"/>
<path d="M0 0 C0.6600000000000819 0 1.3199999999999363 0 2 0 C7.810114463928812 17.33417393923878 13.613193819801154 34.671046179785435 19.25 52.0625 C19.63212646484385 53.23135742187492 20.014252929687473 54.400214843750064 20.407958984375 55.6044921875 C20.75286376953136 56.674736328124936 21.09776855468749 57.7449804687501 21.453125 58.84765625 C21.7537988281249 59.77586181640618 22.054472656250027 60.70406738281258 22.3642578125 61.660400390625 C23 64 23 64 23 67 C46.75999999999999 67 70.51999999999998 67 95 67 C92.40206848911293 69.59793151088707 90.46312021940025 71.52362650807231 87.55859375 73.5234375 C87.23052734375005 73.7516015624999 87.23052734375005 73.7516015624999 85.5703125 74.90625 C84.86648437500003 75.39093750000006 84.16265625000005 75.8756249999999 83.4375 76.375 C77.05285984167631 80.82322416576471 70.74858783878426 85.36266708985227 64.5 90 C55.76480931744209 96.47531348061807 46.911378176561584 102.77002242714138 38 109 C40.28335927068906 116.76071672026887 42.73640543713486 124.46100037746282 45.23046875 132.15625 C45.83426699636925 134.02604705353292 46.438061904831784 135.8958451932076 47.041653633117676 137.76570892333984 C48.516995696908225 142.3354131291744 49.99434840533286 146.9044639549154 51.474365234375 151.47265625 C52.31077611638443 154.05462520561946 53.14565644956838 156.63707930876672 53.97883605957031 159.2200927734375 C54.76102402053834 161.64477407944946 55.545535813491824 164.06870717342872 56.33256530761719 166.4918212890625 C56.50791053771968 167.0361883544922 56.50791053771968 167.0361883544922 57.395263671875 169.791015625 C57.70598312377933 170.75124633789073 58.01670257568367 171.71147705078124 58.33683776855469 172.7008056640625 C59 175 59 175 59 177 C56.22924751627647 175.68651189875936 53.780204076156906 174.2244703619051 51.3046875 172.41796875 C50.95144409179693 172.16140502929693 50.95144409179693 172.16140502929693 49.163818359375 170.863037109375 C48.40850830078125 170.31010986328124 47.6531982421875 169.75718261718748 46.875 169.1875 C45.248730305771005 168.00516378176235 43.62242729591458 166.82287338708147 41.99609375 165.640625 C41.16577636718739 165.03541015625 40.33545898437501 164.43019531250002 39.47998046875 163.806640625 C34.16197219519222 159.93252552120703 28.830128024290843 156.0779103211123 23.484375 152.2421875 C20.382640425421187 150.01324127586236 17.3173108772437 147.74223985369508 14.265625 145.4453125 C12.739699118780209 144.31755165207596 11.213661448438188 143.18994204214118 9.6875 142.0625 C8.98810302734364 141.52359130859372 8.288706054687509 140.98468261718745 7.568115234375 140.429443359375 C2.7521682376079752 136.9108005615658 2.7521682376079752 136.9108005615658 -0.4375 137.2890625 C-4.277789050159754 139.853157932881 -8.003794636672183 142.52805212242583 -11.6875 145.3125 C-13.393941021303363 146.5867283138025 -15.100986903733883 147.86014694555593 -16.80859375 149.1328125 C-17.673393554687436 149.7789550781249 -18.5381933593751 150.42509765625005 -19.42919921875 151.0908203125 C-24.07370790921209 154.54001859924392 -28.77543477268705 157.90935628115335 -33.473388671875 161.28515625 C-37.13168373122585 163.91766618721203 -40.77527747517615 166.566530971897 -44.390625 169.2578125 C-44.737221679687536 169.51518188476575 -44.737221679687536 169.51518188476575 -46.4912109375 170.817626953125 C-47.799579286380094 171.7912705360361 -49.10507751369914 172.76878669139796 -50.4072265625 173.750732421875 C-54.77863556338025 177 -54.77863556338025 177 -57 177 C-55.49567939758299 171.00717808793252 -53.753858608353084 165.17731494516443 -51.625 159.375 C-49.54072655555001 153.66025619385255 -47.76305828814475 147.89991144324858 -46.097412109375 142.053955078125 C-43.83836214603048 134.23808085543124 -41.21635499903164 126.54528116119354 -38.590576171875 118.84619140625 C-38.25517822265624 117.8566748046876 -37.91978027343748 116.86715820312497 -37.57421875 115.84765625 C-37.270886230468705 114.96086181640635 -36.96755371093741 114.07406738281247 -36.655029296875 113.160400390625 C-36 111 -36 111 -36 109 C-37.350830078125 107.8017578125 -37.350830078125 107.8017578125 -39.26953125 106.453125 C-39.6266015624999 106.19917968749996 -39.6266015624999 106.19917968749996 -41.43359375 104.9140625 C-42.21863281249989 104.36492187499994 -43.00367187500001 103.8157812500001 -43.8125 103.25 C-45.47592823203104 102.06864810272941 -47.138667034257196 100.88632495018965 -48.80078125 99.703125 C-49.662680664062464 99.09146484374992 -50.52458007812493 98.47980468750006 -51.41259765625 97.849609375 C-55.47546223082077 94.94526308164768 -59.487525082204684 91.97337781620172 -63.5 89 C-68.36430821328281 85.39838070590213 -73.24020859780762 81.8168278084222 -78.1640625 78.296875 C-78.58010742187503 77.99910156250007 -78.58010742187503 77.99910156250007 -80.685546875 76.4921875 C-82.28056664050541 75.3530701014165 -83.87812652967966 74.21749891843388 -85.478515625 73.0859375 C-86.18943359374998 72.57804687499993 -86.90035156249996 72.07015625000008 -87.6328125 71.546875 C-88.2607470703125 71.10182617187502 -88.88868164062501 70.65677734375004 -89.53564453125 70.1982421875 C-91 69 -91 69 -92 67 C-68.56999999999994 67 -45.1400000000001 67 -21 67 C-20.339999999999918 64.02999999999997 -19.680000000000064 61.059999999999945 -19 58 C-18.377450355530755 55.87427059002994 -17.722319071766833 53.75770118435935 -17.02880859375 51.654052734375 C-16.64856536865227 50.49352890014643 -16.26832214355477 49.33300506591786 -15.876556396484375 48.13731384277344 C-15.471277160644604 46.91508621215826 -15.065997924804606 45.69285858154308 -14.6484375 44.43359375 C-14.224934677042484 43.14620638739348 -13.801815007661617 41.858692924645084 -13.379058837890625 40.57106018066406 C-12.274841567718795 37.211251126055004 -11.165488148811846 33.85316068293537 -10.05499267578125 30.49542236328125 C-8.918922433493208 27.057231863395828 -7.787805964669587 23.617412646040293 -6.65625 20.177734375 C-4.442298216698191 13.450236485385858 -2.222906855588917 6.724544806619633 0 0 Z " fill="#F4CF17" transform="translate(1107,1771)"/>
<path d="M0 0 C0.6600000000000819 0 1.3199999999999363 0 2 0 C3.3529560767055955 4.033741902978136 4.70375207430402 8.068199426483261 6.052734375 12.103271484375 C6.5098546499637 13.469670569586697 6.967517705220189 14.83588821740318 7.42578125 16.201904296875 C10.07257556251966 24.092950059749 12.634886466051057 31.997712397402438 15.0576171875 39.961181640625 C16.8214845048999 45.64896829857253 18.769545261384337 51.275678473900825 20.70703125 56.90625 C20.855917968749964 57.34582031250011 20.855917968749964 57.34582031250011 21.609375 59.5703125 C21.877177734374982 60.351645507812464 22.144980468749964 61.13297851562493 22.4208984375 61.93798828125 C23 64 23 64 23 67 C46.430000000000064 67 69.86000000000013 67 94 67 C88.37414965986409 72.62585034013591 88.37414965986409 72.62585034013591 84.98828125 75.09375 C84.23957763671888 75.64256835937499 83.49087402343753 76.19138671874998 82.719482421875 76.7568359375 C81.92517822265631 77.33208007812505 81.13087402343763 77.90732421875009 80.3125 78.5 C79.4788793945313 79.10875976562511 78.64525878906261 79.71751953124999 77.786376953125 80.3447265625 C75.19457746160992 82.23491105927997 72.59795183899814 84.11828289249661 70 86 C69.60087402343743 86.28971679687493 69.60087402343743 86.28971679687493 67.5810546875 87.755859375 C57.75561216571896 94.88597173527364 47.88829224730671 101.95737384958693 38 109 C39.96456762415505 117.52271430508267 42.49688621439054 125.70476324129027 45.4375 133.9375 C48.15589323288532 141.59759290413376 50.73862817526833 149.2681615890283 53.095947265625 157.047607421875 C54.44123101497644 161.4409415782095 55.92179151312257 165.78278939336474 57.41796875 170.126953125 C59 174.7895234860248 59 174.7895234860248 59 177 C56.35601338256697 175.73424248926062 53.95132422538927 174.36324712866917 51.55859375 172.671875 C50.902219238281305 172.20894042968757 50.24584472656261 171.74600585937492 49.569580078125 171.26904296875 C48.86599365234383 170.76775878906255 48.162407226562436 170.2664746093751 47.4375 169.75 C46.69588623046866 169.22422363281248 45.954272460937545 168.69844726562496 45.190185546875 168.15673828125 C39.5207880615219 164.1214577660462 33.9087594837456 160.01089793274082 28.3125 155.875 C16.10376540535958 146.85519730039368 16.10376540535958 146.85519730039368 11.125 143.25 C10.572395019531314 142.84378417968742 10.0197900390624 142.43756835937506 9.450439453125 142.01904296875 C3.3784750633824387 137.6482877266708 3.3784750633824387 137.6482877266708 0 137 C-2.3669294847686615 138.24525205825194 -4.124358087591645 139.41778047023263 -6.1875 141.0625 C-7.435795066468245 142.0057417059561 -8.684513822485997 142.948422886064 -9.93359375 143.890625 C-10.593432617187545 144.39787109374993 -11.253271484375091 144.90511718750008 -11.93310546875 145.427734375 C-15.485224706843155 148.12979531207998 -19.123497087360192 150.71168263004938 -22.75 153.3125 C-24.27000200874022 154.41080712077974 -25.789527433051944 155.5097740892861 -27.30859375 156.609375 C-30.526732407011423 158.9367848980196 -33.74843053021732 161.25915537645847 -36.97265625 163.578125 C-37.783154296874955 164.16166748046862 -38.59365234374991 164.74520996093747 -39.4287109375 165.346435546875 C-40.976808750744794 166.46089473668417 -42.525597767104955 167.5743946314792 -44.0751953125 168.686767578125 C-47.08042962683794 170.8518991712881 -50.02295787836715 173.01885714772516 -52.88671875 175.37109375 C-55 177 -55 177 -57 177 C-54.97891967509008 169.3345578847743 -52.71633931392307 161.7764289380907 -50.27734375 154.234375 C-49.9311952209473 153.15673889160144 -49.585046691894604 152.0791027832031 -49.22840881347656 150.96881103515625 C-48.13371005726003 147.5618052848306 -47.035822703086296 144.15583903970037 -45.9375 140.75 C-44.8360627689367 137.3297348578842 -43.735335596681125 133.90924480386047 -42.63587951660156 130.48834228515625 C-41.95487381619159 128.3698962999506 -41.27267418075735 126.25183363044653 -40.58909606933594 124.13421630859375 C-38.97268328781274 119.11052607130023 -37.409879244320564 114.08568339311091 -36 109 C-36.801796875000036 108.42894531249999 -37.60359375000007 107.85789062499998 -38.4296875 107.26953125 C-52.58001216773778 97.1824226584838 -66.67976937750473 87.02947853709429 -80.631591796875 76.6689453125 C-83.89185049819093 74.25466965904525 -87.14571904746231 71.87289659923863 -90.546875 69.66015625 C-91.35640624999996 69.1123046875 -92.16593749999993 68.564453125 -93 68 C-93 67.67000000000007 -93 67.33999999999992 -93 67 C-69.24000000000001 67 -45.48000000000002 67 -21 67 C-20.339999999999918 63.700000000000045 -19.680000000000064 60.40000000000009 -19 57 C-18.45926664369722 55.079666477823366 -17.880835599648435 53.169006142634544 -17.244140625 51.2783203125 C-16.910394287109284 50.27738342285147 -16.576647949218795 49.27644653320317 -16.2327880859375 48.24517822265625 C-16.05515930175784 47.72261444091805 -16.05515930175784 47.72261444091805 -15.15625 45.078125 C-14.786490478515589 43.974506225585856 -14.416730957031177 42.87088745117194 -14.0357666015625 41.73382568359375 C-12.862846651487644 38.23728163278224 -11.68158854556873 34.743622972014464 -10.5 31.25 C-9.70647367029801 28.889510285063352 -8.913499688031152 26.528834811347906 -8.12109375 24.16796875 C-6.669427688530277 19.845520849231207 -5.214683060446077 15.524138944585047 -3.755859375 11.2041015625 C-2.4956183769284053 7.472129039624406 -1.24132009412142 3.7383200263834624 0 0 Z " fill="#F4CF17" transform="translate(1771,1771)"/>
<path d="M0 0 C0.6600000000000819 0 1.3199999999999363 0 2 0 C4.349996200002806 7.024419954883797 6.697538180558695 14.049656762069617 9.04345703125 21.075439453125 C9.840106065080136 23.460389363185186 10.637295846730922 25.845158722747783 11.43505859375 28.229736328125 C12.588373403152218 31.677411449848933 13.739675953982896 35.12575323935266 14.890625 38.57421875 C15.066229553222684 39.098451766967855 15.066229553222684 39.098451766967855 15.95489501953125 41.75138854980469 C17.765760752511824 47.18358352482301 19.53676750818613 52.62744539261848 21.2568359375 58.089111328125 C21.59100524902351 59.14874588012685 21.925174560546793 60.20838043212893 22.26947021484375 61.30012512207031 C23 64 23 64 23 67 C46.430000000000064 67 69.86000000000013 67 94 67 C88.37868480725615 72.62131519274385 88.37868480725615 72.62131519274385 85.2421875 74.83984375 C84.54383789062513 75.33830810546874 83.84548828125003 75.83677246093748 83.1259765625 76.350341796875 C82.38315429687509 76.87410400390627 81.64033203124995 77.39786621093754 80.875 77.9375 C79.2623798597615 79.08764348473028 77.65042258563244 80.23871683239258 76.0390625 81.390625 C75.209228515625 81.98294921875004 74.37939453125 82.57527343750007 73.5244140625 83.185546875 C69.40405561685179 86.14710431871936 65.32798856643899 89.16800912538747 61.25 92.1875 C53.55781806086861 97.87439771297272 45.80734619095551 103.47244984196641 38 109 C38.38671875 110.22074218750004 38.7734375 111.44148437500007 39.171875 112.69921875 C39.697943414885 114.3619707041903 40.223983536020796 116.02473161025773 40.75 117.6875 C41.00265624999997 118.48478515624993 41.255312499999945 119.28207031250008 41.515625 120.103515625 C42.98223762531575 124.74167805256116 44.424645373335125 129.38613492012564 45.84375 134.0390625 C47.44492734299638 139.25517018664027 49.105858350435255 144.4492574061096 50.796875 149.63671875 C51.037748413085865 150.3760313415528 51.27862182617196 151.11534393310558 51.52679443359375 151.87705993652344 C52.522617157651894 154.9309590200089 53.519579182429425 157.98447541931455 54.52001953125 161.036865234375 C55.26073393878801 163.2984785610281 55.99783017603863 165.5612446767757 56.734375 167.82421875 C56.96243835449218 168.51682296752938 57.19050170898436 169.20942718505876 57.42547607421875 169.9230194091797 C59 174.77298294730053 59 174.77298294730053 59 177 C56.22924751627647 175.68651189875936 53.780204076156906 174.22447036190533 51.3046875 172.41796875 C50.95144409179693 172.16140502929693 50.95144409179693 172.16140502929693 49.163818359375 170.863037109375 C48.40850830078125 170.31010986328147 47.6531982421875 169.75718261718748 46.875 169.1875 C45.248730305771005 168.00516378176235 43.62242729591458 166.82287338708147 41.99609375 165.640625 C41.16577636718739 165.03541015625 40.33545898437501 164.43019531250002 39.47998046875 163.806640625 C34.16197219519222 159.93252552120703 28.830128024290843 156.0779103211123 23.484375 152.2421875 C20.382640425421187 150.01324127586236 17.3173108772437 147.74223985369508 14.265625 145.4453125 C12.739699118780209 144.31755165207596 11.213661448438188 143.18994204214118 9.6875 142.0625 C8.98810302734364 141.52359130859372 8.288706054687509 140.98468261718745 7.568115234375 140.429443359375 C2.7424142836330248 136.903674096111 2.7424142836330248 136.903674096111 -0.46875 137.3203125 C-4.109164787307236 139.73601984342918 -7.675667241097926 142.21262985310318 -11.1875 144.8125 C-12.801963407740686 145.99365352147197 -14.41655024230522 147.17463835205126 -16.03125 148.35546875 C-16.854960937499982 148.96052246093745 -17.678671874999964 149.5655761718749 -18.52734375 150.18896484375 C-22.39769476569404 153.0237065335623 -26.293609774950028 155.82273244640692 -30.1875 158.625 C-34.59662741494003 161.80097665495623 -38.99570985968626 164.98830512622612 -43.359375 168.2265625 C-44.047492675781314 168.73622558593752 -44.7356103515624 169.24588867187504 -45.444580078125 169.77099609375 C-46.738675067881786 170.73138166865465 -48.03033111914374 171.6950656358331 -49.319091796875 172.66259765625 C-51.874944452619275 174.5587712896904 -53.957974273944046 175.9859914246481 -57 177 C-54.85098595027216 168.54092379798885 -52.158890838404204 160.29405221399952 -49.357147216796875 152.03509521484375 C-45.30967514133408 140.09361013938178 -41.381617402887514 128.15040019219282 -38 116 C-37.33599832901291 113.66589855706911 -36.66784517442352 111.3330058093195 -36 109 C-36.44577392578117 108.67950683593745 -36.891547851562564 108.35901367187489 -37.350830078125 108.02880859375 C-46.89363444498463 101.16342929737334 -56.40145217588315 94.2544148535012 -65.850341796875 87.26025390625 C-69.9338926314997 84.24225263784297 -74.03322821127313 81.24991585875841 -78.1640625 78.296875 C-78.58010742187503 77.99910156250007 -78.58010742187503 77.99910156250007 -80.685546875 76.4921875 C-82.28056664050541 75.3530701014165 -83.87812652967978 74.21749891843388 -85.478515625 73.0859375 C-86.18943359374998 72.57804687499993 -86.90035156249996 72.07015625000008 -87.6328125 71.546875 C-88.26074707031239 71.10182617187502 -88.88868164062501 70.65677734375004 -89.53564453125 70.1982421875 C-91 69 -91 69 -92 67 C-68.56999999999994 67 -45.1400000000001 67 -21 67 C-20.339999999999918 64.02999999999997 -19.680000000000064 61.059999999999945 -19 58 C-18.552071657500846 56.41432496614061 -18.080725538667366 54.83468457629533 -17.567138671875 53.26904296875 C-17.30313766479503 52.457245788574255 -17.039136657714835 51.64544860839851 -16.767135620117188 50.809051513671875 C-16.486910552978543 49.961986389160074 -16.2066854858399 49.1149212646485 -15.91796875 48.2421875 C-15.621912384033294 47.33606719970703 -15.32585601806636 46.42994689941406 -15.020828247070313 45.496368408203125 C-14.080351810087222 42.62126158032015 -13.1339968373577 39.74812975021996 -12.1875 36.875 C-11.564072482674874 34.971478789753974 -10.941022657335225 33.067833837121725 -10.318359375 31.1640625 C-6.913366201356212 20.764546045948464 -3.474013131193715 10.376660412186993 0 0 Z " fill="#F4CF17" transform="translate(1439,1879)"/>
<path d="M0 0 C0.6600000000000819 0 1.3199999999999363 0 2 0 C2.533224487308644 1.599673461925704 3.0664458975447815 3.19934794958408 3.5996551513671875 4.7990264892578125 C4.080655123929773 6.241984995872144 4.56170537212347 7.684926744248287 5.0428009033203125 9.127853393554688 C6.388090970969415 13.16297590159138 7.732466503437081 17.198399427555387 9.0751953125 21.234375 C11.631940204659713 28.916513377340834 14.196319139904745 36.595613369782086 16.80078125 44.26171875 C17.21722900390614 45.49301513671867 17.63367675781251 46.724311523437564 18.062744140625 47.992919921875 C18.839601879020847 50.28770943700101 19.621156366918285 52.58091564331448 20.407958984375 54.872314453125 C20.75286376953136 55.89413818359367 21.09776855468749 56.915961914062564 21.453125 57.96875 C21.603461914062564 58.4092871093751 21.603461914062564 58.4092871093751 22.3642578125 60.638671875 C23 63 23 63 23 67 C46.430000000000064 67 69.86000000000013 67 94 67 C88.37868480725638 72.62131519274385 88.37868480725638 72.62131519274385 85.2421875 74.83984375 C84.54383789062513 75.33830810546874 83.8454882812498 75.83677246093748 83.1259765625 76.350341796875 C82.38315429687509 76.87410400390627 81.64033203125018 77.39786621093754 80.875 77.9375 C79.2623798597615 79.08764348473028 77.65042258563244 80.23871683239258 76.0390625 81.390625 C75.209228515625 81.98294921875004 74.37939453125 82.57527343750007 73.5244140625 83.185546875 C69.40405561685179 86.14710431871936 65.32798856643899 89.16800912538747 61.25 92.1875 C53.55781806086861 97.87439771297272 45.80734619095551 103.47244984196641 38 109 C38.221396484374964 109.68924560546884 38.44279296874993 110.37849121093745 38.6708984375 111.088623046875 C39.69807345161098 114.28798996777755 40.7240404311176 117.48774311761667 41.75 120.6875 C42.09804687499991 121.77095703124996 42.446093750000045 122.85441406249993 42.8046875 123.970703125 C44.558128075194645 129.44208714204274 46.287763097502875 134.9187596964589 47.96484375 140.4140625 C49.3898586697635 145.0687132544267 50.872791223304375 149.70028299115393 52.39453125 154.32421875 C52.79220703124997 155.53658203124996 53.189882812499945 156.74894531249993 53.599609375 157.998046875 C54.21379949359198 159.86633211496815 54.82818415370275 161.7345644750137 55.449951171875 163.600341796875 C56.063255032529696 165.44355959911218 56.66657115868793 167.29009138632773 57.26953125 169.13671875 C57.62635986328132 170.2165502929688 57.98318847656242 171.2963818359376 58.350830078125 172.408935546875 C59 175 59 175 58 177 C35.42968749977945 160.6992187498406 35.42968749977945 160.6992187498406 33.20703125 159.093505859375 C31.733656076278066 158.02970942587035 30.25969570368443 156.96672304051776 28.78515625 155.904541015625 C24.8451378021457 153.06467439137805 20.918439803725732 150.20836195090078 17.0078125 147.328125 C16.19054687500011 146.72935546874987 15.373281249999991 146.13058593749997 14.53125 145.513671875 C12.962419652366634 144.36379054065515 11.397126293636575 143.20906314143122 9.8359375 142.048828125 C9.482734375000064 141.79069335937493 9.482734375000064 141.79069335937493 7.6953125 140.484375 C7.076723632812445 140.02772460937513 6.458134765624891 139.57107421875003 5.82080078125 139.1005859375 C3.809477777529537 137.88483853863 2.340860066993173 137.25376580372267 0 137 C-1.72900390625 137.78173828125 -1.72900390625 137.78173828125 -3.4765625 139.0703125 C-4.13777099609365 139.5478295898438 -4.798979492187527 140.02534667968757 -5.480224609375 140.517333984375 C-6.1880004882812045 141.0478637695312 -6.895776367187409 141.5783935546874 -7.625 142.125 C-8.372092285156214 142.6690649414063 -9.119184570312427 143.2131298828126 -9.888916015625 143.773681640625 C-11.47052836957414 144.92653869061542 -13.048329172756667 146.08464039114233 -14.62255859375 147.24755859375 C-17.63577359640044 149.46863656551272 -20.674388121477477 151.6532174422764 -23.7138671875 153.838134765625 C-29.15580236582582 157.7522890643968 -34.57902871791475 161.69214911012773 -39.99609375 165.640625 C-40.81279541015624 166.23431884765614 -41.62949707031248 166.8280126953125 -42.470947265625 167.439697265625 C-44.03706485000748 168.5783014889007 -45.60144693100051 169.71929789732872 -47.163818359375 170.863037109375 C-47.87030517578114 171.37616455078114 -48.57679199218751 171.8892919921875 -49.3046875 172.41796875 C-49.61398193359378 172.6436755371094 -49.61398193359378 172.6436755371094 -51.17919921875 173.785888671875 C-53.05522971458868 175.03682721515816 -54.964246392090445 176.03494153420252 -57 177 C-54.71839954230245 168.03507286394643 -51.872075073705446 159.27764847284857 -48.9862060546875 150.49447631835938 C-44.462232196345894 136.71944954374885 -40.03494855194913 122.92765136133335 -36 109 C-45.30022159993359 102.1205759541167 -54.61135780326913 95.25843861571275 -64 88.5 C-70.55851791629789 83.77297530708984 -77.10266358556987 79.0268535808832 -83.625 74.25 C-84.46160156249994 73.64091796875005 -85.2982031250001 73.03183593750009 -86.16015625 72.404296875 C-86.92457031250001 71.8429101562499 -87.68898437500002 71.28152343750003 -88.4765625 70.703125 C-89.15799316406242 70.20458007812499 -89.83942382812506 69.70603515624998 -90.54150390625 69.1923828125 C-91.02280761718748 68.79889648437506 -91.50411132812496 68.4054101562499 -92 68 C-92 67.67000000000007 -92 67.33999999999992 -92 67 C-68.56999999999994 67 -45.1400000000001 67 -21 67 C-20.339999999999918 64.02999999999997 -19.680000000000064 61.059999999999945 -19 58 C-18.377450355530755 55.87427059002994 -17.722319071766833 53.75770118435935 -17.02880859375 51.654052734375 C-16.64856536865227 50.49352890014643 -16.26832214355477 49.33300506591786 -15.876556396484375 48.13731384277344 C-15.471277160644604 46.91508621215826 -15.065997924804606 45.69285858154308 -14.6484375 44.43359375 C-14.224934677042484 43.14620638739348 -13.801815007661617 41.858692924645084 -13.379058837890625 40.57106018066406 C-12.274841567718795 37.211251126055004 -11.165488148811846 33.85316068293537 -10.05499267578125 30.49542236328125 C-8.918922433493208 27.057231863395828 -7.787805964669587 23.617412646040293 -6.65625 20.177734375 C-4.442298216698191 13.450236485385858 -2.222906855588917 6.724544806619633 0 0 Z " fill="#F7D117" transform="translate(1976,1512)"/>
<path d="M0 0 C0.6599999999999682 0 1.3199999999999363 0 2 0 C15.984583764584045 41.76473113473821 15.984583764584045 41.76473113473821 20.375 55.4375 C20.514581298828148 55.86748291015624 20.514581298828148 55.86748291015624 21.220947265625 58.04345703125 C22.20396288510608 61.13552925696172 23 63.73437008281053 23 67 C46.430000000000064 67 69.86000000000001 67 94 67 C90.25537223814399 70.74462776185601 87.13767631452833 73.4741695982134 82.875 76.4375 C81.62661019664483 77.31368966967602 80.37927178009477 78.1913786563955 79.1328125 79.0703125 C78.46668945312501 79.53985351562505 77.80056640625003 80.00939453125011 77.1142578125 80.4931640625 C73.29083699246848 83.2181240280006 69.5233368584004 86.01882020360085 65.75 88.8125 C56.551493544641176 95.61367792629017 47.28461797678278 102.31710294737786 38 109 C41.072296823157444 119.45464009363718 44.23714783676428 129.86920967727406 47.6484375 140.21875 C47.953965454101535 141.1464721679688 48.25949340820307 142.0741943359376 48.57427978515625 143.030029296875 C49.827971643596584 146.8298737557443 51.085097592691454 150.62854725429725 52.34814453125 154.42529296875 C53.286756830378636 157.25059645513375 54.21809303309715 160.0782151602143 55.1484375 162.90625 C55.29214279174812 163.33484313964846 55.29214279174812 163.33484313964846 56.019378662109375 165.5037841796875 C56.280303039550745 166.2998205566405 56.54122741699223 167.09585693359372 56.81005859375 167.916015625 C57.0406698608399 168.61069946289058 57.27128112792968 169.30538330078116 57.508880615234375 170.0211181640625 C58 172 58 172 58 176 C55.3385109095758 174.7275734847069 52.9276617329723 173.3439933764596 50.5234375 171.63671875 C50.19279296874993 171.40275390624993 50.19279296874993 171.40275390624993 48.51953125 170.21875 C48.16568359375003 169.96609375000003 48.16568359375003 169.96609375000003 46.375 168.6875 C45.62863281249997 168.15769531249998 44.882265624999945 167.62789062499996 44.11328125 167.08203125 C39.4721350397416 163.78131624904836 34.84966803897828 160.4550343964438 30.2353515625 157.116943359375 C28.74604413080465 156.03965162498025 27.255809803011402 154.96364011468677 25.7646484375 153.888916015625 C21.90295398129365 151.10538309441404 18.055566495770336 148.30492845685922 14.2265625 145.4765625 C12.692972122506717 144.35901291773666 11.159127073217292 143.2418127139224 9.625 142.125 C9.271152343750032 141.85977539062492 9.271152343750032 141.85977539062492 7.48046875 140.517578125 C6.819179687499968 140.03998046874995 6.157890624999936 139.5623828124999 5.4765625 139.0703125 C4.899868164062468 138.64508300781245 4.323173828124936 138.2198535156249 3.72900390625 137.78173828125 C2 137 2 137 0.0361328125 137.195068359375 C-2.309432394769601 138.12232597188904 -4.040690949197028 139.28875256619585 -6.0546875 140.80859375 C-6.8269165039062045 141.38552978515622 -7.599145507812523 141.96246582031245 -8.394775390625 142.556884765625 C-9.213249511718686 143.1774877929688 -10.031723632812486 143.7980908203126 -10.875 144.4375 C-12.59966103711588 145.72736431118824 -14.32492513112129 147.01642266265026 -16.05078125 148.3046875 C-16.897211914062495 148.93858398437487 -17.74364257812499 149.57248046874997 -18.61572265625 150.2255859375 C-21.73507815153721 152.54705590880326 -24.890002890340043 154.81444851922697 -28.0625 157.0625 C-31.96592799624807 159.83043827017536 -35.85460572094223 162.61631589916988 -39.72265625 165.43359375 C-40.53532958984374 166.0245483398437 -41.34800292968748 166.6155029296874 -42.185302734375 167.224365234375 C-43.778990679351864 168.3842664075778 -45.37102664720942 169.54644171494306 -46.961181640625 170.711181640625 C-47.32465698242186 170.97539916992196 -47.32465698242186 170.97539916992196 -49.1640625 172.3125 C-49.808110351562505 172.78300781250005 -50.45215820312501 173.2535156250001 -51.11572265625 173.73828125 C-53.01405349479455 175.0094102696421 -54.936409170737875 176.02458841246516 -57 177 C-55.05334205092845 168.55786093514894 -52.54624816988871 160.4639518729257 -49.625 152.3125 C-46.728671008608444 144.10516289240582 -43.97199770556335 135.90645024763626 -41.615234375 127.528076171875 C-40.219429067098304 122.59867299597136 -38.52640806694785 117.84755576812313 -36.6015625 113.1015625 C-36 111 -36 111 -37 108 C-39.42291471504245 106.13321335230603 -41.84548168910703 104.3986282982637 -44.375 102.6875 C-45.93873966199624 101.60726107019036 -47.50119361204111 100.52515909954423 -49.0625 99.44140625 C-49.87718749999999 98.87695800781239 -50.69187499999998 98.31250976562501 -51.53125 97.73095703125 C-55.52815180143648 94.92854071675379 -59.45279403199822 92.03064004704743 -63.375 89.125 C-63.76312866210935 88.8375390624999 -63.76312866210935 88.8375390624999 -65.727294921875 87.3828125 C-67.32145324058706 86.20188175081353 -68.91544562740432 85.02072697655922 -70.50927734375 83.83935546875 C-73.14152278303982 81.89548788008005 -75.78259686733213 79.96411947340334 -78.42578125 78.03515625 C-79.30637207031248 77.39110839843761 -80.18696289062495 76.74706054687499 -81.09423828125 76.08349609375 C-82.79788192441515 74.83792119892587 -84.50323629706577 73.59468215686434 -86.21044921875 72.35400390625 C-86.96986816406252 71.79761230468739 -87.72928710937504 71.24122070312501 -88.51171875 70.66796875 C-89.18678466796871 70.17578857421881 -89.86185058593753 69.6836083984374 -90.557373046875 69.176513671875 C-91.0334399414063 68.78826416015636 -91.50950683593749 68.40001464843749 -92 68 C-92 67.67000000000007 -92 67.33999999999992 -92 67 C-68.57000000000005 67 -45.139999999999986 67 -21 67 C-20.66999999999996 64.69000000000005 -20.340000000000032 62.38000000000011 -20 60 C-19.543096599945102 58.31566056122165 -19.038584163964288 56.64331096934643 -18.481201171875 54.989501953125 C-18.17385543823241 54.06776687622073 -17.866509704589816 53.14603179931646 -17.549850463867188 52.19636535644531 C-17.217579498291002 51.22019760131843 -16.885308532714816 50.244029846191324 -16.54296875 49.23828125 C-16.198733673095717 48.211235809326126 -15.854498596191434 47.18419036865225 -15.499832153320313 46.12602233886719 C-14.40136791554869 42.85291771063362 -13.294604670115064 39.58269090207568 -12.1875 36.3125 C-11.454521552580445 34.133650696963514 -10.72209426925508 31.954615896720497 -9.990234375 29.775390625 C-8.632570694510605 25.734920306881122 -7.271565647124817 21.695608976354606 -5.906982421875 17.657470703125 C-3.9213958964883204 11.777167061047294 -1.9587331422957277 5.88929510254593 0 0 Z " fill="#F7D117" transform="translate(902,1512)"/>
</svg>
