<?xml version="1.0" encoding="UTF-8"?>
<!-- Generator: visioncortex VTracer 0.6.12 -->
<svg version="1.1" xmlns="http://www.w3.org/2000/svg" width="960" height="640">
<path d="M0 0 C316.8 0 633.6 0 960 0 C960 211.20000000000002 960 422.40000000000003 960 640 C643.2 640 326.4 640 0 640 C0 428.79999999999995 0 217.59999999999997 0 0 Z " fill="#002B7F" transform="translate(0,0)"/>
<path d="M0 0 C316.8 0 633.6 0 960 0 C960 52.799999999999955 960 105.60000000000002 960 160 C643.2 160 326.4 160 0 160 C0 107.20000000000005 0 54.39999999999998 0 0 Z " fill="#002B7F" transform="translate(0,480)"/>
<path d="M0 0 C316.8 0 633.6 0 960 0 C960 26.399999999999977 960 52.80000000000001 960 80 C643.2 80 326.4 80 0 80 C0 53.60000000000002 0 27.19999999999999 0 0 Z " fill="#F9E814" transform="translate(0,400)"/>
<path d="M0 0 C2.1795668928567693 2.179566892856741 2.646362153210646 3.442830665380029 3.60400390625 6.326171875 C3.754084014892584 6.773335571289067 3.754084014892584 6.773335571289067 4.513580322265625 9.0362548828125 C4.672472381591803 9.520116577148428 4.672472381591803 9.520116577148428 5.4765625 11.96875 C5.806673278808603 12.959998779296882 6.136784057617206 13.951247558593764 6.476898193359375 14.9725341796875 C7.173963821257644 17.069777072351116 7.8681103697304025 19.16799208805344 8.5595703125 21.26708984375 C9.621368715713118 24.488981332143283 10.692724508648496 27.707571932134243 11.765625 30.92578125 C12.440670833166308 32.96074961125436 13.11516863349766 34.99589986676199 13.7890625 37.03125 C13.949978790283211 37.51511169433593 13.949978790283211 37.51511169433593 14.764312744140625 39.9637451171875 C15.058168640136728 40.858072509765634 15.35202453613283 41.75239990234374 15.65478515625 42.673828125 C15.785005645751937 43.06830139160155 15.785005645751937 43.06830139160155 16.444000244140625 45.0645751953125 C17 47 17 47 17 49 C33.5 49 50 49 67 49 C61.38088445078466 54.619115549215365 61.38088445078466 54.619115549215365 57.8828125 56.9453125 C57.11751220703127 57.46005126953125 56.35221191406248 57.9747900390625 55.563720703125 58.505126953125 C54.75894287109372 59.03968505859376 53.9541650390625 59.574243164062494 53.125 60.125 C44.586991582936605 65.87410773222251 36.249962212141526 71.84644074161639 28 78 C29.676228060192784 84.733974360383 31.723755810102602 91.31175962923129 33.953125 97.87890625 C34.219034423828134 98.66325042724611 34.48494384765627 99.44759460449217 34.7589111328125 100.25570678710938 C35.87171215195306 103.5298141218114 36.988596770148376 106.80246419510615 38.11328125 110.072509765625 C38.94146131037979 112.48496235589226 39.760426189764814 114.90038460307505 40.578125 117.31640625 C40.836360473632794 118.05903213500977 41.094595947265645 118.80165802001954 41.36065673828125 119.56678771972656 C41.96423109748946 121.35962916244057 42.48972597301784 123.17840650440507 43 125 C42.670000000000016 125.65999999999997 42.34 126.32 42 127 C32.30604369601906 120.18968892568427 22.647432049985127 113.33572845688741 13.06689453125 106.366455078125 C9.09898321590697 103.48666539486862 5.101261584226847 100.68681073864309 1 98 C-1.9085186576409114 99.37761207515683 -4.500466436807301 100.95197935221051 -7.1328125 102.80078125 C-7.931064453125003 103.3600732421875 -8.729316406250007 103.919365234375 -9.5517578125 104.49560546875 C-10.400927734374989 105.0951806640625 -11.250097656250006 105.694755859375 -12.125 106.3125 C-12.999951171875011 106.9275439453125 -13.874902343749994 107.54258789062499 -14.7763671875 108.17626953125 C-23.572839115794125 114.37428705857553 -32.296620104044024 120.67218031719142 -41 127 C-42.141150600885226 123.57654819734432 -41.85754208502843 122.83588863103427 -40.736572265625 119.528564453125 C-40.43618545532226 118.62785720825195 -40.13579864501952 117.7271499633789 -39.82630920410156 116.79914855957031 C-39.493041229248036 115.83031234741213 -39.15977325439454 114.8614761352539 -38.81640625 113.86328125 C-38.48205062866211 112.86870407104493 -38.14769500732422 111.87412689208986 -37.80320739746094 110.84941101074219 C-36.731369168857555 107.66753229783978 -35.64710118432137 104.4900481524304 -34.5625 101.3125 C-33.83446505057913 99.15848057732995 -33.107241070339796 97.00418687267637 -32.380859375 94.849609375 C-30.59664419925315 89.56318535562866 -28.802200701739082 84.2803177627263 -27 79 C-29.516714953380927 76.37788026007513 -31.998319479581824 74.16923094374329 -35.01953125 72.15234375 C-35.78789306640624 71.63454345703127 -36.55625488281251 71.11674316406248 -37.347900390625 70.583251953125 C-38.161218261718744 70.04015380859374 -38.97453613281249 69.49705566406249 -39.8125 68.9375 C-46.138957259824565 64.6628338060602 -52.40857572517808 60.332706628361336 -58.5625 55.8125 C-58.874654541015616 55.58397338867189 -58.874654541015616 55.58397338867189 -60.454345703125 54.427490234375 C-62.77272807132036 52.715178309587 -64.95891806134395 51.04108193865605 -67 49 C-50.16999999999999 49 -33.34 49 -16 49 C-15.340000000000003 46.03 -14.680000000000007 43.06 -14 40 C-13.562473311761323 38.4622999934177 -13.101450617533402 36.93061232784544 -12.595458984375 35.4140625 C-12.338567962646493 34.637160644531264 -12.081676940917959 33.8602587890625 -11.817001342773438 33.059814453125 C-11.546101837158204 32.25632568359376 -11.275202331542971 31.452836914062516 -10.99609375 30.625 C-10.712746734619145 29.774460449218736 -10.42939971923829 28.9239208984375 -10.137466430664063 28.047607421875 C-9.543759062617397 26.268807644213865 -8.947862832160695 24.490737042703273 -8.349853515625 22.71337890625 C-7.431241275003401 19.981386280542637 -6.5208097254167114 17.246762853376197 -5.611328125 14.51171875 C-5.031727462017329 12.778486094798438 -4.451666175080902 11.045407390723085 -3.87109375 9.3125 C-3.734631881713881 8.902658691406259 -3.734631881713881 8.902658691406259 -3.0440521240234375 6.82861328125 C-1.1155482330567565 1.1155482330567281 -1.1155482330567565 1.1155482330567281 0 0 Z " fill="#FBFCFD" transform="translate(213,143)"/>
<path d="M0 0 C2.771197118770914 1.385598559385457 2.9527501548635655 3.2550271277218883 3.903717041015625 6.067718505859375 C4.134006042480479 6.774980773925783 4.3642950439453045 7.4822430419921915 4.6015625 8.2109375 C4.842889099121095 8.934877014160158 5.08421569824219 9.658816528320315 5.332855224609375 10.404693603515625 C5.842345677454489 11.938533018043998 6.348155535888992 13.473599109729577 6.8505859375 15.009765625 C7.6204768780525285 17.361185370294123 8.403006112547757 19.70810465323646 9.1875 22.0546875 C9.680445713140614 23.5440200907926 10.172657620402404 25.03359580156075 10.6640625 26.5234375 C10.781231231689446 26.875044403076174 10.781231231689446 26.875044403076174 11.374176025390625 28.654388427734375 C12.319351736276417 31.560268300920313 13 33.92261427654191 13 37 C25.54000000000002 37 38.079999999999984 37 51 37 C47.90193395196491 40.09806604803512 45.225932468130225 42.38915056894814 41.68359375 44.85546875 C40.67232421875002 45.559941406250005 39.661054687499984 46.26441406250001 38.619140625 46.990234375 C37.569199218749986 47.71533203125 36.5192578125 48.4404296875 35.4375 49.1875 C34.383691406249994 49.924199218750005 33.32988281249999 50.66089843750001 32.244140625 51.419921875 C24.385003136068462 56.87166562131051 24.385003136068462 56.87166562131051 21 58 C24.95999999999998 70.21000000000001 28.920000000000016 82.42000000000002 33 95 C30.124931064614316 93.56246553230716 27.813642587351467 92.26012989190144 25.2421875 90.42578125 C24.538681640624986 89.9257861328125 23.83517578125 89.42579101562501 23.1103515625 88.91064453125 C22.372685546875005 88.38325683593752 21.635019531249995 87.855869140625 20.875 87.3125 C20.116708984374995 86.7773779296875 19.358417968750004 86.242255859375 18.5771484375 85.69091796875 C15.289494251675222 83.36795104402404 12.034883884002681 81.02665817802182 8.8359375 78.58203125 C7.982578125000003 77.9362109375 7.129218750000007 77.29039062499999 6.25 76.625 C5.891640625000008 76.34269531249998 5.891640625000008 76.34269531249998 4.078125 74.9140625 C2 74 2 74 -0.334716796875 74.745849609375 C-3.022933844168989 76.01079153224293 -5.300075630929115 77.43625605457657 -7.72265625 79.15234375 C-8.156748046874995 79.45817382812498 -8.156748046874995 79.45817382812498 -10.353515625 81.005859375 C-11.247480468749998 81.64330078124999 -12.141445312499997 82.28074218749998 -13.0625 82.9375 C-13.960332031250005 83.57107421875 -14.858164062500009 84.2046484375 -15.783203125 84.857421875 C-22.512618970289054 89.61554415668763 -22.512618970289054 89.61554415668763 -25.161865234375 91.705322265625 C-27 93 -27 93 -29 93 C-27.60163295394122 84.79055413007686 -25.147648874935314 77.22439797588629 -22.302734375 69.416015625 C-21.992714843750008 68.52978515625 -21.6826953125 67.6435546875 -21.36328125 66.73046875 C-21.077512207031248 65.94051513671874 -20.791743164062495 65.1505615234375 -20.497314453125 64.336669921875 C-19.88827285871487 61.47504149767306 -20.039679479554877 59.764507930560825 -21 57 C-22.730712890625 55.334228515625 -22.730712890625 55.334228515625 -24.97265625 53.87890625 C-25.790566406250008 53.335566406249995 -26.6084765625 52.79222656249999 -27.451171875 52.232421875 C-28.31291015625 51.68134765625 -29.174648437499997 51.130273437499994 -30.0625 50.5625 C-31.742040757833024 49.461395673050006 -33.420437235382295 48.358543870695215 -35.09765625 47.25390625 C-35.50636962890624 46.98586181640624 -35.50636962890624 46.98586181640624 -37.57470703125 45.62939453125 C-41.145558605013974 43.23037465976813 -44.70696333831841 40.77299287303185 -48 38 C-48 37.67 -48 37.34 -48 37 C-35.78999999999999 37 -23.58 37 -11 37 C-10.340000000000003 33.7 -9.680000000000007 30.400000000000006 -9 27 C-8.327066910031022 24.691062680175975 -7.609717586332437 22.39431175406405 -6.8359375 20.1171875 C-6.436328125000003 18.931250000000006 -6.036718750000006 17.745312499999997 -5.625 16.5234375 C-5.418750000000003 15.921445312499998 -5.418750000000003 15.921445312499998 -4.375 12.875 C-3.954765624999993 11.632343750000004 -3.5345312500000006 10.389687500000008 -3.1015625 9.109375 C-2.073191677136805 6.071006659722393 -1.03923422902065 3.034666147558127 0 0 Z " fill="#FAFBFC" transform="translate(106,54)"/>
</svg>
