<?xml version="1.0" encoding="UTF-8"?>
<!-- Generator: visioncortex VTracer 0.6.12 -->
<svg version="1.1" xmlns="http://www.w3.org/2000/svg" width="960" height="576">
<path d="M0 0 C316.8 0 633.6 0 960 0 C960 190.08 960 380.16 960 576 C643.2 576 326.4 576 0 576 C0 385.91999999999996 0 195.83999999999997 0 0 Z " fill="#C8112F" transform="translate(0,0)"/>
<path d="M0 0 C139.26 0 278.52 0 422 0 C422 75.89999999999998 422 151.8 422 230 C282.74 230 143.48000000000002 230 0 230 C0 154.10000000000002 0 78.19999999999999 0 0 Z " fill="#FFFFFF" transform="translate(538,346)"/>
<path d="M0 0 C139.26000000000002 0 278.52000000000004 0 422 0 C422 75.89999999999998 422 151.8 422 230 C282.74 230 143.47999999999996 230 0 230 C0 154.10000000000002 0 78.19999999999999 0 0 Z " fill="#FFFFFF" transform="translate(0,346)"/>
<path d="M0 0 C139.26 0 278.52 0 422 0 C422 75.9 422 151.8 422 230 C282.74 230 143.48000000000002 230 0 230 C0 154.1 0 78.19999999999999 0 0 Z " fill="#FFFFFF" transform="translate(538,0)"/>
<path d="M0 0 C139.26000000000002 0 278.52000000000004 0 422 0 C422 75.9 422 151.8 422 230 C282.74 230 143.47999999999996 230 0 230 C0 154.1 0 78.19999999999999 0 0 Z " fill="#FFFFFF" transform="translate(0,0)"/>
</svg>
