<?xml version="1.0" standalone="no"?>
<!DOCTYPE svg PUBLIC "-//W3C//DTD SVG 20010904//EN"
 "http://www.w3.org/TR/2001/REC-SVG-20010904/DTD/svg10.dtd">
<svg version="1.0" xmlns="http://www.w3.org/2000/svg"
 width="256.000000pt" height="197.000000pt" viewBox="0 0 256.000000 197.000000"
 preserveAspectRatio="xMidYMid meet">

<g transform="translate(0.000000,197.000000) scale(0.100000,-0.100000)"
fill="#000000" stroke="none">
<path d="M1015 1790 c-3 -6 1 -7 9 -4 18 7 21 14 7 14 -6 0 -13 -4 -16 -10z"/>
<path d="M753 1765 c0 -8 4 -12 9 -9 5 3 6 10 3 15 -9 13 -12 11 -12 -6z"/>
<path d="M1080 1770 c0 -5 5 -10 10 -10 6 0 10 5 10 10 0 6 -4 10 -10 10 -5 0
-10 -4 -10 -10z"/>
<path d="M670 1757 c-86 -40 -182 -132 -173 -166 5 -19 6 -19 30 -4 13 9 48
24 76 34 29 10 42 18 31 18 -12 1 -28 9 -35 19 -11 14 -11 15 1 5 8 -7 21 -13
30 -13 13 0 13 1 0 10 -13 9 -8 14 12 12 3 -1 9 5 12 14 3 8 2 12 -4 9 -6 -3
-10 -2 -10 3 0 6 7 12 15 16 9 3 15 0 15 -9 0 -19 17 -28 26 -14 4 8 3 9 -4 5
-7 -4 -12 -1 -12 9 0 11 5 15 16 11 9 -3 12 -2 9 5 -4 6 -13 8 -21 5 -7 -3
-16 -1 -19 4 -4 6 -1 10 5 10 6 0 18 7 26 15 18 18 9 18 -26 2z"/>
<path d="M1510 1758 c0 -6 3 -8 6 -5 4 3 16 2 28 -4 20 -10 20 -10 2 5 -24 19
-36 20 -36 4z"/>
<path d="M1480 1750 c-9 -6 -10 -10 -3 -10 6 0 15 5 18 10 8 12 4 12 -15 0z"/>
<path d="M1939 1693 c17 -21 31 -43 31 -49 0 -6 17 -14 38 -18 21 -3 59 -17
85 -31 l47 -24 0 22 c0 26 -104 135 -114 119 -3 -5 1 -13 10 -16 8 -3 12 -10
9 -16 -4 -6 1 -7 12 -4 16 6 16 5 -1 -8 -12 -10 -16 -20 -11 -28 6 -10 4 -11
-11 -6 -10 5 -26 9 -34 9 -19 0 -41 28 -35 45 3 7 0 10 -5 7 -6 -3 -13 0 -16
9 -3 8 -12 17 -20 20 -9 3 -2 -11 15 -31z m151 -45 c10 -21 10 -21 -3 -6 -8
10 -18 14 -22 10 -5 -4 -5 -1 -1 6 10 17 14 15 26 -10z m31 -45 c13 -16 12
-17 -3 -4 -10 7 -18 15 -18 17 0 8 8 3 21 -13z"/>
<path d="M1382 1681 c-38 -35 -42 -43 -32 -60 13 -25 10 -25 61 -4 41 16 41
16 18 29 -15 8 -18 13 -9 14 10 0 15 11 16 30 1 17 -2 30 -5 30 -3 0 -25 -18
-49 -39z"/>
<path d="M2016 1682 c-3 -6 -1 -14 5 -17 14 -9 20 -2 10 14 -6 8 -11 9 -15 3z"/>
<path d="M1273 1637 c0 -8 6 -14 14 -14 15 0 12 19 -3 24 -6 2 -11 -3 -11 -10z"/>
<path d="M1300 1601 c0 -5 5 -13 10 -16 6 -3 10 -2 10 4 0 5 -4 13 -10 16 -5
3 -10 2 -10 -4z"/>
<path d="M568 1571 c-62 -14 -117 -97 -125 -192 -5 -49 -2 -64 20 -101 14 -24
36 -52 49 -64 22 -20 26 -20 71 -7 26 8 47 20 47 28 0 23 -30 45 -63 46 -18 1
-25 3 -15 6 22 6 30 30 12 37 -8 3 -12 2 -9 -3 9 -16 -9 -20 -23 -5 -7 8 -9
14 -4 14 13 0 11 33 -3 45 -25 21 -23 43 5 74 23 25 37 31 69 31 22 0 43 5 46
10 4 6 1 9 -6 8 -6 -2 -14 3 -17 11 -2 8 0 11 6 7 6 -3 13 -2 17 4 9 14 -10
12 -52 -5 -41 -17 -44 -16 -47 19 -4 28 3 33 22 14 10 -9 16 -9 28 4 19 19 8
26 -28 19z"/>
<path d="M1399 1571 c10 -7 10 -10 1 -13 -10 -3 -10 -7 1 -18 8 -8 14 -21 15
-27 2 -30 5 -34 16 -27 6 4 8 3 5 -3 -12 -19 4 -73 22 -73 10 0 12 -3 5 -8 -6
-4 -10 -42 -10 -93 1 -82 2 -86 21 -79 20 7 29 34 38 108 3 24 1 40 -4 36 -5
-3 -9 4 -9 15 0 12 -4 21 -10 21 -5 0 -10 6 -10 13 0 6 -10 32 -22 57 -12 25
-20 49 -19 53 1 5 -3 6 -9 2 -5 -3 -10 -2 -10 4 0 5 5 13 10 16 16 10 1 25
-23 25 -16 0 -18 -3 -8 -9z m84 -196 c-3 -9 -8 -14 -10 -11 -3 3 -2 9 2 15 9
16 15 13 8 -4z"/>
<path d="M2160 1565 c0 -9 12 -38 26 -66 14 -28 28 -73 31 -100 6 -50 32 -103
33 -67 0 37 -24 126 -51 186 -28 62 -39 75 -39 47z"/>
<path d="M436 1515 c-38 -81 -59 -185 -37 -185 5 0 14 28 20 62 6 34 22 85 36
114 27 56 29 64 16 64 -5 0 -20 -25 -35 -55z"/>
<path d="M2055 1528 c-12 -76 -28 -117 -47 -123 -16 -6 -22 -17 -19 -37 2 -13
-9 -9 -40 13 -19 13 -27 16 -23 6 5 -14 53 -42 66 -39 5 1 7 -1 7 -5 -4 -24 3
-41 19 -47 35 -14 62 -31 67 -44 3 -10 0 -10 -16 -2 -25 14 -60 4 -53 -15 3
-7 24 -21 46 -30 41 -16 41 -16 69 11 46 44 72 110 65 165 -4 27 -13 63 -21
82 -18 44 -64 99 -76 91 -5 -3 -9 0 -9 5 0 6 -6 11 -14 11 -9 0 -17 -16 -21
-42z m0 -289 c11 -16 1 -19 -13 -3 -7 8 -8 14 -3 14 5 0 13 -5 16 -11z"/>
<path d="M1286 1521 c-20 -22 -15 -51 8 -51 24 0 38 34 23 54 -12 16 -14 16
-31 -3z"/>
<path d="M1355 1523 c25 -57 44 -122 45 -149 0 -17 7 -37 15 -44 18 -15 18
-18 4 56 -12 68 -47 154 -61 154 -6 0 -7 -8 -3 -17z"/>
<path d="M1226 1491 c-4 -5 -2 -12 3 -16 6 -3 7 -13 4 -22 -4 -10 -2 -14 4
-10 13 8 11 -68 -2 -80 -4 -5 -5 3 -2 15 5 22 4 23 -12 8 -10 -9 -23 -16 -31
-16 -9 0 -11 -9 -6 -30 5 -30 0 -35 -32 -31 -18 3 -26 -27 -12 -44 10 -12 10
-15 -1 -15 -11 0 -11 -2 1 -9 8 -6 18 -7 23 -4 5 3 12 1 16 -4 3 -5 28 -17 54
-26 l48 -16 31 31 c51 52 66 98 56 169 -10 73 -15 84 -34 68 -8 -6 -14 -8 -14
-3 0 5 -5 1 -11 -8 -12 -22 -31 -24 -23 -3 4 9 0 15 -9 15 -9 0 -22 9 -30 21
-9 12 -18 16 -21 10z m29 -161 c3 -5 1 -10 -4 -10 -6 0 -11 5 -11 10 0 6 2 10
4 10 3 0 8 -4 11 -10z m10 -30 c3 -5 1 -10 -4 -10 -6 0 -11 5 -11 10 0 6 2 10
4 10 3 0 8 -4 11 -10z m-95 -41 c0 -13 -17 -19 -17 -6 0 7 -4 21 -8 32 -7 20
-6 20 9 1 9 -11 16 -23 16 -27z m58 6 c-2 -16 -8 -25 -19 -25 -36 0 -24 32 18
49 2 1 2 -10 1 -24z m26 -30 c-4 -8 -8 -15 -10 -15 -2 0 -4 7 -4 15 0 8 4 15
10 15 5 0 7 -7 4 -15z m31 -15 c3 -5 1 -10 -4 -10 -6 0 -11 5 -11 10 0 6 2 10
4 10 3 0 8 -4 11 -10z"/>
<path d="M670 1440 c0 -5 5 -10 11 -10 5 0 7 5 4 10 -3 6 -8 10 -11 10 -2 0
-4 -4 -4 -10z"/>
<path d="M1550 1318 c-6 -29 -13 -61 -15 -70 -4 -23 79 -99 144 -132 l51 -26
48 24 c26 13 56 31 66 39 19 14 19 14 0 28 -28 21 -54 73 -55 111 l0 33 -16
-37 c-14 -35 -19 -38 -54 -38 -21 0 -39 4 -39 8 0 11 -70 33 -82 26 -4 -3 -8
3 -8 13 0 14 -2 15 -9 4 -13 -21 -24 4 -16 39 4 17 4 30 2 30 -3 0 -10 -24
-17 -52z"/>
<path d="M1797 1340 c3 -11 7 -20 9 -20 2 0 4 9 4 20 0 11 -4 20 -9 20 -5 0
-7 -9 -4 -20z"/>
<path d="M803 1320 c1 -11 5 -20 9 -20 4 0 8 -13 8 -29 0 -21 6 -30 23 -35 21
-6 20 -7 -10 -21 -58 -25 -64 -37 -34 -63 14 -12 45 -32 68 -43 l42 -21 52 28
c28 16 71 46 96 68 45 39 45 40 39 90 -3 27 -10 54 -16 60 -6 6 -6 -2 0 -25 6
-18 10 -35 10 -36 0 -1 -6 0 -14 3 -20 8 -30 -14 -16 -31 7 -8 11 -15 9 -16
-39 -8 -59 -8 -59 2 0 6 7 9 15 6 21 -9 25 5 8 28 -12 15 -14 16 -10 3 7 -21
-24 -34 -34 -15 -5 8 -17 25 -28 38 l-21 24 20 -42 c24 -50 26 -66 6 -37 -12
16 -25 20 -55 19 -22 -1 -38 2 -35 7 3 5 -5 6 -19 3 -22 -6 -25 -3 -31 29 -7
38 -26 59 -23 26z"/>
<path d="M403 1303 c-16 -6 -16 -71 -2 -133 22 -95 91 -202 115 -178 2 2 -1
32 -7 67 -5 35 -7 71 -4 82 4 12 -4 32 -24 56 -17 21 -37 55 -46 76 -8 20 -16
37 -18 36 -1 0 -8 -3 -14 -6z"/>
<path d="M1390 1297 c0 -8 -17 -41 -38 -73 -35 -54 -39 -68 -45 -146 -7 -84
-7 -86 14 -81 49 13 131 259 99 298 -15 19 -30 19 -30 2z"/>
<path d="M2206 1286 c-3 -13 -21 -45 -39 -72 -30 -44 -34 -58 -39 -136 -6 -93
1 -107 35 -70 52 57 105 253 77 286 -18 22 -27 20 -34 -8z"/>
<path d="M1970 1240 c0 -5 5 -10 11 -10 5 0 7 5 4 10 -3 6 -8 10 -11 10 -2 0
-4 -4 -4 -10z"/>
<path d="M1083 1168 c-21 -22 -66 -55 -100 -75 l-63 -35 0 -78 0 -78 48 -19
c26 -10 70 -18 99 -18 43 0 60 6 109 40 72 50 95 88 101 168 6 78 -2 89 -89
114 l-67 20 -38 -39z"/>
<path d="M1473 1197 c-24 -7 -33 -16 -37 -41 -3 -17 -19 -59 -36 -94 -34 -72
-32 -80 27 -132 81 -71 160 -85 247 -43 l36 17 0 81 0 81 -43 21 c-24 12 -70
43 -103 70 -54 45 -62 48 -91 40z"/>
<path d="M599 1179 c-54 -19 -57 -22 -63 -59 -15 -97 35 -184 138 -237 55 -28
100 -27 175 3 l41 16 0 84 c0 61 -3 84 -13 84 -15 0 -114 65 -156 103 -36 32
-47 32 -122 6z m83 -1 c-9 -9 -15 -9 -24 0 -9 9 -7 12 12 12 19 0 21 -3 12
-12z m72 -43 c11 -8 16 -15 10 -15 -5 0 -18 7 -28 15 -11 8 -16 15 -10 15 5 0
18 -7 28 -15z"/>
<path d="M1948 1192 c16 -11 8 -34 -19 -50 -30 -19 -38 -4 -10 19 13 10 19 19
14 19 -6 0 -18 -9 -28 -20 -14 -15 -15 -23 -6 -34 9 -11 9 -16 0 -22 -8 -4 -9
-3 -5 4 12 20 -45 8 -100 -20 -41 -22 -51 -31 -49 -50 1 -13 3 -49 4 -80 1
-57 2 -58 38 -73 93 -39 166 -25 247 45 53 47 66 78 66 159 l0 70 -47 14 c-34
10 -54 12 -67 5 -16 -9 -18 -7 -13 6 5 12 1 16 -16 16 -15 0 -18 -3 -9 -8z"/>
<path d="M538 927 c39 -39 123 -97 165 -113 11 -4 17 -1 17 8 0 8 -23 25 -52
38 -29 13 -71 43 -94 67 -23 24 -50 43 -60 43 -14 0 -8 -11 24 -43z"/>
<path d="M1245 930 c-22 -23 -63 -52 -92 -66 -28 -14 -54 -32 -57 -40 -8 -20
-1 -18 64 17 60 32 165 129 139 129 -8 0 -33 -18 -54 -40z"/>
<path d="M1340 955 c0 -19 101 -98 159 -126 75 -35 63 -5 -14 34 -27 14 -68
44 -90 66 -42 44 -55 50 -55 26z"/>
<path d="M2061 926 c-24 -25 -65 -54 -91 -65 -50 -22 -81 -59 -37 -45 50 16
197 124 197 145 0 21 -29 6 -69 -35z"/>
<path d="M850 855 c-19 -7 -52 -14 -72 -14 -41 -1 -45 -7 -25 -34 27 -37 261
-41 304 -6 23 20 15 39 -15 39 -16 0 -51 7 -78 15 -58 18 -68 18 -114 0z"/>
<path d="M1675 855 c-22 -8 -56 -14 -77 -14 -31 -1 -35 -4 -31 -20 6 -24 22
-31 101 -41 82 -11 203 4 220 27 19 26 15 33 -21 33 -19 0 -56 7 -83 15 -57
17 -56 17 -109 0z"/>
<path d="M540 405 l0 -275 85 0 85 0 0 100 0 100 63 0 62 0 17 43 c34 85 40
77 -56 77 l-86 0 0 55 0 55 104 0 103 0 22 56 c11 31 21 58 21 60 0 2 -94 4
-210 4 l-210 0 0 -275z"/>
<path d="M1020 405 l0 -275 85 0 85 0 0 275 0 275 -85 0 -85 0 0 -275z"/>
<path d="M1310 405 l0 -275 85 0 85 0 0 100 0 99 62 3 62 3 22 55 22 55 -84 3
-84 3 0 54 0 55 104 0 104 0 15 43 c8 23 18 50 22 60 7 16 -7 17 -204 17
l-211 0 0 -275z"/>
<path d="M1836 671 c-6 -9 -196 -532 -196 -538 0 -2 36 -3 79 -3 l79 0 12 35
12 35 98 0 98 0 12 -35 12 -35 83 0 83 0 -33 93 c-18 50 -62 173 -98 272 l-64
180 -86 3 c-48 2 -88 -1 -91 -7z m117 -233 c14 -51 29 -101 32 -110 6 -16 0
-18 -63 -18 l-69 0 31 110 c17 60 34 110 37 110 3 0 17 -42 32 -92z"/>
</g>
</svg>
