<?xml version="1.0" encoding="UTF-8"?>
<!-- Generator: visioncortex VTracer 0.6.12 -->
<svg version="1.1" xmlns="http://www.w3.org/2000/svg" width="1280" height="854">
<path d="M0 0 C422.40000000000003 0 844.8000000000001 0 1280 0 C1280 281.82 1280 563.64 1280 854 C857.5999999999999 854 435.19999999999993 854 0 854 C0 572.1800000000001 0 290.36 0 0 Z " fill="#FBD015" transform="translate(0,0)"/>
<path d="M0 0 C422.40000000000003 0 844.8000000000001 0 1280 0 C1280 94.04999999999995 1280 188.10000000000002 1280 285 C857.5999999999999 285 435.19999999999993 285 0 285 C0 190.95000000000005 0 96.89999999999998 0 0 Z " fill="#006B3F" transform="translate(0,569)"/>
<path d="M0 0 C422.40000000000003 0 844.8000000000001 0 1280 0 C1280 93.72 1280 187.44 1280 284 C857.5999999999999 284 435.19999999999993 284 0 284 C0 190.28 0 96.56 0 0 Z " fill="#CE1126" transform="translate(0,0)"/>
<path d="M0 0 C422.40000000000003 0 844.8000000000001 0 1280 0 C1280 0.3299999999999841 1280 0.660000000000025 1280 1 C1174.2350000000001 1.1650000000000205 1174.2350000000001 1.1650000000000205 639 2 C638.34 4.970000000000027 637.68 7.939999999999998 637 11 C636.3397039595402 13.237561122217699 635.6448616896968 15.465284207828518 634.912109375 17.68017578125 C634.5040808105468 18.920827941894515 634.0960522460938 20.161480102539088 633.6756591796875 21.439727783203125 C633.2317426046726 22.77494036121027 632.78777128945 24.110134740839612 632.34375 25.4453125 C631.8769104801927 26.860206554897673 631.410489169907 28.275238656130057 630.9444580078125 29.690399169921875 C629.715800040205 33.41808122597149 628.4821419782542 37.14408822714995 627.2471923828125 40.86968994140625 C625.2993152383289 46.74912209022318 623.3596922022249 52.63128421467809 621.4188995361328 58.513057708740234 C620.7592179846489 60.51029266684259 620.097793362711 62.506941309337606 619.4359130859375 64.50344848632813 C614.5393000522098 79.3092719827082 609.7880806967324 94.15694984012936 605 109 C586.355 109.16499999999996 586.355 109.16499999999996 492 110 C497.61 113.95999999999998 503.22 117.92000000000002 509 122 C511.9637805516554 124.11832809634961 514.9246075513754 126.23840687271115 517.875 128.375 C518.60783203125 128.90480468750002 519.3406640625 129.43460937500004 520.095703125 129.98046875 C526.3886231661556 134.53869921238078 532.6418639335275 139.15001217586388 538.891845703125 143.766845703125 C544.2605227884202 147.72893049097308 549.6512069172974 151.65883673438282 555.0625 155.5625 C555.7888061523438 156.08690673828124 556.5151123046875 156.6113134765625 557.263427734375 157.151611328125 C561.1988587141434 159.99001859406007 565.1425914573546 162.81633795461653 569.09375 165.6328125 C569.9251147460938 166.22763427734378 570.7564794921875 166.8224560546875 571.613037109375 167.435302734375 C573.2154828688398 168.5815952905076 574.8203732303132 169.72448005223447 576.427978515625 170.863525390625 C576.7859753417969 171.12000854492186 576.7859753417969 171.12000854492186 578.59765625 172.41796875 C579.2319555664062 172.86938232421875 579.8662548828125 173.3207958984375 580.519775390625 173.785888671875 C581.9999999999999 174.99999999999994 581.9999999999999 174.99999999999994 583 177 C582.4551849365237 179.26022338867108 582.4551849365237 179.26022338867108 581.499755859375 182.12841796875 C581.3218702697754 182.6687038421631 581.3218702697754 182.6687038421631 580.4216613769531 185.4028778076172 C580.0234115600585 186.58735000610352 579.6251617431641 187.77182220458985 579.21484375 188.9921875 C578.5896711189678 190.88263822905571 577.9645022867198 192.77309021969734 577.3394966125488 194.66359615325928 C576.6707687880323 196.68179362897013 575.9984629883395 198.6987669175138 575.3251037597656 200.71542358398438 C573.2390896602027 206.96365734498244 571.1743534403907 213.21893029878953 569.1081523895264 219.4737377166748 C568.4118890272412 221.58079619533555 567.7147532097763 223.68756477091347 567.0175933837891 225.79432678222656 C562.2390575397005 240.24741185742448 557.6284789909686 254.7526537571474 553.052490234375 269.27099609375 C552.9169020080567 269.7003218841553 552.9169020080567 269.7003218841553 552.2307434082031 271.8729705810547 C551.7311685448599 273.45570642931284 551.2331512734042 275.03893514966217 550.7370300292969 276.6227569580078 C549.1113937762195 281.77721244756094 549.1113937762195 281.77721244756094 548 284 C548.4510107421875 283.67427001953126 548.902021484375 283.3485400390625 549.36669921875 283.012939453125 C550.73916570273 282.02171365913944 552.1116441049671 281.0305043672597 553.484130859375 280.039306640625 C555.1022176796719 278.87064248459933 556.720216472385 277.7018564409541 558.338134765625 276.532958984375 C562.4018139359025 273.5973179837745 566.4665231363693 270.6631471556261 570.53515625 267.734375 C578.2215784999105 262.19820936221276 585.8808346192308 256.6284465223523 593.5 251 C600.3924801008709 245.9083720177482 607.3019846614168 240.84207582440047 614.272216796875 235.857177734375 C618.2118400885909 233.03670137488257 622.1047979309457 230.17072828347898 625.953125 227.2265625 C626.3597839355468 226.92012817382812 626.3597839355468 226.92012817382812 628.417724609375 225.369384765625 C629.9818198530938 224.18925744390378 631.53533692106 222.99494089051677 633.076416015625 221.784912109375 C638.2428032904804 217.92092566008182 638.2428032904804 217.92092566008182 641.46875 218.2578125 C645.2677337058512 220.87254511236063 649.0078769751055 223.53123774200662 652.6875 226.3125 C654.397868137273 227.58930472233493 656.1088194050129 228.86532862276545 657.8203125 230.140625 C658.685595703125 230.78708984374998 659.55087890625 231.43355468749996 660.4423828125 232.099609375 C664.2890502284561 234.9578051716593 668.1728481226396 237.76322031852078 672.0625 240.5625 C672.800810546875 241.0947216796875 673.53912109375 241.626943359375 674.2998046875 242.17529296875 C676.5325824779765 243.78439253210036 678.7661583950838 245.39237767986106 681 247 C690.3221675681342 253.70885734316448 699.6273975987639 260.4385590961168 708.875 267.25 C709.6109741210937 267.7919702148438 710.3469482421875 268.3339404296876 711.105224609375 268.892333984375 C711.8310473632813 269.42802001953123 712.5568701171875 269.96370605468746 713.3046875 270.515625 C714.0237514090538 271.02816725313664 714.7428153181077 271.5407095062733 715.4836690425873 272.0687833428383 C718.0000000000001 274 718.0000000000001 274 720.298727273941 276.2696370482445 C729.9005512454818 285.0536426321005 739.8564389089082 284.2570250781358 752.3231811523438 284.12025451660156 C754.6021947856972 284.1283165408122 756.8811972748684 284.1403271935127 759.1601717472076 284.1559314131737 C765.4043735309828 284.1873150916283 771.6472884625597 284.16286292709935 777.8914318084717 284.1291335821152 C783.9388730717022 284.10529272667327 789.9860906444807 284.1238403447969 796.0335169248283 284.14130634907633 C808.3979715614973 284.1755611583085 820.7620699479021 284.1681503718529 833.1265182495117 284.1367664337158 C845.3639484686563 284.1058418758728 857.6011647232917 284.09357531273076 869.8386306762695 284.10607719421387 C870.6002965294756 284.1068448842457 871.3619623826817 284.1076125742775 872.1467090193182 284.10840352764353 C876.0150265353528 284.1123990996166 879.883343604557 284.11672656862515 883.7516606152058 284.12118177860975 C911.1313724454689 284.15211897310064 938.510925071129 284.1414494905796 965.890625 284.106201171875 C992.4850517637636 284.07205929395604 1019.0793798073468 284.0568323234336 1045.673828125 284.067138671875 C1046.4939805625006 284.0674489922542 1047.3141330000012 284.06775931263337 1048.1591385416687 284.0680790366605 C1056.395653223272 284.0712163257524 1064.6321677041096 284.0747373576369 1072.8686821041629 284.0785395030398 C1089.646523946605 284.08627577028176 1106.424366257145 284.09145122491964 1123.2022094726563 284.09507751464844 C1123.973580900915 284.09524739394897 1124.7449523291737 284.0954172732495 1125.5396986491978 284.0955923004076 C1177.026487072844 284.10663777107106 1228.5132481711298 284.0578063763277 1280 284 C1280 284.3299999999999 1280 284.6600000000001 1280 285 C857.5999999999999 285 435.19999999999993 285 0 285 C0 190.95 0 96.89999999999998 0 0 Z " fill="#FBD016" transform="translate(0,284)"/>
<path d="M0 0 C0.6599999999999682 0 1.3199999999999363 0 2 0 C5.192013564842 9.684155920008095 8.382634758744643 19.368769388687838 11.571537017822266 29.053950309753418 C13.05271906479993 33.55238226513842 14.53435899697979 38.05066226868951 16.01708984375 42.548583984375 C17.451157463652976 46.898943033813964 18.883964210875547 51.24971557260284 20.315940856933594 55.60076332092285 C20.859242352805722 57.25086198933752 21.40297857467874 58.90081759563475 21.947181701660156 60.55061912536621 C24.775893358062262 69.12708646505678 27.56615742425936 77.70824755523233 30.18603515625 86.35124206542969 C31.687031914083718 91.23570004000226 33.37998457317326 96.05284686564045 35.046875 100.8828125 C36 104 36 104 36 107 C73.62 107 111.24000000000001 107 150 107 C147.35897907104436 109.64102092895564 145.25324594237122 111.6755645946082 142.3046875 113.77734375 C141.59836181640617 114.28386474609374 140.89203613281256 114.79038574218748 140.164306640625 115.312255859375 C139.4088354492187 115.84858642578126 138.65336425781243 116.38491699218753 137.875 116.9375 C136.24604845010595 118.10410341611782 134.6171434764717 119.27077186989698 132.98828125 120.4375 C132.57296142578127 120.73398437499998 132.57296142578127 120.73398437499998 130.47119140625 122.234375 C126.66006753461124 124.95735937459898 122.86033292094999 127.69602073932316 119.0625 130.4375 C118.32370605468748 130.97044677734374 117.58491210937495 131.50339355468748 116.82373046875 132.052490234375 C111.35792615393302 136.00198608417952 105.92392980140266 139.9932476911223 100.5 144 C94.2519762653427 148.61529391012226 87.98557533826192 153.20320295096116 81.6875 157.75 C81.01976562499999 158.232109375 80.35203124999998 158.71421875 79.6640625 159.2109375 C72.79208231287168 164.16300029380733 65.89445795729648 169.07931186258656 59 174 C60.76497450221245 179.62685273823342 62.53685319449505 185.2515061350067 64.3125 190.875 C64.59034332275394 191.75526855468752 64.86818664550788 192.63553710937504 65.15444946289063 193.54248046875 C69.03671508337447 205.82624687221278 72.99585286526622 218.0835167345283 77.0234375 230.3203125 C77.13023802757266 230.6450196647644 77.13023802757266 230.6450196647644 77.67071342468262 232.28823471069336 C79.59859054076469 238.14946989715952 81.52717943794914 244.01046109077697 83.46890258789063 249.86712646484375 C84.68460136158455 253.53526809696177 85.89529925820557 257.2050311999126 87.10546875 260.875 C87.46953826904291 261.9672488403321 87.83360778808594 263.059497680664 88.20870971679688 264.1848449707031 C90.14993222228429 270.0853925863928 91.76880454279888 275.91036980704143 93 282 C90.24471584017442 280.65008595651364 87.78491324523361 279.22790686546546 85.3046875 277.41796875 C84.59836181640628 276.90500244140617 83.89203613281256 276.39203613281256 83.164306640625 275.863525390625 C82.40883544921871 275.3104370117187 81.65336425781254 274.7573486328125 80.875 274.1875 C79.24617393055951 273.00249394826415 77.61726542192366 271.8176012046904 75.98828125 270.6328125 C75.15764160156255 270.02727539062494 74.32700195312498 269.42173828125 73.47119140625 268.7978515625 C70.4116371154098 266.571951760312 67.34114348893763 264.3615044785927 64.27001953125 262.151611328125 C57.31429258686751 257.14444182126977 50.39356244359419 252.0923957810296 43.5 247 C36.513204101245265 241.83898942574058 29.510381289863517 236.70152055704466 22.446533203125 231.646240234375 C18.903573183055187 229.11060395903542 15.391729556306245 226.55013888496296 11.9375 223.89453125 C11.302395019531218 223.41532226562504 10.667290039062436 222.93611328124996 10.012939453125 222.4423828125 C8.830940213238136 221.54888813497678 7.659319938421618 220.6414237546427 6.500732421875 219.7177734375 C4.91796875 218.53515625 4.91796875 218.53515625 2 217 C-3.1048230494840254 217.7657234574226 -7.6457745126938335 222.25744066977342 -11.6875 225.3125 C-13.39914821392108 226.59063607967937 -15.111401974986393 227.8679615724542 -16.82421875 229.14453125 C-17.689663085937468 229.79115722656252 -18.555107421874936 230.43778320312504 -19.44677734375 231.10400390625 C-23.26930187973869 233.94257012794515 -27.132803243622334 236.72277044117322 -31 239.5 C-37.997628143663064 244.5355616313875 -44.946358711360176 249.63418386843784 -51.879150390625 254.758544921875 C-58.11506723117702 259.3622376156145 -64.39185143754389 263.90688500055376 -70.6875 268.428466796875 C-76.13892915003498 272.351862306577 -81.5002567235872 276.37867082644175 -86.8125 280.48828125 C-89 282 -89 282 -91 282 C-88.83999739182298 272.630423552067 -85.99454527959745 263.54287350808727 -82.95703125 254.4296875 C-82.46436322077477 252.9398578562351 -81.97216078905774 251.44987417519906 -81.48039245605469 249.95974731445313 C-80.19001718771926 246.05268629419277 -78.89496940295317 242.14719303517404 -77.598388671875 238.2421875 C-75.29579155257409 231.30649887970117 -72.99891266267116 224.3689241672639 -70.70703125 217.4296875 C-70.46087192535401 216.68483848571776 -70.21471260070803 215.93998947143552 -69.96109390258789 215.17256927490234 C-65.44893788851618 201.50570904877355 -61.14756727615952 187.7823326170871 -57 174 C-57.50609298706058 173.63572906494142 -58.01218597412105 173.27145812988283 -58.53361511230469 172.89614868164063 C-67.22209228980967 166.6415979078414 -75.89022732467299 160.36261843306386 -84.5 154 C-92.87936195045233 147.80972493946643 -101.31107588213695 141.69525529079704 -109.76611328125 135.60888671875 C-114.25155213614471 132.3783903194324 -118.73169623133765 129.14054349872663 -123.210693359375 125.901123046875 C-127.17752042939202 123.03325852084555 -131.15075277675982 120.17481025601126 -135.1328125 117.328125 C-135.968125 116.72935546874999 -136.80343749999997 116.13058593749997 -137.6640625 115.513671875 C-139.2793410135484 114.356055606957 -140.89647227455686 113.20101932096486 -142.515625 112.048828125 C-142.87527343750003 111.79069335937498 -142.87527343750003 111.79069335937498 -144.6953125 110.484375 C-145.01508056640625 110.2560498046875 -145.01508056640625 110.2560498046875 -146.63330078125 109.1005859375 C-146.85880615234373 108.91898925781248 -146.85880615234373 108.91898925781248 -148 108 C-148 107.67000000000002 -148 107.34000000000003 -148 107 C-110.38 107 -72.75999999999999 107 -34 107 C-33.34000000000003 104.02999999999997 -32.680000000000064 101.06 -32 98 C-31.479995178881722 96.19429062281955 -30.931760128964925 94.39621715891201 -30.3427734375 92.61181640625 C-30.02726531982421 91.64869033813477 -29.71175720214842 90.68556427001954 -29.386688232421875 89.69325256347656 C-29.047674865722684 88.6729948425293 -28.708661499023492 87.65273712158205 -28.359375 86.6015625 C-28.00013946533204 85.50859359741213 -27.64090393066408 84.4156246948242 -27.270782470703125 83.28953552246094 C-26.101084621697964 79.73339381507992 -24.92552894095229 76.17921792302093 -23.75 72.625 C-22.941089241550117 70.16869635717336 -22.13266248816342 67.71223327154382 -21.32470703125 65.255615234375 C-20.093428062983435 61.512172250613446 -18.861812510493223 57.768843560100265 -17.628570556640625 54.02604675292969 C-13.681868981245543 42.04755652865589 -9.774132512117376 30.056542501559875 -5.875 18.0625 C-5.271861206247081 16.208479400970646 -4.668672699468971 14.354474973398965 -4.0654296875 12.50048828125 C-2.709780770911948 8.333823149236025 -1.3546894717330815 4.166977165982928 0 0 Z " fill="#010100" transform="translate(639,286)"/>
</svg>
