<?xml version="1.0" encoding="UTF-8"?>
<!-- Generator: visioncortex VTracer 0.6.12 -->
<svg version="1.1" xmlns="http://www.w3.org/2000/svg" width="290" height="174">
<path d="M0 0 C95.7 0 191.4 0 290 0 C290 57.42 290 114.84 290 174 C194.3 174 98.6 174 0 174 C0 116.58 0 59.16 0 0 Z " fill="#D20F33" transform="translate(0,0)"/>
<path d="M0 0 C95.7 0 191.4 0 290 0 C290 28.71 290 57.42 290 87 C258.98 87 227.95999999999998 87 196 87 C196 73.14 196 59.28 196 45 C162.34 45 128.68 45 94 45 C94 58.86 94 72.72 94 87 C62.98 87 31.959999999999994 87 0 87 C0 58.29 0 29.58 0 0 Z " fill="#001F9E" transform="translate(0,0)"/>
<path d="M0 0 C33.66 0 67.32 0 102 0 C102 25.409999999999997 102 50.81999999999999 102 77 C96 75 96 75 94 74 C94 72.02 94 70.04 94 68 C93.34 68 92.68 68 92 68 C92.32999999999998 69.65 92.66 71.3 93 73 C91.0197436096781 71.85605098417302 89.04082321949988 70.70978896160028 87.0625 69.5625 C85.9603515625 68.9244140625 84.85820312499999 68.286328125 83.72265625 67.62890625 C81 66.00000000000001 81 66.00000000000001 80 65 C79.95919217067495 63.0004163630731 79.95745643701883 60.99954746011413 80 59 C81.32 59 82.63999999999999 59 84 59 C84 57.68000000000001 84 56.36 84 55 C83.34 55 82.68 55 82 55 C82 53.02000000000001 82 51.03999999999999 82 49 C82.99000000000001 49 83.98000000000002 49 85 49 C84.40138257652302 46.648288693483266 83.7307564832305 44.314062196896515 83 42 C82.34 41.67 81.68 41.34 81 41 C80.67000000000002 42.31999999999999 80.34 43.64 80 45 C79.67000000000002 45 79.34 45 79 45 C79 43.349999999999994 79 41.7 79 40 C79.66 40 80.32 40 81 40 C80.896875 39.45343750000001 80.896875 39.45343750000001 80.375 36.6875 C80 33 80 33 82 30 C81.00999999999999 30.659999999999997 80.01999999999998 31.319999999999993 79 32 C77.68 32 76.36000000000001 32 75 32 C75.16499999999999 32.66 75.16499999999999 32.66 76 36 C75.34 36.33 75.34 36.33 72 38 C72.020625 36.88624999999999 72.04124999999999 35.77250000000001 72.0625 34.625 C72 31.000000000000014 72 31.000000000000014 71 29 C72.4375 26.375000000000014 72.4375 26.375000000000014 74 24 C73.5875 24.495000000000005 73.17500000000001 24.989999999999995 72.75 25.5 C71 27 71 27 67 27 C67.27714843749999 27.6844921875 67.554296875 28.368984374999997 67.83984375 29.07421875 C68.05399751789471 32.98644246105232 66.67954395716401 34.20364173923852 64.177734375 37.060546875 C63.64470703124999 37.63869140624999 63.111679687499986 38.21683593750001 62.5625 38.8125 C62.29791992187501 39.111240234375 62.29791992187501 39.111240234375 60.958984375 40.623046875 C59.65273351728109 42.09405009315191 58.32807976618682 43.548674431511046 57 45 C55.68000000000001 44.67 54.360000000000014 44.34 53 44 C53 38.66666666666666 53 33.33333333333334 53 28 C53.66 27.67 54.31999999999999 27.340000000000003 55 27 C55.625 24.43750000000003 55.625 24.43750000000003 56 22 C57.31999999999999 22.33 58.639999999999986 22.659999999999997 60 23 C58.477939912626766 20.37098712180986 57.15634036187379 18.156340361873802 55 16 C55.47437500000001 16.082499999999996 55.47437500000001 16.082499999999996 57.875 16.5 C61.403395146063616 17.06454322337018 63.59264057562447 16.90862917983347 67 16 C67 15.009999999999998 67 14.019999999999996 67 13 C67.66 12.670000000000002 68.32 12.340000000000003 69 12 C68.17500000000001 11.360624999999999 67.35 10.721249999999998 66.5 10.0625 C65.67500000000001 9.381875 64.85 8.701250000000002 64 8 C64 7.670000000000002 64 7.340000000000003 64 7 C59.123359906373736 6.65166856474098 56.22949995428735 7.583142883264365 52 10 C52.329999999999984 7.689999999999998 52.66 5.380000000000003 53 3 C52.00999999999999 3 51.02000000000001 3 50 3 C50.16499999999999 4.155000000000001 50.16499999999999 4.155000000000001 51 10 C49.68000000000001 9.009999999999998 48.360000000000014 8.019999999999996 47 7 C46.34 7.329999999999998 45.68000000000001 7.659999999999997 45 8 C45.16499999999999 8.329999999999998 45.16499999999999 8.329999999999998 46 10 C42.69999999999999 10.329999999999998 39.400000000000006 10.659999999999997 36 11 C36.16499999999999 11.165 36.16499999999999 11.165 37 12 C37.16499999999999 12.329999999999998 37.16499999999999 12.329999999999998 38 14 C36.68000000000001 15.32 35.360000000000014 16.64 34 18 C34.66 18.33 35.31999999999999 18.659999999999997 36 19 C36 18.340000000000003 36 17.68 36 17 C37.650000000000006 16.340000000000003 39.30000000000001 15.68 41 15 C40.680312500000014 15.381562500000001 40.680312500000014 15.381562500000001 39.0625 17.3125 C37 20 37 20 36 23 C37.97999999999999 23.33 39.96000000000001 23.659999999999997 42 24 C42 22.680000000000007 42 21.36 42 20 C43.31999999999999 19.67 44.639999999999986 19.340000000000003 46 19 C46 20.980000000000004 46 22.960000000000008 46 25 C47.31999999999999 24.340000000000003 48.639999999999986 23.680000000000007 50 23 C50.05429278360171 25.70860664857453 50.09381211030882 28.41610900967902 50.125 31.125 C50.1417578125 31.885546875000003 50.15851562500001 32.646093750000006 50.17578125 33.4296875 C50.21546245527827 38.032707312279655 49.75907576836164 41.664640035455164 48 46 C43.83642270720998 43.792266844748355 41.14021097903668 41.2333672372078 38.125 37.625 C37.32320312499999 36.68914062499999 36.521406249999984 35.75328125 35.6953125 34.7890625 C34 32 34 32 34.2421875 29.1484375 C34.36722656250001 28.7939453125 34.36722656250001 28.7939453125 35 27 C33.68000000000001 27 32.36 27 31 27 C29.25 25.5 29.25 25.5 28 24 C28.515625 24.9075 29.03125 25.814999999999998 29.5625 26.75 C31.06184994449501 30.13983465711914 31.20290104642669 30.71936078247265 30 34 C30 35.31999999999999 30 36.64 30 38 C26.125 36.25 26.125 36.25 25 34 C25.659999999999997 34 26.319999999999993 34 27 34 C27 33.34 27 32.68000000000001 27 32 C26.236874999999998 31.87625 25.473749999999995 31.752499999999998 24.6875 31.625 C22 31 22 31 19 29 C19.515625 29.515625 20.03125 30.03125 20.5625 30.5625 C22.572657009335018 33.971027102785484 21.797273957322858 36.231068565382856 21 40 C21.659999999999997 40 22.319999999999993 40 23 40 C23 41.650000000000006 23 43.3 23 45 C22.340000000000003 44.67 21.680000000000007 44.34 21 44 C21 43.00999999999999 21 42.02000000000001 21 41 C18 43 18 43 17.3125 46.125 C17.209374999999994 47.07374999999999 17.106250000000003 48.02250000000001 17 49 C17.989999999999995 49 18.980000000000004 49 20 49 C20.33 50.97999999999999 20.659999999999997 52.96000000000001 21 55 C20.010000000000005 55 19.019999999999996 55 18 55 C18 56.31999999999999 18 57.64 18 59 C19.319999999999993 59 20.64 59 22 59 C22.5625 61.625 22.5625 61.625 22 65 C18.16339125404221 68.42640529513211 13.602811142189296 70.7619358666419 9 73 C9.329999999999998 71.35 9.659999999999997 69.7 10 68 C9.670000000000002 68.16499999999999 9.670000000000002 68.16499999999999 8 69 C8 70.65 8 72.3 8 74 C2.249999999999986 77 2.249999999999986 77 0 77 C0 51.59 0 26.180000000000007 0 0 Z " fill="#FAF9FA" transform="translate(94,45)"/>
<path d="M0 0 C0.9900000000000091 0 1.9799999999999898 0 3 0 C3 1.9799999999999969 3 3.960000000000001 3 6 C3.350625000000008 5.752499999999998 3.350625000000008 5.752499999999998 5.125 4.5 C8.473218867059188 2.7531031997952056 10.27581630295137 2.4453343429927585 14 3 C16.25 4.875 16.25 4.875 18 7 C18.329999999999984 7.329999999999998 18.329999999999984 7.329999999999998 20 9 C19.340000000000003 9.659999999999997 18.680000000000007 10.32 18 11 C18.164999999999992 11.495000000000005 18.164999999999992 11.495000000000005 19 14 C17.349999999999994 14 15.699999999999989 14 14 14 C14.164999999999992 14.329999999999998 14.164999999999992 14.329999999999998 15 16 C12.360000000000014 15.340000000000003 9.719999999999999 14.68 7 14 C7.4950000000000045 14.618749999999999 7.990000000000009 15.237499999999997 8.5 15.875 C10 18 10 18 10 20 C8.680000000000007 19.67 7.360000000000014 19.340000000000003 6 19 C6 20.980000000000004 6 22.960000000000008 6 25 C5.340000000000003 25 4.680000000000007 25 4 25 C3.875 31.625 3.875 31.625 5 35 C4.670000000000016 35.33 4.340000000000003 35.66 4 36 C3.959361679242136 37.66617115107175 3.9572789986790724 39.33388094848419 4 41 C8.363673186155438 40.55962931148889 10.076538533227904 38.01756401494367 12.75 34.75 C13.549218749999994 33.79609375 14.348437499999989 32.842187499999994 15.171875 31.859375 C17.09954978267018 28.844293929669718 17.433115457040117 27.490401036146807 17 24 C18.319999999999993 24 19.639999999999986 24 21 24 C21.659999999999997 22.680000000000007 22.319999999999993 21.36 23 20 C23.659999999999997 20.33 24.319999999999993 20.659999999999997 25 21 C24.484375 21.9075 23.96875 22.814999999999998 23.4375 23.75 C21.919242557313055 27.182582044335675 21.891159918113942 27.67347975434187 23 31 C22.5625 33.25000000000003 22.5625 33.25000000000003 22 35 C22.99000000000001 34.34 23.980000000000018 33.68000000000001 25 33 C25 31.680000000000007 25 30.36 25 29 C26.319999999999993 28.504999999999995 26.319999999999993 28.504999999999995 33 26 C32.670000000000016 26.515625 32.34 27.03125 32 27.5625 C30.67989123300606 30.780265119547707 30.867578953870122 33.55705280062297 31 37 C30.340000000000003 37 29.680000000000007 37 29 37 C29.164999999999992 37.66 29.164999999999992 37.66 30 41 C30.329999999999984 40.00999999999999 30.659999999999997 39.02000000000001 31 38 C32.31999999999999 38.66 33.639999999999986 39.31999999999999 35 40 C35 41.97999999999999 35 43.96000000000001 35 46 C34.00999999999999 46 33.01999999999998 46 32 46 C32 47.97999999999999 32 49.96000000000001 32 52 C32.66 52 33.31999999999999 52 34 52 C34 53.31999999999999 34 54.64 34 56 C32.68000000000001 56 31.360000000000014 56 30 56 C30.346503755293725 58.88753129411421 30.589323963463613 60.51144825949038 32 63 C35.13676140116985 65.39411755950216 38.48086951662242 67.22744903697034 42 69 C42 67.68 42 66.36 42 65 C42.66 65 43.31999999999999 65 44 65 C44 66.98 44 68.96 44 71 C44.47437500000001 71.1546875 44.47437500000001 71.1546875 46.875 71.9375 C50 73 50 73 52 74 C52 76.31 52 78.62 52 81 C18.340000000000003 81 -15.319999999999993 81 -50 81 C-50 78.69 -50 76.38 -50 74 C-44.24999999999997 71 -44.24999999999997 71 -42 71 C-42.165000000000006 70.175 -42.165000000000006 70.175 -43 66 C-42.504999999999995 65.83500000000001 -42.504999999999995 65.83500000000001 -40 65 C-40 66.32 -40 67.64 -40 69 C-38.17356120322705 67.98297147724999 -36.36414474030633 66.9353310446134 -34.5625 65.875 C-33.5531640625 65.294921875 -32.543828125000005 64.71484375 -31.50390625 64.1171875 C-29 62 -29 62 -28.15234375 58.7578125 C-28.102070312500004 57.847734375 -28.051796875000008 56.93765625 -28 56 C-29.319999999999993 56 -30.64 56 -32 56 C-32 54.68000000000001 -32 53.36 -32 52 C-31.67 51.83500000000001 -31.67 51.83500000000001 -30 51 C-30 49.349999999999994 -30 47.7 -30 46 C-30.989999999999995 46 -31.980000000000004 46 -33 46 C-33 44.02000000000001 -33 42.03999999999999 -33 40 C-31.680000000000007 39.34 -30.36 38.68000000000001 -29 38 C-28.67 38.99000000000001 -28.340000000000003 39.97999999999999 -28 41 C-27.67 39.68000000000001 -27.340000000000003 38.36 -27 37 C-27.659999999999997 37 -28.319999999999993 37 -29 37 C-28.958749999999995 35.92750000000001 -28.917500000000004 34.85499999999999 -28.875 33.75 C-28.988582495009908 30.342525149702837 -29.212733635568327 28.7926036944245 -31 26 C-30.4225 26.309375000000003 -29.845 26.618750000000006 -29.25 26.9375 C-27.157058164039455 27.92583364475915 -25.254647252014635 28.51686130313972 -23 29 C-23 30.319999999999993 -23 31.64 -23 33 C-22.010000000000005 33.66 -21.019999999999996 34.31999999999999 -20 35 C-20.185625 33.88624999999999 -20.371250000000003 32.77250000000001 -20.5625 31.625 C-21 28 -21 28 -20 26 C-20.93446534818547 23.968553590901152 -21.93224775537955 21.964664130101625 -23 20 C-21.680000000000007 20.659999999999997 -20.36 21.319999999999993 -19 22 C-19 22.659999999999997 -19 23.319999999999993 -19 24 C-17.680000000000007 24 -16.36 24 -15 24 C-15.099257812500014 24.694804687499996 -15.198515624999999 25.389609374999992 -15.30078125 26.10546875 C-14.882810057787083 30.12776295038678 -12.753976048413705 32.3747951490341 -10.1875 35.3125 C-9.735683593749997 35.86228515625001 -9.283867187499993 36.41207031249999 -8.818359375 36.978515625 C-7.620427102859452 38.38630464554474 -6.315338455636152 39.70123273750572 -5 41 C-4.009999999999991 41 -3.0200000000000102 41 -2 41 C-0.8501739751569062 36.90996140644043 -0.8890574352312512 32.968229486016355 -0.9375 28.75 C-0.9420117187499955 28.004921875000008 -0.9465234374999909 27.25984375 -0.951171875 26.4921875 C-0.9629075410393284 24.661423597865436 -0.9808414983284877 22.830701270833146 -1 21 C-1.990000000000009 21.33 -2.9799999999999898 21.659999999999997 -4 22 C-4.329999999999984 20.349999999999994 -4.659999999999997 18.700000000000003 -5 17 C-5.990000000000009 17 -6.97999999999999 17 -8 17 C-8 18.319999999999993 -8 19.64 -8 21 C-9.97999999999999 20.67 -11.960000000000008 20.340000000000003 -14 20 C-13.387223883222873 17.03824876891059 -12.746274781959244 15.619412172938873 -11 13 C-11.990000000000009 13.329999999999998 -12.97999999999999 13.659999999999997 -14 14 C-14 14.659999999999997 -14 15.32 -14 16 C-14.990000000000009 16.33 -15.97999999999999 16.659999999999997 -17 17 C-16.187500000000014 14.562500000000036 -16.187500000000014 14.562500000000036 -15 12 C-14.009999999999991 11.670000000000002 -13.02000000000001 11.340000000000003 -12 11 C-13.319999999999993 10.340000000000003 -14.639999999999986 9.68 -16 9 C-13.602368148253078 6.6023681482530705 -12.66726501736818 6.657194144345844 -9.375 6.375 C-8.557734374999995 6.300234375000002 -7.740468749999991 6.225468749999997 -6.8984375 6.1484375 C-6.27195312500001 6.099453124999997 -5.645468749999992 6.05046875 -5 6 C-5 5.009999999999998 -5 4.019999999999996 -5 3 C-3.680000000000007 3.6599999999999966 -2.3600000000000136 4.32 -1 5 C-0.6700000000000159 4.670000000000002 -0.3400000000000034 4.340000000000003 0 4 C0 2.6799999999999997 0 1.3599999999999994 0 0 Z " fill="#AA9213" transform="translate(144,48)"/>
<path d="M0 0 C0.9900000000000091 0 1.9799999999999898 0 3 0 C3 1.9799999999999969 3 3.960000000000001 3 6 C3.350625000000008 5.752499999999998 3.350625000000008 5.752499999999998 5.125 4.5 C8.473218867059217 2.7531031997951985 10.27581630295137 2.4453343429927585 14 3 C16.25 4.874999999999993 16.25 4.874999999999993 18 7 C18.659999999999997 7.659999999999997 19.319999999999993 8.32 20 9 C19.340000000000003 9.659999999999997 18.680000000000007 10.32 18 11 C18.164999999999992 11.495000000000005 18.164999999999992 11.495000000000005 19 14 C17.349999999999994 14 15.699999999999989 14 14 14 C14.164999999999992 14.329999999999998 14.164999999999992 14.329999999999998 15 16 C12.360000000000014 15.340000000000003 9.719999999999999 14.68 7 14 C7.4950000000000045 14.618749999999999 7.990000000000009 15.237499999999997 8.5 15.875 C10 18 10 18 10 20 C8.680000000000007 19.67 7.360000000000014 19.340000000000003 6 19 C6 20.980000000000004 6 22.960000000000008 6 25 C5.340000000000003 25 4.680000000000007 25 4 25 C3.875 31.625 3.875 31.625 5 35 C4.670000000000016 35.33 4.340000000000003 35.66 4 36 C3.959361679242136 37.66617115107175 3.9572789986790724 39.33388094848419 4 41 C8.363673186155438 40.55962931148889 10.076538533227904 38.01756401494367 12.75 34.75 C13.549218749999994 33.79609375 14.348437499999989 32.842187499999994 15.171875 31.859375 C17.09954978267018 28.844293929669718 17.433115457040117 27.490401036146807 17 24 C18.319999999999993 24 19.639999999999986 24 21 24 C21.659999999999997 22.680000000000007 22.319999999999993 21.36 23 20 C23.659999999999997 20.33 24.319999999999993 20.659999999999997 25 21 C24.484375 21.9075 23.96875 22.814999999999998 23.4375 23.75 C21.919242557313055 27.182582044335675 21.891159918113942 27.673479754341855 23 31 C22.5625 33.25000000000003 22.5625 33.25000000000003 22 35 C22.99000000000001 34.34 23.97999999999999 33.68000000000001 25 33 C25 31.680000000000007 25 30.36 25 29 C26.319999999999993 28.504999999999995 26.319999999999993 28.504999999999995 33 26 C32.670000000000016 26.515625 32.34 27.03125 32 27.5625 C30.67989123300606 30.780265119547707 30.867578953870122 33.55705280062297 31 37 C30.340000000000003 37 29.680000000000007 37 29 37 C29.164999999999992 37.66 29.164999999999992 37.66 30 41 C30.329999999999984 40.00999999999999 30.659999999999997 39.02000000000001 31 38 C32.31999999999999 38.66 33.639999999999986 39.31999999999999 35 40 C35 41.97999999999999 35 43.96000000000001 35 46 C34.00999999999999 46 33.01999999999998 46 32 46 C32 47.97999999999999 32 49.96000000000001 32 52 C30.084045175654836 52.337400849570216 28.167202775561833 52.669764115214235 26.25 53 C25.182656250000008 53.185625 24.115312500000016 53.37125 23.015625 53.5625 C20 54 20 54 16 54 C15.670000000000016 53.00999999999999 15.340000000000003 52.02000000000001 15 51 C14.512734375000008 51.4215234375 14.025468750000016 51.843046875 13.5234375 52.27734375 C6.688243674467515 57.559084433365996 0.47634111259131373 57.97588523154312 -8 58 C-8 56.68000000000001 -8 55.36 -8 54 C-8.990000000000009 54 -9.97999999999999 54 -11 54 C-11 53.00999999999999 -11 52.02000000000001 -11 51 C-11.329999999999984 51.16499999999999 -11.329999999999984 51.16499999999999 -13 52 C-13 52.66 -13 53.31999999999999 -13 54 C-15.271411086174709 53.88597936423429 -17.54214551716761 53.75841495441162 -19.8125 53.625 C-21.0770703125 53.555390625 -22.341640624999997 53.48578125 -23.64453125 53.4140625 C-27 53 -27 53 -30 51 C-30.1875 48.375 -30.1875 48.375 -30 46 C-30.989999999999995 46 -31.980000000000004 46 -33 46 C-33 44.02000000000001 -33 42.03999999999999 -33 40 C-31.680000000000007 39.34 -30.36 38.68000000000001 -29 38 C-28.67 38.99000000000001 -28.340000000000003 39.97999999999999 -28 41 C-27.67 39.68000000000001 -27.340000000000003 38.36 -27 37 C-27.659999999999997 37 -28.319999999999993 37 -29 37 C-28.958749999999995 35.92750000000001 -28.917500000000004 34.85499999999999 -28.875 33.75 C-28.988582495009908 30.342525149702837 -29.212733635568327 28.7926036944245 -31 26 C-30.4225 26.309375000000003 -29.845 26.618750000000006 -29.25 26.9375 C-27.15705816403944 27.92583364475915 -25.254647252014635 28.51686130313972 -23 29 C-23 30.319999999999993 -23 31.64 -23 33 C-22.010000000000005 33.66 -21.019999999999996 34.31999999999999 -20 35 C-20.185625 33.88624999999999 -20.371250000000003 32.77250000000001 -20.5625 31.625 C-21 28 -21 28 -20 26 C-20.93446534818547 23.968553590901152 -21.93224775537955 21.964664130101625 -23 20 C-21.680000000000007 20.659999999999997 -20.36 21.319999999999993 -19 22 C-19 22.659999999999997 -19 23.319999999999993 -19 24 C-17.680000000000007 24 -16.36 24 -15 24 C-15.099257812500014 24.694804687499996 -15.198515624999999 25.389609374999992 -15.30078125 26.10546875 C-14.882810057787083 30.12776295038678 -12.753976048413705 32.3747951490341 -10.1875 35.3125 C-9.735683593749997 35.86228515625001 -9.283867187499993 36.41207031249999 -8.818359375 36.978515625 C-7.620427102859452 38.38630464554474 -6.315338455636152 39.70123273750572 -5 41 C-4.009999999999991 41 -3.0200000000000102 41 -2 41 C-0.8501739751569062 36.90996140644043 -0.8890574352312512 32.96822948601634 -0.9375 28.75 C-0.9420117187499955 28.004921875000008 -0.9465234374999909 27.25984375 -0.951171875 26.4921875 C-0.9629075410393284 24.661423597865436 -0.9808414983284877 22.830701270833146 -1 21 C-1.990000000000009 21.33 -2.9799999999999898 21.659999999999997 -4 22 C-4.164999999999992 21.174999999999997 -4.164999999999992 21.174999999999997 -5 17 C-5.990000000000009 17 -6.97999999999999 17 -8 17 C-8 18.319999999999993 -8 19.64 -8 21 C-9.97999999999999 20.67 -11.960000000000008 20.340000000000003 -14 20 C-13.387223883222873 17.03824876891059 -12.746274781959244 15.619412172938873 -11 13 C-11.990000000000009 13.329999999999998 -12.97999999999999 13.659999999999997 -14 14 C-14 14.659999999999997 -14 15.32 -14 16 C-14.990000000000009 16.33 -15.97999999999999 16.659999999999997 -17 17 C-16.1875 14.562499999999986 -16.1875 14.562499999999986 -15 12 C-14.009999999999991 11.670000000000002 -13.02000000000001 11.340000000000003 -12 11 C-13.319999999999993 10.340000000000003 -14.639999999999986 9.68 -16 9 C-13.602368148253078 6.602368148253078 -12.667265017368152 6.657194144345844 -9.375 6.375 C-8.557734374999995 6.300234375000002 -7.740468749999991 6.225468749999997 -6.8984375 6.1484375 C-6.27195312500001 6.099453124999997 -5.645468749999992 6.05046875 -5 6 C-5 5.009999999999998 -5 4.019999999999996 -5 3 C-3.680000000000007 3.6599999999999966 -2.3600000000000136 4.32 -1 5 C-0.6700000000000159 4.670000000000002 -0.3400000000000034 4.340000000000003 0 4 C0 2.6799999999999997 0 1.3599999999999994 0 0 Z " fill="#C21532" transform="translate(144,48)"/>
<path d="M0 0 C4.776094977426226 1.6417826484902633 8.79382903710001 4.2654670166754585 13 7 C13 5.680000000000007 13 4.359999999999999 13 3 C13.659999999999997 3 14.319999999999993 3 15 3 C15 4.980000000000004 15 6.959999999999994 15 9 C15.948750000000018 9.309375000000003 16.89749999999998 9.618750000000006 17.875 9.9375 C20.99999999999997 10.999999999999986 20.99999999999997 10.999999999999986 23 12 C23 14.310000000000002 23 16.620000000000005 23 19 C-10.659999999999997 19 -44.31999999999999 19 -79 19 C-79 16.689999999999998 -79 14.379999999999995 -79 12 C-75.29654700856031 10.019083283648541 -72.11778923427362 8.739090375382446 -68 8 C-65.59137834406556 7.1037686861639315 -63.29754486313334 6.14877243156667 -61 5 C-60.67 6.650000000000006 -60.34 8.299999999999997 -60 10 C-63.96000000000001 11.650000000000006 -67.92 13.299999999999997 -72 15 C-71.34 15.329999999999998 -70.68 15.659999999999997 -70 16 C-68.47474835351227 15.416297927594115 -66.97805379330764 14.757091735146147 -65.5 14.0625 C-59.415084545451975 11.521256406987888 -53.57113513143378 10.681298812429887 -47.280029296875 13.00439453125 C-43.71887586419726 14.085331166788507 -40.8129663706996 14.258527457298243 -37.09765625 14.265625 C-35.795058593750014 14.268203125 -34.4924609375 14.270781249999999 -33.150390625 14.2734375 C-32.47854736328125 14.269248046874992 -31.806704101562502 14.265058593749998 -31.114501953125 14.2607421875 C-29.071474036367675 14.250046978893536 -27.02932878008002 14.260657993917462 -24.986328125 14.2734375 C-23.682441406250007 14.270859375 -22.378554687500014 14.268281250000001 -21.03515625 14.265625 C-20.444161376953133 14.264497070312501 -20.444161376953133 14.264497070312501 -17.453369140625 14.2587890625 C-13.740493422087354 13.980553059555504 -10.54690673192124 13.103201404344347 -7 12 C-0.2250573617423015 11.213166541258147 4.772846669335877 12.423246897656227 11 15 C12.319999999999993 15 13.639999999999986 15 15 15 C10.70999999999998 13.019999999999996 6.420000000000016 11.039999999999992 2 9 C2.6599999999999966 8.670000000000002 3.319999999999993 8.340000000000003 4 8 C3.625 6.062500000000071 3.625 6.062500000000071 3 4 C2.670000000000016 3.8349999999999937 2.670000000000016 3.8349999999999937 1 3 C0.6700000000000159 3.6599999999999966 0.3400000000000034 4.319999999999993 0 5 C-0.5625000000000284 3.0624999999998863 -0.5625000000000284 3.0624999999998863 -1 1 C-0.6700000000000159 0.6700000000000017 -0.3400000000000034 0.3400000000000034 0 0 Z " fill="#076A16" transform="translate(173,110)"/>
<path d="M0 0 C1.3199999999999932 0.6599999999999966 2.6400000000000006 1.3199999999999932 4 2 C4 2.6599999999999966 4 3.319999999999993 4 4 C5.319999999999993 4 6.640000000000001 4 8 4 C7.926523437500009 4.734765624999994 7.85304687499999 5.469531250000003 7.77734375 6.2265625 C8.059666705531924 9.743216858380038 9.199665201295488 10.81333565854736 11.5625 13.375 C14.912925555230856 17.41442435892752 14.912925555230856 17.41442435892752 15.3125 20.1015625 C15.0625 22 15.0625 22 14 25 C13.340000000000003 25.33 12.680000000000007 25.659999999999997 12 26 C11.3671875 27.847656249999986 11.3671875 27.847656249999986 10.875 30.0625 C10.707421874999994 30.7959765625 10.539843749999989 31.529453125000003 10.3671875 32.28515625 C10.246015624999984 32.85105468750001 10.124843749999997 33.41695312499999 10 34 C7.728588913825291 33.88597936423429 5.4578544828323885 33.75841495441162 3.1875 33.625 C1.9229296875000017 33.555390625 0.6583593750000034 33.48578125 -0.64453125 33.4140625 C-4 33 -4 33 -7 31 C-7.1875 28.375 -7.1875 28.375 -7 26 C-7.989999999999995 26 -8.980000000000004 26 -10 26 C-10 24.019999999999996 -10 22.039999999999992 -10 20 C-8.680000000000007 19.340000000000003 -7.359999999999999 18.680000000000007 -6 18 C-5.670000000000002 18.989999999999995 -5.340000000000003 19.980000000000004 -5 21 C-4.670000000000002 19.680000000000007 -4.340000000000003 18.36 -4 17 C-4.659999999999997 17 -5.319999999999993 17 -6 17 C-5.958749999999995 15.927499999999995 -5.917500000000004 14.855000000000004 -5.875 13.75 C-5.988582495009908 10.342525149702851 -6.212733635568327 8.7926036944245 -8 6 C-7.711250000000007 6.154687499999994 -7.711250000000007 6.154687499999994 -6.25 6.9375 C-4.157058164039455 7.925833644759152 -2.2546472520146352 8.51686130313972 0 9 C0 10.319999999999993 0 11.64 0 13 C0.9899999999999949 13.659999999999997 1.980000000000004 14.319999999999993 3 15 C2.8143749999999983 13.886250000000004 2.6287499999999966 12.772500000000008 2.4375 11.625 C2 8 2 8 3 6 C2.0655346518145308 3.968553590901152 1.0677522446204506 1.9646641301016246 0 0 Z " fill="#102393" transform="translate(121,68)"/>
<path d="M0 0 C0.6599999999999966 0.3299999999999983 1.3199999999999932 0.6599999999999966 2 1 C1.484375 1.9074999999999989 0.96875 2.8149999999999977 0.4375 3.75 C-1.080757442686945 7.182582044335675 -1.1088400818860578 7.673479754341869 0 11 C-0.4375 13.25 -0.4375 13.25 -1 15 C-0.009999999999990905 14.340000000000003 0.9799999999999898 13.680000000000007 2 13 C2 11.680000000000007 2 10.36 2 9 C4.639999999999986 8.010000000000005 7.280000000000001 7.019999999999996 10 6 C9.670000000000016 6.515625 9.340000000000003 7.03125 9 7.5625 C7.67989123300606 10.780265119547693 7.867578953870122 13.55705280062297 8 17 C7.340000000000003 17 6.680000000000007 17 6 17 C6.329999999999984 18.319999999999993 6.659999999999997 19.64 7 21 C7.329999999999984 20.010000000000005 7.659999999999997 19.019999999999996 8 18 C9.319999999999993 18.659999999999997 10.639999999999986 19.319999999999993 12 20 C12 21.980000000000004 12 23.960000000000008 12 26 C11.009999999999991 26 10.02000000000001 26 9 26 C9 27.980000000000004 9 29.960000000000008 9 32 C7.084045175654836 32.337400849570216 5.167202775561833 32.669764115214235 3.25 33 C2.182656250000008 33.185625 1.1153124999999875 33.37125 0.015625 33.5625 C-3 34 -3 34 -7 34 C-7.773218824378404 31.017584534540433 -8.411962034870754 28.0241952492361 -9 25 C-9.990000000000009 25 -10.97999999999999 25 -12 25 C-12.867403555923744 22.282135524772258 -13.315685591293345 20.785161587701054 -13 18 C-11.378661972454353 15.508572193274105 -9.580666235079264 13.394694900653448 -7.56640625 11.2109375 C-5.704302540828934 8.58263151648174 -5.68483651365861 7.15163486341396 -6 4 C-4.680000000000007 4 -3.3600000000000136 4 -2 4 C-1.3400000000000034 2.680000000000007 -0.6800000000000068 1.3599999999999994 0 0 Z " fill="#112493" transform="translate(167,68)"/>
<path d="M0 0 C0.9900000000000091 0 1.9799999999999898 0 3 0 C3 1.9799999999999969 3 3.960000000000001 3 6 C3.701250000000016 5.505000000000003 4.402500000000003 5.009999999999998 5.125 4.5 C8.473218867059217 2.7531031997951985 10.27581630295137 2.4453343429927585 14 3 C16.25 4.875 16.25 4.875 18 7 C18.659999999999997 7.659999999999997 19.319999999999993 8.32 20 9 C19.340000000000003 9.659999999999997 18.680000000000007 10.32 18 11 C18.164999999999992 11.495000000000005 18.164999999999992 11.495000000000005 19 14 C17.349999999999994 14 15.699999999999989 14 14 14 C14.329999999999984 14.659999999999997 14.659999999999997 15.32 15 16 C12.360000000000014 15.340000000000003 9.719999999999999 14.68 7 14 C7.4950000000000045 14.618749999999999 7.990000000000009 15.237499999999997 8.5 15.875 C10 18 10 18 10 20 C8.680000000000007 19.67 7.360000000000014 19.340000000000003 6 19 C5.670000000000016 20.319999999999993 5.340000000000003 21.64 5 23 C4.340000000000003 23 3.680000000000007 23 3 23 C3 21.680000000000007 3 20.36 3 19 C2.670000000000016 20.319999999999993 2.3400000000000034 21.64 2 23 C1.3400000000000034 23 0.6800000000000068 23 0 23 C-0.3299999999999841 22.340000000000003 -0.6599999999999966 21.680000000000007 -1 21 C-1.990000000000009 21.33 -2.9799999999999898 21.659999999999997 -4 22 C-4.3300000000000125 20.349999999999994 -4.659999999999997 18.700000000000003 -5 17 C-5.990000000000009 17 -6.97999999999999 17 -8 17 C-8 18.319999999999993 -8 19.64 -8 21 C-9.97999999999999 20.67 -11.960000000000008 20.340000000000003 -14 20 C-13.387223883222873 17.03824876891059 -12.746274781959244 15.619412172938873 -11 13 C-11.990000000000009 13.329999999999998 -12.97999999999999 13.659999999999997 -14 14 C-14 14.659999999999997 -14 15.32 -14 16 C-14.990000000000009 16.33 -15.97999999999999 16.659999999999997 -17 17 C-16.1875 14.5625 -16.1875 14.5625 -15 12 C-14.009999999999991 11.670000000000002 -13.02000000000001 11.340000000000003 -12 11 C-13.319999999999993 10.340000000000003 -14.639999999999986 9.68 -16 9 C-13.602368148253078 6.602368148253078 -12.667265017368152 6.657194144345844 -9.375 6.375 C-8.557734374999995 6.300234375000002 -7.740468749999991 6.225468749999997 -6.8984375 6.1484375 C-6.27195312500001 6.099453124999997 -5.645468749999992 6.05046875 -5 6 C-5 5.009999999999998 -5 4.019999999999996 -5 3 C-3.680000000000007 3.6599999999999966 -2.3600000000000136 4.32 -1 5 C-0.6700000000000159 4.670000000000002 -0.3400000000000034 4.340000000000003 0 4 C0 2.6799999999999997 0 1.3599999999999994 0 0 Z " fill="#0C5B15" transform="translate(144,48)"/>
<path d="M0 0 C0.9899999999999949 0 1.980000000000004 0 3 0 C3 0.6599999999999966 3 1.3199999999999932 3 2 C2.6700000000000017 2.1650000000000063 2.6700000000000017 2.1650000000000063 1 3 C1.3299999999999983 3.6599999999999966 1.6599999999999966 4.319999999999993 2 5 C3.980000000000004 5 5.959999999999994 5 8 5 C7.670000000000002 6.319999999999993 7.340000000000003 7.640000000000001 7 9 C8.319999999999993 8.010000000000005 9.639999999999986 7.019999999999996 11 6 C11.330000000000013 6.989999999999995 11.659999999999997 7.980000000000004 12 9 C14 9.625 14 9.625 16 10 C16.329999999999984 10.329999999999998 16.659999999999997 10.659999999999997 17 11 C18.742600868979252 11.26314442652371 20.495309661014716 11.460791011057523 22.25 11.625 C23.20390624999999 11.720390624999993 24.157812500000006 11.81578125 25.140625 11.9140625 C27.94958606526484 11.998484827098125 30.262612892147757 11.55691668745959 33 11 C33.66 11.329999999999998 34.31999999999999 11.659999999999997 35 12 C35 11.010000000000005 35 10.019999999999996 35 9 C35.99000000000001 9 36.97999999999999 9 38 9 C38 9.989999999999995 38 10.980000000000004 38 12 C38.99000000000001 12 39.97999999999999 12 41 12 C41 12.659999999999997 41 13.319999999999993 41 14 C41.66 14 42.31999999999999 14 43 14 C43 13.010000000000005 43 12.019999999999996 43 11 C43.66 11 44.31999999999999 11 45 11 C45 11.989999999999995 45 12.980000000000004 45 14 C45.66 14 46.31999999999999 14 47 14 C47.329999999999984 13.340000000000003 47.66 12.680000000000007 48 12 C48 13.319999999999993 48 14.64 48 16 C46.02000000000001 16 44.03999999999999 16 42 16 C41.670000000000016 16.659999999999997 41.34 17.319999999999993 41 18 C35.69483455105072 19.090007985609873 30.46268611649475 19.152342714513892 25.0625 19.125 C24.302597656249986 19.128867187499992 23.5426953125 19.132734375 22.759765625 19.13671875 C17.759491249721833 19.128178571733088 12.930324391350126 18.870381289199244 8 18 C7.670000000000002 17.340000000000003 7.340000000000003 16.680000000000007 7 16 C5.349999999999994 16 3.700000000000003 16 2 16 C0 11.25 0 11.25 0 9 C-0.6599999999999966 8.010000000000005 -1.3199999999999932 7.019999999999996 -2 6 C-1.4594594594594525 1.4594594594594525 -1.4594594594594525 1.4594594594594525 0 0 Z " fill="#0E6914" transform="translate(120,103)"/>
<path d="M0 0 C0 0.6599999999999966 0 1.3199999999999932 0 2 C10.889999999999986 2 21.78 2 33 2 C33.329999999999984 1.0100000000000051 33.66 0.01999999999999602 34 -1 C44.5897346966116 -0.8205129712438719 53.182652487950065 1.2738078770790935 63 5 C60 7 60 7 57.1875 6.75 C54 6 54 6 51.25 4.9375 C45.71009516044313 3.3394505270509 40.289767221799565 3.290338488158966 34.7734375 5 C30.994206026057782 6.001535463073722 27.862625068702584 6.258185979011401 23.96484375 6.265625 C22.660957031250007 6.268203124999999 21.357070312500014 6.270781249999999 20.013671875 6.2734375 C19.34392333984374 6.269248046875006 18.67417480468751 6.265058593749998 17.984130859375 6.2607421875 C15.938989998333938 6.250007820580549 13.894723749414595 6.260684658236059 11.849609375 6.2734375 C10.547011718750014 6.270859375000001 9.244414062499999 6.268281250000001 7.90234375 6.265625 C6.721481933593736 6.263369140625002 5.540620117187501 6.2611132812500045 4.323974609375 6.2587890625 C0.907541412987598 5.99280160835599 -1.7983986455369916 5.182244679316113 -5 4 C-11.687803332096536 3.0723369571608004 -16.827378409263744 4.341462901366498 -22.87109375 7.22265625 C-25 8 -25 8 -28 7 C-28.659999999999997 6.340000000000003 -29.319999999999993 5.680000000000007 -30 5 C-29.668066406250006 4.9033203125 -29.668066406250006 4.9033203125 -27.98828125 4.4140625 C-27.105273437500003 4.153671875000001 -26.222265625000006 3.893281250000001 -25.3125 3.625 C-24.4423828125 3.3697656249999994 -23.572265625 3.114531249999999 -22.67578125 2.8515625 C-20 2 -20 2 -17.515625 0.94140625 C-14.762820700405044 -0.08875809192916506 -12.361683196320712 -0.43941213494358067 -9.4375 -0.6875 C-8.508085937499999 -0.7738671875000023 -7.578671874999998 -0.8602343750000045 -6.62109375 -0.94921875 C-4.1737883800466165 -0.9966330120110172 -2.3220008365573506 -0.7266496735579437 0 0 Z " fill="#C6CBC7" transform="translate(128,119)"/>
<path d="M0 0 C7.866712596786556 0.4252277079344111 15.361901445306003 1.0246296841308578 23 3 C23 3.6599999999999966 23 4.319999999999993 23 5 C21.680000000000007 5.329999999999998 20.360000000000014 5.659999999999997 19 6 C21.807170795807508 9.119078662008349 24.10671674310663 10.526865794688987 28 12 C28.164999999999992 12.329999999999998 28.164999999999992 12.329999999999998 29 14 C26 16 26 16 23.8125 15.625 C23.21437499999999 15.418750000000003 22.616250000000008 15.212500000000006 22 15 C22.659999999999997 15 23.319999999999993 15 24 15 C23.835000000000008 14.670000000000002 23.835000000000008 14.670000000000002 23 13 C22.00999999999999 12.670000000000002 21.02000000000001 12.340000000000003 20 12 C19.670000000000016 11.340000000000003 19.340000000000003 10.680000000000007 19 10 C17.680000000000007 11.319999999999993 16.360000000000014 12.64 15 14 C14.010000000000005 13.670000000000002 13.019999999999996 13.340000000000003 12 13 C12.989999999999995 12.340000000000003 13.980000000000004 11.680000000000007 15 11 C15.329999999999998 10.010000000000005 15.659999999999997 9.019999999999996 16 8 C14.019999999999996 8.329999999999998 12.039999999999992 8.659999999999997 10 9 C9.340000000000003 7.680000000000007 8.680000000000007 6.359999999999999 8 5 C8.989999999999995 5 9.980000000000004 5 11 5 C11 4.340000000000003 11 3.680000000000007 11 3 C10.010000000000005 3.3299999999999983 9.019999999999996 3.6599999999999966 8 4 C7.25 6.1875 7.25 6.1875 7 9 C8.9375 11.8125 8.9375 11.8125 11 14 C10.670000000000002 14.164999999999992 10.670000000000002 14.164999999999992 9 15 C9.329999999999998 16.319999999999993 9.659999999999997 17.64 10 19 C6.700000000000003 19 3.4000000000000057 19 0 19 C-0.3299999999999983 18.010000000000005 -0.6599999999999966 17.019999999999996 -1 16 C-1.5568750000000051 16.288749999999993 -2.113749999999996 16.5775 -2.6875 16.875 C-5.084946452949694 18.041325301434995 -7.515969388867575 19.033988095670722 -10 20 C-10.329999999999998 18.019999999999996 -10.659999999999997 16.039999999999992 -11 14 C-10.010000000000005 13.670000000000002 -9.019999999999996 13.340000000000003 -8 13 C-8 14.319999999999993 -8 15.64 -8 17 C-6.173561203227052 15.98297147724999 -4.36414474030633 14.935331044613406 -2.5625 13.875 C-1.5531640625000023 13.294921875 -0.5438281250000045 12.71484375 0.49609375 12.1171875 C3 10 3 10 3.84765625 6.7578125 C3.897929687499996 5.847734375000002 3.948203124999992 4.937656250000003 4 4 C2.680000000000007 4 1.3599999999999994 4 0 4 C0 2.680000000000007 0 1.3599999999999994 0 0 Z " fill="#D6A114" transform="translate(112,100)"/>
<path d="M0 0 C4.776094977426226 1.6417826484902633 8.79382903710001 4.2654670166754585 13 7 C13 5.680000000000007 13 4.359999999999999 13 3 C13.659999999999997 3 14.319999999999993 3 15 3 C15 4.980000000000004 15 6.959999999999994 15 9 C15.948750000000018 9.309375000000003 16.89749999999998 9.618750000000006 17.875 9.9375 C20.99999999999997 10.999999999999986 20.99999999999997 10.999999999999986 23 12 C23 14.310000000000002 23 16.620000000000005 23 19 C-10.659999999999997 19 -44.31999999999999 19 -79 19 C-79 18.670000000000016 -79 18.340000000000003 -79 18 C-48.64 18 -18.28 18 13 18 C13 17.340000000000003 13 16.680000000000007 13 16 C13.659999999999997 15.670000000000002 14.319999999999993 15.340000000000003 15 15 C10.70999999999998 13.019999999999996 6.420000000000016 11.039999999999992 2 9 C2.6599999999999966 8.670000000000002 3.319999999999993 8.340000000000003 4 8 C3.625 6.062500000000071 3.625 6.062500000000071 3 4 C2.670000000000016 3.8349999999999937 2.670000000000016 3.8349999999999937 1 3 C0.6700000000000159 3.6599999999999966 0.3400000000000034 4.319999999999993 0 5 C-0.5625000000000284 3.0624999999998863 -0.5625000000000284 3.0624999999998863 -1 1 C-0.6700000000000159 0.6700000000000017 -0.3400000000000034 0.3400000000000034 0 0 Z " fill="#45641F" transform="translate(173,110)"/>
<path d="M0 0 C0.6599999999999966 0.3299999999999983 1.3199999999999932 0.6599999999999966 2 1 C1.670000000000016 2.319999999999993 1.3400000000000034 3.6400000000000006 1 5 C-0.6500000000000057 5 -2.3000000000000114 5 -4 5 C-4 5.659999999999997 -4 6.319999999999993 -4 7 C-2.680000000000007 7.329999999999998 -1.3600000000000136 7.659999999999997 0 8 C-1.375 10 -1.375 10 -3 12 C-3.6599999999999966 12 -4.319999999999993 12 -5 12 C-5 11.010000000000005 -5 10.019999999999996 -5 9 C-5.659999999999997 9 -6.319999999999993 9 -7 9 C-7.329999999999984 10.650000000000006 -7.659999999999997 12.299999999999997 -8 14 C-8.659999999999997 14 -9.319999999999993 14 -10 14 C-10.329999999999984 15.319999999999993 -10.659999999999997 16.64 -11 18 C-13.8125 18.25 -13.8125 18.25 -17 18 C-18.5625 16.125 -18.5625 16.125 -20 14 C-20.804374999999993 13.690624999999997 -21.608749999999986 13.381249999999994 -22.4375 13.0625 C-25.686411014534713 11.715390554949025 -26.99120721080385 9.827189851461242 -29 7 C-27.349999999999994 7 -25.69999999999999 7 -24 7 C-24 6.340000000000003 -24 5.680000000000007 -24 5 C-25.319999999999993 5 -26.639999999999986 5 -28 5 C-28.330000000000013 3.680000000000007 -28.659999999999997 2.3599999999999994 -29 1 C-28.00999999999999 1 -27.02000000000001 1 -26 1 C-26 1.9899999999999949 -26 2.980000000000004 -26 4 C-25.00999999999999 4 -24.02000000000001 4 -23 4 C-23 4.659999999999997 -23 5.319999999999993 -23 6 C-17.315065055390136 7.678161574038157 -11.62021946242453 7.389217977132304 -6.34765625 4.59375 C-4.165485791235312 3.13207500076426 -2.0606663326926764 1.6276277555326146 0 0 Z " fill="#C96A6B" transform="translate(159,98)"/>
<path d="M0 0 C0.3300000000000125 0 0.6599999999999966 0 1 0 C2.125 5.625 2.125 5.625 1 9 C1.990000000000009 8.670000000000002 2.9799999999999898 8.340000000000003 4 8 C3.6699999999999875 8.989999999999995 3.3400000000000034 9.980000000000004 3 11 C2.6699999999999875 11 2.3400000000000034 11 2 11 C1.875 17.625 1.875 17.625 3 21 C2.6699999999999875 21.33 2.3400000000000034 21.659999999999997 2 22 C1.75 24.4375 1.75 24.4375 2 27 C2.990000000000009 27.659999999999997 3.9799999999999898 28.319999999999993 5 29 C4.525624999999991 29.5775 4.05125000000001 30.155 3.5625 30.75 C2.051513303236959 32.925820843338784 1.4596384860238913 34.42602447826626 1 37 C2.319999999999993 37.33 3.6399999999999864 37.66 5 38 C4.340000000000003 38 3.680000000000007 38 3 38 C2.6699999999999875 39.31999999999999 2.3400000000000034 40.64 2 42 C-0.3100000000000023 42 -2.6200000000000045 42 -5 42 C-5 40.68000000000001 -5 39.36 -5 38 C-5.659999999999997 37.67 -6.319999999999993 37.34 -7 37 C-5.680000000000007 37 -4.360000000000014 37 -3 37 C-5.874999999999972 30.250000000000057 -5.874999999999972 30.250000000000057 -7 28 C-6.009999999999991 27.67 -5.02000000000001 27.340000000000003 -4 27 C-2.57457798656057 23.48339000277221 -2.680258242154821 19.495412878960195 -2.4375 15.75 C-2.3537109375000114 14.486718749999994 -2.2699218749999943 13.223437500000003 -2.18359375 11.921875 C-2.123007812499992 10.95765625 -2.0624218750000125 9.993437499999999 -2 9 C-1.3400000000000034 9 -0.6800000000000068 9 0 9 C0 6.030000000000001 0 3.0600000000000023 0 0 Z " fill="#C1A55A" transform="translate(146,62)"/>
<path d="M0 0 C0 2.8504627285356605 -0.44378366062542796 5.218918303127168 -1 8 C-1 8.989999999999995 -1 9.980000000000004 -1 11 C-1.6599999999999966 11 -2.319999999999993 11 -3 11 C-2.6699999999999875 12.319999999999993 -2.3400000000000034 13.64 -2 15 C-1.6699999999999875 14.010000000000005 -1.3400000000000034 13.019999999999996 -1 12 C0.3199999999999932 12.659999999999997 1.6399999999999864 13.319999999999993 3 14 C3 15.980000000000004 3 17.960000000000008 3 20 C2.009999999999991 20 1.0200000000000102 20 0 20 C0 21.980000000000004 0 23.960000000000008 0 26 C-1.9159548243451638 26.337400849570216 -3.832797224438167 26.669764115214235 -5.75 27 C-6.817343749999992 27.185625 -7.8846875000000125 27.371250000000003 -8.984375 27.5625 C-12 28 -12 28 -16 28 C-15.669999999999987 26.349999999999994 -15.340000000000003 24.700000000000003 -15 23 C-13.333333333333343 23 -11.666666666666657 23 -10 23 C-9.91749999999999 22.401875000000004 -9.835000000000008 21.803750000000008 -9.75 21.1875 C-9 19 -9 19 -6.9375 17.8125 C-5 16 -5 16 -4.66796875 13.953125 C-4.591418115898705 9.694126084545587 -4.862547210795981 6.7533670978422435 -7 3 C-4.689999999999998 2.010000000000005 -2.3799999999999955 1.019999999999996 0 0 Z " fill="#081F9B" transform="translate(176,74)"/>
<path d="M0 0 C0.2887499999999932 0.15468749999999432 0.2887499999999932 0.15468749999999432 1.75 0.9375 C3.842941835960545 1.9258336447591518 5.745352747985365 2.51686130313972 8 3 C7.670000000000002 3.6599999999999966 7.340000000000003 4.319999999999993 7 5 C5.677308991034735 8.96807302689578 5.657393667250645 11.820202740457944 6 16 C6.989999999999995 16.659999999999997 7.980000000000004 17.319999999999993 9 18 C9.45375 19.010625000000005 9.907499999999999 20.02125000000001 10.375 21.0625 C12 24 12 24 14.6875 24.875 C15.450625000000002 24.916250000000005 16.213750000000005 24.957499999999996 17 25 C17.329999999999984 25.989999999999995 17.659999999999997 26.980000000000004 18 28 C15.728588913825291 27.885979364234288 13.457854482832388 27.758414954411634 11.1875 27.625 C9.922929687500002 27.555390625 8.658359375000003 27.485781250000002 7.35546875 27.4140625 C4 27 4 27 1 25 C0.8125 22.375 0.8125 22.375 1 20 C0.010000000000005116 20 -0.980000000000004 20 -2 20 C-2 18.019999999999996 -2 16.039999999999992 -2 14 C-0.6800000000000068 13.340000000000003 0.6400000000000006 12.680000000000007 2 12 C2.3299999999999983 12.989999999999995 2.6599999999999966 13.980000000000004 3 15 C3.3299999999999983 13.680000000000007 3.6599999999999966 12.36 4 11 C3.3400000000000034 11 2.680000000000007 11 2 11 C2.041250000000005 9.927499999999995 2.082499999999996 8.855000000000004 2.125 7.75 C2.011417504990092 4.342525149702837 1.787266364431673 2.7926036944245 0 0 Z " fill="#172B99" transform="translate(113,74)"/>
<path d="M0 0 C1.3199999999999932 0.6599999999999966 2.6400000000000006 1.3199999999999932 4 2 C4 2.6599999999999966 4 3.319999999999993 4 4 C4.556875000000005 4.226875000000007 5.113749999999996 4.453749999999999 5.6875 4.6875 C8.784237795056114 6.445107937734548 10.769133343745068 8.211416679681335 13 11 C13.3125 14.8125 13.3125 14.8125 13 18 C9.6875 18.25 9.6875 18.25 6 18 C4.0625 16.1875 4.0625 16.1875 3 14 C3 13.010000000000005 3 12.019999999999996 3 11 C1.6800000000000068 10.340000000000003 0.35999999999999943 9.680000000000007 -1 9 C-1.09765625 2.84765625 -1.09765625 2.84765625 -1 1 C-0.6700000000000017 0.6700000000000017 -0.3400000000000034 0.3400000000000034 0 0 Z " fill="#07219A" transform="translate(119,81)"/>
<path d="M0 0 C0.9900000000000091 0 1.9799999999999898 0 3 0 C2.934895833333343 2.0182291666666643 2.869791666666657 4.036458333333336 2.8046875 6.0546875 C3 8 3 8 5 10 C4.340000000000003 10 3.680000000000007 10 3 10 C3 10.659999999999997 3 11.32 3 12 C1.6800000000000068 11.670000000000002 0.36000000000001364 11.340000000000003 -1 11 C-1 10.340000000000003 -1 9.68 -1 9 C-3.3100000000000023 9.329999999999998 -5.6200000000000045 9.659999999999997 -8 10 C-7.009999999999991 10.329999999999998 -6.02000000000001 10.659999999999997 -5 11 C-5 13 -5 13 -7.5 15.625 C-8.324999999999989 16.408749999999998 -9.150000000000006 17.192499999999995 -10 18 C-9.340000000000003 18.33 -8.680000000000007 18.659999999999997 -8 19 C-8 19.659999999999997 -8 20.319999999999993 -8 21 C-9.97999999999999 20.67 -11.960000000000008 20.340000000000003 -14 20 C-13.387223883222873 17.03824876891059 -12.746274781959244 15.619412172938873 -11 13 C-11.990000000000009 13.329999999999998 -12.97999999999999 13.659999999999997 -14 14 C-14 14.659999999999997 -14 15.32 -14 16 C-14.990000000000009 16.33 -15.97999999999999 16.659999999999997 -17 17 C-16.1875 14.5625 -16.1875 14.5625 -15 12 C-14.009999999999991 11.670000000000002 -13.02000000000001 11.340000000000003 -12 11 C-13.319999999999993 10.340000000000003 -14.639999999999986 9.68 -16 9 C-13.602368148253078 6.602368148253078 -12.667265017368152 6.657194144345844 -9.375 6.375 C-8.557734374999995 6.300234375000002 -7.740468749999991 6.225468749999997 -6.8984375 6.1484375 C-6.27195312500001 6.099453124999997 -5.645468749999992 6.05046875 -5 6 C-5 5.009999999999998 -5 4.019999999999996 -5 3 C-3.680000000000007 3.6599999999999966 -2.3600000000000136 4.32 -1 5 C-0.6700000000000159 4.670000000000002 -0.3400000000000034 4.340000000000003 0 4 C0 2.6799999999999997 0 1.3599999999999994 0 0 Z " fill="#467249" transform="translate(144,48)"/>
<path d="M0 0 C0.3300000000000125 0 0.6599999999999966 0 1 0 C1.6300315015750755 9.012950647532378 1.6300315015750755 9.012950647532378 -0.875 12.9375 C-1.5762499999999875 13.618124999999992 -2.2775000000000034 14.298749999999998 -3 15 C-3.3300000000000125 15.495000000000005 -3.3300000000000125 15.495000000000005 -5 18 C-5.577499999999986 17.835000000000008 -6.155000000000001 17.67 -6.75 17.5 C-9 17 -9 17 -13 17 C-13.4375 14.9375 -13.4375 14.9375 -13 12 C-10.461752744795263 8.74153382665176 -7.634183874989702 5.789855539578355 -3.890625 3.98046875 C-2 3 -2 3 0 0 Z " fill="#031F9E" transform="translate(171,80)"/>
<path d="M0 0 C0.3300000000000125 0.9899999999999949 0.6599999999999966 1.980000000000004 1 3 C2.319999999999993 2.3400000000000034 3.6399999999999864 1.6800000000000068 5 1 C5.05429278360171 3.7086066485745306 5.093812110308818 6.416109009679005 5.125 9.125 C5.1333789062499875 9.505273437499994 5.1333789062499875 9.505273437499994 5.17578125 11.4296875 C5.215462455278271 16.032707312279655 4.75907576836164 19.66464003545518 3 24 C0.37098712180986126 22.477939912626752 -1.8436596381261836 21.156340361873816 -4 19 C-4.397642626135138 17.011786869324254 -4.737753485817734 15.010556608730624 -5 13 C-4.340000000000003 13 -3.680000000000007 13 -3 13 C-2.6699999999999875 12.010000000000005 -2.3400000000000034 11.019999999999996 -2 10 C-1.6699999999999875 10 -1.3400000000000034 10 -1 10 C-0.6699999999999875 9.010000000000005 -0.3400000000000034 8.019999999999996 0 7 C0.9900000000000091 8.980000000000004 1.9799999999999898 10.960000000000008 3 13 C3.3300000000000125 10.36 3.6599999999999966 7.719999999999999 4 5 C2.680000000000007 4.670000000000002 1.3600000000000136 4.340000000000003 0 4 C0 2.680000000000007 0 1.3599999999999994 0 0 Z " fill="#D0CABD" transform="translate(139,67)"/>
<path d="M0 0 C2.0721378285879553 2.233865659111885 2.9454155956840395 3.5196572420195054 3.29296875 6.578125 C3.2581640624999864 7.4598437500000045 3.223359375000001 8.341562499999995 3.1875 9.25 C3.160429687499999 10.142031250000002 3.1333593749999977 11.034062500000005 3.10546875 11.953125 C3.0706640624999864 12.628593749999993 3.035859375000001 13.3040625 3 14 C2.3400000000000034 14 1.6800000000000068 14 1 14 C0.6699999999999875 13.340000000000003 0.3400000000000034 12.680000000000007 0 12 C-0.9900000000000091 12.329999999999998 -1.9799999999999898 12.659999999999997 -3 13 C-3.3300000000000125 11.349999999999994 -3.6599999999999966 9.700000000000003 -4 8 C-4.990000000000009 8 -5.97999999999999 8 -7 8 C-7 8.659999999999997 -7 9.319999999999993 -7 10 C-7.990000000000009 10.329999999999998 -8.97999999999999 10.659999999999997 -10 11 C-8.796185519900803 8.506384291223085 -7.545712781471934 6.31856917220788 -6 4 C-7 3 -7 3 -10 1 C-3.2948602344454514 -1.5906221821460775 -3.2948602344454514 -1.5906221821460775 0 0 Z " fill="#055C0D" transform="translate(143,57)"/>
<path d="M0 0 C0 1.3199999999999932 0 2.6400000000000006 0 4 C-1.3199999999999932 4 -2.6399999999999864 4 -4 4 C-4 4.928124999999994 -4 5.856250000000003 -4 6.8125 C-4 8.875 -4 10.9375 -4 13 C-3.009999999999991 13.329999999999998 -2.0200000000000102 13.659999999999997 -1 14 C-0.6699999999999875 15.650000000000006 -0.3400000000000034 17.299999999999997 0 19 C-2.3100000000000023 18.67 -4.6200000000000045 18.340000000000003 -7 18 C-7.103125000000006 17.360625 -7.206250000000011 16.721249999999998 -7.3125 16.0625 C-7.539375000000007 15.381875000000008 -7.766250000000014 14.701250000000002 -8 14 C-8.990000000000009 13.670000000000002 -9.97999999999999 13.340000000000003 -11 13 C-9.680000000000007 11.680000000000007 -8.360000000000014 10.36 -7 9 C-7.3300000000000125 8.010000000000005 -7.659999999999997 7.019999999999996 -8 6 C-8.330000000000013 6.659999999999997 -8.659999999999997 7.319999999999993 -9 8 C-9.990000000000009 7.670000000000002 -10.97999999999999 7.340000000000003 -12 7 C-11.009999999999991 5.680000000000007 -10.02000000000001 4.359999999999999 -9 3 C-10.319999999999993 2.3400000000000034 -11.639999999999986 1.6800000000000068 -13 1 C-8.624260484250954 0.40667938769504985 -4.424715559672222 -0.13827236123975695 0 0 Z " fill="#E7B021" transform="translate(178,100)"/>
<path d="M0 0 C1.9799999999999898 0.6599999999999966 3.960000000000008 1.3199999999999932 6 2 C5.340000000000003 3.319999999999993 4.680000000000007 4.640000000000001 4 6 C4.3300000000000125 5.670000000000002 4.659999999999997 5.340000000000003 5 5 C5.990000000000009 5 6.97999999999999 5 8 5 C7.125 9.75 7.125 9.75 6 12 C6.25 14 6.25 14 7 16 C7.990000000000009 16.659999999999997 8.97999999999999 17.319999999999993 10 18 C8.02000000000001 18 6.039999999999992 18 4 18 C3.6699999999999875 17.340000000000003 3.3400000000000034 16.680000000000007 3 16 C2.3400000000000034 16 1.6800000000000068 16 1 16 C1 15.010000000000005 1 14.019999999999996 1 13 C0.36062499999999886 12.752499999999998 -0.2787500000000023 12.504999999999995 -0.9375 12.25 C-3 11 -3 11 -3.75 8.875 C-3.8325000000000102 8.256249999999994 -3.914999999999992 7.637500000000003 -4 7 C-3.1750000000000114 7.659999999999997 -3.1750000000000114 7.659999999999997 1 11 C0.6699999999999875 9.019999999999996 0.3400000000000034 7.040000000000006 0 5 C-0.6599999999999966 5 -1.3199999999999932 5 -2 5 C-2 4.010000000000005 -2 3.019999999999996 -2 2 C-1.3400000000000034 2 -0.6800000000000068 2 0 2 C0 1.3400000000000034 0 0.6800000000000068 0 0 Z " fill="#D2A115" transform="translate(164,101)"/>
<path d="M0 0 C3 1 3 1 4 3 C4.2578125 3.3299999999999983 4.2578125 3.3299999999999983 5.5625 5 C7 7 7 7 7 9 C3.700000000000003 9 0.4000000000000057 9 -3 9 C-3.3299999999999983 8.010000000000005 -3.6599999999999966 7.019999999999996 -4 6 C-4.556875000000005 6.288749999999993 -5.113749999999996 6.577500000000001 -5.6875 6.875 C-8.084946452949694 8.041325301434995 -10.515969388867575 9.033988095670722 -13 10 C-13.329999999999998 8.019999999999996 -13.659999999999997 6.040000000000006 -14 4 C-13.010000000000005 3.6700000000000017 -12.019999999999996 3.3400000000000034 -11 3 C-11 4.319999999999993 -11 5.640000000000001 -11 7 C-10.620371093749995 6.741542968749997 -10.620371093749995 6.741542968749997 -8.69921875 5.43359375 C-7.705351562499999 4.774882812499996 -6.711484374999998 4.116171875000006 -5.6875 3.4375 C-4.701367187499997 2.7762109374999966 -3.7152343749999943 2.114921874999993 -2.69921875 1.43359375 C-1.8084765625000045 0.9605078124999977 -0.9177343749999949 0.48742187499999545 0 0 Z " fill="#AE9815" transform="translate(115,110)"/>
<path d="M0 0 C2.3100000000000023 1.6499999999999986 4.6200000000000045 3.299999999999997 7 5 C6.6699999999999875 5.494999999999997 6.6699999999999875 5.494999999999997 5 8 C5.3300000000000125 8.990000000000002 5.659999999999997 9.980000000000004 6 11 C2.6999999999999886 10.340000000000003 -0.5999999999999943 9.68 -4 9 C-4 8.340000000000003 -4 7.68 -4 7 C-4.990000000000009 7 -5.97999999999999 7 -7 7 C-6.6699999999999875 5.68 -6.340000000000003 4.359999999999999 -6 3 C-5.195625000000007 2.876249999999999 -4.391250000000014 2.7524999999999977 -3.5625 2.625 C-2.7168749999999875 2.418750000000003 -1.8712500000000034 2.2124999999999986 -1 2 C-0.6699999999999875 1.3400000000000034 -0.3400000000000034 0.6799999999999997 0 0 Z " fill="#78937A" transform="translate(157,51)"/>
<path d="M0 0 C0.9900000000000091 0 1.9799999999999898 0 3 0 C3 0.9899999999999949 3 1.980000000000004 3 3 C3.990000000000009 3 4.97999999999999 3 6 3 C6 3.6599999999999966 6 4.319999999999993 6 5 C7.650000000000006 5.329999999999998 9.300000000000011 5.659999999999997 11 6 C11 8.310000000000002 11 10.620000000000005 11 13 C5.586573186382196 11.854852020196233 3.0657052026563747 10.659871908037687 0 6 C1.6500000000000057 6 3.3000000000000114 6 5 6 C5 5.340000000000003 5 4.680000000000007 5 4 C3.680000000000007 4 2.3600000000000136 4 1 4 C0.6699999999999875 2.680000000000007 0.3400000000000034 1.3599999999999994 0 0 Z " fill="#646E21" transform="translate(130,99)"/>
<path d="M0 0 C3.6299999999999955 0.3299999999999983 7.260000000000005 0.6599999999999966 11 1 C10.319375000000008 1.7218749999999972 9.638750000000002 2.4437499999999943 8.9375 3.1875 C7 6 7 6 7.0625 8.625 C8.035002462117035 11.088672904029835 8.975172344842477 12.327316284869866 11 14 C9.019999999999996 14 7.040000000000006 14 5 14 C4.670000000000002 10.700000000000003 4.340000000000003 7.400000000000006 4 4 C2.680000000000007 4 1.3599999999999994 4 0 4 C0 2.680000000000007 0 1.3599999999999994 0 0 Z " fill="#CF9D1F" transform="translate(112,100)"/>
<path d="M0 0 C0.9899999999999949 0 1.980000000000004 0 3 0 C3 0.6599999999999966 3 1.3199999999999932 3 2 C2.6700000000000017 2.1650000000000063 2.6700000000000017 2.1650000000000063 1 3 C1.3299999999999983 3.6599999999999966 1.6599999999999966 4.319999999999993 2 5 C3.980000000000004 5 5.959999999999994 5 8 5 C7.426550627136052 7.867246864319711 7.138548496131733 8.861451503868267 5 11 C5 11.989999999999995 5 12.980000000000004 5 14 C4.340000000000003 14 3.680000000000007 14 3 14 C1.9422826148549603 12.369352364568073 0.9472695432815641 10.697191265046143 0 9 C-0.6599999999999966 8.010000000000005 -1.3199999999999932 7.019999999999996 -2 6 C-1.4594594594594525 1.4594594594594525 -1.4594594594594525 1.4594594594594525 0 0 Z " fill="#818614" transform="translate(120,103)"/>
<path d="M0 0 C0.3300000000000125 1.980000000000004 0.6599999999999966 3.9599999999999937 1 6 C-0.4772917467898594 7.0027677311543215 -1.9568857657199032 8.00214454101561 -3.4375 9 C-3.849355468749991 9.278437499999995 -3.849355468749991 9.278437499999995 -5.93359375 10.6875 C-8 12 -8 12 -9 12 C-9 10.349999999999994 -9 8.700000000000003 -9 7 C-8.340000000000003 7 -7.680000000000007 7 -7 7 C-6.731875000000002 6.401875000000004 -6.4637500000000045 5.803749999999994 -6.1875 5.1875 C-3.3714285714285666 0 -3.3714285714285666 0 0 0 Z " fill="#C60C35" transform="translate(158,93)"/>
<path d="M0 0 C0 2.8504627285356747 -0.44378366062542796 5.218918303127168 -1 8 C-1 8.989999999999995 -1 9.980000000000004 -1 11 C-1.6599999999999966 11 -2.319999999999993 11 -3 11 C-2.8968749999999943 11.866250000000008 -2.7937499999999886 12.732500000000002 -2.6875 13.625 C-3.114589432254121 18.237565868344433 -4.8504234207113655 19.692944591746937 -8 23 C-8.330000000000013 21.680000000000007 -8.659999999999997 20.36 -9 19 C-8.669999999999987 18.845312500000006 -8.669999999999987 18.845312500000006 -7 18.0625 C-4.621606176323127 15.609781369333234 -4.679487476023155 14.87533854220834 -4.625 11.5625 C-4.682310128052109 8.17547143212009 -5.322939374056347 5.944918459157037 -7 3 C-4.689999999999998 2.010000000000005 -2.3799999999999955 1.019999999999996 0 0 Z " fill="#866370" transform="translate(176,74)"/>
<path d="M0 0 C8.462720460635325 -0.5997203476040767 15.126499118683654 0.9220520114923829 23 4 C20 6 20 6 17.1875 5.75 C14 5 14 5 11.0625 4 C8 3 8 3 4.1875 2.5 C3.1356250000000045 2.3349999999999937 2.083750000000009 2.1700000000000017 1 2 C0.6699999999999875 1.3400000000000034 0.3400000000000034 0.6800000000000068 0 0 Z " fill="#E8E8E8" transform="translate(168,120)"/>
<path d="M0 0 C0.501445312499996 0.0045117187499954525 0.501445312499996 0.0045117187499954525 3.0390625 0.02734375 C3.8099218750000006 0.03894531250000455 4.580781250000001 0.050546874999994884 5.375 0.0625 C5.045000000000002 0.7224999999999966 4.715000000000003 1.3824999999999932 4.375 2.0625 C2.3359375 2.58984375 2.3359375 2.58984375 -0.25 3 C-3.597490571439181 3.593832376049292 -6.486062648616851 4.300714738106436 -9.5625 5.75 C-12.625 7.0625 -12.625 7.0625 -15.625 6.0625 C-16.284999999999997 5.402500000000003 -16.944999999999993 4.742500000000007 -17.625 4.0625 C-16.926328124999998 3.8575390624999955 -16.227656249999995 3.652578125000005 -15.5078125 3.44140625 C-14.597734375000002 3.1719921874999955 -13.687656250000003 2.902578125000005 -12.75 2.625 C-11.845078125 2.358164062499995 -10.940156250000001 2.091328125000004 -10.0078125 1.81640625 C-6.268855203125199 0.633424679021573 -4.031012354026288 -0.04687223667473006 0 0 Z " fill="#E9E9E9" transform="translate(115.625,119.9375)"/>
<path d="M0 0 C0.3300000000000125 1.3199999999999932 0.6599999999999966 2.6400000000000006 1 4 C1.6599999999999966 3.6700000000000017 2.319999999999993 3.3400000000000034 3 3 C1.0570652173913118 10.921195652173907 1.0570652173913118 10.921195652173907 -2 13 C-2.990000000000009 13 -3.9799999999999898 13 -5 13 C-4.514214567240913 9.877093646548701 -4.0013988040365405 7.004196412109579 -3 4 C-2.3400000000000034 4 -1.6800000000000068 4 -1 4 C-0.6699999999999875 2.680000000000007 -0.3400000000000034 1.3599999999999994 0 0 Z " fill="#DDDBD8" transform="translate(153,77)"/>
<path d="M0 0 C2.75 -0.25 2.75 -0.25 6 0 C8.0625 1.875 8.0625 1.875 10 4 C11.655832248952862 4.69313908095701 13.321109787249952 5.364744243824305 15 6 C15.329999999999984 6.659999999999997 15.659999999999997 7.319999999999993 16 8 C13 10 13 10 10.8125 9.625 C10.21437499999999 9.418750000000003 9.616250000000008 9.212500000000006 9 9 C9.659999999999997 9 10.319999999999993 9 11 9 C10.669999999999987 8.340000000000003 10.340000000000003 7.680000000000007 10 7 C9.009999999999991 6.670000000000002 8.02000000000001 6.340000000000003 7 6 C6.6699999999999875 5.340000000000003 6.340000000000003 4.680000000000007 6 4 C4.680000000000007 5.319999999999993 3.3600000000000136 6.640000000000001 2 8 C1.0100000000000051 7.670000000000002 0.01999999999999602 7.340000000000003 -1 7 C0.6500000000000057 5.349999999999994 2.299999999999997 3.700000000000003 4 2 C2.680000000000007 1.3400000000000034 1.3599999999999994 0.6800000000000068 0 0 Z " fill="#EDB015" transform="translate(125,106)"/>
<path d="M0 0 C2.6252718872501077 -0.05382106374771922 5.24944712725727 -0.0935831280184658 7.875 -0.125 C8.621367187499999 -0.1417578125000034 9.367734374999998 -0.15851562500000682 10.13671875 -0.17578125 C12.091944613117192 -0.19339589741547059 14.047420213868804 -0.10320189144457004 16 0 C16.659999999999997 0.6599999999999966 17.319999999999993 1.3199999999999932 18 2 C14.934668356387846 3.532665821806077 11.732457280826168 3.1027647090873955 8.375 3.0625 C7.668593750000014 3.0579882812500045 6.962187499999999 3.053476562499995 6.234375 3.048828125 C4.489547249132045 3.0370387483049512 2.7447630027167804 3.0191032445552963 1 3 C0.6699999999999875 2.010000000000005 0.3400000000000034 1.019999999999996 0 0 Z " fill="#DFDFDF" transform="translate(138,122)"/>
<path d="M0 0 C0.9899999999999949 0.3299999999999983 1.980000000000004 0.6599999999999966 3 1 C3 1.6599999999999966 3 2.319999999999993 3 3 C2.3812499999999943 3.123750000000001 1.7625000000000028 3.2475000000000023 1.125 3.375 C-1 4 -1 4 -3 6 C-4.52077040487265 6.752149983637381 -6.06557294512902 7.456674119341002 -7.625 8.125 C-8.442265625000005 8.478203124999993 -9.259531249999995 8.83140625 -10.1015625 9.1953125 C-10.728046875000004 9.460859374999998 -11.354531249999994 9.726406249999997 -12 10 C-13.0625 8.1875 -13.0625 8.1875 -14 6 C-13.670000000000002 5.010000000000005 -13.340000000000003 4.019999999999996 -13 3 C-12.340000000000003 3 -11.680000000000007 3 -11 3 C-11 4.319999999999993 -11 5.640000000000001 -11 7 C-10.620371093749995 6.741542968749997 -10.620371093749995 6.741542968749997 -8.69921875 5.43359375 C-7.705351562499999 4.774882812499996 -6.711484374999998 4.116171875000006 -5.6875 3.4375 C-4.701367187499997 2.7762109374999966 -3.7152343749999943 2.114921874999993 -2.69921875 1.43359375 C-1.8084765625000045 0.9605078124999977 -0.9177343749999949 0.48742187499999545 0 0 Z " fill="#246B16" transform="translate(115,110)"/>
<path d="M0 0 C0.2887499999999932 0.15468749999999432 0.2887499999999932 0.15468749999999432 1.75 0.9375 C3.842941835960559 1.9258336447591518 5.745352747985365 2.51686130313972 8 3 C7.670000000000002 3.6599999999999966 7.340000000000003 4.319999999999993 7 5 C5.698601402377548 8.90419579286737 5.797781301055608 11.888219788130598 6 16 C6.329999999999998 16.659999999999997 6.659999999999997 17.319999999999993 7 18 C6.010000000000005 17.67 5.019999999999996 17.340000000000003 4 17 C4 15.019999999999996 4 13.039999999999992 4 11 C3.3400000000000034 11 2.680000000000007 11 2 11 C2.041250000000005 9.927499999999995 2.082499999999996 8.855000000000004 2.125 7.75 C2.011417504990092 4.342525149702837 1.787266364431673 2.7926036944245 0 0 Z " fill="#7F5868" transform="translate(113,74)"/>
<path d="M0 0 C0.9900000000000091 0 1.9799999999999898 0 3 0 C2.934895833333343 2.0182291666666643 2.869791666666657 4.036458333333336 2.8046875 6.0546875 C3 8 3 8 5 10 C4.340000000000003 10 3.680000000000007 10 3 10 C3 10.659999999999997 3 11.32 3 12 C1.6800000000000068 11.670000000000002 0.36000000000001364 11.340000000000003 -1 11 C-1 10.340000000000003 -1 9.68 -1 9 C-1.6599999999999966 8.670000000000002 -2.319999999999993 8.340000000000003 -3 8 C-3 7.340000000000003 -3 6.68 -3 6 C-3.3300000000000125 5.340000000000003 -3.6599999999999966 4.68 -4 4 C-3.3400000000000034 4.329999999999998 -3.3400000000000034 4.329999999999998 0 6 C0 4.019999999999996 0 2.039999999999999 0 0 Z " fill="#196724" transform="translate(144,48)"/>
<path d="M0 0 C2.5108311407791177 1.2554155703895518 2.871254460555974 2.500634876945341 4 5 C2.4424065680239835 5.535328228077198 0.8786195499231155 6.052653781557879 -0.6875 6.5625 C-1.5576171875 6.8525390625 -2.427734375 7.142578125 -3.32421875 7.44140625 C-6.246310738397881 8.051419614001304 -8.144005528713649 7.777036333629262 -11 7 C-9 4 -9 4 -6.8359375 3.48828125 C-6.023828124999994 3.4302734374999986 -5.211718749999989 3.372265624999997 -4.375 3.3125 C-3.5577343749999955 3.2467578125000003 -2.740468749999991 3.1810156250000006 -1.8984375 3.11328125 C-1.2719531250000102 3.075898437500001 -0.645468749999992 3.0385156250000023 0 3 C0 2.009999999999998 0 1.0200000000000031 0 0 Z " fill="#517A53" transform="translate(139,51)"/>
<path d="M0 0 C0.3300000000000125 0.6599999999999966 0.6599999999999966 1.3199999999999932 1 2 C3.0625 2.625 3.0625 2.625 5 3 C3.625 5 3.625 5 2 7 C1.3400000000000034 7 0.6800000000000068 7 0 7 C0 6.010000000000005 0 5.019999999999996 0 4 C-0.6599999999999966 4 -1.3199999999999932 4 -2 4 C-2.3300000000000125 5.650000000000006 -2.6599999999999966 7.299999999999997 -3 9 C-3.6599999999999966 9 -4.319999999999993 9 -5 9 C-5 7.019999999999996 -5 5.040000000000006 -5 3 C-3.3499999999999943 3 -1.6999999999999886 3 0 3 C0 2.010000000000005 0 1.019999999999996 0 0 Z " fill="#4A6218" transform="translate(154,103)"/>
<path d="M0 0 C0.6599999999999966 0 1.3199999999999932 0 2 0 C2 5.939999999999998 2 11.879999999999995 2 18 C1.009999999999991 17.67 0.020000000000010232 17.340000000000003 -1 17 C-0.6699999999999875 11.39 -0.3400000000000034 5.780000000000001 0 0 Z " fill="#BB8A0A" transform="translate(144,71)"/>
<path d="M0 0 C2.3100000000000023 0 4.6200000000000045 0 7 0 C6.6699999999999875 1.980000000000004 6.340000000000003 3.9599999999999937 6 6 C4.349999999999994 6 2.6999999999999886 6 1 6 C0.6699999999999875 4.019999999999996 0.3400000000000034 2.0400000000000063 0 0 Z " fill="#D39118" transform="translate(142,108)"/>
<path d="M0 0 C0.6599999999999966 0.3299999999999983 0.6599999999999966 0.3299999999999983 4 2 C4 2.6599999999999966 4 3.319999999999993 4 4 C5.319999999999993 4 6.640000000000001 4 8 4 C7.625 5.9375 7.625 5.9375 7 8 C6.670000000000002 8.164999999999992 6.670000000000002 8.164999999999992 5 9 C4.670000000000002 9.495000000000005 4.670000000000002 9.495000000000005 3 12 C1.875 8.25 1.875 8.25 3 6 C2.0655346518145308 3.968553590901152 1.0677522446204506 1.9646641301016246 0 0 Z " fill="#A16258" transform="translate(121,68)"/>
<path d="M0 0 C0.6599999999999966 0.3299999999999983 1.3199999999999932 0.6599999999999966 2 1 C1.484375 1.9074999999999989 0.96875 2.8149999999999977 0.4375 3.75 C-1 7 -1 7 -0.6875 9.375 C-0.4606249999999932 9.911249999999995 -0.23374999999998636 10.447500000000005 0 11 C-0.3300000000000125 11.164999999999992 -0.3300000000000125 11.164999999999992 -2 12 C-2.288749999999993 11.360624999999999 -2.5774999999999864 10.721249999999998 -2.875 10.0625 C-4 8 -4 8 -6 7 C-6 6.010000000000005 -6 5.019999999999996 -6 4 C-4.680000000000007 4 -3.3600000000000136 4 -2 4 C-1.3400000000000034 2.680000000000007 -0.6800000000000068 1.3599999999999994 0 0 Z " fill="#A16156" transform="translate(167,68)"/>
<path d="M0 0 C0.6599999999999966 0.3299999999999983 1.3199999999999932 0.6599999999999966 2 1 C2 1.6599999999999966 2 2.3200000000000003 2 3 C2.467676694888951 4.386327345563714 2.971834045002794 5.760571282923905 3.5 7.125 C3.7784374999999955 7.849453124999997 4.056874999999991 8.573906249999993 4.34375 9.3203125 C4.560312500000009 9.874609375000006 4.77687499999999 10.428906249999997 5 11 C4.340000000000003 11 3.680000000000007 11 3 11 C2.6699999999999875 10.340000000000003 2.3400000000000034 9.680000000000007 2 9 C1.009999999999991 9.329999999999998 0.020000000000010232 9.659999999999997 -1 10 C-2.25 3.375 -2.25 3.375 0 0 Z " fill="#2D6E31" transform="translate(141,60)"/>
<path d="M0 0 C4 2.6666666666666714 8 5.333333333333329 12 8 C11.010000000000005 8.989999999999995 10.019999999999996 9.980000000000004 9 11 C8.381249999999994 10.216250000000002 7.762500000000003 9.432500000000005 7.125 8.625 C5 6 5 6 3 4 C1.6800000000000068 4 0.35999999999999943 4 -1 4 C-0.6700000000000017 2.680000000000007 -0.3400000000000034 1.3599999999999994 0 0 Z " fill="#C8A5A4" transform="translate(103,102)"/>
<path d="M0 0 C0.3300000000000125 1.6500000000000057 0.6599999999999966 3.299999999999997 1 5 C-1.3100000000000023 4.670000000000002 -3.6200000000000045 4.340000000000003 -6 4 C-6 2.680000000000007 -6 1.3599999999999994 -6 0 C-3 -1 -3 -1 0 0 Z " fill="#BB9C15" transform="translate(177,114)"/>
<path d="M0 0 C0.6599999999999966 0.3299999999999983 0.6599999999999966 0.3299999999999983 4 2 C4 2.6599999999999966 4 3.319999999999993 4 4 C4.990000000000009 4 5.97999999999999 4 7 4 C7 4.659999999999997 7 5.319999999999993 7 6 C5.680000000000007 5.670000000000002 4.360000000000014 5.340000000000003 3 5 C2.6699999999999875 6.319999999999993 2.3400000000000034 7.640000000000001 2 9 C1.3400000000000034 9 0.6800000000000068 9 0 9 C0 6.030000000000001 0 3.0600000000000023 0 0 Z " fill="#3F7642" transform="translate(147,62)"/>
<path d="M0 0 C0.9900000000000091 0.16500000000000625 0.9900000000000091 0.16500000000000625 6 1 C6.3300000000000125 1.9899999999999949 6.659999999999997 2.980000000000004 7 4 C3.6999999999999886 4 0.4000000000000057 4 -3 4 C-2.3400000000000034 3.6700000000000017 -1.6800000000000068 3.3400000000000034 -1 3 C-0.6699999999999875 2.010000000000005 -0.3400000000000034 1.019999999999996 0 0 Z " fill="#B2B9B3" transform="translate(132,121)"/>
<path d="M0 0 C0.9899999999999949 0 1.980000000000004 0 3 0 C3 0.6599999999999966 3 1.3199999999999932 3 2 C2.6700000000000017 2.1650000000000063 2.6700000000000017 2.1650000000000063 1 3 C1.3299999999999983 3.4950000000000045 1.3299999999999983 3.4950000000000045 3 6 C3 6.989999999999995 3 7.980000000000004 3 9 C1.6800000000000068 8.670000000000002 0.35999999999999943 8.340000000000003 -1 8 C-1.625 5.6875 -1.625 5.6875 -2 3 C-1.3400000000000034 2.010000000000005 -0.6800000000000068 1.019999999999996 0 0 Z " fill="#606A36" transform="translate(120,103)"/>
<path d="M0 0 C0.3300000000000125 0.9899999999999949 0.6599999999999966 1.980000000000004 1 3 C2.319999999999993 2.3400000000000034 3.6399999999999864 1.6800000000000068 5 1 C5 6.609999999999999 5 12.219999999999999 5 18 C4.340000000000003 17.340000000000003 3.680000000000007 16.680000000000007 3 16 C3.0234375 13.3984375 3.0234375 13.3984375 3.375 10.375 C3.4858593749999898 9.372109375000008 3.596718750000008 8.369218750000002 3.7109375 7.3359375 C3.806328124999993 6.565078124999999 3.9017187499999864 5.794218749999999 4 5 C2.680000000000007 4.670000000000002 1.3600000000000136 4.340000000000003 0 4 C0 2.680000000000007 0 1.3599999999999994 0 0 Z " fill="#C1BBAE" transform="translate(139,67)"/>
<path d="M0 0 C1.675429756312269 0.2860489827850188 3.343853426426705 0.6178123291753934 5 1 C5 2.319999999999993 5 3.6400000000000006 5 5 C2.6899999999999977 5.329999999999998 0.37999999999999545 5.659999999999997 -2 6 C-1.125 1.125 -1.125 1.125 0 0 Z " fill="#242F89" transform="translate(162,96)"/>
<path d="M0 0 C-0.6599999999999966 0 -1.3199999999999932 0 -2 0 C-2 0.9899999999999949 -2 1.980000000000004 -2 3 C-1.009999999999991 2.6700000000000017 -0.020000000000010232 2.3400000000000034 1 2 C1 2.989999999999995 1 3.980000000000004 1 5 C-0.6500000000000057 4.670000000000002 -2.3000000000000114 4.340000000000003 -4 4 C-4 3.010000000000005 -4 2.019999999999996 -4 1 C-5.650000000000006 1.3299999999999983 -7.300000000000011 1.6599999999999966 -9 2 C-9 1.3400000000000034 -9 0.6800000000000068 -9 0 C-5.6218257538743615 -0.8445435615314096 -3.3253475651987117 -1.1084491883995753 0 0 Z " fill="#E1A815" transform="translate(164,103)"/>
<path d="M0 0 C7.25 7.25 7.25 7.25 8 11 C5.370987121809861 9.477939912626752 3.1563403618738164 8.156340361873802 1 6 C0.6023573738648622 4.011786869324254 0.26224651418226586 2.0105566087306244 0 0 Z " fill="#D3C6AA" transform="translate(134,80)"/>
<path d="M0 0 C2 3 2 3 2 5 C3.6500000000000057 5 5.300000000000011 5 7 5 C7.3300000000000125 3.680000000000007 7.659999999999997 2.3599999999999994 8 1 C8.042721001320928 2.666119051515807 8.040638320757836 4.333828848928249 8 6 C7 7 7 7 3.9375 7.0625 C2.9681249999999864 7.0418750000000045 1.9987500000000011 7.021249999999995 1 7 C-0.0625 5.1875 -0.0625 5.1875 -1 3 C-0.6699999999999875 2.010000000000005 -0.3400000000000034 1.019999999999996 0 0 Z " fill="#B55732" transform="translate(141,109)"/>
<path d="M0 0 C2 3 2 3 1.625 6.1875 C1.4187499999999886 7.115624999999994 1.2125000000000057 8.043750000000003 1 9 C1.6599999999999966 9.164999999999992 1.6599999999999966 9.164999999999992 5 10 C4.340000000000003 10 3.680000000000007 10 3 10 C2.6699999999999875 11.319999999999993 2.3400000000000034 12.64 2 14 C1.3400000000000034 14 0.6800000000000068 14 0 14 C0 9.379999999999995 0 4.760000000000005 0 0 Z " fill="#B16D3C" transform="translate(146,90)"/>
<path d="M0 0 C0.3300000000000125 0 0.6599999999999966 0 1 0 C1 4.6200000000000045 1 9.239999999999995 1 14 C0.009999999999990905 14 -0.9799999999999898 14 -2 14 C-2 12.680000000000007 -2 11.36 -2 10 C-2.6599999999999966 9.670000000000002 -3.319999999999993 9.340000000000003 -4 9 C-2.680000000000007 9 -1.3600000000000136 9 0 9 C-0.1856249999999875 8.071875000000006 -0.3712500000000034 7.143749999999997 -0.5625 6.1875 C-1 3 -1 3 0 0 Z " fill="#AF6C3B" transform="translate(143,90)"/>
<path d="M0 0 C0.4118554687499909 0.005800781250002274 0.4118554687499909 0.005800781250002274 2.49609375 0.03515625 C3.3223828124999955 0.04417968749999801 4.148671874999991 0.053203125000003126 5 0.0625 C5.638085937499994 0.07410156249999744 6.276171874999989 0.08570312500000199 6.93359375 0.09765625 C6.93359375 0.7576562499999966 6.93359375 1.4176562500000003 6.93359375 2.09765625 C3.796733767719388 3.143276244093535 1.209934358109649 3.09765625 -2.06640625 3.09765625 C-2.06640625 3.7576562499999966 -2.06640625 4.41765625 -2.06640625 5.09765625 C-3.056406250000009 5.427656249999998 -4.04640624999999 5.757656249999997 -5.06640625 6.09765625 C-2.771530657582929 0.1309797097156391 -2.771530657582929 0.1309797097156391 0 0 Z " fill="#346C37" transform="translate(132.06640625,58.90234375)"/>
<path d="M0 0 C-0.3300000000000125 0.990000000000002 -0.6599999999999966 1.9799999999999969 -1 3 C-2.6500000000000057 3 -4.300000000000011 3 -6 3 C-6 3.6599999999999966 -6 4.32 -6 5 C-7.319999999999993 4.670000000000002 -8.639999999999986 4.340000000000003 -10 4 C-6.589086733651129 0.8814507279096091 -4.683773253082421 -0.535288371780851 0 0 Z " fill="#1C651F" transform="translate(157,51)"/>
<path d="M0 0 C3.3000000000000114 0.9899999999999949 6.599999999999994 1.980000000000004 10 3 C7 5 7 5 4 4.75 C1 4 1 4 -2 2 C-1.3400000000000034 2 -0.6800000000000068 2 0 2 C0 1.3400000000000034 0 0.6800000000000068 0 0 Z " fill="#C2C7C3" transform="translate(181,121)"/>
<path d="M0 0 C0.49500000000000455 0.3712500000000034 0.9899999999999949 0.7425000000000068 1.5 1.125 C-5.125 4.25 -5.125 4.25 -8.5 3.125 C-9.159999999999997 2.4650000000000034 -9.819999999999993 1.8050000000000068 -10.5 1.125 C-3.115384615384613 -1.0903846153846217 -3.115384615384613 -1.0903846153846217 0 0 Z " fill="#C5C8C5" transform="translate(108.5,122.875)"/>
<path d="M0 0 C0.6599999999999966 0.3299999999999983 1.3199999999999932 0.6599999999999966 2 1 C1.6699999999999875 2.319999999999993 1.3400000000000034 3.6400000000000006 1 5 C-0.9799999999999898 5 -2.960000000000008 5 -5 5 C-5 5.659999999999997 -5 6.319999999999993 -5 7 C-5.990000000000009 6.670000000000002 -6.97999999999999 6.340000000000003 -8 6 C-5.360000000000014 4.019999999999996 -2.719999999999999 2.0400000000000063 0 0 Z " fill="#AB6925" transform="translate(159,98)"/>
<path d="M0 0 C1.6500000000000057 0 3.3000000000000114 0 5 0 C5 1.3199999999999932 5 2.6400000000000006 5 4 C3.680000000000007 4 2.3600000000000136 4 1 4 C0.6699999999999875 4.659999999999997 0.3400000000000034 5.319999999999993 0 6 C-0.6599999999999966 4.680000000000007 -1.3199999999999932 3.3599999999999994 -2 2 C-1.3400000000000034 2 -0.6800000000000068 2 0 2 C0 1.3400000000000034 0 0.6800000000000068 0 0 Z " fill="#AC8017" transform="translate(173,100)"/>
<path d="M0 0 C-0.3300000000000125 0.49500000000000455 -0.3300000000000125 0.49500000000000455 -2 3 C-2.8249999999999886 2.6700000000000017 -2.8249999999999886 2.6700000000000017 -7 1 C-7.3300000000000125 2.319999999999993 -7.659999999999997 3.6400000000000006 -8 5 C-8.330000000000013 5 -8.659999999999997 5 -9 5 C-9 3.3499999999999943 -9 1.7000000000000028 -9 0 C-5.6218257538743615 -0.8445435615314096 -3.3253475651987117 -1.1084491883995753 0 0 Z " fill="#DBC292" transform="translate(182,85)"/>
<path d="M0 0 C0.10312500000000568 0.6187500000000057 0.20625000000001137 1.2374999999999972 0.3125 1.875 C1 4 1 4 4 6 C2.0200000000000102 6 0.03999999999999204 6 -2 6 C-2.3300000000000125 5.340000000000003 -2.6599999999999966 4.680000000000007 -3 4 C-3.6599999999999966 4 -4.319999999999993 4 -5 4 C-5 3.010000000000005 -5 2.019999999999996 -5 1 C-3.3499999999999943 0.6700000000000017 -1.6999999999999886 0.3400000000000034 0 0 Z " fill="#7C8513" transform="translate(170,113)"/>
<path d="M0 0 C0.6599999999999966 0.3299999999999983 0.6599999999999966 0.3299999999999983 4 2 C4 3.980000000000004 4 5.959999999999994 4 8 C3.009999999999991 8 2.0200000000000102 8 1 8 C0.6699999999999875 5.359999999999999 0.3400000000000034 2.719999999999999 0 0 Z " fill="#681E68" transform="translate(175,86)"/>
<path d="M0 0 C0.6599999999999966 0 1.3199999999999932 0 2 0 C1.6700000000000017 2.6400000000000006 1.3400000000000034 5.280000000000001 1 8 C0.010000000000005116 8 -0.980000000000004 8 -2 8 C-2.125 5.125 -2.125 5.125 -2 2 C-1.3400000000000034 1.3400000000000034 -0.6800000000000068 0.6800000000000068 0 0 Z " fill="#681E68" transform="translate(113,86)"/>
<path d="M0 0 C0.3300000000000125 0.9899999999999949 0.6599999999999966 1.980000000000004 1 3 C0.6699999999999875 3.3299999999999983 0.3400000000000034 3.6599999999999966 0 4 C-0.25 6.4375 -0.25 6.4375 0 9 C0.9900000000000091 9.659999999999997 1.9799999999999898 10.319999999999993 3 11 C2.3400000000000034 11.329999999999998 2.3400000000000034 11.329999999999998 -1 13 C-1.9607043402697002 10.117886979190914 -2.1058188342185815 8.30149956108147 -2.0625 5.3125 C-2.053476562500009 4.504257812500001 -2.0444531249999898 3.696015625000001 -2.03515625 2.86328125 C-2.0235546874999955 2.2483984375000006 -2.011953124999991 1.6335156250000011 -2 1 C-1.3400000000000034 0.6700000000000017 -0.6800000000000068 0.3400000000000034 0 0 Z " fill="#BCA069" transform="translate(148,80)"/>
<path d="M0 0 C0.9900000000000091 0.6599999999999966 1.9799999999999898 1.3199999999999932 3 2 C2.4241556764334575 4.385640769061439 1.777724052982478 6.6668278410526085 1 9 C0.009999999999990905 9 -0.9799999999999898 9 -2 9 C-1.5142145672409129 5.877093646548701 -1.0013988040365405 3.0041964121095788 0 0 Z " fill="#D2BF9A" transform="translate(150,81)"/>
<path d="M0 0 C-0.3299999999999983 0.16500000000000625 -0.3299999999999983 0.16500000000000625 -2 1 C-2.3299999999999983 1.4950000000000045 -2.3299999999999983 1.4950000000000045 -4 4 C-4.989999999999995 3.3400000000000034 -5.980000000000004 2.680000000000007 -7 2 C-9.32387946645538 1.6061221243296018 -11.65793749319451 1.265139151713825 -14 1 C-14 0.6700000000000017 -14 0.3400000000000034 -14 0 C-12.230013195927171 -0.1953296133526834 -10.458957206985545 -0.38098882055530225 -8.6875 -0.5625 C-7.701367187499997 -0.6669140624999983 -6.715234374999994 -0.7713281249999966 -5.69921875 -0.87890625 C-3 -1 -3 -1 0 0 Z " fill="#A5B0A7" transform="translate(127,119)"/>
<path d="M0 0 C1.9799999999999898 0.6599999999999966 3.960000000000008 1.3199999999999932 6 2 C5.6699999999999875 2.6599999999999966 5.340000000000003 3.319999999999993 5 4 C2.6784340289842135 4.407292275616797 0.34312130090606274 4.744386767173879 -2 5 C-2 4.010000000000005 -2 3.019999999999996 -2 2 C-1.3400000000000034 2 -0.6800000000000068 2 0 2 C0 1.3400000000000034 0 0.6800000000000068 0 0 Z " fill="#B8890F" transform="translate(164,101)"/>
<path d="M0 0 C0.9900000000000091 0.3299999999999983 1.9799999999999898 0.6599999999999966 3 1 C3 3.969999999999999 3 6.939999999999998 3 10 C1 7 1 7 0.5 4.875 C0.33500000000000796 4.256249999999994 0.1699999999999875 3.637500000000003 0 3 C-0.6599999999999966 2.6700000000000017 -1.3199999999999932 2.3400000000000034 -2 2 C-1.3400000000000034 1.3400000000000034 -0.6800000000000068 0.6799999999999997 0 0 Z " fill="#005308" transform="translate(143,60)"/>
<path d="M0 0 C2.6399999999999864 0 5.280000000000001 0 8 0 C8 0.9899999999999949 8 1.980000000000004 8 3 C5.689999999999998 3 3.3799999999999955 3 1 3 C0.6699999999999875 2.010000000000005 0.3400000000000034 1.019999999999996 0 0 Z " fill="#D9D9DA" transform="translate(138,122)"/>
<path d="M0 0 C0.6599999999999966 0.3299999999999983 1.3199999999999932 0.6599999999999966 2 1 C1.6699999999999875 2.6500000000000057 1.3400000000000034 4.299999999999997 1 6 C-0.3199999999999932 6.329999999999998 -1.6399999999999864 6.659999999999997 -3 7 C-2.387223883222873 4.038248768910606 -1.7462747819592437 2.6194121729388655 0 0 Z " fill="#4C6642" transform="translate(170,105)"/>
<path d="M0 0 C0.6599999999999966 0.3299999999999983 1.3199999999999932 0.6599999999999966 2 1 C-2.75 6.75 -2.75 6.75 -5 9 C-5.659999999999997 8.340000000000003 -6.319999999999993 7.680000000000007 -7 7 C-7 6.340000000000003 -7 5.680000000000007 -7 5 C-5.032779917041779 3.6187603672846507 -3.0313167167971358 2.2851187391981824 -1 1 C-0.6699999999999875 0.6700000000000017 -0.3400000000000034 0.3400000000000034 0 0 Z " fill="#C4C5C4" transform="translate(183,104)"/>
<path d="M0 0 C0.6599999999999966 0 1.3199999999999932 0 2 0 C1.8143750000000125 0.598124999999996 1.6287499999999966 1.1962500000000063 1.4375 1.8125 C1 4 1 4 2 7 C1.009999999999991 7 0.020000000000010232 7 -1 7 C-1 6.340000000000003 -1 5.680000000000007 -1 5 C-1.6599999999999966 5 -2.319999999999993 5 -3 5 C-3 4.340000000000003 -3 3.680000000000007 -3 3 C-2.3400000000000034 3 -1.6800000000000068 3 -1 3 C-0.6699999999999875 2.010000000000005 -0.3400000000000034 1.019999999999996 0 0 Z " fill="#B2AF66" transform="translate(130,112)"/>
<path d="M0 0 C0.6599999999999966 0 1.3199999999999932 0 2 0 C2 1.3199999999999932 2 2.6400000000000006 2 4 C3.319999999999993 3.3400000000000034 4.640000000000001 2.680000000000007 6 2 C5.670000000000002 2.989999999999995 5.340000000000003 3.980000000000004 5 5 C2.4375 6.1875 2.4375 6.1875 0 7 C-0.3813329872455 5.008594399940193 -0.7132558244319114 3.007209228976606 -1 1 C-0.6700000000000017 0.6700000000000017 -0.3400000000000034 0.3400000000000034 0 0 Z " fill="#C1A136" transform="translate(102,113)"/>
<path d="M0 0 C1.3199999999999932 0.3299999999999983 2.6399999999999864 0.6599999999999966 4 1 C4.3300000000000125 2.6500000000000057 4.659999999999997 4.299999999999997 5 6 C4.340000000000003 6 3.680000000000007 6 3 6 C3 5.340000000000003 3 4.680000000000007 3 4 C2.009999999999991 4 1.0200000000000102 4 0 4 C0 2.680000000000007 0 1.3599999999999994 0 0 Z " fill="#84A05D" transform="translate(158,111)"/>
<path d="M0 0 C0.4086328125000023 0.0045117187499954525 0.4086328125000023 0.0045117187499954525 2.4765625 0.02734375 C2.789804687500009 0.033144531250002274 2.789804687500009 0.033144531250002274 4.375 0.0625 C4.375 0.7224999999999966 4.375 1.3824999999999932 4.375 2.0625 C2.9186462917593587 2.2842493300613285 1.4597704377559069 2.489486975320176 0 2.6875 C-0.8121093750000057 2.803515625000003 -1.6242187500000114 2.9195312500000057 -2.4609375 3.0390625 C-3.175078124999999 3.0467968749999983 -3.8892187499999977 3.0545312499999966 -4.625 3.0625 C-5.284999999999997 2.4025000000000034 -5.944999999999993 1.7425000000000068 -6.625 1.0625 C-4.2195436193276805 -0.14022819033615974 -2.675030472951761 -0.03821472104216639 0 0 Z " fill="#C49311" transform="translate(130.625,102.9375)"/>
<path d="M0 0 C0.9900000000000091 0.6599999999999966 1.9799999999999898 1.3199999999999932 3 2 C3.1875 4.625 3.1875 4.625 3 7 C2.009999999999991 7 1.0200000000000102 7 0 7 C-0.6599999999999966 5.019999999999996 -1.3199999999999932 3.0400000000000063 -2 1 C-1.3400000000000034 0.6700000000000017 -0.6800000000000068 0.3400000000000034 0 0 Z " fill="#E6E4DF" transform="translate(140,82)"/>
<path d="M0 0 C0.4015429687499932 -0.0070898437500019895 0.4015429687499932 -0.0070898437500019895 2.43359375 -0.04296875 C4.5625 0.1875 4.5625 0.1875 6.5625 2.1875 C2.84012318499893 3.4282922716670186 0.3871807624982182 2.882896502272402 -3.4375 2.1875 C-4.097499999999997 1.8575000000000017 -4.757499999999993 1.5275000000000034 -5.4375 1.1875 C-3.848559278199332 -0.40144072180068235 -2.1894857563977723 0.017515886051185703 0 0 Z " fill="#1B611D" transform="translate(157.4375,54.8125)"/>
<path d="M0 0 C0.9900000000000091 0 1.9799999999999898 0 3 0 C3 2.6400000000000006 3 5.280000000000001 3 8 C2.009999999999991 8 1.0200000000000102 8 0 8 C0 5.359999999999999 0 2.719999999999999 0 0 Z " fill="#66385C" transform="translate(144,48)"/>
<path d="M0 0 C1.3199999999999932 0 2.6400000000000006 0 4 0 C4.659999999999997 1.980000000000004 5.319999999999993 3.9599999999999937 6 6 C5.010000000000005 6 4.019999999999996 6 3 6 C3 5.340000000000003 3 4.680000000000007 3 4 C2.3400000000000034 3.6700000000000017 1.6800000000000068 3.3400000000000034 1 3 C0.6700000000000017 2.010000000000005 0.3400000000000034 1.019999999999996 0 0 Z " fill="#8F8913" transform="translate(116,113)"/>
<path d="M0 0 C2.4375 0.375 2.4375 0.375 5 1 C5.3300000000000125 1.6599999999999966 5.659999999999997 2.319999999999993 6 3 C3 5 3 5 0.8125 4.625 C0.21437499999998977 4.418750000000003 -0.38374999999999204 4.212500000000006 -1 4 C-0.3400000000000034 4 0.3199999999999932 4 1 4 C0.6699999999999875 2.680000000000007 0.3400000000000034 1.3599999999999994 0 0 Z " fill="#CEA114" transform="translate(135,111)"/>
<path d="M0 0 C-1 2 -1 2 -3 3 C-3 2.3400000000000034 -3 1.6800000000000068 -3 1 C-3.7837499999999977 1.2062499999999972 -4.5674999999999955 1.4124999999999943 -5.375 1.625 C-6.241249999999994 1.7487500000000011 -7.107500000000002 1.8725000000000023 -8 2 C-8.659999999999997 1.3400000000000034 -9.319999999999993 0.6800000000000068 -10 0 C-6.716990203006716 -1.641504898496649 -3.574549674077602 -0.5188862430112664 0 0 Z " fill="#E1A914" transform="translate(131,102)"/>
<path d="M0 0 C0.6599999999999966 0 1.3199999999999932 0 2 0 C2.3299999999999983 1.980000000000004 2.6599999999999966 3.9599999999999937 3 6 C-0.875 4.25 -0.875 4.25 -2 2 C-1.3400000000000034 2 -0.6800000000000068 2 0 2 C0 1.3400000000000034 0 0.6800000000000068 0 0 Z " fill="#CECBD2" transform="translate(121,77)"/>
<path d="M0 0 C0.6599999999999966 0 1.3199999999999932 0 2 0 C2.3300000000000125 1.3199999999999932 2.6599999999999966 2.6400000000000006 3 4 C2.3400000000000034 4.329999999999998 2.3400000000000034 4.329999999999998 -1 6 C-0.6699999999999875 4.019999999999996 -0.3400000000000034 2.0400000000000063 0 0 Z " fill="#D3D0D6" transform="translate(167,77)"/>
</svg>
