<?xml version="1.0" encoding="UTF-8"?>
<!-- Generator: visioncortex VTracer 0.6.12 -->
<svg version="1.1" xmlns="http://www.w3.org/2000/svg" width="960" height="549">
<path d="M0 0 C316.8 0 633.6 0 960 0 C960 181.17000000000002 960 362.34000000000003 960 549 C643.2 549 326.4 549 0 549 C0 367.83 0 186.65999999999997 0 0 Z " fill="#FEFEFE" transform="translate(0,0)"/>
<path d="M0 0 C316.8 0 633.6 0 960 0 C960 60.39 960 120.78 960 183 C955.71 183 951.42 183 947 183 C947 181.68 947 180.36 947 179 C934.46 179 921.92 179 909 179 C909 180.32 909 181.64 909 183 C907.35 183 905.7 183 904 183 C904 181.68 904 180.36 904 179 C891.46 179 878.92 179 866 179 C866 180.32 866 181.64 866 183 C864.68 183 863.36 183 862 183 C862 181.68 862 180.36 862 179 C849.46 179 836.92 179 824 179 C824 180.32 824 181.64 824 183 C822.35 183 820.7 183 819 183 C819 181.68 819 180.36 819 179 C806.46 179 793.92 179 781 179 C781 180.32 781 181.64 781 183 C779.35 183 777.7 183 776 183 C776 181.68 776 180.36 776 179 C763.46 179 750.92 179 738 179 C738 180.32 738 181.64 738 183 C736.68 183 735.36 183 734 183 C734 181.68 734 180.36 734 179 C721.46 179 708.92 179 696 179 C696 180.32 696 181.64 696 183 C694.35 183 692.7 183 691 183 C691 181.68 691 180.36 691 179 C678.46 179 665.92 179 653 179 C653 180.32 653 181.64 653 183 C651.35 183 649.7 183 648 183 C648 181.68 648 180.36 648 179 C635.46 179 622.92 179 610 179 C610 180.32 610 181.64 610 183 C608.68 183 607.36 183 606 183 C606 181.68 606 180.36 606 179 C593.46 179 580.92 179 568 179 C568 180.32 568 181.64 568 183 C566.35 183 564.7 183 563 183 C563 181.68 563 180.36 563 179 C550.46 179 537.92 179 525 179 C525 180.32 525 181.64 525 183 C523.35 183 521.7 183 520 183 C520 181.68 520 180.36 520 179 C507.46 179 494.92 179 482 179 C482 180.32 482 181.64 482 183 C480.68 183 479.36 183 478 183 C478 181.68 478 180.36 478 179 C465.46 179 452.92 179 440 179 C440 180.32 440 181.64 440 183 C438.35 183 436.7 183 435 183 C435 181.68 435 180.36 435 179 C422.46 179 409.92 179 397 179 C397 180.32 397 181.64 397 183 C395.35 183 393.7 183 392 183 C392 181.68 392 180.36 392 179 C379.46 179 366.92 179 354 179 C354 180.32 354 181.64 354 183 C352.68 183 351.36 183 350 183 C350 181.68 350 180.36 350 179 C337.46 179 324.92 179 312 179 C312 180.32 312 181.64 312 183 C310.35 183 308.7 183 307 183 C307 181.68 307 180.36 307 179 C294.46 179 281.92 179 269 179 C269 180.32 269 181.64 269 183 C267.35 183 265.7 183 264 183 C264 181.68 264 180.36 264 179 C251.46 179 238.92 179 226 179 C226 180.32 226 181.64 226 183 C224.68 183 223.36 183 222 183 C222 181.68 222 180.36 222 179 C209.46 179 196.92 179 184 179 C184 180.32 184 181.64 184 183 C182.35 183 180.7 183 179 183 C179 181.68 179 180.36 179 179 C166.46 179 153.92 179 141 179 C141 180.32 141 181.64 141 183 C139.35 183 137.7 183 136 183 C136 181.68 136 180.36 136 179 C123.46 179 110.92 179 98 179 C98 180.32 98 181.64 98 183 C96.68 183 95.36 183 94 183 C94 181.68 94 180.36 94 179 C81.46 179 68.92 179 56 179 C56 180.32 56 181.64 56 183 C54.35 183 52.7 183 51 183 C51 181.68 51 180.36 51 179 C38.46 179 25.919999999999998 179 13 179 C13 180.32 13 181.64 13 183 C8.71 183 4.42 183 0 183 C0 122.61 0 62.22 0 0 Z " fill="#259F41" transform="translate(0,0)"/>
<path d="M0 0 C4.29 0 8.58 0 13 0 C13 1.3199999999999932 13 2.6399999999999864 13 4 C25.54 4 38.08 4 51 4 C51 2.680000000000007 51 1.3600000000000136 51 0 C52.32 0 53.64 0 55 0 C55 1.3199999999999932 55 2.6399999999999864 55 4 C67.87 4 80.74000000000001 4 94 4 C94 2.680000000000007 94 1.3600000000000136 94 0 C95.32 0 96.64 0 98 0 C98 1.3199999999999932 98 2.6399999999999864 98 4 C110.87 4 123.74000000000001 4 137 4 C137 2.680000000000007 137 1.3600000000000136 137 0 C138.32 0 139.64 0 141 0 C141 1.3199999999999932 141 2.6399999999999864 141 4 C153.54 4 166.08 4 179 4 C179 2.680000000000007 179 1.3600000000000136 179 0 C180.32 0 181.64 0 183 0 C183 1.3199999999999932 183 2.6399999999999864 183 4 C195.87 4 208.74 4 222 4 C222 2.680000000000007 222 1.3600000000000136 222 0 C223.32 0 224.64 0 226 0 C226 1.3199999999999932 226 2.6399999999999864 226 4 C238.87 4 251.74 4 265 4 C265 2.680000000000007 265 1.3600000000000136 265 0 C266.32 0 267.64 0 269 0 C269 1.3199999999999932 269 2.6399999999999864 269 4 C281.54 4 294.08 4 307 4 C307 2.680000000000007 307 1.3600000000000136 307 0 C308.32 0 309.64 0 311 0 C311 1.3199999999999932 311 2.6399999999999864 311 4 C323.87 4 336.74 4 350 4 C350 2.680000000000007 350 1.3600000000000136 350 0 C351.32 0 352.64 0 354 0 C354 1.3199999999999932 354 2.6399999999999864 354 4 C366.87 4 379.74 4 393 4 C393 2.680000000000007 393 1.3600000000000136 393 0 C394.32 0 395.64 0 397 0 C397 1.3199999999999932 397 2.6399999999999864 397 4 C409.54 4 422.08 4 435 4 C435 2.680000000000007 435 1.3600000000000136 435 0 C436.32 0 437.64 0 439 0 C439 1.3199999999999932 439 2.6399999999999864 439 4 C451.87 4 464.74 4 478 4 C478 2.680000000000007 478 1.3600000000000136 478 0 C479.32 0 480.64 0 482 0 C482 1.3199999999999932 482 2.6399999999999864 482 4 C494.87 4 507.74 4 521 4 C521 2.680000000000007 521 1.3600000000000136 521 0 C522.32 0 523.64 0 525 0 C525 1.3199999999999932 525 2.6399999999999864 525 4 C537.54 4 550.08 4 563 4 C563 2.680000000000007 563 1.3600000000000136 563 0 C564.32 0 565.64 0 567 0 C567 1.3199999999999932 567 2.6399999999999864 567 4 C579.87 4 592.74 4 606 4 C606 2.680000000000007 606 1.3600000000000136 606 0 C607.32 0 608.64 0 610 0 C610 1.3199999999999932 610 2.6399999999999864 610 4 C622.87 4 635.74 4 649 4 C649 2.680000000000007 649 1.3600000000000136 649 0 C650.32 0 651.64 0 653 0 C653 1.3199999999999932 653 2.6399999999999864 653 4 C665.54 4 678.08 4 691 4 C691 2.680000000000007 691 1.3600000000000136 691 0 C692.32 0 693.64 0 695 0 C695 1.3199999999999932 695 2.6399999999999864 695 4 C707.87 4 720.74 4 734 4 C734 2.680000000000007 734 1.3600000000000136 734 0 C735.32 0 736.64 0 738 0 C738 1.3199999999999932 738 2.6399999999999864 738 4 C750.87 4 763.74 4 777 4 C777 2.680000000000007 777 1.3600000000000136 777 0 C778.32 0 779.64 0 781 0 C781 1.3199999999999932 781 2.6399999999999864 781 4 C793.54 4 806.08 4 819 4 C819 2.680000000000007 819 1.3600000000000136 819 0 C820.32 0 821.64 0 823 0 C823 1.3199999999999932 823 2.6399999999999864 823 4 C835.87 4 848.74 4 862 4 C862 2.680000000000007 862 1.3600000000000136 862 0 C863.32 0 864.64 0 866 0 C866 1.3199999999999932 866 2.6399999999999864 866 4 C878.87 4 891.74 4 905 4 C905 2.680000000000007 905 1.3600000000000136 905 0 C906.32 0 907.64 0 909 0 C909 1.3199999999999932 909 2.6399999999999864 909 4 C921.54 4 934.08 4 947 4 C947 2.680000000000007 947 1.3600000000000136 947 0 C951.29 0 955.58 0 960 0 C960 60.389999999999986 960 120.77999999999997 960 183 C643.2 183 326.4 183 0 183 C0 122.61000000000001 0 62.22000000000003 0 0 Z " fill="#DA0000" transform="translate(0,366)"/>
<path d="M0 0 C6.511498248505177 3.2328392823217484 6.511498248505177 3.2328392823217484 9 6 C9.724093588078176 9.535289359093724 9.603606004248832 13.017365270367549 9.5234375 16.61328125 C9.519096984863268 17.679779052734375 9.514756469726535 18.74627685546875 9.510284423828125 19.8450927734375 C9.489575485930516 23.33491129439932 9.432821790164269 26.823115579670144 9.375 30.3125 C9.352964405357056 32.707259054478925 9.332792659510972 35.10203596020426 9.314453125 37.496826171875 C9.249575251133251 44.66537817637038 9.134308878605964 51.832442311357795 9 59 C8.980059814453114 60.06589355468748 8.960119628906227 61.13178710937501 8.9395751953125 62.22998046875 C8.709214612907147 74.15596922984184 8.399544731158755 86.07847782215418 8 98 C23.032175423053786 84.9898130939942 33.29911037297825 69.33631013257565 35.1845703125 49.01025390625 C36.12568703811132 34.558357137779524 33.174802503471824 22.032757034074137 26.07421875 9.29296875 C25.7197265625 8.536289062500003 25.365234375 7.779609375000007 25 7 C25.329999999999984 6.340000000000003 25.659999999999968 5.680000000000007 26 5 C38.490130289959325 17.55656715320376 46.30611524709366 32.83012356537995 46.375 50.75 C46.048511015724785 68.62378784823107 39.88381190641246 84.66349441848462 27.44140625 97.67578125 C22.954602011536565 101.84844089946904 18.480171911974082 105.25991404401293 13 108 C21.314505484774827 110.69797218791672 29.283751311797403 111.63099093144837 38 112 C37.66999999999996 112.65999999999997 37.34000000000003 113.32 37 114 C31.403550605455337 115.46155207328604 25.5550235976379 115.1475344287677 19.8125 115.125 C18.815410156249982 115.12886718750002 17.81832031250002 115.13273437499998 16.791015625 115.13671875 C15.835175781249973 115.1354296875 14.879335937500002 115.13414062499999 13.89453125 115.1328125 C13.026750488281266 115.13168457031247 12.158969726562532 115.130556640625 11.264892578125 115.12939453125 C9 115 9 115 6 114 C5.896875000000023 114.7425 5.793749999999989 115.48500000000001 5.6875 116.25 C4.957464955017258 119.17014017993102 3.9321060231381466 120.73187553805525 2 123 C-1.7136888687113014 121.76210371042959 -2.773541812284577 120.14775123090794 -5 117 C-5 116.34000000000003 -5 115.68 -5 115 C-5.345186767578127 115.00523681640624 -5.345186767578127 115.00523681640624 -7.092041015625 115.03173828125 C-10.248822991375505 115.07355697431353 -13.405546452006547 115.09940801987727 -16.5625 115.125 C-17.10551757812499 115.13337890625002 -17.10551757812499 115.13337890625002 -19.853515625 115.17578125 C-25.64479441614526 115.21098659219541 -30.541346423793243 114.9892367408271 -36 113 C-36 112.67000000000002 -36 112.34000000000003 -36 112 C-35.55849609375002 111.98130859374999 -35.55849609375002 111.98130859374999 -33.32421875 111.88671875 C-25.511211369033163 111.45872371624137 -18.445989957407846 110.4161477616895 -11 108 C-11.71285156250002 107.57589843749997 -12.425703124999984 107.151796875 -13.16015625 106.71484375 C-28.727005862886358 97.18198160482734 -38.25950018715514 83.62873367901682 -43 66 C-46.15535346986178 48.09234459312222 -43.531656508545154 32.19262865142406 -33.9140625 16.70703125 C-30.93620031757513 12.495483306284854 -27.59228335666694 8.694920024000282 -24 5 C-24 8.763804927502946 -25.23223539628458 10.87014937991566 -26.875 14.25 C-30.440185237342064 21.833358716605233 -32.437179337351154 28.675489733844643 -33 37 C-33.06574218750001 37.86109375000001 -33.131484375000014 38.72218750000002 -33.19921875 39.609375 C-33.922837154952504 57.67488276502098 -27.628104689760903 74.68547138115088 -16.28515625 88.62109375 C-13.05808495944001 91.98055770889061 -9.542037833694906 94.97880260729198 -6 98 C-6.030292968750018 97.30930419921873 -6.0605859374999795 96.61860839843752 -6.091796875 95.906982421875 C-6.520300779265483 85.60723184607826 -6.779721755945786 75.30604726150744 -7 65 C-7.025942382812502 63.840850830078125 -7.0518847656250045 62.68170166015625 -7.07861328125 61.4874267578125 C-7.23564302266351 54.27698774826587 -7.3611727175716055 47.06698001080338 -7.431861877441406 39.85518741607666 C-7.465216400423287 36.49988841490722 -7.51054361392255 33.14576337504457 -7.585205078125 29.791107177734375 C-7.663309789719847 25.970966799257894 -7.696173680336301 22.152851394882106 -7.71875 18.33203125 C-7.751701660156243 17.17700103759765 -7.784653320312486 16.021970825195297 -7.818603515625 14.831939697265625 C-7.799341777014774 7.041660846398827 -7.799341777014774 7.041660846398827 -5.392822265625 3.905609130859375 C-3.6619475414360068 2.4082127677116603 -1.9740665345058233 1.1521455234977793 0 0 Z " fill="#DA0505" transform="translate(479,219)"/>
<path d="M0 0 C-0.7618359374999955 0.6316406249999886 -1.523671874999991 1.2632812500000057 -2.30859375 1.9140625 C-14.939183286007108 12.723564110383222 -24.04919984140679 26.35120054146202 -27 43 C-27.272651116921338 46.65066961660665 -27.280056270467753 50.278149070547784 -27.25 53.9375 C-27.257734374999984 54.87529296874999 -27.265468750000025 55.81308593749998 -27.2734375 56.779296875 C-27.2335442790569 71.13088310927196 -22.643691519693732 84.50478138102585 -14 96 C-14.329999999999984 96.65999999999997 -14.660000000000025 97.32 -15 98 C-27.897113698891587 88.37834374844596 -37.42355717869498 78.22844543351562 -41 62 C-41.40346999722959 58.54878477899945 -41.47849171550092 55.15985334928445 -41.4375 51.6875 C-41.4333508300781 51.22964111328122 -41.4333508300781 51.22964111328122 -41.412353515625 48.91259765625 C-41.06803342909558 35.01971103322256 -36.22840474879666 23.47849433323381 -26.75 13.25 C-21.675461123523803 8.516034202481961 -7.188164004242026 -3.594082002121013 0 0 Z " fill="#DB0707" transform="translate(452,222)"/>
<path d="M0 0 C12.774805927791704 2.06045256899867 23.030049422832462 9.500463615298088 31.04296875 19.56640625 C40.453349677314804 33.350908802377916 42.290418481483925 49.40947473787844 39.33984375 65.62890625 C35.62653810487666 77.95836698510635 27.20231872760928 90.05393806849247 15.9375 96.5625 C14.968124999999986 97.03687500000001 13.998749999999973 97.51125000000002 13 98 C14.277075571275532 95.43254598691487 15.572658434424625 92.87500417341715 16.875 90.3203125 C17.583443022051483 88.92193056468193 18.291773147670597 87.52349142941853 19 86.125 C19.35578124999995 85.43019531250002 19.711562500000014 84.73539062499998 20.078125 84.01953125 C27.461197568742136 69.39113000372367 28.940715914192424 50.12075753740618 23.9375 34.375 C19.023195018541287 20.276381506138506 10.403059325419576 10.29902873216534 0 0 Z " fill="#DA0606" transform="translate(509,222)"/>
<path d="M0 0 C1.32000000000005 0 2.6399999999999864 0 4 0 C4 5.610000000000014 4 11.220000000000027 4 17 C5.649999999999977 17 7.2999999999999545 17 9 17 C9 11.389999999999986 9 5.779999999999973 9 0 C10.32000000000005 0 11.639999999999986 0 13 0 C13 5.610000000000014 13 11.220000000000027 13 17 C14.32000000000005 17 15.639999999999986 17 17 17 C17 11.389999999999986 17 5.779999999999973 17 0 C18.649999999999977 0 20.299999999999955 0 22 0 C22 7.259999999999991 22 14.519999999999982 22 22 C14.740000000000009 22 7.480000000000018 22 0 22 C0 19.029999999999973 0 16.060000000000002 0 13 C-3.9600000000000364 13 -7.919999999999959 13 -12 13 C-12 14.319999999999993 -12 15.639999999999986 -12 17 C-9.360000000000014 17 -6.720000000000027 17 -4 17 C-4 18.649999999999977 -4 20.30000000000001 -4 22 C-8.289999999999964 22 -12.580000000000041 22 -17 22 C-17 17.70999999999998 -17 13.420000000000016 -17 9 C-11.389999999999986 9 -5.779999999999973 9 0 9 C0 6.029999999999973 0 3.0600000000000023 0 0 Z " fill="#FBE7E7" transform="translate(755,374)"/>
<path d="M0 0 C1.3199999999999932 0 2.6399999999999864 0 4 0 C4 5.610000000000014 4 11.220000000000027 4 17 C5.649999999999977 17 7.300000000000011 17 9 17 C9 11.389999999999986 9 5.779999999999973 9 0 C10.319999999999993 0 11.639999999999986 0 13 0 C13 5.610000000000014 13 11.220000000000027 13 17 C14.32000000000005 17 15.639999999999986 17 17 17 C17 11.389999999999986 17 5.779999999999973 17 0 C18.649999999999977 0 20.299999999999955 0 22 0 C22 7.259999999999991 22 14.519999999999982 22 22 C14.740000000000009 22 7.480000000000018 22 0 22 C0 19.029999999999973 0 16.060000000000002 0 13 C-3.9599999999999795 13 -7.920000000000016 13 -12 13 C-12 14.319999999999993 -12 15.639999999999986 -12 17 C-9.360000000000014 17 -6.720000000000027 17 -4 17 C-4 18.649999999999977 -4 20.30000000000001 -4 22 C-8.29000000000002 22 -12.579999999999984 22 -17 22 C-17 17.70999999999998 -17 13.420000000000016 -17 9 C-11.389999999999986 9 -5.779999999999973 9 0 9 C0 6.029999999999973 0 3.0600000000000023 0 0 Z " fill="#FBE7E7" transform="translate(499,374)"/>
<path d="M0 0 C1.3199999999999932 0 2.6399999999999864 0 4 0 C4 5.610000000000014 4 11.220000000000027 4 17 C5.650000000000006 17 7.300000000000011 17 9 17 C9 11.389999999999986 9 5.779999999999973 9 0 C10.319999999999993 0 11.639999999999986 0 13 0 C13 5.610000000000014 13 11.220000000000027 13 17 C14.319999999999993 17 15.639999999999986 17 17 17 C17 11.389999999999986 17 5.779999999999973 17 0 C18.649999999999977 0 20.30000000000001 0 22 0 C22 7.259999999999991 22 14.519999999999982 22 22 C14.740000000000009 22 7.47999999999999 22 0 22 C0 19.029999999999973 0 16.060000000000002 0 13 C-3.960000000000008 13 -7.9199999999999875 13 -12 13 C-12 14.319999999999993 -12 15.639999999999986 -12 17 C-9.360000000000014 17 -6.719999999999999 17 -4 17 C-4 18.649999999999977 -4 20.30000000000001 -4 22 C-8.289999999999992 22 -12.580000000000013 22 -17 22 C-17 17.70999999999998 -17 13.420000000000016 -17 9 C-11.389999999999986 9 -5.780000000000001 9 0 9 C0 6.029999999999973 0 3.0600000000000023 0 0 Z " fill="#FBE7E7" transform="translate(243,374)"/>
<path d="M0 0 C1.32000000000005 0 2.6399999999999864 0 4 0 C4 5.610000000000014 4 11.220000000000027 4 17 C5.32000000000005 17 6.639999999999986 17 8 17 C8 11.389999999999986 8 5.779999999999973 8 0 C9.649999999999977 0 11.299999999999955 0 13 0 C13 5.610000000000014 13 11.220000000000027 13 17 C14.32000000000005 17 15.639999999999986 17 17 17 C17 11.389999999999986 17 5.779999999999973 17 0 C18.32000000000005 0 19.639999999999986 0 21 0 C21 6.930000000000007 21 13.860000000000014 21 21 C14.07000000000005 21 7.139999999999986 21 0 21 C0 18.360000000000014 0 15.720000000000027 0 13 C-4.289999999999964 13 -8.580000000000041 13 -13 13 C-13 14.319999999999993 -13 15.639999999999986 -13 17 C-10.029999999999973 17 -7.059999999999945 17 -4 17 C-4 18.649999999999977 -4 20.30000000000001 -4 22 C-8.289999999999964 22 -12.580000000000041 22 -17 22 C-17 17.70999999999998 -17 13.420000000000016 -17 9 C-11.389999999999986 9 -5.779999999999973 9 0 9 C0 6.029999999999973 0 3.0600000000000023 0 0 Z " fill="#FCEFEF" transform="translate(926,374)"/>
<path d="M0 0 C1.32000000000005 0 2.6399999999999864 0 4 0 C4 5.610000000000014 4 11.220000000000027 4 17 C5.32000000000005 17 6.639999999999986 17 8 17 C8 11.389999999999986 8 5.779999999999973 8 0 C9.649999999999977 0 11.299999999999955 0 13 0 C13 5.610000000000014 13 11.220000000000027 13 17 C14.32000000000005 17 15.639999999999986 17 17 17 C17 11.389999999999986 17 5.779999999999973 17 0 C18.32000000000005 0 19.639999999999986 0 21 0 C21 6.930000000000007 21 13.860000000000014 21 21 C14.07000000000005 21 7.139999999999986 21 0 21 C0 18.360000000000014 0 15.720000000000027 0 13 C-4.289999999999964 13 -8.580000000000041 13 -13 13 C-13 14.319999999999993 -13 15.639999999999986 -13 17 C-10.029999999999973 17 -7.059999999999945 17 -4 17 C-4 18.649999999999977 -4 20.30000000000001 -4 22 C-8.289999999999964 22 -12.580000000000041 22 -17 22 C-17 17.70999999999998 -17 13.420000000000016 -17 9 C-11.389999999999986 9 -5.779999999999973 9 0 9 C0 6.029999999999973 0 3.0600000000000023 0 0 Z " fill="#FCEFEF" transform="translate(670,374)"/>
<path d="M0 0 C1.3199999999999932 0 2.6399999999999864 0 4 0 C4 5.610000000000014 4 11.220000000000027 4 17 C5.319999999999993 17 6.639999999999986 17 8 17 C8 11.389999999999986 8 5.779999999999973 8 0 C9.649999999999977 0 11.300000000000011 0 13 0 C13 5.610000000000014 13 11.220000000000027 13 17 C14.319999999999993 17 15.639999999999986 17 17 17 C17 11.389999999999986 17 5.779999999999973 17 0 C18.319999999999993 0 19.639999999999986 0 21 0 C21 6.930000000000007 21 13.860000000000014 21 21 C14.069999999999993 21 7.139999999999986 21 0 21 C0 18.360000000000014 0 15.720000000000027 0 13 C-4.2900000000000205 13 -8.579999999999984 13 -13 13 C-13 14.319999999999993 -13 15.639999999999986 -13 17 C-10.029999999999973 17 -7.060000000000002 17 -4 17 C-4 18.649999999999977 -4 20.30000000000001 -4 22 C-8.29000000000002 22 -12.579999999999984 22 -17 22 C-17 17.70999999999998 -17 13.420000000000016 -17 9 C-11.389999999999986 9 -5.779999999999973 9 0 9 C0 6.029999999999973 0 3.0600000000000023 0 0 Z " fill="#FCEFEF" transform="translate(414,374)"/>
<path d="M0 0 C1.3199999999999932 0 2.6399999999999864 0 4 0 C4 5.610000000000014 4 11.220000000000027 4 17 C5.319999999999993 17 6.639999999999986 17 8 17 C8 11.389999999999986 8 5.779999999999973 8 0 C9.650000000000006 0 11.300000000000011 0 13 0 C13 5.610000000000014 13 11.220000000000027 13 17 C14.319999999999993 17 15.639999999999986 17 17 17 C17 11.389999999999986 17 5.779999999999973 17 0 C18.319999999999993 0 19.639999999999986 0 21 0 C21 6.930000000000007 21 13.860000000000014 21 21 C14.069999999999993 21 7.139999999999986 21 0 21 C0 18.360000000000014 0 15.720000000000027 0 13 C-4.289999999999992 13 -8.580000000000013 13 -13 13 C-13 14.319999999999993 -13 15.639999999999986 -13 17 C-10.030000000000001 17 -7.060000000000002 17 -4 17 C-4 18.649999999999977 -4 20.30000000000001 -4 22 C-8.289999999999992 22 -12.580000000000013 22 -17 22 C-17 17.70999999999998 -17 13.420000000000016 -17 9 C-11.389999999999986 9 -5.780000000000001 9 0 9 C0 6.029999999999973 0 3.0600000000000023 0 0 Z " fill="#FCEFEF" transform="translate(158,374)"/>
<path d="M0 0 C1.32000000000005 0 2.6399999999999864 0 4 0 C4 5.610000000000014 4 11.220000000000027 4 17 C5.32000000000005 17 6.639999999999986 17 8 17 C8 11.389999999999986 8 5.779999999999973 8 0 C9.32000000000005 0 10.639999999999986 0 12 0 C12 5.610000000000014 12 11.220000000000027 12 17 C13.649999999999977 17 15.299999999999955 17 17 17 C17 11.389999999999986 17 5.779999999999973 17 0 C18.32000000000005 0 19.639999999999986 0 21 0 C21 7.259999999999991 21 14.519999999999982 21 22 C13.740000000000009 22 6.480000000000018 22 -1 22 C-1 19.029999999999973 -1 16.060000000000002 -1 13 C-4.960000000000036 13 -8.919999999999959 13 -13 13 C-13 14.319999999999993 -13 15.639999999999986 -13 17 C-10.360000000000014 17 -7.720000000000027 17 -5 17 C-5 18.319999999999993 -5 19.639999999999986 -5 21 C-8.960000000000036 21 -12.919999999999959 21 -17 21 C-17 17.04000000000002 -17 13.079999999999984 -17 9 C-11.389999999999986 9 -5.779999999999973 9 0 9 C0 6.029999999999973 0 3.0600000000000023 0 0 Z " fill="#FCEDED" transform="translate(841,374)"/>
<path d="M0 0 C1.32000000000005 0 2.6399999999999864 0 4 0 C4 5.610000000000014 4 11.220000000000027 4 17 C5.32000000000005 17 6.639999999999986 17 8 17 C8 11.389999999999986 8 5.779999999999973 8 0 C9.32000000000005 0 10.639999999999986 0 12 0 C12 5.610000000000014 12 11.220000000000027 12 17 C13.649999999999977 17 15.299999999999955 17 17 17 C17 11.389999999999986 17 5.779999999999973 17 0 C18.32000000000005 0 19.639999999999986 0 21 0 C21 7.259999999999991 21 14.519999999999982 21 22 C13.740000000000009 22 6.480000000000018 22 -1 22 C-1 19.029999999999973 -1 16.060000000000002 -1 13 C-4.960000000000036 13 -8.919999999999959 13 -13 13 C-13 14.319999999999993 -13 15.639999999999986 -13 17 C-10.360000000000014 17 -7.720000000000027 17 -5 17 C-5 18.319999999999993 -5 19.639999999999986 -5 21 C-8.960000000000036 21 -12.919999999999959 21 -17 21 C-17 17.04000000000002 -17 13.079999999999984 -17 9 C-11.389999999999986 9 -5.779999999999973 9 0 9 C0 6.029999999999973 0 3.0600000000000023 0 0 Z " fill="#FCEDED" transform="translate(585,374)"/>
<path d="M0 0 C1.3199999999999932 0 2.6399999999999864 0 4 0 C4 5.610000000000014 4 11.220000000000027 4 17 C5.319999999999993 17 6.639999999999986 17 8 17 C8 11.389999999999986 8 5.779999999999973 8 0 C9.319999999999993 0 10.639999999999986 0 12 0 C12 5.610000000000014 12 11.220000000000027 12 17 C13.649999999999977 17 15.300000000000011 17 17 17 C17 11.389999999999986 17 5.779999999999973 17 0 C18.319999999999993 0 19.639999999999986 0 21 0 C21 7.259999999999991 21 14.519999999999982 21 22 C13.740000000000009 22 6.480000000000018 22 -1 22 C-1 19.029999999999973 -1 16.060000000000002 -1 13 C-4.9599999999999795 13 -8.920000000000016 13 -13 13 C-13 14.319999999999993 -13 15.639999999999986 -13 17 C-10.360000000000014 17 -7.720000000000027 17 -5 17 C-5 18.319999999999993 -5 19.639999999999986 -5 21 C-8.95999999999998 21 -12.920000000000016 21 -17 21 C-17 17.04000000000002 -17 13.079999999999984 -17 9 C-11.389999999999986 9 -5.779999999999973 9 0 9 C0 6.029999999999973 0 3.0600000000000023 0 0 Z " fill="#FCEDED" transform="translate(329,374)"/>
<path d="M0 0 C1.3199999999999932 0 2.6400000000000006 0 4 0 C4 5.610000000000014 4 11.220000000000027 4 17 C5.319999999999993 17 6.640000000000001 17 8 17 C8 11.389999999999986 8 5.779999999999973 8 0 C9.319999999999993 0 10.64 0 12 0 C12 5.610000000000014 12 11.220000000000027 12 17 C13.650000000000006 17 15.299999999999997 17 17 17 C17 11.389999999999986 17 5.779999999999973 17 0 C18.319999999999993 0 19.64 0 21 0 C21 7.259999999999991 21 14.519999999999982 21 22 C13.739999999999995 22 6.47999999999999 22 -1 22 C-1 19.029999999999973 -1 16.060000000000002 -1 13 C-4.960000000000008 13 -8.920000000000002 13 -13 13 C-13 14.319999999999993 -13 15.639999999999986 -13 17 C-10.36 17 -7.719999999999999 17 -5 17 C-5 18.319999999999993 -5 19.639999999999986 -5 21 C-8.960000000000008 21 -12.920000000000002 21 -17 21 C-17 17.04000000000002 -17 13.079999999999984 -17 9 C-11.39 9 -5.780000000000001 9 0 9 C0 6.029999999999973 0 3.0600000000000023 0 0 Z " fill="#FCEDED" transform="translate(73,374)"/>
<path d="M0 0 C1.32000000000005 0 2.6399999999999864 0 4 0 C4 5.610000000000014 4 11.219999999999999 4 17 C5.32000000000005 17 6.639999999999986 17 8 17 C8 11.389999999999986 8 5.780000000000001 8 0 C9.649999999999977 0 11.299999999999955 0 13 0 C13 5.610000000000014 13 11.219999999999999 13 17 C14.32000000000005 17 15.639999999999986 17 17 17 C17 11.389999999999986 17 5.780000000000001 17 0 C18.32000000000005 0 19.639999999999986 0 21 0 C21 6.930000000000007 21 13.860000000000014 21 21 C14.07000000000005 21 7.139999999999986 21 0 21 C0 18.360000000000014 0 15.719999999999999 0 13 C-4.289999999999964 13 -8.580000000000041 13 -13 13 C-13 14.319999999999993 -13 15.639999999999986 -13 17 C-10.360000000000014 17 -7.720000000000027 17 -5 17 C-5 18.319999999999993 -5 19.639999999999986 -5 21 C-8.960000000000036 21 -12.919999999999959 21 -17 21 C-17 17.039999999999992 -17 13.080000000000013 -17 9 C-11.389999999999986 9 -5.779999999999973 9 0 9 C0 6.030000000000001 0 3.0600000000000023 0 0 Z " fill="#F6FBF8" transform="translate(926,153)"/>
<path d="M0 0 C1.32000000000005 0 2.6399999999999864 0 4 0 C4 5.610000000000014 4 11.219999999999999 4 17 C5.32000000000005 17 6.639999999999986 17 8 17 C8 11.389999999999986 8 5.780000000000001 8 0 C9.649999999999977 0 11.299999999999955 0 13 0 C13 5.610000000000014 13 11.219999999999999 13 17 C14.32000000000005 17 15.639999999999986 17 17 17 C17 11.389999999999986 17 5.780000000000001 17 0 C18.32000000000005 0 19.639999999999986 0 21 0 C21 6.930000000000007 21 13.860000000000014 21 21 C14.07000000000005 21 7.139999999999986 21 0 21 C0 18.360000000000014 0 15.719999999999999 0 13 C-4.289999999999964 13 -8.580000000000041 13 -13 13 C-13 14.319999999999993 -13 15.639999999999986 -13 17 C-10.360000000000014 17 -7.720000000000027 17 -5 17 C-5 18.319999999999993 -5 19.639999999999986 -5 21 C-8.960000000000036 21 -12.919999999999959 21 -17 21 C-17 17.039999999999992 -17 13.080000000000013 -17 9 C-11.389999999999986 9 -5.779999999999973 9 0 9 C0 6.030000000000001 0 3.0600000000000023 0 0 Z " fill="#F6FBF8" transform="translate(670,153)"/>
<path d="M0 0 C1.3199999999999932 0 2.6399999999999864 0 4 0 C4 5.610000000000014 4 11.219999999999999 4 17 C5.319999999999993 17 6.639999999999986 17 8 17 C8 11.389999999999986 8 5.780000000000001 8 0 C9.649999999999977 0 11.300000000000011 0 13 0 C13 5.610000000000014 13 11.219999999999999 13 17 C14.319999999999993 17 15.639999999999986 17 17 17 C17 11.389999999999986 17 5.780000000000001 17 0 C18.319999999999993 0 19.639999999999986 0 21 0 C21 6.930000000000007 21 13.860000000000014 21 21 C14.069999999999993 21 7.139999999999986 21 0 21 C0 18.360000000000014 0 15.719999999999999 0 13 C-4.2900000000000205 13 -8.579999999999984 13 -13 13 C-13 14.319999999999993 -13 15.639999999999986 -13 17 C-10.360000000000014 17 -7.720000000000027 17 -5 17 C-5 18.319999999999993 -5 19.639999999999986 -5 21 C-8.95999999999998 21 -12.920000000000016 21 -17 21 C-17 17.039999999999992 -17 13.080000000000013 -17 9 C-11.389999999999986 9 -5.779999999999973 9 0 9 C0 6.030000000000001 0 3.0600000000000023 0 0 Z " fill="#F6FBF8" transform="translate(414,153)"/>
<path d="M0 0 C1.3199999999999932 0 2.6399999999999864 0 4 0 C4 5.610000000000014 4 11.219999999999999 4 17 C5.319999999999993 17 6.639999999999986 17 8 17 C8 11.389999999999986 8 5.780000000000001 8 0 C9.650000000000006 0 11.300000000000011 0 13 0 C13 5.610000000000014 13 11.219999999999999 13 17 C14.319999999999993 17 15.639999999999986 17 17 17 C17 11.389999999999986 17 5.780000000000001 17 0 C18.319999999999993 0 19.639999999999986 0 21 0 C21 6.930000000000007 21 13.860000000000014 21 21 C14.069999999999993 21 7.139999999999986 21 0 21 C0 18.360000000000014 0 15.719999999999999 0 13 C-4.289999999999992 13 -8.580000000000013 13 -13 13 C-13 14.319999999999993 -13 15.639999999999986 -13 17 C-10.360000000000014 17 -7.719999999999999 17 -5 17 C-5 18.319999999999993 -5 19.639999999999986 -5 21 C-8.960000000000008 21 -12.919999999999987 21 -17 21 C-17 17.039999999999992 -17 13.080000000000013 -17 9 C-11.389999999999986 9 -5.780000000000001 9 0 9 C0 6.030000000000001 0 3.0600000000000023 0 0 Z " fill="#F6FBF8" transform="translate(158,153)"/>
<path d="M0 0 C1.32000000000005 0 2.6399999999999864 0 4 0 C4 5.610000000000014 4 11.219999999999999 4 17 C5.32000000000005 17 6.639999999999986 17 8 17 C8 11.389999999999986 8 5.780000000000001 8 0 C9.32000000000005 0 10.639999999999986 0 12 0 C12 5.610000000000014 12 11.219999999999999 12 17 C13.649999999999977 17 15.299999999999955 17 17 17 C17 11.389999999999986 17 5.780000000000001 17 0 C18.32000000000005 0 19.639999999999986 0 21 0 C21 6.930000000000007 21 13.860000000000014 21 21 C13.740000000000009 21 6.480000000000018 21 -1 21 C-1 18.360000000000014 -1 15.719999999999999 -1 13 C-4.960000000000036 13 -8.919999999999959 13 -13 13 C-13 14.319999999999993 -13 15.639999999999986 -13 17 C-10.360000000000014 17 -7.720000000000027 17 -5 17 C-5 18.319999999999993 -5 19.639999999999986 -5 21 C-8.960000000000036 21 -12.919999999999959 21 -17 21 C-17 17.039999999999992 -17 13.080000000000013 -17 9 C-11.389999999999986 9 -5.779999999999973 9 0 9 C0 6.030000000000001 0 3.0600000000000023 0 0 Z " fill="#F6FBF7" transform="translate(841,153)"/>
<path d="M0 0 C1.32000000000005 0 2.6399999999999864 0 4 0 C4 5.610000000000014 4 11.219999999999999 4 17 C5.649999999999977 17 7.2999999999999545 17 9 17 C9 11.389999999999986 9 5.780000000000001 9 0 C10.32000000000005 0 11.639999999999986 0 13 0 C13 5.610000000000014 13 11.219999999999999 13 17 C14.32000000000005 17 15.639999999999986 17 17 17 C17 11.389999999999986 17 5.780000000000001 17 0 C18.32000000000005 0 19.639999999999986 0 21 0 C21 6.930000000000007 21 13.860000000000014 21 21 C14.07000000000005 21 7.139999999999986 21 0 21 C0 18.360000000000014 0 15.719999999999999 0 13 C-3.9600000000000364 13 -7.919999999999959 13 -12 13 C-12 14.319999999999993 -12 15.639999999999986 -12 17 C-9.360000000000014 17 -6.720000000000027 17 -4 17 C-4 18.319999999999993 -4 19.639999999999986 -4 21 C-8.289999999999964 21 -12.580000000000041 21 -17 21 C-17 17.039999999999992 -17 13.080000000000013 -17 9 C-11.389999999999986 9 -5.779999999999973 9 0 9 C0 6.030000000000001 0 3.0600000000000023 0 0 Z " fill="#F7FBF8" transform="translate(755,153)"/>
<path d="M0 0 C1.32000000000005 0 2.6399999999999864 0 4 0 C4 5.610000000000014 4 11.219999999999999 4 17 C5.32000000000005 17 6.639999999999986 17 8 17 C8 11.389999999999986 8 5.780000000000001 8 0 C9.32000000000005 0 10.639999999999986 0 12 0 C12 5.610000000000014 12 11.219999999999999 12 17 C13.649999999999977 17 15.299999999999955 17 17 17 C17 11.389999999999986 17 5.780000000000001 17 0 C18.32000000000005 0 19.639999999999986 0 21 0 C21 6.930000000000007 21 13.860000000000014 21 21 C13.740000000000009 21 6.480000000000018 21 -1 21 C-1 18.360000000000014 -1 15.719999999999999 -1 13 C-4.960000000000036 13 -8.919999999999959 13 -13 13 C-13 14.319999999999993 -13 15.639999999999986 -13 17 C-10.360000000000014 17 -7.720000000000027 17 -5 17 C-5 18.319999999999993 -5 19.639999999999986 -5 21 C-8.960000000000036 21 -12.919999999999959 21 -17 21 C-17 17.039999999999992 -17 13.080000000000013 -17 9 C-11.389999999999986 9 -5.779999999999973 9 0 9 C0 6.030000000000001 0 3.0600000000000023 0 0 Z " fill="#F6FBF7" transform="translate(585,153)"/>
<path d="M0 0 C1.3199999999999932 0 2.6399999999999864 0 4 0 C4 5.610000000000014 4 11.219999999999999 4 17 C5.649999999999977 17 7.300000000000011 17 9 17 C9 11.389999999999986 9 5.780000000000001 9 0 C10.319999999999993 0 11.639999999999986 0 13 0 C13 5.610000000000014 13 11.219999999999999 13 17 C14.32000000000005 17 15.639999999999986 17 17 17 C17 11.389999999999986 17 5.780000000000001 17 0 C18.32000000000005 0 19.639999999999986 0 21 0 C21 6.930000000000007 21 13.860000000000014 21 21 C14.07000000000005 21 7.139999999999986 21 0 21 C0 18.360000000000014 0 15.719999999999999 0 13 C-3.9599999999999795 13 -7.920000000000016 13 -12 13 C-12 14.319999999999993 -12 15.639999999999986 -12 17 C-9.360000000000014 17 -6.720000000000027 17 -4 17 C-4 18.319999999999993 -4 19.639999999999986 -4 21 C-8.29000000000002 21 -12.579999999999984 21 -17 21 C-17 17.039999999999992 -17 13.080000000000013 -17 9 C-11.389999999999986 9 -5.779999999999973 9 0 9 C0 6.030000000000001 0 3.0600000000000023 0 0 Z " fill="#F7FBF8" transform="translate(499,153)"/>
<path d="M0 0 C1.3199999999999932 0 2.6399999999999864 0 4 0 C4 5.610000000000014 4 11.219999999999999 4 17 C5.319999999999993 17 6.639999999999986 17 8 17 C8 11.389999999999986 8 5.780000000000001 8 0 C9.319999999999993 0 10.639999999999986 0 12 0 C12 5.610000000000014 12 11.219999999999999 12 17 C13.649999999999977 17 15.300000000000011 17 17 17 C17 11.389999999999986 17 5.780000000000001 17 0 C18.319999999999993 0 19.639999999999986 0 21 0 C21 6.930000000000007 21 13.860000000000014 21 21 C13.740000000000009 21 6.480000000000018 21 -1 21 C-1 18.360000000000014 -1 15.719999999999999 -1 13 C-4.9599999999999795 13 -8.920000000000016 13 -13 13 C-13 14.319999999999993 -13 15.639999999999986 -13 17 C-10.360000000000014 17 -7.720000000000027 17 -5 17 C-5 18.319999999999993 -5 19.639999999999986 -5 21 C-8.95999999999998 21 -12.920000000000016 21 -17 21 C-17 17.039999999999992 -17 13.080000000000013 -17 9 C-11.389999999999986 9 -5.779999999999973 9 0 9 C0 6.030000000000001 0 3.0600000000000023 0 0 Z " fill="#F6FBF7" transform="translate(329,153)"/>
<path d="M0 0 C1.3199999999999932 0 2.6399999999999864 0 4 0 C4 5.610000000000014 4 11.219999999999999 4 17 C5.650000000000006 17 7.300000000000011 17 9 17 C9 11.389999999999986 9 5.780000000000001 9 0 C10.319999999999993 0 11.639999999999986 0 13 0 C13 5.610000000000014 13 11.219999999999999 13 17 C14.319999999999993 17 15.639999999999986 17 17 17 C17 11.389999999999986 17 5.780000000000001 17 0 C18.319999999999993 0 19.639999999999986 0 21 0 C21 6.930000000000007 21 13.860000000000014 21 21 C14.069999999999993 21 7.139999999999986 21 0 21 C0 18.360000000000014 0 15.719999999999999 0 13 C-3.960000000000008 13 -7.9199999999999875 13 -12 13 C-12 14.319999999999993 -12 15.639999999999986 -12 17 C-9.360000000000014 17 -6.719999999999999 17 -4 17 C-4 18.319999999999993 -4 19.639999999999986 -4 21 C-8.289999999999992 21 -12.580000000000013 21 -17 21 C-17 17.039999999999992 -17 13.080000000000013 -17 9 C-11.389999999999986 9 -5.780000000000001 9 0 9 C0 6.030000000000001 0 3.0600000000000023 0 0 Z " fill="#F7FBF8" transform="translate(243,153)"/>
<path d="M0 0 C1.3199999999999932 0 2.6400000000000006 0 4 0 C4 5.610000000000014 4 11.219999999999999 4 17 C5.319999999999993 17 6.640000000000001 17 8 17 C8 11.389999999999986 8 5.780000000000001 8 0 C9.319999999999993 0 10.64 0 12 0 C12 5.610000000000014 12 11.219999999999999 12 17 C13.650000000000006 17 15.299999999999997 17 17 17 C17 11.389999999999986 17 5.780000000000001 17 0 C18.319999999999993 0 19.64 0 21 0 C21 6.930000000000007 21 13.860000000000014 21 21 C13.739999999999995 21 6.47999999999999 21 -1 21 C-1 18.360000000000014 -1 15.719999999999999 -1 13 C-4.960000000000008 13 -8.920000000000002 13 -13 13 C-13 14.319999999999993 -13 15.639999999999986 -13 17 C-10.36 17 -7.719999999999999 17 -5 17 C-5 18.319999999999993 -5 19.639999999999986 -5 21 C-8.960000000000008 21 -12.920000000000002 21 -17 21 C-17 17.039999999999992 -17 13.080000000000013 -17 9 C-11.39 9 -5.780000000000001 9 0 9 C0 6.030000000000001 0 3.0600000000000023 0 0 Z " fill="#F6FBF7" transform="translate(73,153)"/>
<path d="M0 0 C7.259999999999991 0 14.519999999999982 0 22 0 C22 2.6399999999999864 22 5.279999999999973 22 8 C25.960000000000036 8 29.91999999999996 8 34 8 C34 6.680000000000007 34 5.360000000000014 34 4 C31.360000000000014 4 28.720000000000027 4 26 4 C26 2.680000000000007 26 1.3600000000000136 26 0 C30.289999999999964 0 34.58000000000004 0 39 0 C39 4.2900000000000205 39 8.579999999999984 39 13 C31.74000000000001 13 24.480000000000018 13 17 13 C17 10.029999999999973 17 7.060000000000002 17 4 C13.039999999999964 4 9.080000000000041 4 5 4 C5 6.970000000000027 5 9.939999999999998 5 13 C3.3500000000000227 13 1.7000000000000455 13 0 13 C0 8.70999999999998 0 4.420000000000016 0 0 Z " fill="#FBE5E5" transform="translate(695,383)"/>
<path d="M0 0 C7.259999999999991 0 14.519999999999982 0 22 0 C22 2.6399999999999864 22 5.279999999999973 22 8 C25.95999999999998 8 29.920000000000016 8 34 8 C34 6.680000000000007 34 5.360000000000014 34 4 C31.360000000000014 4 28.720000000000027 4 26 4 C26 2.680000000000007 26 1.3600000000000136 26 0 C30.29000000000002 0 34.579999999999984 0 39 0 C39 4.2900000000000205 39 8.579999999999984 39 13 C31.74000000000001 13 24.480000000000018 13 17 13 C17 10.029999999999973 17 7.060000000000002 17 4 C13.04000000000002 4 9.079999999999984 4 5 4 C5 6.970000000000027 5 9.939999999999998 5 13 C3.3500000000000227 13 1.6999999999999886 13 0 13 C0 8.70999999999998 0 4.420000000000016 0 0 Z " fill="#FBE5E5" transform="translate(439,383)"/>
<path d="M0 0 C7.259999999999991 0 14.52000000000001 0 22 0 C22 2.6399999999999864 22 5.279999999999973 22 8 C25.960000000000008 8 29.920000000000016 8 34 8 C34 6.680000000000007 34 5.360000000000014 34 4 C31.360000000000014 4 28.72 4 26 4 C26 2.680000000000007 26 1.3600000000000136 26 0 C30.289999999999992 0 34.579999999999984 0 39 0 C39 4.2900000000000205 39 8.579999999999984 39 13 C31.74000000000001 13 24.47999999999999 13 17 13 C17 10.029999999999973 17 7.060000000000002 17 4 C13.039999999999992 4 9.080000000000013 4 5 4 C5 6.970000000000027 5 9.939999999999998 5 13 C3.3499999999999943 13 1.6999999999999886 13 0 13 C0 8.70999999999998 0 4.420000000000016 0 0 Z " fill="#FBE5E5" transform="translate(183,383)"/>
<path d="M0 0 C7.259999999999991 0 14.519999999999982 0 22 0 C22 2.6399999999999864 22 5.279999999999973 22 8 C25.960000000000036 8 29.91999999999996 8 34 8 C34 6.680000000000007 34 5.360000000000014 34 4 C31.360000000000014 4 28.720000000000027 4 26 4 C26 2.680000000000007 26 1.3600000000000136 26 0 C30.289999999999964 0 34.58000000000004 0 39 0 C39 4.2900000000000205 39 8.579999999999984 39 13 C31.74000000000001 13 24.480000000000018 13 17 13 C17 10.029999999999973 17 7.060000000000002 17 4 C12.710000000000036 4 8.419999999999959 4 4 4 C4 6.639999999999986 4 9.279999999999973 4 12 C2.67999999999995 12 1.3600000000000136 12 0 12 C0 8.04000000000002 0 4.079999999999984 0 0 Z " fill="#FBE9E9" transform="translate(866,383)"/>
<path d="M0 0 C7.259999999999991 0 14.519999999999982 0 22 0 C22 2.6399999999999864 22 5.279999999999973 22 8 C25.960000000000036 8 29.91999999999996 8 34 8 C34 6.680000000000007 34 5.360000000000014 34 4 C31.360000000000014 4 28.720000000000027 4 26 4 C26 2.680000000000007 26 1.3600000000000136 26 0 C30.289999999999964 0 34.58000000000004 0 39 0 C39 4.2900000000000205 39 8.579999999999984 39 13 C31.74000000000001 13 24.480000000000018 13 17 13 C17 10.029999999999973 17 7.060000000000002 17 4 C12.710000000000036 4 8.419999999999959 4 4 4 C4 6.639999999999986 4 9.279999999999973 4 12 C2.67999999999995 12 1.3600000000000136 12 0 12 C0 8.04000000000002 0 4.079999999999984 0 0 Z " fill="#FBE9E9" transform="translate(610,383)"/>
<path d="M0 0 C7.259999999999991 0 14.519999999999982 0 22 0 C22 2.6399999999999864 22 5.279999999999973 22 8 C25.95999999999998 8 29.920000000000016 8 34 8 C34 6.680000000000007 34 5.360000000000014 34 4 C31.360000000000014 4 28.720000000000027 4 26 4 C26 2.680000000000007 26 1.3600000000000136 26 0 C30.29000000000002 0 34.579999999999984 0 39 0 C39 4.2900000000000205 39 8.579999999999984 39 13 C31.74000000000001 13 24.480000000000018 13 17 13 C17 10.029999999999973 17 7.060000000000002 17 4 C12.70999999999998 4 8.420000000000016 4 4 4 C4 6.639999999999986 4 9.279999999999973 4 12 C2.680000000000007 12 1.3600000000000136 12 0 12 C0 8.04000000000002 0 4.079999999999984 0 0 Z " fill="#FBE9E9" transform="translate(354,383)"/>
<path d="M0 0 C7.260000000000005 0 14.519999999999996 0 22 0 C22 2.6399999999999864 22 5.279999999999973 22 8 C25.960000000000008 8 29.92 8 34 8 C34 6.680000000000007 34 5.360000000000014 34 4 C31.360000000000014 4 28.72 4 26 4 C26 2.680000000000007 26 1.3600000000000136 26 0 C30.289999999999992 0 34.579999999999984 0 39 0 C39 4.2900000000000205 39 8.579999999999984 39 13 C31.74000000000001 13 24.47999999999999 13 17 13 C17 10.029999999999973 17 7.060000000000002 17 4 C12.710000000000008 4 8.420000000000002 4 4 4 C4 6.639999999999986 4 9.279999999999973 4 12 C2.680000000000007 12 1.3599999999999994 12 0 12 C0 8.04000000000002 0 4.079999999999984 0 0 Z " fill="#FBE9E9" transform="translate(98,383)"/>
<path d="M0 0 C6.92999999999995 0 13.860000000000014 0 21 0 C21 2.6399999999999864 21 5.279999999999973 21 8 C25.289999999999964 8 29.58000000000004 8 34 8 C34 6.680000000000007 34 5.360000000000014 34 4 C31.360000000000014 4 28.720000000000027 4 26 4 C26 2.680000000000007 26 1.3600000000000136 26 0 C29.960000000000036 0 33.91999999999996 0 38 0 C38 4.2900000000000205 38 8.579999999999984 38 13 C31.07000000000005 13 24.139999999999986 13 17 13 C17 10.029999999999973 17 7.060000000000002 17 4 C12.710000000000036 4 8.419999999999959 4 4 4 C4 6.639999999999986 4 9.279999999999973 4 12 C2.67999999999995 12 1.3600000000000136 12 0 12 C0 8.04000000000002 0 4.079999999999984 0 0 Z " fill="#FDF4F4" transform="translate(781,383)"/>
<path d="M0 0 C6.92999999999995 0 13.860000000000014 0 21 0 C21 2.6399999999999864 21 5.279999999999973 21 8 C25.289999999999964 8 29.58000000000004 8 34 8 C34 6.680000000000007 34 5.360000000000014 34 4 C31.360000000000014 4 28.720000000000027 4 26 4 C26 2.680000000000007 26 1.3600000000000136 26 0 C29.960000000000036 0 33.91999999999996 0 38 0 C38 4.2900000000000205 38 8.579999999999984 38 13 C31.07000000000005 13 24.139999999999986 13 17 13 C17 10.029999999999973 17 7.060000000000002 17 4 C12.710000000000036 4 8.419999999999959 4 4 4 C4 6.639999999999986 4 9.279999999999973 4 12 C2.67999999999995 12 1.3600000000000136 12 0 12 C0 8.04000000000002 0 4.079999999999984 0 0 Z " fill="#FDF4F4" transform="translate(525,383)"/>
<path d="M0 0 C6.930000000000007 0 13.860000000000014 0 21 0 C21 2.6399999999999864 21 5.279999999999973 21 8 C25.29000000000002 8 29.579999999999984 8 34 8 C34 6.680000000000007 34 5.360000000000014 34 4 C31.360000000000014 4 28.720000000000027 4 26 4 C26 2.680000000000007 26 1.3600000000000136 26 0 C29.95999999999998 0 33.920000000000016 0 38 0 C38 4.2900000000000205 38 8.579999999999984 38 13 C31.069999999999993 13 24.139999999999986 13 17 13 C17 10.029999999999973 17 7.060000000000002 17 4 C12.70999999999998 4 8.420000000000016 4 4 4 C4 6.639999999999986 4 9.279999999999973 4 12 C2.680000000000007 12 1.3600000000000136 12 0 12 C0 8.04000000000002 0 4.079999999999984 0 0 Z " fill="#FDF4F4" transform="translate(269,383)"/>
<path d="M0 0 C6.93 0 13.86 0 21 0 C21 2.6399999999999864 21 5.279999999999973 21 8 C25.29 8 29.58 8 34 8 C34 6.680000000000007 34 5.360000000000014 34 4 C31.36 4 28.72 4 26 4 C26 2.680000000000007 26 1.3600000000000136 26 0 C29.96 0 33.92 0 38 0 C38 4.2900000000000205 38 8.579999999999984 38 13 C31.07 13 24.14 13 17 13 C17 10.029999999999973 17 7.060000000000002 17 4 C12.71 4 8.420000000000002 4 4 4 C4 6.639999999999986 4 9.279999999999973 4 12 C2.6799999999999997 12 1.3599999999999994 12 0 12 C0 8.04000000000002 0 4.079999999999984 0 0 Z " fill="#FDF4F4" transform="translate(13,383)"/>
<path d="M0 0 C6.92999999999995 0 13.860000000000014 0 21 0 C21 2.6399999999999864 21 5.280000000000001 21 8 C24.960000000000036 8 28.91999999999996 8 33 8 C33 6.680000000000007 33 5.360000000000014 33 4 C30.360000000000014 4 27.720000000000027 4 25 4 C25 2.680000000000007 25 1.3600000000000136 25 0 C29.289999999999964 0 33.58000000000004 0 38 0 C38 3.960000000000008 38 7.9199999999999875 38 12 C30.74000000000001 12 23.480000000000018 12 16 12 C16 9.360000000000014 16 6.719999999999999 16 4 C12.039999999999964 4 8.080000000000041 4 4 4 C4 6.639999999999986 4 9.280000000000001 4 12 C2.67999999999995 12 1.3600000000000136 12 0 12 C0 8.039999999999992 0 4.0800000000000125 0 0 Z " fill="#F2F9F3" transform="translate(696,162)"/>
<path d="M0 0 C6.930000000000007 0 13.860000000000014 0 21 0 C21 2.6399999999999864 21 5.280000000000001 21 8 C24.95999999999998 8 28.920000000000016 8 33 8 C33 6.680000000000007 33 5.360000000000014 33 4 C30.360000000000014 4 27.720000000000027 4 25 4 C25 2.680000000000007 25 1.3600000000000136 25 0 C29.29000000000002 0 33.579999999999984 0 38 0 C38 3.960000000000008 38 7.9199999999999875 38 12 C30.74000000000001 12 23.480000000000018 12 16 12 C16 9.360000000000014 16 6.719999999999999 16 4 C12.04000000000002 4 8.079999999999984 4 4 4 C4 6.639999999999986 4 9.280000000000001 4 12 C2.680000000000007 12 1.3600000000000136 12 0 12 C0 8.039999999999992 0 4.0800000000000125 0 0 Z " fill="#F2F9F3" transform="translate(440,162)"/>
<path d="M0 0 C6.930000000000007 0 13.860000000000014 0 21 0 C21 2.6399999999999864 21 5.280000000000001 21 8 C24.960000000000008 8 28.920000000000016 8 33 8 C33 6.680000000000007 33 5.360000000000014 33 4 C30.360000000000014 4 27.72 4 25 4 C25 2.680000000000007 25 1.3600000000000136 25 0 C29.289999999999992 0 33.579999999999984 0 38 0 C38 3.960000000000008 38 7.9199999999999875 38 12 C30.74000000000001 12 23.47999999999999 12 16 12 C16 9.360000000000014 16 6.719999999999999 16 4 C12.039999999999992 4 8.080000000000013 4 4 4 C4 6.639999999999986 4 9.280000000000001 4 12 C2.680000000000007 12 1.3600000000000136 12 0 12 C0 8.039999999999992 0 4.0800000000000125 0 0 Z " fill="#F2F9F3" transform="translate(184,162)"/>
<path d="M0 0 C6.92999999999995 0 13.860000000000014 0 21 0 C21 2.6399999999999864 21 5.280000000000001 21 8 C25.289999999999964 8 29.58000000000004 8 34 8 C34 6.680000000000007 34 5.360000000000014 34 4 C31.360000000000014 4 28.720000000000027 4 26 4 C26 2.680000000000007 26 1.3600000000000136 26 0 C29.960000000000036 0 33.91999999999996 0 38 0 C38 3.960000000000008 38 7.9199999999999875 38 12 C31.07000000000005 12 24.139999999999986 12 17 12 C17 9.360000000000014 17 6.719999999999999 17 4 C13.039999999999964 4 9.080000000000041 4 5 4 C5 6.639999999999986 5 9.280000000000001 5 12 C3.3500000000000227 12 1.7000000000000455 12 0 12 C0 8.039999999999992 0 4.0800000000000125 0 0 Z " fill="#F4FAF5" transform="translate(866,162)"/>
<path d="M0 0 C6.92999999999995 0 13.860000000000014 0 21 0 C21 2.6399999999999864 21 5.280000000000001 21 8 C25.289999999999964 8 29.58000000000004 8 34 8 C34 6.680000000000007 34 5.360000000000014 34 4 C31.360000000000014 4 28.720000000000027 4 26 4 C26 2.680000000000007 26 1.3600000000000136 26 0 C29.960000000000036 0 33.91999999999996 0 38 0 C38 3.960000000000008 38 7.9199999999999875 38 12 C31.07000000000005 12 24.139999999999986 12 17 12 C17 9.360000000000014 17 6.719999999999999 17 4 C13.039999999999964 4 9.080000000000041 4 5 4 C5 6.639999999999986 5 9.280000000000001 5 12 C3.3500000000000227 12 1.7000000000000455 12 0 12 C0 8.039999999999992 0 4.0800000000000125 0 0 Z " fill="#F4FAF5" transform="translate(610,162)"/>
<path d="M0 0 C6.930000000000007 0 13.860000000000014 0 21 0 C21 2.6399999999999864 21 5.280000000000001 21 8 C25.29000000000002 8 29.579999999999984 8 34 8 C34 6.680000000000007 34 5.360000000000014 34 4 C31.360000000000014 4 28.720000000000027 4 26 4 C26 2.680000000000007 26 1.3600000000000136 26 0 C29.95999999999998 0 33.920000000000016 0 38 0 C38 3.960000000000008 38 7.9199999999999875 38 12 C31.069999999999993 12 24.139999999999986 12 17 12 C17 9.360000000000014 17 6.719999999999999 17 4 C13.04000000000002 4 9.079999999999984 4 5 4 C5 6.639999999999986 5 9.280000000000001 5 12 C3.3500000000000227 12 1.6999999999999886 12 0 12 C0 8.039999999999992 0 4.0800000000000125 0 0 Z " fill="#F4FAF5" transform="translate(354,162)"/>
<path d="M0 0 C6.930000000000007 0 13.86 0 21 0 C21 2.6399999999999864 21 5.280000000000001 21 8 C25.289999999999992 8 29.58 8 34 8 C34 6.680000000000007 34 5.360000000000014 34 4 C31.360000000000014 4 28.72 4 26 4 C26 2.680000000000007 26 1.3600000000000136 26 0 C29.960000000000008 0 33.920000000000016 0 38 0 C38 3.960000000000008 38 7.9199999999999875 38 12 C31.069999999999993 12 24.14 12 17 12 C17 9.360000000000014 17 6.719999999999999 17 4 C13.039999999999992 4 9.079999999999998 4 5 4 C5 6.639999999999986 5 9.280000000000001 5 12 C3.3499999999999943 12 1.7000000000000028 12 0 12 C0 8.039999999999992 0 4.0800000000000125 0 0 Z " fill="#F4FAF5" transform="translate(98,162)"/>
<path d="M0 0 C18.480000000000018 0 36.960000000000036 0 56 0 C56 1.6499999999999773 56 3.3000000000000114 56 5 C37.51999999999998 5 19.039999999999964 5 0 5 C0 3.3500000000000227 0 1.6999999999999886 0 0 Z " fill="#F9D7D7" transform="translate(866,374)"/>
<path d="M0 0 C18.480000000000018 0 36.960000000000036 0 56 0 C56 1.6499999999999773 56 3.3000000000000114 56 5 C37.51999999999998 5 19.039999999999964 5 0 5 C0 3.3500000000000227 0 1.6999999999999886 0 0 Z " fill="#F9D7D7" transform="translate(695,374)"/>
<path d="M0 0 C18.480000000000018 0 36.960000000000036 0 56 0 C56 1.6499999999999773 56 3.3000000000000114 56 5 C37.51999999999998 5 19.039999999999964 5 0 5 C0 3.3500000000000227 0 1.6999999999999886 0 0 Z " fill="#F9D7D7" transform="translate(610,374)"/>
<path d="M0 0 C18.480000000000018 0 36.95999999999998 0 56 0 C56 1.6499999999999773 56 3.3000000000000114 56 5 C37.51999999999998 5 19.04000000000002 5 0 5 C0 3.3500000000000227 0 1.6999999999999886 0 0 Z " fill="#F9D7D7" transform="translate(439,374)"/>
<path d="M0 0 C18.480000000000018 0 36.95999999999998 0 56 0 C56 1.6499999999999773 56 3.3000000000000114 56 5 C37.51999999999998 5 19.04000000000002 5 0 5 C0 3.3500000000000227 0 1.6999999999999886 0 0 Z " fill="#F9D7D7" transform="translate(354,374)"/>
<path d="M0 0 C18.47999999999999 0 36.96000000000001 0 56 0 C56 1.6499999999999773 56 3.3000000000000114 56 5 C37.51999999999998 5 19.039999999999992 5 0 5 C0 3.3500000000000227 0 1.6999999999999886 0 0 Z " fill="#F9D7D7" transform="translate(183,374)"/>
<path d="M0 0 C18.480000000000004 0 36.96000000000001 0 56 0 C56 1.6499999999999773 56 3.3000000000000114 56 5 C37.51999999999998 5 19.039999999999992 5 0 5 C0 3.3500000000000227 0 1.6999999999999886 0 0 Z " fill="#F9D7D7" transform="translate(98,374)"/>
<path d="M0 0 C6.92999999999995 0 13.860000000000014 0 21 0 C21 2.6399999999999864 21 5.280000000000001 21 8 C25.289999999999964 8 29.58000000000004 8 34 8 C34 6.680000000000007 34 5.360000000000014 34 4 C31.360000000000014 4 28.720000000000027 4 26 4 C26 2.680000000000007 26 1.3600000000000136 26 0 C29.960000000000036 0 33.91999999999996 0 38 0 C38 3.960000000000008 38 7.9199999999999875 38 12 C31.07000000000005 12 24.139999999999986 12 17 12 C17 9.360000000000014 17 6.719999999999999 17 4 C12.710000000000036 4 8.419999999999959 4 4 4 C4 6.639999999999986 4 9.280000000000001 4 12 C2.67999999999995 12 1.3600000000000136 12 0 12 C0 8.039999999999992 0 4.0800000000000125 0 0 Z " fill="#FBFDFB" transform="translate(781,162)"/>
<path d="M0 0 C6.92999999999995 0 13.860000000000014 0 21 0 C21 2.6399999999999864 21 5.280000000000001 21 8 C25.289999999999964 8 29.58000000000004 8 34 8 C34 6.680000000000007 34 5.360000000000014 34 4 C31.360000000000014 4 28.720000000000027 4 26 4 C26 2.680000000000007 26 1.3600000000000136 26 0 C29.960000000000036 0 33.91999999999996 0 38 0 C38 3.960000000000008 38 7.9199999999999875 38 12 C31.07000000000005 12 24.139999999999986 12 17 12 C17 9.360000000000014 17 6.719999999999999 17 4 C12.710000000000036 4 8.419999999999959 4 4 4 C4 6.639999999999986 4 9.280000000000001 4 12 C2.67999999999995 12 1.3600000000000136 12 0 12 C0 8.039999999999992 0 4.0800000000000125 0 0 Z " fill="#FBFDFB" transform="translate(525,162)"/>
<path d="M0 0 C6.930000000000007 0 13.860000000000014 0 21 0 C21 2.6399999999999864 21 5.280000000000001 21 8 C25.29000000000002 8 29.579999999999984 8 34 8 C34 6.680000000000007 34 5.360000000000014 34 4 C31.360000000000014 4 28.720000000000027 4 26 4 C26 2.680000000000007 26 1.3600000000000136 26 0 C29.95999999999998 0 33.920000000000016 0 38 0 C38 3.960000000000008 38 7.9199999999999875 38 12 C31.069999999999993 12 24.139999999999986 12 17 12 C17 9.360000000000014 17 6.719999999999999 17 4 C12.70999999999998 4 8.420000000000016 4 4 4 C4 6.639999999999986 4 9.280000000000001 4 12 C2.680000000000007 12 1.3600000000000136 12 0 12 C0 8.039999999999992 0 4.0800000000000125 0 0 Z " fill="#FBFDFB" transform="translate(269,162)"/>
<path d="M0 0 C6.93 0 13.86 0 21 0 C21 2.6399999999999864 21 5.280000000000001 21 8 C25.29 8 29.58 8 34 8 C34 6.680000000000007 34 5.360000000000014 34 4 C31.36 4 28.72 4 26 4 C26 2.680000000000007 26 1.3600000000000136 26 0 C29.96 0 33.92 0 38 0 C38 3.960000000000008 38 7.9199999999999875 38 12 C31.07 12 24.14 12 17 12 C17 9.360000000000014 17 6.719999999999999 17 4 C12.71 4 8.420000000000002 4 4 4 C4 6.639999999999986 4 9.280000000000001 4 12 C2.6799999999999997 12 1.3599999999999994 12 0 12 C0 8.039999999999992 0 4.0800000000000125 0 0 Z " fill="#FBFDFB" transform="translate(13,162)"/>
<path d="M0 0 C18.149999999999977 0 36.299999999999955 0 55 0 C55 1.6499999999999773 55 3.3000000000000114 55 5 C36.85000000000002 5 18.700000000000045 5 0 5 C0 3.3500000000000227 0 1.6999999999999886 0 0 Z " fill="#F9D9D9" transform="translate(781,374)"/>
<path d="M0 0 C18.149999999999977 0 36.299999999999955 0 55 0 C55 1.6499999999999773 55 3.3000000000000114 55 5 C36.85000000000002 5 18.700000000000045 5 0 5 C0 3.3500000000000227 0 1.6999999999999886 0 0 Z " fill="#F9D9D9" transform="translate(525,374)"/>
<path d="M0 0 C18.149999999999977 0 36.30000000000001 0 55 0 C55 1.6499999999999773 55 3.3000000000000114 55 5 C36.85000000000002 5 18.69999999999999 5 0 5 C0 3.3500000000000227 0 1.6999999999999886 0 0 Z " fill="#F9D9D9" transform="translate(269,374)"/>
<path d="M0 0 C18.150000000000002 0 36.300000000000004 0 55 0 C55 1.6499999999999773 55 3.3000000000000114 55 5 C36.849999999999994 5 18.699999999999996 5 0 5 C0 3.3500000000000227 0 1.6999999999999886 0 0 Z " fill="#F9D9D9" transform="translate(13,374)"/>
<path d="M0 0 C1.5 1.375 1.5 1.375 3 3 C3 3.6599999999999966 3 4.319999999999993 3 5 C6.56471391416494 6.188237971388304 9.255833603387543 6.262748519060523 13 6 C15.4375 4.5 15.4375 4.5 17 3 C18 3.5 18 3.5 23 6 C30.174311926605526 6.3119266055045955 30.174311926605526 6.3119266055045955 33 5 C34.25 2.4375000000000284 34.25 2.4375000000000284 35 0 C35.329999999999984 0 35.65999999999997 0 36 0 C35.81217901687455 7.990929100246802 35.81217901687455 7.990929100246802 32.9375 11.5625 C28.907999900479467 13.534383027424923 26.468175752260322 13.432404105057458 22 13 C21.00999999999999 12.340000000000003 20.019999999999982 11.680000000000007 19 11 C19 10.340000000000003 19 9.680000000000007 19 9 C18.339999999999975 9 17.680000000000007 9 17 9 C17 9.659999999999997 17 10.319999999999993 17 11 C13.341487085803351 13.34144826508583 10.271699640941051 13.44965259378327 6 13 C3.125 11.5625 3.125 11.5625 1 9 C0.3030870748664256 6.000693262943571 0.07224198508254176 3.073568092603665 0 0 Z " fill="#DC0E0E" transform="translate(462,206)"/>
<path d="M0 0 C18.149999999999977 0 36.299999999999955 0 55 0 C55 1.3199999999999932 55 2.6399999999999864 55 4 C36.85000000000002 4 18.700000000000045 4 0 4 C0 2.680000000000007 0 1.3600000000000136 0 0 Z " fill="#FEFEFE" transform="translate(866,153)"/>
<path d="M0 0 C18.149999999999977 0 36.299999999999955 0 55 0 C55 1.3199999999999932 55 2.6399999999999864 55 4 C36.85000000000002 4 18.700000000000045 4 0 4 C0 2.680000000000007 0 1.3600000000000136 0 0 Z " fill="#FFFFFF" transform="translate(781,153)"/>
<path d="M0 0 C18.149999999999977 0 36.299999999999955 0 55 0 C55 1.3199999999999932 55 2.6399999999999864 55 4 C36.85000000000002 4 18.700000000000045 4 0 4 C0 2.680000000000007 0 1.3600000000000136 0 0 Z " fill="#FEFEFE" transform="translate(696,153)"/>
<path d="M0 0 C18.149999999999977 0 36.299999999999955 0 55 0 C55 1.3199999999999932 55 2.6399999999999864 55 4 C36.85000000000002 4 18.700000000000045 4 0 4 C0 2.680000000000007 0 1.3600000000000136 0 0 Z " fill="#FEFEFE" transform="translate(610,153)"/>
<path d="M0 0 C18.149999999999977 0 36.299999999999955 0 55 0 C55 1.3199999999999932 55 2.6399999999999864 55 4 C36.85000000000002 4 18.700000000000045 4 0 4 C0 2.680000000000007 0 1.3600000000000136 0 0 Z " fill="#FFFFFF" transform="translate(525,153)"/>
<path d="M0 0 C18.149999999999977 0 36.30000000000001 0 55 0 C55 1.3199999999999932 55 2.6399999999999864 55 4 C36.85000000000002 4 18.69999999999999 4 0 4 C0 2.680000000000007 0 1.3600000000000136 0 0 Z " fill="#FEFEFE" transform="translate(440,153)"/>
<path d="M0 0 C18.149999999999977 0 36.30000000000001 0 55 0 C55 1.3199999999999932 55 2.6399999999999864 55 4 C36.85000000000002 4 18.69999999999999 4 0 4 C0 2.680000000000007 0 1.3600000000000136 0 0 Z " fill="#FEFEFE" transform="translate(354,153)"/>
<path d="M0 0 C18.149999999999977 0 36.30000000000001 0 55 0 C55 1.3199999999999932 55 2.6399999999999864 55 4 C36.85000000000002 4 18.69999999999999 4 0 4 C0 2.680000000000007 0 1.3600000000000136 0 0 Z " fill="#FFFFFF" transform="translate(269,153)"/>
<path d="M0 0 C18.150000000000006 0 36.30000000000001 0 55 0 C55 1.3199999999999932 55 2.6399999999999864 55 4 C36.849999999999994 4 18.69999999999999 4 0 4 C0 2.680000000000007 0 1.3600000000000136 0 0 Z " fill="#FEFEFE" transform="translate(184,153)"/>
<path d="M0 0 C18.150000000000006 0 36.30000000000001 0 55 0 C55 1.3199999999999932 55 2.6399999999999864 55 4 C36.849999999999994 4 18.69999999999999 4 0 4 C0 2.680000000000007 0 1.3600000000000136 0 0 Z " fill="#FEFEFE" transform="translate(98,153)"/>
<path d="M0 0 C18.150000000000002 0 36.300000000000004 0 55 0 C55 1.3199999999999932 55 2.6399999999999864 55 4 C36.849999999999994 4 18.699999999999996 4 0 4 C0 2.680000000000007 0 1.3600000000000136 0 0 Z " fill="#FFFFFF" transform="translate(13,153)"/>
<path d="M0 0 C1.6499999999999773 0 3.2999999999999545 0 5 0 C5 1.6499999999999773 5 3.3000000000000114 5 5 C3.3500000000000227 5 1.7000000000000455 5 0 5 C0 3.3500000000000227 0 1.6999999999999886 0 0 Z " fill="#F4BABA" transform="translate(789,391)"/>
<path d="M0 0 C1.6499999999999773 0 3.2999999999999545 0 5 0 C5 1.6499999999999773 5 3.3000000000000114 5 5 C3.3500000000000227 5 1.7000000000000455 5 0 5 C0 3.3500000000000227 0 1.6999999999999886 0 0 Z " fill="#F4BABA" transform="translate(533,391)"/>
<path d="M0 0 C1.6499999999999773 0 3.3000000000000114 0 5 0 C5 1.6499999999999773 5 3.3000000000000114 5 5 C3.3500000000000227 5 1.6999999999999886 5 0 5 C0 3.3500000000000227 0 1.6999999999999886 0 0 Z " fill="#F4BABA" transform="translate(277,391)"/>
<path d="M0 0 C1.6499999999999986 0 3.3000000000000007 0 5 0 C5 1.6499999999999773 5 3.3000000000000114 5 5 C3.3500000000000014 5 1.6999999999999993 5 0 5 C0 3.3500000000000227 0 1.6999999999999886 0 0 Z " fill="#F4BABA" transform="translate(21,391)"/>
<path d="M0 0 C0 3.81094059056403 -1.0071702097959019 5.770241374496777 -3 9 C-5.6875 10.375 -5.6875 10.375 -8 11 C-6.63629700645572 8.00779731513586 -5.05091916927762 5.709734713096452 -2.875 3.25 C-2.336171874999991 2.636406249999993 -1.7973437499999818 2.0228124999999864 -1.2421875 1.390625 C-1.0372265624999955 1.161171875000008 -1.0372265624999955 1.161171875000008 0 0 Z " fill="#E02C2C" transform="translate(455,224)"/>
<path d="M0 0 C3.3000000000000114 0 6.600000000000023 0 10 0 C9.669999999999959 0.660000000000025 9.340000000000032 1.3199999999999932 9 2 C6.93359375 2.4140625 6.93359375 2.4140625 4.4375 2.625 C3.6112109375000045 2.6997656249999977 2.784921875000009 2.7745312499999955 1.93359375 2.8515625 C1.6145507812499886 2.876054687500016 1.6145507812499886 2.876054687500016 0 3 C0 2.009999999999991 0 1.0199999999999818 0 0 Z " fill="#E44949" transform="translate(507,331)"/>
<path d="M0 0 C1.32000000000005 0 2.6399999999999864 0 4 0 C4 1.6499999999999773 4 3.3000000000000114 4 5 C2.67999999999995 5 1.3600000000000136 5 0 5 C0 3.3500000000000227 0 1.6999999999999886 0 0 Z " fill="#F9D9D9" transform="translate(704,391)"/>
<path d="M0 0 C1.3199999999999932 0 2.6399999999999864 0 4 0 C4 1.6499999999999773 4 3.3000000000000114 4 5 C2.680000000000007 5 1.3600000000000136 5 0 5 C0 3.3500000000000227 0 1.6999999999999886 0 0 Z " fill="#F9D9D9" transform="translate(448,391)"/>
<path d="M0 0 C1.3199999999999932 0 2.6399999999999864 0 4 0 C4 1.6499999999999773 4 3.3000000000000114 4 5 C2.680000000000007 5 1.3600000000000136 5 0 5 C0 3.3500000000000227 0 1.6999999999999886 0 0 Z " fill="#F9D9D9" transform="translate(192,391)"/>
<path d="M0 0 C1.6499999999999773 0 3.2999999999999545 0 5 0 C5 1.3199999999999932 5 2.6399999999999864 5 4 C3.3500000000000227 4 1.7000000000000455 4 0 4 C0 2.680000000000007 0 1.3600000000000136 0 0 Z " fill="#DCEFE0" transform="translate(789,170)"/>
<path d="M0 0 C1.6499999999999773 0 3.2999999999999545 0 5 0 C5 1.3199999999999932 5 2.6399999999999864 5 4 C3.3500000000000227 4 1.7000000000000455 4 0 4 C0 2.680000000000007 0 1.3600000000000136 0 0 Z " fill="#DCEFE0" transform="translate(533,170)"/>
<path d="M0 0 C1.6499999999999773 0 3.3000000000000114 0 5 0 C5 1.3199999999999932 5 2.6399999999999864 5 4 C3.3500000000000227 4 1.6999999999999886 4 0 4 C0 2.680000000000007 0 1.3600000000000136 0 0 Z " fill="#DCEFE0" transform="translate(277,170)"/>
<path d="M0 0 C1.6499999999999986 0 3.3000000000000007 0 5 0 C5 1.3199999999999932 5 2.6399999999999864 5 4 C3.3500000000000014 4 1.6999999999999993 4 0 4 C0 2.680000000000007 0 1.3600000000000136 0 0 Z " fill="#DCEFE0" transform="translate(21,170)"/>
</svg>
