<?xml version="1.0" encoding="UTF-8"?>
<!-- Generator: visioncortex VTracer 0.6.12 -->
<svg version="1.1" xmlns="http://www.w3.org/2000/svg" width="960" height="640">
<path d="M0 0 C316.8 0 633.6 0 960 0 C960 211.20000000000002 960 422.40000000000003 960 640 C643.2 640 326.4 640 0 640 C0 428.79999999999995 0 217.59999999999997 0 0 Z " fill="#FEFEFD" transform="translate(0,0)"/>
<path d="M0 0 C316.8 0 633.6 0 960 0 C960 70.29000000000002 960 140.58000000000004 960 213 C643.2 213 326.4 213 0 213 C0 142.71000000000004 0 72.41999999999996 0 0 Z " fill="#000000" transform="translate(0,427)"/>
<path d="M0 0 C316.8 0 633.6 0 960 0 C960 70.29 960 140.58 960 213 C643.2 213 326.4 213 0 213 C0 142.70999999999998 0 72.41999999999999 0 0 Z " fill="#CD1125" transform="translate(0,0)"/>
<path d="M0 0 C2.0507714671349504 2.6702127020760145 3.9205197108616403 5.384626558154025 5.6875 8.25 C6.124492187499982 8.956406249999986 6.561484374999964 9.662812499999973 7.01171875 10.390625 C7.337851562499964 10.921718750000025 7.663984375000041 11.452812499999993 8 12 C7.131171875000007 12.540117187500016 6.262343750000014 13.080234374999975 5.3671875 13.63671875 C1.854859985615576 15.979987106370857 -0.9636371451376817 18.773716754938164 -3.875 21.8125 C-7.035345506459294 25.087844601707786 -10.225976696721375 28.232461859598516 -13.6875 31.19140625 C-19.114522610806205 35.87979027493441 -24.093222691645224 41.0221380475312 -29.125 46.125 C-31.041250207414976 48.06812249746889 -32.96099180207602 50.00770096309918 -34.8828125 51.9453125 C-35.722153320312486 52.79625488281249 -36.56149414062497 53.64719726562498 -37.42626953125 54.52392578125 C-40.15882556283566 57.152799170772084 -43.0870493819358 59.572541151613166 -46 62 C-27.850000000000023 62.329999999999984 -9.699999999999989 62.65999999999997 9 63 C9.330000000000041 60.69 9.659999999999968 58.379999999999995 10 56 C13.542447276463065 51.309128419446665 20.1669929344788 46.29234288278013 26 45 C28.421875 45.76953125 28.421875 45.76953125 31 47 C31.418300781249968 47.17789062500003 31.418300781249968 47.17789062500003 33.53515625 48.078125 C34.369179687500036 48.46484375 35.20320312499996 48.8515625 36.0625 49.25 C36.89910156249999 49.62640625 37.735703124999986 50.002812500000005 38.59765625 50.390625 C41 52 41 52 45 58 C45 72.51999999999998 45 87.04000000000002 45 102 C-6.810000000000002 102 -58.620000000000005 102 -112 102 C-112.32999999999998 103.98000000000002 -112.66000000000003 105.95999999999998 -113 108 C-116.38165257403818 113.8118921914662 -121.08659811402475 117.19507583716995 -127.35546875 119.390625 C-131.59330921188626 120.36714362932685 -135.68264464706812 120.33069104830969 -140 120 C-140 119.34000000000003 -140 118.68 -140 118 C-138.47097374303576 117.06773933070531 -136.89963385873006 116.20448017726329 -135.3125 115.375 C-130.23284443047055 112.3992585103324 -127.06162161921566 109.5869945880745 -125 104 C-122.70067922782346 93.9213106152929 -128.9783230741183 83.3694615431362 -134 75 C-134 74.34000000000003 -134 73.68 -134 73 C-128.66666666666669 70.33333333333331 -123.33333333333331 67.66666666666669 -118 65 C-117.97421874999998 65.61488281250001 -117.94843750000001 66.22976562500003 -117.921875 66.86328125 C-117.45512010113782 73.51453855878634 -117.45512010113782 73.51453855878634 -115.125 76 C-111.69376075650143 77.61470082046992 -108.86234791642164 78.15735493687907 -105.11328125 78.31640625 C-104.17548828125001 78.35830078125002 -103.23769531250002 78.40019531249999 -102.271484375 78.443359375 C-101.29501953124998 78.48267578125001 -100.31855468750001 78.52199218750002 -99.3125 78.5625 C-98.81846679687499 78.58409179687499 -98.81846679687499 78.58409179687499 -96.318359375 78.693359375 C-93.87904453960533 78.79941654175627 -91.4396288662216 78.90147713577522 -89 79 C-89.1420474069646 77.4163225266077 -89.28880152663771 75.8330668241029 -89.4375 74.25 C-89.51871093750003 73.36828125 -89.599921875 72.48656249999999 -89.68359375 71.578125 C-89.96238464576197 69.30649547897661 -90.387905770771 67.20148176563043 -91 65 C-89.58531689346518 64.03874096607251 -88.16816359681098 63.0811167475274 -86.75 62.125 C-85.96109375000003 61.59132812500002 -85.1721875 61.05765624999998 -84.359375 60.5078125 C-82 59 -82 59 -78 57 C-78 63.93000000000001 -78 70.86000000000001 -78 78 C-42.360000000000014 78 -6.720000000000027 78 30 78 C29.66999999999996 72.38999999999999 29.340000000000032 66.77999999999997 29 61 C27.680000000000007 61 26.360000000000014 61 25 61 C24.939414062499964 61.85464843750003 24.87882812500004 62.70929687500001 24.81640625 63.58984375 C24.73261718750001 64.69457031249999 24.648828125000023 65.79929687499998 24.5625 66.9375 C24.521894531249984 67.48857421874999 24.521894531249984 67.48857421874999 24.31640625 70.27734375 C24 73 24 73 23 74 C20.383115589294334 74.09509559069488 17.792710997845234 74.12556000141865 15.175537109375 74.113525390625 C14.356091156005846 74.11367141723633 13.536645202636691 74.11381744384767 12.692367553710938 74.11396789550781 C9.970666471039692 74.11326852361685 7.249032947649084 74.10547501448423 4.52734375 74.09765625 C2.645472589162864 74.09579215617867 0.7636009445313903 74.09436821302626 -1.1182708740234375 74.09336853027344 C-6.081485290245723 74.08954266769513 -11.044670637758031 74.0797118050196 -16.00787353515625 74.06866455078125 C-21.068396064102785 74.05845189516907 -26.12892327067391 74.05387122400873 -31.189453125 74.048828125 C-41.12631488468253 74.03808959609006 -51.06315502923604 74.02101235972066 -61 74 C-61.08128486992479 71.59306468500489 -61.14061951096278 69.1888979726981 -61.1875 66.78125 C-61.21263671874999 66.10352539062501 -61.23777343749998 65.42580078125002 -61.263671875 64.7275390625 C-61.32739761529069 60.36232585258824 -60.85691657931653 57.83097493481057 -58 54.5 C-56.70366896323293 53.292351569369885 -55.36889561281049 52.12472827390309 -54 51 C-53.35160156249998 50.41089843750001 -52.703203125000016 49.82179687500002 -52.03515625 49.21484375 C-50.05726389862309 47.432782324502 -48.038667291755814 45.712008246937785 -46 44 C-39.31293964501333 38.344893403498986 -33.14402835542768 32.23174052093685 -27 26 C-21.380553368533242 20.300330133141813 -15.767014569204207 14.659475408301432 -9.6796875 9.45263671875 C-7.519544748488897 7.584490007777447 -5.500930035293038 5.599160928780407 -3.5 3.5625 C-2.8296874999999773 2.8831640624999864 -2.1593750000000114 2.2038281249999727 -1.46875 1.50390625 C-1.2264062499999682 1.2557617187500227 -1.2264062499999682 1.2557617187500227 0 0 Z " fill="#047C3F" transform="translate(429,263)"/>
<path d="M0 0 C0 32.00999999999999 0 64.01999999999998 0 97 C-26.07000000000005 97 -52.139999999999986 97 -79 97 C-79 68.91125377643505 -79 68.91125377643505 -72.5625 61.8125 C-67.16163655530158 59.06469228252189 -61.94478728653712 59.60309283695227 -56 60 C-56.07218750000004 59.385117187499986 -56.14437499999997 58.77023437499997 -56.21875 58.13671875 C-56.311562500000036 57.328476562499986 -56.40437499999996 56.52023437499997 -56.5 55.6875 C-56.592812500000036 54.88699218750003 -56.68562499999996 54.086484375 -56.78125 53.26171875 C-57 51 -57 51 -57 48 C-54.98828125 45.84375 -54.98828125 45.84375 -52.3125 43.5 C-51.4423828125 42.7265625 -50.572265625 41.953125 -49.67578125 41.15625 C-47 39 -47 39 -42 36 C-42 48.20999999999998 -42 60.420000000000016 -42 73 C-39.360000000000014 73 -36.72000000000003 73 -34 73 C-34.02220611572261 72.45400146484377 -34.044412231445335 71.90800292968748 -34.067291259765625 71.345458984375 C-34.28943509288854 65.63543532857034 -34.43969883397631 59.926646773157586 -34.54931640625 54.21337890625 C-34.59944674487565 52.08494175466586 -34.66757442332789 49.95684629936477 -34.75439453125 47.82958984375 C-35.45864822697388 30.12382339949113 -35.45864822697388 30.12382339949113 -31.8349609375 24.84765625 C-29.29367234972301 22.80427916669845 -26.95064707190636 21.364271377040325 -24 20 C-23.00999999999999 19.339999999999975 -22.019999999999982 18.680000000000007 -21 18 C-21 36.14999999999998 -21 54.30000000000001 -21 73 C-18.029999999999973 73 -15.059999999999945 73 -12 73 C-12.024426727294895 72.23293731689455 -12.04885345458979 71.46587463378904 -12.074020385742188 70.67556762695313 C-12.29539778100741 63.40918808778309 -12.462368743599313 56.14446559040971 -12.569933891296387 48.87558174133301 C-12.627099989322005 45.13921218372906 -12.704469499898437 41.40565119985513 -12.829833984375 37.6708984375 C-12.950298806281694 34.05907007317904 -13.015309114151819 30.44992237458962 -13.043649673461914 26.836238861083984 C-13.063813492316172 25.465277831410503 -13.103195563030454 24.094446791629593 -13.163030624389648 22.72464370727539 C-13.412054797697465 16.78160765244718 -13.633372268688959 11.473798816746807 -9.513092041015625 6.86126708984375 C-2.472610339090238 0 -2.472610339090238 0 0 0 Z " fill="#057D40" transform="translate(626,268)"/>
<path d="M0 0 C3.909374485039507 1.5637497940157914 7.564637990500842 3.230476346846558 11.3125 5.125 C12.381132812500027 5.663828125000009 13.449765625000055 6.202656250000018 14.55078125 6.7578125 C14.95490234374995 6.9627734375000045 14.95490234374995 6.9627734375000045 17 8 C16.387223883222873 10.961751231089409 15.7462747819593 12.380587827061106 14 15 C13.721527099609375 17.790451049804688 13.721527099609375 17.790451049804688 13.68115234375 21.215576171875 C13.661282653808598 22.496677703857415 13.641412963867197 23.77777923583983 13.620941162109375 25.097702026367188 C13.609064733664127 26.49612251204252 13.597401875532228 27.894544825575508 13.5859375 29.29296875 C13.567227386755803 30.723588255364973 13.547654087838396 32.15419671156815 13.527252197265625 33.58479309082031 C13.475908169517197 37.347783267214595 13.436294785803625 41.11080923140872 13.39910888671875 44.87396240234375 C13.359083357169766 48.71489328222333 13.307984427747328 52.55567500263294 13.2578125 56.396484375 C13.161026389679932 63.93088727540567 13.076630389408024 71.4653622907598 13 79 C14.585603932061076 78.74279325529545 16.16845924027541 78.4686120136505 17.75 78.1875 C18.190859374999945 78.11208984375003 18.190859374999945 78.11208984375003 20.421875 77.73046875 C23.191091095180468 76.9458575230322 24.825940098598267 75.85404641124217 27 74 C28.181099730982282 77.53701674756917 29.34226464144183 81.08027359329486 30.5 84.625 C30.833867187500005 85.6240234375 31.16773437500001 86.623046875 31.51171875 87.65234375 C31.827539062500023 88.62558593749998 32.143359375000045 89.59882812500001 32.46875 90.6015625 C32.762011718750045 91.4918212890625 33.05527343749998 92.382080078125 33.357421875 93.29931640625 C34 96 34 96 34 102 C22.779999999999973 102 11.559999999999945 102 0 102 C0 68.34000000000003 0 34.68000000000001 0 0 Z " fill="#047C3F" transform="translate(638,263)"/>
<path d="M0 0 C2.805000000000007 1.3199999999999932 2.805000000000007 1.3199999999999932 17 8 C15 13 15 13 14 14 C13.876248309697985 16.024149910976178 13.82202689483239 18.05257736885426 13.794677734375 20.080322265625 C13.77473251342775 21.381595611572266 13.754787292480444 22.68286895751953 13.734237670898438 24.023574829101563 C13.717252008827018 25.454517401151065 13.700373249365612 26.885461245598833 13.68359375 28.31640625 C13.66303094443714 29.7722992016611 13.642034658848104 31.22818609080639 13.620620727539063 32.68406677246094 C13.565330390229065 36.52272646574136 13.515951978543455 40.36144064968909 13.4677734375 44.2001953125 C13.417609086726145 48.114632877723466 13.361896642987006 52.028990958257566 13.306640625 55.943359375 C13.198973968559187 63.62883900931541 13.097548067497996 71.31438457351578 13 79 C14.282617187500023 78.86722656249998 15.565234374999989 78.73445312500002 16.88671875 78.59765625 C17.608190917968727 78.52297119140627 18.32966308593751 78.44828613281248 19.072998046875 78.371337890625 C21.509419333319443 77.90183367465113 22.445902969761107 76.88127535239443 24 75 C24.99000000000001 75 25.980000000000018 75 27 75 C28.013236833367273 78.3711682939961 29.008186409778887 81.74747263870654 30 85.125 C30.286171875000036 86.07632812500003 30.57234374999996 87.02765625 30.8671875 88.0078125 C31.137890624999955 88.93593750000002 31.408593750000023 89.86406249999999 31.6875 90.8203125 C31.813183593749955 91.24449462890624 31.813183593749955 91.24449462890624 32.44921875 93.39111328125 C33 96 33 96 33 102 C22.110000000000014 102 11.220000000000027 102 0 102 C0 68.34000000000003 0 34.68000000000001 0 0 Z " fill="#047C3F" transform="translate(486,263)"/>
<path d="M0 0 C0.6599999999999682 0 1.32000000000005 0 2 0 C2.390625 5.95703125 2.390625 5.95703125 2 8 C-0.32247605150655545 10.536685007713515 -1.6474414010028795 10.974626464466098 -5.09375 11.22265625 C-6.217812500000036 11.169804687500005 -7.341874999999959 11.116953125000009 -8.5 11.0625 C-12.73477752924748 10.873100546283638 -15.32472640754304 10.870931817585529 -19 13 C-24.27085586317719 13.687502938675266 -26.84013775481185 12.169418853476657 -31 9 C-28.323377310053388 8.143480739217068 -26.48457134132923 8.028634925481697 -23.625 8.1875 C-20 8 -20 8 -16.9375 5.875 C-15.968124999999986 5.256250000000023 -14.998749999999973 4.637499999999989 -14 4 C-10.9375 4.8125 -10.9375 4.8125 -8 6 C-5.3125 5.9375 -5.3125 5.9375 -3 5 C-1.3125 2.4375 -1.3125 2.4375 0 0 Z " fill="#14844B" transform="translate(602,269)"/>
<path d="M0 0 C1.9375 0.75 1.9375 0.75 3.9375 2.75 C4.25 5.25 4.25 5.25 3.9375 7.75 C0.9375 9.75 0.9375 9.75 -1.6875 9.4375 C-4.0625 8.75 -4.0625 8.75 -5.0625 7.75 C-5.3125 4.8125 -5.3125 4.8125 -5.0625 1.75 C-2.0625 -0.25 -2.0625 -0.25 0 0 Z " fill="#12834A" transform="translate(337.0625,371.25)"/>
<path d="M0 0 C0.9900000000000091 0.3299999999999841 1.9800000000000182 0.660000000000025 3 1 C3 4.300000000000011 3 7.600000000000023 3 11 C2.340000000000032 11 1.67999999999995 11 1 11 C-0.6295041207174563 6.878313106420649 -1.262646009210016 4.292996431313952 0 0 Z " fill="#097F43" transform="translate(586,257)"/>
<path d="M0 0 C2.625 0.375 2.625 0.375 5 1 C5 2.319999999999993 5 3.6399999999999864 5 5 C3.3500000000000227 5.329999999999984 1.7000000000000455 5.660000000000025 0 6 C-0.6599999999999682 4.680000000000007 -1.32000000000005 3.3600000000000136 -2 2 C-1.3400000000000318 1.339999999999975 -0.67999999999995 0.6800000000000068 0 0 Z " fill="#E4F1EA" transform="translate(565,336)"/>
</svg>
