<?xml version="1.0" encoding="UTF-8"?>
<!-- Generator: visioncortex VTracer 0.6.12 -->
<svg version="1.1" xmlns="http://www.w3.org/2000/svg" width="960" height="640">
<path d="M0 0 C316.8 0 633.6 0 960 0 C960 211.20000000000002 960 422.40000000000003 960 640 C643.2 640 326.4 640 0 640 C0 428.79999999999995 0 217.59999999999997 0 0 Z " fill="#FEFEFE" transform="translate(0,0)"/>
<path d="M0 0 C0.6725683593749636 0.32548828124998863 1.3451367187499272 0.6509765625000057 2.0380859375 0.986328125 C38.72857717379111 18.881644072732882 68.23149007537882 48.91856714308679 87 85 C87.34804687500002 85.668701171875 87.69609375000005 86.33740234375 88.0546875 87.0263671875 C93.98061946245502 98.59418738112683 98.22914212801788 110.57787758590132 102 123 C102.32871093749998 124.07636718750001 102.65742187499995 125.15273437500002 102.99609375 126.26171875 C103.79468946014413 129.1623176764818 104.42656850545677 132.04628682999447 105 135 C105.06695068359375 135.33088623046876 105.06695068359375 135.33088623046876 105.40576171875 137.00537109375 C111.20663253263479 166.7405435334275 109.90580992877153 200.317037706247 100 229 C99.74798828124995 229.77134277343748 99.4959765625 230.54268554687496 99.236328125 231.33740234375 C83.20845295179356 280.24463114882866 49.6805718499927 320.1874403103011 4 344 C3.3366162109375637 344.348046875 2.6732324218750136 344.69609375 1.98974609375 345.0546875 C-13.98294510153164 353.3146843076693 -31.295863171439123 358.89982626019696 -49 362 C-49.33225585937498 362.06695068359375 -49.33225585937498 362.06695068359375 -51.013671875 362.40576171875 C-90.35083441657605 370.31769327971404 -132.23002029750523 363.7277409816622 -168 346 C-168.706728515625 345.657431640625 -169.41345703125 345.31486328125 -170.1416015625 344.9619140625 C-215.45017457017485 322.8536381019565 -248.24831360326982 283.05639398638624 -265.75 236.3125 C-266.0318212890625 235.5650854492187 -266.313642578125 234.81767089843754 -266.60400390625 234.047607421875 C-282.2697212374899 191.01130992951664 -279.86777503825436 138.77628274209292 -261.0078125 97.1484375 C-241.2724819759975 55.07699646045984 -211.41953333466995 22.505935896970186 -170 1 C-169.364814453125 0.6687109375000091 -168.72962890625 0.33742187499998977 -168.0751953125 -0.00390625 C-153.79407890656734 -7.340148745471055 -137.76826082593993 -12.938762550275385 -122 -16 C-121.33822753906247 -16.13390136718749 -120.676455078125 -16.26780273437501 -119.99462890625 -16.40576171875 C-79.76153198297868 -24.254614728359 -36.650866761583984 -18.14474669981894 0 0 Z " fill="#BC002D" transform="translate(564,147)"/>
</svg>
