<?xml version="1.0" encoding="UTF-8"?>
<!-- Generator: visioncortex VTracer 0.6.12 -->
<svg version="1.1" xmlns="http://www.w3.org/2000/svg" width="330" height="220">
<path d="M0 0 C108.9 0 217.8 0 330 0 C330 72.60000000000001 330 145.20000000000002 330 220 C221.1 220 112.19999999999999 220 0 220 C0 147.39999999999998 0 74.79999999999998 0 0 Z " fill="#FEFEFE" transform="translate(0,0)"/>
<path d="M0 0 C1.4111841936952487 1.1903694007968966 2.808082424389795 2.3979599472769735 4.1875 3.625 C4.790781250000009 4.123867187499997 5.394062500000018 4.622734374999993 6.015625 5.13671875 C15.483252513539924 13.602142450169708 21.609583180526215 26.738344644812926 22.42578125 39.2890625 C22.7330798520519 55.43032591304163 19.109187854010656 69.37659952164097 8.1875 81.625 C7.665429687499994 82.23988281250001 7.143359374999989 82.854765625 6.60546875 83.48828125 C-2.2939034222565624 93.25377236846157 -15.075620611029592 98.59513775693583 -28.0625 99.96875 C-44.47172303610955 100.4513742069444 -57.67972855092418 95.90222645892749 -70.125 85.3125 C-77.62658403644241 78.20827113723755 -82.56776180989908 70.4081302214098 -85.8125 60.625 C-86.225 59.428749999999994 -86.6375 58.2325 -87.0625 57 C-90.16630038787362 43.186690165679565 -87.67847522396572 28.40922668007954 -80.60546875 16.2890625 C-72.01854663085906 3.530280614914787 -59.46722431318295 -6.7914175866579995 -44.1640625 -10.09765625 C-28.58916047045355 -11.934563299996341 -12.74567717941909 -9.645963171499154 0 0 Z " fill="#CC2F3B" transform="translate(197.8125,65.375)"/>
<path d="M0 0 C0.3299999999999983 0 0.6599999999999966 0 1 0 C1.0257812499999943 0.8340234374999937 1.0515625000000028 1.6680468750000017 1.078125 2.52734375 C1.5897645712960156 12.67873797139589 3.4347642593935745 20.763687552463423 11 28 C18.47566106408226 33.38247596613924 25.987674974852638 34.20858925192728 35 33 C43.24084935317697 31.015419539029338 47.85289419108446 25.097305879700613 53.25634765625 19.0380859375 C58.50417061175884 13.241521553653712 62.43888697910114 10.532488430505879 70.3125 9.61328125 C79.40052854531348 9.17259021062597 86.2423725757684 10.692905475790326 93.0625 16.8671875 C99.61080629679665 23.87933215948641 101.57702177763844 30.265582793486146 101.26171875 39.80078125 C100.3856190333725 50.510119577133054 94.66623714792436 56.93332819051625 87 64 C80.90507529083925 69.12193974052968 74.54226326721425 72.51092804282649 67 75 C66.3567578125 75.2255859375 65.71351562500001 75.451171875 65.05078125 75.68359375 C53.32715892879861 79.24737831304864 38.777372541426615 77.4328354877828 27.734375 72.55859375 C13.505405763213929 64.69617613326307 3.134613218108285 53.48124588374358 -2 38 C-2.4124999999999943 36.80375000000001 -2.825000000000003 35.6075 -3.25 34.375 C-5.672578986288755 23.593432259219426 -4.966505032195926 9.933010064391866 0 0 Z " fill="#0147A0" transform="translate(114,88)"/>
<path d="M0 0 C1.35491943359375 1.64349365234375 1.35491943359375 1.64349365234375 2.9208984375 3.9755859375 C3.5078045654296943 4.843588256835943 4.094710693359374 5.711590576171886 4.69940185546875 6.60589599609375 C5.329692993164059 7.555794067382806 5.959984130859368 8.505692138671861 6.609375 9.484375 C7.254973754882812 10.451514282226555 7.900572509765624 11.418653564453138 8.56573486328125 12.41510009765625 C9.9312336121057 14.46725436987927 11.292836448562682 16.522005387508926 12.65087890625 18.5791015625 C14.739001823472734 21.73338633208465 16.851190746245308 24.870597526369238 18.96484375 28.0078125 C20.285369895218196 29.99899561920992 21.60443006638687 31.991151891231567 22.921875 33.984375 C23.560263061523443 34.92617614746092 24.198651123046872 35.86797729492187 24.85638427734375 36.83831787109375 C25.430681762695315 37.71892883300782 26.00497924804688 38.59953979492187 26.5966796875 39.5068359375 C27.110270385742183 40.27960876464843 27.623861083984366 41.05238159179686 28.15301513671875 41.84857177734375 C29 44 29 44 28.33770751953125 46.15582275390625 C27 48 27 48 24 50 C21.294428142651356 49.8241208900111 20.28866949200173 49.31681525244852 18.45599365234375 47.305450439453125 C17.967459106445318 46.57059417724611 17.478924560546872 45.83573791503906 16.9755859375 45.07861328125 C16.415307006835945 44.24750030517578 15.855028076171877 43.41638732910155 15.27777099609375 42.560089111328125 C14.685950317382805 41.65596282958984 14.094129638671873 40.75183654785155 13.484375 39.8203125 C12.868545532226563 38.89660858154298 12.252716064453125 37.97290466308593 11.61822509765625 37.021209716796875 C10.318418003954264 35.06613564433846 9.024266570452241 33.10729148281854 7.7353515625 31.14501953125 C5.756799933462446 28.135343725643196 3.758893284667707 25.13926233084186 1.7578125 22.14453125 C0.4988305496757164 20.24556647455063 -0.759020731711189 18.3458514979051 -2.015625 16.4453125 C-2.6155426025390653 15.545234680175781 -3.2154602050781307 14.645156860351563 -3.83355712890625 13.717803955078125 C-4.381227416992189 12.880386657714837 -4.928897705078128 12.042969360351549 -5.4931640625 11.18017578125 C-5.978516235351563 10.443728332519527 -6.463868408203126 9.707280883789053 -6.96392822265625 8.948516845703125 C-8 7 -8 7 -8 4 C-2.7428571428571473 0 -2.7428571428571473 0 0 0 Z " fill="#0B0B0B" transform="translate(82,133)"/>
<path d="M0 0 C3.355958283264343 0.5992782648686301 5.378012258745997 1.8462243553984905 8 4 C6.736248278217815 7.390620758817633 5.291506557117216 10.31702514977168 3.29443359375 13.331298828125 C2.754024353027347 14.151772003173832 2.2136151123046943 14.972245178222657 1.656829833984375 15.817581176757813 C1.0765603637695307 16.68859970092774 0.49629089355468636 17.55961822509765 -0.1015625 18.45703125 C-0.6980258178710983 19.359994354248045 -1.2944891357421824 20.26295745849609 -1.909027099609375 21.193283081054688 C-3.810128394308407 24.06917606395195 -5.71746700579763 26.94087004033993 -7.625 29.8125 C-8.917080425316868 31.76470017166801 -10.208751916824212 33.7171710656435 -11.5 35.669921875 C-14.661932817216893 40.44976307894446 -17.828993195377322 45.22617443325555 -21 50 C-23.971938503798853 48.875482728292326 -26.33440687131413 47.77706208579059 -29 46 C-28.3905694423446 42.99502242640588 -27.45442482619498 40.87481859970208 -25.746826171875 38.33642578125 C-25.513070297241214 37.98588638305664 -25.513070297241214 37.98588638305664 -24.330123901367188 36.211944580078125 C-23.822862701416014 35.46395599365235 -23.31560150146484 34.71596740722657 -22.79296875 33.9453125 C-22.53206703186035 33.55572860717774 -22.53206703186035 33.55572860717774 -21.211746215820313 31.584197998046875 C-19.54238400934304 29.094132359363556 -17.865095181242296 26.609524476305793 -16.1875 24.125 C-15.069131032218792 22.45999157582898 -13.951286516281868 20.794630754755644 -12.833984375 19.12890625 C-10.773023832665814 16.057856830021493 -8.709032586090132 12.988895616789108 -6.641357421875 9.92236328125 C-4.416629536098853 6.622114620927448 -2.204361903326756 3.3138831158788165 0 0 Z " fill="#0A0A0A" transform="translate(103,37)"/>
<path d="M0 0 C3.500591767246533 1.1668639224155122 3.9104821987233436 1.931365769004227 5.89501953125 4.92138671875 C6.173582916259761 5.336943206787112 6.173582916259761 5.336943206787112 7.583282470703125 7.439910888671875 C8.177127380371104 8.344037170410154 8.770972290039055 9.24816345214844 9.3828125 10.1796875 C9.99768524169923 11.10339141845703 10.612557983398432 12.027095336914059 11.246063232421875 12.978790283203125 C12.545941549760812 14.934996001573296 13.841910147493195 16.893804422977624 15.13427734375 18.85498046875 C17.115839044977264 21.861102402056503 19.109542074749754 24.85887022572227 21.10546875 27.85546875 C22.36530707860652 29.75472844899332 23.624445309144562 31.654452769387795 24.8828125 33.5546875 C25.480705871582018 34.45476531982422 26.078599243164035 35.35484313964844 26.694610595703125 36.282196044921875 C27.245433044433582 37.11961334228516 27.79625549316404 37.95703063964844 28.36376953125 38.81982421875 C28.849917297363277 39.55627166748047 29.336065063476553 40.29271911621095 29.836944580078125 41.051483154296875 C31 43 31 43 32 46 C30.019999999999982 47.31999999999999 28.04000000000002 48.64 26 50 C22.561004308568442 48.581795312582784 21.021179901401865 47.02954338152142 18.9755859375 43.94921875 C18.415307006835945 43.114953613281244 17.85502807617189 42.2806884765625 17.27777099609375 41.421142578125 C16.685950317382805 40.51904052734375 16.09412963867186 39.616938476562495 15.484375 38.6875 C15.176460266113281 38.22516967773437 15.176460266113281 38.22516967773437 13.61822509765625 35.885498046875 C12.319553780827363 33.93145217787145 11.025367790363902 31.974418979979838 9.7353515625 30.0146484375 C7.753427490412179 27.0052044578959 5.756864726842252 24.005899189445152 3.7578125 21.0078125 C2.4991261870685832 19.109954235481382 1.2412843724967786 17.211535559407004 -0.015625 15.3125 C-0.6155426025390511 14.410397949218748 -1.2154602050781307 13.508295898437495 -1.83355712890625 12.578857421875 C-2.381227416992175 11.744592285156251 -2.9288977050781284 10.910327148437503 -3.4931640625 10.05078125 C-3.978516235351549 9.315129394531247 -4.463868408203126 8.579477539062502 -4.96392822265625 7.821533203125 C-6 6 -6 6 -6 4 C-3.1875 1.8125 -3.1875 1.8125 0 0 Z " fill="#070707" transform="translate(236,29)"/>
<path d="M0 0 C2.9719385037988246 1.1245172717076635 5.334406871314144 2.2229379142094317 8 4 C6.748065788127647 7.351556524545877 5.331752606498213 10.25839425371612 3.35791015625 13.239501953125 C2.830411682128897 14.039954376220706 2.3029132080078227 14.840406799316405 1.759429931640625 15.665115356445313 C1.1917086791992233 16.514260101318357 0.6239874267578074 17.363404846191408 0.0390625 18.23828125 C-0.5479141235351506 19.119048309326175 -1.1348907470703153 19.999815368652342 -1.739654541015625 20.907272338867188 C-2.9793863890507026 22.762301605528904 -4.221829137133426 24.615521648490173 -5.466796875 26.467041015625 C-7.374084232261325 29.311134432830833 -9.261293565464086 32.167904982323606 -11.1484375 35.025390625 C-12.355553632520866 36.82633727995858 -13.563846796521872 38.62649568582239 -14.7734375 40.42578125 C-15.337110290527349 41.2850471496582 -15.900783081054684 42.14431304931641 -16.481536865234375 43.02961730957031 C-17.01533966064453 43.81430892944336 -17.549142456054682 44.5990005493164 -18.09912109375 45.407470703125 C-18.563858337402337 46.10298538208008 -19.028595581054688 46.798500061035156 -19.507415771484375 47.51509094238281 C-21 49 -21 49 -25 49 C-27.75 47.5 -27.75 47.5 -30 46 C-28.601168579137287 43.06617367960632 -27.008654696741274 40.39132143836984 -25.20263671875 37.6904296875 C-24.92242172241211 37.27014495849609 -24.92242172241211 37.27014495849609 -23.504364013671875 35.14324951171875 C-22.902220764160163 34.245195922851565 -22.300077514648436 33.34714233398437 -21.6796875 32.421875 C-21.061028137207032 31.495300903320313 -20.442368774414064 30.568726806640626 -19.804962158203125 29.61407470703125 C-17.830471056745722 26.6579310285817 -15.85277920135485 23.70394456099418 -13.875 20.75 C-12.53494473833993 18.744933011049085 -11.195098456068962 16.739726337073158 -9.85546875 14.734375 C-6.57273482262309 9.821293823001383 -3.2873710939130376 4.909979460031316 0 0 Z " fill="#070707" transform="translate(92,29)"/>
<path d="M0 0 C2.610704615548137 1.1349037796769608 3.454340968484786 2.4274658550683625 5.02593994140625 4.791473388671875 C5.586218872070312 5.622586364746098 6.146497802734373 6.453699340820322 6.7237548828125 7.30999755859375 C7.3155755615234455 8.214123840332036 7.907396240234377 9.118250122070322 8.51715087890625 10.049774169921875 C9.132980346679688 10.973478088378897 9.748809814453125 11.897182006835948 10.38330078125 12.848876953125 C11.683107874951986 14.803951025583416 12.977259308454009 16.762795187103336 14.26617431640625 18.725067138671875 C16.244725945443776 21.73474294427865 18.242632594238557 24.730824339080044 20.24371337890625 27.725555419921875 C21.502695329230534 29.624520195371247 22.76054661061744 31.524235172016773 24.01715087890625 33.424774169921875 C24.317109680175776 33.874813079833984 24.317109680175776 33.874813079833984 25.8350830078125 36.15228271484375 C26.38275329589844 36.98970001220704 26.93042358398438 37.827117309570326 27.49468994140625 38.689910888671875 C27.980042114257813 39.42635833740235 28.465394287109376 40.16280578613282 28.9654541015625 40.92156982421875 C30.00152587890625 42.870086669921875 30.00152587890625 42.870086669921875 30.00152587890625 45.870086669921875 C28.84652587890625 46.53008666992187 28.84652587890625 46.53008666992187 23.00152587890625 49.870086669921875 C16.1542061779314 40.70098893536175 9.82202918149352 31.21797089239982 3.50152587890625 21.682586669921875 C2.4783060708087987 20.142728452060567 1.4548700329031945 18.603013893873566 0.43121337890625 17.063446044921875 C-2.047840464317453 13.333974704098466 -4.52397610878338 9.602582188232645 -6.99847412109375 5.870086669921875 C-5.541128054715465 2.5069803628950638 -4.157122144629973 -0.27023896664462654 0 0 Z " fill="#070707" transform="translate(57.99847412109375,149.12991333007813)"/>
<path d="M0 0 C2.3100000000000023 1.3200000000000003 4.6200000000000045 2.6400000000000006 7 4 C6.368275738145456 7.2904783366035915 5.178229754024116 9.53734404333629 3.316162109375 12.3095703125 C2.755656585693359 13.150139770507813 2.1951510620117176 13.990709228515627 1.6176605224609375 14.85675048828125 C1.3140082550048788 15.305777282714843 1.3140082550048788 15.305777282714843 -0.22265625 17.578125 C-0.8427305603027264 18.504699096679687 -1.462804870605467 19.431273193359374 -2.1016693115234375 20.38592529296875 C-4.083227722090015 23.344270063405403 -6.072743796120903 26.297164355020094 -8.0625 29.25 C-9.40742862710485 31.254854510656003 -10.751836155899653 33.26005869836225 -12.095703125 35.265625 C-15.391099654578824 40.18115676792054 -18.69304556413276 45.09223750624051 -22 50 C-25.34430737035447 49.276336850532545 -27.342623427966522 48.182845041313215 -30 46 C-28.746694124667187 42.63127638123828 -27.325773656409517 39.7491411256725 -25.310302734375 36.7763671875 C-25.041711959838864 36.377754821777344 -25.041711959838864 36.377754821777344 -23.682479858398438 34.36053466796875 C-23.10534744262695 33.51452697753906 -22.52821502685547 32.668519287109376 -21.93359375 31.796875 C-21.33950210571289 30.918479614257812 -20.745410461425777 30.040084228515624 -20.133316040039063 29.13507080078125 C-18.23911173536507 26.337035418034198 -16.338261689202824 23.54358374956297 -14.4375 20.75 C-13.153888291662113 18.854443282303208 -11.870680470070653 16.958612997996468 -10.587890625 15.0625 C-9.370154148450766 13.26537932747987 -8.152067372248396 11.46849595885655 -6.93359375 9.671875 C-6.354437103271479 8.817770385742186 -5.775280456542973 7.963665771484376 -5.1785736083984375 7.08367919921875 C-4.644544219970697 6.299063110351561 -4.110514831542972 5.514447021484376 -3.560302734375 4.7060546875 C-3.0889036560058543 4.012760620117188 -2.6175045776367227 3.319466552734376 -2.1318206787109375 2.60516357421875 C-1 1.0000000000000036 -1 1.0000000000000036 0 0 Z " fill="#070707" transform="translate(81,21)"/>
<path d="M0 0 C3.764538105673296 3.4390990638277117 6.450593250531057 7.34304535000102 9.25 11.5625 C9.708906249999984 12.234746093750005 10.167812499999997 12.906992187499995 10.640625 13.599609375 C14 18.63367280505952 14 18.63367280505952 14 22 C8.742857142857162 26 8.742857142857162 26 6 26 C4.57958984375 24.1640625 4.57958984375 24.1640625 2.9609375 21.625 C2.380859375 20.72265625 1.80078125 19.8203125 1.203125 18.890625 C0.5998437499999909 17.936718749999997 -0.003437499999989768 16.982812499999994 -0.625 16 C-1.2360156249999932 15.046093749999997 -1.8470312499999864 14.092187499999994 -2.4765625 13.109375 C-3.990706485720949 10.743525022311005 -5.498150810965683 8.373666645972705 -7 6 C-2.25 1.125 -2.25 1.125 0 0 Z " fill="#0C0C0C" transform="translate(242,61)"/>
<path d="M0 0 C2.971938503798839 1.1245172717076741 5.334406871314144 2.2229379142094388 8 4 C6.35184559720517 9.033820977210723 3.3935194904132118 13.02604909927365 0.375 17.3125 C-0.140625 18.053066406249997 -0.65625 18.793632812499993 -1.1875 19.556640625 C-2.4539472630114574 21.374226974692363 -3.7248575943428364 23.18850837978158 -5 25 C-8.344307370354471 24.276336850532545 -10.342623427966544 23.182845041313215 -13 21 C-11.382657839278664 16.23115111467311 -8.748020814231268 12.376337489635148 -5.9375 8.25 C-5.4779492187500125 7.5655078124999875 -5.018398437499997 6.881015625000003 -4.544921875 6.17578125 C-1.1691916793313055 1.1691916793313055 -1.1691916793313055 1.1691916793313055 0 0 Z " fill="#0C0C0C" transform="translate(232,158)"/>
<path d="M0 0 C2.971938503798839 1.1245172717076741 5.334406871314144 2.2229379142094388 8 4 C6.528750891366087 9.61910804140902 3.694786976810576 13.715502035085677 0.375 18.375 C-0.140625 19.1110546875 -0.65625 19.847109375000002 -1.1875 20.60546875 C-2.451862535408054 22.408356069007795 -3.722746624086426 24.206233776113407 -5 26 C-11.875 22.25 -11.875 22.25 -13 20 C-11.920166015625 17.93701171875 -11.920166015625 17.93701171875 -10.25390625 15.4296875 C-9.664160156250006 14.533789062500006 -9.074414062500011 13.637890625000011 -8.466796875 12.71484375 C-8.152587890625 12.246269531249993 -8.152587890625 12.246269531249993 -6.5625 9.875 C-6.25022460937501 9.402558593750001 -6.25022460937501 9.402558593750001 -4.669921875 7.01171875 C-3.1203670151219853 4.669643465604253 -1.5634992135907737 2.3327799693995246 0 0 Z " fill="#0C0C0C" transform="translate(248,133)"/>
<path d="M0 0 C1.533935546875 1.712402343749993 1.533935546875 1.712402343749993 3.13671875 4.0859375 C3.7135742187500114 4.934140624999998 4.290429687499994 5.782343750000003 4.884765625 6.65625 C5.479667968749993 7.553437500000001 6.074570312499986 8.450625000000002 6.6875 9.375 C6.990751953124999 9.819726562500001 6.990751953124999 9.819726562500001 8.525390625 12.0703125 C13 18.71427692632171 13 18.71427692632171 13 21 C11.038521260902712 22.389380773527236 9.038334244397902 23.72604109725131 7 25 C1.9564680873469342 22.88331256548618 -0.0002764354555608861 19.085266973855035 -2.875 14.625 C-3.3983593750000125 13.856718749999999 -3.9217187499999966 13.088437499999998 -4.4609375 12.296875 C-4.945625000000007 11.551796875 -5.430312500000014 10.806718750000002 -5.9296875 10.0390625 C-6.152614746093747 9.699797363281249 -6.152614746093747 9.699797363281249 -7.28076171875 7.98291015625 C-8 6 -8 6 -7.31689453125 3.87255859375 C-5.208845169659156 0.8750171396525346 -3.6521618512040277 0 0 0 Z " fill="#0B0B0B" transform="translate(227,37)"/>
<path d="M0 0 C1.1549999999999727 0.6599999999999966 1.1549999999999727 0.6599999999999966 7 4 C7 8.883309601310316 3.8463470538176807 12.222229826313423 1.1875 16.1875 C0.6402929687500034 17.03248046875001 0.09308593750000682 17.87746093749999 -0.470703125 18.748046875 C-1.00244140625 19.54662109374999 -1.5341796875 20.34519531250001 -2.08203125 21.16796875 C-2.3255432128906364 21.535472412109385 -2.3255432128906364 21.535472412109385 -3.557861328125 23.395263671875 C-3.795814208984382 23.660045166015635 -3.795814208984382 23.660045166015635 -5 25 C-8.57575895752069 25 -10.052959352540569 23.91159393348721 -13 22 C-12.374165097809538 18.84032929677994 -11.293257326890284 16.612084027240712 -9.53125 13.92578125 C-9.042695312500001 13.176191406250013 -8.554140625000002 12.426601562499997 -8.05078125 11.654296875 C-7.539023437499992 10.881503906250003 -7.0272656250000125 10.108710937500007 -6.5 9.3125 C-5.988242187499992 8.528105468749999 -5.4764843750000125 7.743710937499998 -4.94921875 6.935546875 C-1.1756931390977456 1.1756931390977456 -1.1756931390977456 1.1756931390977456 0 0 Z " fill="#090909" transform="translate(255,173)"/>
<path d="M0 0 C3.365256208143478 0.4641732700887644 5.406085008257946 1.8692841139261986 8 4 C6.35184559720517 9.033820977210723 3.3935194904132118 13.02604909927365 0.375 17.3125 C-0.140625 18.053066406249997 -0.65625 18.793632812499993 -1.1875 19.556640625 C-2.4539472630114574 21.374226974692363 -3.7248575943428364 23.18850837978158 -5 25 C-7.97193850379881 23.875482728292326 -10.334406871314116 22.77706208579056 -13 21 C-11.382657839278693 16.23115111467311 -8.748020814231268 12.376337489635148 -5.9375 8.25 C-5.477949218749984 7.5655078124999875 -5.018398437500025 6.881015625000003 -4.544921875 6.17578125 C-1.169191679331334 1.1691916793313055 -1.169191679331334 1.1691916793313055 0 0 Z " fill="#090909" transform="translate(271,149)"/>
<path d="M0 0 C3.3443073703544712 0.7236631494674555 5.342623427966515 1.8171549586867854 8 4 C6.35184559720517 9.033820977210723 3.3935194904132118 13.02604909927365 0.375 17.3125 C-0.140625 18.053066406249997 -0.65625 18.793632812499993 -1.1875 19.556640625 C-2.4539472630114574 21.374226974692363 -3.7248575943428364 23.18850837978158 -5 25 C-7.971938503798839 23.875482728292326 -10.334406871314144 22.77706208579056 -13 21 C-11.35184559720517 15.966179022789277 -8.393519490413183 11.97395090072635 -5.375 7.6875 C-4.859375 6.946933593750003 -4.34375 6.206367187500007 -3.8125 5.443359375 C-2.5460527369885426 3.6257730253076375 -1.2751424056571636 1.811491620218419 0 0 Z " fill="#080808" transform="translate(243,166)"/>
<path d="M0 0 C2.6163146744362393 1.1412060713896608 3.459591992946031 2.4586504246735785 5.0166015625 4.837646484375 C5.545117187499997 5.637509765624998 6.073632812499994 6.4373730468749955 6.6181640625 7.261474609375 C7.156992187499995 8.102587890624989 7.695820312500004 8.943701171875006 8.2509765625 9.810302734375 C8.805273437500006 10.647548828124997 9.359570312499997 11.484794921874993 9.9306640625 12.347412109375 C14.0009765625 18.578198362453804 14.0009765625 18.578198362453804 14.0009765625 20.872802734375 C11.1884765625 23.060302734375 11.1884765625 23.060302734375 8.0009765625 24.872802734375 C4.471612839896665 23.696348160173898 4.057844554696018 22.874223410547387 2.0830078125 19.837646484375 C1.55126953125 19.02875976562501 1.01953125 18.219873046874994 0.4716796875 17.386474609375 C0.1980761718750017 16.96140625000001 0.1980761718750017 16.96140625000001 -1.1865234375 14.810302734375 C-1.7453320312500011 13.956298828125 -2.3041406250000023 13.102294921875 -2.8798828125 12.222412109375 C-4.260285455414518 10.110514048847648 -5.632911936822339 7.993962194426501 -6.9990234375 5.872802734375 C-5.541168655874387 2.508522469085108 -4.1572575535977165 -0.26452505928486403 0 0 Z " fill="#080808" transform="translate(85.9990234375,166.127197265625)"/>
<path d="M0 0 C2.9719385037988104 1.1245172717076741 5.334406871314172 2.2229379142094388 8 4 C6.636553998549289 6.838193717305614 5.116775648216674 9.471925749248811 3.3984375 12.109375 C2.9085937500000227 12.863476562500011 2.4187499999999886 13.617578124999994 1.9140625 14.39453125 C1.406171874999984 15.171835937499992 0.898281250000025 15.949140625000013 0.375 16.75 C0.1171875 17.146386718749994 0.1171875 17.146386718749994 -1.1875 19.15234375 C-2.4564651718906134 21.102790217905977 -3.7273532241690646 23.051954560809918 -5 25 C-8.344307370354471 24.276336850532545 -10.342623427966544 23.182845041313215 -13 21 C-11.382657839278664 16.23115111467311 -8.748020814231268 12.376337489635148 -5.9375 8.25 C-5.4779492187500125 7.5655078124999875 -5.018398437499997 6.881015625000003 -4.544921875 6.17578125 C-1.169191679331334 1.1691916793313055 -1.169191679331334 1.1691916793313055 0 0 Z " fill="#080808" transform="translate(260,141)"/>
<path d="M0 0 C5.043531912653052 2.116687434513807 7.000276435455561 5.914733026144972 9.875 10.375 C10.398359374999998 11.143281250000001 10.921718749999997 11.911562500000002 11.4609375 12.703125 C11.945625000000007 13.448203124999992 12.4303125 14.193281250000013 12.9296875 14.9609375 C13.152614746093747 15.300202636718751 13.152614746093747 15.300202636718751 14.28076171875 17.01708984375 C15 19 15 19 14.31689453125 21.12744140625 C13 23 13 23 10 25 C9.010000000000005 25 8.019999999999996 25 7 25 C5.57373046875 23.395263671875 5.57373046875 23.395263671875 4.1171875 21.16796875 C3.5899609374999955 20.36939453125001 3.062734375000005 19.57082031249999 2.51953125 18.748046875 C1.9768359374999989 17.90306640624999 1.4341406249999977 17.05808593750001 0.875 16.1875 C0.32457031250000057 15.354121093749995 -0.22585937499999886 14.520742187499991 -0.79296875 13.662109375 C-4.845277255639097 7.464168233082717 -4.845277255639097 7.464168233082717 -6 4 C-4.020000000000003 2.680000000000007 -2.0400000000000063 1.3600000000000136 0 0 Z " fill="#080808" transform="translate(68,141)"/>
<path d="M0 0 C3.529363722603307 1.1764545742011094 3.9431320078039676 1.998579323827613 5.91796875 5.03515625 C6.44970703125 5.844042968750003 6.9814453125 6.652929687499999 7.529296875 7.486328125 C8.076503906250025 8.33646484375 8.623710937499993 9.186601562500002 9.1875 10.0625 C9.466904296874986 10.489501953125 9.466904296874986 10.489501953125 10.880859375 12.650390625 C12.261262017914532 14.76228868552736 13.633888499322325 16.878840539948484 15 19 C13.630164972608384 22.161157755519127 13.010936204027018 22.99270919731532 10 25 C7.266063391268403 24.826040428291506 6.280933144251378 24.31316197796886 4.4443359375 22.265869140625 C3.9625488281250227 21.529733886718745 3.4807617187499886 20.793598632812504 2.984375 20.03515625 C2.4558593749999886 19.235292968750002 1.9273437499999773 18.435429687500005 1.3828125 17.611328125 C0.8439843749999909 16.770214843749997 0.3051562499999818 15.929101562500001 -0.25 15.0625 C-0.8042968749999773 14.225253906250003 -1.3585937500000114 13.3880078125 -1.9296875 12.525390625 C-6 6.2946043719211815 -6 6.2946043719211815 -6 4 C-3.1875 1.8125 -3.1875 1.8125 0 0 Z " fill="#090909" transform="translate(264,46)"/>
<path d="M0 0 C3.9385483764408207 3.693265114562845 6.953458302230445 7.53122726809756 9.875 12.0625 C10.29007812499998 12.674160156249997 10.705156250000016 13.2858203125 11.1328125 13.916015625 C12.711274434561744 16.34947777411601 13.959147565992453 18.309113248402213 14.1328125 21.24609375 C12.377989694667804 23.963043541703968 9.907557561033741 24.7627414633899 7 26 C4.821993262590354 22.903647950437858 2.659607646784252 19.796706435339075 0.5 16.6875 C-0.1200390625000125 15.806425781249999 -0.7400781249999966 14.925351562499998 -1.37890625 14.017578125 C-1.9654296875000057 13.170019531249999 -2.5519531250000114 12.322460937499997 -3.15625 11.44921875 C-3.7008789062500114 10.66893310546875 -4.245507812499994 9.888647460937499 -4.806640625 9.084716796875 C-6 7 -6 7 -6 4 C-3 1.8125 -3 1.8125 0 0 Z " fill="#080808" transform="translate(248,21)"/>
<path d="M0 0 C0.3299999999999983 0 0.6599999999999966 0 1 0 C1 3.299999999999997 1 6.599999999999994 1 10 C0.010000000000005116 9.340000000000003 -0.980000000000004 8.680000000000007 -2 8 C-1.125 2.25 -1.125 2.25 0 0 Z " fill="#34569C" transform="translate(114,88)"/>
</svg>
