<?xml version="1.0" encoding="UTF-8"?>
<!-- Generator: visioncortex VTracer 0.6.12 -->
<svg version="1.1" xmlns="http://www.w3.org/2000/svg" width="250" height="163">
<path d="M0 0 C82.5 0 165 0 250 0 C250 53.79 250 107.58 250 163 C167.5 163 85 163 0 163 C0 109.21000000000001 0 55.42 0 0 Z " fill="#005430" transform="translate(0,0)"/>
<path d="M0 0 C0.6599999999999966 0.3299999999999983 1.3199999999999932 0.6599999999999966 2 1 C2.6328125 3.2851562500000426 2.6328125 3.2851562500000426 3.125 6.0625 C3.208789062500003 6.522050781250002 3.208789062500003 6.522050781250002 3.6328125 8.84765625 C3.7539843750000017 9.5579296875 3.8751562500000034 10.268203125 4 11 C4.825000000000003 11.165 4.825000000000003 11.165 9 12 C8.835000000000008 11.463750000000005 8.835000000000008 11.463750000000005 8 8.75 C7 5.000000000000007 7 5.000000000000007 7 1 C7.990000000000009 1.3299999999999983 8.97999999999999 1.6599999999999966 10 2 C10.164999999999992 3.8149999999999977 10.164999999999992 3.8149999999999977 11 13 C11.329999999999984 13 11.659999999999997 13 12 13 C12.659999999999997 11.68 13.319999999999993 10.36 14 9 C13.009999999999991 7.68 12.02000000000001 6.359999999999999 11 5 C11.329999999999984 4.340000000000003 11.659999999999997 3.6799999999999997 12 3 C16.111701347096442 5.688420111563055 18.887949089827487 9.251393221837631 22 13 C22 9.04 22 5.079999999999998 22 1 C22.659999999999997 1 23.319999999999993 1 24 1 C24.845772641703235 4.001799621782766 25.173886722803132 6.829821026172233 25.375 9.9375 C26.00926862456845 16.582683589709333 28.255119073508496 19.255119073508496 33 24 C32.670000000000016 20.205 32.670000000000016 20.205 31 1 C31.659999999999997 1 32.31999999999999 1 33 1 C34.93740635474671 4.874812709493398 35.121705777174896 7.880433177138627 35.00390625 12.09765625 C35 14.000000000000014 35 14.000000000000014 35.5 16.4375 C37.08337051211083 24.552273874568115 35.46730259211978 30.585544903458143 32 38 C33.31999999999999 38 34.639999999999986 38 36 38 C36.66 36.349999999999994 37.31999999999999 34.7 38 33 C38.329999999999984 33.66 38.66 34.31999999999999 39 35 C37.68000000000001 36.97999999999999 36.360000000000014 38.96000000000001 35 41 C34.422500000000014 40.690625 33.845 40.381249999999994 33.25 40.0625 C28.12858090438732 37.64405209373845 25.466951876204575 38.21272727124081 20 40 C20 39.00999999999999 20 38.02000000000001 20 37 C19.27812499999999 37.68062499999999 18.556250000000006 38.36125 17.8125 39.0625 C15 41 15 41 12.5625 41 C7.978358758913757 39.21106683274684 4.392153460606323 36.51258494441484 1 33 C0.5037109375000028 33.4215234375 0.007421875000005684 33.843046875 -0.50390625 34.27734375 C-5.0701139376562026 37.95976930456146 -8.110245291422032 39.75459355380926 -14 40 C-14.329999999999998 39.00999999999999 -14.659999999999997 38.02000000000001 -15 37 C-16.203984375000005 37.28874999999999 -17.40796875000001 37.5775 -18.6484375 37.875 C-20.223930396001663 38.250117356190884 -21.799452763583517 38.625110946961996 -23.375 39 C-23.772031249999998 39.09539062499999 -23.772031249999998 39.09539062499999 -25.78125 39.578125 C-26.541796875000003 39.75859375 -27.302343750000006 39.939062500000006 -28.0859375 40.125 C-28.436804199218756 40.2087890625 -28.436804199218756 40.2087890625 -30.21240234375 40.6328125 C-32 41 -32 41 -34 41 C-33.834999999999994 40.010000000000005 -33.834999999999994 40.010000000000005 -33 35 C-32.67 36.31999999999999 -32.34 37.64 -32 39 C-30.951992187499997 38.639062499999994 -29.903984374999993 38.278125 -28.82421875 37.90625 C-27.445393491706497 37.43726181690697 -26.06648275028178 36.96852490138133 -24.6875 36.5 C-23.99720703125 36.2615234375 -23.3069140625 36.023046875000006 -22.595703125 35.77734375 C-19.61068510744319 34.76791736725133 -17.17341085533978 34 -14 34 C-14 31.36 -14 28.72 -14 26 C-12 29 -12 29 -12 31 C-9.0625 30.1875 -9.0625 30.1875 -6 29 C-5.670000000000002 28.010000000000005 -5.340000000000003 27.019999999999996 -5 26 C-6.4375 23.3125 -6.4375 23.3125 -8 21 C-8.659999999999997 21.659999999999997 -9.319999999999993 22.319999999999993 -10 23 C-13.625 22.625 -13.625 22.625 -17 22 C-16.896874999999994 21.525624999999998 -16.896874999999994 21.525624999999998 -16.375 19.125 C-16.25125 18.09375 -16.127499999999998 17.0625 -16 16 C-16.659999999999997 15.340000000000003 -17.319999999999993 14.68 -18 14 C-18.2699190608366 11.311606154067448 -18.087373568913222 8.708580636309854 -18 6 C-17.67 6 -17.340000000000003 6 -17 6 C-16.67 8.64 -16.340000000000003 11.280000000000001 -16 14 C-12.781763947482261 11.854509298321503 -12.566309571176959 11.452811944763482 -11.5 8 C-10.433690428823041 4.547188055236532 -10.218236052517739 4.14549070167849 -7 2 C-7 5.299999999999997 -7 8.600000000000001 -7 12 C-5.349999999999994 12 -3.700000000000003 12 -2 12 C-0.2604334157778112 10.260433415777825 -0.6280961444581976 7.80633779540895 -0.4375 5.4375 C-0.35371093749999716 4.425585937500003 -0.2699218749999943 3.4136718749999986 -0.18359375 2.37109375 C-0.15330078124999602 1.9798632812499974 -0.15330078124999602 1.9798632812499974 0 0 Z " fill="#1D6747" transform="translate(118,42)"/>
<path d="M0 0 C0.9899999999999949 0.3299999999999983 1.980000000000004 0.6599999999999966 3 1 C2.6700000000000017 2.6499999999999986 2.3400000000000034 4.299999999999997 2 6 C0.6800000000000068 6.329999999999998 -0.6400000000000006 6.659999999999997 -2 7 C-1.6700000000000017 9.310000000000002 -1.3400000000000034 11.620000000000005 -1 14 C-0.3400000000000034 14 0.3199999999999932 14 1 14 C1.1817578124999955 13.373515624999996 1.3635156250000051 12.74703125 1.55078125 12.1015625 C1.8021484374999943 11.284296875000003 2.053515625000003 10.467031249999998 2.3125 9.625 C2.556132812499996 8.812890625000001 2.7997656250000063 8.000781250000003 3.05078125 7.1640625 C4 5 4 5 7 3 C7.329999999999998 6.299999999999997 7.659999999999997 9.600000000000001 8 13 C9.650000000000006 13 11.299999999999997 13 13 13 C14.20272819033616 10.59454361932768 14.100714721042166 9.05003047295176 14.0625 6.375 C14.053476562499995 5.557734375000003 14.044453125000004 4.740468749999998 14.03515625 3.8984375 C14.023554687499995 3.271953125000003 14.011953125000005 2.645468749999999 14 2 C14.659999999999997 1.6700000000000017 15.319999999999993 1.3400000000000034 16 1 C16.659999999999997 4.299999999999997 17.319999999999993 7.600000000000001 18 11 C18 7.700000000000003 18 4.399999999999999 18 1 C18.659999999999997 1 19.319999999999993 1 20 1 C21.327126099739175 4.981378299217518 21.06915912884982 8.850452269010859 21 13 C21.989999999999995 13 22.980000000000004 13 24 13 C23.340000000000003 9.04 22.680000000000007 5.079999999999998 22 1 C22.659999999999997 1 23.319999999999993 1 24 1 C25.4518447794037 5.53701493563657 26.235091962857496 9.180614761421516 26 14 C25.340000000000003 14.329999999999998 25.340000000000003 14.329999999999998 22 16 C22 17.65 22 19.299999999999997 22 21 C23.980000000000004 20.340000000000003 25.960000000000008 19.68 28 19 C28.164999999999992 19.33 28.164999999999992 19.33 29 21 C28.963906250000008 20.65517578125 28.963906250000008 20.65517578125 28.78125 18.91015625 C28.188060583737453 12.904113410341694 27.901077049139417 7.0343000024949305 28 1 C29.92536937819392 2.6055848447914727 30.91074166572622 3.4776947794431123 31.340576171875 5.992919921875 C31.332720947265628 6.362115478515626 31.332720947265628 6.362115478515626 31.29296875 8.23046875 C31.288134765625003 8.631689453124999 31.288134765625003 8.631689453124999 31.263671875 10.662109375 C31.23853515625001 11.495488281249997 31.21339843749999 12.328867187500002 31.1875 13.1875 C31.180732421875007 13.609990234375005 31.180732421875007 13.609990234375005 31.146484375 15.748046875 C31.11115798571757 17.832303842663876 31.057351391717958 19.916232767580993 31 22 C31.659999999999997 22 32.31999999999999 22 33 22 C32.67 25.960000000000008 32.34 29.92 32 34 C31.67 34 31.340000000000003 34 31 34 C30.835000000000008 32.515 30.835000000000008 32.515 30 25 C29.00999999999999 24.67 28.02000000000001 24.340000000000003 27 24 C27 23.340000000000003 27 22.680000000000007 27 22 C25.349999999999994 22.33 23.700000000000003 22.659999999999997 22 23 C22 24.650000000000006 22 26.299999999999997 22 28 C21.67 26.680000000000007 21.340000000000003 25.36 21 24 C20.340000000000003 24 19.680000000000007 24 19 24 C18.969707031249996 24.37833984375 18.969707031249996 24.37833984375 18.81640625 26.29296875 C17.722645579525135 29.91964886789033 16.211295890776555 30.530560464514025 12.9375 32.3125 C12.018398437499997 32.82425781250001 11.099296874999993 33.336015625 10.15234375 33.86328125 C9.442070312499993 34.238398437499995 8.731796875 34.61351562499999 8 35 C12.827479903420624 33.58707905265737 16.716235895653313 31.570258462608024 21 29 C19.608026711825744 32.38256721323174 18.197450400747016 33.83688682116052 15.0625 35.6875 C14.372851562500003 36.1038671875 13.683203125000006 36.520234375 12.97265625 36.94921875 C8.913895644808505 39.11121202286438 5.54682288235675 39.39884411248744 1 39 C-1.4375 37.5 -1.4375 37.5 -3 35 C-3.3211182408542754 32.241541668727194 -3.186304021542824 29.794560323142335 -3 27 C-3.6599999999999966 26.67 -4.32 26.340000000000003 -5 26 C-4.009999999999998 25.010000000000005 -3.019999999999996 24.019999999999996 -2 23 C-2.3299999999999983 22.010000000000005 -2.6599999999999966 21.019999999999996 -3 20 C-2 19 -2 19 0.5625 18.9375 C0.9646874999999966 18.947812499999998 0.9646874999999966 18.947812499999998 3 19 C4.0625 17.125 4.0625 17.125 5 15 C4.670000000000002 14.340000000000003 4.340000000000003 13.68 4 13 C3.3400000000000034 14.32 2.680000000000007 15.64 2 17 C0.6800000000000068 17 -0.6400000000000006 17 -2 17 C-3.9190336466082556 14.177891696164338 -3.9911021158511915 12.870980679842326 -3.75 9.375 C-3 6 -3 6 -1 4 C-0.375 1.875 -0.375 1.875 0 0 Z " fill="#DAE6E1" transform="translate(68,42)"/>
<path d="M0 0 C2.293805406979004 1.783395727015474 2.9502304714470142 2.6652557089711237 3.384765625 5.587890625 C3.391855468750009 6.600449218750001 3.3989453124999898 7.613007812500001 3.40625 8.65625 C3.4281640625000023 9.760976562499998 3.4500781250000045 10.865703124999996 3.47265625 12.00390625 C3.490885416666657 14.334635416666671 3.509114583333343 16.66536458333333 3.52734375 18.99609375 C3.5492578125000023 20.100820312500005 3.5711718750000045 21.205546874999996 3.59375 22.34375 C3.600839843750009 23.35630859375 3.6079296874999898 24.3688671875 3.615234375 25.412109375 C4 28 4 28 5.357421875 29.873046875 C7 31 7 31 9.6875 30.6875 C10.450625000000002 30.460624999999993 11.213750000000005 30.23375 12 30 C11.836639342754637 26.642081075793584 11.611194786728504 23.2910203210037 11.375 19.9375 C11.329882812499989 18.99455078125 11.284765625000006 18.051601562499997 11.23828125 17.080078125 C10.772857927459597 11.008419326404834 9.680321480424851 7.622933710900142 5.26416015625 3.342041015625 C4 2 4 2 4 0 C4.824999999999989 0.3299999999999983 4.824999999999989 0.3299999999999983 9 2 C9.330000000000013 1.3400000000000034 9.659999999999997 0.6799999999999997 10 0 C10.659999999999997 0 11.319999999999993 0 12 0 C12.693434734389399 2.3403422285641895 12.996821441479597 4.042380780271884 12.8125 6.5 C13 9 13 9 17 13 C17 8.71 17 4.420000000000002 17 0 C20 3 20 3 20.22265625 5.26953125 C20.169804687500005 6.1087109375 20.11695312500001 6.947890624999999 20.0625 7.8125 C19.863003243382337 15.036382555418584 21.387130525001282 18.233913156251617 26 24 C26 16.08 26 8.159999999999997 26 0 C30.200692061910956 4.200692061910942 29.419931658828716 7.234911027912467 29.458984375 12.97265625 C29.45189453124999 14.2604296875 29.44480468750001 15.548203125 29.4375 16.875 C29.44749023437501 17.515019531249997 29.44749023437501 17.515019531249997 29.498046875 20.75390625 C29.497402343749997 21.987539062500005 29.496757812499993 23.221171874999996 29.49609375 24.4921875 C29.497020263671885 25.056071777343746 29.497020263671885 25.056071777343746 29.501708984375 27.90966796875 C28.89220515736065 31.663974266729454 27.630676247668788 33.30253691135077 25 36 C22.24077693077828 37.51757268807194 20.806022781439026 38.13070639699012 17.6875 37.625 C17.13062500000001 37.41875 16.57374999999999 37.212500000000006 16 37 C16.329999999999984 36.83500000000001 16.329999999999984 36.83500000000001 18 36 C18.107834001132716 33.061523469133405 18.187219162767462 30.126988486137748 18.25 27.1875 C18.283515625000007 26.354121093749995 18.317031250000014 25.520742187500005 18.3515625 24.662109375 C18.358007812500006 24.260888671874994 18.358007812500006 24.260888671874994 18.390625 22.23046875 C18.401098632812506 21.86127319335938 18.401098632812506 21.86127319335938 18.4541015625 19.992919921875 C18 18 18 18 14 15 C14 20.61 14 26.22 14 32 C14.659999999999997 32 15.319999999999993 32 16 32 C16 32.66 16 33.31999999999999 16 34 C16.659999999999997 34.33 17.319999999999993 34.66 18 35 C16.349999999999994 35.66 14.699999999999989 36.31999999999999 13 37 C12.669999999999987 36.34 12.340000000000003 35.68000000000001 12 35 C9.685937803103485 34.26924351676952 7.351711306516734 33.59861742347698 5 33 C5 32.34 5 31.680000000000007 5 31 C4.340000000000003 31 3.680000000000007 31 3 31 C2.6699999999999875 31.659999999999997 2.3400000000000034 32.31999999999999 2 33 C2 32.34 2 31.680000000000007 2 31 C1.009999999999991 31.33 0.020000000000010232 31.659999999999997 -1 32 C-0.669516601562492 31.474384765625004 -0.3390332031250125 30.948769531250008 0.00146484375 30.4072265625 C1.3041987884668345 27.266650353476066 1.1307219704497413 24.875883349894423 0.9765625 21.484375 C0.9250000000000114 20.233984375 0.8734374999999943 18.983593749999997 0.8203125 17.6953125 C0.755859375 16.393359375000003 0.69140625 15.091406249999999 0.625 13.75 C0.596640624999992 13.091289062499996 0.596640624999992 13.091289062499996 0.453125 9.7578125 C0.31168341034458535 6.504655937925655 0.16026985668943894 3.2522744831763717 0 0 Z " fill="#CADBD4" transform="translate(158,43)"/>
<path d="M0 0 C3.365914265807163 2.7247877389867483 4.44226276030156 6.068567918856331 6 10 C13.684901531728656 5.886214442013127 13.684901531728656 5.886214442013127 15 2.1875 C15 1.4656250000000028 15 0.7437499999999986 15 0 C16.97999999999999 0.3299999999999983 18.960000000000008 0.6599999999999966 21 1 C21.164999999999992 1.6599999999999966 21.164999999999992 1.6599999999999966 22 5 C18.69999999999999 6.319999999999993 15.400000000000006 7.640000000000001 12 9 C14.310000000000002 9.164999999999992 14.310000000000002 9.164999999999992 26 10 C26 10.659999999999997 26 11.319999999999993 26 12 C21.710000000000008 13.650000000000006 17.420000000000016 15.299999999999997 13 17 C13 17.659999999999997 13 18.319999999999993 13 19 C13.990000000000009 19.33 14.97999999999999 19.659999999999997 16 20 C16 20.659999999999997 16 21.319999999999993 16 22 C12.185548899433542 22.354832660517815 10.470012844880614 22.3204633033277 7.25 20.125 C5.8147115210019535 18.769449769835177 4.395988797312583 17.395988797312583 3 16 C2.503710937500003 16.4215234375 2.0074218750000057 16.843046875 1.49609375 17.27734375 C-3.0701139376562168 20.959769304561462 -6.110245291422018 22.754593553809258 -12 23 C-12.329999999999998 22.010000000000005 -12.659999999999997 21.019999999999996 -13 20 C-14.203984375000005 20.288749999999993 -15.407968750000009 20.5775 -16.6484375 20.875 C-18.223930396001663 21.25011735619087 -19.799452763583517 21.625110946961996 -21.375 22 C-21.772031249999998 22.095390624999993 -21.772031249999998 22.095390624999993 -23.78125 22.578125 C-24.161523437499994 22.668359374999994 -24.161523437499994 22.668359374999994 -26.0859375 23.125 C-26.787670898437497 23.292578125000006 -27.489404296874994 23.460156249999997 -28.21240234375 23.6328125 C-30 24 -30 24 -32 24 C-31.67 22.019999999999996 -31.340000000000003 20.039999999999992 -31 18 C-30.67 19.319999999999993 -30.340000000000003 20.64 -30 22 C-29.47599609375 21.819531249999997 -29.47599609375 21.819531249999997 -26.82421875 20.90625 C-25.445393491706497 20.437261816906968 -24.06648275028178 19.968524901381315 -22.6875 19.5 C-21.99720703125 19.261523437500003 -21.3069140625 19.023046875000006 -20.595703125 18.77734375 C-17.61068510744319 17.76791736725133 -15.173410855339782 17 -12 17 C-12 14.36 -12 11.719999999999999 -12 9 C-10 12 -10 12 -10 14 C-7.0625 13.1875 -7.0625 13.1875 -4 12 C-3.6700000000000017 11.010000000000005 -3.3400000000000034 10.019999999999996 -3 9 C-3.3299999999999983 8.360624999999999 -3.6599999999999966 7.721249999999998 -4 7.0625 C-5 5 -5 5 -4.625 2.75 C-4.521874999999994 2.4612499999999997 -4.521874999999994 2.4612499999999997 -4 1 C-1.6488746862526256 5.114469299057916 0.10952169774346032 8.259316382368851 -1 13 C-3.840623167335508 15.454143824840884 -7.144473002762709 18 -11 18 C-11 18.659999999999997 -11 19.319999999999993 -11 20 C-9.582085924699015 19.54554036048046 -8.16571953809364 19.086250559185345 -6.75 18.625 C-5.961093750000003 18.369765625 -5.172187500000007 18.11453125 -4.359375 17.8515625 C-2.1337204232947613 17.048263331586526 -0.09068327675794308 16.10288337994112 2 15 C1.4746227622967467 9.969792404968757 0.8940521351493089 4.981147610117539 0 0 Z " fill="#C0D4CC" transform="translate(116,59)"/>
<path d="M0 0 C2.644650378799497 3.1254959022175868 3.844147152142739 6.087882668790826 5 10 C2.187499999999986 12.0625 2.187499999999986 12.0625 -1 14 C-1.990000000000009 13.670000000000002 -2.9799999999999898 13.340000000000003 -4 13 C-4.329999999999998 13.989999999999995 -4.659999999999997 14.980000000000004 -5 16 C-7.473342383791476 17.047776308169418 -9.820278916732349 17.90161461100223 -12.375 18.6875 C-13.060781250000005 18.912441406249997 -13.746562499999996 19.137382812499993 -14.453125 19.369140625 C-17.407653564430035 20.314704727818565 -19.880355096847865 21 -23 21 C-23 19.680000000000007 -23 18.36 -23 17 C-23.659999999999997 16.67 -24.319999999999993 16.340000000000003 -25 16 C-24.340000000000003 15.340000000000003 -23.680000000000007 14.680000000000007 -23 14 C-23.484687500000007 14.288749999999993 -23.969375 14.5775 -24.46875 14.875 C-29.6210164663907 17.728562966000993 -33.129640631782706 18.419311383444096 -39 18 C-39 17.67 -39 17.340000000000003 -39 17 C-37.824375 16.752499999999998 -36.64875000000001 16.504999999999995 -35.4375 16.25 C-31.026980557791916 15.129743729599014 -27.740265081400494 13.61818555698035 -24 11 C-23.292893218813447 9.350084177231395 -22.620560110664968 7.684377443233473 -22 6 C-19.085436616354542 4.430619716498597 -17.32058331429367 4 -14 4 C-11.60028445657926 5.938231785070599 -11.002033209707449 6.993900370877654 -10 10 C-9.340000000000003 8.019999999999996 -8.680000000000007 6.040000000000006 -8 4 C-5.689999999999998 4.329999999999998 -3.3799999999999955 4.659999999999997 -1 5 C-0.6700000000000017 3.3500000000000014 -0.3400000000000034 1.7000000000000028 0 0 Z " fill="#095A37" transform="translate(109,60)"/>
<path d="M0 0 C0.9900000000000091 0 1.9800000000000182 0 3 0 C3 0.6599999999999966 3 1.3199999999999932 3 2 C3.7708593749999864 2.0489843750000034 4.541718750000001 2.097968750000007 5.3359375 2.1484375 C6.3388281250000205 2.2232031249999977 7.341718749999984 2.2979687499999955 8.375 2.375 C8.873867187499997 2.4098046874999994 8.873867187499997 2.4098046874999994 11.3984375 2.5859375 C14 3 14 3 16 5 C16 5.989999999999995 16 6.980000000000004 16 8 C12.143548789285603 8.22036864061225 9.507767844821842 7.603551014775704 6 6 C5.670000000000016 6.659999999999997 5.340000000000003 7.319999999999993 5 8 C5 7.340000000000003 5 6.680000000000007 5 6 C3.3499999999999943 6 1.6999999999999886 6 0 6 C0 6.989999999999995 0 7.980000000000004 0 9 C-0.9900000000000091 8.670000000000002 -1.9800000000000182 8.340000000000003 -3 8 C-3 7.340000000000003 -3 6.680000000000007 -3 6 C-3.882831573486328 6.006661834716795 -4.765663146972656 6.013323669433589 -5.6752471923828125 6.0201873779296875 C-13.988904996599558 6.08026049305721 -22.302490067453277 6.12595503456528 -30.61631488800049 6.1554365158081055 C-34.89070698687969 6.171102717345903 -39.164919976624674 6.192358199049053 -43.439208984375 6.226318359375 C-47.56297253001213 6.258878087252697 -51.68656363399698 6.276845823559924 -55.81044578552246 6.284631729125977 C-57.384957915898795 6.29018136075095 -58.95946044905682 6.301018314436789 -60.53389930725098 6.317190170288086 C-62.736756723801065 6.338920047651811 -64.93889861934169 6.341968881892072 -67.141845703125 6.340576171875 C-67.76916847229003 6.343907089233397 -67.76916847229003 6.343907089233397 -70.94380187988281 6.3607635498046875 C-74 6 -74 6 -77 3 C-51.59 3 -26.180000000000007 3 0 3 C0 2.010000000000005 0 1.019999999999996 0 0 Z " fill="#DDE8E3" transform="translate(156,115)"/>
<path d="M0 0 C2.7926652933422247 0.2992141385723812 3.963648457212912 0.9666892706780033 6.0546875 2.8828125 C8.83617065963881 7.339887924481474 8.989877633530739 11.523359176889578 9.375 16.6875 C9.469101562499986 17.649785156250005 9.563203125000001 18.612070312499995 9.66015625 19.603515625 C10.110231835906461 24.86054603415333 10.110231835906461 24.86054603415333 10 27 C9.340000000000003 27.659999999999997 8.680000000000007 28.319999999999993 8 29 C5.299536049111936 28.79227200377784 3.552868384277332 28.415647447458937 1.3740234375 26.777587890625 C-0.4748577881670144 24.385671720745563 -0.44232738156409823 22.749767530162018 -0.546875 19.74609375 C-0.5868359375000125 18.727089843750008 -0.6267968749999966 17.7080859375 -0.66796875 16.658203125 C-0.6950390625000011 15.595371093750003 -0.7221093750000023 14.5325390625 -0.75 13.4375 C-0.7925390624999977 12.370800781249997 -0.8350781249999955 11.304101562500001 -0.87890625 10.205078125 C-1.1492988663307528 2.298597732661527 -1.1492988663307528 2.298597732661527 0 0 Z " fill="#1C6747" transform="translate(161,46)"/>
<path d="M0 0 C5.84615384615384 4.307692307692307 5.84615384615384 4.307692307692307 7 8 C6.6875 10 6.6875 10 6 12 C5.814374999999984 12.742500000000007 5.628749999999997 13.485 5.4375 14.25 C5.293125000000003 14.8275 5.148750000000007 15.405000000000001 5 16 C6.319999999999993 16 7.639999999999986 16 9 16 C9.659999999999997 14.349999999999994 10.319999999999993 12.700000000000003 11 11 C11.329999999999984 11.659999999999997 11.659999999999997 12.319999999999993 12 13 C11.340000000000003 13.989999999999995 11.340000000000003 13.989999999999995 8 19 C7.422500000000014 18.690624999999997 6.844999999999999 18.381249999999994 6.25 18.0625 C1.12858090438732 15.644052093738466 -1.5330481237954245 16.21272727124081 -7 18 C-7 17.010000000000005 -7 16.019999999999996 -7 15 C-7.721875000000011 15.680624999999992 -8.443749999999994 16.36125 -9.1875 17.0625 C-12 19 -12 19 -14.8125 18.75 C-15.534375000000011 18.502499999999998 -16.256249999999994 18.254999999999995 -17 18 C-15.680000000000007 17.67 -14.360000000000014 17.340000000000003 -13 17 C-13 16.340000000000003 -13 15.680000000000007 -13 15 C-14.319999999999993 14.670000000000002 -15.639999999999986 14.340000000000003 -17 14 C-16.669999999999987 13.010000000000005 -16.340000000000003 12.019999999999996 -16 11 C-13.56640625 9.83203125 -13.56640625 9.83203125 -10.5625 8.8125 C-9.573789062499998 8.468320312499998 -8.585078124999995 8.124140624999995 -7.56640625 7.76953125 C-5 7 -5 7 -3 7 C-3 6.340000000000003 -3 5.680000000000007 -3 5 C-3.6599999999999966 4.670000000000002 -4.319999999999993 4.340000000000003 -5 4 C-4.009999999999991 4 -3.0200000000000102 4 -2 4 C-1.6699999999999875 4.989999999999995 -1.3400000000000034 5.980000000000004 -1 7 C-0.6700000000000159 4.689999999999998 -0.3400000000000034 2.3799999999999955 0 0 Z " fill="#276E50" transform="translate(145,64)"/>
<path d="M0 0 C1.6500000000000057 0.3299999999999983 3.3000000000000114 0.6599999999999966 5 1 C5.337860939386701 4.541249899263242 5.669478314964238 8.0830581590088 6 11.625 C6.095390624999993 12.6240234375 6.190781249999986 13.623046875 6.2890625 14.65234375 C7.612872367282165 28.930578747114836 7.612872367282165 28.930578747114836 4.25 33.875 C3.9947656250000136 34.26558593749999 3.9947656250000136 34.26558593749999 2.703125 36.2421875 C2.1410937500000102 36.822265625 1.579062499999992 37.40234375 1 38 C-0.3199999999999932 38 -1.6399999999999864 38 -3 38 C-2.551941575385257 35.386325856414004 -2.0742081024616823 33.15714656991888 -0.9375 30.75 C0.6297194085558431 26.152823068236216 0.4721513255671539 21.301737712139897 -0.5 16.5625 C-1.5593221052085084 11.133474210806433 -1.5491178569804163 5.323555810099329 0 0 Z " fill="#1E6848" transform="translate(153,42)"/>
<path d="M0 0 C2.5 1.625 2.5 1.625 5 4 C5.3125 7.25 5.3125 7.25 5 10 C4.010000000000005 9.340000000000003 3.019999999999996 8.68 2 8 C0.6800000000000068 8 -0.6400000000000006 8 -2 8 C-2.3299999999999983 9.649999999999999 -2.6599999999999966 11.299999999999997 -3 13 C-1.019999999999996 13 0.960000000000008 13 3 13 C-0.9371621880310528 17.274633232719424 -3.8271586358339817 19.704851966124096 -9.6875 20.25 C-12 20 -12 20 -14 18 C-13.787096072892467 13.103209676526816 -12.485449395215653 11.267608808014671 -9 8 C-8.25 5.75 -8.25 5.75 -8 4 C-7.236874999999998 4.082499999999996 -6.4737499999999955 4.164999999999999 -5.6875 4.25 C-3 4 -3 4 -1.1875 2 C-0.7956250000000011 1.3400000000000034 -0.4037500000000023 0.6799999999999997 0 0 Z " fill="#246C4D" transform="translate(83,54)"/>
<path d="M0 0 C0.6599999999999966 0 1.3199999999999932 0 2 0 C2.8457726417032347 3.001799621782773 3.1738867228031324 5.829821026172226 3.375 8.9375 C4.009268624568449 15.582683589709333 6.255119073508496 18.255119073508496 11 23 C10.340000000000003 15.409999999999997 9.680000000000007 7.82 9 0 C9.659999999999997 0 10.319999999999993 0 11 0 C12.937406354746713 3.8748127094933977 13.121705777174896 6.88043317713862 13.00390625 11.09765625 C13 12.999999999999993 13 12.999999999999993 13.5 15.4375 C14.522193472354388 20.676241545816197 15.009401345692282 25.48589798146159 12 30 C10.02000000000001 27.36 8.039999999999992 24.72 6 22 C5.670000000000016 25.960000000000008 5.340000000000003 29.92 5 34 C4.6699999999999875 34 4.340000000000003 34 4 34 C3.936835937500007 33.00999999999999 3.8736718750000136 32.02000000000001 3.80859375 31 C3.073951582471068 22.31626563651433 1.5921413069873154 17.005263302431516 -5 11 C-6.163410123496902 9.681975459219188 -7.310449768301368 8.349247783316173 -8.4375 7 C-9.283125000000013 6.009999999999998 -10.128749999999997 5.019999999999996 -11 4 C-10.669999999999987 3.3400000000000034 -10.340000000000003 2.6799999999999997 -10 2 C-5.888298652903586 4.6884201115630475 -3.1120509101725133 8.251393221837645 0 12 C0 8.04 0 4.079999999999998 0 0 Z " fill="#CCDCD5" transform="translate(140,43)"/>
<path d="M0 0 C4.2006920619109565 4.200692061910942 3.419931658828716 7.23491102791246 3.458984375 12.97265625 C3.451894531249991 14.2604296875 3.4448046875000102 15.548203125 3.4375 16.875 C3.457480468749992 18.155039062499995 3.4774609375000125 19.435078125000004 3.498046875 20.75390625 C3.4974023437499966 21.987539062500005 3.496757812499993 23.221171874999996 3.49609375 24.4921875 C3.497946777343742 25.619956054687492 3.4997998046875125 26.747724609375 3.501708984375 27.90966796875 C2.8922051573606495 31.663974266729454 1.630676247668788 33.30253691135076 -1 36 C-3.75922306922169 37.51757268807194 -5.193977218560974 38.13070639699012 -8.3125 37.625 C-8.869374999999991 37.41875 -9.42625000000001 37.212500000000006 -10 37 C-9.759589843750007 36.82146484374999 -9.759589843750007 36.82146484374999 -8.54296875 35.91796875 C-6.315751620258993 33.149453279866236 -6.486059889735458 30.81840977265621 -6.3125 27.3125 C-6.279628906249997 26.722753906250006 -6.279628906249997 26.722753906250006 -6.11328125 23.73828125 C-6.075898437500001 22.834648437499993 -6.038515625000002 21.931015625 -6 21 C-5.195625000000007 21.825000000000003 -4.391250000000014 22.650000000000006 -3.5625 23.5 C-1 26 -1 26 0 26 C0 17.42 0 8.840000000000003 0 0 Z " fill="#236B4C" transform="translate(184,43)"/>
<path d="M0 0 C0.7547535092981832 8.356199567229886 1.136054818703542 16.609952846614036 1 25 C-6.961290322580652 17.038709677419362 -6.961290322580652 17.038709677419362 -7.0234375 10.5546875 C-7.008129912577715 8.804520004719997 -6.980046315691396 7.054404732808905 -6.9375 5.3046875 C-7 3 -7 3 -8 0 C-5.138229434697195 -1.4308852826514027 -3.066242272408118 -0.5999169663407145 0 0 Z " fill="#2B7053" transform="translate(184,43)"/>
<path d="M0 0 C0.6599999999999966 0 1.3199999999999932 0 2 0 C2.3299999999999983 1.6499999999999986 2.6599999999999966 3.299999999999997 3 5 C1.6800000000000068 5.329999999999998 0.35999999999999943 5.659999999999997 -1 6 C-1.3299999999999983 7.319999999999993 -1.6599999999999966 8.64 -2 10 C-2.6599999999999966 10 -3.319999999999993 10 -4 10 C-3.3400000000000034 12.310000000000002 -2.680000000000007 14.620000000000005 -2 17 C-1.5256250000000051 17.0721875 -1.5256250000000051 17.0721875 0.875 17.4375 C4 18 4 18 6 19 C8.09375 18.0390625 8.09375 18.0390625 10.5 16.625 C11.294062499999995 16.163515625000002 12.088125000000005 15.702031250000005 12.90625 15.2265625 C13.251718750000009 15.024179687499995 13.251718750000009 15.024179687499995 15 14 C15.659999999999997 13.670000000000002 16.319999999999993 13.340000000000003 17 13 C15.608026711825744 16.382567213231752 14.197450400747016 17.83688682116052 11.0625 19.6875 C10.372851562500003 20.1038671875 9.683203125000006 20.520234375 8.97265625 20.94921875 C4.913895644808491 23.11121202286438 1.5468228823567642 23.39884411248744 -3 23 C-5.4375 21.5 -5.4375 21.5 -7 19 C-7.321118240854275 16.24154166872718 -7.186304021542824 13.794560323142349 -7 11 C-7.659999999999997 10.670000000000002 -8.32 10.340000000000003 -9 10 C-8.009999999999998 9.010000000000005 -7.019999999999996 8.019999999999996 -6 7 C-6.329999999999998 6.010000000000005 -6.659999999999997 5.019999999999996 -7 4 C-6 3 -6 3 -3.4375 2.9375 C-3.0353125000000034 2.9478124999999977 -3.0353125000000034 2.9478124999999977 -1 3 C-0.6700000000000017 2.009999999999998 -0.3400000000000034 1.0200000000000031 0 0 Z " fill="#397A5E" transform="translate(72,58)"/>
<path d="M0 0 C1.3199999999999932 0 2.6399999999999864 0 4 0 C6.292655620628722 3.7183406284146656 6.649194030033158 7.623946661771626 7.125 11.875 C7.211367187500002 12.569804687499996 7.2977343750000045 13.264609375 7.38671875 13.98046875 C7.864595951594879 18.00829087772823 8.088966771719925 21.945657117334427 8 26 C6.333333333333343 24.33333333333333 4.666666666666657 22.66666666666667 3 21 C2.7215625000000045 20.783437499999998 2.7215625000000045 20.783437499999998 1.3125 19.6875 C-1.7914510694653814 15.696705767830224 -2.306946335441779 9.91114136706841 -2 5 C-0.6800000000000068 4.340000000000003 0.6399999999999864 3.6799999999999997 2 3 C1.3400000000000034 2.6700000000000017 0.6800000000000068 2.3400000000000034 0 2 C0 1.3400000000000034 0 0.6799999999999997 0 0 Z " fill="#105F3D" transform="translate(144,42)"/>
<path d="M0 0 C2 1 2 1 3.125 3.1875 C4.173373944722101 6.557273393749611 4.727276427579568 8.50907314761804 4 12 C1.1677648593118448 14.458895053961072 -2.1490304090480947 17 -6 17 C-6 17.659999999999997 -6 18.319999999999993 -6 19 C-0.9849128538294281 17.459417674052176 3.614708095581051 15.970681612670901 8 13 C6.485047851363575 17.241866016182 3.8724010471446206 18.881139049675596 0 21 C-3.875 21.75 -3.875 21.75 -7 22 C-7.329999999999998 21.010000000000005 -7.659999999999997 20.019999999999996 -8 19 C-9.203984375000005 19.288749999999993 -10.407968750000009 19.5775 -11.6484375 19.875 C-13.223930396001663 20.25011735619087 -14.799452763583517 20.625110946961996 -16.375 21 C-16.772031249999998 21.095390624999993 -16.772031249999998 21.095390624999993 -18.78125 21.578125 C-19.161523437499994 21.668359374999994 -19.161523437499994 21.668359374999994 -21.0859375 22.125 C-21.787670898437497 22.292578125000006 -22.489404296874994 22.460156249999997 -23.21240234375 22.6328125 C-25 23 -25 23 -27 23 C-26.67 21.019999999999996 -26.340000000000003 19.039999999999992 -26 17 C-25.67 18.319999999999993 -25.340000000000003 19.64 -25 21 C-24.47599609375 20.819531249999997 -24.47599609375 20.819531249999997 -21.82421875 19.90625 C-20.445393491706497 19.437261816906968 -19.06648275028178 18.968524901381315 -17.6875 18.5 C-16.99720703125 18.261523437500003 -16.3069140625 18.023046875000006 -15.595703125 17.77734375 C-12.610685107443189 16.76791736725133 -10.173410855339782 16 -7 16 C-7 13.36 -7 10.719999999999999 -7 8 C-5 11 -5 11 -5 13 C-2.0625 12.1875 -2.0625 12.1875 1 11 C2 8 2 8 1.0625 6.0625 C0.711874999999992 5.381874999999994 0.3612499999999983 4.701250000000002 0 4 C0 2.6799999999999997 0 1.3599999999999994 0 0 Z " fill="#DBE7E2" transform="translate(111,60)"/>
<path d="M0 0 C0.6599999999999966 0.3299999999999983 1.3199999999999932 0.6599999999999966 2 1 C2.6328125 3.285156249999993 2.6328125 3.285156249999993 3.125 6.0625 C3.2925781250000057 6.981601562500003 3.460156249999997 7.900703125 3.6328125 8.84765625 C3.7539843750000017 9.5579296875 3.8751562500000034 10.268203125 4 11 C4.825000000000003 11.165 4.825000000000003 11.165 9 12 C8.670000000000002 10.927500000000002 8.340000000000003 9.855000000000004 8 8.75 C7 5 7 5 7 1 C7.989999999999995 1.3299999999999983 8.980000000000004 1.6599999999999966 10 2 C10.221515493676577 3.790084665115998 10.42682213245152 5.582181616828919 10.625 7.375 C10.683007812499994 7.873867187499997 10.683007812499994 7.873867187499997 10.9765625 10.3984375 C10.984296874999984 11.256953125000003 10.992031249999997 12.115468749999998 11 13 C9 15 9 15 6.625 15.3125 C3.572859837908254 14.94914998070336 2.267379440864019 14.015448391879126 0 12 C-0.3299999999999983 12.990000000000002 -0.6599999999999966 13.980000000000004 -1 15 C-3.875 15.625 -3.875 15.625 -7 16 C-9.138548496131733 13.861451503868267 -9.426550627136052 12.867246864319718 -10 10 C-10.659999999999997 10.659999999999997 -11.319999999999993 11.32 -12 12 C-11.568023654518058 7.2482601996986915 -10.672307049603745 5.079999460957978 -7 2 C-7 5.299999999999997 -7 8.600000000000001 -7 12 C-5.349999999999994 12 -3.700000000000003 12 -2 12 C-0.2604334157778112 10.260433415777818 -0.6280961444581976 7.80633779540895 -0.4375 5.4375 C-0.35371093749999716 4.425585937500003 -0.2699218749999943 3.4136718749999986 -0.18359375 2.37109375 C-0.12300781249999204 1.588632812500002 -0.062421874999998295 0.8061718749999969 0 0 Z " fill="#C6D9D1" transform="translate(118,42)"/>
<path d="M0 0 C8.320668693009111 6.838905775075986 8.320668693009111 6.838905775075986 10 10 C10.1875 13.250000000000014 10.1875 13.250000000000014 10 16 C6.577670280393761 17.140776573202075 3.91326782501568 17.098151166584316 0.3125 17.0625 C-0.2772460937499943 17.057988281250005 -0.2772460937499943 17.057988281250005 -3.26171875 17.03515625 C-4.165351562500007 17.023554687499995 -5.068984374999999 17.011953125000005 -6 17 C-3.0765124187531683 13.716698562599731 -0.24542504957054234 13.041330672536162 4 12 C4 11.009999999999998 4 10.019999999999996 4 9 C3.3400000000000034 8.381250000000001 2.680000000000007 7.762500000000003 2 7.125 C0 5 0 5 -0.25 2.25 C-0.16749999999998977 1.5075000000000003 -0.08500000000000796 0.7650000000000006 0 0 Z " fill="#0A5A38" transform="translate(133,52)"/>
<path d="M0 0 C1 3 1 3 0.22265625 5.04296875 C0.03123046874999602 5.396816406249997 0.03123046874999602 5.396816406249997 -0.9375 7.1875 C-1.3177734374999943 7.902929687500006 -1.6980468750000028 8.618359374999997 -2.08984375 9.35546875 C-2.3901953124999977 9.898164062500001 -2.6905468749999955 10.440859375000002 -3 11 C-2.010000000000005 10.670000000000002 -1.019999999999996 10.340000000000003 0 10 C-0.3299999999999983 10.989999999999995 -0.6599999999999966 11.980000000000004 -1 13 C-1.6187500000000057 12.835000000000008 -2.237499999999997 12.670000000000002 -2.875 12.5 C-5.924327531146076 11.782511169142097 -8.012292812140714 12.203278083237521 -11 13 C-10.010000000000005 11.680000000000007 -9.019999999999996 10.36 -8 9 C-8.556875000000005 9.360937500000006 -9.113749999999996 9.721874999999997 -9.6875 10.09375 C-15.140964820475716 13.410046174613612 -18.629614434537558 14.579125960496583 -25 14 C-25 13.670000000000002 -25 13.340000000000003 -25 13 C-23.824375000000003 12.752499999999998 -22.648750000000007 12.504999999999995 -21.4375 12.25 C-17.026980557791916 11.129743729599014 -13.740265081400494 9.61818555698035 -10 7 C-9.292893218813447 5.350084177231395 -8.620560110664968 3.6843774432334726 -8 2 C-5.085436616354542 0.4306197164985974 -3.320583314293671 0 0 0 Z " fill="#458268" transform="translate(95,64)"/>
<path d="M0 0 C6 5 6 5 6.712890625 7.17236328125 C6.694199218749986 7.881186523437499 6.675507812500001 8.590009765624998 6.65625 9.3203125 C6.645937500000002 10.102773437500005 6.6356250000000045 10.885234374999996 6.625 11.69140625 C6.583750000000009 12.4944921875 6.54249999999999 13.297578125000001 6.5 14.125 C6.489687500000002 14.935820312499999 6.4793750000000045 15.746640624999998 6.46875 16.58203125 C6.3113704819277245 22.532944277108427 6.3113704819277245 22.532944277108427 4 26 C3.009999999999991 25.67 2.0200000000000102 25.340000000000003 1 25 C1.990000000000009 24.010000000000005 2.9799999999999898 23.019999999999996 4 22 C3.6699999999999875 21.010000000000005 3.3400000000000034 20.019999999999996 3 19 C2.3400000000000034 19 1.6800000000000068 19 1 19 C0.6699999999999875 12.730000000000004 0.3400000000000034 6.460000000000001 0 0 Z " fill="#146140" transform="translate(171,56)"/>
<path d="M0 0 C0.3299999999999983 0 0.6599999999999966 0 1 0 C1.3299999999999983 2.6400000000000006 1.6599999999999966 5.280000000000001 2 8 C4.4375 7.3125 4.4375 7.3125 7 6 C7.8125 3.375 7.8125 3.375 8 1 C8.329999999999998 1 8.659999999999997 1 9 1 C9.123750000000001 2.072499999999998 9.247500000000002 3.145000000000003 9.375 4.25 C9.8964393587748 7.378636152648802 10.40088254298125 9.334804238302084 12 12 C10 15 10 15 8 17 C4.374999999999972 16.625 4.374999999999972 16.625 1 16 C1.2062499999999972 15.051249999999996 1.4124999999999943 14.1025 1.625 13.125 C1.7487500000000011 12.09375 1.8725000000000023 11.0625 2 10 C1.3400000000000034 9.340000000000003 0.6800000000000068 8.68 0 8 C-0.26991906083659956 5.311606154067448 -0.08737356891322179 2.708580636309847 0 0 Z " fill="#246C4D" transform="translate(100,48)"/>
<path d="M0 0 C5.939999999999998 0 11.879999999999995 0 18 0 C18 0.6599999999999966 18 1.3199999999999932 18 2 C13.710000000000008 3.6500000000000057 9.419999999999987 5.299999999999997 5 7 C5 7.659999999999997 5 8.319999999999993 5 9 C5.990000000000009 9.329999999999998 6.97999999999999 9.659999999999997 8 10 C8 10.659999999999997 8 11.319999999999993 8 12 C4.06225823156845 12.366301559854094 2.434602287567884 12.30233202613418 -0.875 10 C-1.5762500000000017 9.340000000000003 -2.2775000000000034 8.680000000000007 -3 8 C-2.6700000000000017 7.010000000000005 -2.3400000000000034 6.019999999999996 -2 5 C-0.6800000000000068 5.659999999999997 0.6400000000000006 6.319999999999993 2 7 C2.4124999999999943 6.525625000000005 2.825000000000003 6.051249999999996 3.25 5.5625 C5 4 5 4 9 3 C5.699999999999989 2.6700000000000017 2.4000000000000057 2.3400000000000034 -1 2 C-0.6700000000000017 1.3400000000000034 -0.3400000000000034 0.6800000000000068 0 0 Z " fill="#DFE9E5" transform="translate(124,69)"/>
<path d="M0 0 C0.9899999999999949 0 1.980000000000004 0 3 0 C3 3.6299999999999955 3 7.260000000000005 3 11 C-5.625 14 -5.625 14 -9 14 C-8.6875 11.625 -8.6875 11.625 -8 9 C-7.010000000000005 8.340000000000003 -6.019999999999996 7.680000000000007 -5 7 C-4.670000000000002 7.659999999999997 -4.340000000000003 8.319999999999993 -4 9 C-3.010000000000005 8.670000000000002 -2.019999999999996 8.340000000000003 -1 8 C-1.6599999999999966 8 -2.319999999999993 8 -3 8 C-2.4527631652248942 4.625372852220167 -1.9451000030854857 2.9176500046282285 0 0 Z " fill="#045733" transform="translate(95,67)"/>
<path d="M0 0 C0.9899999999999949 0.3299999999999983 1.980000000000004 0.6599999999999966 3 1 C2.6700000000000017 2.6499999999999986 2.3400000000000034 4.299999999999997 2 6 C0.6800000000000068 6.329999999999998 -0.6400000000000006 6.659999999999997 -2 7 C-1.6700000000000017 9.310000000000002 -1.3400000000000034 11.620000000000005 -1 14 C-0.3400000000000034 14 0.3199999999999932 14 1 14 C1.1817578124999955 13.373515624999996 1.3635156250000051 12.74703125 1.55078125 12.1015625 C1.8021484374999943 11.284296875000003 2.053515625000003 10.467031249999998 2.3125 9.625 C2.556132812499996 8.812890625000001 2.7997656250000063 8.000781250000003 3.05078125 7.1640625 C4 5 4 5 7 3 C7.053954781444645 4.624638419055259 7.0927719486386 6.249785409917642 7.125 7.875 C7.148203124999995 8.779921875 7.171406250000004 9.684843749999999 7.1953125 10.6171875 C7 13 7 13 5 15 C4.670000000000002 14.340000000000003 4.340000000000003 13.68 4 13 C3.3400000000000034 14.32 2.680000000000007 15.64 2 17 C0.6800000000000068 17 -0.6400000000000006 17 -2 17 C-3.9190336466082556 14.177891696164338 -3.9911021158511915 12.870980679842326 -3.75 9.375 C-3 6 -3 6 -1 4 C-0.375 1.875 -0.375 1.875 0 0 Z " fill="#BAD1C7" transform="translate(68,42)"/>
<path d="M0 0 C1.3199999999999932 1.3199999999999932 2.6400000000000006 2.6400000000000006 4 4 C4.4950000000000045 3.3193749999999937 4.989999999999995 2.6387500000000017 5.5 1.9375 C8 0 8 0 10.046875 -0.04296875 C12.043894358684113 0.22259233493139163 14.024523181027632 0.6049046362055321 16 1 C12.062837811968947 5.274633232719424 9.172841364166018 7.704851966124096 3.3125 8.25 C1 8 1 8 -1 6 C-0.625 2.875 -0.625 2.875 0 0 Z " fill="#075936" transform="translate(70,66)"/>
<path d="M0 0 C0.9899999999999949 0.3299999999999983 1.980000000000004 0.6599999999999966 3 1 C3 1.6599999999999966 3 2.3200000000000003 3 3 C3.6599999999999966 3 4.319999999999993 3 5 3 C5.329999999999998 2.009999999999998 5.659999999999997 1.0200000000000031 6 0 C6.053954781444645 1.624638419055259 6.0927719486386 3.249785409917642 6.125 4.875 C6.148203124999995 5.779921874999999 6.171406250000004 6.684843749999999 6.1953125 7.6171875 C6 10 6 10 4 12 C1.4375 12.1875 1.4375 12.1875 -1 12 C-1.3299999999999983 11.670000000000002 -1.6599999999999966 11.340000000000003 -2 11 C-1.9140625 9.00390625 -1.9140625 9.00390625 -1.625 6.5625 C-1.5347656250000057 5.759414062499999 -1.4445312499999972 4.956328124999999 -1.3515625 4.12890625 C-1 2 -1 2 0 0 Z " fill="#1E6848" transform="translate(112,43)"/>
<path d="M0 0 C3 3 3 3 3.22265625 5.26953125 C3.1962304687500023 5.689121093750003 3.1962304687500023 5.689121093750003 3.0625 7.8125 C2.8802327368968577 14.799411752286701 4.654079376027255 18.984895251232714 9.07421875 24.2890625 C10 26 10 26 9 30 C7.349999999999994 27.36 5.699999999999989 24.72 4 22 C3.6699999999999875 25.960000000000008 3.3400000000000034 29.92 3 34 C2.6699999999999875 34 2.3400000000000034 34 2 34 C1.9755078125000125 33.445703124999994 1.9755078125000125 33.445703124999994 1.8515625 30.640625 C1.7765078513837125 29.17705935198215 1.7009611874054542 27.713518877344853 1.625 26.25 C1.5940625000000068 25.520390625000005 1.5631250000000136 24.790781249999995 1.53125 24.0390625 C1.3251505969386415 20.260573443874947 1.0848715701425249 17.22053331973234 -1 14 C-0.6699999999999875 14 -0.3400000000000034 14 0 14 C0 9.379999999999995 0 4.759999999999998 0 0 Z " fill="#E6EEEB" transform="translate(175,43)"/>
<path d="M0 0 C1.6500000000000057 0.3299999999999983 3.3000000000000114 0.6599999999999966 5 1 C5.3300000000000125 4.630000000000003 5.659999999999997 8.260000000000005 6 12 C5.340000000000003 11.340000000000003 4.680000000000007 10.68 4 10 C4 10.990000000000002 4 11.980000000000004 4 13 C4 13.659999999999997 4 14.32 4 15 C2.3499999999999943 14.670000000000002 0.6999999999999886 14.340000000000003 -1 14 C-1.0271929998190785 12.416763121645069 -1.0464830554013815 10.833389380319304 -1.0625 9.25 C-1.0741015625000045 8.368281250000003 -1.085703125000009 7.486562499999998 -1.09765625 6.578125 C-1.0082619774604495 4.218116204955642 -0.66912821055368 2.255014756826604 0 0 Z " fill="#337659" transform="translate(153,42)"/>
<path d="M0 0 C0.3299999999999983 0 0.6599999999999966 0 1 0 C1.3299999999999983 2.3100000000000023 1.6599999999999966 4.6200000000000045 2 7 C10.179354909209934 7.6879831232045746 15.196383368761332 6.560666093467674 22 2 C22.659999999999997 1.6700000000000017 23.319999999999993 1.3400000000000034 24 1 C22.608026711825744 4.382567213231752 21.197450400747016 5.836886821160519 18.0625 7.6875 C17.372851562500003 8.1038671875 16.683203125000006 8.520234375000001 15.97265625 8.94921875 C11.913895644808505 11.111212022864379 8.54682288235675 11.398844112487438 4 11 C1.5625 9.4375 1.5625 9.4375 0 7 C-0.25 3.25 -0.25 3.25 0 0 Z " fill="#E7EFEC" transform="translate(65,70)"/>
<path d="M0 0 C0.6599999999999966 0 1.3199999999999932 0 2 0 C3.9374063547466847 3.8748127094933906 4.1217057771748955 6.88043317713862 4.00390625 11.09765625 C4 13 4 13 4.5 15.4375 C5.522193472354388 20.676241545816197 6.009401345692282 25.48589798146159 3 30 C2.3400000000000034 28.680000000000007 1.6800000000000068 27.36 1 26 C1.3300000000000125 25.67 1.6599999999999966 25.340000000000003 2 25 C1.933499392243533 23.246802159148018 1.7941429092892633 21.496286252662244 1.625 19.75 C1.5753710937499932 19.213749999999997 1.5753710937499932 19.213749999999997 1.32421875 16.5 C1.2172265625000023 15.344999999999999 1.1102343750000045 14.189999999999998 1 13 C0.8080257921700991 10.583684637447782 0.6203667713743641 8.167021673817779 0.4375 5.75 C0.35371093750001137 4.651718750000001 0.2699218749999943 3.553437500000001 0.18359375 2.421875 C0.12300781249999204 1.6226562499999986 0.062421875000012506 0.8234374999999972 0 0 Z " fill="#CCDDD6" transform="translate(149,43)"/>
<path d="M0 0 C0.9899999999999949 0.16500000000000625 0.9899999999999949 0.16500000000000625 6 1 C5.670000000000002 1.9899999999999949 5.340000000000003 2.980000000000004 5 4 C4.340000000000003 4 3.680000000000007 4 3 4 C3 6.640000000000001 3 9.280000000000001 3 12 C1.019999999999996 12.659999999999997 -0.9599999999999937 13.319999999999993 -3 14 C-3.2835820895522403 5.492537313432834 -3.2835820895522403 5.492537313432834 -1 2 C-0.6700000000000017 1.3400000000000034 -0.3400000000000034 0.6800000000000068 0 0 Z " fill="#1C6646" transform="translate(101,64)"/>
<path d="M0 0 C0.9899999999999949 0.3299999999999983 1.980000000000004 0.6599999999999966 3 1 C4.194636793857498 4.583910381572487 3.9736064174560397 6.079180747631874 2.75 9.75 C1 13 1 13 -2 14 C-3.4783225962856363 11.043354807428727 -3.060327826488134 8.257702630359155 -3 5 C-2.010000000000005 4.670000000000002 -1.019999999999996 4.340000000000003 0 4 C0 2.6799999999999997 0 1.3599999999999994 0 0 Z " fill="#216A4B" transform="translate(104,42)"/>
<path d="M0 0 C2.2091400027323687 3.313710004098546 2.2248155299735686 4.34460209601729 2.125 8.1875 C2.1069531249999898 9.0885546875 2.088906250000008 9.989609375 2.0703125 10.91796875 C2.0587109374999955 11.261503906249999 2.0587109374999955 11.261503906249999 2 13 C1.3400000000000034 12.670000000000002 0.6800000000000068 12.340000000000003 0 12 C-0.6599999999999966 14.310000000000002 -1.3199999999999932 16.620000000000005 -2 19 C-2.3300000000000125 19 -2.6599999999999966 19 -3 19 C-3.3300000000000125 13.719999999999999 -3.6599999999999966 8.439999999999998 -4 3 C-3.6699999999999875 3.990000000000002 -3.3400000000000034 4.980000000000004 -3 6 C-2.009999999999991 6 -1.0200000000000102 6 0 6 C0 5.340000000000003 0 4.68 0 4 C-0.6599999999999966 3.6700000000000017 -1.3199999999999932 3.3400000000000034 -2 3 C-1.3400000000000034 2.009999999999998 -0.6800000000000068 1.0200000000000031 0 0 Z " fill="#035633" transform="translate(157,51)"/>
<path d="M0 0 C2.4218273443602527 1.8354011655163305 2.96359101206005 2.762611753956655 3.432373046875 5.819091796875 C3.45855712890625 6.934533691406251 3.4847412109375 8.049975585937503 3.51171875 9.19921875 C3.5471679687499886 10.40771484375 3.5826171875000057 11.6162109375 3.619140625 12.861328125 C3.6416992187500057 14.123964843750002 3.6642578125000114 15.386601562500005 3.6875 16.6875 C3.7216601562500102 17.96173828125 3.755820312499992 19.2359765625 3.791015625 20.548828125 C3.8736078361069985 23.69913103436643 3.9427233537497273 26.849151565116998 4 30 C2.3499999999999943 30.659999999999997 0.6999999999999886 31.319999999999993 -1 32 C-0.669516601562492 31.474384765625004 -0.3390332031250125 30.948769531250008 0.00146484375 30.4072265625 C1.3041987884668345 27.266650353476066 1.1307219704497413 24.875883349894423 0.9765625 21.484375 C0.9250000000000114 20.233984375 0.8734374999999943 18.983593749999997 0.8203125 17.6953125 C0.755859375 16.393359375000003 0.69140625 15.091406249999999 0.625 13.75 C0.596640624999992 13.091289062499996 0.596640624999992 13.091289062499996 0.453125 9.7578125 C0.31168341034458535 6.504655937925655 0.16026985668943894 3.2522744831763717 0 0 Z " fill="#C4D7CF" transform="translate(158,43)"/>
<path d="M0 0 C0.3300000000000125 0 0.6599999999999966 0 1 0 C1 3.6299999999999955 1 7.260000000000005 1 11 C1.6599999999999966 11 2.319999999999993 11 3 11 C3 11.659999999999997 3 12.319999999999993 3 13 C3.6599999999999966 13.329999999999998 4.319999999999993 13.659999999999997 5 14 C3.3499999999999943 14.659999999999997 1.6999999999999886 15.319999999999993 0 16 C-0.3300000000000125 15.340000000000003 -0.6599999999999966 14.680000000000007 -1 14 C-3.314062196896515 13.26924351676952 -5.648288693483266 12.59861742347698 -8 12 C-8 11.340000000000003 -8 10.680000000000007 -8 10 C-8.659999999999997 10 -9.319999999999993 10 -10 10 C-10.330000000000013 10.659999999999997 -10.659999999999997 11.319999999999993 -11 12 C-11.330000000000013 11.010000000000005 -11.659999999999997 10.019999999999996 -12 9 C-10.125 8.375 -10.125 8.375 -8 8 C-7.340000000000003 8.659999999999997 -6.680000000000007 9.319999999999993 -6 10 C-3.375 9.625 -3.375 9.625 -1 9 C-0.6699999999999875 6.030000000000001 -0.3400000000000034 3.0600000000000023 0 0 Z " fill="#E3ECE8" transform="translate(171,64)"/>
<path d="M0 0 C0.6599999999999966 0 1.3199999999999932 0 2 0 C3.9451000030854857 2.9176500046282356 4.452763165224894 4.625372852220167 5 8 C5.659999999999997 6.350000000000001 6.319999999999993 4.700000000000003 7 3 C7.3300000000000125 3 7.659999999999997 3 8 3 C8 6.960000000000001 8 10.920000000000002 8 15 C2.4601682029213237 9.460168202921324 0.746471519818158 7.7135390381209845 0 0 Z " fill="#075936" transform="translate(177,53)"/>
<path d="M0 0 C5.625 4.5 5.625 4.5 7 9 C6.40187499999999 9.268124999999998 5.803750000000008 9.536249999999995 5.1875 9.8125 C3 11 3 11 0 14 C0 9.379999999999995 0 4.760000000000005 0 0 Z " fill="#0C5C39" transform="translate(145,64)"/>
<path d="M0 0 C0.9900000000000091 0.16499999999999915 0.9900000000000091 0.16499999999999915 6 1 C6.3300000000000125 2.3200000000000003 6.659999999999997 3.6400000000000006 7 5 C5.422746525866472 5.701335991360892 3.83788666617653 6.385582996355382 2.25 7.0625 C1.8091406249999977 7.253925781250004 1.8091406249999977 7.253925781250004 -0.421875 8.22265625 C-3.152563092038605 9.046000083811634 -4.36901346865622 8.977399202064632 -7 8 C-6.030625000000001 7.608125000000001 -5.061250000000001 7.216250000000002 -4.0625 6.8125 C-1 5 -1 5 -0.125 2.3125 C-0.0837500000000091 1.5493749999999977 -0.04249999999998977 0.7862500000000026 0 0 Z " fill="#E8EFEC" transform="translate(131,59)"/>
<path d="M0 0 C0.27843749999999545 0.1443749999999966 0.27843749999999545 0.1443749999999966 1.6875 0.875 C4.084946452949694 2.0413253014349877 6.515969388867575 3.033988095670722 9 4 C8.670000000000002 4.164999999999999 8.670000000000002 4.164999999999999 7 5 C6.670000000000002 5.990000000000002 6.340000000000003 6.980000000000004 6 8 C3.4375 9.1875 3.4375 9.1875 1 10 C-0.625 6.687500000000007 -0.625 6.687500000000007 -2 3 C-1.3400000000000034 2.009999999999998 -0.6800000000000068 1.0200000000000031 0 0 Z " fill="#0A5B38" transform="translate(118,54)"/>
<path d="M0 0 C1.3199999999999932 0 2.6399999999999864 0 4 0 C5.76462683069559 3.088096953717283 6 4.23312135665779 6 8 C2.9119030462827027 9.76462683069559 1.76687864334221 10 -2 10 C-2 8.350000000000001 -2 6.700000000000003 -2 5 C-0.6800000000000068 4.340000000000003 0.6399999999999864 3.6799999999999997 2 3 C1.3400000000000034 2.6700000000000017 0.6800000000000068 2.3400000000000034 0 2 C0 1.3400000000000034 0 0.6799999999999997 0 0 Z " fill="#468369" transform="translate(144,42)"/>
<path d="M0 0 C0.3300000000000125 0.9899999999999949 0.6599999999999966 1.980000000000004 1 3 C2.319999999999993 2.3400000000000034 3.6399999999999864 1.6800000000000068 5 1 C4.340000000000003 3.3100000000000023 3.680000000000007 5.6200000000000045 3 8 C4.319999999999993 8 5.639999999999986 8 7 8 C7.659999999999997 6.349999999999994 8.319999999999993 4.700000000000003 9 3 C9.329999999999984 3.6599999999999966 9.659999999999997 4.319999999999993 10 5 C9.340000000000003 5.989999999999995 9.340000000000003 5.989999999999995 6 11 C5.422500000000014 10.690624999999997 4.844999999999999 10.381249999999994 4.25 10.0625 C0.07109252356076468 8.089127025014804 -2.47960435572179 7.8699010889304475 -7 9 C-5.036179926496601 7.494404610314049 -3.217366342396957 6.108683171198479 -1 5 C-0.375 2.4375 -0.375 2.4375 0 0 Z " fill="#BED3CA" transform="translate(147,72)"/>
<path d="M0 0 C1.481689453125 1.112548828125 1.481689453125 1.112548828125 3 3 C3.340576171875 5.819091796875 3.340576171875 5.819091796875 3.29296875 9.19921875 C3.2833007812500057 10.40771484375 3.2736328125000114 11.6162109375 3.263671875 12.861328125 C3.238535156250009 14.123964843750002 3.2133984374999898 15.386601562500005 3.1875 16.6875 C3.180732421875007 17.324619140625003 3.180732421875007 17.324619140625003 3.146484375 20.548828125 C3.1110819879218923 23.699640574951005 3.0616978972055904 26.84961044884011 3 30 C2.6699999999999875 30 2.3400000000000034 30 2 30 C0.6493202539097069 19.930200107273166 -0.31860272268085055 10.177586974526776 0 0 Z " fill="#EAF0ED" transform="translate(184,43)"/>
<path d="M0 0 C1.0400570172418355 3.380185306035976 1.0800448204278297 6.4780279011756505 1 10 C5.75 10.125 5.75 10.125 8 9 C7.670000000000002 10.32 7.340000000000003 11.64 7 13 C4.125 13.625 4.125 13.625 1 14 C-1.1385484961317331 11.861451503868267 -1.4265506271360522 10.867246864319718 -2 8 C-2.6599999999999966 8.659999999999997 -3.319999999999993 9.32 -4 10 C-3.520553696936986 5.7808725330454465 -2.8337488079219355 3.2033682176508833 0 0 Z " fill="#EAF1EE" transform="translate(110,44)"/>
<path d="M0 0 C0.9899999999999949 0 1.980000000000004 0 3 0 C5.6025080480587235 3.3736215437798336 6.362650432741702 5.769078284680091 6 10 C4.333880948484193 10.04272100132092 2.666171151071751 10.04063832075785 1 10 C0 9 0 9 -0.09765625 6.93359375 C-0.08605468749999545 6.109882812500004 -0.07445312500000512 5.286171875000001 -0.0625 4.4375 C-0.053476562499994884 3.6112109374999974 -0.04445312500000398 2.784921875000002 -0.03515625 1.93359375 C-0.023554687499995453 1.2955078124999986 -0.011953125000005116 0.6574218749999972 0 0 Z " fill="#176342" transform="translate(121,44)"/>
<path d="M0 0 C0.6599999999999966 0 1.3199999999999932 0 2 0 C2.3299999999999983 1.980000000000004 2.6599999999999966 3.9599999999999937 3 6 C2.4173437500000006 6.286171874999994 1.8346875000000011 6.572343750000002 1.234375 6.8671875 C-0.14778035422179414 7.567930599168392 -1.516345391722595 8.297224028008387 -2.859375 9.0703125 C-7.844674152378076 11.851367812277033 -11.310398178132942 12.406400130133363 -17 12 C-17 11.670000000000002 -17 11.340000000000003 -17 11 C-15.824375000000003 10.752499999999998 -14.648750000000007 10.504999999999995 -13.4375 10.25 C-9.026980557791916 9.129743729599014 -5.740265081400494 7.61818555698035 -2 5 C-0.5625 2.25 -0.5625 2.25 0 0 Z " fill="#236B4C" transform="translate(87,66)"/>
<path d="M0 0 C0 3 0 3 -1.28515625 4.3515625 C-5.59450234112478 7.439137941113586 -8.697428254317913 8.675352750264366 -14 9 C-14.659999999999997 7.680000000000007 -15.319999999999993 6.359999999999999 -16 5 C-15.010000000000005 4.670000000000002 -14.019999999999996 4.340000000000003 -13 4 C-13 4.659999999999997 -13 5.319999999999993 -13 6 C-3.405466970387238 3.1093394077448693 -3.405466970387238 3.1093394077448693 0 0 Z " fill="#CFDED8" transform="translate(118,73)"/>
<path d="M0 0 C0.3299999999999983 0 0.6599999999999966 0 1 0 C0.8849033889174223 1.4175056312275274 0.7574634222888506 2.8340116927742756 0.625 4.25 C0.5553906250000011 5.038906249999997 0.4857812500000023 5.8278125 0.4140625 6.640625 C-0.015071128560151692 9.08587699670123 -0.7860063780524342 10.848369027767731 -2 13 C-2.989999999999995 12.670000000000002 -3.980000000000004 12.340000000000003 -5 12 C-5.1875 8.625 -5.1875 8.625 -5 5 C-2 3 -2 3 0 2 C0 1.3400000000000034 0 0.6799999999999997 0 0 Z " fill="#0A5A38" transform="translate(71,44)"/>
<path d="M0 0 C5.939999999999998 0 11.879999999999995 0 18 0 C18 0.6599999999999966 18 1.3199999999999932 18 2 C11.599999999999994 5.07692307692308 11.599999999999994 5.07692307692308 8.5625 4.6875 C8.046875 4.460624999999993 7.53125 4.233750000000001 7 4 C7.659999999999997 3.6700000000000017 8.319999999999993 3.3400000000000034 9 3 C5.699999999999989 2.6700000000000017 2.4000000000000057 2.3400000000000034 -1 2 C-0.6700000000000017 1.3400000000000034 -0.3400000000000034 0.6800000000000068 0 0 Z " fill="#F8FAF9" transform="translate(124,69)"/>
<path d="M0 0 C0.6599999999999966 0 1.3199999999999932 0 2 0 C2.3299999999999983 1.6499999999999986 2.6599999999999966 3.299999999999997 3 5 C2.360624999999999 5.103124999999999 1.7212499999999977 5.206249999999997 1.0625 5.3125 C0.38187499999999375 5.539375 -0.2987499999999983 5.766249999999999 -1 6 C-1.3299999999999983 6.989999999999995 -1.6599999999999966 7.980000000000004 -2 9 C-4 7.6875 -4 7.6875 -6 6 C-6 5.009999999999998 -6 4.019999999999996 -6 3 C-4.349999999999994 3 -2.700000000000003 3 -1 3 C-0.6700000000000017 2.009999999999998 -0.3400000000000034 1.0200000000000031 0 0 Z " fill="#8FB4A4" transform="translate(72,58)"/>
<path d="M0 0 C1.1319935314465965 0.9080162016951263 2.255323629275381 1.8268382576066458 3.375 2.75 C4.00148437499999 3.260468750000001 4.627968750000008 3.7709375000000023 5.2734375 4.296875 C7.083123177345811 6.081994808422579 8.001174554829362 7.679496440512679 9 10 C8.340000000000003 10 7.680000000000007 10 7 10 C6.340000000000003 10.659999999999997 5.680000000000007 11.32 5 12 C4.6699999999999875 11.009999999999998 4.340000000000003 10.019999999999996 4 9 C3.319375000000008 8.381250000000001 2.6387499999999875 7.762500000000003 1.9375 7.125 C0 5 0 5 -0.25 2.25 C-0.16749999999998977 1.5075000000000003 -0.08500000000000796 0.7650000000000006 0 0 Z " fill="#035632" transform="translate(133,52)"/>
<path d="M0 0 C0.3299999999999983 0 0.6599999999999966 0 1 0 C1.0489843750000034 0.6264843749999969 1.0979687500000068 1.2529687500000009 1.1484375 1.8984375 C1.2232031249999977 2.7157031249999974 1.2979687499999955 3.532968750000002 1.375 4.375 C1.4446093749999989 5.187109374999999 1.5142187499999977 5.999218749999997 1.5859375 6.8359375 C2 9 2 9 4 11 C3.625 13.625 3.625 13.625 3 16 C2.010000000000005 16.33 1.019999999999996 16.659999999999997 0 17 C-0.19386492262977129 14.35448944042139 -0.3803826714458438 11.70882216923745 -0.5625 9.0625 C-0.6185742187499983 8.30775390625 -0.6746484374999966 7.553007812499999 -0.732421875 6.775390625 C-0.8617615747037064 4.852540422738279 -0.9351691204489896 2.926104518273611 -1 1 C-0.6700000000000017 0.6700000000000017 -0.3400000000000034 0.3400000000000034 0 0 Z " fill="#176342" transform="translate(99,47)"/>
<path d="M0 0 C3.0061726877283945 3.0061726877284016 2.5958531591895877 5.823815978292394 3 10 C2.3400000000000034 10 1.6800000000000068 10 1 10 C0.6700000000000017 10.989999999999995 0.3400000000000034 11.980000000000004 0 13 C-1.3199999999999932 9.039999999999992 -2.6400000000000006 5.079999999999998 -4 1 C-2.680000000000007 0.6700000000000017 -1.3599999999999994 0.3400000000000034 0 0 Z " fill="#2A7052" transform="translate(115,57)"/>
<path d="M0 0 C0.9899999999999949 0.3299999999999983 1.980000000000004 0.6599999999999966 3 1 C3.2215154936765487 2.790084665115998 3.4268221324515196 4.582181616828919 3.625 6.375 C3.7410156249999886 7.372734375 3.8570312500000057 8.37046875 3.9765625 9.3984375 C3.9842968750000125 10.256953125000003 3.9920312499999966 11.115468749999998 4 12 C3.3400000000000034 12.659999999999997 2.680000000000007 13.32 2 14 C0.6800000000000068 14 -0.6400000000000006 14 -2 14 C-2 13.340000000000003 -2 12.68 -2 12 C-0.6800000000000068 12 0.6400000000000006 12 2 12 C1.6700000000000017 10.762500000000003 1.3400000000000034 9.524999999999999 1 8.25 C0.20108841412061906 5.254081552952314 0 3.198922808192208 0 0 Z " fill="#D3E1DB" transform="translate(125,43)"/>
<path d="M0 0 C0 0.6599999999999966 0 1.3200000000000003 0 2 C-0.9900000000000091 2.6599999999999966 -1.9799999999999898 3.3200000000000003 -3 4 C-3.6875 6.125 -3.6875 6.125 -4 8 C-5.650000000000006 8.329999999999998 -7.299999999999997 8.659999999999997 -9 9 C-9.329999999999998 7.68 -9.659999999999997 6.359999999999999 -10 5 C-8.680000000000007 4.340000000000003 -7.359999999999999 3.6799999999999997 -6 3 C-6.659999999999997 2.3400000000000034 -7.319999999999993 1.6799999999999997 -8 1 C-5.107656845971462 0.173616241706128 -3.112575690288523 0 0 0 Z " fill="#6A9B86" transform="translate(131,56)"/>
<path d="M0 0 C0 2.6400000000000006 0 5.280000000000001 0 8 C-2.3100000000000023 7.009999999999998 -4.6200000000000045 6.019999999999996 -7 5 C-7 4.009999999999998 -7 3.020000000000003 -7 2 C-2.25 0 -2.25 0 0 0 Z " fill="#005430" transform="translate(150,50)"/>
<path d="M0 0 C0.6599999999999966 0 1.3199999999999932 0 2 0 C2.983160389551017 3.4038830293698936 3.2941105569167917 6.7225958909063195 3.5625 10.25 C3.6462890624999886 11.327656250000004 3.7300781250000057 12.4053125 3.81640625 13.515625 C3.876992187500008 14.335468750000004 3.9375781249999875 15.1553125 4 16 C2.680000000000007 16 1.3600000000000136 16 0 16 C0 15.340000000000003 0 14.68 0 14 C0.6599999999999966 14 1.3199999999999932 14 2 14 C1.8556250000000034 13.32453125 1.7112500000000068 12.6490625 1.5625 11.953125 C1.3768750000000125 11.061093749999998 1.1912499999999966 10.169062499999995 1 9.25 C0.8143750000000125 8.368281250000003 0.6287499999999966 7.486562499999998 0.4375 6.578125 C0 4 0 4 0 0 Z " fill="#DAE6E1" transform="translate(140,43)"/>
<path d="M0 0 C1.3756285444675456 1.2896517604383178 2.7076639299938563 2.6268929256184634 4 4 C4 4.659999999999997 4 5.319999999999993 4 6 C1.6899999999999977 6.329999999999998 -0.6200000000000045 6.659999999999997 -3 7 C-2.25 2.25 -2.25 2.25 0 0 Z " fill="#0B5B39" transform="translate(89,74)"/>
<path d="M0 0 C3.299999999999997 0 6.599999999999994 0 10 0 C8.349999999999994 1.6500000000000057 6.700000000000003 3.299999999999997 5 5 C3.0625 4.1875 3.0625 4.1875 1 3 C0.6700000000000017 2.010000000000005 0.3400000000000034 1.019999999999996 0 0 Z " fill="#0D5D3B" transform="translate(121,72)"/>
<path d="M0 0 C1.48828125 1.11328125 1.48828125 1.11328125 3 3 C3.29296875 5.91796875 3.29296875 5.91796875 3.1875 9.1875 C3.160429687499999 10.274179687500002 3.1333593749999977 11.360859375000004 3.10546875 12.48046875 C3.0706640625000006 13.311914062500001 3.035859375000001 14.143359375000003 3 15 C2.3400000000000034 15 1.6800000000000068 15 1 15 C-0.035901993480464967 9.94997778178272 -0.10251672218780072 5.125836109389887 0 0 Z " fill="#CDDED7" transform="translate(96,43)"/>
<path d="M0 0 C0.6599999999999966 0 1.3199999999999932 0 2 0 C3.4518447794037 4.537014935636563 4.2350919628574815 8.180614761421523 4 13 C3.6700000000000017 13.165 3.6700000000000017 13.165 2 14 C1.0100000000000051 13.340000000000003 0.01999999999999602 12.68 -1 12 C-0.010000000000005116 12 0.980000000000004 12 2 12 C1.3400000000000034 8.04 0.6800000000000068 4.079999999999998 0 0 Z " fill="#C6D9D1" transform="translate(90,43)"/>
<path d="M0 0 C0.9899999999999949 0.3299999999999983 1.980000000000004 0.6599999999999966 3 1 C2.6700000000000017 2.6499999999999986 2.3400000000000034 4.299999999999997 2 6 C0.6800000000000068 6.329999999999998 -0.6400000000000006 6.659999999999997 -2 7 C-2 8.649999999999999 -2 10.299999999999997 -2 12 C-2.3299999999999983 12.165 -2.3299999999999983 12.165 -4 13 C-3.25 6.25 -3.25 6.25 -1 4 C-0.375 1.875 -0.375 1.875 0 0 Z " fill="#75A28F" transform="translate(68,42)"/>
<path d="M0 0 C0.3299999999999983 0 0.6599999999999966 0 1 0 C1.3299999999999983 2.3100000000000023 1.6599999999999966 4.6200000000000045 2 7 C4.969999999999999 7.329999999999998 7.939999999999998 7.659999999999997 11 8 C11 8.329999999999998 11 8.659999999999997 11 9 C8.689999999999998 9.659999999999997 6.3799999999999955 10.319999999999993 4 11 C2 9.4375 2 9.4375 0 7 C-0.25 3.25 -0.25 3.25 0 0 Z " fill="#CFDFD8" transform="translate(65,70)"/>
<path d="M0 0 C1.48828125 1.05078125 1.48828125 1.05078125 3 3 C3.29296875 6.35546875 3.29296875 6.35546875 3.1875 10.1875 C3.160429687499999 11.459804687499997 3.1333593749999977 12.732109375 3.10546875 14.04296875 C3.0706640624999864 15.018789062499998 3.035859375000001 15.994609374999996 3 17 C-0.5176920598413801 11.72346191023793 -0.1057944133958415 6.13607597695804 0 0 Z " fill="#D0DFD9" transform="translate(175,43)"/>
<path d="M0 0 C0.3299999999999983 2.969999999999999 0.6599999999999966 5.939999999999998 1 9 C0.010000000000005116 9 -0.980000000000004 9 -2 9 C-2.3299999999999983 6.359999999999999 -2.6599999999999966 3.719999999999999 -3 1 C-1 0 -1 0 0 0 Z " fill="#236C4D" transform="translate(91,46)"/>
<path d="M0 0 C0.6599999999999966 0 1.3199999999999932 0 2 0 C4.4294515994569394 3.644177399185388 4.161795746453436 5.712412718984083 4 10 C1 8 1 8 0.48828125 6.0546875 C0.3255208333333428 4.036458333333336 0.1627604166666572 2.0182291666666643 0 0 Z " fill="#146140" transform="translate(177,53)"/>
<path d="M0 0 C0.1856250000000017 0.6187500000000057 0.3712500000000034 1.2374999999999972 0.5625 1.875 C2.7143723288662898 5.056028660063205 5.375337630562768 5.194519473458399 9 6 C9 6.659999999999997 9 7.319999999999993 9 8 C5.624999999999986 8.125 5.624999999999986 8.125 2 8 C0 6 0 6 -0.125 2.875 C-0.08374999999999488 1.926249999999996 -0.04250000000000398 0.9775000000000063 0 0 Z " fill="#EFF4F2" transform="translate(68,68)"/>
<path d="M0 0 C3.875 4.75 3.875 4.75 5 7 C4.6699999999999875 7.164999999999999 4.6699999999999875 7.164999999999999 3 8 C2.375 10.0625 2.375 10.0625 2 12 C0 10 0 10 -0.1953125 7.6171875 C-0.17210937500000512 6.712265625000001 -0.14890624999999602 5.807343750000001 -0.125 4.875 C-0.10695312500000398 3.9649218750000017 -0.08890624999999375 3.0548437500000034 -0.0703125 2.1171875 C-0.047109375000005116 1.4185156249999977 -0.02390624999999602 0.7198437500000026 0 0 Z " fill="#0D5C3A" transform="translate(128,45)"/>
<path d="M0 0 C0 3 0 3 -1.5625 4.625 C-4.6727073362216345 6.379475933253232 -7.473447542061592 6.660908417505922 -11 7 C-8.901638843889174 4.901638843889188 -6.973897387747968 3.7858300104917646 -4.375 2.375 C-3.5577343749999955 1.9289843749999989 -2.740468749999991 1.4829687499999977 -1.8984375 1.0234375 C-1.585195312499991 0.8545703125000017 -1.585195312499991 0.8545703125000017 0 0 Z " fill="#D1E0DA" transform="translate(185,74)"/>
<path d="M0 0 C0.3300000000000125 0 0.6599999999999966 0 1 0 C1.3300000000000125 4.950000000000003 1.6599999999999966 9.900000000000006 2 15 C0.3499999999999943 15.659999999999997 -1.3000000000000114 16.319999999999993 -3 17 C-2.682890624999999 16.47921875 -2.3657812499999977 15.958437500000002 -2.0390625 15.421875 C-0.7107948948371643 12.32591291277835 -0.5763575275276196 9.605958792126984 -0.375 6.25 C-0.3002343750000023 5.079531250000002 -0.22546875000000455 3.9090624999999974 -0.1484375 2.703125 C-0.09945312499999659 1.8110937499999977 -0.05046874999999318 0.9190625000000026 0 0 Z " fill="#F2F6F4" transform="translate(160,58)"/>
<path d="M0 0 C2.6400000000000006 0 5.280000000000001 0 8 0 C7.340000000000003 1.3200000000000003 6.680000000000007 2.6400000000000006 6 4 C4.349999999999994 4 2.700000000000003 4 1 4 C0.6700000000000017 2.6799999999999997 0.3400000000000034 1.3599999999999994 0 0 Z " fill="#EBF1EF" transform="translate(74,55)"/>
<path d="M0 0 C0.3299999999999983 0 0.6599999999999966 0 1 0 C2.3335907335907393 6.425482625482623 2.3335907335907393 6.425482625482623 0.875 8.9375 C-1.535793375904376 10.303616246345818 -3.2729444585198877 10.221112611471362 -6 10 C-5.670000000000002 9.340000000000003 -5.340000000000003 8.68 -5 8 C-4.010000000000005 8 -3.019999999999996 8 -2 8 C-1.3400000000000034 5.359999999999999 -0.6800000000000068 2.719999999999999 0 0 Z " fill="#115F3E" transform="translate(72,51)"/>
<path d="M0 0 C1.1084491883995753 3.325347565198726 0.8445435615314096 5.6218257538743615 0 9 C-0.6599999999999966 8.670000000000002 -1.3199999999999932 8.340000000000003 -2 8 C-2.6599999999999966 8.659999999999997 -3.319999999999993 9.32 -4 10 C-3.520553696936986 5.7808725330454465 -2.8337488079219355 3.2033682176508833 0 0 Z " fill="#C6D8D0" transform="translate(110,44)"/>
<path d="M0 0 C0.3299999999999983 1.3199999999999932 0.6599999999999966 2.6400000000000006 1 4 C1.5542968750000057 3.8324218749999943 2.108593749999997 3.664843750000003 2.6796875 3.4921875 C3.0419140624999983 3.390351562500001 3.0419140624999983 3.390351562500001 4.875 2.875 C5.234648437499999 2.7705859375000017 5.234648437499999 2.7705859375000017 7.0546875 2.2421875 C7.696640625000001 2.1622656250000034 8.338593750000001 2.082343750000007 9 2 C9.659999999999997 2.6599999999999966 10.319999999999993 3.319999999999993 11 4 C7.039999999999992 4.659999999999997 3.0799999999999983 5.319999999999993 -1 6 C-0.6700000000000017 4.019999999999996 -0.3400000000000034 2.0400000000000063 0 0 Z " fill="#8EB3A3" transform="translate(85,77)"/>
<path d="M0 0 C0 0.9899999999999949 0 1.980000000000004 0 3 C-1.53125 4.38671875 -1.53125 4.38671875 -3.5 5.6875 C-3.8248437499999994 5.905996093750005 -3.8248437499999994 5.905996093750005 -5.46875 7.01171875 C-5.721406250000001 7.174785156249996 -5.721406250000001 7.174785156249996 -7 8 C-7.329999999999998 7.010000000000005 -7.659999999999997 6.019999999999996 -8 5 C-5.359999999999999 3.3499999999999943 -2.719999999999999 1.7000000000000028 0 0 Z " fill="#DCE8E3" transform="translate(118,73)"/>
<path d="M0 0 C1.7084028140590846 1.6341244308391296 2.934530468175282 2.8690609363505644 4 5 C4.040223906918641 7.332986601280993 4.043202469347378 9.667066655241356 4 12 C1.2136688473567006 7.820503271035051 0 5.06624673911999 0 0 Z " fill="#E6EEEB" transform="translate(116,59)"/>
<path d="M0 0 C0.9900000000000091 0.990000000000002 1.9799999999999898 1.9799999999999969 3 3 C2.85546875 5.48046875 2.85546875 5.48046875 2.1875 8.1875 C1.9748046875000114 9.0885546875 1.7621093749999943 9.989609375 1.54296875 10.91796875 C1.453378906250009 11.261503906249999 1.453378906250009 11.261503906249999 1 13 C0.6699999999999875 13 0.3400000000000034 13 0 13 C0 8.71 0 4.420000000000002 0 0 Z " fill="#C5D8D0" transform="translate(184,43)"/>
<path d="M0 0 C0.9900000000000091 0.3299999999999983 1.9799999999999898 0.6599999999999966 3 1 C3 1.6599999999999966 3 2.319999999999993 3 3 C3.6599999999999966 3.3299999999999983 4.319999999999993 3.6599999999999966 5 4 C3.3499999999999943 4.659999999999997 1.6999999999999886 5.319999999999993 0 6 C-0.6599999999999966 4.680000000000007 -1.3199999999999932 3.3599999999999994 -2 2 C-1.3400000000000034 2 -0.6800000000000068 2 0 2 C0 1.3400000000000034 0 0.6800000000000068 0 0 Z " fill="#82AB9A" transform="translate(171,74)"/>
<path d="M0 0 C0.3300000000000125 0 0.6599999999999966 0 1 0 C1.054229468092018 1.4370809044384245 1.0928972323777941 2.874754621491654 1.125 4.3125 C1.148203125000009 5.113007812500001 1.1714062499999898 5.913515625000002 1.1953125 6.73828125 C1 9 1 9 -1 12 C-1.6599999999999966 10.680000000000007 -2.319999999999993 9.36 -3 8 C-2.3400000000000034 7.010000000000005 -1.6800000000000068 6.019999999999996 -1 5 C-0.615001090211706 3.344504687910373 -0.27206865367617183 1.677756697669757 0 0 Z " fill="#9BBCAE" transform="translate(153,61)"/>
<path d="M0 0 C0.3299999999999983 0 0.6599999999999966 0 1 0 C1 1.9799999999999969 1 3.960000000000001 1 6 C-1.3100000000000023 5.670000000000002 -3.6200000000000045 5.340000000000003 -6 5 C-5.340000000000003 3.6799999999999997 -4.680000000000007 2.3599999999999994 -4 1 C-3.6700000000000017 1.990000000000002 -3.3400000000000034 2.979999999999997 -3 4 C-2.010000000000005 4 -1.019999999999996 4 0 4 C0 2.6799999999999997 0 1.3599999999999994 0 0 Z " fill="#DFE9E5" transform="translate(107,59)"/>
<path d="M0 0 C0.3299999999999983 0 0.6599999999999966 0 1 0 C1.3299999999999983 2.6400000000000006 1.6599999999999966 5.280000000000001 2 8 C3.319999999999993 7.340000000000003 4.640000000000001 6.68 6 6 C5.670000000000002 7.32 5.340000000000003 8.64 5 10 C1.125 9.125 1.125 9.125 0 8 C-0.141151612580785 5.329411489971498 -0.04247107338396461 2.6756776231893227 0 0 Z " fill="#C6D9D1" transform="translate(100,48)"/>
<path d="M0 0 C0.6599999999999966 0 1.3199999999999932 0 2 0 C3.1757145120597983 3.6741078501868643 3.0736674647852595 7.169291831166191 3 11 C2.010000000000005 11 1.019999999999996 11 0 11 C0 7.369999999999997 0 3.740000000000002 0 0 Z " fill="#D1E0DA" transform="translate(86,43)"/>
<path d="M0 0 C0.3300000000000125 0.6599999999999966 0.6599999999999966 1.3199999999999932 1 2 C0.3400000000000034 2.989999999999995 0.3400000000000034 2.989999999999995 -3 8 C-4.319999999999993 7.340000000000003 -5.639999999999986 6.680000000000007 -7 6 C-6.6699999999999875 5.340000000000003 -6.340000000000003 4.680000000000007 -6 4 C-5.340000000000003 4.165000000000006 -5.340000000000003 4.165000000000006 -2 5 C-1.3400000000000034 3.3499999999999943 -0.6800000000000068 1.7000000000000028 0 0 Z " fill="#D9E5E0" transform="translate(156,75)"/>
<path d="M0 0 C-0.9899999999999949 0.3299999999999983 -1.980000000000004 0.6599999999999966 -3 1 C-3 2.6500000000000057 -3 4.299999999999997 -3 6 C-3.3299999999999983 4.680000000000007 -3.6599999999999966 3.3599999999999994 -4 2 C-4.659999999999997 2 -5.319999999999993 2 -6 2 C-6.329999999999998 2.6599999999999966 -6.659999999999997 3.319999999999993 -7 4 C-7.329999999999998 3.010000000000005 -7.659999999999997 2.019999999999996 -8 1 C-4.932511255165082 -0.862403880792634 -3.4025448890364487 -1.215194603227303 0 0 Z " fill="#F8FAF9" transform="translate(93,64)"/>
<path d="M0 0 C0.9900000000000091 0.3299999999999983 1.9799999999999898 0.6599999999999966 3 1 C3 2.3200000000000003 3 3.6400000000000006 3 5 C1.6800000000000068 5.329999999999998 0.36000000000001364 5.659999999999997 -1 6 C-1.0427210013209276 4.333880948484193 -1.0406383207578358 2.666171151071751 -1 1 C-0.6699999999999875 0.6700000000000017 -0.3400000000000034 0.3400000000000034 0 0 Z " fill="#518A71" transform="translate(140,61)"/>
<path d="M0 0 C-0.3300000000000125 1.3200000000000003 -0.6599999999999966 2.6400000000000006 -1 4 C-1.6599999999999966 4 -2.319999999999993 4 -3 4 C-3 3.3400000000000034 -3 2.6799999999999997 -3 2 C-3.990000000000009 2 -4.97999999999999 2 -6 2 C-6 1.3400000000000034 -6 0.6799999999999997 -6 0 C-3 -1 -3 -1 0 0 Z " fill="#A9C6B9" transform="translate(138,61)"/>
<path d="M0 0 C2 3.75 2 3.75 2 6 C1.009999999999991 6.329999999999998 0.020000000000010232 6.659999999999997 -1 7 C-1.6599999999999966 5.019999999999996 -2.319999999999993 3.039999999999999 -3 1 C-2.009999999999991 1.3299999999999983 -1.0200000000000102 1.6599999999999966 0 2 C0 1.3400000000000034 0 0.6799999999999997 0 0 Z " fill="#558D75" transform="translate(146,54)"/>
<path d="M0 0 C0 0.990000000000002 0 1.9799999999999969 0 3 C-0.6599999999999966 3 -1.3199999999999932 3 -2 3 C-2 3.6599999999999966 -2 4.32 -2 5 C-2.990000000000009 4.670000000000002 -3.9799999999999898 4.340000000000003 -5 4 C-5 3.009999999999998 -5 2.020000000000003 -5 1 C-2 0 -2 0 0 0 Z " fill="#095A37" transform="translate(148,51)"/>
<path d="M0 0 C2.4375 0.75 2.4375 0.75 5 2 C5.8125 4.125 5.8125 4.125 6 6 C5.009999999999991 6 4.02000000000001 6 3 6 C0 2.6666666666666643 0 2.6666666666666643 0 0 Z " fill="#D9E6E0" transform="translate(129,45)"/>
</svg>
