<?xml version="1.0" encoding="UTF-8"?>
<!-- Generator: visioncortex VTracer 0.6.12 -->
<svg version="1.1" xmlns="http://www.w3.org/2000/svg" width="3840" height="2560">
<path d="M0 0 C1267.2 0 2534.4 0 3840 0 C3840 844.8000000000001 3840 1689.6000000000001 3840 2560 C2572.8 2560 1305.6 2560 0 2560 C0 1715.1999999999998 0 870.3999999999999 0 0 Z " fill="#C0272D" transform="translate(0,0)"/>
<path d="M0 0 C0.6599999999998545 0 1.3200000000001637 0 2 0 C2.752074836607335 2.22848404453714 3.501649294103572 4.45776500202237 4.25 6.6875 C4.667656250000164 7.928867187500032 5.085312499999873 9.17023437499995 5.515625 10.44921875 C6.663097809722331 13.91748249697389 7.739346223086159 17.40400984294763 8.802734375 20.89892578125 C10.989802533271359 28.01977850853666 13.302804644979688 35.09540927800947 15.640625 42.16796875 C16.08407885920633 43.51326290624149 16.52736762946529 44.858611490758676 16.970504760742188 46.204010009765625 C17.908797408791543 49.052477116733826 18.84760198990648 51.900774615631576 19.786834716796875 54.748931884765625 C26.928059104875956 76.40806582890218 34.02810798807468 98.0780795728906 40.9375 119.8125 C47.41672902871687 140.18731859102866 54.06460965556607 160.5046367455642 60.75 180.8125 C60.999730682372956 181.57114852905272 61.24946136474614 182.32979705810544 61.50675964355469 183.11143493652344 C62.74403480406295 186.870067421586 63.98140836390348 190.62866751140973 65.21878051757813 194.38726806640625 C65.45765110015873 195.1128717803955 65.69652168273933 195.83847549438474 65.94263076782227 196.58606719970703 C66.41942291542227 198.03437261914087 66.89623704048631 199.48267080363394 67.37307357788086 200.93096160888672 C71.33550698809768 212.9669295510206 75.2784568117122 225.00907544738266 79.1875 237.0625 C79.41812133789063 237.7724209594727 79.64874267578125 238.48234191894528 79.8863525390625 239.21377563476563 C81.97893064925529 245.658021753144 84.04277907376854 252.10892746843683 86.01953125 258.58984375 C88.06169757725866 265.2670392694639 90.2692271211713 271.8838169566476 92.5 278.5 C93.26196676798872 280.7598946122264 94.0223880876897 283.0203109004367 94.78125 285.28125 C95.11189453125007 286.26158203125 95.44253906250015 287.2419140625 95.783203125 288.251953125 C96.83900023433443 291.50407937349564 97.85011988372298 294.76441956793883 98.8486328125 298.034423828125 C101.01819157123282 305.110841573749 103.31775510114221 312.14062302949355 105.640625 319.16796875 C106.08490320945293 320.51578048330407 106.52901590342981 321.86364678481937 106.97297668457031 323.21156311035156 C107.91208949520114 326.06254917686806 108.85171480310896 328.9133654387115 109.79177856445313 331.7640380859375 C117.97186063532445 356.57366645652326 126.07127106785606 381.40611349659844 133.9873046875 406.301513671875 C134.2894790649416 407.2512455749511 134.59165344238272 408.2009774780274 134.90298461914063 409.1794891357422 C135.4789450091498 410.99036622387257 136.05415395458294 412.80148253371 136.62850952148438 414.6128692626953 C137.8964967847469 418.59906289174864 139.18488540946964 422.5752116591593 140.53857421875 426.533203125 C140.77539413452132 427.22742370605465 141.0122140502931 427.9216442871093 141.25621032714844 428.63690185546875 C141.88147602879053 430.45761338025545 142.5154199326671 432.27533847065865 143.150146484375 434.0927734375 C144 437 144 437 144 441 C297.4499999999998 441 450.9000000000001 441 609 441 C603.37641723356 446.62358276644 603.37641723356 446.62358276644 600.20703125 448.875 C599.8554797363281 449.12664916992185 599.8554797363281 449.12664916992185 598.076416015625 450.400146484375 C597.3293237304688 450.9280981445313 596.5822314453126 451.4560498046876 595.8125 452 C594.1926452252983 453.1574637695876 592.5728553466352 454.3150183648122 590.953125 455.47265625 C590.1287695312503 456.0593408203126 589.3044140624997 456.646025390625 588.455078125 457.25048828125 C584.6466538508284 459.9644071703424 580.8537792111811 462.6997029693648 577.0625 465.4375 C576.3236254882813 465.97052734375006 575.5847509765626 466.5035546875001 574.823486328125 467.052734375 C569.3576963137216 471.0020558781059 563.9238260919046 474.99329932096316 558.5 479 C548.6459217915171 486.2794262168811 538.7142566646717 493.448303241325 528.7705078125 500.6044921875 C520.3140696370156 506.69238750420527 511.88111090799885 512.808687410482 503.5 519 C495.12051541940855 525.1901111853767 486.6889263726671 531.3047430860795 478.23388671875 537.39111328125 C474.4864023084956 540.0901211789087 470.74338799451743 542.7953149391444 467 545.5 C462.51389620739883 548.7413145330024 458.0269516943117 551.9814195398139 453.53515625 555.21484375 C445.8253702723159 560.7680462374228 438.1424236889734 566.3543720493176 430.5 572 C420.6459217915167 579.2794262168811 410.71425666467167 586.4483032413248 400.7705078125 593.6044921875 C392.31406963701556 599.6923875042053 383.88111090799885 605.808687410482 375.5 612 C367.12051541940855 618.1901111853767 358.6889263726671 624.3047430860797 350.23388671875 630.39111328125 C346.4864023084956 633.0901211789087 342.74338799451743 635.7953149391444 339 638.5 C334.51389620739883 641.7413145330024 330.02695169431126 644.9814195398139 325.53515625 648.21484375 C317.8253702723159 653.7680462374228 310.1424236889734 659.3543720493176 302.5 665 C292.6459217915167 672.2794262168811 282.71425666467167 679.4483032413248 272.7705078125 686.6044921875 C263.1718532332693 693.5146833397253 253.61002455343123 700.4706103618478 244.103759765625 707.507568359375 C243.34893310546886 708.0658129882813 242.59410644531272 708.6240576171876 241.81640625 709.19921875 C241.15068603515647 709.6925268554687 240.48496582031248 710.1858349609374 239.799072265625 710.694091796875 C238.22705214923963 711.8351876854008 236.61626643981617 712.9224890401226 235 714 C236.64766753802405 722.4275770670511 239.31210868167273 730.4903910042731 241.98046875 738.63671875 C242.47689082925217 740.1628643546474 242.97292076355507 741.6891375646646 243.4685821533203 743.2155303955078 C244.7725011282596 747.227722008322 246.08127233245614 751.2383134531647 247.3912353515625 755.24853515625 C249.4656970815413 761.6026276543294 251.53186399918923 767.9594270555026 253.59998893737793 774.3155841827393 C254.35284951056838 776.6286714043481 255.10637565482375 778.9415409950557 255.86000061035156 781.2543792724609 C258.85917745785264 790.4629868713832 261.8205337281288 799.6826527672374 264.7430419921875 808.9159240722656 C267.14515928653964 816.4920829361531 269.64967044699097 824.0307449819707 272.1875 831.5625 C273.0158493941167 834.021621753739 273.84268626337507 836.4812535442284 274.66796875 838.94140625 C275.02141357421897 839.9901391601561 275.3748583984375 841.0388720703127 275.739013671875 842.119384765625 C276.8279909741259 845.4164660203505 277.84165298375956 848.734840587344 278.855712890625 852.0556640625 C281.02261692175307 859.1250966968219 283.32009078970486 866.1477046934149 285.640625 873.16796875 C286.08407885920633 874.5132629062414 286.5273676294655 875.8586114907587 286.9705047607422 877.2040100097656 C287.90879740879154 880.0524771167338 288.84760198990625 882.9007746156315 289.7868347167969 885.7489318847656 C296.92805910487596 907.4080658289022 304.0281079880747 929.0780795728906 310.9375 950.8125 C317.4167290287169 971.1873185910285 324.0646096555661 991.5046367455641 330.75 1011.8125 C330.99973068237296 1012.5711485290526 331.2494613647459 1013.3297970581054 331.5067596435547 1014.1114349365234 C332.7440348040627 1017.8700674215861 333.9814083639035 1021.6286675114097 335.2187805175781 1025.3872680664063 C335.4576511001587 1026.1128717803956 335.69652168273933 1026.8384754943847 335.94263076782227 1027.586067199707 C336.4194229154223 1029.0343726191409 336.8962370404861 1030.482670803634 337.37307357788086 1031.9309616088867 C341.33550698809813 1043.966929551021 345.2784568117122 1056.0090754473824 349.1875 1068.0625 C349.4181213378906 1068.7724209594726 349.64874267578125 1069.4823419189454 349.8863525390625 1070.2137756347656 C351.9789306492553 1076.6580217531437 354.04277907376854 1083.1089274684368 356.01953125 1089.58984375 C358.06169757725866 1096.2670392694636 360.2692271211713 1102.883816956648 362.5 1109.5 C365.1277313284854 1117.2935103223679 367.665463558842 1125.1015844463582 370.0625 1132.96923828125 C371.6290463498176 1138.0335889027695 373.3454697758011 1143.0456629269195 375.0625 1148.060546875 C377 1153.7890226403063 377 1153.7890226403063 377 1156 C373.31172954561316 1154.3340420894438 370.1347926624521 1152.0543707025815 366.875 1149.6875 C366.5715466308593 1149.4688427734375 366.5715466308593 1149.4688427734375 365.035888671875 1148.3623046875 C363.7158948394699 1147.410592293409 362.3968391945036 1146.4575776201086 361.07861328125 1145.50341796875 C358.9706225957548 1143.9787519314843 356.85879582427606 1142.4595356559528 354.74609375 1140.94140625 C346.15734817305156 1134.7630505607758 337.61879110852715 1128.5200585736366 329.10888671875 1122.233642578125 C321.5239785212739 1116.636144846552 313.884446921018 1111.1161514386579 306.23388671875 1105.60888671875 C301.73476831479366 1102.3685380540426 297.24175881198425 1099.119722982949 292.74755859375 1095.87255859375 C289.0120550029342 1093.1740197819938 285.2751851991934 1090.4774204684063 281.53515625 1087.78515625 C273.0207931933246 1081.6524332091778 264.5478379783817 1075.4676721052792 256.10791015625 1069.23291015625 C247.78497250827104 1063.0908036627056 239.39567784755172 1057.042093168431 231 1051 C220.99449602130517 1043.7993679207204 211.02311522050832 1036.5574921377872 201.10791015625 1029.23291015625 C193.52331160039057 1023.6356782639527 185.88411670310688 1018.115913730908 178.23388671875 1012.60888671875 C173.73476831479366 1009.3685380540423 169.24175881198425 1006.119722982949 164.74755859375 1002.87255859375 C161.01205500293418 1000.1740197819938 157.2751851991934 997.4774204684063 153.53515625 994.78515625 C145.0207931933246 988.6524332091778 136.54783797838127 982.4676721052792 128.10791015625 976.23291015625 C119.78497250827104 970.0908036627056 111.39567784755172 964.0420931684307 103 958 C93.71478922812594 951.3177392473985 84.45050300546018 944.6111099285592 75.25 937.8125 C68.73131921497588 932.9960578402815 62.17551719978246 928.2397706516026 55.5703125 923.54296875 C45.85825241489874 916.6350950274984 36.204474368061256 909.6458967777407 26.626220703125 902.5537109375 C23.4801182056558 900.2268108222429 20.32454283377774 897.9129422983565 17.16845703125 895.599609375 C15.130877902527118 894.096544924269 13.109701724651813 892.5736147735702 11.08984375 891.046875 C9.935600233211971 890.1969592124647 8.780702342092809 889.3479310340058 7.625 888.5 C6.647890624999945 887.7678125 5.670781249999891 887.035625 4.6640625 886.28125 C2 885 2 885 -0.33984375 885.41796875 C-4.1240162825747575 887.6684678332492 -7.65050701461405 890.1939885317938 -11.1875 892.8125 C-12.807165283516497 893.9975685839329 -14.426960529486678 895.1824595618325 -16.046875 896.3671875 C-16.871230468750127 896.9727246093748 -17.695585937500027 897.5782617187501 -18.544921875 898.2021484375 C-21.593645950244763 900.4347264098651 -24.65976756625605 902.6424376869725 -27.727783203125 904.848388671875 C-34.68634987028054 909.8526214015751 -41.60599374994126 914.9072446174805 -48.5 920 C-58.35407820848286 927.2794262168809 -68.28574333532856 934.448303241325 -78.2294921875 941.6044921875 C-86.68593036298444 947.6923875042053 -95.11888909200115 953.8086874104822 -103.5 960 C-111.87948458059145 966.1901111853767 -120.31107362733269 972.3047430860795 -128.76611328125 978.39111328125 C-132.51359769150463 981.0901211789087 -136.25661200548257 983.7953149391446 -140 986.5 C-144.4861037926014 989.7413145330024 -148.97304830568874 992.9814195398139 -153.46484375 996.21484375 C-161.1746297276843 1001.7680462374228 -168.8575763110266 1007.3543720493174 -176.5 1013 C-186.3540782084831 1020.2794262168809 -196.28574333532856 1027.448303241325 -206.2294921875 1034.6044921875 C-214.68593036298444 1040.6923875042055 -223.11888909200115 1046.8086874104822 -231.5 1053 C-239.87948458059145 1059.1901111853767 -248.31107362733292 1065.3047430860797 -256.76611328125 1071.39111328125 C-260.51359769150463 1074.0901211789087 -264.25661200548257 1076.7953149391444 -268 1079.5 C-272.4861037926016 1082.7413145330027 -276.9730483056885 1085.981419539814 -281.46484375 1089.21484375 C-289.1746297276843 1094.768046237423 -296.8575763110266 1100.3543720493174 -304.5 1106 C-314.3540782084831 1113.2794262168811 -324.28574333532833 1120.4483032413248 -334.2294921875 1127.6044921875 C-364.031795996199 1149.0595424130183 -364.031795996199 1149.0595424130183 -371.11962890625 1154.68115234375 C-373 1156 -373 1156 -375 1156 C-373.2340965171227 1148.8279533984892 -370.99314806845905 1141.8992941286 -368.42138671875 1134.982666015625 C-366.70737760684665 1130.2838374045461 -365.26757049392813 1125.528141165427 -363.88671875 1120.72265625 C-360.5621363680966 1109.222312669756 -356.7482117073123 1097.8795466857912 -352.9927673339844 1086.5144348144531 C-350.73764424628416 1079.6891869233864 -348.4933333296524 1072.8603804381323 -346.25 1066.03125 C-346.1369234752656 1065.687115945816 -346.1369234752656 1065.687115945816 -345.56468772888184 1063.9455890655518 C-341.3694062641812 1051.1732309043607 -337.26111532500613 1038.3741450891116 -333.1875 1025.5625 C-326.6657093322506 1005.0630168012508 -319.97660398824064 984.6204492340771 -313.25 964.1875 C-312.9995190429688 963.4266006469727 -312.7490380859376 962.6657012939454 -312.490966796875 961.8817443847656 C-311.49274201438107 958.8494673353271 -310.4944459731296 955.8172137485083 -309.4961452484131 952.7849617004395 C-309.00948182541515 951.3067597813529 -308.5228249351212 949.8285557115091 -308.0361747741699 948.3503494262695 C-307.55788731939356 946.8975579047424 -307.0795778329052 945.444773636294 -306.60124588012695 943.9919967651367 C-302.77078449016904 932.3572101770028 -298.96034224124537 920.7161125487614 -295.1875 909.0625 C-294.95857055664055 908.3556607055664 -294.72964111328133 907.6488214111328 -294.4937744140625 906.9205627441406 C-292.29045386907796 900.1148630586063 -290.0971212893742 893.305984809012 -287.9112091064453 886.4946746826172 C-286.99219076493455 883.6314373833457 -286.0719286520912 880.7686002493447 -285.1517639160156 877.9057312011719 C-284.5306074607156 875.9703650914639 -283.91208580943317 874.034153927897 -283.293701171875 872.097900390625 C-281.6327213498648 866.9238715954255 -279.9429869892622 861.7824446284267 -278.03125 856.6953125 C-276.4363682427095 852.3772157490002 -275.09839660800844 848.012984399461 -273.83203125 843.58984375 C-270.53408304186155 832.1248311190595 -266.7294277831222 820.8234833059109 -262.98699951171875 809.4976806640625 C-260.7602706127984 802.7577309962044 -258.54630481273716 796.0135809397566 -256.33203125 789.26953125 C-256.2202302551268 788.9291023063661 -256.2202302551268 788.9291023063661 -255.65444946289063 787.2063255310059 C-251.3665079696775 774.1470827718956 -247.11672246406738 761.0758363752589 -242.91519165039063 747.9884948730469 C-242.22735501354327 745.8470092909547 -241.53806827421454 743.7059888791327 -240.84725952148438 741.5654602050781 C-239.8914323286308 738.6022408307294 -238.94098895273123 735.6373502946653 -237.9921875 732.671875 C-237.71602096557626 731.8182890319824 -237.4398544311523 730.9647030639649 -237.1553192138672 730.0852508544922 C-235.46341026471327 724.767808487122 -234.14016934925803 719.4632258668953 -233 714 C-245.2769969300914 704.9206505948032 -257.60632484529924 695.9193203150126 -270 687 C-279.2852107718736 680.3177392473988 -288.54949699454005 673.611109928559 -297.75 666.8125 C-304.2686807850239 661.9960578402815 -310.82448280021754 657.2397706516026 -317.4296875 652.54296875 C-328.66515842669696 644.5515422458002 -339.801444277713 636.4257760517403 -350.89111328125 628.233642578125 C-359.21435880359286 622.0912679154835 -367.60399194788897 616.04233080579 -376 610 C-386.0055039786946 602.7993679207204 -395.97688477949146 595.5574921377874 -405.89208984375 588.23291015625 C-413.476688399609 582.6356782639527 -421.11588329689334 577.1159137309078 -428.76611328125 571.60888671875 C-433.2652316852061 568.3685380540428 -437.7582411880155 565.119722982949 -442.25244140625 561.87255859375 C-445.98794499706605 559.1740197819938 -449.72481480080637 556.4774204684063 -453.46484375 553.78515625 C-461.9792068066754 547.6524332091781 -470.45216202161873 541.467672105279 -478.89208984375 535.23291015625 C-487.21502749172873 529.0908036627056 -495.60432215244805 523.0420931684309 -504 517 C-514.0055039786946 509.79936792072044 -523.9768847794915 502.55749213778745 -533.89208984375 495.23291015625 C-541.476688399609 489.63567826395274 -549.1158832968933 484.1159137309078 -556.76611328125 478.60888671875 C-561.2601190865043 475.37222024261587 -565.7480880078438 472.12718643458106 -570.237060546875 468.883544921875 C-574.0593111864275 466.12217405211436 -577.8834081172583 463.3634254687054 -581.7109375 460.609375 C-588.541690704332 455.691914489832 -595.3696632419558 450.7708306624663 -602.125 445.75 C-603.0763281249999 445.0435937500001 -604.0276562500001 444.3371875 -605.0078125 443.609375 C-605.665234375 443.0782812499999 -606.3226562499999 442.54718750000006 -607 442 C-607 441.6700000000001 -607 441.3399999999999 -607 441 C-453.54999999999995 441 -300.0999999999999 441 -142 441 C-141.67000000000007 438.69000000000005 -141.33999999999992 436.3800000000001 -141 434 C-140.49412826284538 432.14178552081125 -139.93820507643568 430.29645973066295 -139.332763671875 428.46826171875 C-138.99073913574216 427.42565689086905 -138.64871459960932 426.3830520629883 -138.29632568359375 425.30885314941406 C-137.92396789550776 424.1937284851074 -137.55161010742177 423.0786038208007 -137.16796875 421.9296875 C-136.78006164550789 420.7521641540527 -136.39215454101554 419.5746408081054 -135.99249267578125 418.36143493652344 C-135.16089512737744 415.8393945974542 -134.32727807122592 413.31813940875713 -133.48995971679688 410.7980041503906 C-132.17697387545854 406.84602453961634 -130.87201447815187 402.8914255738446 -129.568603515625 398.936279296875 C-128.2628605374473 394.975079095346 -126.95678659094392 391.0139917437946 -125.64793395996094 387.05381774902344 C-122.21000373871402 376.65110889163543 -118.80982058808922 366.2366397273893 -115.4375 355.8125 C-114.96644067268699 354.3587075299024 -114.495331296122 352.9049312757877 -114.024169921875 351.451171875 C-111.73645297087796 344.38865670027235 -109.45995723560713 337.32259962989986 -107.19140625 330.25390625 C-106.73318540004448 328.8277081054981 -106.27493396478076 327.40151978730023 -105.816650390625 325.975341796875 C-104.97346133829274 323.3512962278827 -104.13317705490681 320.72638426003687 -103.294677734375 318.100830078125 C-101.63333550420066 312.9258363201835 -99.9433493284896 307.78340881311055 -98.03125 302.6953125 C-96.4363682427097 298.3772157490007 -95.09839660800822 294.0129843994607 -93.83203125 289.58984375 C-90.53572007014373 278.1305220968268 -86.73337740287116 266.8346069572499 -82.99276733398438 255.51443481445313 C-80.73764424628439 248.68918692338661 -78.49333332965261 241.86038043813232 -76.25 235.03125 C-76.02384695053115 234.34298189163212 -75.79769390106185 233.65471378326413 -75.56468772888184 232.94558906555176 C-71.36940626418118 220.17323090436048 -67.26111532500613 207.3741450891116 -63.1875 194.5625 C-56.6657093322508 174.06301680125114 -49.97660398824064 153.620449234077 -43.25 133.1875 C-42.999519042968586 132.4266006469727 -42.74903808593763 131.6657012939453 -42.490966796875 130.88174438476563 C-41.492742014381065 127.84946733532706 -40.49444597312959 124.81721374850827 -39.496145248413086 121.78496170043945 C-39.00948182541515 120.30675978135275 -38.52282493512121 118.82855571150913 -38.03617477416992 117.35034942626953 C-37.55788731939356 115.89755790474226 -37.079577832905215 114.44477363629403 -36.60124588012695 112.99199676513672 C-32.770784490169035 101.35721017700291 -28.960342241245144 89.71611254876132 -25.1875 78.0625 C-24.958570556640552 77.35566070556638 -24.729641113281104 76.64882141113276 -24.4937744140625 75.92056274414063 C-22.290453869078192 69.11486305860649 -20.097121289374172 62.30598480901199 -17.911209106445313 55.49467468261719 C-16.99219076493455 52.63143738334554 -16.071928652091174 49.76860024934467 -15.151763916015625 46.905731201171875 C-14.5306074607156 44.97036509146403 -13.912085809433165 43.03415392789714 -13.293701171875 41.097900390625 C-11.289515569496643 34.854769751578715 -9.172763452395884 28.678536203118256 -6.90185546875 22.52783203125 C-5.5466814690998945 18.729382764228603 -4.414936172052876 14.878023061819476 -3.3125 11 C-1.057258064515736 3.171774193547435 -1.057258064515736 3.171774193547435 0 0 Z " fill="#006132" transform="translate(1919,641)"/>
<path d="M0 0 C66 0 132 0 200 0 C224.58595882620693 74.82683121019522 224.58595882620693 74.82683121019522 234.78515625 106.890625 C238.08490192552017 117.23413931399955 241.47106694366403 127.5485155672468 244.87109375 137.859375 C245.38306415829175 139.41290711702118 245.89503213811895 140.96644003435108 246.40699768066406 142.5199737548828 C248.68574083490512 149.432271554414 250.9677783392067 156.34344085366024 253.2602014541626 163.2512149810791 C254.2037611867031 166.09711429137042 255.1438353080439 168.9441568710031 256.08313179016113 171.79146575927734 C256.52461825479895 173.12686410666765 256.9677249887559 174.46172797326017 257.41251945495605 175.79602813720703 C258.0238297407068 177.6301788660603 258.6292572899829 179.46628716318696 259.234375 181.302490234375 C259.57694335937504 182.33526596069328 259.9195117187501 183.36804168701178 260.2724609375 184.43211364746094 C261 187 261 187 261 190 C259.07614334327445 191.60218287489351 257.19572245742165 192.98466972437495 255.125 194.375 C253.82886192862497 195.27262198265134 252.53331710267003 196.17110103204277 251.23828125 197.0703125 C250.8925708007814 197.30830566406257 250.8925708007814 197.30830566406257 249.14306640625 198.5126953125 C245.49753456264898 201.0427226525792 241.90651131753293 203.6475486255572 238.3125 206.25 C237.55855957031235 206.79446777343742 236.80461914062516 207.33893554687506 236.02783203125 207.89990234375 C229.6916221658994 212.48175660573406 223.39814110004545 217.1203746315266 217.10888671875 221.766357421875 C209.5239785212741 227.36385515344796 201.88444692101757 232.88384856134235 194.23388671875 238.39111328125 C190.4864023084956 241.0901211789087 186.74338799451743 243.79531493914465 183 246.5 C178.5138962073986 249.74131453300242 174.02695169431126 252.98141953981394 169.53515625 256.21484375 C161.8253702723157 261.7680462374228 154.14242368897317 267.35437204931736 146.5 273 C139.60751989912887 278.0916279822518 132.69801533858322 283.1579241755994 125.727783203125 288.142822265625 C121.78815991140937 290.9632986251172 117.89520206905445 293.8292717165209 114.046875 296.7734375 C113.23355712890634 297.3863061523439 112.42023925781245 297.9991748046875 111.582275390625 298.630615234375 C110.01818014690616 299.8107425560961 108.46466307894002 301.0050591094832 106.923583984375 302.215087890625 C101.73935378140231 306.0924192226753 101.73935378140231 306.0924192226753 98.4375 305.6796875 C95.16250029537196 303.4228768061057 91.9560469336866 301.1250117323875 88.8125 298.6875 C87.37998129453058 297.5949431693866 85.94634610103026 296.5038490081363 84.51171875 295.4140625 C83.76970214843755 294.8497753906249 83.02768554687509 294.2854882812501 82.26318359375 293.7041015625 C78.58859627522361 290.93726019428914 74.85936714826516 288.2478372410694 71.125 285.5625 C70.37581298828127 285.0232690429689 69.62662597656254 284.4840380859375 68.854736328125 283.928466796875 C67.33086688500839 282.83226446475805 65.80669648607181 281.73648038169085 64.2822265625 280.64111328125 C60.51700952976125 277.9336048415762 56.75878551845858 275.21642636446495 53 272.5 C48.513934959483095 269.25863196031605 44.02695158666643 266.0185803826978 39.53515625 262.78515625 C31.020793193324835 256.65243320917807 22.547837978381267 250.467672105279 14.10791015625 244.23291015625 C5.784972508271267 238.09080366270587 -2.604322152448276 232.04209316843094 -11 226 C-13.980033891803942 223.8553676372169 -16.95934736942695 221.7097441502376 -19.9375 219.5625 C-20.673876953125045 219.03164794921872 -21.41025390625009 218.50079589843745 -22.1689453125 217.953857421875 C-27.746053418137308 213.9250699984575 -33.28264409216263 209.84330751181915 -38.8125 205.75 C-46.11002024337381 200.34986481786268 -53.48799304730778 195.09791495173727 -61 190 C-59.45107029305473 182.1951327646998 -57.068355126195456 174.7631770189687 -54.5546875 167.22265625 C-54.10800872716072 165.87146143118366 -53.66177641143645 164.52011895229975 -53.21595764160156 163.16864013671875 C-52.26741778837891 160.29539206173195 -51.31645249127996 157.42296382747486 -50.363494873046875 154.55117797851563 C-48.08937581074042 147.69678517364355 -45.82890288954627 140.83788952359419 -43.568777084350586 133.97887229919434 C-43.061009790399794 132.4379048472249 -42.553106484196405 130.8969822064255 -42.04506874084473 129.35610389709473 C-37.59801052103762 115.86577181983535 -33.246229377695045 102.34786865397723 -28.9375 88.8125 C-19.450721791116848 59.15698071711313 -9.707275163979602 29.584076690223128 0 0 Z " fill="#C0272D" transform="translate(1820,1143)"/>
<path d="M0 0 C5.887842927685369 3.873716431862931 11.673562502315235 7.857266123389763 17.375 12 C18.14392578124989 12.556874999999991 18.91285156250001 13.113749999999982 19.705078125 13.6875 C26.125539947653806 18.345584042994005 32.50967899688385 23.052404620131483 38.889892578125 27.765380859375 C47.21343058402363 33.90823532185277 55.60357043599424 39.957365845965114 64 46 C73.20059554095542 52.621365954353905 82.38235823556033 59.26467975072228 91.5 66 C97.83188589191627 70.67697596622725 104.18208895583234 75.3269014014868 110.5625 79.9375 C111.30870605468749 80.47737548828127 112.05491210937498 81.01725097656254 112.82373046875 81.573486328125 C117.64002137812986 85.04794928017145 122.49975189984548 88.44175420949318 127.4453125 91.73046875 C127.95835937499987 92.1494140625 128.47140624999997 92.568359375 129 93 C129 93.66000000000008 129 94.31999999999994 129 95 C127.2613166985036 96.34241095892912 125.4537296947492 97.59560456114832 123.625 98.8125 C122.42068304512395 99.62584201928848 121.21762614229169 100.44105193406176 120.015625 101.2578125 C119.36529296875005 101.69899414062502 118.71496093750011 102.14017578125004 118.044921875 102.5947265625 C114.44653314694028 105.06754479539313 110.91124738327653 107.62694208129983 107.375 110.1875 C106.61719238281239 110.73575439453134 105.85938476562501 111.28400878906245 105.07861328125 111.848876953125 C98.72931748350675 116.45261400020331 92.41732671881664 121.106306393963 86.109130859375 125.76611328125 C78.52422839804854 131.3638100951639 70.88453853207102 136.8837826150184 63.23388671875 142.39111328125 C59.48640230849537 145.0901211789087 55.743387994517434 147.79531493914465 52 150.5 C47.5138962073986 153.74131453300242 43.026951694311265 156.98141953981394 38.53515625 160.21484375 C30.825370272315695 165.76804623742282 23.142423688973167 171.35437204931736 15.5 177 C5.645921791516912 184.27942621688112 -4.285743335328561 191.448303241325 -14.2294921875 198.6044921875 C-23.48557917942162 205.26806466089647 -32.703804479935116 211.9784248201513 -41.876708984375 218.756103515625 C-49.54902943215461 224.41898791155313 -57.28068451897252 229.9980149025139 -65.0185546875 235.57080078125 C-69.35615225840093 238.69947207006885 -73.67842466847492 241.8492479411127 -78 245 C-79.19884779162089 241.40345662513755 -78.71126475344477 240.38651321987209 -77.531494140625 236.853271484375 C-77.35674308776856 236.32242195129402 -77.35674308776856 236.32242195129402 -76.47239685058594 233.63600158691406 C-76.08060745239254 232.4760820007325 -75.68881805419915 231.31616241455072 -75.28515625 230.12109375 C-74.66941780596744 228.26124471758976 -74.05368327465135 226.40139438466645 -73.43810749053955 224.5414915084839 C-72.77707895170101 222.54979903643493 -72.11172809718369 220.55959787207144 -71.44512939453125 218.56976318359375 C-70.04720090357114 214.39604478119486 -68.66152764049411 210.21832930490018 -67.27880859375 206.03955078125 C-67.04733501434316 205.3400367355348 -66.81586143493655 204.64052268981936 -66.57737350463867 203.9198112487793 C-66.10846191008045 202.50260831394576 -65.63960133880869 201.0853884959654 -65.17079162597656 199.66815185546875 C-64.46186126093562 197.52614476872213 -63.751834737840454 195.3845034423539 -63.0416259765625 193.242919921875 C-58.97833387180549 180.98234246136803 -55.033708990734794 168.685694377162 -51.125 156.375 C-44.07845028407951 134.21914274278242 -36.83765179862371 112.1286048486636 -29.560842514038086 90.04755401611328 C-28.66894413406294 87.34110271466739 -27.777379163891965 84.63454169973738 -26.885982513427734 81.92792510986328 C-26.44771072229264 80.59723578029411 -26.00932893223353 79.26658267440871 -25.57083511352539 77.93596649169922 C-23.10683046889949 70.45655099757255 -20.661823427268246 62.971484015640726 -18.2529296875 55.47412109375 C-18.140347890853946 55.12390632152551 -18.140347890853946 55.12390632152551 -17.570615768432617 53.35160732269287 C-16.499221645459784 50.016971902613705 -15.43055283162903 46.68150031859864 -14.366363525390625 43.34455871582031 C-12.321640044781816 36.9644188190714 -10.19556921157573 30.63601978028737 -7.85186767578125 24.359054565429688 C-6.517674726077303 20.664309408821964 -5.4389292362839115 16.904748602587915 -4.375 13.125 C-3.109658501403146 8.656262302423556 -1.7653554737171362 4.3005582318699 0 0 Z " fill="#C0272D" transform="translate(1739,1393)"/>
<path d="M0 0 C0.6600000000000819 0 1.3199999999999363 0 2 0 C4.836852332816989 8.623844865133265 7.669888126020169 17.248940947129768 10.5 25.875 C10.715359039306577 26.5313896179199 10.930718078613381 27.1877792358398 11.152603149414063 27.864059448242188 C17.091929319442215 45.9695562498913 22.97274944344258 64.09200763555816 28.75 82.25 C35.44812922653705 103.29885379550501 42.33202805591486 124.2842288237589 49.24577713012695 145.26294708251953 C56.6457146306866 167.7178643618463 63.962666528906766 190.1956991226623 71.12890625 212.7265625 C71.43067779541025 213.67505065917976 71.73244934082027 214.6235388183593 72.04336547851563 215.60076904296875 C72.61304841188371 217.39253010399443 73.18191703893831 219.18455033903297 73.74984741210938 220.97686767578125 C75.53464083482004 226.59515406157152 77.3959554565115 232.1788557932316 79.364501953125 237.73583984375 C80 240 80 240 80 244 C27.8599999999999 244 -24.279999999999973 244 -78 244 C-77.35591607216998 239.49141250518915 -76.86704536851425 236.1015708122236 -75.488037109375 231.949951171875 C-75.17871246337882 231.00863342285152 -74.86938781738286 230.06731567382803 -74.55068969726563 229.09747314453125 C-74.21298553466795 228.08948669433585 -73.87528137207028 227.08150024414067 -73.52734375 226.04296875 C-73.17320404052725 224.96948181152356 -72.81906433105473 223.8959948730469 -72.45419311523438 222.78997802734375 C-71.68847231728932 220.47048046845202 -70.9201700524161 218.15183385062642 -70.14956665039063 215.83395385742188 C-68.28200982137946 210.2154841132808 -66.43017923791899 204.5918365574696 -64.57819938659668 198.96821784973145 C-63.94234518694202 197.03786671455828 -63.305836202832324 195.1077322138542 -62.66932678222656 193.17759704589844 C-59.12907967712431 182.43403064617155 -55.67492494890848 171.66424125451283 -52.248931884765625 160.8837890625 C-45.38082038027687 139.2746980705051 -38.339930974638264 117.72455823173641 -31.25 96.1875 C-30.99994705200197 95.42788467407229 -30.749894104003943 94.66826934814458 -30.492263793945313 93.88563537597656 C-29.495543902728286 90.85786667320644 -28.49875182142432 87.83012173957377 -27.501951217651367 84.8023796081543 C-27.01576386923125 83.3256042182494 -26.52958255073645 81.84882684314425 -26.043407440185547 80.3720474243164 C-25.56554676411838 78.92053779502123 -25.087664524479123 77.46903526462154 -24.609760284423828 76.01753997802734 C-16.28088789508206 50.718882337723926 -8.083290867369215 25.37819551941118 0 0 Z " fill="#BF272D" transform="translate(1919,838)"/>
<path d="M0 0 C2.218183211205087 2.218183211205087 2.667442112585377 3.5343318434108824 3.62548828125 6.482421875 C3.9347373962400525 7.42411727905278 4.24398651123056 8.36581268310556 4.5626068115234375 9.336044311523438 C4.895149688720721 10.369837188720794 5.227692565918005 11.403630065917923 5.5703125 12.46875 C5.746674880981573 13.009030838012677 5.746674880981573 13.009030838012677 6.6391754150390625 15.743179321289063 C7.8071116244445875 19.326866668033972 8.96610999684799 22.913378041551823 10.125 26.5 C10.737808911539105 28.38522076859158 11.350622290534375 30.270440163826606 11.964068412780762 32.1554536819458 C17.58643649886153 49.43301189945623 23.125905481429072 66.73701510318097 28.63873291015625 84.0498046875 C35.04638685865575 104.1635383919338 41.63872326427918 124.21491459236518 48.24602127075195 144.26367950439453 C55.61693641520651 166.63036237986626 62.906856756470006 189.01928255119105 70.041015625 211.462890625 C70.34042053222674 212.4041177368165 70.63982543945303 213.34534484863275 70.94830322265625 214.31509399414063 C71.51733814879435 216.10538134715034 72.08522206968928 217.89603506787762 72.65179443359375 219.68710327148438 C73.91296588772093 223.65976936622087 75.20068228270566 227.618119364525 76.5693359375 231.55517578125 C76.81062225341793 232.25377212524427 77.05190856933586 232.9523684692383 77.30050659179688 233.67213439941406 C77.94071902328642 235.51222610604304 78.5926556700083 237.34822736369892 79.24560546875 239.183837890625 C80 242 80 242 79 245 C78.51869628906252 244.64397705078136 78.03739257812504 244.2879541015625 77.54150390625 243.921142578125 C68.72571009754029 237.40362558996458 59.89832639361657 230.9045342295933 51 224.5 C44.803441646623924 220.03980999416444 38.6402396243725 215.5374035441855 32.5 211 C24.120623254143084 204.8097450491623 15.688924291778676 198.69525541599046 7.23388671875 192.60888671875 C2.7347683147941098 189.3685380540428 -1.7582411880157451 186.11972298294904 -6.25244140625 182.87255859375 C-9.987944997065824 180.17401978199382 -13.724814800806598 177.47742046840608 -17.46484375 174.78515625 C-25.979206806675393 168.65243320917807 -34.45216202161873 162.467672105279 -42.89208984375 156.23291015625 C-51.21502749172896 150.09080366270587 -59.60432215244805 144.04209316843094 -68 138 C-77.20059833335449 131.37863203604843 -86.38222027902088 124.73513661964625 -95.5 118 C-101.93981058194117 113.24514347281115 -108.39349046014922 108.51040003502703 -114.875 103.8125 C-115.61814453124998 103.27173828125001 -116.36128906249996 102.73097656250002 -117.126953125 102.173828125 C-120.04100925944613 100.06698975632844 -122.89101569513537 98.06298443592823 -126.0078125 96.26171875 C-126.33652343750009 96.05353515625006 -126.33652343750009 96.05353515625006 -128 95 C-128 94.33999999999992 -128 93.68000000000006 -128 93 C-126.07463743499306 91.47394896374863 -124.14827146503285 90.07420907760934 -122.125 88.6875 C-120.83024578115328 87.781940744459 -119.53599912230698 86.87565547385088 -118.2421875 85.96875 C-117.55092773437491 85.48664062500006 -116.85966796875005 85.0045312499999 -116.1474609375 84.5078125 C-112.48803283550819 81.938391404286 -108.8707063405518 79.31106310465339 -105.25 76.6875 C-103.7123508829377 75.57536693288762 -102.17458931845954 74.4633893214218 -100.63671875 73.3515625 C-100.2528198242187 73.07393066406257 -100.2528198242187 73.07393066406257 -98.31005859375 71.6689453125 C-96.04819170771111 70.03481700633188 -93.78423692105525 68.4036287015524 -91.51953125 66.7734375 C-83.81469129840411 61.22450026611841 -76.13718939536056 55.64176126185134 -68.5 50 C-58.64592179151691 42.72057378311888 -48.714256664671666 35.55169675867501 -38.7705078125 28.3955078125 C-25.76997810599414 19.036264325759475 -12.807480756914174 9.622532830159798 0 0 Z " fill="#C0272D" transform="translate(2100,1393)"/>
<path d="M0 0 C84.80999999999995 0 169.6199999999999 0 257 0 C253.75387098816236 3.2461290118376382 250.60100227623207 5.842634020089008 246.875 8.4375 C245.6155215717481 9.32630755669561 244.35642559497683 10.215657241748204 243.09765625 11.10546875 C242.4313720703126 11.575170898437591 241.76508789062518 12.044873046874955 241.07861328125 12.52880859375 C237.47381281531852 15.080197788923215 233.89268136889677 17.664226695070738 230.3125 20.25 C229.55823730468728 20.794548339843686 228.80397460937502 21.3390966796876 228.02685546875 21.900146484375 C221.69149731084644 26.482646654788823 215.39789340830566 31.120557605769818 209.10888671875 35.766357421875 C201.52397852127388 41.36385515344796 193.88444692101757 46.88384856134235 186.23388671875 52.39111328125 C182.4864023084956 55.0901211789087 178.74338799451743 57.79531493914442 175 60.5 C170.51389620739837 63.74131453300265 166.02695169431126 66.98141953981394 161.53515625 70.21484375 C153.82537027231592 75.76804623742305 146.1424236889734 81.35437204931736 138.5 87 C128.64592179151714 94.27942621688112 118.71425666467167 101.448303241325 108.7705078125 108.6044921875 C99.51871797687681 115.26497108448052 90.30336922108108 121.9703838947139 81.136474609375 128.747314453125 C74.75171770774932 133.46183636405794 68.3249887205393 138.11616159309142 61.873046875 142.73828125 C61.1750195312502 143.23972656249998 60.476992187499945 143.74117187499996 59.7578125 144.2578125 C59.105869140625146 144.726064453125 58.453925781249836 145.19431640624998 57.7822265625 145.6767578125 C56.20336820871671 146.84900606969245 54.68590751870488 148.1029640493971 53.1796875 149.3671875 C51 151 51 151 48 151 C47.8217568969726 150.43799392700203 47.6435137939452 149.87598785400382 47.459869384765625 149.2969512939453 C32.22317190671083 101.27529440628518 32.22317190671083 101.27529440628518 25.1005859375 80.985107421875 C22.807577393119118 74.42992241935553 20.704442345725056 67.86519062777711 18.829345703125 61.179443359375 C16.840259323173086 54.19187113573116 14.371437398216585 47.37745073791393 11.94970703125 40.530517578125 C9.650468875113347 33.98724623639737 7.56018647132305 27.419689214597838 5.663330078125 20.74951171875 C4.181273490012245 15.541525210155669 2.4984898624293237 10.426544352664678 0.69921875 5.3203125 C0 3 0 3 0 0 Z " fill="#C0272D" transform="translate(2084,1143)"/>
<path d="M0 0 C84.80999999999995 0 169.6199999999999 0 257 0 C254.750172826376 10.124222281307993 254.750172826376 10.124222281307993 253.09228515625 15.1396484375 C252.7249526977539 16.258212280273483 252.3576202392578 17.376776123046966 251.97915649414063 18.52923583984375 C251.58642547607428 19.71068176269523 251.19369445800794 20.89212768554694 250.7890625 22.109375 C250.1632341042564 24.01067531842 249.53740682948523 25.911976006590066 248.91164207458496 27.813297271728516 C248.0397839922316 30.458682614928875 247.1639450618659 33.10274312541242 246.28814697265625 35.746826171875 C244.76226607675767 40.356067865698606 243.24244633469038 44.96731087505759 241.72299194335938 49.57867431640625 C240.91659244862217 52.02466525255227 240.10861277581262 54.47013604068093 239.29873657226563 56.91497802734375 C237.07668064105292 63.64217584696257 234.9408578369205 70.38959574795649 232.87167358398438 77.16534423828125 C231.88745911831643 80.36597949571342 230.85139921420205 83.54585145262877 229.78125 86.71875 C229.4061328124999 87.83636718749995 229.031015625 88.95398437499989 228.64453125 90.10546875 C227.88151041666674 92.36848958333326 227.11848958333326 94.63151041666674 226.35546875 96.89453125 C224.16463357366115 103.42186491971052 222.06966493639266 109.96818927121149 220.0625 116.55419921875 C218.02514989980705 123.1615428111495 215.87982602830925 129.73450768930047 213.75 136.3125 C213.2863750695003 137.74671787848933 212.82283296232208 139.18096253315161 212.359375 140.615234375 C211.2405339436648 144.07713082194914 210.12058658782098 147.53866811401895 209 151 C205.75489031278426 149.79541304561644 203.03216260669547 148.498761114864 200.2421875 146.453125 C199.54416015624997 145.94523437499993 198.84613281249995 145.43734375000008 198.126953125 144.9140625 C197.38380859375002 144.36492187499994 196.64066406250004 143.81578124999987 195.875 143.25 C195.08802734375013 142.67507812500003 194.30105468750003 142.10015625000005 193.490234375 141.5078125 C190.9889860209953 139.67792059255726 188.49381703689642 137.84000368830607 186 136 C184.40885618610469 134.82812225805674 182.8177103844166 133.6562472150797 181.2265625 132.484375 C178.8539400169484 130.73585592038353 176.4818674278597 128.98660765469003 174.111083984375 127.235595703125 C165.78760744396186 121.09189498776959 157.39679475428466 115.04289696946535 149 109 C139.71478922812662 102.317739247399 130.45050300545972 95.61110992855902 121.25 88.8125 C114.73131921497611 83.99605784028154 108.17551719978246 79.23977065160238 101.5703125 74.54296875 C90.33484157330327 66.55154224580019 79.19855572228676 58.425776051740286 68.10888671875 50.233642578125 C59.78564119640714 44.09126791548351 51.39600805211103 38.042330805790016 43 32 C40.01996611045911 29.855367638845564 37.04064538736543 27.709754197459006 34.0625 25.5625 C33.69684936523436 25.298886718750055 33.69684936523436 25.298886718750055 31.846435546875 23.96484375 C25.317377466411244 19.248104294910263 18.833976260883446 14.470246793997603 12.367431640625 9.668212890625 C9.107494563251748 7.254188775268858 5.853938955700869 4.872674101296752 2.453125 2.66015625 C1.6435937500000364 2.1123046875 0.8340625000000728 1.564453125 0 1 C0 0.6700000000000728 0 0.33999999999991815 0 0 Z " fill="#C0272D" transform="translate(1499,1143)"/>
</svg>
