<?xml version="1.0" encoding="UTF-8"?>
<!-- Generator: visioncortex VTracer 0.6.12 -->
<svg version="1.1" xmlns="http://www.w3.org/2000/svg" width="960" height="640">
<path d="M0 0 C316.8 0 633.6 0 960 0 C960 211.20000000000002 960 422.40000000000003 960 640 C643.2 640 326.4 640 0 640 C0 428.79999999999995 0 217.59999999999997 0 0 Z " fill="#FEFEFE" transform="translate(0,0)"/>
<path d="M0 0 C316.8 0 633.6 0 960 0 C960 70.29000000000002 960 140.58000000000004 960 213 C643.2 213 326.4 213 0 213 C0 142.71000000000004 0 72.41999999999996 0 0 Z " fill="#21468B" transform="translate(0,427)"/>
<path d="M0 0 C316.8 0 633.6 0 960 0 C960 70.29 960 140.58 960 213 C643.2 213 326.4 213 0 213 C0 142.70999999999998 0 72.41999999999999 0 0 Z " fill="#AE1C28" transform="translate(0,0)"/>
</svg>
