<?xml version="1.0" encoding="UTF-8"?>
<!-- Generator: visioncortex VTracer 0.6.12 -->
<svg version="1.1" xmlns="http://www.w3.org/2000/svg" width="1280" height="931">
<path d="M0 0 C422.40000000000003 0 844.8000000000001 0 1280 0 C1280 307.23 1280 614.46 1280 931 C857.5999999999999 931 435.19999999999993 931 0 931 C0 623.77 0 316.53999999999996 0 0 Z " fill="#01215B" transform="translate(0,0)"/>
<path d="M0 0 C249.48000000000002 0 498.96000000000004 0 756 0 C756 134.30999999999995 756 268.62 756 407 C506.52 407 257.03999999999996 407 0 407 C0 272.69000000000005 0 138.38 0 0 Z " fill="#BA0C2F" transform="translate(524,524)"/>
<path d="M0 0 C249.48000000000002 0 498.96000000000004 0 756 0 C756 134.31 756 268.62 756 407 C506.52 407 257.03999999999996 407 0 407 C0 272.69 0 138.38 0 0 Z " fill="#BA0C2F" transform="translate(524,0)"/>
<path d="M0 0 C134.31 0 268.62 0 407 0 C407 134.30999999999995 407 268.62 407 407 C272.69 407 138.38 407 0 407 C0 272.69000000000005 0 138.38 0 0 Z " fill="#BA0C2F" transform="translate(0,524)"/>
<path d="M0 0 C134.31 0 268.62 0 407 0 C407 134.31 407 268.62 407 407 C272.69 407 138.38 407 0 407 C0 272.69 0 138.38 0 0 Z " fill="#BA0C2F" transform="translate(0,0)"/>
<path d="M0 0 C249.48000000000002 0 498.96000000000004 0 756 0 C756 19.139999999999986 756 38.27999999999997 756 58 C525.6599999999999 58 295.31999999999994 58 58 58 C58 173.17000000000007 58 288.34000000000003 58 407 C38.860000000000014 407 19.720000000000027 407 0 407 C0 272.69000000000005 0 138.38 0 0 Z " fill="#FEFEFE" transform="translate(524,524)"/>
<path d="M0 0 C19.139999999999986 0 38.27999999999997 0 58 0 C58 115.17 58 230.34 58 349 C288.34000000000003 349 518.6800000000001 349 756 349 C756 368.14 756 387.28 756 407 C506.52 407 257.03999999999996 407 0 407 C0 272.69 0 138.38 0 0 Z " fill="#FEFEFE" transform="translate(524,0)"/>
<path d="M0 0 C134.31 0 268.62 0 407 0 C407 134.30999999999995 407 268.62 407 407 C387.86 407 368.72 407 349 407 C349 291.8299999999999 349 176.65999999999997 349 58 C233.82999999999998 58 118.66 58 0 58 C0 38.860000000000014 0 19.720000000000027 0 0 Z " fill="#FEFEFE" transform="translate(0,524)"/>
<path d="M0 0 C19.139999999999986 0 38.27999999999997 0 58 0 C58 134.31 58 268.62 58 407 C-76.31 407 -210.62 407 -349 407 C-349 387.86 -349 368.72 -349 349 C-233.82999999999998 349 -118.66 349 0 349 C0 233.82999999999998 0 118.66 0 0 Z " fill="#FEFEFE" transform="translate(349,0)"/>
</svg>
