<?xml version="1.0" encoding="UTF-8"?>
<!-- Generator: visioncortex VTracer 0.6.12 -->
<svg version="1.1" xmlns="http://www.w3.org/2000/svg" width="960" height="640">
<path d="M0 0 C316.8 0 633.6 0 960 0 C960 211.20000000000002 960 422.40000000000003 960 640 C643.2 640 326.4 640 0 640 C0 428.79999999999995 0 217.59999999999997 0 0 Z " fill="#DA121A" transform="translate(0,0)"/>
<path d="M0 0 C158.39999999999998 0 316.79999999999995 0 480 0 C480 105.60000000000002 480 211.20000000000005 480 320 C321.6 320 163.20000000000005 320 0 320 C0 214.39999999999998 0 108.79999999999995 0 0 Z " fill="#FEFEFE" transform="translate(480,320)"/>
<path d="M0 0 C158.4 0 316.8 0 480 0 C480 105.60000000000002 480 211.20000000000005 480 320 C321.6 320 163.2 320 0 320 C0 214.39999999999998 0 108.79999999999995 0 0 Z " fill="#072357" transform="translate(0,320)"/>
<path d="M0 0 C158.4 0 316.8 0 480 0 C480 105.60000000000001 480 211.20000000000002 480 320 C321.6 320 163.2 320 0 320 C0 214.39999999999998 0 108.79999999999998 0 0 Z " fill="#FEFEFE" transform="translate(0,0)"/>
<path d="M0 0 C0.6599999999999682 0 1.3199999999999363 0 2 0 C2.752074836607221 2.2284840445370264 3.501649294103686 4.457765002022427 4.25 6.6875 C4.667656249999936 7.928867187499975 5.085312499999986 9.170234375000007 5.515625 10.44921875 C6.673697477061751 13.95186742111298 7.765289963178361 17.472058922099507 8.84375 21 C11.23088498003358 28.797710787427604 13.738203637375022 36.5541827346193 16.25 44.3125 C17.817499999999995 49.15937500000001 19.38499999999999 54.00625000000002 21 59 C41.789999999999964 59.329999999999984 62.58000000000004 59.65999999999997 84 60 C78.37414965986409 65.62585034013597 78.37414965986409 65.62585034013597 74.98828125 68.09375 C74.6136474609375 68.36836059570311 74.6136474609375 68.36836059570311 72.7177734375 69.758056640625 C71.92403320312496 70.33289794921876 71.13029296875004 70.90773925781252 70.3125 71.5 C69.48395507812506 72.10513427734372 68.65541015625001 72.7102685546875 67.8017578125 73.333740234375 C65.20495184466972 75.22775670371732 62.60320286879369 77.11478750461163 60 79 C59.16452636718748 79.6060205078125 58.329052734374955 80.212041015625 57.46826171875 80.83642578125 C49.9987892344343 86.25227280671373 42.51105723139892 91.64198142524555 35 97 C35.56841049357138 103.85143095828965 37.41520747405934 109.87157576894629 39.6328125 116.359375 C40.36341119121471 118.54813371377509 41.09387601364597 120.73693711617364 41.82421875 122.92578125 C42.977646068642 126.35253047498645 44.134511103938394 129.77808059121026 45.29443359375 133.20263671875 C46.41602707175957 136.52283796168672 47.52499162191975 139.84705786896518 48.6328125 143.171875 C48.984817199707095 144.1979486083984 49.336821899414076 145.2240222167968 49.699493408203125 146.28118896484375 C50.01667327880864 147.23608215332035 50.33385314941404 148.19097534179684 50.66064453125 149.1748046875 C50.94408721923833 150.0122723388672 51.22752990722654 150.8497399902344 51.519561767578125 151.71258544921875 C52.04111750949505 154.1957645815089 51.81651630136275 155.62417534187068 51 158 C41.650950187682724 151.27841674437047 32.32848242690147 144.52324383878351 23.0625 137.6875 C22.26593994140626 137.1026684570313 21.469379882812518 136.5178369140625 20.648681640625 135.915283203125 C17.247206104465022 133.41518981217587 13.859026060983751 130.90734958411258 10.53515625 128.3046875 C9.574804687499977 127.56476562500006 8.614453124999955 126.82484375000001 7.625 126.0625 C7.229257812500009 125.74861328124996 7.229257812500009 125.74861328124996 5.2265625 124.16015625 C3 123 3 123 0.72265625 122.94921875 C-3.405444785889131 124.54241699771046 -6.666553526004236 127.10387476541473 -10.1875 129.75 C-11.796693810662646 130.9364437061464 -13.40607425821986 132.12263430812845 -15.015625 133.30859375 C-15.838691406250064 133.9194482421875 -16.661757812500014 134.53030273437503 -17.509765625 135.15966796875 C-21.460296136108695 138.07918747784197 -25.45004073420091 140.94374811237242 -29.4375 143.8125 C-35.96921805738384 148.5267578143255 -42.490980674725165 153.25443745227756 -49 158 C-50.24662091459436 154.45665844962764 -49.74188592145288 152.36827032964004 -48.552978515625 148.851806640625 C-48.21255020141598 147.82716812133788 -47.87212188720707 146.80252960205075 -47.52137756347656 145.74684143066406 C-47.14436203002924 144.64573532104487 -46.767346496582036 143.5446292114258 -46.37890625 142.41015625 C-46.00015853881837 141.27348007202147 -45.62141082763674 140.13680389404294 -45.23118591308594 138.96568298339844 C-44.01814451990538 135.32790068106533 -42.79154819891619 131.69490285239374 -41.5625 128.0625 C-40.338050223872074 124.43335290014431 -39.11674208254112 120.80328135782588 -37.90452575683594 117.17002868652344 C-37.14961350863632 114.90823522571748 -36.38752857122506 112.64882049750736 -35.61756896972656 110.39210510253906 C-35.27398849487304 109.36431442260744 -34.93040802001951 108.33652374267581 -34.576416015625 107.277587890625 C-34.27139663696289 106.37698135375979 -33.96637725830078 105.47637481689452 -33.65211486816406 104.54847717285156 C-32.97319543146432 101.89524724189505 -32.772511937975196 99.72610523173131 -33 97 C-34.45849609375 95.353515625 -34.45849609375 95.353515625 -36.5234375 93.90625 C-37.28841552734377 93.35735107421874 -38.053393554687545 92.80845214843748 -38.841552734375 92.242919921875 C-39.677590332031286 91.66775634765622 -40.51362792968746 91.0925927734375 -41.375 90.5 C-41.80236450195309 90.19598266601565 -41.80236450195309 90.19598266601565 -43.965087890625 88.657470703125 C-45.75057471039145 87.38831273113738 -47.540794876069754 86.12579009483943 -49.33544921875 84.86962890625 C-53.399979057057294 82.01768007889456 -57.416676818771975 79.10056302798398 -61.4375 76.1875 C-62.91273350064546 75.12366059103778 -64.38799321940564 74.05985753781795 -65.86328125 72.99609375 C-69.63408579005261 70.26996890184057 -73.39110641897321 67.52648497050711 -77.125 64.75 C-77.60066406249996 64.396796875 -77.60066406249996 64.396796875 -80.0078125 62.609375 C-80.66523437499995 62.07828125000003 -81.32265625000002 61.54718750000001 -82 61 C-82 60.670000000000016 -82 60.34000000000003 -82 60 C-61.210000000000036 59.670000000000016 -40.41999999999996 59.34000000000003 -19 59 C-5.822323462414033 18.430523917993867 -5.822323462414033 18.430523917993867 0 0 Z " fill="#DA141C" transform="translate(719,401)"/>
<path d="M0 0 C0.6599999999999966 0 1.3199999999999932 0 2 0 C2.752074836607221 2.2284840445370264 3.501649294103686 4.457765002022441 4.25 6.6875 C4.667656249999993 7.928867187500003 5.085312499999986 9.170234375000007 5.515625 10.44921875 C6.690758784505306 13.998253168530198 7.787860765730358 17.56761509808487 8.875 21.14453125 C10.296212505247297 25.7903633301851 11.791679368958967 30.401532794907567 13.359375 35 C13.752539062500006 36.153710937499994 14.145703125000011 37.307421875 14.55078125 38.49609375 C15.361474088744956 40.8647956273753 16.17670135559692 43.2319496818331 16.99609375 45.59765625 C17.384101562500007 46.7410546875 17.772109375000014 47.88445312499999 18.171875 49.0625 C18.523466796875027 50.08472656250001 18.875058593749998 51.10695312499999 19.2373046875 52.16015625 C20 55 20 55 20 60 C41.120000000000005 60 62.24000000000001 60 84 60 C78.37414965986409 65.62585034013597 78.37414965986409 65.62585034013597 74.98828125 68.09375 C74.6136474609375 68.36836059570311 74.6136474609375 68.36836059570311 72.7177734375 69.758056640625 C71.92403320312496 70.33289794921876 71.13029296875004 70.9077392578125 70.3125 71.5 C69.483955078125 72.10513427734375 68.65541015625001 72.7102685546875 67.8017578125 73.333740234375 C65.20495184466978 75.22775670371729 62.603202868793744 77.11478750461163 60 79 C59.16452636718748 79.6060205078125 58.32905273437501 80.212041015625 57.46826171875 80.83642578125 C52.96934613697374 84.09842836878718 48.46874989954347 87.35810982805873 43.951171875 90.59423828125 C42.62834147768223 91.54729851995816 41.31208976803458 92.50954445578864 40.001953125 93.47998046875 C35.213046244296265 97 35.213046244296265 97 33 97 C33.36238769531252 98.05163330078125 33.724775390624984 99.1032666015625 34.09814453125 100.186767578125 C35.476067631454896 104.18756018559046 36.85076113609756 108.18945686896396 38.224609375 112.191650390625 C38.81328306340873 113.90515691043726 39.40276753146759 115.61838515808535 39.9931640625 117.331298828125 C42.01993294168483 123.21273309272186 44.02093618692237 129.10234513136578 46 135 C46.2982165527344 135.88379333496093 46.59643310546875 136.76758666992188 46.9036865234375 137.67816162109375 C47.77846034201997 140.2855760825175 48.63762564620424 142.89761930283288 49.4921875 145.51171875 C49.760161437988245 146.30624954223632 50.0281353759766 147.10078033447266 50.304229736328125 147.9193878173828 C51.526296910399765 151.7134008754138 52.213511252428816 154.19131004723482 51 158 C41.65095018768278 151.2784167443705 32.32848242690142 144.5232438387835 23.0625 137.6875 C22.26593994140626 137.10266845703126 21.469379882812518 136.5178369140625 20.648681640625 135.915283203125 C17.247206104465022 133.4151898121759 13.85902606098378 130.90734958411255 10.53515625 128.3046875 C9.574804687500006 127.564765625 8.614453125000011 126.82484375000001 7.625 126.0625 C7.229257812500009 125.74861328125002 7.229257812500009 125.74861328125002 5.2265625 124.16015625 C3 123 3 123 0.72265625 122.94921875 C-3.405444785889131 124.54241699771046 -6.666553526004293 127.10387476541476 -10.1875 129.75 C-11.796693810662646 130.93644370614638 -13.406074258219803 132.12263430812848 -15.015625 133.30859375 C-15.838691406250007 133.9194482421875 -16.661757812500014 134.530302734375 -17.509765625 135.15966796875 C-21.460296136108724 138.0791874778419 -25.45004073420091 140.94374811237242 -29.4375 143.8125 C-35.96921805738384 148.5267578143255 -42.49098067472514 153.25443745227759 -49 158 C-50.24662091459436 154.4566584496276 -49.74188592145285 152.36827032964 -48.552978515625 148.851806640625 C-48.21255020141601 147.82716812133788 -47.872121887207015 146.80252960205078 -47.52137756347656 145.74684143066406 C-47.1443620300293 144.64573532104492 -46.767346496582036 143.5446292114258 -46.37890625 142.41015625 C-46.00015853881837 141.27348007202147 -45.62141082763671 140.13680389404297 -45.23118591308594 138.96568298339844 C-44.018144519905434 135.3279006810653 -42.79154819891622 131.69490285239374 -41.5625 128.0625 C-40.338050223872074 124.43335290014431 -39.116742082541066 120.80328135782585 -37.90452575683594 117.17002868652344 C-37.14961350863632 114.90823522571748 -36.38752857122506 112.6488204975073 -35.61756896972656 110.39210510253906 C-35.27398849487304 109.36431442260744 -34.93040802001954 108.33652374267578 -34.576416015625 107.277587890625 C-34.27139663696289 106.37698135375976 -33.96637725830078 105.47637481689452 -33.65211486816406 104.54847717285156 C-32.97319543146426 101.89524724189505 -32.77251193797517 99.72610523173131 -33 97 C-34.45849609374997 95.35351562500003 -34.45849609374997 95.35351562500003 -36.5234375 93.90625 C-37.288415527343744 93.35735107421874 -38.05339355468749 92.80845214843748 -38.841552734375 92.242919921875 C-39.67759033203126 91.66775634765625 -40.513627929687516 91.0925927734375 -41.375 90.5 C-41.80236450195312 90.19598266601562 -41.80236450195312 90.19598266601562 -43.965087890625 88.657470703125 C-45.75057471039139 87.38831273113738 -47.54079487606981 86.12579009483943 -49.33544921875 84.86962890625 C-53.399979057057294 82.01768007889456 -57.416676818771975 79.10056302798398 -61.4375 76.1875 C-62.91273350064549 75.12366059103778 -64.38799321940562 74.05985753781795 -65.86328125 72.99609375 C-69.63408579005264 70.26996890184057 -73.39110641897318 67.52648497050711 -77.125 64.75 C-77.60066406249999 64.396796875 -77.60066406249999 64.396796875 -80.0078125 62.609375 C-80.66523437500001 62.07828125 -81.32265625 61.54718750000001 -82 61 C-82 60.670000000000016 -82 60.34 -82 60 C-60.879999999999995 60 -39.75999999999999 60 -18 60 C-17.670000000000016 57.360000000000014 -17.340000000000003 54.72 -17 52 C-16.29459752882906 49.583716090916596 -15.515991438226507 47.18779571913939 -14.671875 44.81640625 C-14.442351379394552 44.16261993408203 -14.212827758789047 43.50883361816406 -13.976348876953125 42.835235595703125 C-13.490111336762169 41.45160663936336 -13.000518594477143 40.069152670112246 -12.50775146484375 38.687835693359375 C-11.235098261731537 35.11830742012765 -9.988311909293714 31.539797578634747 -8.7421875 27.9609375 C-8.499491271972659 27.265120697021487 -8.256795043945317 26.569303894042974 -8.006744384765625 25.852401733398438 C-5.390018492365527 18.31087705878987 -3.143183800022058 10.688411787457781 -1 3 C-0.6700000000000159 2.010000000000005 -0.3400000000000034 1.019999999999996 0 0 Z " fill="#092558" transform="translate(239,81)"/>
</svg>
