<?xml version="1.0" encoding="UTF-8"?>
<!-- Generator: visioncortex VTracer 0.6.12 -->
<svg version="1.1" xmlns="http://www.w3.org/2000/svg" width="275" height="183">
<path d="M0 0 C90.75 0 181.5 0 275 0 C275 60.39 275 120.78 275 183 C184.25 183 93.5 183 0 183 C0 122.61 0 62.22 0 0 Z " fill="#EC1B23" transform="translate(0,0)"/>
<path d="M0 0 C36.300000000000004 0 72.60000000000001 0 110 0 C110 15.180000000000001 110 30.360000000000003 110 46 C108.02000000000001 46.33 108.02000000000001 46.33 98 48 C88.08443112351777 50.79929325424498 81.28233293976533 56.33054573367977 74.34765625 63.7734375 C73 65 73 65 71 65 C70.938125 65.35578125 70.938125 65.35578125 70.625 67.15625 C69.77536460359394 71.02209105364757 68.34757302832988 74.59017648466592 66.9375 78.28125 C63.08502541341518 89.45342630109599 64.61458697142669 100.9784026074035 69.6875 111.5 C70.120625 112.325 70.55375 113.15 71 114 C71 114.99 71 115.98 71 117 C71.66 117 72.32 117 73 117 C74.44531249999994 118.53906249999993 74.44531249999994 118.53906249999993 76.125 120.625 C85.66406749168874 131.75719010370273 95.45327245171195 134.57554540861867 110 137 C110 152.18 110 167.36 110 183 C73.69999999999999 183 37.39999999999999 183 0 183 C0 122.61 0 62.22 0 0 Z " fill="#005F34" transform="translate(0,0)"/>
<path d="M0 0 C10.12921859060549 9.840392228203825 13.612389145652116 20.66161917985538 14.345703125 34.652099609375 C14.303081182377156 39.31339024349177 13.060499796511237 43.441118909580496 11.646484375 47.851318359375 C11.408007812499989 48.62604492187501 11.169531250000006 49.400771484375 10.923828125 50.198974609375 C10.341352406961505 52.086195935819674 9.745331348029026 53.969227872712366 9.146484375 55.851318359375 C8.486484375000003 55.851318359375 7.826484375000007 55.851318359375 7.146484375 55.851318359375 C6.9814843749999795 56.696943359375 6.816484375000016 57.542568359375 6.646484375 58.413818359375 C4.53219733058927 63.25905950281627 1.2829593489693991 65.68097508347803 -2.853515625 68.851318359375 C-3.5367187500000057 69.391435546875 -4.219921875000011 69.931552734375 -4.923828125 70.488037109375 C-13.834779040971796 77.01506204229162 -25.960749029208287 80.85551191614621 -36.978515625 79.226318359375 C-49.08427572355406 77.11917240365398 -57.252935398454 72.56613779196618 -65.853515625 63.851318359375 C-66.4400390625 63.307333984375006 -67.0265625 62.763349609375 -67.630859375 62.202880859375 C-68.853515625 60.851318359375 -68.853515625 60.851318359375 -68.853515625 58.851318359375 C-69.513515625 58.851318359375 -70.173515625 58.851318359375 -70.853515625 58.851318359375 C-77.91006312630398 44.4419560952619 -80.03126971255035 32.339751582307 -74.853515625 16.851318359375 C-74.5866796875 15.970888671875002 -74.31984375 15.090458984375005 -74.044921875 14.183349609375 C-71.75793066693853 7.464677660358873 -68.39056813397461 4.117055206896239 -62.853515625 -0.148681640625 C-61.76924686456522 -1.1893745879926598 -60.6858822914609 -2.2310105731785654 -59.603515625 -3.273681640625 C-42.15646167081748 -18.036573448010202 -16.14575507105849 -14.762042385857427 0 0 Z " fill="#DED309" transform="translate(141.853515625,58.148681640625)"/>
<path d="M0 0 C17.159999999999997 0 34.31999999999999 0 52 0 C52.061874999999986 6.414375000000007 52.12375 12.82875 52.1875 19.4375 C52.20115600585939 20.440672607421874 52.20115600585939 20.440672607421874 52.270263671875 25.517333984375 C52.27903820820791 27.135247814334974 52.28667984587571 28.753168348954404 52.29296875 30.37109375 C52.30831665039062 31.188721923828126 52.323664550781245 32.00635009765625 52.3394775390625 32.8487548828125 C52.343107271321344 40.968465945866114 50.56904394351349 48.41642456780613 44.83984375 54.42578125 C38.026282610649076 60.25564354120684 31.301743940792207 61.821575020705495 22.41796875 61.4921875 C16.468078433809765 60.6354032944686 11.090621819601594 58.565972917656694 7.23046875 53.828125 C6.824414062499997 53.22484374999999 6.418359374999994 52.62156250000001 6 52 C7.650000000000006 52.66 9.299999999999997 53.31999999999999 11 54 C11.659999999999997 53.175 11.659999999999997 53.175 15 49 C13.349999999999994 47.68000000000001 11.700000000000003 46.36 10 45 C7.6315868798094755 46.57894208012701 5.932547715098707 47.975426203229915 4 50 C1.1191132858323698 45.490786012607174 -0.1299855582606 42.11532087643431 -0.113525390625 36.7822265625 C-0.11340454101562614 35.95029785156251 -0.11328369140625227 35.11836914062499 -0.1131591796875 34.26123046875 C-0.10804321289062102 33.39643066406251 -0.10292724609375625 32.531630859375 -0.09765625 31.640625 C-0.096649169921875 30.8386669921875 -0.09564208984375 30.036708984374997 -0.0946044921875 29.21044921875 C-0.08938473271231828 26.22361820230435 -0.0754234668749092 23.236807618628063 -0.0625 20.25 C-0.04187500000000455 13.567499999999995 -0.021249999999994884 6.885000000000005 0 0 Z " fill="#E71C22" transform="translate(84,61)"/>
<path d="M0 0 C0.6599999999999966 0.3299999999999983 1.3199999999999932 0.6599999999999966 2 1 C2.0145825195312455 2.2001171874999983 2.029165039062505 3.4002343749999966 2.044189453125 4.63671875 C2.102450181940938 9.117317849508055 2.17968033450542 13.597428927978456 2.262451171875 18.07763671875 C2.29557037418283 20.011475019358272 2.3236422390759515 21.94540696159487 2.346435546875 23.87939453125 C2.3802218547226346 26.669999787941848 2.4325483016403524 29.459756907930057 2.48828125 32.25 C2.4946711730956963 33.105534667968755 2.501061096191407 33.96106933593751 2.5076446533203125 34.842529296875 C2.6444822373520793 40.51291726137204 3.743746269824385 44.788815598756216 6 50 C6.659999999999997 49.34 7.319999999999993 48.68000000000001 8 48 C10 46 10 46 13 45 C14.650000000000006 46.97999999999999 16.299999999999997 48.96000000000001 18 51 C16.02000000000001 52.650000000000006 14.039999999999992 54.3 12 56 C11.010000000000005 55.34 10.019999999999996 54.68000000000001 9 54 C9 55.650000000000006 9 57.3 9 59 C9.825000000000003 59.103125000000006 10.650000000000006 59.20625 11.5 59.3125 C15 60 15 60 18.51171875 61.5546875 C23.78714335027564 63.56798158153475 28.756823239639175 63.174112096828225 34.3125 62.8125 C34.796865234375005 62.790263671874996 34.796865234375005 62.790263671874996 37.248046875 62.677734375 C43.95305238177383 62.31542253640848 50.425120899216296 61.34747614019487 57 60 C53.49932248458674 66.71628357191665 47.57790811949508 69.45658865433546 40.8125 72.375 C37.47871319024401 73.11584151327912 34.404036357791185 73.13616145431166 31 73 C31 73.66 31 74.32 31 75 C35.95 74.00999999999999 40.900000000000006 73.01999999999998 46 72 C46 72.66 46 73.32 46 74 C32.20401012889096 78.73564475008283 20.394035552189834 78.78437758105889 6.796875 72.62890625 C1.9014267219605188 69.77778623332057 -2.0390068014593083 66.01360601142454 -6 62 C-6.586523437500006 61.45601562499999 -7.173046874999997 60.91203125 -7.77734375 60.3515625 C-9 59 -9 59 -9 57 C-9.659999999999997 57 -10.319999999999993 57 -11 57 C-17.660283423658754 43.399802932605226 -19.897904838883363 31.86076219824284 -16 17 C-15.340000000000003 17 -14.680000000000007 17 -14 17 C-14.329999999999998 19.97 -14.659999999999997 22.939999999999998 -15 26 C-14.670000000000002 25.340000000000003 -14.340000000000003 24.680000000000007 -14 24 C-13.340000000000003 24 -12.680000000000007 24 -12 24 C-11.670000000000002 22.349999999999994 -11.340000000000003 20.700000000000003 -11 19 C-6.125 21.75 -6.125 21.75 -5 24 C-6.8866237470649025 27.77324749412982 -12.266837063398569 28.582343188632365 -16 30 C-10.719999999999999 28.680000000000007 -5.439999999999998 27.36 0 26 C0 17.42 0 8.840000000000003 0 0 Z " fill="#C9C00F" transform="translate(82,60)"/>
<path d="M0 0 C10.560000000000002 0 21.120000000000005 0 32 0 C32.08250000000001 4.475624999999994 32.16499999999999 8.951250000000002 32.25 13.5625 C32.28641601562501 14.960568847656248 32.32283203125 16.358637695312495 32.3603515625 17.799072265625 C32.42233207142405 24.74438816481674 32.34681636780692 29.443978351694057 28 35 C23.07970144717953 39.45169869064709 20.047932075578572 40.35628019683665 13.5390625 40.28125 C8.611146308507443 39.73538851417314 5.929869426974335 37.00526424537766 2.6875 33.5 C-0.14758889544755505 29.299868303040654 -0.12126669350381292 25.70853902280804 -0.09765625 20.703125 C-0.09515869140625455 19.616767578125007 -0.09266113281249488 18.53041015625 -0.090087890625 17.4111328125 C-0.08098388671875512 16.037958984374995 -0.07187988281249602 14.664785156250005 -0.0625 13.25 C-0.04187500000000455 8.877499999999998 -0.021249999999994884 4.5049999999999955 0 0 Z " fill="#F2F0F2" transform="translate(94,72)"/>
<path d="M0 0 C0 0.990000000000002 0 1.9799999999999969 0 3 C-0.7618359374999955 3.1585546875000006 -1.523671874999991 3.317109375000001 -2.30859375 3.48046875 C-3.341132812500007 3.7137890624999983 -4.373671874999999 3.9471093749999966 -5.4375 4.1875 C-6.446835937499998 4.407929687500001 -7.4561718749999955 4.628359375000002 -8.49609375 4.85546875 C-12 6 -12 6 -21 11 C-4.170000000000002 11.329999999999998 12.659999999999997 11.659999999999997 30 12 C29.74999999999997 31.812500000000895 29.74999999999997 31.812500000000895 29.5771484375 37.995361328125 C29.5018426790391 51.78220357234407 29.5018426790391 51.78220357234407 33.755859375 56.77880859375 C36.593825695221426 59.57687151030676 39.653601690287985 61.84598557533198 43 64 C41.4505177298318 69.07229622072991 39.98570544620901 71.43830577147281 36 75 C35.301328125 75.6664453125 34.602656249999995 76.332890625 33.8828125 77.01953125 C26.58739130434782 83.83596014492755 26.58739130434782 83.83596014492755 21 85 C20.2884375 85.18046874999999 19.576875 85.3609375 18.84375 85.546875 C14.481741825398473 86.62283701640172 10.522586969872549 87.23192753691654 6 87 C6 86.34 6 85.68 6 85 C6.291328125000007 84.9626171875 6.291328125000007 84.9626171875 7.765625 84.7734375 C15.104013139953153 83.59652619453581 21.77601528037377 81.11649622279077 28 77 C29.154296875 74.89794921875 29.154296875 74.89794921875 30 73 C28.745742187500014 73.3106640625 27.491484375 73.621328125 26.19921875 73.94140625 C11.858938192789978 77.10540405126834 -2.685062034549759 77.66900705721858 -16 71 C-15.670000000000002 69.68 -15.340000000000003 68.36 -15 67 C-14.72865234375 67.17466796875 -14.72865234375 67.17466796875 -13.35546875 68.05859375 C-12.640039062499994 68.5136328125 -11.924609375000003 68.968671875 -11.1875 69.4375 C-10.479804687500007 69.8899609375 -9.772109375 70.342421875 -9.04296875 70.80859375 C-3.2482969811007933 74.18789564199668 3.521236648978359 73.5959076451207 10 73 C16.568225043873866 71.1283619715193 20.888490763915343 67.75378318269901 24.84375 62.2578125 C27.959319216802214 56.174032069892945 28.32205540362895 50.2715049646155 28.4140625 43.56640625 C28.431706542968755 42.78712768554688 28.44935058593751 42.007849121093756 28.467529296875 41.2049560546875 C28.530075209280824 38.32433814722546 28.57662020563083 35.44339064621455 28.625 32.5625 C28.74875 26.106875000000002 28.872500000000002 19.651250000000005 29 13 C11.509999999999991 13 -5.980000000000004 13 -24 13 C-24.33 21.25 -24.659999999999997 29.5 -25 38 C-26.216875 38.42281249999999 -26.216875 38.42281249999999 -32.375 40.5625 C-33.139897460937505 40.83263916015625 -33.904794921874995 41.102778320312495 -34.69287109375 41.381103515625 C-36.44382448565821 41.976819987051755 -38.222021814269056 42.49057928386361 -40 43 C-40.66 42.67 -41.31999999999999 42.34 -42 42 C-38.337080617621254 39.522142770743784 -35.38908150292832 38.510358314293995 -31 38 C-31.3125 36.125 -31.3125 36.125 -32 34 C-32.989999999999995 33.34 -33.980000000000004 32.68000000000001 -35 32 C-35.66 33.31999999999999 -36.31999999999999 34.64 -37 36 C-37.66 36 -38.31999999999999 36 -39 36 C-39.33 36.99000000000001 -39.66 37.97999999999999 -40 39 C-41.99857210597547 33.004283682073606 -39.61988327982786 26.100715559416642 -37.875 20.1875 C-35.29971159225491 15.809509706833353 -31.9185730773776 13.155214685680676 -28 10 C-26.853913300739322 8.937773303124253 -25.70806702483324 7.8752871232718675 -24.5625 6.8125 C-16.906500520819918 0.38077070780591526 -9.823304553333799 -0.5983738814213453 0 0 Z " fill="#DED409" transform="translate(107,48)"/>
<path d="M0 0 C0.9899999999999949 0.3299999999999983 1.980000000000004 0.6599999999999966 3 1 C2.3400000000000034 1 1.6800000000000068 1 1 1 C1 3.6400000000000006 1 6.280000000000001 1 9 C3.6400000000000006 9 6.280000000000001 9 9 9 C9 6.359999999999999 9 3.719999999999999 9 1 C8.340000000000003 0.6700000000000017 7.680000000000007 0.3400000000000034 7 0 C12.61 0 18.22 0 24 0 C23.67 0.16499999999999915 23.67 0.16499999999999915 22 1 C22 3.6400000000000006 22 6.280000000000001 22 9 C18.039999999999992 9 14.079999999999998 9 10 9 C10.087129995295754 13.521746307589794 10.194057085272362 18.04155629256607 10.3125 22.5625 C10.335058593750006 23.839316406249992 10.357617187499997 25.1161328125 10.380859375 26.431640625 C10.723866912671355 38.4369044434975 10.723866912671355 38.4369044434975 14 44 C18.85685440903221 48.501474818127406 21.994627148554315 49.33955600037065 28.4609375 49.29296875 C32.08487028041361 48.87482265995229 34.2046451731471 47.26290628840472 37 45 C38.319158199849596 44.30570621060548 39.646494063632076 43.624695047554425 41 43 C39.68000000000001 44.97999999999999 38.36 46.96000000000001 37 49 C37.825 49.66 37.825 49.66 42 53 C42.45375 52.34 42.9075 51.68000000000001 43.375 51 C43.911249999999995 50.34 44.44749999999999 49.68000000000001 45 49 C45.66 49 46.31999999999999 49 47 49 C45.55366256100385 52.60411653717418 43.808633322989635 54.11402567710513 40.5625 56.1875 C39.78003906250001 56.696679687499994 38.99757812499999 57.205859375 38.19140625 57.73046875 C32.312714395779636 61.13612802383534 25.578103499776248 60.63116131660966 19 60 C13.366380357032767 58.18971091164292 9.332014778555035 55.95042195671033 6 51 C7.650000000000006 51.66 9.299999999999997 52.31999999999999 11 53 C11.659999999999997 52.175 11.659999999999997 52.175 15 48 C13.349999999999994 46.68000000000001 11.700000000000003 45.36 10 44 C7.6315868798094755 45.57894208012701 5.932547715098707 46.975426203229915 4 49 C1.144631317023368 44.530727278819185 -0.13026054968638334 41.162333700896 -0.113525390625 35.8740234375 C-0.11344985961913778 35.07349548339843 -0.11337432861327557 34.27296752929688 -0.1132965087890625 33.44818115234375 C-0.10813522338867188 32.593875122070315 -0.10297393798828125 31.73956909179688 -0.09765625 30.859375 C-0.09624130249022755 29.977192993164067 -0.09482635498046932 29.09501098632812 -0.0933685302734375 28.18609619140625 C-0.0877800136477731 25.374029346485344 -0.07522960908293896 22.562042700811872 -0.0625 19.75 C-0.05748351615214631 17.841146984862945 -0.05292086775133953 15.9322927192256 -0.048828125 14.0234375 C-0.0378143388878982 9.348927526113442 -0.020557579695648087 4.674477352333113 0 0 Z " fill="#E81620" transform="translate(84,62)"/>
<path d="M0 0 C-2.902336259921185 4.112225833334094 -5.524476842311287 6.113136555239521 -10.0625 8.25 C-11.105351562500005 8.750156250000003 -12.148203125000009 9.250312500000007 -13.22265625 9.765625 C-17.735516559754586 11.77134069322426 -21.076306713675734 12.092899873326871 -26 12 C-26 12.659999999999997 -26 13.319999999999993 -26 14 C-23.525000000000006 13.504999999999995 -23.525000000000006 13.504999999999995 -11 11 C-11 11.659999999999997 -11 12.319999999999993 -11 13 C-24.410719237152023 17.603395823249343 -35.716849074439324 17.963863680863966 -49 12 C-49 11.340000000000003 -49 10.680000000000007 -49 10 C-48.2639453125 10.216562500000009 -47.527890625 10.43312499999999 -46.76953125 10.65625 C-45.793710937499995 10.934687499999995 -44.817890625000004 11.213124999999991 -43.8125 11.5 C-43.331035156249996 11.639218749999998 -43.331035156249996 11.639218749999998 -40.89453125 12.34375 C-38.14654124040639 12.966776075049552 -35.804015840596975 13.12302811732053 -33 13 C-33.83402343750001 12.708671874999993 -34.668046875 12.417343749999986 -35.52734375 12.1171875 C-53.15126050420167 5.69747899159664 -53.15126050420167 5.69747899159664 -56 0 C-55.454001464843756 0.06582275390624659 -54.9080029296875 0.13164550781249318 -54.345458984375 0.199462890625 C-43.42040454424212 1.4698708630357515 -32.68815441609908 2.2323662087216576 -21.6875 1.75 C-20.75284912109376 1.7114086914062483 -19.818198242187492 1.6728173828124966 -18.855224609375 1.633056640625 C-13.657200562165684 1.3487641714062732 -8.822539353636301 0.6532120941119217 -3.788330078125 -0.6865234375 C-2 -1 -2 -1 0 0 Z " fill="#CDB710" transform="translate(139,121)"/>
<path d="M0 0 C-0.3299999999999841 0.6599999999999966 -0.6599999999999966 1.3200000000000003 -1 2 C-1.7592578125000102 1.6390625000000014 -2.518515624999992 1.2781250000000028 -3.30078125 0.90625 C-3.7977148437499864 0.6742187500000014 -3.7977148437499864 0.6742187500000014 -6.3125 -0.5 C-7.298632812500003 -0.9640624999999972 -8.284765625000006 -1.4281250000000014 -9.30078125 -1.90625 C-12 -3 -12 -3 -15 -3 C-14.009999999999991 -2.6700000000000017 -13.02000000000001 -2.3400000000000034 -12 -2 C-11.835000000000008 -1.6700000000000017 -11.835000000000008 -1.6700000000000017 -11 0 C-9.361536158961911 0.8875012472289612 -7.68906261225122 1.713050373837497 -6 2.5 C-1.1111111111111143 4.7777777777777715 -1.1111111111111143 4.7777777777777715 0 7 C-16.5 7 -33 7 -50 7 C-43.459073171954174 0.45907317195417363 -37.09724101290411 -1.4223973960060903 -28 -2 C-28 -2.990000000000002 -28 -3.980000000000004 -28 -5 C-31.299999999999997 -4.670000000000002 -34.599999999999994 -4.340000000000003 -38 -4 C-37.67 -4.659999999999997 -37.34 -5.32 -37 -6 C-23.882113863489735 -9.954195342584434 -11.5476587488602 -6.731699685395462 0 0 Z " fill="#D9C50B" transform="translate(135,53)"/>
<path d="M0 0 C17.159999999999997 0 34.31999999999999 0 52 0 C51.670000000000016 0.6599999999999966 51.34 1.3200000000000003 51 2 C50.931052795899944 3.373428305673272 50.91532291962204 4.750021016566549 50.9375 6.125 C50.958124999999995 7.403750000000002 50.97874999999999 8.682500000000005 51 10 C45.63482028229157 10.757098114461783 40.42266242013932 11.138782011961666 35 11.09765625 C34.27885009765626 11.096241302490228 33.55770019531249 11.09482635498047 32.814697265625 11.093368530273438 C30.543086760268835 11.087833807641886 28.27158000298293 11.075294233810638 26 11.0625 C24.446616020923003 11.05747653835266 22.893230475209165 11.052915124382253 21.33984375 11.048828125 C17.559856715615638 11.037885894659894 13.779945859796285 11.020667604381458 10 11 C10 10.670000000000002 10 10.340000000000003 10 10 C13.960000000000008 10 17.92 10 22 10 C22 7.359999999999999 22 4.719999999999999 22 2 C17.710000000000008 2 13.420000000000002 2 9 2 C9 4.640000000000001 9 7.280000000000001 9 10 C6.359999999999999 10 3.719999999999999 10 1 10 C1.0325520833333286 7.981770833333329 1.0651041666666714 5.963541666666671 1.09765625 3.9453125 C1 2 1 2 0 0 Z " fill="#DA232C" transform="translate(84,61)"/>
<path d="M0 0 C4.691597159268383 3.3877289661218413 9.029978196049115 6.78185183330217 13 11 C11.696121160678842 16.096980917346315 9.900851059849202 18.5141330954539 6 22 C5.301328124999998 22.666445312500002 4.6026562499999955 23.332890625000005 3.8828125 24.01953125 C-3.4126086956521817 30.835960144927526 -3.4126086956521817 30.835960144927526 -9 32 C-9.7115625 32.18046874999999 -10.423124999999999 32.360937500000006 -11.15625 32.546875 C-15.518258174601542 33.62283701640172 -19.47741303012745 34.231927536916544 -24 34 C-24 33.34 -24 32.68000000000001 -24 32 C-23.41734375 31.925234375000002 -22.8346875 31.850468750000005 -22.234375 31.7734375 C-14.895986860046847 30.596526194535812 -8.22398471962623 28.116496222790772 -2 24 C-0.65625 21.8046875 -0.65625 21.8046875 0 20 C-0.2726367187499932 20.0721875 -0.2726367187499932 20.0721875 -1.65234375 20.4375 C-7.249599239046546 21.815285966534532 -12.239457446171201 22.182874366788212 -18 22 C-16.044270019041605 20.510334847465984 -14.091232743337272 19.059854483700406 -12.03515625 17.7109375 C-5.524513103619199 13.301749468193591 -1.6631547394795803 7.738046261578717 0 0 Z " fill="#CEC20E" transform="translate(137,101)"/>
<path d="M0 0 C0.6599999999999966 0 1.3199999999999932 0 2 0 C1.6700000000000017 2.969999999999999 1.3400000000000034 5.939999999999998 1 9 C1.3299999999999983 8.340000000000003 1.6599999999999966 7.680000000000007 2 7 C2.6599999999999966 7 3.319999999999993 7 4 7 C4.329999999999998 5.349999999999994 4.659999999999997 3.700000000000003 5 2 C9.875 4.75 9.875 4.75 11 7 C9.113376252935097 10.77324749412982 3.733162936601417 11.582343188632365 0 13 C5.280000000000001 11.680000000000007 10.560000000000002 10.36 16 9 C15.934895833333329 12.22265625 15.869791666666671 15.4453125 15.8046875 18.66796875 C15.996861990935983 21.946465565367916 16.696496305095977 24.028627404136117 18 27 C18 27.989999999999995 18 28.980000000000004 18 30 C16.185000000000002 30.33 16.185000000000002 30.33 7 32 C6.340000000000003 30.019999999999996 5.680000000000007 28.039999999999992 5 26 C4.340000000000003 26 3.680000000000007 26 3 26 C2.3400000000000034 22.700000000000003 1.6800000000000068 19.400000000000006 1 16 C1 19.299999999999997 1 22.599999999999994 1 26 C0.3400000000000034 25.67 -0.3199999999999932 25.340000000000003 -1 25 C-3.2818243631125625 16.686601683437033 -2.148938556907453 8.192828248209679 0 0 Z " fill="#D4CB0C" transform="translate(66,77)"/>
<path d="M0 0 C0.3300000000000125 0.6599999999999966 0.6599999999999966 1.3200000000000003 1 2 C1.6599999999999966 2.3299999999999983 2.319999999999993 2.6599999999999966 3 3 C2.3400000000000034 3 1.6800000000000068 3 1 3 C1 6.959999999999994 1 10.920000000000002 1 15 C2.4850000000000136 14.835000000000008 2.4850000000000136 14.835000000000008 10 14 C12.20189310177426 18.67902284127034 13 20.625164575234848 13 26 C9.039999999999992 25.010000000000005 5.0800000000000125 24.019999999999996 1 23 C1.3300000000000125 23.989999999999995 1.6599999999999966 24.980000000000004 2 26 C4.46875 26.84375 4.46875 26.84375 7.5 27.5 C10.53125 28.15625 10.53125 28.15625 13 29 C13.330000000000013 29.989999999999995 13.659999999999997 30.980000000000004 14 32 C13.360624999999999 32.12375 12.721249999999998 32.2475 12.0625 32.375 C11.381875000000008 32.58125 10.701249999999987 32.787499999999994 10 33 C9.669999999999987 33.66 9.340000000000003 34.31999999999999 9 35 C6.3513957320969325 35.59355613614741 3.7080267787552543 35.742092687737596 1 36 C1 36.66 1 37.31999999999999 1 38 C4.6299999999999955 37.34 8.259999999999991 36.68000000000001 12 36 C13.00364540134234 41.0182270067117 12.791322728127511 42.46900721708924 11 47 C9.635528911116836 46.39963272089142 8.312528821099988 45.70674628828462 7 45 C6.712033004760741 44.851971817016604 6.712033004760741 44.851971817016604 5.2547454833984375 44.10285949707031 C2.464793064263887 42.445529618664935 0.3711232066458763 41.20130253166033 -0.616180419921875 38.005462646484375 C-0.8104000581569721 35.562758039288724 -0.7877606238946555 33.209966942226714 -0.68359375 30.76171875 C-0.6736891174316497 29.880951690673825 -0.663784484863271 29.00018463134765 -0.6535797119140625 28.092727661132813 C-0.6145021380741582 25.289265504455727 -0.5267014171011226 22.489770933460107 -0.4375 19.6875 C-0.4023771680081438 17.783259823113937 -0.37043985021975345 15.878958041753208 -0.341796875 13.974609375 C-0.26476274009920076 9.314885762875335 -0.14403276584187097 4.658114613985276 0 0 Z " fill="#C3A12A" transform="translate(137,60)"/>
<path d="M0 0 C0.9899999999999949 0.3299999999999983 1.980000000000004 0.6599999999999966 3 1 C2.3400000000000034 1 1.6800000000000068 1 1 1 C1 3.6400000000000006 1 6.280000000000001 1 9 C3.6400000000000006 9 6.280000000000001 9 9 9 C9 6.359999999999999 9 3.719999999999999 9 1 C8.340000000000003 0.6700000000000017 7.680000000000007 0.3400000000000034 7 0 C12.61 0 18.22 0 24 0 C23.67 0.16499999999999915 23.67 0.16499999999999915 22 1 C22 3.6400000000000006 22 6.280000000000001 22 9 C18.039999999999992 9 14.079999999999998 9 10 9 C10 18.24000000000001 10 27.480000000000004 10 37 C9.670000000000002 37 9.340000000000003 37 9 37 C9 32.379999999999995 9 27.75999999999999 9 23 C8.010000000000005 23 7.019999999999996 23 6 23 C6 22.340000000000003 6 21.680000000000007 6 21 C5.340000000000003 21 4.680000000000007 21 4 21 C4 21.659999999999997 4 22.319999999999993 4 23 C3.010000000000005 23 2.019999999999996 23 1 23 C1 28.28 1 33.56 1 39 C0.6700000000000017 39 0.3400000000000034 39 0 39 C0 26.129999999999995 0 13.259999999999991 0 0 Z " fill="#EC0E19" transform="translate(84,62)"/>
<path d="M0 0 C0.3299999999999983 0 0.6599999999999966 0 1 0 C1.3299999999999983 3.6299999999999955 1.6599999999999966 7.260000000000005 2 11 C2.6599999999999966 11 3.319999999999993 11 4 11 C4.659999999999997 12.980000000000004 5.319999999999993 14.960000000000008 6 17 C6.525937499999998 16.824687499999996 6.525937499999998 16.824687499999996 9.1875 15.9375 C12.795468098032487 15.050294729992018 14.526324887631773 14.947371178070227 18 16 C18.33 16.989999999999995 18.659999999999997 17.980000000000004 19 19 C17.542932735384284 19.503677572953578 16.08429904086435 20.002825563364823 14.625 20.5 C13.812890624999994 20.778437499999995 13.000781250000003 21.056875000000005 12.1640625 21.34375 C10 22 10 22 8 22 C15.31415864916194 33.88165012627573 27.065283496627202 38.49684761366987 40 42 C40 42.329999999999984 40 42.66 40 43 C34.10142720725163 42.54900248264701 28.646668206329593 41.88222273544321 23 40 C22.195625000000007 39.77312499999999 21.39125 39.546249999999986 20.5625 39.3125 C16.483721578591968 37.22336958903492 13.333335515395675 34.110649217916205 10 31 C9.174999999999997 30.236874999999998 8.349999999999994 29.473749999999995 7.5 28.6875 C6 27 6 27 6 25 C5.340000000000003 25 4.680000000000007 25 4 25 C-0.5042538816669548 16.97277611802923 -1.9847912163402555 10.20076364980747 -1 1 C-0.6700000000000017 0.6700000000000017 -0.3400000000000034 0.3400000000000034 0 0 Z " fill="#DDD309" transform="translate(67,92)"/>
<path d="M0 0 C1.458801089668981 0.14107747163465945 2.917035514412902 0.2880241457994259 4.375 0.4375 C4.781054687500003 0.4781054687500017 4.781054687500003 0.4781054687500017 6.8359375 0.68359375 C9 1 9 1 11 2 C11 7.609999999999999 11 13.219999999999999 11 19 C9.783124999999998 19.422812499999992 9.783124999999998 19.422812499999992 3.625 21.5625 C2.8601025390624955 21.832639160156248 2.095205078125005 22.102778320312495 1.30712890625 22.381103515625 C-0.44382448565821164 22.976819987051755 -2.2220218142690555 23.49057928386361 -4 24 C-4.659999999999997 23.67 -5.319999999999993 23.340000000000003 -6 23 C-2.337080617621254 20.522142770743784 0.6109184970716797 19.510358314293995 5 19 C4.6875 17.125 4.6875 17.125 4 15 C3.010000000000005 14.340000000000003 2.019999999999996 13.680000000000007 1 13 C0.3400000000000034 14.319999999999993 -0.3199999999999932 15.64 -1 17 C-1.6599999999999966 17 -2.319999999999993 17 -3 17 C-3.3299999999999983 17.989999999999995 -3.6599999999999966 18.980000000000004 -4 20 C-5.155731978166685 16.53280406549993 -4.839049378481505 14.703921223804329 -4.25 11.125 C-4.090156250000007 10.096328125 -3.9303124999999994 9.067656249999999 -3.765625 8.0078125 C-2.9689059724662172 4.877844891831543 -1.7920496454257915 2.6683816148922403 0 0 Z " fill="#E3D908" transform="translate(71,67)"/>
<path d="M0 0 C0.6599999999999966 0 1.3199999999999932 0 2 0 C2 0.6599999999999966 2 1.3199999999999932 2 2 C2.989999999999995 2 3.980000000000004 2 5 2 C5 6.6200000000000045 5 11.239999999999995 5 16 C5.659999999999997 16 6.319999999999993 16 7 16 C6.6875 19.375 6.6875 19.375 6 23 C5.010000000000005 23.659999999999997 4.019999999999996 24.319999999999993 3 25 C1.9813133848288658 25.980957481275908 0.9764801654480806 26.977020779054385 0 28 C-4.052848035797268 21.832622554221544 -4.1243239518978925 16.913718415790214 -3.5625 9.6875 C-3.5102929687499937 8.946933593750003 -3.4580859375000017 8.206367187500007 -3.404296875 7.443359375 C-3.27549848052891 5.6284729074529025 -3.138567378114516 3.8141667503915926 -3 2 C-2.010000000000005 2 -1.019999999999996 2 0 2 C0 1.3400000000000034 0 0.6800000000000068 0 0 Z " fill="#E71D22" transform="translate(88,83)"/>
<path d="M0 0 C17.819999999999993 0 35.64 0 54 0 C54.12375 7.21875 54.2475 14.4375 54.375 21.875 C54.4296240234375 24.133276367187506 54.484248046874995 26.391552734374997 54.54052734375 28.71826171875 C54.79207625709623 46.45686390941201 54.79207625709623 46.45686390941201 49.671630859375 53.289794921875 C43.23541655546319 59.87453001737701 36.121566078214556 63.8449175722738 26.8125 64.5 C20.259899100091772 64.31344908470012 14.011719438515314 61.39442594990652 8 59 C8.329999999999998 57.68000000000001 8.659999999999997 56.36 9 55 C9.542695312500001 55.3493359375 10.085390625000002 55.698671875 10.64453125 56.05859375 C11.359960937500006 56.51363281249999 12.075390624999997 56.968671875 12.8125 57.4375 C13.520195312499993 57.88996093750001 14.227890625 58.342421875 14.95703125 58.80859375 C20.75170301889922 62.187895641996676 27.521236648978345 61.59590764512072 34 61 C40.56822504387388 59.1283619715193 44.88849076391534 55.75378318269904 48.84375 50.2578125 C51.959319216802214 44.174032069892945 52.32205540362895 38.27150496461549 52.4140625 31.56640625 C52.431706542968755 30.787127685546878 52.44935058593751 30.007849121093756 52.467529296875 29.2049560546875 C52.530075209280824 26.32433814722546 52.57662020563083 23.443390646214553 52.625 20.5625 C52.74875 14.106875000000002 52.8725 7.6512500000000045 53 1 C35.50999999999999 1 18.019999999999996 1 0 1 C0 0.6700000000000017 0 0.3400000000000034 0 0 Z " fill="#DEE8EA" transform="translate(83,60)"/>
<path d="M0 0 C1.3199999999999932 0 2.6399999999999864 0 4 0 C4 12.870000000000005 4 25.74000000000001 4 39 C3.6699999999999875 39 3.3400000000000034 39 3 39 C2.9510156249999966 37.9287890625 2.902031249999993 36.857578125 2.8515625 35.75390625 C2.776547056062327 34.356743606660814 2.7009987037462793 32.95960950386882 2.625 31.5625 C2.594062500000007 30.855449218749996 2.5631250000000136 30.148398437499992 2.53125 29.419921875 C2.4271937079045927 27.6076081210048 2.220801078082445 25.80182011831438 2 24 C1.3400000000000034 23.67 0.6800000000000068 23.340000000000003 0 23 C0 22.340000000000003 0 21.680000000000007 0 21 C-1.6500000000000057 21.33 -3.3000000000000114 21.659999999999997 -5 22 C-5 26.950000000000003 -5 31.900000000000006 -5 37 C-5.329999999999998 37 -5.659999999999997 37 -6 37 C-6.028863384880182 32.520846718669944 -6.0467518736220285 28.041717088362105 -6.0625 23.5625 C-6.070878906250002 22.283105468749994 -6.079257812500003 21.003710937500003 -6.087890625 19.685546875 C-6.091113281250003 18.470605468749994 -6.094335937500006 17.255664062500003 -6.09765625 16.00390625 C-6.102893066406253 14.87799072265625 -6.108129882812506 13.7520751953125 -6.113525390625 12.592041015625 C-6 10 -6 10 -5 9 C-2.3294114899715055 8.858848387419215 0.3243223768106702 8.95752892661605 3 9 C3 6.359999999999999 3 3.719999999999999 3 1 C2.009999999999991 0.6700000000000017 1.0200000000000102 0.3400000000000034 0 0 Z " fill="#EA0F18" transform="translate(132,62)"/>
<path d="M0 0 C0.6599999999999966 0.3299999999999983 1.3199999999999932 0.6599999999999966 2 1 C2.0145825195312455 2.2001171874999983 2.029165039062505 3.4002343749999966 2.044189453125 4.63671875 C2.102450181940938 9.117317849508055 2.17968033450542 13.597428927978456 2.262451171875 18.07763671875 C2.29557037418283 20.011475019358272 2.3236422390759515 21.94540696159487 2.346435546875 23.87939453125 C2.3802218547226346 26.669999787941848 2.4325483016403524 29.459756907930057 2.48828125 32.25 C2.491476211547848 32.67776733398438 2.491476211547848 32.67776733398438 2.5076446533203125 34.842529296875 C2.6444822373520793 40.512917261372024 3.743746269824385 44.788815598756216 6 50 C6.659999999999997 49.34 7.319999999999993 48.68000000000001 8 48 C10 46 10 46 13 45 C14.650000000000006 46.97999999999999 16.299999999999997 48.96000000000001 18 51 C17.00999999999999 51.825 17.00999999999999 51.825 12 56 C11.010000000000005 55.34 10.019999999999996 54.68000000000001 9 54 C8.670000000000002 54.16499999999999 8.670000000000002 54.16499999999999 7 55 C2.742104039117706 49.75951266352948 1.5751327325881732 46.6715396980228 1 40 C0.3400000000000034 39.67 -0.3199999999999932 39.34 -1 39 C-0.6700000000000017 26.129999999999995 -0.3400000000000034 13.259999999999991 0 0 Z " fill="#BAB08F" transform="translate(82,60)"/>
<path d="M0 0 C3.6046939877402053 0.30660205145196073 7.20863688072231 0.6212929683770056 10.8125 0.9375 C11.324580078124995 0.9810058593750028 11.324580078124995 0.9810058593750028 13.916015625 1.201171875 C14.89892578125 1.2881835937500057 15.8818359375 1.3751953124999972 16.89453125 1.46484375 C17.800500488281244 1.54339599609375 18.706469726562503 1.6219482421875 19.639892578125 1.702880859375 C22 2 22 2 25 3 C25 5.640000000000001 25 8.280000000000001 25 11 C15.265893008199882 10.371993097303232 7.095693222345332 7.908964453336239 0 1 C0 0.6700000000000017 0 0.3400000000000034 0 0 Z " fill="#0B5F32" transform="translate(83,121)"/>
<path d="M0 0 C-6.745788272423113 5.9025647383702164 -14.909655696197106 10 -24 10 C-24.09765625 3.84765625 -24.09765625 3.84765625 -24 2 C-21.653926283723848 -0.3460737162761518 -16.298621580247215 0.1866557845056036 -13.125 -0.125 C-12.200742187499998 -0.22425781249999943 -11.276484374999995 -0.32351562499999886 -10.32421875 -0.42578125 C-9.436054687500004 -0.5147265625000017 -8.547890625000008 -0.6036718750000034 -7.6328125 -0.6953125 C-6.81699707031251 -0.777973632812504 -6.001181640624992 -0.8606347656249937 -5.16064453125 -0.94580078125 C-3 -1 -3 -1 0 0 Z " fill="#E51723" transform="translate(137,122)"/>
<path d="M0 0 C0 2.969999999999999 0 5.939999999999998 0 9 C-7.260000000000005 9 -14.519999999999996 9 -22 9 C-18.722545995982443 5.7225459959824505 -17.448924728406624 4.469155065855517 -13.5 2.8125 C-12.747187499999995 2.4889453125000003 -11.994375000000005 2.1653906250000006 -11.21875 1.83203125 C-7.350012765393728 0.38125478702264815 -4.1382180264079835 -0.11495050073355628 0 0 Z " fill="#045B2F" transform="translate(107,51)"/>
<path d="M0 0 C8.734834814869501 0.6470248011014448 15.720551879374796 2.7205518793747956 22 9 C14.739999999999995 9 7.480000000000004 9 0 9 C0 6.030000000000001 0 3.0600000000000023 0 0 Z " fill="#E8131E" transform="translate(113,51)"/>
<path d="M0 0 C1.7923233745982117 0.30871121669501633 3.583843214005597 0.6220906430832542 5.375 0.9375 C5.873867187499997 1.0245117187500057 5.873867187499997 1.0245117187500057 8.3984375 1.46484375 C11 2 11 2 13 3 C13.407292275616811 5.3215659710157865 13.744386767173879 7.656878699093937 14 10 C12.185000000000002 10.329999999999998 12.185000000000002 10.329999999999998 3 12 C0 4.5 0 4.5 0 0 Z " fill="#055D33" transform="translate(70,97)"/>
<path d="M0 0 C2.2018931017742602 4.6790228412703385 3 6.625164575234862 3 12 C1.0200000000000102 11.504999999999995 1.0200000000000102 11.504999999999995 -9 9 C-9 6.359999999999999 -9 3.719999999999999 -9 1 C-5.846632000972193 0.29925155577160467 -3.2727502639264117 0 0 0 Z " fill="#E71823" transform="translate(147,74)"/>
<path d="M0 0 C2.6400000000000006 0 5.280000000000001 0 8 0 C8 4.290000000000006 8 8.579999999999998 8 13 C7.010000000000005 13 6.019999999999996 13 5 13 C5 12.340000000000003 5 11.680000000000007 5 11 C4.340000000000003 11 3.680000000000007 11 3 11 C3 11.659999999999997 3 12.319999999999993 3 13 C2.010000000000005 13 1.019999999999996 13 0 13 C0 8.710000000000008 0 4.420000000000002 0 0 Z " fill="#E91D23" transform="translate(85,72)"/>
<path d="M0 0 C4.691597159268383 3.3877289661218413 9.029978196049086 6.78185183330217 13 11 C12.340000000000003 12.650000000000006 11.680000000000007 14.299999999999997 11 16 C6.331218743791595 13.839503030422748 2.246676196298324 11.028134238583519 -1 7 C-1 3.0625 -1 3.0625 0 0 Z " fill="#FEF300" transform="translate(137,101)"/>
<path d="M0 0 C0.6599999999999966 0 1.3199999999999932 0 2 0 C1.0663403398030482 7.469277281575586 -2.346379272381199 13.144695667171533 -8.203125 17.75 C-14.88843030447805 22.40064716833257 -21.906418418744337 24.077615677957553 -30 23 C-34.76535279999226 21.55931194418838 -39.373691229210635 19.842626537440992 -44 18 C-43.67 16.680000000000007 -43.34 15.36 -43 14 C-42.4573046875 14.349335937500001 -41.914609375 14.698671875000002 -41.35546875 15.05859375 C-40.640039062499994 15.513632812499992 -39.924609375 15.968671874999998 -39.1875 16.4375 C-38.47980468750001 16.889960937500007 -37.772109375 17.342421875 -37.04296875 17.80859375 C-31.248296981100793 21.187895641996676 -24.47876335102164 20.595907645120704 -18 20 C-11.410849524610626 18.122399198757222 -6.926514132520168 14.73049840029833 -3.1171875 9.0703125 C-1.5086972838355734 6.08954391759741 -0.6899479785606957 3.3117502970913364 0 0 Z " fill="#CDBDAB" transform="translate(135,101)"/>
<path d="M0 0 C6.211009470288843 -0.7057965307146432 10.593851235387135 1.2688597992565889 16.23046875 3.80859375 C19 5 19 5 21.12890625 5.40625 C23.830733845274153 6.263614915410585 24.966158946666667 7.901307954615383 26.75 10.0625 C27.363593750000007 10.795976562500002 27.977187500000014 11.529453125000003 28.609375 12.28515625 C29.068281249999984 12.851054687499996 29.527187499999997 13.416953125 30 14 C29.670000000000016 14.165 29.670000000000016 14.165 28 15 C27.00999999999999 14.670000000000002 26.02000000000001 14.340000000000003 25 14 C25 13.340000000000003 25 12.68 25 12 C24.458593750000006 11.898164062500001 23.91718750000001 11.796328125000002 23.359375 11.69140625 C20.394034192812654 10.822423927363978 17.94475053619763 9.445277085729622 15.25 7.9375 C14.265156250000004 7.3896484375 13.280312500000008 6.841796875 12.265625 6.27734375 C11.891796874999997 6.06658203125 11.891796874999997 6.06658203125 10 5 C10 4.340000000000003 10 3.6799999999999997 10 3 C6.700000000000003 2.3400000000000034 3.4000000000000057 1.6799999999999997 0 1 C0 0.6700000000000017 0 0.3400000000000034 0 0 Z " fill="#EEE304" transform="translate(113,48)"/>
<path d="M0 0 C2.5955613250064147 2.0022901650049505 4.963027350455974 3.959858266209352 7.1875 6.375 C13.835541886338618 12.57983909391605 20.76198692186685 15.597286573007949 29.62890625 17.359375 C30.411367187500005 17.57078125000001 31.193828124999996 17.782187499999992 32 18 C32.16499999999999 18.329999999999984 32.16499999999999 18.329999999999984 33 20 C27.101427207251632 19.549002482647012 21.646668206329608 18.882222735443207 16 17 C15.205937500000005 16.75121093749999 14.411874999999995 16.50242187500001 13.59375 16.24609375 C10.348529689663565 14.687019534642587 8.64674136391173 12.726584139849365 6.3125 10 C5.545507812500006 9.113124999999997 4.778515624999997 8.226249999999993 3.98828125 7.3125 C3.3321484374999955 6.549374999999998 2.676015625000005 5.7862499999999955 2 5 C1.3400000000000034 4.340000000000003 0.6800000000000068 3.680000000000007 0 3 C0 2.010000000000005 0 1.019999999999996 0 0 Z " fill="#F7EE02" transform="translate(74,115)"/>
<path d="M0 0 C0.9899999999999949 0 1.980000000000004 0 3 0 C3 4.289999999999992 3 8.580000000000013 3 13 C-4.767512336738349 13.517834155782566 -10.758801172945155 11.744549132420104 -18 9 C-18 8.340000000000003 -18 7.680000000000007 -18 7 C-17.2639453125 7.216562500000009 -16.527890624999998 7.43312499999999 -15.76953125 7.65625 C-14.793710937499995 7.9346874999999955 -13.817890625000004 8.213124999999991 -12.8125 8.5 C-11.849570312500006 8.778437499999995 -10.886640624999998 9.056874999999991 -9.89453125 9.34375 C-7.146541240406393 9.966776075049552 -4.804015840596975 10.12302811732053 -2 10 C-3.319999999999993 9.340000000000003 -4.640000000000001 8.680000000000007 -6 8 C-4.019999999999996 8 -2.039999999999992 8 0 8 C0 5.360000000000014 0 2.719999999999999 0 0 Z " fill="#DCD30A" transform="translate(108,124)"/>
<path d="M0 0 C0.7631250000000023 0.1856250000000017 1.5262500000000045 0.3712500000000034 2.3125 0.5625 C5 1 5 1 8 0 C7.579100036269779 5.6046153065130255 7.083868894129893 10.72086546820428 5 16 C3.680000000000007 15.670000000000002 2.3600000000000136 15.340000000000003 1 15 C1.3300000000000125 13.927499999999995 1.6599999999999966 12.855000000000004 2 11.75 C3 8 3 8 3 4 C-0.6299999999999955 4.329999999999998 -4.259999999999991 4.659999999999997 -8 5 C-8 4.340000000000003 -8 3.680000000000007 -8 3 C-5.360000000000014 2.6700000000000017 -2.719999999999999 2.3400000000000034 0 2 C0 1.3400000000000034 0 0.6800000000000068 0 0 Z " fill="#EDE205" transform="translate(146,93)"/>
<path d="M0 0 C0.6599999999999966 0.6599999999999966 1.3199999999999932 1.3199999999999932 2 2 C-2.086399275543954 6.26891834988588 -5.804797611527249 10.096798665265226 -11 13 C-11.329999999999984 13.495000000000005 -11.329999999999984 13.495000000000005 -13 16 C-15.391797193594172 16.498291081998786 -17.578753081881302 16.793468956167743 -20 17 C-21.812518614420554 17.18731997325162 -23.625018155992265 17.37482457501764 -25.4375 17.5625 C-26.95819102508861 17.709809860850612 -28.478976769418153 17.85616078101137 -30 18 C-30 17.340000000000003 -30 16.680000000000007 -30 16 C-29.41734375 15.925234375000002 -28.8346875 15.850468750000005 -28.234375 15.7734375 C-18.683847068174543 14.241749058103466 -9.321938563138929 10.54553957535937 -3 3 C-2 2 -1 1 0 0 Z " fill="#FAF001" transform="translate(143,117)"/>
<path d="M0 0 C4.056061646434017 0.4680071130500778 7.465886793850814 0.8795320763104968 11 3 C10.669999999999987 3.6599999999999966 10.340000000000003 4.319999999999993 10 5 C9.669999999999987 5.989999999999995 9.340000000000003 6.980000000000004 9 8 C7.514999999999986 8.164999999999992 7.514999999999986 8.164999999999992 0 9 C0 6.030000000000001 0 3.0600000000000023 0 0 Z " fill="#D8B20E" transform="translate(138,66)"/>
<path d="M0 0 C-0.6599999999999966 1.6500000000000057 -1.3199999999999932 3.299999999999997 -2 5 C-2.6599999999999966 4.340000000000003 -3.319999999999993 3.680000000000007 -4 3 C-5.84765625 3.2421875 -5.84765625 3.2421875 -8.0625 3.875 C-12.838147437264695 5.084417208138461 -17.085482917446484 5.156016415319158 -22 5 C-18.39845085185968 1.698579947538036 -14.648326544806253 0.9422283536769385 -10 0 C-8.927500000000009 -0.22687500000000682 -7.85499999999999 -0.45374999999999943 -6.75 -0.6875 C-4.124901772632256 -0.9858066167463306 -2.4729207055005418 -0.8560110134424974 0 0 Z " fill="#E3D608" transform="translate(141,118)"/>
<path d="M0 0 C0.6599999999999966 0 1.3199999999999932 0 2 0 C1.6700000000000017 2.969999999999999 1.3400000000000034 5.939999999999998 1 9 C1.3299999999999983 8.340000000000003 1.6599999999999966 7.680000000000007 2 7 C2.6599999999999966 7 3.319999999999993 7 4 7 C4.329999999999998 5.349999999999994 4.659999999999997 3.700000000000003 5 2 C9.875 4.75 9.875 4.75 11 7 C10 9 10 9 7.49609375 9.8515625 C6.486757812500002 10.106796875 5.4774218750000045 10.362031250000001 4.4375 10.625 C3.9315429687499943 10.755195312500007 3.9315429687499943 10.755195312500007 1.37109375 11.4140625 C0.5886328124999949 11.607421875 -0.19382812499999602 11.80078125 -1 12 C-2.098987015879338 8.703038952361979 -1.8712444412304166 7.595050967346964 -1.0625 4.3125 C-0.8678515624999932 3.5042578125000006 -0.6732031250000006 2.696015625000001 -0.47265625 1.86328125 C-0.39466796874999943 1.5558398437499932 -0.39466796874999943 1.5558398437499932 0 0 Z " fill="#C6BE10" transform="translate(66,77)"/>
<path d="M0 0 C1.458801089668981 0.14107747163465945 2.917035514412902 0.2880241457994259 4.375 0.4375 C4.781054687500003 0.4781054687500017 4.781054687500003 0.4781054687500017 6.8359375 0.68359375 C9 1 9 1 11 2 C11 4.310000000000002 11 6.6200000000000045 11 9 C7.039999999999992 7.680000000000007 3.0799999999999983 6.359999999999999 -1 5 C-0.6700000000000017 3.3499999999999943 -0.3400000000000034 1.7000000000000028 0 0 Z " fill="#FEF200" transform="translate(71,67)"/>
<path d="M0 0 C0 2.6400000000000006 0 5.280000000000001 0 8 C-2.6399999999999864 8 -5.280000000000001 8 -8 8 C-8 5.359999999999999 -8 2.719999999999999 -8 0 C-5.138229434697195 -1.4308852826514027 -3.066242272408118 -0.5999169663407145 0 0 Z " fill="#B89015" transform="translate(135,63)"/>
<path d="M0 0 C0 2.6400000000000006 0 5.280000000000001 0 8 C-2.6400000000000006 8 -5.280000000000001 8 -8 8 C-8 5.359999999999999 -8 2.719999999999999 -8 0 C-4.7102319223705535 -1.0965893592098155 -3.286962331630093 -0.7995313779640725 0 0 Z " fill="#C4AB11" transform="translate(114,63)"/>
<path d="M0 0 C0 2.6400000000000006 0 5.280000000000001 0 8 C-2.6400000000000006 8 -5.280000000000001 8 -8 8 C-8 5.359999999999999 -8 2.719999999999999 -8 0 C-5.138229434697195 -1.4308852826514027 -3.066242272408104 -0.5999169663407145 0 0 Z " fill="#B99214" transform="translate(93,63)"/>
<path d="M0 0 C0 3.9083886594473825 -1.5056787627778903 5.1159410694619325 -4 8 C-3.010000000000005 8 -2.019999999999996 8 -1 8 C-1 10.310000000000002 -1 12.620000000000005 -1 15 C-4.6299999999999955 14.340000000000003 -8.260000000000005 13.680000000000007 -12 13 C-12 12.340000000000003 -12 11.680000000000007 -12 11 C-10.390625 9.4140625 -10.390625 9.4140625 -8.25 7.625 C-5.3756267974003435 5.183821340345325 -2.6145600773628246 2.7235000805862697 0 0 Z " fill="#CCC20E" transform="translate(83,54)"/>
<path d="M0 0 C2.2636563982294717 1.4044583492664628 4.020868502424747 3.1967913022092205 6 5 C4.349999999999994 6.980000000000004 2.700000000000003 8.960000000000008 1 11 C-1 9.625 -1 9.625 -3 8 C-3 7.340000000000003 -3 6.680000000000007 -3 6 C-3.6599999999999966 5.670000000000002 -4.319999999999993 5.340000000000003 -5 5 C-4.1875 3.0625 -4.1875 3.0625 -3 1 C-2.010000000000005 0.6700000000000017 -1.019999999999996 0.3400000000000034 0 0 Z " fill="#B8A211" transform="translate(94,105)"/>
<path d="M0 0 C2.4375 0.75 2.4375 0.75 5 2 C5.8125 4.125 5.8125 4.125 6 6 C5.340000000000003 6 4.680000000000007 6 4 6 C3.3400000000000034 7.319999999999993 2.680000000000007 8.64 2 10 C1.0100000000000051 10 0.01999999999999602 10 -1 10 C-3.1875 7.5 -3.1875 7.5 -5 5 C-3.3499999999999943 3.3499999999999943 -1.7000000000000028 1.7000000000000028 0 0 Z " fill="#CEC00E" transform="translate(125,105)"/>
<path d="M0 0 C0 0.6599999999999966 0 1.3199999999999932 0 2 C0.9900000000000091 2.3299999999999983 1.9799999999999898 2.6599999999999966 3 3 C3 4.980000000000004 3 6.959999999999994 3 9 C0.36000000000001364 9 -2.280000000000001 9 -5 9 C-5 6.359999999999999 -5 3.719999999999999 -5 1 C-3 0 -3 0 0 0 Z " fill="#C4AC11" transform="translate(132,83)"/>
<path d="M0 0 C0.6599999999999966 0 1.3199999999999932 0 2 0 C2 0.6599999999999966 2 1.3199999999999932 2 2 C2.989999999999995 2 3.980000000000004 2 5 2 C5 4.310000000000002 5 6.6200000000000045 5 9 C2.3599999999999994 9 -0.28000000000000114 9 -3 9 C-3 6.689999999999998 -3 4.3799999999999955 -3 2 C-2.010000000000005 2 -1.019999999999996 2 0 2 C0 1.3400000000000034 0 0.6800000000000068 0 0 Z " fill="#BCA311" transform="translate(88,83)"/>
<path d="M0 0 C1.4672679783639921 3.8148967437464023 0.43336418790585185 6.290116219537765 -1 10 C-4.816842262641103 8.444990189294359 -7.191957321699533 5.964045049317164 -10 3 C-6.688851661447728 1.871199430038999 -3.41021743093944 0.7869732532937235 0 0 Z " fill="#E41123" transform="translate(149,97)"/>
<path d="M0 0 C2.3100000000000023 0 4.6200000000000045 0 7 0 C7.125 6.75 7.125 6.75 6 9 C1.125 8.125 1.125 8.125 0 7 C-0.040929374234323745 4.667025668643305 -0.04241723189086599 2.3329477539977574 0 0 Z " fill="#54528B" transform="translate(116,87)"/>
<path d="M0 0 C0 1.980000000000004 0 3.9599999999999937 0 6 C-1.4175056312275274 5.884903388917422 -2.8340116927742827 5.7574634222888506 -4.25 5.625 C-5.038906249999997 5.555390625000001 -5.827812499999993 5.485781250000002 -6.640625 5.4140625 C-9.08587699670123 4.984928871439848 -10.848369027767731 4.213993621947566 -13 3 C-11.586030980989676 2.4924213777911604 -10.168682712621816 1.9942507514940502 -8.75 1.5 C-7.961093750000003 1.2215625000000045 -7.172187500000007 0.9431249999999949 -6.359375 0.65625 C-4 0 -4 0 0 0 Z " fill="#075B33" transform="translate(82,88)"/>
<path d="M0 0 C2.3100000000000023 0 4.6200000000000045 0 7 0 C7.200864427458157 3.7159919079759334 7.151943698702013 4.772084451946981 5 8 C1.125 7.125 1.125 7.125 0 6 C-0.040807829325032685 4.0004163630731 -0.042543562981151695 1.9995474601141296 0 0 Z " fill="#3C3B7D" transform="translate(97,88)"/>
<path d="M0 0 C0.3299999999999983 0.9899999999999949 0.6599999999999966 1.980000000000004 1 3 C1.6599999999999966 3 2.319999999999993 3 3 3 C3 3.6599999999999966 3 4.319999999999993 3 5 C1.3954444024364392 4.858510106781452 -0.20863766777199544 4.711643135328785 -1.8125 4.5625 C-2.705820312499995 4.481289062499997 -3.599140625000004 4.400078124999993 -4.51953125 4.31640625 C-7 4 -7 4 -10 3 C-10 2.3400000000000034 -10 1.6800000000000068 -10 1 C-3.2997090203685815 -1.588748787584862 -3.2997090203685815 -1.588748787584862 0 0 Z " fill="#125E32" transform="translate(88,112)"/>
<path d="M0 0 C1.6056866584912086 0.28317926059695253 3.209520474082666 0.5768779136348314 4.8125 0.875 C5.2591601562500045 0.9562109375000034 5.2591601562500045 0.9562109375000034 7.51953125 1.3671875 C10 2 10 2 13 4 C4.571428571428584 6.285714285714292 4.571428571428584 6.285714285714292 0 6 C0 4.019999999999996 0 2.0400000000000063 0 0 Z " fill="#E60F23" transform="translate(138,88)"/>
<path d="M0 0 C3.7348777738770593 0.49798370318360696 5.812376345117883 0.8749175634119126 9 3 C8.670000000000002 4.650000000000006 8.340000000000003 6.299999999999997 8 8 C4.063263557136537 6.687754519045512 1.7728070555705955 5.080896728411773 -1 2 C-0.6700000000000017 1.3400000000000034 -0.3400000000000034 0.6800000000000068 0 0 Z " fill="#FEF300" transform="translate(73,75)"/>
<path d="M0 0 C0 4.619999999999997 0 9.240000000000002 0 14 C-0.6599999999999966 14 -1.3199999999999932 14 -2 14 C-2 10.04 -2 6.079999999999998 -2 2 C-5.299999999999997 2.3299999999999983 -8.599999999999994 2.6599999999999966 -12 3 C-11 1 -11 1 -9.375 0.375 C-6.285772312906886 -0.11277279269891238 -3.1274990007992045 0 0 0 Z " fill="#BAB512" transform="translate(109,46)"/>
<path d="M0 0 C0 0.6599999999999966 0 1.3199999999999932 0 2 C1.6500000000000057 2.3299999999999983 3.299999999999997 2.6599999999999966 5 3 C5 3.3299999999999983 5 3.6599999999999966 5 4 C-0.9149227198817016 3.547752387614679 -6.351998881758192 2.841739495078855 -12 1 C-8.004393922996627 -1.8302209712107214 -4.5726267657596935 -0.7621044609599466 0 0 Z " fill="#F9F001" transform="translate(91,117)"/>
<path d="M0 0 C1.980000000000004 0 3.9599999999999937 0 6 0 C6 2.3100000000000023 6 4.6200000000000045 6 7 C4.343853426426705 7.382187670824607 2.675429756312255 7.713951017214981 1 8 C0 7 0 7 -0.0625 3.4375 C-0.04187500000000455 2.3031249999999943 -0.021249999999994884 1.1687500000000028 0 0 Z " fill="#343378" transform="translate(107,88)"/>
<path d="M0 0 C1.980000000000004 0 3.9599999999999937 0 6 0 C6 1.3199999999999932 6 2.6400000000000006 6 4 C5.340000000000003 4 4.680000000000007 4 4 4 C4 4.659999999999997 4 5.319999999999993 4 6 C4.659999999999997 6.329999999999998 5.319999999999993 6.659999999999997 6 7 C4.343853426426705 7.382187670824607 2.675429756312255 7.713951017214981 1 8 C0 7 0 7 -0.0625 3.4375 C-0.04187500000000455 2.3031249999999943 -0.021249999999994884 1.1687500000000028 0 0 Z " fill="#36357A" transform="translate(107,100)"/>
<path d="M0 0 C0.3299999999999983 0 0.6599999999999966 0 1 0 C1.0244921875000017 0.39123046874999545 1.0244921875000017 0.39123046874999545 1.1484375 2.37109375 C1.2232031249999977 3.383007812499997 1.2979687499999955 4.394921874999994 1.375 5.4375 C1.4446093749999989 6.446835937499998 1.5142187499999977 7.4561718749999955 1.5859375 8.49609375 C1.7225781249999983 9.322382812499995 1.8592187499999966 10.148671875000005 2 11 C2.6599999999999966 11.329999999999998 3.319999999999993 11.659999999999997 4 12 C4.625 15.0625 4.625 15.0625 5 18 C4.010000000000005 17.67 3.019999999999996 17.340000000000003 2 17 C1.8762499999999989 16.195625000000007 1.7524999999999977 15.39125 1.625 14.5625 C1.5218749999999943 14.139687500000008 1.5218749999999943 14.139687500000008 1 12 C0.3400000000000034 11.670000000000002 -0.3199999999999932 11.340000000000003 -1 11 C-1.026881508038258 9.354254341213533 -1.046341232734406 7.708385865766317 -1.0625 6.0625 C-1.0741015625000045 5.145976562499996 -1.0857031249999949 4.229453125000006 -1.09765625 3.28515625 C-1 1 -1 1 0 0 Z " fill="#FCF200" transform="translate(67,92)"/>
<path d="M0 0 C0.6599999999999966 0 1.3199999999999932 0 2 0 C2.6599999999999966 1.6500000000000057 3.319999999999993 3.299999999999997 4 5 C4 4.010000000000005 4 3.019999999999996 4 2 C4.329999999999998 1.3400000000000034 4.659999999999997 0.6800000000000068 5 0 C5.659999999999997 1.6500000000000057 6.319999999999993 3.299999999999997 7 5 C7.659999999999997 5 8.319999999999993 5 9 5 C9 5.659999999999997 9 6.319999999999993 9 7 C7.019999999999996 7.659999999999997 5.040000000000006 8.319999999999993 3 9 C2.010000000000005 6.030000000000001 1.019999999999996 3.0600000000000023 0 0 Z " fill="#C8BF0E" transform="translate(66,104)"/>
<path d="M0 0 C0 0.990000000000002 0 1.9799999999999969 0 3 C-1.9732105315551252 4.372668195864435 -3.975431518038704 5.7042761715447625 -6 7 C-6.329999999999998 7.494999999999997 -6.329999999999998 7.494999999999997 -8 10 C-10.625 10.6875 -10.625 10.6875 -13 11 C-12.042700840647015 9.874119856610015 -11.084121051151257 8.749328504938077 -10.125 7.625 C-9.591328125000004 6.998515624999996 -9.057656249999994 6.372031249999999 -8.5078125 5.7265625 C-5.84811487795109 2.681002010503583 -3.786046979697119 1.3948594135726253 0 0 Z " fill="#FAF001" transform="translate(90,52)"/>
<path d="M0 0 C1.980000000000004 0 3.9599999999999937 0 6 0 C6 2.3100000000000023 6 4.6200000000000045 6 7 C4.349999999999994 7.329999999999998 2.700000000000003 7.659999999999997 1 8 C1.3299999999999983 6.680000000000007 1.6599999999999966 5.359999999999999 2 4 C1.6700000000000017 4.165000000000006 1.6700000000000017 4.165000000000006 0 5 C0 3.3499999999999943 0 1.7000000000000028 0 0 Z " fill="#201E6C" transform="translate(107,76)"/>
<path d="M0 0 C0.6599999999999966 0 1.3199999999999932 0 2 0 C2.3300000000000125 0.9899999999999949 2.6599999999999966 1.980000000000004 3 3 C4.319999999999993 3 5.639999999999986 3 7 3 C7.3300000000000125 4.319999999999993 7.659999999999997 5.640000000000001 8 7 C5.360000000000014 7 2.719999999999999 7 0 7 C0 4.689999999999998 0 2.3799999999999955 0 0 Z " fill="#CFC60B" transform="translate(127,64)"/>
<path d="M0 0 C5.875 3.75 5.875 3.75 7 6 C4.1875 6.625 4.1875 6.625 1 7 C0.009999999999990905 6.340000000000003 -0.9799999999999898 5.680000000000007 -2 5 C-1.3400000000000034 3.3499999999999943 -0.6800000000000068 1.7000000000000028 0 0 Z " fill="#FBF001" transform="translate(134,109)"/>
<path d="M0 0 C0.6599999999999966 0.9899999999999949 1.3199999999999932 1.980000000000004 2 3 C3.319999999999993 3 4.640000000000001 3 6 3 C6.329999999999998 4.319999999999993 6.659999999999997 5.640000000000001 7 7 C4.359999999999999 7 1.7199999999999989 7 -1 7 C-0.6700000000000017 4.689999999999998 -0.3400000000000034 2.3799999999999955 0 0 Z " fill="#CFC60B" transform="translate(86,64)"/>
<path d="M0 0 C2.4375 0.75 2.4375 0.75 5 2 C5.8125 4.125 5.8125 4.125 6 6 C5.340000000000003 6 4.680000000000007 6 4 6 C3.6699999999999875 6.989999999999995 3.3400000000000034 7.980000000000004 3 9 C0.11749016235698662 6.618796221077503 -0.6103898480471059 4.7012964435524935 -1 1 C-0.6700000000000017 0.6700000000000017 -0.3400000000000034 0.3400000000000034 0 0 Z " fill="#BAA311" transform="translate(125,105)"/>
<path d="M0 0 C2 1 2 1 3.1875 3.125 C5.611196811745231 6.9694845979407205 8.719948862657915 9.881704809156972 12 13 C11.670000000000002 13.659999999999997 11.340000000000003 14.319999999999993 11 15 C9.32737283317529 13.381135849251791 7.662044633031911 11.754727098500723 6 10.125 C5.071875000000006 9.220078125 4.143749999999997 8.315156250000001 3.1875 7.3828125 C1 5 1 5 1 3 C0.3400000000000034 3 -0.3199999999999932 3 -1 3 C-0.6700000000000017 2.010000000000005 -0.3400000000000034 1.019999999999996 0 0 Z " fill="#D1C70D" transform="translate(72,114)"/>
<path d="M0 0 C1.6500000000000057 0 3.3000000000000114 0 5 0 C5 2.3100000000000023 5 4.6200000000000045 5 7 C4.340000000000003 5.680000000000007 3.680000000000007 4.359999999999999 3 3 C2.4018749999999898 3.3506249999999937 1.803750000000008 3.7012500000000017 1.1875 4.0625 C-1 5 -1 5 -4 4 C-4 3.3400000000000034 -4 2.680000000000007 -4 2 C-2.680000000000007 2 -1.3600000000000136 2 0 2 C0 1.3400000000000034 0 0.6800000000000068 0 0 Z " fill="#C8B210" transform="translate(151,90)"/>
<path d="M0 0 C1.6500000000000057 0.3299999999999983 3.299999999999997 0.6599999999999966 5 1 C3.3499999999999943 2.980000000000004 1.7000000000000028 4.959999999999994 0 7 C-0.6599999999999966 6.670000000000002 -1.3199999999999932 6.340000000000003 -2 6 C-1.4939600796517283 3.8312574842216947 -1.0001618667763523 2.000323733552719 0 0 Z " fill="#D1BE0E" transform="translate(95,109)"/>
<path d="M0 0 C4.875 2.75 4.875 2.75 6 5 C3.6899999999999977 5.659999999999997 1.3799999999999955 6.319999999999993 -1 7 C-0.6700000000000017 4.689999999999998 -0.3400000000000034 2.3799999999999955 0 0 Z " fill="#125A32" transform="translate(71,79)"/>
<path d="M0 0 C0.8249999999999886 0.3299999999999983 0.8249999999999886 0.3299999999999983 5 2 C1.9938273122716055 5.006172687728409 -0.8238159782924015 4.595853159189588 -5 5 C-3.3499999999999943 3.3499999999999943 -1.6999999999999886 1.7000000000000028 0 0 Z " fill="#CF9C0F" transform="translate(131,114)"/>
<path d="M0 0 C4.041619552838938 1.3448471366714614 6.386781544423712 3.0505161992249157 9.3125 6.125 C10.009882812499995 6.849453124999997 10.707265624999991 7.573906249999993 11.42578125 8.3203125 C11.945273437499992 8.874609375000006 12.464765625000013 9.428906249999997 13 10 C8.8773139503445 10 7.7966952772574984 8.322772976510919 4.8125 5.5625 C3.911445312500007 4.738789062500004 3.0103906250000136 3.9150781249999937 2.08203125 3.06640625 C1.3949609375000023 2.384492187500001 0.7078906250000045 1.7025781250000023 0 1 C0 0.6700000000000017 0 0.3400000000000034 0 0 Z " fill="#D4C80B" transform="translate(137,100)"/>
<path d="M0 0 C1.0248622582734725 2.0497245165469593 2.034415205744466 4.080302146737068 2.9375 6.1875 C4 8 4 8 7 9 C7 10.319999999999993 7 11.64 7 13 C6.340000000000003 13 5.680000000000007 13 5 13 C1.8006806545458574 9.541545754291008 -0.7176781637308665 5.799471216575256 -1 1 C-0.6700000000000017 0.6700000000000017 -0.3400000000000034 0.3400000000000034 0 0 Z " fill="#C6A093" transform="translate(84,102)"/>
<path d="M0 0 C0 1.6500000000000057 0 3.299999999999997 0 5 C-1.4849999999999994 4.670000000000002 -1.4849999999999994 4.670000000000002 -9 3 C-6.317950789866927 0.31795078986692715 -3.7339154581007676 0 0 0 Z " fill="#DAD10A" transform="translate(82,64)"/>
<path d="M0 0 C0.6599999999999966 0.6599999999999966 1.3199999999999932 1.3199999999999932 2 2 C-0.6399999999999864 4.640000000000001 -3.280000000000001 7.280000000000001 -6 10 C-6.3300000000000125 9.340000000000003 -6.659999999999997 8.680000000000007 -7 8 C-4.689999999999998 5.359999999999999 -2.3799999999999955 2.719999999999999 0 0 Z " fill="#FCF201" transform="translate(143,117)"/>
<path d="M0 0 C2.3100000000000023 0 4.6200000000000045 0 7 0 C7.329999999999998 0.9899999999999949 7.659999999999997 1.980000000000004 8 3 C5.359999999999999 3 2.719999999999999 3 0 3 C0 2.010000000000005 0 1.019999999999996 0 0 Z " fill="#D7CC0B" transform="translate(85,89)"/>
<path d="M0 0 C0.9899999999999949 0.3299999999999983 1.980000000000004 0.6599999999999966 3 1 C3 1.6599999999999966 3 2.319999999999993 3 3 C1.8449999999999989 3.4950000000000045 1.8449999999999989 3.4950000000000045 -4 6 C-4 5.010000000000005 -4 4.019999999999996 -4 3 C-2.680000000000007 2.6700000000000017 -1.3599999999999994 2.3400000000000034 0 2 C0 1.3400000000000034 0 0.6800000000000068 0 0 Z " fill="#FBF101" transform="translate(75,109)"/>
<path d="M0 0 C1.3199999999999932 1.3199999999999932 2.6400000000000006 2.6400000000000006 4 4 C2.680000000000007 3.6700000000000017 1.3599999999999994 3.3400000000000034 0 3 C-0.3299999999999983 3.6599999999999966 -0.6599999999999966 4.319999999999993 -1 5 C-1.9899999999999949 4.010000000000005 -2.980000000000004 3.019999999999996 -4 2 C-2.680000000000007 1.3400000000000034 -1.3599999999999994 0.6800000000000068 0 0 Z " fill="#C2AF0F" transform="translate(94,105)"/>
<path d="M0 0 C0 0.3299999999999983 0 0.6599999999999966 0 1 C-6.0546875 1.9765625 -6.0546875 1.9765625 -8 2 C-8.659999999999997 1.3400000000000034 -9.319999999999993 0.6800000000000068 -10 0 C-6.423551516126892 -1.238001398263762 -3.6630523425623664 -0.7492607064332191 0 0 Z " fill="#E4DA07" transform="translate(89,117)"/>
<path d="M0 0 C0.3299999999999983 0.6599999999999966 0.6599999999999966 1.3199999999999932 1 2 C3.5625 2.625 3.5625 2.625 6 3 C6 3.3299999999999983 6 3.6599999999999966 6 4 C3.6899999999999977 4 1.3799999999999955 4 -1 4 C-1.3299999999999983 3.010000000000005 -1.6599999999999966 2.019999999999996 -2 1 C-1.3400000000000034 0.6700000000000017 -0.6800000000000068 0.3400000000000034 0 0 Z " fill="#BFB810" transform="translate(77,113)"/>
</svg>
