<?xml version="1.0" encoding="UTF-8"?>
<!-- Generator: visioncortex VTracer 0.6.12 -->
<svg version="1.1" xmlns="http://www.w3.org/2000/svg" width="1280" height="503">
<path d="M0 0 C422.40000000000003 0 844.8000000000001 0 1280 0 C1280 165.99 1280 331.98 1280 503 C857.5999999999999 503 435.19999999999993 503 0 503 C0 337.01 0 171.01999999999998 0 0 Z " fill="#8A1538" transform="translate(0,0)"/>
<path d="M0 0 C61.648125 -0.14437499999999998 123.29625 -0.28874999999999995 186.8125 -0.43749999999999994 C206.24874267578124 -0.5012280273437499 225.6849853515625 -0.5649560546875 245.710205078125 -0.630615234375 C269.5189208984374 -0.6622314453125 269.5189208984374 -0.6622314453125 280.6792449951172 -0.6681060791015625 C288.4423778322458 -0.6746044961932715 296.2051535444986 -0.7001558070351123 303.9681854248047 -0.7390289306640625 C312.9424100635457 -0.7838998358269037 321.91629510135374 -0.8037793587676271 330.8906324915588 -0.7941146530210972 C335.4718253104734 -0.7899359921925032 340.0522613281359 -0.7960931728656866 344.6333118677139 -0.8345059156417847 C365.6696373008188 -1.002414773671012 383.83001906747586 0.46969850651960865 404 7 C405.57613551593715 7.472985225899815 407.15389640346353 7.940609981918197 408.7337007522583 8.401192665100098 C411.30585652925606 9.151611962229754 413.8729255664461 9.912237099805093 416.4375 10.6875 C423.583331105524 12.789215031036473 430.82249207577144 14.55885848691839 438.037353515625 16.4052734375 C445.2194046990017 18.252505701863107 452.3477044876695 20.214589690545907 459.447021484375 22.356201171875 C465.251774545621 24.101686358123793 471.1028188530298 25.602402155920363 477 27 C477 27.66 477 28.32 477 29 C476.28013916015624 29.1783740234375 475.5602783203125 29.356748046875 474.818603515625 29.54052734375 C452.21410752200035 35.17737755019693 429.75805179860026 41.328883163070785 407.3125 47.5625 C406.56520252227784 47.77003654479981 405.8179050445557 47.97757308959961 405.0479621887207 48.19139862060547 C395.69712296728545 50.78882149636245 386.3478541244705 53.391853805309765 377 56 C377.5636375427246 56.13902740478515 378.12727508544924 56.278054809570314 378.70799255371094 56.421295166015625 C381.30448718553146 57.06286831352319 383.90029030225315 57.707198769326055 386.49609375 58.3515625 C387.3824450683594 58.57013916015625 388.26879638671875 58.7887158203125 389.1820068359375 59.013916015625 C394.5199734229903 60.34135335122398 399.79780024550956 61.781437654958005 405.0625 63.375 C412.4934914736284 65.61333718841772 419.98164732232874 67.57597956489502 427.5 69.5 C436.3771223580534 71.77424351000211 445.19471473801894 74.1589821640851 453.96875 76.80078125 C461.27502701934395 78.99596538457699 468.64428426308064 80.97825356938473 476 83 C475 85.00000000000001 475 85.00000000000001 473.216064453125 85.6826171875 C472.43964599609376 85.885322265625 471.6632275390625 86.08802734375 470.86328125 86.296875 C470.425322265625 86.41353515624999 470.425322265625 86.41353515624999 468.208984375 87.00390625 C467.25314453125 87.2501171875 466.2973046875 87.496328125 465.3125 87.75 C463.28770449155036 88.28624721228347 461.2629664504511 88.82271145289249 459.23828125 89.359375 C458.71854736328123 89.495693359375 458.71854736328123 89.495693359375 456.08837890625 90.185546875 C451.38378760553263 91.42622012236704 446.69227903418806 92.71370120561672 442 94 C440.16673818009866 94.50026214208462 438.33340454887724 95.00026119695646 436.5 95.5 C435.5925 95.7475 434.685 95.995 433.75 96.25 C425.4999999997524 98.50000000006752 425.4999999997524 98.50000000006752 422.746826171875 99.250732421875 C420.9239819733814 99.74796012120633 419.10122717289 100.24551567763075 417.278564453125 100.743408203125 C412.53544924867373 102.0386059556338 407.79064920638916 103.327098364854 403.04296875 104.60546875 C402.06263671875 104.87037109375 401.0823046875 105.1352734375 400.072265625 105.408203125 C398.21346735844986 105.91034294108226 396.35413100596463 106.41049721450257 394.494140625 106.908203125 C388.92520087295543 108.41549007835854 383.452110354442 110.1132078309548 378 112 C378.72888427734375 112.18586669921875 379.4577685546875 112.3717333984375 380.208740234375 112.563232421875 C404.74004571610806 118.83275170109242 404.74004571610806 118.83275170109242 415.5947265625 122.09130859375 C435.93005795892265 128.1919080126768 456.4769700774746 133.57324749951246 477 139 C474.61595239482244 141.38404760517753 473.13116734391775 141.6712818352099 469.890625 142.515625 C468.837138671875 142.79414306640626 467.78365234375 143.0726611328125 466.6982421875 143.359619140625 C465.560322265625 143.65344482421875 464.42240234375 143.9472705078125 463.25 144.25 C460.8644856076296 144.87853546335427 458.4790704273295 145.50744758121425 456.09375 146.13671875 C454.8962109375 146.4504443359375 453.698671875 146.764169921875 452.46484375 147.08740234375 C447.5513592891356 148.38155432477532 442.6501602523741 149.71893652810041 437.75 151.0625 C435.9531548332704 151.5534946076297 434.1562798925323 152.04438026738234 432.359375 152.53515625 C431.47701171875 152.7763720703125 430.5946484375 153.017587890625 429.685546875 153.26611328125 C426.04228722991746 154.26171678062437 422.39850724504515 155.2554070437064 418.754638671875 156.248779296875 C416.931764582134 156.7458974014689 415.10900876671445 157.24344942649466 413.286376953125 157.741455078125 C408.4941358696369 159.05038512184228 403.69985328922775 160.3511275988287 398.90234375 161.640625 C397.90396484375 161.9100390625 396.9055859375 162.179453125 395.876953125 162.45703125 C393.96615417474976 162.97250259471866 392.05472703516745 163.4856528808987 390.142578125 163.99609375 C385.9850843074226 165.12007639523003 381.95198042493695 166.25817078984068 378 168 C379.2465234375 168.3029296875 380.493046875 168.605859375 381.77734375 168.91796875 C389.9212399189929 170.91505679619144 398.0370292460493 172.94069106535338 406.0625 175.375 C413.4897811512582 177.62495224951772 420.98222462717877 179.57612730288713 428.5 181.5 C437.3771223580534 183.77424351000212 446.19471473801894 186.15898216408507 454.96875 188.80078125 C462.2750270193442 190.99596538457706 469.6442842630805 192.97825356938472 477 195 C474.2977630870098 196.8014912753268 472.71591052270696 197.49024604237607 469.66796875 198.296875 C468.79849609375 198.5301953125 467.9290234375 198.763515625 467.033203125 199.00390625 C466.563662109375 199.12701171875 466.563662109375 199.12701171875 464.1875 199.75 C462.18095065981606 200.28631272686943 460.17444133020865 200.82277516728905 458.16796875 201.359375 C457.6545190429688 201.495693359375 457.6545190429688 201.495693359375 455.05615234375 202.185546875 C450.3649344159679 203.4357388391381 445.68271621494546 204.71840562259314 441 206 C439.1667155847597 206.5001793317881 437.3333820718171 207.00017874209792 435.5 207.5 C434.5925 207.7475 433.685 207.995 432.75 208.25 C424.49999999719336 210.50000000076543 424.49999999719336 210.50000000076543 421.746337890625 211.2509765625 C419.9251965432499 211.74766619302244 418.10407007749336 212.24441039129573 416.282958984375 212.7412109375 C411.5132130277567 214.04232274787245 406.743161245741 215.34229872482004 401.97265625 216.640625 C400.98330078125 216.9100390625 399.9939453125 217.179453125 398.974609375 217.45703125 C397.0892887558283 217.9704049397275 395.2038779066859 218.483447430353 393.318359375 218.99609375 C388.53592567148763 220.2987581598356 383.7625355864082 221.6263162662333 379 223 C381.57504178929565 224.71669452619713 382.96686766806533 225.40846455849822 385.833251953125 226.1761474609375 C386.60714263916014 226.38636032104492 387.3810333251953 226.59657318115234 388.1783752441406 226.8131561279297 C389.02314422607424 227.0365919494629 389.8679132080078 227.2600277709961 390.73828125 227.490234375 C391.18475509643554 227.61069374084474 391.18475509643554 227.61069374084474 393.4441833496094 228.2202911376953 C395.38330430983626 228.7427172967638 397.32311376772543 229.26259303090154 399.2635192871094 229.7802276611328 C402.33245243009486 230.5990736635864 405.39946807978106 231.42476824711812 408.466064453125 232.2523193359375 C414.9757296198909 234.00769908210657 421.4876914979073 235.75445621525668 428 237.5 C435.54528703583935 239.5224209103855 443.08959871768604 241.54833280920778 450.6314392089844 243.5835723876953 C453.65650650848266 244.39790669358626 456.6833010048696 245.20558578960092 459.710205078125 246.0130615234375 C461.56079750245334 246.511636863539 463.4113066493913 247.01052144760806 465.26171875 247.509765625 C466.1064877319336 247.7332014465332 466.95125671386717 247.9566372680664 467.8216247558594 248.1868438720703 C468.5955154418945 248.39705673217773 469.36940612792966 248.60726959228515 470.166748046875 248.8238525390625 C470.83852584838866 249.00376991271972 471.51030364990237 249.18368728637697 472.2024383544922 249.36905670166016 C474.00000000000006 250.00000000000003 474.00000000000006 250.00000000000003 477 252 C464.6166351156574 255.45511168377953 452.2196991659214 258.8582366644219 439.814453125 262.23388671875 C435.20915085786186 263.48748131575553 430.60461845614174 264.7438965248864 426 266 C425.5489489746094 266.12298461914065 425.5489489746094 266.12298461914065 423.266357421875 266.745361328125 C418.5951765252898 268.0190169447267 413.92429778335816 269.29376517826586 409.25390625 270.5703125 C398.8448261769674 273.41431375397497 388.4311360286188 276.23786117622245 378 279 C381.5536398865528 280.5012464527591 385.05742656009744 281.6092696196818 388.796875 282.55078125 C389.91126953125 282.834375 391.0256640625 283.11796875 392.173828125 283.41015625 C393.35396484375 283.7079296875 394.5341015625 284.005703125 395.75 284.3125 C403.37056882615934 286.2588616421431 410.97493705047526 288.2094696794225 418.5 290.5 C425.7801842109884 292.71117607117833 433.129784900477 294.61290596061656 440.5 296.5 C452.7798634661822 299.6467415976036 464.98669844158036 302.9342425047309 477 307 C474.34084314090546 308.40733828688184 471.813099861495 309.43717120176194 468.91241455078125 310.2275695800781 C468.5099929046631 310.3383282470703 468.5099929046631 310.3383282470703 466.47349548339844 310.8988342285156 C465.59955642700197 311.134762878418 464.72561737060545 311.3706915283203 463.8251953125 311.61376953125 C462.8980220031738 311.86765441894534 461.97084869384764 312.1215393066406 461.0155792236328 312.38311767578125 C457.9541703410723 313.2203468585828 454.89117241688956 314.05159991765464 451.828125 314.8828125 C449.70381819379855 315.46251316396797 447.57961293475614 316.042586064733 445.45550537109375 316.6230163574219 C439.86699690196554 318.14904792705994 434.27712246499755 319.6700159533721 428.68695068359375 321.18994140625 C422.9818747412014 322.7420673396813 417.27810218119953 324.29896735658167 411.57421875 325.85546875 C400.38408453645195 328.9083254999313 389.1925017785663 331.9558356984637 378 335 C379.43236846457506 335.4821524304211 380.8651467995788 335.96308733373877 382.298095703125 336.4435119628906 C383.0959297180176 336.7114638710022 383.89376373291014 336.97941577911376 384.7157745361328 337.2554874420166 C387.5146244586545 338.1677349185422 390.3331376462099 338.9296623035783 393.1875 339.6484375 C394.28900390625 339.92880859375 395.3905078125 340.2091796875 396.525390625 340.498046875 C397.67201171875 340.78744140625 398.8186328125 341.0768359375 400 341.375 C407.5373602000747 343.30072084383266 415.05642960932505 345.2364247835328 422.5 347.5 C429.7612347484423 349.7027123247014 437.08880671572433 351.61156259863185 444.4375 353.5 C461.93855141283365 358.0087330530765 461.93855141283365 358.0087330530765 468.625 359.8125 C469.3706420898437 360.0071484375 470.1162841796875 360.201796875 470.884521484375 360.40234375 C472.6077098318135 360.87330296152174 474.30765509343576 361.42803026575615 476 362 C476.33 362.66 476.66 363.32 477 364 C476.6987622070312 364.0777868652344 476.6987622070312 364.0777868652344 475.17431640625 364.471435546875 C463.6135751982505 367.46090411698304 452.0722348998359 370.50024976963294 440.57421875 373.72265625 C432.67690454737846 375.9348713152872 424.75875460418376 378.0718373132017 416.84521484375 380.22509765625 C413.97581143934184 381.00658782319624 411.10696281180407 381.7900832883511 408.23828125 382.57421875 C397.8345241467151 385.41734355551927 387.42594817548115 388.23923490680403 377 391 C377.60771240234374 391.15557373046875 378.2154248046875 391.3111474609375 378.841552734375 391.471435546875 C399.28929107540915 396.7196306094462 399.28929107540915 396.7196306094462 408.375 399.4375 C431.0956331725398 406.21949273145407 454.0220876848102 412.16538316678015 477 418 C477 418.66 477 419.32 477 420 C476.053828125 420.2307421875 475.10765625 420.461484375 474.1328125 420.69921875 C465.31703516332544 422.8664400947503 456.5608184098479 425.20049038920916 447.8203125 427.65234375 C442.6370409033943 429.1059273446734 437.44420599784905 430.52356498690864 432.25 431.9375 C431.7905700683594 432.0627404785156 431.7905700683594 432.0627404785156 429.465576171875 432.696533203125 C424.74782376383314 433.98199859252355 420.0289307177034 435.26312047919197 415.30859375 436.5390625 C413.4348332097369 437.0466438785298 411.5611346011643 437.5544539396895 409.6875 438.0625 C408.7797583007812 438.30814697265623 407.8720166015625 438.5537939453125 406.936767578125 438.806884765625 C402.6137128761861 439.9844084738503 398.30520860508267 441.19371567994017 394.015625 442.48828125 C393.24001220703127 442.72216552734375 392.4643994140625 442.9560498046875 391.665283203125 443.197021484375 C390.22950930946087 443.6339687833016 388.7955756327773 444.0770327132446 387.364013671875 444.527587890625 C383.8072013598044 445.61392932652365 380.7231681904933 446.24297066886135 377 446 C377 446.66 377 447.32 377 448 C377.961640625 448.11859375 378.92328125 448.2371875 379.9140625 448.359375 C384.48003282653934 449.01460205137494 388.90792746314764 450.11491352989617 393.375 451.25 C394.2585717773438 451.4725244140625 395.1421435546875 451.695048828125 396.052490234375 451.92431640625 C402.1059553356505 453.46800712036804 408.09360736331894 455.17324052848005 414.07177734375 456.9833984375 C420.83414755339356 459.0054109996095 427.66283672855053 460.7505209888399 434.5 462.5 C442.8641837237445 464.6404270736222 451.1812714220551 466.8627183138091 459.447021484375 469.356201171875 C465.251774545621 471.1016863581238 471.1028188530298 472.60240215592034 477 474 C477 474.66 477 475.32 477 476 C476.3672314453125 476.15557373046875 475.734462890625 476.3111474609375 475.08251953125 476.471435546875 C462.4428435479369 479.58620467823044 449.85236666826086 482.8088179969029 437.3251953125 486.34814453125 C432.9732688481519 487.5681827147663 428.6111687667526 488.75101118097996 424.25 489.9375 C423.3326708984375 490.1874169921875 422.415341796875 490.437333984375 421.47021484375 490.69482421875 C416.71507802139763 491.9900202717411 411.9592605970953 493.28269573348234 407.203125 494.57421875 C406.7253662109375 494.7041320800781 406.7253662109375 494.7041320800781 404.3076171875 495.361572265625 C402.5168128463396 495.848515324304 400.7258168373249 496.33475442178684 398.9345703125 496.820068359375 C398.100224609375 497.0470239257813 397.26587890625 497.2739794921875 396.40625 497.5078125 C395.592796369791 497.7256546998024 394.77934273958203 497.9434968996048 393.94123899936676 498.1679403781891 C391.9380949590132 498.7346183234388 389.9479155711104 499.3487647917923 387.9719032049179 500.0038106441498 C378.8732563589763 502.9158510961236 370.5016342407348 503.56096597899506 361.0040588378906 503.48101806640625 C359.440676072743 503.4827722532083 357.87729447885556 503.4862881312403 356.3139190673828 503.49139404296875 C352.0487755876703 503.5002927805542 347.784039886339 503.48441377562347 343.51894810795784 503.4642909169197 C338.8373638562339 503.4467256946486 334.1557960656434 503.4526758179671 329.47418785095215 503.45556259155273 C320.40141549176917 503.4576825244105 311.3288024954797 503.43927887651984 302.2560709938407 503.4135572761297 C291.75362498454416 503.38467786043714 281.2512737308744 503.38157394739756 270.748779296875 503.37841796875 C243.04082773702214 503.35744448837 215.3329114513937 503.3015997263282 187.625 503.25 C125.70875 503.1675 63.79249999999999 503.085 0 503 C0 337.01 0 171.01999999999998 0 0 Z " fill="#FEFEFE" transform="translate(0,0)"/>
</svg>
