<?xml version="1.0" encoding="UTF-8"?>
<!-- Generator: visioncortex VTracer 0.6.12 -->
<svg version="1.1" xmlns="http://www.w3.org/2000/svg" width="1280" height="854">
<path d="M0 0 C422.40000000000003 0 844.8000000000001 0 1280 0 C1280 281.82 1280 563.64 1280 854 C857.5999999999999 854 435.19999999999993 854 0 854 C0 572.1800000000001 0 290.36 0 0 Z " fill="#007749" transform="translate(0,0)"/>
<path d="M0 0 C371.25 0 742.5 0 1125 0 C1125 112.53 1125 225.06 1125 341 C972.2610551524763 342.17098063110103 972.2610551524763 342.17098063110103 913.5228345394135 342.39678394794464 C898.1660034808269 342.45596903008226 882.8091787563521 342.51651338228606 867.4523700028658 342.5812538191676 C865.5952345201516 342.5890794074613 863.7380988565025 342.59686217724305 861.8809630125761 342.60460156947374 C832.362788054485 342.72796936243026 802.8462419677204 342.94529306422226 773.3290484435856 343.21261940244585 C742.949325717363 343.48725249518895 712.5705007586301 343.66492660979424 682.1895578233525 343.7235347123351 C677.8818805817475 343.7318891268544 673.5742063643843 343.74133253333764 669.2665328979492 343.7514400482178 C668.8426974313427 343.7524176818528 668.8426974313427 343.7524176818528 666.6978331003338 343.7573651005514 C653.1445220928482 343.79141211369074 639.5940171736348 343.9252914613992 626.0418431200087 344.09812898468226 C612.3605452049401 344.2704237621161 598.6819800703284 344.3336925021281 584.9996390044689 344.29153994470835 C577.6070724916324 344.2716466631154 570.2219622433493 344.2961710485757 562.8309192657471 344.45695877075195 C525.0955021328579 345.2460495259396 500.52380085859045 339.9144546100949 470.86713552474976 315.83391416072845 C463.31202243472785 309.7634575373904 455.15988331413314 304.53244453530124 447.07407703995705 299.2047468200326 C442.61963094834505 296.25467862401274 438.20233571264794 293.24972599797695 433.78125 290.25 C422.91282196141333 282.91064755997127 411.96219493156434 275.6982429835427 401 268.5 C385.5299351687827 258.3416980977395 370.14806359272643 248.06275981327752 354.82275390625 237.6875 C341.2810824495501 228.5231090342261 327.66790395573577 219.474926496319 314 210.5 C298.52993516878263 200.34169809773945 283.14806359272643 190.0627598132775 267.82275390625 179.6875 C254.28108244955013 170.52310903422605 240.66790395573582 161.474926496319 227 152.5 C211.52993516878269 142.34169809773948 196.14806359272643 132.06275981327747 180.82275390625 121.6875 C167.28108244955013 112.52310903422608 153.66790395573582 103.47492649631899 140 94.5 C124.5339879586972 84.34435933180328 109.1558042176581 74.06859331953564 93.8348388671875 63.695556640625 C80.04072285355642 54.35957654983403 66.17102777939374 45.145549129668105 52.25 36 C39.037606669946854 27.317105056491542 25.85073932912684 18.60069276115854 12.75 9.75 C12.41631408691407 9.525380859375 12.41631408691407 9.525380859375 10.7276611328125 8.388671875 C8.894026858101626 7.153439549386894 7.063614032555705 5.91360366221744 5.234375 4.671875 C4.2156933593749955 3.981904296875 3.197011718749991 3.2919335937499996 2.1474609375 2.5810546875 C1.4387988281249875 2.059306640625 0.7301367187500034 1.53755859375 0 1 C0 0.6699999999999999 0 0.33999999999999997 0 0 Z " fill="#E03C31" transform="translate(155,0)"/>
<path d="M0 0 C7.26644097514918 0.10120884338834912 14.531710357234033 0.0885145311750648 21.798682948574424 0.07340508280321956 C35.2028980008846 0.04859755348172712 48.605316712862646 0.11131925245808816 62.00900956429541 0.22573581198230386 C75.26036708217475 0.3385594198499575 88.5109746455156 0.4113680790668468 101.76280900277197 0.43193927267566323 C102.17636433498001 0.4325922992429696 102.17636433498001 0.4325922992429696 104.26920495554805 0.435897009447217 C108.47050030149103 0.44232625581480534 112.67179629383656 0.4480522066885442 116.87309300340712 0.45350765297189355 C146.55152794366813 0.493306667607726 176.2289881563995 0.6210086532786363 205.90687485970557 0.8012572810985148 C234.71997478990397 0.9760503358400001 263.5328048376972 1.1101745485021866 292.34632798470557 1.1909057185985148 C294.16144200937833 1.1960479127872077 295.97655603067506 1.2011912987761661 297.7916700486094 1.206335871014744 C312.5426768321654 1.2479288034294314 327.2936909374605 1.2867353089684457 342.04470702447 1.3248670459724963 C410.1311973429133 1.5028765828202495 478.2151405248769 1.8843014561551854 546.3014061097056 2.234606890473515 C546.3014061097056 96.28460689047347 546.3014061097056 190.33460689047354 546.3014061097056 287.2346068904735 C208.71140610970554 287.2346068904735 -128.8785938902945 287.2346068904735 -476.69859389029443 287.2346068904735 C-471.07444155724556 281.61045455742465 -471.07444155724556 281.61045455742465 -467.77427748404443 279.4650756404735 C-467.03080061636865 278.9772863338328 -466.28732374869287 278.48949702719233 -465.5213172789663 277.986926226411 C-464.7213029357046 277.4705358455517 -463.92128859244286 276.95414546469226 -463.09703139029443 276.4221068904735 C-462.24505171500147 275.86478877523916 -461.3930720397085 275.3074706600048 -460.51527479849756 274.733264117036 C-458.67151270656444 273.52768987567435 -456.82606120451976 272.3246962315643 -454.97911146841943 271.1240111873485 C-449.97841962518794 267.87215384974934 -444.9911361626829 264.5998572770088 -440.00328139029443 261.3283568904735 C-438.9756770201773 260.6548620174267 -437.94807265006006 259.98136714437976 -436.8893287535757 259.287463335786 C-426.5951551480001 252.5305543931638 -416.3919601416343 245.64224690167362 -406.19859389029443 238.73460689047351 C-390.8554517140569 228.34454691037342 -375.4275350965007 218.0929705482548 -359.93833998404443 207.92210689047351 C-346.2910705112157 198.95755826489574 -332.71961601717885 189.88836106428255 -319.19859389029443 180.73460689047351 C-303.85417230847736 170.34640829267937 -288.42756479154855 160.09299004728496 -272.93833998404443 149.92210689047351 C-259.2910705112157 140.95755826489574 -245.71961601717885 131.88836106428255 -232.19859389029443 122.73460689047351 C-216.85417230847736 112.34640829267937 -201.42756479154855 102.09299004728496 -185.93833998404443 91.92210689047351 C-171.39521581251415 82.3690938087675 -156.9445954130158 72.68735805041274 -142.5364539977163 62.932177691254765 C-126.98163219889898 52.404324570820904 -111.33042813424663 42.02934277705742 -95.61656264029443 31.740466265473515 C-94.83180359326298 31.22306949296967 -94.04704454623163 30.705672720465827 -93.23850492201746 30.172597257886082 C-91.52500427832729 29.05351554408719 -89.8019007815385 27.94890346107661 -88.06659797392786 26.863936869893223 C-83.1366080354245 23.730121977011777 -78.78919877283954 20.485171991408606 -74.55588988028467 16.453046946320683 C-53.00403339334014 -2.756536806178133 -27.394718404232663 -0.39705488801541833 0 0 Z " fill="#001489" transform="translate(733.6985938902944,566.7653931095265)"/>
<path d="M0 0 C6.756889743989812 4.299838927993505 13.49834836280925 8.606045189219117 20.1875 13.0078125 C21.030989990234374 13.562300720214836 21.87447998046875 14.1167889404297 22.7435302734375 14.688079833984375 C25.496582822119596 16.49902970071264 28.248446657984587 18.311773145160686 31 20.125 C31.95962646484375 20.757043457031244 32.9192529296875 21.38908691406249 33.907958984375 22.040283203125 C49.06417859785519 32.02753932224249 64.13793230051016 42.131287335274465 79.16845703125 52.30645751953125 C92.71305085513652 61.47287926014991 106.32912132029774 70.52312017352648 120 79.5 C135.47006483121731 89.65830190226052 150.8519364072736 99.93724018672253 166.17724609375 110.3125 C179.71891755045 119.47689096577403 193.33209604426415 128.52507350368097 207 137.5 C222.47006483121731 147.65830190226052 237.8519364072736 157.93724018672253 253.17724609375 168.3125 C266.71891977898895 177.4768924739484 280.33217770021247 186.52494608477082 294 195.5 C313.40758584214313 208.24479311277992 332.66954919881704 221.19687606114212 351.9007110595703 234.2058868408203 C362.23149426454506 241.19071320941532 372.6072953340715 248.10767972789364 383 255 C378.92995754153213 259.43157646137234 374.43956135739745 262.55857350404824 369.3984375 265.8125 C368.54645782470703 266.36981811523435 367.69447814941407 266.92713623046876 366.8166809082031 267.5013427734375 C364.97291881627 268.70691701479916 363.1274673142253 269.90991065890927 361.280517578125 271.110595703125 C356.2798257348935 274.36245304072423 351.29254227238846 277.6347496134647 346.3046875 280.90625 C345.27708312988284 281.5797448730469 344.2494787597656 282.25323974609375 343.19073486328125 282.9471435546875 C332.8965612577057 289.7040524973097 322.69336625133985 296.59235998879996 312.5 303.5 C297.15685782376255 313.8900599801001 281.7289412062063 324.1416363422187 266.23974609375 334.3125 C252.59247662092133 343.2770486255778 239.0210221268844 352.34624582619097 225.5 361.5 C210.15557841818293 371.88819859779414 194.7289709012541 382.14161684318856 179.23974609375 392.3125 C165.59247662092125 401.2770486255779 152.02102212688445 410.34624582619097 138.5 419.5 C123.16059661172712 429.8848012725276 107.7394080143007 440.1354661196333 92.25485229492188 450.30242919921875 C78.28827921282817 459.4758297512519 64.40178350854436 468.76076161663764 50.5625 478.125 C38.0463832399006 486.5922992460455 25.51176217019469 495.02601240248305 12.875 503.3125 C12.257871398925781 503.7181719970704 11.640742797851562 504.12384399414054 11.004913330078125 504.54180908203125 C9.314984627846153 505.65173217352276 7.622421994548471 506.7576419694842 5.9296875 507.86328125 C4.9936669921875 508.4746997070313 4.057646484375 509.08611816406255 3.09326171875 509.716064453125 C0.9999999999999751 511 0.9999999999999751 511 0 511 C0 342.37 0 173.74 0 0 Z " fill="#000000" transform="translate(0,171)"/>
<path d="M0 0 C106.7250423840785 -5.823675895798049 106.7250423840785 -5.823675895798049 134.83273315429688 18.674148559570313 C137.08771798973328 20.714408260253183 139.28494072013882 22.80533071476955 141.48193359375 24.90771484375 C148.51183700255973 31.498237159951586 156.69880553327022 36.49971217201515 164.76333618164063 41.716705322265625 C169.2899764760437 44.66640396295081 173.74928567487473 47.71469693265256 178.21875 50.75 C189.08619531184416 58.09079116187762 200.03782581963162 65.3017706425743 211 72.5 C226.47006483121731 82.65830190226052 241.85193640727357 92.93724018672252 257.17724609375 103.3125 C270.71891755045004 112.47689096577402 284.3320960442641 121.52507350368094 298 130.5 C313.4700648312173 140.6583019022605 328.8519364072736 150.93724018672253 344.17724609375 161.3125 C357.71891755045 170.47689096577403 371.33209604426406 179.52507350368094 385 188.5 C399.5689989105092 198.06662373179023 414.0671060083696 207.72924795603004 428.5 217.5 C444.8004177056812 228.53399404890052 461.18514655090144 239.43205533433587 477.642578125 250.23046875 C478.4162403100729 250.74120000958442 479.1899024951458 251.25193126916886 479.98700898885727 251.77813923358917 C481.7000158098866 252.89742924983844 483.4229427136095 254.00177121060534 485.158041536808 255.08649909496307 C489.9419261480177 258.1231497812044 494.4045920497765 261.26526719561383 498.63882016018033 265.02067502588034 C522.9577849903552 286.424746037703 548.1607799586079 286.1393966664564 579.2866469989531 285.6683843890205 C586.5468619432619 285.56330331294845 593.8053106174591 285.59045505400263 601.0660141566768 285.62002337537706 C614.4569822852561 285.67102650451005 627.845715176826 285.62118252799723 641.2362537384033 285.51125717163086 C654.4696395740883 285.4029609069581 667.7019435673344 285.34108815088166 680.9357891082764 285.33948135375977 C681.3491725913877 285.33941839112435 681.3491725913877 285.33941839112435 683.4411435513757 285.33909976202995 C687.6408949597577 285.3386967787469 691.8406458720623 285.3391064527893 696.0403972193599 285.3398286253214 C725.6883519384684 285.3434706668117 755.3351727290382 285.245641461752 784.982666015625 285.0869140625 C813.7616543837063 284.93307175622897 842.5402062053232 284.8259542807469 871.319580078125 284.78125 C872.2086851498207 284.77985048016535 873.0977902215159 284.77845096033064 874.0138378711417 284.77700903080404 C882.9436423827406 284.76300393853967 891.8734480673313 284.7499396947329 900.8032549780328 284.7375643267296 C918.9898130869178 284.7123390995871 937.176358541328 284.6808395610504 955.3628997802734 284.6455383300781 C956.1988515877258 284.6439234399237 957.0348033951782 284.6423085497692 957.8960870755836 284.6406447235495 C1013.597788862556 284.5323218280239 1069.2988971548566 284.27274531021436 1125 284 C1125 302.81 1125 321.62 1125 341 C1066.9893258524842 341.4910906561343 1008.9786791753415 341.95886001687694 950.9664916992188 342.2279510498047 C950.1055776217952 342.2319547048304 949.2446635443716 342.23595835985617 948.3576611615717 342.24008333776146 C929.6400598632142 342.32691187275384 910.9224359365826 342.4072422327723 892.2047782689333 342.4808945544064 C883.023395351187 342.51706196592625 873.8420185532868 342.5546627668205 864.66064453125 342.593017578125 C863.747069673501 342.5968095908221 862.8334948157519 342.6006016035192 861.8922358714044 342.6045085256919 C832.3703032126679 342.7277165404045 802.8499981989013 342.94525904542144 773.3290484435856 343.21261940244585 C742.949325717363 343.48725249518895 712.5705007586301 343.66492660979424 682.1895578233525 343.7235347123351 C677.8818805817475 343.7318891268544 673.5742063643843 343.74133253333764 669.2665328979492 343.7514400482178 C668.8426974313427 343.7524176818528 668.8426974313427 343.7524176818528 666.6978331003338 343.7573651005514 C653.1445220928482 343.79141211369074 639.5940171736348 343.9252914613992 626.0418431200087 344.09812898468226 C612.3605452049401 344.2704237621161 598.6819800703284 344.3336925021281 584.9996390044689 344.29153994470835 C577.6070724916324 344.2716466631154 570.2219622433493 344.2961710485757 562.8309192657471 344.45695877075195 C525.0955021328579 345.2460495259396 500.52380085859045 339.9144546100949 470.86713552474976 315.83391416072845 C463.31202243472785 309.7634575373904 455.15988331413314 304.53244453530124 447.07407703995705 299.2047468200326 C442.61963094834505 296.25467862401274 438.20233571264794 293.24972599797695 433.78125 290.25 C422.91282196141333 282.91064755997127 411.96219493156434 275.6982429835427 401 268.5 C385.5299351687827 258.3416980977395 370.14806359272643 248.06275981327752 354.82275390625 237.6875 C341.2810824495501 228.5231090342261 327.66790395573577 219.474926496319 314 210.5 C298.52993516878263 200.34169809773945 283.14806359272643 190.0627598132775 267.82275390625 179.6875 C254.28108244955013 170.52310903422605 240.66790395573582 161.474926496319 227 152.5 C211.52993516878269 142.34169809773948 196.14806359272643 132.06275981327747 180.82275390625 121.6875 C167.28108244955013 112.52310903422608 153.66790395573582 103.47492649631899 140 94.5 C124.5339879586972 84.34435933180328 109.1558042176581 74.06859331953564 93.8348388671875 63.695556640625 C80.04072285355642 54.35957654983403 66.17102777939374 45.145549129668105 52.25 36 C39.037606669946854 27.317105056491542 25.85073932912684 18.60069276115854 12.75 9.75 C12.41631408691407 9.525380859375 12.41631408691407 9.525380859375 10.7276611328125 8.388671875 C8.894026858101626 7.153439549386894 7.063614032555705 5.91360366221744 5.234375 4.671875 C4.2156933593749955 3.981904296875 3.197011718749991 3.2919335937499996 2.1474609375 2.5810546875 C1.4387988281249875 2.059306640625 0.7301367187500034 1.53755859375 0 1 C0 0.6699999999999999 0 0.33999999999999997 0 0 Z " fill="#FEFDFD" transform="translate(155,0)"/>
<path d="M0 0 C7.477850081643055 0.09037125782430167 14.954780705120129 0.0792117204174474 22.433042665477842 0.0656787664629519 C36.22826406972615 0.043458546102556284 50.022090393071835 0.09969670731015867 63.816906180698425 0.20197468204423785 C77.45868389884299 0.3028568107921501 91.09987944273735 0.3680539121058928 104.74202748807147 0.386472515296191 C105.5929122666596 0.38764108915347606 106.4437970452476 0.38880966301076114 107.32046621106565 0.39001364819705486 C111.64236934525172 0.39576598335838753 115.96427298236495 0.400889257596873 120.28617717744783 0.40577053977176547 C150.83134465230046 0.4413977732162948 181.37575479430666 0.5557076363072042 211.9204961922951 0.7169149438850582 C241.5786585983899 0.8732614922183188 271.2366131245302 0.993578635192307 300.8951055672951 1.0655477563850582 C301.81066179885534 1.0677837012801206 302.72621803041545 1.070019646175183 303.66951839020476 1.0723233469761908 C312.8646173221423 1.0947398119452032 322.0597178526202 1.1164284093197239 331.2548197673168 1.1375839544925839 C349.98326896162007 1.1806898161468098 368.71170468372475 1.228651086787977 387.44013425381854 1.2795522729866207 C388.30107769262986 1.2818862022738813 389.16202113144095 1.284220131561142 390.0490537653677 1.286624785978347 C447.45908976569626 1.4428136844888968 504.86863409162015 1.7160595664898324 562.2781622079201 1.9993856470100582 C562.2781622079201 20.809385647010004 562.2781622079201 39.61938564701006 562.2781622079201 58.99938564701006 C554.8818589547463 58.94751598758626 547.4855557015724 58.89564632816246 539.8651220467873 58.842204860877246 C490.93187913178053 58.50881046153745 441.99868050530154 58.20848024249881 393.0644933846779 58.05744533939287 C392.64595008654055 58.056148380651166 392.64595008654055 58.056148380651166 390.5278673353605 58.049584983382374 C372.3282521466483 57.993405603000156 354.12862463993815 57.943708624992496 335.92897374229506 57.90067336289212 C327.0016656166338 57.8795242819175 318.0743613629511 57.8569453097648 309.1470586922951 57.83361416263506 C308.25876540127206 57.83131699263117 307.370472110249 57.82901982262729 306.45526084071025 57.82665304141119 C277.7509813450936 57.75175390751485 249.04821036010605 57.5827512637029 220.3446963536553 57.364047592971474 C190.80583977457752 57.13948276341591 161.26806377806486 57.0116503454492 131.7283187478315 57.00258703506552 C127.53978634163752 57.00125758732668 123.35125521380235 56.998841829246544 119.1627237466164 56.99576359195635 C118.33849894856564 56.99519147516696 117.514274150515 56.99461935837758 116.66507284343243 56.99402990471572 C103.48731868719017 56.98210538760088 90.31227015458114 56.87059534814318 77.13544813683257 56.720214006025344 C63.8326046410109 56.57057891228817 50.53273970781095 56.52972352550535 37.2291862857528 56.59401549352333 C30.04135129874726 56.62587777006388 22.861070684258493 56.613467624427244 15.67449399502948 56.4650514642708 C-21.77256669991209 55.723196349000204 -45.587966382919035 61.39240774948178 -74.65698924986646 85.6747249881737 C-79.82482986710068 89.97341540540162 -85.33847682193664 93.58992542459737 -91.0343377920799 97.15563564701006 C-92.67773630640932 98.22856354421003 -94.3193578420528 99.30422486585269 -95.9581659170799 100.38415127201006 C-96.73361757723615 100.8911556665413 -97.5090692373924 101.39816006107253 -98.3080194327049 101.92052822513506 C-113.69864375784641 111.98740063442915 -128.9931196359861 122.18951845835056 -144.2218377920799 132.49938564701006 C-159.56625937389686 142.8875842448041 -174.99286689082578 153.14100249019862 -190.4820916983299 163.31188564701006 C-204.12936117115862 172.27643427258784 -217.70081566519553 181.34563147320102 -231.2218377920799 190.49938564701006 C-246.56625937389697 200.8875842448042 -261.99286689082584 211.14100249019862 -277.4820916983299 221.31188564701006 C-291.1293611711586 230.27643427258795 -304.7008156651955 239.34563147320102 -318.2218377920799 248.49938564701006 C-332.6545752453934 258.27037259333497 -347.1529893738534 267.9325370066824 -361.7218377920799 277.49938564701006 C-378.9652492119533 288.82355130179303 -396.1280621304519 300.26192863162555 -413.18132570711896 311.8709066431038 C-414.844283751011 312.9909331768521 -416.51800539764406 314.09511573863335 -418.20119265047833 315.1845052759163 C-422.95088398087523 318.28902420011605 -427.4112432675138 321.5257820624489 -431.717286858242 325.21230011386797 C-455.8930239576663 345.73255773356505 -478.5262291447334 345.8265568353223 -509.27109316317365 344.51000576419756 C-515.2040477468595 344.2809787305298 -521.1392115504913 344.1836536496879 -527.0753534170799 344.07360439701006 C-538.6297878617041 343.8407906651105 -550.1747093667027 343.46769446339897 -561.7218377920799 342.99938564701006 C-558.9004156241865 340.0876495580919 -556.1995516871939 337.44145476641097 -552.7975213858299 335.22985439701006 C-552.0540445181541 334.74206509036935 -551.3105676504783 334.2542757837289 -550.5445611807518 333.75170498294756 C-549.74454683749 333.23531460208824 -548.9445324942283 332.7189242212288 -548.1202752920799 332.18688564701006 C-547.2682956167869 331.6295675317757 -546.416315941494 331.07224941654135 -545.538518700283 330.49804287357256 C-543.6947566083498 329.2924686322109 -541.8493051063052 328.08947498810085 -540.0023553702049 326.88878994388506 C-535.0016635269734 323.6369326062859 -530.0143800644684 320.36463603354537 -525.0265252920799 317.09313564701006 C-523.9989209219627 316.41964077396324 -522.9713165518456 315.7461459009163 -521.9125726553611 315.05224209232256 C-511.6183990497856 308.29533314970035 -501.4152040434197 301.40702565821016 -491.2218377920799 294.49938564701006 C-475.8786956158424 284.10932566690985 -460.4507789982862 273.85774930479135 -444.9615838858299 263.68688564701006 C-431.3143144130012 254.72233702143228 -417.74285991896426 245.6531398208191 -404.2218377920799 236.49938564701006 C-388.8774162102628 226.1111870492159 -373.450808693334 215.8577688038215 -357.9615838858299 205.68688564701006 C-344.31431441300117 196.72233702143228 -330.7428599189643 187.6531398208191 -317.2218377920799 178.49938564701006 C-301.8774162102628 168.1111870492159 -286.45080869333395 157.8577688038215 -270.9615838858299 147.68688564701006 C-257.31431441300117 138.72233702143228 -243.7428599189643 129.6531398208191 -230.2218377920799 120.49938564701006 C-214.87741621026282 110.11118704921591 -199.450808693334 99.8577688038215 -183.9615838858299 89.68688564701006 C-169.41947271337244 80.13453797895806 -154.96977883494299 70.45358871085136 -140.56271913973615 60.69897060794756 C-124.91952567253225 50.11109204582203 -109.17811665883323 39.678765266182154 -93.3761346670799 29.329463772010058 C-92.58484323052687 28.807628254722772 -91.79355179397385 28.2857927374356 -90.9782818290405 27.748144022654742 C-89.26367312273328 26.628418001542855 -87.53921697701253 25.523516930792425 -85.80204031197354 24.43913387460634 C-81.18320901311586 21.508609690536105 -77.15189199510223 18.56704975676405 -73.30688360659406 14.66641693515703 C-53.26312084027791 -4.149658613301824 -25.64266718975489 -0.3224322386495828 0 0 Z " fill="#FEFEFE" transform="translate(717.7218377920799,510.00061435298994)"/>
<path d="M0 0 C6.150510053989016 3.2922916496947607 11.983747396462343 6.8730665056908435 17.73828125 10.8125 C18.559670867919923 11.36981811523438 19.381060485839843 11.927136230468747 20.227340698242188 12.5013427734375 C21.998182937304406 13.702953608452646 23.76799460538479 14.906084377994148 25.536865234375 16.110595703125 C30.34758173977218 19.385301924891976 35.16740808699738 22.646520616156593 39.98828125 25.90625 C40.98425323486328 26.579744873046877 41.98022521972656 27.253239746093755 43.006378173828125 27.9471435546875 C53.28133809509697 34.88389012405841 63.63548459096051 41.69811628045073 74 48.5 C89.47077874962113 58.657198842683385 104.85195306205517 68.93725146203698 120.17724609375 79.3125 C133.71891755045 88.47689096577398 147.33209604426415 97.52507350368097 161 106.5 C176.47006483121731 116.65830190226052 191.8519364072736 126.93724018672253 207.17724609375 137.3125 C220.71891755045004 146.47689096577403 234.3320960442641 155.52507350368091 248 164.5 C263.4700648312173 174.65830190226052 278.8519364072736 184.93724018672253 294.17724609375 195.3125 C307.71891755045004 204.47689096577403 321.33209604426406 213.52507350368091 335 222.5 C349.56900034038387 232.0666246707067 364.06704166520655 241.72934182109873 378.5 251.5 C394.75141467733727 262.50025912346274 411.0935505354442 273.35371614258435 427.4931640625 284.131591796875 C440.9460250214439 292.9746597778413 454.35905820278197 301.8759542370882 467.75 310.8125 C468.680471496582 311.43343536376955 469.6109429931641 312.05437072753904 470.5696105957031 312.6941223144531 C475.7141637264919 316.12778479666554 480.8575982549571 319.5631164334669 486 323 C482.3669581436964 327.064295702588 478.0335382245379 329.775718865919 473.49609375 332.71484375 C472.64269912719726 333.2735768127441 471.7893045043945 333.8323098754883 470.91004943847656 334.40797424316406 C469.0599561096913 335.61897859455473 467.20853934101183 336.8279629556761 465.35595703125 338.03515625 C460.3432418589665 341.3026045202387 455.3414012310221 344.5866004681234 450.33984375 347.87109375 C449.309147644043 348.54768035888674 448.27845153808596 349.2242669677734 447.2165222167969 349.9213562011719 C436.9175422658791 356.6923952040739 426.70371981898086 363.5865994303831 416.5 370.5 C401.15661828816275 380.8897120036654 385.7289469139034 391.1416325943022 370.23974609375 401.3125 C356.59247662092133 410.2770486255778 343.02102212688436 419.3462458261911 329.5 428.5 C314.1555784181829 438.88819859779414 298.72897090125406 449.14161684318856 283.23974609375 459.3125 C269.59247662092133 468.2770486255778 256.02102212688436 477.3462458261911 242.5 486.5 C227.1555784181829 496.88819859779414 211.72897090125412 507.14161684318856 196.23974609375 517.3125 C182.59247662092125 526.2770486255778 169.02102212688445 535.346245826191 155.5 544.5 C140.15557841818287 554.8881985977941 124.72897090125412 565.1416168431886 109.23974609375 575.3125 C95.59246178885341 584.2770583683907 82.02162482151445 593.3471191747051 68.5 602.5 C54.20592461220322 612.1720905445526 39.87019017950195 621.7780120061985 25.468505859375 631.289306640625 C23.501108100782183 632.5887697049608 21.534464232475322 633.8893749385849 19.568603515625 635.191162109375 C16.85020098400187 636.9904579470657 14.128772284116675 638.7850707972822 11.40625 640.578125 C10.5959130859375 641.1151605224609 9.785576171875 641.6521960449219 8.95068359375 642.2055053710938 C8.2070556640625 642.6935968017578 7.463427734375 643.1816882324218 6.697265625 643.6845703125 C6.374617309570312 643.8973159790039 6.374617309570312 643.8973159790039 4.7418212890625 644.9739379882813 C3.000000000000087 646 3.000000000000087 646 0 647 C-7.185659190534003 587.7371634707818 -7.185659190534003 587.7371634707818 3.51123046875 573.400390625 C12.507911253676406 563.8361802077352 25.15102265495431 558.4281123937881 36.884765625 552.99658203125 C45.94280893213264 548.7119809304048 54.044316748260066 543.0102579217952 62.2840576171875 537.3517761230469 C66.8253667987992 534.255433592697 71.43264364453634 531.2602515227202 76.03125 528.25 C86.91402897801112 521.088356555253 97.71208221429156 513.8034380486139 108.5 506.5 C123.84442158181707 496.11180140220586 139.27102909874594 485.85838315681144 154.76025390625 475.6875 C168.40752337907873 466.7229513744221 181.97897787311558 457.65375417380903 195.5 448.5 C210.84442158181704 438.11180140220586 226.27102909874594 427.85838315681144 241.76025390625 417.6875 C256.30540405724923 408.13315610325446 270.7578780338136 398.44984808210404 285.1681823730469 388.69354248046875 C299.81081114502535 378.7834802112207 314.5438514060514 369.01840122559133 329.3223876953125 359.3124084472656 C346.9927600473201 347.70426568817635 364.5291906877633 335.9059938914407 382 324 C377.7388200336169 320.46137480022315 373.2416225103473 317.3737492349353 368.65234375 314.28515625 C367.825294342041 313.7264231872559 366.99824493408204 313.1676901245117 366.14613342285156 312.59202575683594 C363.4116504751706 310.7462731114757 360.6747281167629 308.90417873981664 357.9375 307.0625 C356.98850830078123 306.4229638671875 356.0395166015625 305.783427734375 355.061767578125 305.12451171875 C339.8573135670946 294.87998928142383 324.57502132410775 284.7580583891082 309.2504577636719 274.6943664550781 C294.6986741993631 265.13576467473945 280.2398177398003 255.447875880018 265.82275390625 245.6875 C252.28108244955007 236.52310903422608 238.6679039557358 227.47492649631897 225 218.5 C209.52993516878266 208.34169809773948 194.14806359272643 198.06275981327747 178.82275390625 187.6875 C165.28108244955007 178.52310903422608 151.66790395573582 169.47492649631897 138 160.5 C122.53500117265634 150.34502465114105 107.15773891745698 140.07005234192155 91.83786010742188 129.69757080078125 C77.9806485749528 120.31869847684962 64.04735275093385 111.06236078933205 50.0625 101.875 C37.428111058883474 93.57432434003448 24.816778240301133 85.24579357483259 12.3125 76.75 C11.72115264892578 76.34859802246092 11.129805297851563 75.9471960449219 10.520538330078125 75.53363037109375 C1.203564055312329 69.20356405531231 1.203564055312329 69.20356405531231 0 68 C-0.0942174038769918 65.88318682686469 -0.11742761034401475 63.763192416799995 -0.113525390625 61.644287109375 C-0.11367141723632812 60.980898284912115 -0.11381744384765625 60.31750946044923 -0.1139678955078125 59.63401794433594 C-0.11326880649425773 57.431760444545034 -0.10547664757838165 55.22958655240379 -0.09765625 53.02734375 C-0.09579205500156704 51.50419663723437 -0.09436815940573524 49.98104892652117 -0.0933685302734375 48.45790100097656 C-0.08954346198393179 44.44162348905539 -0.07971328118769141 40.42538192414111 -0.06866455078125 36.40911865234375 C-0.05845018892274787 32.313766340858166 -0.05387085775261275 28.218408242496537 -0.048828125 24.123046875 C-0.03809099627578855 16.08201472130274 -0.021014715963499152 8.041011827276051 0 0 Z " fill="#FDB71B" transform="translate(0,103)"/>
</svg>
