<?xml version="1.0" encoding="UTF-8"?>
<!-- Generator: visioncortex VTracer 0.6.12 -->
<svg version="1.1" xmlns="http://www.w3.org/2000/svg" width="3840" height="2304">
<path d="M0 0 C1267.2 0 2534.4 0 3840 0 C3840 760.32 3840 1520.64 3840 2304 C2572.8 2304 1305.6 2304 0 2304 C0 1543.6799999999998 0 783.3599999999999 0 0 Z " fill="#FEFEFE" transform="translate(0,0)"/>
<path d="M0 0 C1.893612862908867 1.0256648421895989 3.754996990828886 2.1123323575748145 5.5859375 3.24609375 C6.664882812500082 3.908671874999982 7.743828124999936 4.571249999999964 8.85546875 5.25390625 C9.42700683593739 5.608559570312536 9.998544921875009 5.963212890625073 10.58740234375 6.32861328125 C13.703999256072166 8.2619078968969 16.83327148522403 10.174528290374838 19.9609375 12.08984375 C20.61656677246083 12.492021179199128 21.272196044921884 12.894198608398483 21.94769287109375 13.308563232421875 C29.25292753953613 17.782617073959273 36.62559845943042 22.14128212841706 44 26.5 C54.612301816760464 32.77875150701743 65.18101618745845 39.12293958401028 75.708984375 45.5419921875 C85.098425590013 51.264519359021506 94.53738360680859 56.89939881417331 104 62.5 C114.61130098498029 68.780468573407 125.18099227401308 75.12292500364106 135.708984375 81.5419921875 C145.098425590013 87.2645193590215 154.53738360680882 92.89939881417354 164 98.5 C174.61130098498052 104.78046857340723 185.18099227401308 111.12292500364106 195.708984375 117.5419921875 C205.098425590013 123.26451935902173 214.53738360680836 128.8993988141733 224 134.5 C234.61130098498052 140.78046857340723 245.18099227401308 147.12292500364106 255.708984375 153.5419921875 C265.098425590013 159.2645193590215 274.5373836068088 164.8993988141733 284 170.5 C294.6113009849805 176.780468573407 305.1809922740131 183.12292500364106 315.708984375 189.5419921875 C325.098425590013 195.26451935902173 334.53738360680836 200.8993988141733 344 206.5 C354.6113009849805 212.78046857340723 365.1809922740131 219.12292500364106 375.708984375 225.5419921875 C385.098425590013 231.2645193590215 394.5373836068088 236.89939881417354 404 242.5 C414.6113009849805 248.78046857340723 425.1809922740131 255.12292500364106 435.708984375 261.5419921875 C445.098425590013 267.2645193590215 454.53738360680836 272.8993988141733 464 278.5 C474.6113009849805 284.780468573407 485.1809922740131 291.1229250036413 495.708984375 297.5419921875 C505.098425590013 303.2645193590215 514.5373836068084 308.8993988141733 524 314.5 C534.6113009849805 320.78046857340723 545.1809922740131 327.12292500364106 555.708984375 333.5419921875 C565.098425590013 339.2645193590215 574.5373836068088 344.89939881417354 584 350.5 C594.6113009849805 356.78046857340723 605.1809922740131 363.12292500364106 615.708984375 369.5419921875 C625.098425590013 375.2645193590215 634.5373836068088 380.8993988141733 644 386.5 C654.6113009849805 392.780468573407 665.1809922740131 399.12292500364106 675.708984375 405.5419921875 C685.098425590013 411.2645193590215 694.5373836068088 416.8993988141733 704 422.5 C714.6113009849805 428.78046857340723 725.1809922740131 435.12292500364106 735.708984375 441.5419921875 C745.0984255900125 447.2645193590215 754.5373836068088 452.89939881417354 764 458.5 C774.6113009849805 464.780468573407 785.1809922740131 471.12292500364106 795.708984375 477.5419921875 C805.098425590013 483.2645193590215 814.5373836068088 488.8993988141733 824 494.5 C834.6113009849805 500.78046857340723 845.1809922740131 507.12292500364106 855.708984375 513.5419921875 C865.098425590013 519.2645193590215 874.5373836068088 524.8993988141733 884 530.5 C894.6113009849805 536.7804685734072 905.1809922740131 543.1229250036411 915.708984375 549.5419921875 C925.098425590013 555.2645193590217 934.5373836068088 560.8993988141733 944 566.5 C954.6113009849805 572.7804685734072 965.1809922740131 579.1229250036411 975.708984375 585.5419921875 C985.098425590013 591.2645193590215 994.5373836068088 596.8993988141733 1004 602.5 C1014.6113009849801 608.7804685734068 1025.180992274013 615.1229250036413 1035.708984375 621.5419921875 C1045.098425590013 627.2645193590215 1054.5373836068084 632.8993988141733 1064 638.5 C1074.611300984981 644.7804685734072 1085.1809922740126 651.1229250036408 1095.708984375 657.5419921875 C1105.0984255900125 663.2645193590215 1114.5373836068088 668.8993988141733 1124 674.5 C1134.6113009849805 680.7804685734072 1145.1809922740126 687.1229250036408 1155.708984375 693.5419921875 C1165.098425590013 699.2645193590215 1174.5373836068088 704.8993988141733 1184 710.5 C1194.6113009849805 716.7804685734072 1205.180992274013 723.1229250036413 1215.708984375 729.5419921875 C1225.098425590013 735.2645193590215 1234.5373836068088 740.8993988141733 1244 746.5 C1254.61130098498 752.7804685734068 1265.180992274013 759.1229250036413 1275.708984375 765.5419921875 C1285.0984255900125 771.2645193590215 1294.5373836068088 776.8993988141733 1304 782.5 C1314.6113009849805 788.7804685734072 1325.180992274013 795.1229250036413 1335.708984375 801.5419921875 C1345.0984255900134 807.2645193590215 1354.537383606808 812.8993988141729 1364 818.5 C1374.6106471346825 824.7800815816277 1385.1802255154548 831.1213157034663 1395.7069702148438 837.5409851074219 C1404.4605628801355 842.8773188769201 1413.2580307199805 848.1350362945886 1422.08203125 853.3540649414063 C1432.5149064548064 859.5252078722128 1442.9278940149925 865.7257612959943 1453.2626342773438 872.0602722167969 C1454.9682285787294 873.1055291916964 1456.6757474456845 874.1476436822163 1458.38330078125 875.189697265625 C1459.3911865234377 875.8103002929688 1460.399072265625 876.4309033203126 1461.4375 877.0703125 C1462.3230859374999 877.6144580078126 1463.2086718750002 878.1586035156251 1464.12109375 878.71923828125 C1464.7411328125 879.1418896484374 1465.3611718749999 879.5645410156249 1466 880 C1466 880.3299999999999 1466 880.6599999999999 1466 881 C495.1399999999999 881 -475.72 881 -1476 881 C-1473.0921641696432 878.0921641696432 -1470.2002733841528 876.1877430730678 -1466.69140625 874.1484375 C-1466.0619358825684 873.7774392700194 -1465.4324655151368 873.4064410400392 -1464.783920288086 873.0242004394531 C-1463.4242131156857 872.2232820084619 -1462.0633336549192 871.4243511225168 -1460.701416015625 870.627197265625 C-1457.0466298853808 868.4875558934045 -1453.400706948387 866.3329014142105 -1449.75390625 864.1796875 C-1449.0119400024414 863.7420709228518 -1448.2699737548828 863.3044543457031 -1447.5055236816406 862.8535766601563 C-1440.633406569012 858.7954718030119 -1433.8120556244912 854.6580657129261 -1427 850.5 C-1416.3676704441168 844.0151844584125 -1405.6763084147171 837.6352122052658 -1394.958984375 831.2919921875 C-1385.6031596894281 825.7529492888034 -1376.2830998835175 820.1600386146933 -1367 814.5 C-1356.3667115541523 808.0167321304461 -1345.676332698411 801.6352265779592 -1334.958984375 795.2919921875 C-1325.603159689428 789.7529492888034 -1316.2830998835175 784.1600386146933 -1307 778.5 C-1296.366711554152 772.0167321304461 -1285.676332698411 765.6352265779592 -1274.958984375 759.2919921875 C-1265.6031596894281 753.7529492888034 -1256.2830998835175 748.1600386146933 -1247 742.5 C-1236.366711554152 736.0167321304461 -1225.676332698411 729.6352265779592 -1214.958984375 723.2919921875 C-1205.6031596894281 717.7529492888034 -1196.2830998835175 712.1600386146933 -1187 706.5 C-1176.3667115541523 700.0167321304461 -1165.676332698411 693.6352265779592 -1154.958984375 687.2919921875 C-1145.6031596894281 681.7529492888034 -1136.2830998835175 676.1600386146933 -1127 670.5 C-1116.3667115541523 664.0167321304461 -1105.676332698411 657.6352265779592 -1094.958984375 651.2919921875 C-1085.6031596894281 645.7529492888034 -1076.2830998835175 640.1600386146933 -1067 634.5 C-1056.3667115541523 628.0167321304461 -1045.676332698411 621.6352265779592 -1034.958984375 615.2919921875 C-1025.6031596894281 609.7529492888034 -1016.2830998835175 604.1600386146933 -1007 598.5 C-996.3667115541523 592.0167321304459 -985.6763326984111 585.6352265779592 -974.958984375 579.2919921875 C-965.6031596894279 573.7529492888034 -956.2830998835176 568.1600386146933 -947 562.5 C-936.3667115541522 556.0167321304459 -925.6763326984111 549.6352265779592 -914.958984375 543.2919921875 C-905.603159689428 537.7529492888034 -896.2830998835175 532.1600386146933 -887 526.5 C-876.3667115541523 520.0167321304461 -865.676332698411 513.6352265779592 -854.958984375 507.2919921875 C-845.6031596894281 501.7529492888034 -836.2830998835175 496.16003861469335 -827 490.5 C-816.3667115541523 484.0167321304459 -805.676332698411 477.6352265779592 -794.958984375 471.2919921875 C-785.6031596894281 465.7529492888034 -776.2830998835175 460.16003861469335 -767 454.5 C-756.3667115541521 448.0167321304459 -745.676332698411 441.6352265779592 -734.958984375 435.2919921875 C-725.6031596894281 429.7529492888034 -716.2830998835175 424.16003861469335 -707 418.5 C-696.3667115541521 412.0167321304459 -685.676332698411 405.6352265779592 -674.958984375 399.2919921875 C-665.6031596894281 393.7529492888034 -656.2830998835175 388.16003861469335 -647 382.5 C-636.3667115541523 376.01673213044614 -625.676332698411 369.635226577959 -614.958984375 363.2919921875 C-605.6031596894281 357.75294928880317 -596.2830998835175 352.16003861469335 -587 346.5 C-576.3667115541523 340.0167321304459 -565.676332698411 333.6352265779592 -554.958984375 327.2919921875 C-545.6031596894281 321.7529492888034 -536.2830998835175 316.16003861469335 -527 310.5 C-516.3667115541521 304.0167321304459 -505.676332698411 297.6352265779592 -494.958984375 291.2919921875 C-485.60315968942814 285.7529492888034 -476.2830998835175 280.16003861469335 -467 274.5 C-456.36671155415206 268.0167321304459 -445.676332698411 261.6352265779592 -434.958984375 255.2919921875 C-425.60315968942814 249.7529492888034 -416.2830998835175 244.16003861469335 -407 238.5 C-396.3667115541523 232.01673213044592 -385.676332698411 225.63522657795897 -374.958984375 219.2919921875 C-365.60315968942814 213.7529492888034 -356.2830998835175 208.16003861469335 -347 202.5 C-336.3667115541523 196.01673213044592 -325.676332698411 189.63522657795897 -314.958984375 183.2919921875 C-305.60315968942814 177.7529492888034 -296.2830998835175 172.16003861469335 -287 166.5 C-276.3667115541523 160.01673213044592 -265.676332698411 153.6352265779592 -254.958984375 147.2919921875 C-245.60315968942814 141.7529492888034 -236.28309988351748 136.16003861469335 -227 130.5 C-216.36671155415252 124.01673213044614 -205.676332698411 117.63522657795897 -194.958984375 111.2919921875 C-185.60315968942814 105.75294928880339 -176.28309988351748 100.16003861469335 -167 94.5 C-156.3667115541523 88.01673213044592 -145.676332698411 81.6352265779592 -134.958984375 75.2919921875 C-125.60315968942837 69.75294928880339 -116.28309988351725 64.16003861469312 -107 58.5 C-96.36838441204713 52.01775209580251 -85.67977755386573 45.637090859842374 -74.96401977539063 39.295013427734375 C-66.0828668808656 34.03720331755858 -57.23062374927326 28.736137756354765 -48.41729736328125 23.365386962890625 C-45.57400735781016 21.634743222748057 -42.725796967159795 19.912212298598433 -39.87890625 18.1875 C-35.690604523295406 15.6471633463118 -31.518964900178617 13.083520313269673 -27.362319946289063 10.491775512695313 C-24.886338975528815 8.952961094665852 -22.40037910546198 7.43080735640865 -19.912261962890625 5.911712646484375 C-18.73268055223889 5.1862393632902695 -17.557551045661967 4.453470768375382 -16.387298583984375 3.713043212890625 C-14.772485300105927 2.6923193472648563 -13.14045130742852 1.698993787663312 -11.5078125 0.70703125 C-11.04705322265636 0.42073852539056134 -11.04705322265636 0.42073852539056134 -8.71533203125 -1.028076171875 C-5.05090501372365 -2.3397183186807524 -3.4961955911646783 -1.5964104015554312 0 0 Z " fill="#005EB8" transform="translate(1925,1423)"/>
<path d="M0 0 C0 582.78 0 1165.56 0 1766 C-11.238095238092683 1760.3809523809539 -11.238095238092683 1760.3809523809539 -15.9765625 1757.4609375 C-17.042617187499673 1756.80802734375 -18.108671875000255 1756.1551171875 -19.20703125 1755.482421875 C-19.762133789062318 1755.1400952148438 -20.31723632812509 1754.7977685546875 -20.88916015625 1754.445068359375 C-23.95423679191117 1752.5555844080243 -27.028106789995036 1750.6805005047772 -30.1015625 1748.8046875 C-30.744824829101617 1748.4117852783204 -31.388087158203234 1748.0188830566406 -32.05084228515625 1747.6140747070313 C-39.32813655469545 1743.1767991549343 -46.66360504258273 1738.8385803356423 -54 1734.5 C-64.61190888607507 1728.2205737556349 -75.1810066312164 1721.8770662425668 -85.708984375 1715.4580078125 C-95.098425590013 1709.7354806409783 -104.53738360680836 1704.1006011858267 -114 1698.5 C-124.61130098498097 1692.2195314265928 -135.18099227401308 1685.877074996359 -145.708984375 1679.4580078125 C-155.098425590013 1673.7354806409783 -164.53738360680836 1668.1006011858267 -174 1662.5 C-184.61130098498097 1656.2195314265925 -195.18099227401308 1649.877074996359 -205.708984375 1643.4580078125 C-215.098425590013 1637.7354806409783 -224.53738360680836 1632.1006011858267 -234 1626.5 C-244.61130098498097 1620.2195314265925 -255.18099227401308 1613.877074996359 -265.708984375 1607.4580078125 C-275.098425590013 1601.7354806409783 -284.53738360680836 1596.1006011858267 -294 1590.5 C-304.6113009849814 1584.2195314265925 -315.1809922740131 1577.877074996359 -325.708984375 1571.4580078125 C-335.09842559001345 1565.735480640978 -344.53738360680836 1560.100601185827 -354 1554.5 C-364.61130098498097 1548.2195314265925 -375.1809922740131 1541.877074996359 -385.708984375 1535.4580078125 C-395.098425590013 1529.7354806409783 -404.53738360680836 1524.1006011858267 -414 1518.5 C-424.61130098498097 1512.2195314265925 -435.1809922740131 1505.877074996359 -445.708984375 1499.4580078125 C-455.098425590013 1493.7354806409783 -464.53738360680836 1488.1006011858267 -474 1482.5 C-484.61130098498097 1476.2195314265925 -495.1809922740131 1469.877074996359 -505.708984375 1463.4580078125 C-515.098425590013 1457.7354806409785 -524.5373836068088 1452.1006011858267 -534 1446.5 C-544.611300984981 1440.2195314265928 -555.1809922740131 1433.877074996359 -565.708984375 1427.4580078125 C-575.098425590013 1421.7354806409783 -584.5373836068084 1416.1006011858267 -594 1410.5 C-604.611300984981 1404.2195314265925 -615.1809922740131 1397.877074996359 -625.708984375 1391.4580078125 C-635.098425590013 1385.7354806409783 -644.5373836068084 1380.1006011858267 -654 1374.5 C-664.611300984981 1368.2195314265925 -675.1809922740126 1361.8770749963592 -685.708984375 1355.4580078125 C-695.098425590013 1349.7354806409783 -704.5373836068084 1344.1006011858267 -714 1338.5 C-724.611300984981 1332.2195314265925 -735.1809922740126 1325.8770749963592 -745.708984375 1319.4580078125 C-755.098425590013 1313.7354806409783 -764.5373836068084 1308.1006011858267 -774 1302.5 C-784.611300984981 1296.2195314265925 -795.1809922740131 1289.877074996359 -805.708984375 1283.4580078125 C-815.098425590013 1277.7354806409783 -824.5373836068084 1272.1006011858267 -834 1266.5 C-844.611300984981 1260.2195314265928 -855.1809922740131 1253.877074996359 -865.708984375 1247.4580078125 C-875.098425590013 1241.7354806409783 -884.5373836068084 1236.1006011858267 -894 1230.5 C-904.611300984981 1224.2195314265928 -915.1809922740131 1217.877074996359 -925.708984375 1211.4580078125 C-935.098425590013 1205.7354806409783 -944.5373836068084 1200.1006011858267 -954 1194.5 C-964.611300984981 1188.2195314265928 -975.1809922740131 1181.877074996359 -985.708984375 1175.4580078125 C-995.098425590013 1169.7354806409783 -1004.5373836068084 1164.1006011858267 -1014 1158.5 C-1024.611300984981 1152.2195314265928 -1035.180992274013 1145.877074996359 -1045.708984375 1139.4580078125 C-1055.098425590013 1133.7354806409783 -1064.5373836068084 1128.1006011858267 -1074 1122.5 C-1084.611300984981 1116.2195314265925 -1095.180992274013 1109.877074996359 -1105.708984375 1103.4580078125 C-1115.098425590013 1097.7354806409783 -1124.5373836068084 1092.1006011858267 -1134 1086.5 C-1144.611300984981 1080.2195314265928 -1155.180992274013 1073.877074996359 -1165.708984375 1067.4580078125 C-1175.098425590013 1061.7354806409783 -1184.5373836068084 1056.1006011858267 -1194 1050.5 C-1204.6113009849805 1044.2195314265928 -1215.180992274013 1037.877074996359 -1225.708984375 1031.4580078125 C-1235.098425590013 1025.7354806409783 -1244.5373836068084 1020.1006011858267 -1254 1014.5 C-1264.611300984981 1008.2195314265928 -1275.180992274013 1001.8770749963592 -1285.708984375 995.4580078125 C-1295.098425590013 989.7354806409783 -1304.5373836068084 984.1006011858267 -1314 978.5 C-1324.611300984981 972.2195314265928 -1335.180992274013 965.8770749963589 -1345.708984375 959.4580078125 C-1355.098425590013 953.7354806409785 -1364.5373836068084 948.1006011858267 -1374 942.5 C-1385.1817998083757 935.8818725536071 -1396.3127436106142 929.1873917695762 -1407.406494140625 922.4228515625 C-1416.3749630813363 916.9605846912241 -1425.3993227119886 911.5959624655454 -1434.4375 906.25 C-1446.721091182128 898.984324808217 -1458.9138594449287 891.5912433713333 -1471 884 C-1469.67963530102 880.0389059030595 -1468.1353931406934 879.6348231440554 -1464.54296875 877.5859375 C-1463.977392578125 877.2594219970701 -1463.4118164062502 876.9329064941408 -1462.8291015625 876.5964965820313 C-1461.5998979305873 875.8878943935465 -1460.3683760314739 875.1833021530435 -1459.1348571777344 874.4822387695313 C-1455.797918679622 872.5849044135657 -1452.478394844973 870.6574544036937 -1449.15625 868.734375 C-1448.8141323089599 868.5368714904785 -1448.8141323089599 868.5368714904785 -1447.0828094482422 867.5373840332031 C-1440.3892050311956 863.6660374342491 -1433.7840464526403 859.6593144430958 -1427.1875 855.625 C-1417.1692300951067 849.5074209535192 -1407.1021516729347 843.4780001768622 -1397 837.5 C-1386.9629076779556 831.5596892463464 -1376.9582000046353 825.571656802826 -1367 819.5 C-1356.366711554152 813.0167321304459 -1345.676332698411 806.6352265779592 -1334.958984375 800.2919921875 C-1325.6031596894281 794.7529492888034 -1316.2830998835175 789.1600386146933 -1307 783.5 C-1296.366711554152 777.0167321304459 -1285.676332698411 770.6352265779592 -1274.958984375 764.2919921875 C-1265.6031596894281 758.7529492888034 -1256.2830998835175 753.1600386146933 -1247 747.5 C-1236.366711554152 741.016732130446 -1225.676332698411 734.6352265779591 -1214.958984375 728.2919921875 C-1205.6031596894281 722.7529492888033 -1196.2830998835175 717.1600386146933 -1187 711.5 C-1176.3667115541525 705.016732130446 -1165.676332698411 698.6352265779591 -1154.958984375 692.2919921875 C-1145.6031596894281 686.7529492888033 -1136.2830998835175 681.1600386146933 -1127 675.5 C-1116.366711554152 669.0167321304459 -1105.676332698411 662.6352265779591 -1094.958984375 656.2919921875 C-1085.6031596894281 650.7529492888033 -1076.2830998835175 645.1600386146933 -1067 639.5 C-1056.366711554152 633.0167321304459 -1045.676332698411 626.6352265779591 -1034.958984375 620.2919921875 C-1025.6031596894281 614.7529492888034 -1016.2830998835175 609.1600386146932 -1007 603.5 C-996.3667115541521 597.0167321304459 -985.676332698411 590.6352265779591 -974.958984375 584.2919921875 C-965.6031596894281 578.7529492888033 -956.2830998835175 573.1600386146932 -947 567.5 C-936.3667115541525 561.016732130446 -925.676332698411 554.6352265779591 -914.958984375 548.2919921875 C-905.6031596894281 542.7529492888033 -896.2830998835175 537.1600386146932 -887 531.5 C-876.3667115541521 525.016732130446 -865.676332698411 518.6352265779591 -854.958984375 512.2919921875 C-845.6031596894281 506.7529492888033 -836.2830998835175 501.16003861469335 -827 495.5 C-816.3667115541521 489.0167321304459 -805.676332698411 482.6352265779591 -794.958984375 476.2919921875 C-785.6031596894281 470.7529492888033 -776.2830998835175 465.16003861469335 -767 459.5 C-756.3667115541521 453.01673213044603 -745.676332698411 446.635226577959 -734.958984375 440.2919921875 C-725.6031596894281 434.7529492888033 -716.2830998835175 429.16003861469335 -707 423.5 C-696.3667115541521 417.0167321304459 -685.676332698411 410.6352265779592 -674.958984375 404.2919921875 C-665.6031596894281 398.7529492888034 -656.2830998835175 393.16003861469324 -647 387.5 C-636.3667115541521 381.0167321304459 -625.676332698411 374.6352265779592 -614.958984375 368.2919921875 C-605.6031596894281 362.7529492888033 -596.2830998835175 357.16003861469335 -587 351.5 C-576.3667115541521 345.0167321304459 -565.676332698411 338.635226577959 -554.958984375 332.2919921875 C-545.6031596894281 326.7529492888034 -536.2830998835175 321.16003861469324 -527 315.5 C-516.3667115541521 309.01673213044603 -505.676332698411 302.6352265779591 -494.958984375 296.2919921875 C-485.60315968942814 290.7529492888034 -476.2830998835175 285.1600386146931 -467 279.5 C-456.3667115541525 273.01673213044603 -445.676332698411 266.635226577959 -434.958984375 260.2919921875 C-425.60315968942814 254.7529492888034 -416.2830998835175 249.16003861469324 -407 243.5 C-396.36671155415206 237.01673213044597 -385.676332698411 230.6352265779591 -374.958984375 224.2919921875 C-365.60315968942814 218.75294928880328 -356.28309988351793 213.16003861469335 -347 207.5 C-336.36671155415206 201.01673213044597 -325.676332698411 194.6352265779591 -314.958984375 188.2919921875 C-305.60315968942814 182.75294928880328 -296.2830998835175 177.1600386146933 -287 171.5 C-276.36671155415206 165.01673213044603 -265.676332698411 158.6352265779591 -254.958984375 152.2919921875 C-245.60315968942814 146.75294928880334 -236.28309988351748 141.16003861469324 -227 135.5 C-216.36671155415206 129.01673213044592 -205.676332698411 122.63522657795909 -194.958984375 116.2919921875 C-185.60315968942814 110.75294928880328 -176.28309988351748 105.16003861469324 -167 99.5 C-156.36671155415206 93.01673213044592 -145.676332698411 86.63522657795909 -134.958984375 80.2919921875 C-125.60315968942814 74.75294928880328 -116.28309988351748 69.16003861469329 -107 63.5 C-96.36671155415206 57.01673213044603 -85.67633269841099 50.63522657795909 -74.958984375 44.2919921875 C-65.60311458027536 38.752922582282 -56.283821516098214 33.15895675657799 -47 27.5 C-37.196050209212444 21.52708613268709 -27.362632732473685 15.606209446907542 -17.496337890625 9.73681640625 C-16.04634973128759 8.874118029056831 -14.596801442980905 8.010679883893431 -13.147705078125 7.146484375 C-11.137598696029272 5.948201001549819 -9.125748535505409 4.752906724995569 -7.11328125 3.55859375 C-6.8103641510010675 3.377800216674814 -6.8103641510010675 3.377800216674814 -5.2774200439453125 2.4628753662109375 C-1.114790766626811 0 -1.114790766626811 0 0 0 Z " fill="#005EB8" transform="translate(3840,269)"/>
<path d="M0 0 C11.238095238095239 5.619047619047592 11.238095238095239 5.619047619047592 15.9765625 8.5390625 C17.0426171875 9.191972656250016 18.108671875 9.844882812499975 19.20703125 10.517578125 C19.7621337890625 10.859904785156232 20.317236328125 11.20223144531252 20.88916015625 11.554931640625 C23.954236791911654 13.44441559197594 27.028106789995523 15.319499495222942 30.1015625 17.1953125 C30.744824829101564 17.588214721679662 31.388087158203124 17.981116943359382 32.05084228515625 18.38592529296875 C39.328136554695185 22.823200845065628 46.66360504258292 27.161419664357823 54 31.5 C64.61190888607555 37.77942624436537 75.18100663121635 44.12293375743303 85.708984375 50.5419921875 C95.0984255900131 56.264519359021676 104.5373836068085 61.89939881417325 114 67.5 C124.61130098498069 73.78046857340723 135.18099227401297 80.12292500364106 145.708984375 86.5419921875 C155.09842559001308 92.26451935902168 164.5373836068085 97.89939881417325 174 103.5 C184.6113009849807 109.78046857340723 195.18099227401297 116.12292500364106 205.708984375 122.5419921875 C215.09842559001308 128.26451935902162 224.5373836068085 133.8993988141733 234 139.5 C244.61130098498066 145.78046857340723 255.180992274013 152.12292500364106 265.708984375 158.5419921875 C275.09842559001305 164.26451935902162 284.53738360680853 169.8993988141733 294 175.5 C304.6113009849807 181.78046857340723 315.18099227401297 188.12292500364106 325.708984375 194.5419921875 C335.0984255900131 200.26451935902162 344.53738360680853 205.8993988141733 354 211.5 C364.6113009849807 217.78046857340723 375.18099227401297 224.12292500364106 385.708984375 230.5419921875 C395.0984255900131 236.26451935902168 404.5373836068085 241.89939881417325 414 247.5 C424.6113009849807 253.78046857340723 435.1809922740129 260.12292500364106 445.708984375 266.5419921875 C455.09842559001305 272.2645193590216 464.53738360680853 277.8993988141733 474 283.5 C484.61130098498063 289.78046857340723 495.180992274013 296.12292500364106 505.708984375 302.5419921875 C515.0984255900131 308.2645193590216 524.5373836068086 313.8993988141733 534 319.5 C544.6113009849805 325.7804685734071 555.1809922740131 332.12292500364106 565.708984375 338.5419921875 C575.0984255900131 344.26451935902173 584.5373836068085 349.8993988141733 594 355.5 C604.6113009849805 361.7804685734071 615.1809922740131 368.12292500364106 625.708984375 374.5419921875 C635.0984255900131 380.2645193590216 644.5373836068085 385.8993988141733 654 391.5 C664.6113009849806 397.78046857340723 675.1809922740131 404.12292500364106 685.708984375 410.5419921875 C695.0984255900131 416.26451935902173 704.5373836068085 421.8993988141733 714 427.5 C724.6113009849806 433.78046857340723 735.180992274013 440.12292500364106 745.708984375 446.5419921875 C755.0984255900131 452.2645193590216 764.5373836068085 457.8993988141733 774 463.5 C784.6113009849806 469.78046857340723 795.180992274013 476.12292500364106 805.708984375 482.5419921875 C815.098425590013 488.2645193590216 824.5373836068086 493.8993988141733 834 499.5 C844.6113009849806 505.78046857340723 855.180992274013 512.1229250036411 865.708984375 518.5419921875 C875.098425590013 524.2645193590216 884.5373836068086 529.8993988141733 894 535.5 C904.6113009849806 541.7804685734072 915.180992274013 548.1229250036411 925.708984375 554.5419921875 C935.0984255900131 560.2645193590216 944.5373836068086 565.8993988141733 954 571.5 C964.6113009849805 577.7804685734071 975.180992274013 584.1229250036411 985.708984375 590.5419921875 C995.0984255900131 596.2645193590216 1004.5373836068085 601.8993988141733 1014 607.5 C1024.6113009849805 613.7804685734071 1035.180992274013 620.1229250036411 1045.708984375 626.5419921875 C1055.098425590013 632.2645193590216 1064.5373836068086 637.8993988141733 1074 643.5 C1084.6113009849805 649.7804685734071 1095.180992274013 656.1229250036411 1105.708984375 662.5419921875 C1115.098425590013 668.2645193590216 1124.5373836068086 673.8993988141734 1134 679.5 C1144.6113009849803 685.780468573407 1155.180992274013 692.1229250036412 1165.708984375 698.5419921875 C1175.098425590013 704.2645193590216 1184.5373836068084 709.8993988141732 1194 715.5 C1204.6113009849805 721.7804685734071 1215.180992274013 728.1229250036412 1225.708984375 734.5419921875 C1235.0984255900132 740.2645193590217 1244.5373836068084 745.8993988141732 1254 751.5 C1264.6113009849803 757.780468573407 1275.180992274013 764.1229250036413 1285.708984375 770.5419921875 C1295.098425590013 776.2645193590215 1304.5373836068086 781.8993988141733 1314 787.5 C1324.6113009849807 793.7804685734072 1335.1809922740129 800.1229250036408 1345.708984375 806.5419921875 C1355.098425590013 812.2645193590215 1364.5373836068086 817.8993988141733 1374 823.5 C1385.1817998083761 830.1181274463929 1396.3127436106142 836.8126082304241 1407.406494140625 843.5771484375 C1416.3749630813368 849.0394153087761 1425.3993227119884 854.4040375344543 1434.4375 859.75 C1446.7210911821287 867.0156751917834 1458.9138594449287 874.4087566286664 1471 882 C1469.67963530102 885.9610940969401 1468.1353931406932 886.3651768559448 1464.54296875 888.4140625 C1463.977392578125 888.7405780029299 1463.41181640625 889.0670935058592 1462.8291015625 889.4035034179688 C1461.5998979305875 890.1121056064535 1460.3683760314736 890.8166978469565 1459.1348571777344 891.5177612304688 C1455.7979186796217 893.4150955864343 1452.4783948449733 895.3425455963061 1449.15625 897.265625 C1448.47201461792 897.6606320190431 1447.78777923584 898.0556390380859 1447.0828094482422 898.4626159667969 C1440.3892050311952 902.3339625657509 1433.7840464526407 906.340685556904 1427.1875 910.375 C1417.169230095107 916.4925790464808 1407.1021516729345 922.5219998231378 1397 928.5 C1386.9629076779552 934.4403107536539 1376.9582000046355 940.4283431971735 1367 946.5 C1356.3667115541523 952.9832678695539 1345.676332698411 959.3647734220408 1334.958984375 965.7080078125 C1325.603159689428 971.2470507111968 1316.2830998835177 976.8399613853067 1307 982.5 C1296.366711554152 988.9832678695541 1285.6763326984112 995.3647734220408 1274.958984375 1001.7080078125 C1265.603159689428 1007.2470507111966 1256.2830998835177 1012.8399613853067 1247 1018.5 C1236.366711554152 1024.983267869554 1225.676332698411 1031.364773422041 1214.958984375 1037.7080078125 C1205.603159689428 1043.2470507111968 1196.283099883518 1048.8399613853067 1187 1054.5 C1176.3667115541523 1060.983267869554 1165.6763326984112 1067.3647734220408 1154.958984375 1073.7080078125 C1145.6031596894281 1079.2470507111966 1136.2830998835175 1084.8399613853069 1127 1090.5 C1116.366711554152 1096.983267869554 1105.6763326984112 1103.3647734220408 1094.958984375 1109.7080078125 C1085.6031596894281 1115.2470507111966 1076.2830998835175 1120.8399613853067 1067 1126.5 C1056.366711554152 1132.983267869554 1045.6763326984114 1139.3647734220408 1034.958984375 1145.7080078125 C1025.6031596894281 1151.2470507111966 1016.2830998835175 1156.8399613853069 1007 1162.5 C996.3667115541522 1168.983267869554 985.6763326984111 1175.3647734220408 974.958984375 1181.7080078125 C965.603159689428 1187.2470507111966 956.2830998835175 1192.8399613853069 947 1198.5 C936.3667115541523 1204.983267869554 925.676332698411 1211.364773422041 914.958984375 1217.7080078125 C905.6031596894281 1223.2470507111966 896.2830998835174 1228.8399613853069 887 1234.5 C876.3667115541523 1240.983267869554 865.676332698411 1247.364773422041 854.958984375 1253.7080078125 C845.6031596894281 1259.2470507111966 836.2830998835175 1264.8399613853069 827 1270.5 C816.3667115541522 1276.983267869554 805.6763326984111 1283.3647734220408 794.958984375 1289.7080078125 C785.6031596894279 1295.2470507111968 776.2830998835176 1300.8399613853067 767 1306.5 C756.3667115541524 1312.9832678695539 745.676332698411 1319.364773422041 734.958984375 1325.7080078125 C725.6031596894281 1331.2470507111966 716.2830998835175 1336.8399613853067 707 1342.5 C696.3667115541523 1348.983267869554 685.6763326984111 1355.3647734220408 674.958984375 1361.7080078125 C665.6031596894279 1367.2470507111968 656.2830998835176 1372.8399613853067 647 1378.5 C636.3667115541522 1384.983267869554 625.6763326984111 1391.3647734220408 614.958984375 1397.7080078125 C605.603159689428 1403.2470507111968 596.2830998835176 1408.8399613853067 587 1414.5 C576.3667115541523 1420.983267869554 565.676332698411 1427.364773422041 554.958984375 1433.7080078125 C545.603159689428 1439.2470507111966 536.2830998835175 1444.8399613853067 527 1450.5 C516.3667115541522 1456.983267869554 505.67633269841104 1463.364773422041 494.958984375 1469.7080078125 C485.60315968942814 1475.2470507111966 476.2830998835175 1480.8399613853067 467 1486.5 C456.3667115541523 1492.983267869554 445.6763326984111 1499.3647734220408 434.958984375 1505.7080078125 C425.6031596894281 1511.2470507111966 416.28309988351754 1516.8399613853067 407 1522.5 C396.3667115541522 1528.983267869554 385.6763326984111 1535.3647734220408 374.958984375 1541.7080078125 C365.6031596894281 1547.2470507111966 356.2830998835176 1552.8399613853067 347 1558.5 C336.36671155415223 1564.983267869554 325.676332698411 1571.364773422041 314.958984375 1577.7080078125 C305.60315968942814 1583.2470507111966 296.2830998835175 1588.8399613853069 287 1594.5 C276.3667115541523 1600.983267869554 265.676332698411 1607.364773422041 254.958984375 1613.7080078125 C245.6031596894281 1619.2470507111966 236.2830998835175 1624.8399613853067 227 1630.5 C216.36671155415235 1636.983267869554 205.67633269841093 1643.364773422041 194.958984375 1649.7080078125 C185.60315968942805 1655.2470507111966 176.28309988351756 1660.8399613853067 167 1666.5 C156.3667115541523 1672.983267869554 145.6763326984111 1679.3647734220408 134.958984375 1685.7080078125 C125.60315968942808 1691.2470507111966 116.28309988351751 1696.8399613853067 107 1702.5 C96.36671155415233 1708.983267869554 85.67633269841099 1715.364773422041 74.958984375 1721.7080078125 C65.60311458027563 1727.247077417718 56.28382151609824 1732.841043243422 47 1738.5 C37.19605020921172 1744.472913867313 27.362632732473834 1750.3937905530922 17.496337890625 1756.26318359375 C16.046349731287695 1757.1258819709433 14.596801442980903 1757.9893201161067 13.147705078125 1758.853515625 C11.137598696029041 1760.0517989984503 9.125748535506002 1761.2470932750043 7.11328125 1762.44140625 C6.810364151000977 1762.6221997833252 6.810364151000977 1762.6221997833252 5.2774200439453125 1763.537124633789 C1.1147907666270473 1766 1.1147907666270473 1766 0 1766 C0 1183.22 0 600.44 0 0 Z " fill="#005EB8" transform="translate(0,269)"/>
<path d="M0 0 C970.8600000000001 0 1941.7200000000003 0 2942 0 C2939.0921641696436 2.9078358303561544 2936.2002733841528 4.812256926932397 2932.69140625 6.8515625 C2932.0619358825684 7.222560729980469 2931.4324655151368 7.593558959960937 2930.783920288086 7.975799560546875 C2929.4242131156857 8.776717991538241 2928.063333654919 9.575648877483106 2926.701416015625 10.372802734375 C2923.0466298853808 12.51244410659531 2919.4007069483873 14.667098585789361 2915.75390625 16.8203125 C2915.0119400024414 17.257929077148436 2914.269973754883 17.695545654296875 2913.5055236816406 18.14642333984375 C2906.633406569012 22.204528196988036 2899.8120556244917 26.34193428707341 2893 30.5 C2882.3676704441173 36.98481554158713 2871.676308414717 43.36478779473457 2860.958984375 49.7080078125 C2851.603159689428 55.24705071119668 2842.2830998835175 60.83996138530679 2833 66.5 C2822.366711554152 72.98326786955427 2811.6763326984114 79.36477342204076 2800.958984375 85.7080078125 C2791.6031596894277 91.24705071119688 2782.2830998835175 96.83996138530665 2773 102.5 C2762.366711554152 108.98326786955408 2751.676332698411 115.36477342204087 2740.958984375 121.7080078125 C2731.6031596894277 127.2470507111969 2722.2830998835175 132.83996138530665 2713 138.5 C2702.366711554152 144.98326786955425 2691.6763326984114 151.36477342204077 2680.958984375 157.7080078125 C2671.6031596894277 163.2470507111968 2662.2830998835175 168.83996138530676 2653 174.5 C2642.366711554152 180.98326786955406 2631.676332698411 187.36477342204094 2620.958984375 193.7080078125 C2611.603159689428 199.24705071119675 2602.2830998835175 204.83996138530682 2593 210.5 C2582.366711554152 216.98326786955406 2571.676332698411 223.3647734220409 2560.958984375 229.7080078125 C2551.6031596894277 235.247050711197 2542.283099883518 240.8399613853064 2533 246.5 C2522.3667115541525 252.983267869554 2511.676332698411 259.36477342204086 2500.958984375 265.7080078125 C2491.603159689428 271.2470507111966 2482.2830998835175 276.8399613853067 2473 282.5 C2462.366711554152 288.983267869554 2451.6763326984114 295.3647734220408 2440.958984375 301.7080078125 C2431.6031596894272 307.2470507111973 2422.283099883518 312.8399613853064 2413 318.5 C2402.366711554152 324.983267869554 2391.6763326984114 331.3647734220408 2380.958984375 337.7080078125 C2371.603159689428 343.24705071119666 2362.2830998835175 348.83996138530676 2353 354.5 C2342.3667115541525 360.98326786955397 2331.676332698411 367.3647734220409 2320.958984375 373.7080078125 C2311.6031596894277 379.24705071119683 2302.2830998835175 384.8399613853067 2293 390.5 C2282.3667115541525 396.98326786955397 2271.676332698411 403.36477342204097 2260.958984375 409.7080078125 C2251.603159689428 415.2470507111967 2242.2830998835175 420.83996138530676 2233 426.5 C2222.366711554152 432.9832678695542 2211.6763326984114 439.36477342204074 2200.958984375 445.7080078125 C2191.603159689428 451.2470507111967 2182.2830998835175 456.8399613853068 2173 462.5 C2162.366711554152 468.9832678695541 2151.676332698411 475.36477342204086 2140.958984375 481.7080078125 C2131.603159689428 487.2470507111967 2122.2830998835175 492.83996138530676 2113 498.5 C2102.366711554152 504.983267869554 2091.676332698411 511.3647734220409 2080.958984375 517.7080078125 C2071.603159689428 523.2470507111968 2062.2830998835175 528.8399613853067 2053 534.5 C2042.366711554152 540.9832678695541 2031.676332698411 547.3647734220409 2020.958984375 553.7080078125 C2011.6031596894281 559.2470507111966 2002.2830998835175 564.8399613853068 1993 570.5 C1982.366711554152 576.9832678695541 1971.676332698411 583.3647734220409 1960.958984375 589.7080078125 C1951.6031596894281 595.2470507111968 1942.2830998835175 600.8399613853067 1933 606.5 C1922.366711554152 612.9832678695541 1911.676332698411 619.3647734220409 1900.958984375 625.7080078125 C1891.6031596894281 631.2470507111968 1882.283099883518 636.8399613853067 1873 642.5 C1862.366711554152 648.9832678695541 1851.676332698411 655.3647734220408 1840.958984375 661.7080078125 C1831.6031596894281 667.2470507111968 1822.283099883518 672.8399613853067 1813 678.5 C1802.366711554152 684.9832678695541 1791.676332698411 691.3647734220409 1780.958984375 697.7080078125 C1771.6031596894277 703.247050711197 1762.283099883518 708.8399613853065 1753 714.5 C1742.366711554152 720.9832678695541 1731.676332698411 727.3647734220409 1720.958984375 733.7080078125 C1711.6031596894281 739.2470507111967 1702.2830998835175 744.8399613853068 1693 750.5 C1682.366711554152 756.9832678695542 1671.676332698411 763.3647734220408 1660.958984375 769.7080078125 C1651.6031596894281 775.2470507111968 1642.283099883518 780.8399613853065 1633 786.5 C1622.366711554152 792.9832678695541 1611.676332698411 799.3647734220409 1600.958984375 805.7080078125 C1591.603159689428 811.2470507111968 1582.2830998835177 816.8399613853067 1573 822.5 C1562.368384412047 828.9822479041977 1551.6797775538655 835.3629091401576 1540.9640197753906 841.7049865722656 C1532.0828668808656 846.9627966824414 1523.2306237492737 852.2638622436451 1514.4172973632813 857.6346130371094 C1511.574007357809 859.3652567772526 1508.7257969671602 861.0877877014012 1505.87890625 862.8125 C1501.6906045232956 865.3528366536881 1497.5189649001784 867.9164796867306 1493.362319946289 870.5082244873047 C1490.8863389755288 872.047038905334 1488.400379105462 873.5691926435914 1485.9122619628906 875.0882873535156 C1484.732680552239 875.8137606367097 1483.557551045662 876.5465292316246 1482.3872985839844 877.2869567871094 C1480.772485300106 878.3076806527351 1479.1404513074285 879.3010062123367 1477.5078125 880.29296875 C1476.5862939453125 880.8655541992188 1475.664775390625 881.4381396484375 1474.71533203125 882.028076171875 C1471.050905013724 883.3397183186805 1469.4961955911645 882.5964104015554 1466 881 C1464.1063871370911 879.9743351578105 1462.2450030091711 878.8876676424252 1460.4140625 877.75390625 C1459.3351171875 877.091328125 1458.256171875 876.42875 1457.14453125 875.74609375 C1456.5729931640626 875.3914404296875 1456.001455078125 875.036787109375 1455.41259765625 874.67138671875 C1452.2960007439274 872.7380921031028 1449.1667285147757 870.8254717096249 1446.0390625 868.91015625 C1445.3834332275392 868.5079788208008 1444.7278039550781 868.1058013916015 1444.0523071289063 867.6914367675781 C1436.747072460464 863.2173829260411 1429.3744015405696 858.8587178715829 1422 854.5 C1411.3876981832393 848.2212484929825 1400.818983812542 841.87706041599 1390.291015625 835.4580078125 C1380.9015744099868 829.7354806409783 1371.4626163931916 824.1006011858268 1362 818.5 C1351.388699015019 812.2195314265927 1340.8190077259871 805.877074996359 1330.291015625 799.4580078125 C1320.9015744099868 793.7354806409783 1311.4626163931916 788.1006011858268 1302 782.5 C1291.388699015019 776.2195314265925 1280.8190077259871 769.877074996359 1270.291015625 763.4580078125 C1260.9015744099868 757.7354806409783 1251.4626163931916 752.1006011858268 1242 746.5 C1231.388699015019 740.2195314265927 1220.8190077259874 733.877074996359 1210.291015625 727.4580078125 C1200.9015744099868 721.7354806409783 1191.4626163931916 716.1006011858268 1182 710.5 C1171.388699015019 704.2195314265925 1160.8190077259874 697.877074996359 1150.291015625 691.4580078125 C1140.9015744099868 685.7354806409784 1131.4626163931916 680.1006011858268 1122 674.5 C1111.388699015019 668.2195314265927 1100.819007725987 661.8770749963589 1090.291015625 655.4580078125 C1080.9015744099868 649.7354806409783 1071.4626163931916 644.1006011858268 1062 638.5 C1051.388699015019 632.2195314265925 1040.8190077259871 625.877074996359 1030.291015625 619.4580078125 C1020.9015744099868 613.7354806409783 1011.4626163931916 608.1006011858268 1002 602.5 C991.388699015019 596.2195314265927 980.8190077259869 589.8770749963589 970.291015625 583.4580078125 C960.9015744099868 577.7354806409783 951.4626163931916 572.1006011858268 942 566.5 C931.388699015019 560.2195314265927 920.8190077259869 553.8770749963589 910.291015625 547.4580078125 C900.901574409987 541.7354806409784 891.4626163931916 536.1006011858267 882 530.5 C871.388699015019 524.2195314265927 860.8190077259869 517.8770749963589 850.291015625 511.4580078125 C840.901574409987 505.7354806409784 831.4626163931916 500.10060118582675 822 494.5 C811.388699015019 488.2195314265927 800.8190077259869 481.877074996359 790.291015625 475.4580078125 C780.901574409987 469.7354806409783 771.4626163931916 464.10060118582675 762 458.5 C751.388699015019 452.21953142659265 740.8190077259871 445.877074996359 730.291015625 439.4580078125 C720.901574409987 433.7354806409783 711.4626163931916 428.10060118582675 702 422.5 C691.388699015019 416.21953142659265 680.8190077259871 409.877074996359 670.291015625 403.4580078125 C660.901574409987 397.7354806409783 651.4626163931914 392.10060118582675 642 386.5 C631.3886990150193 380.2195314265927 620.8190077259869 373.87707499635894 610.291015625 367.4580078125 C600.901574409987 361.7354806409783 591.4626163931916 356.10060118582675 582 350.5 C571.3886990150191 344.21953142659265 560.8190077259871 337.877074996359 550.291015625 331.4580078125 C540.9015744099869 325.7354806409783 531.4626163931915 320.10060118582675 522 314.5 C511.38869901501926 308.21953142659277 500.81900772598703 301.87707499635894 490.291015625 295.4580078125 C480.9015744099869 289.7354806409783 471.4626163931915 284.10060118582675 462 278.5 C451.38869901501926 272.2195314265927 440.81900772598703 265.87707499635894 430.291015625 259.4580078125 C420.9015744099868 253.7354806409783 411.46261639319164 248.10060118582678 402 242.5 C391.38869901501926 236.2195314265927 380.81900772598703 229.87707499635897 370.291015625 223.4580078125 C360.9015744099869 217.73548064097835 351.4626163931915 212.10060118582675 342 206.5 C331.38869901501926 200.21953142659274 320.81900772598703 193.87707499635897 310.291015625 187.4580078125 C300.901574409987 181.73548064097838 291.4626163931914 176.1006011858267 282 170.5 C271.38869901501926 164.21953142659274 260.81900772598703 157.87707499635897 250.291015625 151.4580078125 C240.9015744099869 145.73548064097835 231.46261639319152 140.10060118582675 222 134.5 C211.38869901501926 128.21953142659274 200.81900772598703 121.87707499635897 190.291015625 115.4580078125 C180.9015744099869 109.73548064097834 171.46261639319152 104.10060118582675 162 98.5 C151.38869901501926 92.21953142659274 140.81900772598703 85.87707499635897 130.291015625 79.4580078125 C120.90157440998689 73.73548064097834 111.46261639319152 68.10060118582673 102 62.5 C91.38935286531716 56.219918418371904 80.81977448454563 49.878684296534054 70.29302978515625 43.459014892578125 C61.5394371198646 38.12268112308037 52.74196928001942 32.86496370541149 43.91796875 27.64593505859375 C33.48509354519388 21.474792127787197 23.07210598500717 15.274238704005487 12.73736572265625 8.939727783203125 C11.031771421270662 7.894470808303383 9.324252554315478 6.852356317783659 7.61669921875 5.810302734375 C6.608813476562489 5.18969970703125 5.600927734374977 4.5690966796875 4.5625 3.9296875 C3.676914062499975 3.3855419921875 2.791328125000007 2.841396484375 1.87890625 2.28076171875 C1.258867187500016 1.8581103515625 0.638828124999975 1.4354589843749999 0 1 C0 0.6699999999999999 0 0.33999999999999997 0 0 Z " fill="#005EB8" transform="translate(449,0)"/>
</svg>
