<?xml version="1.0" encoding="UTF-8"?>
<!-- Generator: visioncortex VTracer 0.6.12 -->
<svg version="1.1" xmlns="http://www.w3.org/2000/svg" width="960" height="640">
<path d="M0 0 C316.8 0 633.6 0 960 0 C960 211.20000000000002 960 422.40000000000003 960 640 C643.2 640 326.4 640 0 640 C0 428.79999999999995 0 217.59999999999997 0 0 Z " fill="#FCEE41" transform="translate(0,0)"/>
<path d="M0 0 C105.60000000000002 0 211.20000000000005 0 320 0 C320 211.20000000000002 320 422.40000000000003 320 640 C214.39999999999998 640 108.79999999999995 640 0 640 C0 428.79999999999995 0 217.59999999999997 0 0 Z " fill="#E31B23" transform="translate(640,0)"/>
<path d="M0 0 C105.60000000000001 0 211.20000000000002 0 320 0 C320 211.20000000000002 320 422.40000000000003 320 640 C214.39999999999998 640 108.79999999999998 640 0 640 C0 428.79999999999995 0 217.59999999999997 0 0 Z " fill="#00853F" transform="translate(0,0)"/>
<path d="M0 0 C0.6599999999999682 0 1.3199999999999932 0 2 0 C2.112470703124984 0.37350585937500114 2.112470703124984 0.37350585937500114 2.681640625 2.263671875 C5.459549876285394 11.399040775519723 8.454704189975928 20.451061872457444 11.5 29.5 C14.492223434266748 38.39123632303199 17.43188089156928 47.285345915678704 20.16015625 56.26220703125 C21.435744206413403 60.42047544497666 22.84946999504649 64.52442248561573 24.265625 68.63671875 C25 71 25 71 25 73 C50.40999999999997 73 75.81999999999994 73 102 73 C99.40206848911271 75.59793151088729 97.46312021940025 77.5236265080722 94.55859375 79.5234375 C93.90254150390626 79.97968505859376 93.24648925781253 80.43593261718752 92.570556640625 80.906005859375 C91.86664794921876 81.39077392578122 91.16273925781252 81.8755419921875 90.4375 82.375 C84.0780365660703 86.80756184156922 77.7912206469764 91.32301379874116 71.5625 95.9375 C65.06779837428314 100.74506607913742 58.55134210461517 105.51983941043534 52 110.25 C51.240178222656255 110.79906005859374 50.48035644531251 111.34812011718748 49.697509765625 111.913818359375 C46.82235471542231 113.98675747790304 43.949778546593734 116.03348096893751 41 118 C43.03830854706291 125.79966783108887 45.39034744549099 133.45174477877276 47.94140625 141.09765625 C48.697432508023894 143.3860125803352 49.45328671652078 145.67442575824418 50.208984375 147.962890625 C51.38727830034077 151.52037991742088 52.567404737811785 155.07723839952666 53.750732421875 158.633056640625 C54.90277457182265 162.09874162313702 56.04751783471988 165.5667729401447 57.19140625 169.03515625 C57.36746650695795 169.5608142852783 57.36746650695795 169.5608142852783 58.25843811035156 172.22096252441406 C60.29967589754767 178.42658786411715 61.8934035517691 184.56002801779164 63 191 C60.36825760181068 189.70584165685267 57.954516915639715 188.36550397596574 55.55859375 186.671875 C54.902541503906264 186.20918212890626 54.24648925781253 185.74648925781253 53.570556640625 185.269775390625 C52.86664794921876 184.76824951171875 52.16273925781252 184.2667236328125 51.4375 183.75 C50.692985839843686 183.22204833984375 49.948471679687486 182.6940966796875 49.181396484375 182.150146484375 C43.60016203288956 178.17699540560864 38.072603217893175 174.1335286905495 32.5625 170.0625 C31.77979736328126 169.48435546874998 30.997094726562523 168.90621093749996 30.190673828125 168.310546875 C29.404587402343736 167.72982421874997 28.618500976562473 167.1491015625 27.80859375 166.55078125 C26.2058615247704 165.3670082769372 24.602995074879914 164.18341701333645 23 163 C22.585646972656264 162.69408935546875 22.585646972656264 162.69408935546875 20.48876953125 161.14599609375 C18.038448158581616 159.3414221350315 15.582532515272817 157.5447365750947 13.125 155.75 C12.38193603515623 155.20093994140626 11.638872070312516 154.65187988281252 10.873291015625 154.086181640625 C8.941332939363917 152.68041179979105 6.985236524897687 151.32899181051613 5 150 C4.175000000000011 149.43796874999998 3.3500000000000227 148.87593749999996 2.5 148.296875 C-1.9230099778309295 147.77164256513254 -4.774545285586441 150.87310402269748 -8.125 153.5 C-8.911972656249986 154.09296875 -9.698945312499973 154.68593750000002 -10.509765625 155.296875 C-12.176163754031961 156.55294073146354 -13.837187994284875 157.81616306818273 -15.4931640625 159.0859375 C-19.455657623400214 162.11144875023933 -23.480637717667378 165.05074927276917 -27.5 168 C-29.0756091478612 169.16394295966325 -30.651129761674838 170.32800577570316 -32.2265625 171.4921875 C-37.827368383969144 175.61946177408367 -43.47128180622019 179.6866034448724 -49.126953125 183.73828125 C-52.83301593718238 186.40062369494729 -56.46878339888946 189.10578717791333 -60 192 C-60.65999999999997 191.66999999999996 -61.31999999999999 191.34000000000003 -62 191 C-61.815095062255864 190.43497772216796 -61.63019012451173 189.86995544433591 -61.43968200683594 189.28781127929688 C-59.474911396422385 183.28337002277823 -57.511415047249784 177.2785130591064 -55.548583984375 171.2734375 C-54.820705515616 169.04709861071728 -54.09252659223307 166.82085792432184 -53.364013671875 164.5947265625 C-51.248826796916376 158.13092567753324 -49.14208128886622 151.66445953968787 -47.04217529296875 145.1956787109375 C-45.99578119370722 141.98706364510235 -44.93634245168795 138.78296094376714 -43.87548828125 135.5791015625 C-43.220043504671025 133.57628118184857 -42.564917900279625 131.57335631220695 -41.91015625 129.5703125 C-41.600494232177766 128.64612518310548 -41.290832214355476 127.72193786621096 -40.97178649902344 126.76974487304688 C-40.69629470825197 125.92034332275392 -40.4208029174805 125.07094177246097 -40.136962890625 124.19580078125 C-39.89216690063478 123.45451934814452 -39.647370910644554 122.71323791503903 -39.39515686035156 121.94949340820313 C-39 120 -39 120 -40 117 C-42.422913815466075 115.13321404540392 -44.845439532288765 113.39856637450112 -47.375 111.6875 C-48.93746508797136 110.60860365856627 -50.49861564309998 109.52780165591844 -52.05859375 108.4453125 C-52.87312011718751 107.88102539062498 -53.68764648437502 107.31673828124997 -54.52685546875 106.7353515625 C-58.54829717993994 103.9135936470866 -62.492399462091214 100.98958907991141 -66.4375 98.0625 C-72.8720227205348 93.29998678384447 -79.3250597298707 88.56523946150236 -85.8125 83.875 C-86.17984252929688 83.60884887695312 -86.17984252929688 83.60884887695312 -88.038818359375 82.261962890625 C-91.1595244421095 80.00962719612971 -94.28560513493392 77.79450247577819 -97.51171875 75.6953125 C-98.33285156250003 75.135859375 -99.153984375 74.57640624999999 -100 74 C-100 73.67000000000002 -100 73.34000000000003 -100 73 C-74.58999999999997 73 -49.18000000000001 73 -23 73 C-22.00999999999999 69.37 -21.019999999999982 65.74000000000001 -20 62 C-19.035782284660513 59.36447157807214 -18.070487689963784 56.72928760787079 -17.087158203125 54.100830078125 C-15.833071185079973 50.523879883606696 -14.77418651431526 46.903819920860485 -13.73046875 43.26171875 C-11.067382044607996 34.09224767195474 -8.150012296887382 25.01381961917275 -5.1875 15.9375 C-4.680121776711019 14.377023587995268 -4.172959518826019 12.816476939428753 -3.666015625 11.255859375 C-2.446481782915896 7.5030973322733985 -1.2240880090524229 3.7512788920817286 0 0 Z " fill="#01853F" transform="translate(479,215)"/>
</svg>
