<?xml version="1.0" encoding="UTF-8"?>
<!-- Generator: visioncortex VTracer 0.6.12 -->
<svg version="1.1" xmlns="http://www.w3.org/2000/svg" width="3840" height="3840">
<path d="M0 0 C1267.2 0 2534.4 0 3840 0 C3840 1267.2 3840 2534.4 3840 3840 C2572.8 3840 1305.6 3840 0 3840 C0 2572.8 0 1305.6 0 0 Z " fill="#FF0000" transform="translate(0,0)"/>
<path d="M0 0 C237.5999999999999 0 475.20000000000005 0 720 0 C720 277.20000000000005 720 554.4000000000001 720 840 C997.1999999999998 840 1274.4 840 1560 840 C1560 1077.6 1560 1315.2 1560 1560 C1282.8000000000002 1560 1005.5999999999999 1560 720 1560 C720 1837.1999999999998 720 2114.4 720 2400 C482.4000000000001 2400 244.79999999999995 2400 0 2400 C0 2122.8 0 1845.6 0 1560 C-277.20000000000005 1560 -554.4 1560 -840 1560 C-840 1322.4 -840 1084.8 -840 840 C-562.8 840 -285.5999999999999 840 0 840 C0 562.8 0 285.6 0 0 Z " fill="#FFFFFF" transform="translate(1560,720)"/>
</svg>
