<?xml version="1.0" encoding="UTF-8"?>
<!-- Generator: visioncortex VTracer 0.6.12 -->
<svg version="1.1" xmlns="http://www.w3.org/2000/svg" width="3840" height="2400">
<path d="M0 0 C1267.2 0 2534.4 0 3840 0 C3840 792 3840 1584 3840 2400 C2572.8 2400 1305.6 2400 0 2400 C0 1608 0 816 0 0 Z " fill="#FECB00" transform="translate(0,0)"/>
<path d="M0 0 C712.8000000000002 0 1425.6000000000004 0 2160 0 C2160 316.79999999999995 2160 633.5999999999999 2160 960 C1447.1999999999998 960 734.3999999999996 960 0 960 C0 643.1999999999998 0 326.4000000000001 0 0 Z " fill="#005293" transform="translate(1680,1440)"/>
<path d="M0 0 C712.8000000000002 0 1425.6000000000004 0 2160 0 C2160 316.8 2160 633.6 2160 960 C1447.1999999999998 960 734.3999999999996 960 0 960 C0 643.2 0 326.4 0 0 Z " fill="#005293" transform="translate(1680,0)"/>
<path d="M0 0 C396 0 792 0 1200 0 C1200 316.79999999999995 1200 633.5999999999999 1200 960 C804 960 408 960 0 960 C0 643.1999999999998 0 326.4000000000001 0 0 Z " fill="#005293" transform="translate(0,1440)"/>
<path d="M0 0 C396 0 792 0 1200 0 C1200 316.8 1200 633.6 1200 960 C804 960 408 960 0 960 C0 643.2 0 326.4 0 0 Z " fill="#005293" transform="translate(0,0)"/>
</svg>
