<?xml version="1.0" encoding="UTF-8"?>
<!-- Generator: visioncortex VTracer 0.6.12 -->
<svg version="1.1" xmlns="http://www.w3.org/2000/svg" width="1280" height="854">
<path d="M0 0 C422.40000000000003 0 844.8000000000001 0 1280 0 C1280 281.82 1280 563.64 1280 854 C857.5999999999999 854 435.19999999999993 854 0 854 C0 572.1800000000001 0 290.36 0 0 Z " fill="#E70013" transform="translate(0,0)"/>
<path d="M0 0 C0.5331230163574219 -0.00003524780274233308 0.5331230163574219 -0.00003524780274233308 3.231048583984375 -0.000213623046875 C56.728155935629275 0.13566891931574787 104.87777777842416 19.37668820322216 145 54.4375 C145.42345703125 54.79908203125001 145.42345703125 54.79908203125001 147.56640625 56.62890625 C151.70209287545958 60.20477065881522 155.47819609259363 63.88426410995493 159 68.06640625 C160.55858059101672 69.91417659911554 162.14016701401965 71.7250070228099 163.75 73.52734375 C196.79988802154367 110.8061614017704 215.57629619139072 160.5476448943557 215.3125 210.3125 C215.31100952148438 211.01728485107424 215.30951904296876 211.72206970214847 215.3079833984375 212.44821166992188 C215.23564023125118 231.6831260885457 213.74773973660604 250.99206431140988 208 269.4375 C207.692880859375 270.4392626953125 207.38576171875002 271.441025390625 207.0693359375 272.47314453125 C202.98581277403332 285.6483212738823 198.77298901997574 298.5373299959946 192.0224609375 310.60595703125 C190.9395588346847 312.545768773208 189.89482336921878 314.50345707539054 188.8515625 316.46484375 C162.5156047265275 365.33293500722516 116.3710516982303 401.6799298280607 63.5947265625 418.18994140625 C25.062161706537267 429.65437255824054 -19.543458260445504 430.9171427247195 -58 418.4375 C-58.823227539062486 418.1801708984375 -59.64645507812497 417.922841796875 -60.49462890625 417.65771484375 C-101.46715932442532 404.7439666019652 -138.3166628913665 380.26404479747316 -165 346.4375 C-165.75667968749997 345.532578125 -166.513359375 344.62765625 -167.29296875 343.6953125 C-191.2760030520921 314.1957890680628 -205.1531654132711 276.83716256312107 -210 239.4375 C-210.10239990234373 238.72956298828126 -210.20479980468753 238.02162597656252 -210.310302734375 237.292236328125 C-211.28285633645442 229.9347692640324 -211.19912326887135 222.5341881683304 -211.1875 215.125 C-211.1868957519531 214.4154113769531 -211.18629150390626 213.70582275390626 -211.1856689453125 212.9747314453125 C-211.15888658401155 201.36751734881756 -210.759519490613 189.92583895820871 -209 178.4375 C-208.881728515625 177.651171875 -208.76345703125003 176.86484374999998 -208.6416015625 176.0546875 C-205.5302736869146 156.35752781944922 -199.1468798122139 137.147816673443 -190 119.4375 C-189.65324218749998 118.75107421874998 -189.30648437500003 118.06464843750001 -188.94921875 117.357421875 C-180.08763821703394 99.83779534427737 -169.26977484629685 84.01225595227976 -155.953125 69.578125 C-154.37097392165026 67.84408741812865 -152.89053119458748 66.0905061798108 -151.4375 64.25 C-148.86549230061127 61.28229880839757 -146.13152116995394 58.81154767317048 -143.14453125 56.2734375 C-141.74466266470444 55.075007199291576 -140.36560167502319 53.85170979815496 -139.01171875 52.6015625 C-113.39253662800161 28.960509317741582 -80.03347863062879 12.88340353613529 -46.375 4.75 C-45.540895996093695 4.547536621093741 -44.706791992187505 4.34507324218751 -43.847412109375 4.136474609375 C-41.23875062204036 3.5281165936156924 -38.62483806391879 2.9716900167921096 -36 2.4375 C-35.09797851562496 2.2484106445312477 -34.19595703125003 2.0593212890624955 -33.2666015625 1.864501953125 C-22.267023246301164 -0.1458342281481464 -11.143863403175942 -0.005269372912039216 0 0 Z " fill="#FEFEFE" transform="translate(638,213.5625)"/>
<path d="M0 0 C4.725566845610842 4.011020762716328 9.279255620636604 8.166525261456172 13.7373046875 12.474609375 C14.435976562499945 13.144921875000023 15.134648437500005 13.815234374999989 15.8544921875 14.505859375 C19.40250512242642 17.977734693297066 22.62507049538931 21.6078941666201 25.7373046875 25.474609375 C25.407304687500073 26.134609374999968 25.077304687499918 26.794609374999993 24.7373046875 27.474609375 C23.865898437499936 26.83394531250002 22.994492187499986 26.193281249999984 22.0966796875 25.533203125 C-1.9639020734705355 7.988816254746268 -27.168899453839117 -1.941438644647235 -57.2626953125 -1.900390625 C-57.9397854614258 -1.8998468017578034 -58.6168756103516 -1.8993029785156068 -59.314483642578125 -1.89874267578125 C-93.78512719193179 -1.772025413038591 -123.43967967867991 11.799707701914826 -148.2626953125 35.474609375 C-148.80547119140624 35.99039550781248 -149.34824707031248 36.506181640625016 -149.907470703125 37.03759765625 C-170.75637421209967 57.29049229730293 -183.837525144771 87.9125920909135 -184.5634765625 116.900390625 C-184.57789928842374 119.5292602138262 -184.58166088358053 122.15820817364823 -184.5751953125 124.787109375 C-184.59130859375 126.08583984375002 -184.607421875 127.38457031249999 -184.6240234375 128.72265625 C-184.63024238229434 141.22895423135367 -182.3927376309024 153.00949579464373 -178.5751953125 164.912109375 C-178.32100830078127 165.70504394531247 -178.06682128906255 166.497978515625 -177.804931640625 167.31494140625 C-172.2232212581332 184.0450365185735 -163.20595688865467 198.70752001936614 -151.0126953125 211.451171875 C-149.2626953125 213.474609375 -149.2626953125 213.474609375 -148.2626953125 216.474609375 C-146.94100165025452 217.16406429405015 -145.6054485983732 217.82712513928539 -144.2626953125 218.474609375 C-142.85936247253358 219.7567709054913 -141.4878440774188 221.07405871729372 -140.1376953125 222.412109375 C-116.34880185384645 244.13696648944688 -82.5350335890165 253.80531214930193 -50.8623046875 252.61376953125 C-24.227504002763226 251.18797723313764 1.6461646168111201 241.3164457122591 22.2958984375 224.443359375 C24.7373046875 222.474609375 24.7373046875 222.474609375 26.7373046875 221.474609375 C24.280785722061637 227.0460956883653 19.864973217743454 231.09422644494566 15.7373046875 235.474609375 C15.280009765624982 235.9605859375 14.822714843749964 236.44656250000003 14.3515625 236.947265625 C-12.61045593956078 265.37521624400006 -51.80473330387963 284.26978610756123 -91.2626953125 285.474609375 C-91.90335937500004 285.500390625 -91.90335937500004 285.500390625 -95.1455078125 285.630859375 C-137.52175499126747 286.8032672653924 -177.69814839396406 271.59584050348315 -208.7392578125 242.865234375 C-209.57199218749997 242.07632812499992 -210.40472656249995 241.28742187500006 -211.2626953125 240.474609375 C-212.21917968749995 239.58257812500005 -213.1756640625 238.690546875 -214.1611328125 237.771484375 C-226.4537772973806 226.0749914170292 -235.48508928917806 212.48756593808412 -243.2626953125 197.474609375 C-243.53404296875 196.95318359375 -243.53404296875 196.95318359375 -244.9072265625 194.314453125 C-252.44471903423027 178.90137485167293 -257.2625323688764 162.48870315350666 -259.2626953125 145.474609375 C-259.35478271484374 144.7180908203125 -259.4468701171875 143.96157226562502 -259.541748046875 143.18212890625 C-264.2647541010965 100.94241438358972 -252.75395273326143 60.063595983392986 -226.80078125 26.3896484375 C-222.58553852800105 21.141336705538095 -217.98836151361434 16.261931666929854 -213.2626953125 11.474609375 C-212.72394775390626 10.9146728515625 -212.18520019531252 10.354736328125 -211.630126953125 9.77783203125 C-207.4628150905337 5.5015207773708426 -203.07164857383225 1.718620626108077 -198.3251953125 -1.900390625 C-197.5908325195312 -2.4605688476562477 -196.85646972656252 -3.0207470703124955 -196.099853515625 -3.597900390625 C-189.4140463590386 -8.591695595934937 -182.43254513392003 -12.755517279464584 -175.03515625 -16.59814453125 C-173.45328913159597 -17.42568327996878 -171.89153582452707 -18.29141172561424 -170.3330078125 -19.162109375 C-117.270502913688 -47.797823775067116 -45.763034367755154 -37.88148388889084 0 0 Z " fill="#E70114" transform="translate(740.2626953125,301.525390625)"/>
<path d="M0 0 C2.641020928955527 2.641020928955527 4.675564594608318 4.746754057628834 6.77734375 7.6953125 C7.284187011718814 8.402041015625002 7.791030273437514 9.108769531250005 8.313232421875 9.8369140625 C8.581236572265652 10.214448242187473 8.581236572265652 10.214448242187473 9.9375 12.125 C11.098843832649663 13.747477797214344 12.260305532937423 15.369871232043977 13.421875 16.9921875 C14.014199218750036 17.822021484375 14.606523437499959 18.65185546875 15.216796875 19.5068359375 C18.024647435176803 23.432598522456885 20.857355108549655 27.340297901223266 23.6875 31.25 C29.153542557608603 38.813036246325964 34.58658636350674 46.39922509729382 40 54 C47.96738276367205 53.48499807231019 55.20183296695939 50.77375966887871 62.6875 48.1875 C65.2737307415847 47.30301748847717 67.86134272008667 46.42262421881219 70.44921875 45.54296875 C70.76657737731932 45.43477310180663 70.76657737731932 45.43477310180663 72.37260437011719 44.887237548828125 C78.54270553383867 42.793760076540366 84.76467282263752 40.887893831543636 91 39 C93.93937844830327 38.08931527527068 96.87602525751436 37.16999898336002 99.8125 36.25 C100.51697265625 36.02957031250003 101.22144531250001 35.809140625 101.947265625 35.58203125 C103.6315962749701 35.05496179490734 105.31581193418185 34.52752488839491 107 34 C105.68651189875925 36.77075248372353 104.2244703619051 39.21979592384298 102.41796875 41.6953125 C101.90476074218748 42.401960449218734 101.39155273437495 43.10860839843747 100.86279296875 43.836669921875 C100.30994628906251 44.59181884765627 99.75709960937502 45.346967773437484 99.1875 46.125 C98.00641104847557 47.74862563699776 96.82542433837148 49.37232565252856 95.64453125 50.99609375 C95.03947753906255 51.82608886718748 94.43442382812498 52.656083984375016 93.81103515625 53.51123046875 C92.08014782037333 55.889858872892205 90.35661812575984 58.27357422961569 88.63671875 60.66015625 C88.09523193359371 61.41127685546877 87.55374511718753 62.162397460937484 86.995849609375 62.936279296875 C85.91838212568416 64.43278896205254 84.84236356943086 65.9303429392458 83.767822265625 67.428955078125 C81.1330761976709 71.09309405682632 78.46410788436492 74.71882601159717 75.703125 78.2890625 C75.18443847656249 78.96815673828127 74.66575195312498 79.64725097656253 74.13134765625 80.346923828125 C73.1540557738249 81.62215509966546 72.16475471551848 82.88830570375825 71.16162109375 84.143310546875 C69.29661828902726 86.59186529142806 68.0310883485979 88.34507212287042 67.8828125 91.46875 C69.4987498770679 95.13003468650362 71.78128547447409 98.05563540669516 74.25 101.1875 C75.35177810519872 102.6199276705745 76.45198321591056 104.05356632890812 77.55078125 105.48828125 C78.12135253906251 106.23029785156251 78.69192382812503 106.97231445312502 79.27978515625 107.73681640625 C82.06545290162444 111.40175254017288 84.75252213639476 115.1359833161763 87.4375 118.875 C87.96722412109375 119.61113525390624 88.4969482421875 120.34727050781248 89.042724609375 121.105712890625 C90.12952699309346 122.61636984049784 91.2158665378713 124.12735986845058 92.3017578125 125.638671875 C95.29860044278348 129.80564454896523 98.3062605081941 133.96480446065868 101.3125 138.125 C102.41280586767107 139.6484046732429 103.51307066485447 141.17183901180812 104.61328125 142.6953125 C105.07516845703128 143.3348486328125 105.53705566406256 143.97438476562502 106.012939453125 144.63330078125 C106.33866943359374 145.08431152343746 106.66439941406247 145.53532226562504 107 146 C104.01527945970815 147.49236027014592 102.36525148301712 146.33270624690874 99.23681640625 145.29345703125 C98.63271438598633 145.09482559204105 98.63271438598633 145.09482559204105 95.57559204101563 144.08963012695313 C94.25087768720766 143.6458038456642 92.92620211682129 143.2018617908393 91.6015625 142.7578125 C90.24659696970991 142.30968227194046 88.89139945279703 141.8622529178307 87.53598022460938 141.41549682617188 C83.96132833680554 140.23537978435735 80.38962769548334 139.04657264659284 76.81854248046875 137.855712890625 C71.79330284064179 136.18170501706123 66.76412369508353 134.5195623004057 61.735443115234375 132.85592651367188 C59.056729433753276 131.96968243278513 56.379103366880145 131.08026246403404 53.702301025390625 130.18826293945313 C53.095046844482454 129.9864793395996 53.095046844482454 129.9864793395996 50.02197265625 128.96533203125 C48.95322906494141 128.60923858642582 47.88448547363282 128.25314514160152 46.783355712890625 127.88626098632813 C44.53075948810795 127.16900154919296 42.30127638455565 126.5345840429435 40 126 C39.87947265624996 126.26683593749999 39.87947265624996 126.26683593749999 39.26953125 127.6171875 C37.658601283981056 130.64077912852792 35.69579757896042 133.3589063791651 33.6875 136.125 C33.250910644531245 136.73118164062498 32.81432128906249 137.33736328124996 32.364501953125 137.9619140625 C30.91241126052489 139.97660417509468 29.45620716891881 141.98828374915564 28 144 C26.968494645446185 145.4295032751565 25.937249843278096 146.85919459235367 24.90625 148.2890625 C22.74008398404544 151.29262286849956 20.570187045460216 154.29344383222855 18.3984375 157.29296875 C16.03684832145541 160.5575184968116 13.690121294362825 163.83219729424366 11.3515625 167.11328125 C10.758996582031273 167.941826171875 10.166430664062545 168.77037109375 9.555908203125 169.6240234375 C8.413045962797355 171.22252617610707 7.273438285501925 172.82336192146914 6.137451171875 174.4267578125 C5.880806884765661 174.78495605468748 5.880806884765661 174.78495605468748 4.58203125 176.59765625 C4.130617675781195 177.2319555664062 3.6792041015625045 177.86625488281254 3.214111328125 178.519775390625 C2 180 2 180 0 181 C0 158.23000000000002 0 135.46000000000004 0 112 C-2.9700000000000273 111.34000000000003 -5.940000000000055 110.68 -9 110 C-11.02262164492663 109.416697531392 -13.036968573763374 108.80337180182005 -15.038818359375 108.15234375 C-16.132824554443346 107.79857666015624 -17.22683074951169 107.44480957031249 -18.353988647460938 107.080322265625 C-19.504320831298855 106.70319091796875 -20.654653015136773 106.32605957031251 -21.83984375 105.9375 C-22.4414960479736 105.74152221679685 -22.4414960479736 105.74152221679685 -25.486221313476563 104.749755859375 C-28.014090587692976 103.924838599559 -30.541299800441266 103.0981569051811 -33.067626953125 102.2685546875 C-36.305685531995664 101.20565704290487 -39.546752023662975 100.15227319505152 -42.78871822357178 99.10136413574219 C-45.89093518650009 98.0940374370399 -48.99022780587279 97.07779675301975 -52.08984375 96.0625 C-53.254345550537096 95.68536865234375 -54.41884735107419 95.30823730468751 -55.61863708496094 94.919677734375 C-56.69057815551753 94.56591064453124 -57.76251922607423 94.21214355468749 -58.866943359375 93.84765625 C-59.812425384521475 93.53836181640622 -60.75790740966795 93.2290673828125 -61.73204040527344 92.910400390625 C-64 92 -64 92 -66 90 C-57.69112028937889 87.2584632325827 -49.38120316167067 84.52010119402803 -41.06993293762207 81.78582000732422 C-37.21097893156559 80.51617169578043 -33.35239537713733 79.24542043992483 -29.49462890625 77.97216796875 C-25.773734211833016 76.74413449768934 -22.051905395657514 75.5189729785086 -18.329402923583984 74.29582214355469 C-16.907257229906804 73.82796526899438 -15.48545492936853 73.35906328179192 -14.06399917602539 72.88911437988281 C-12.077573887884569 72.23257555790588 -10.089975309479314 71.57971707245684 -8.10205078125 70.927734375 C-6.969538879394577 70.55467163085939 -5.83702697753904 70.18160888671878 -4.670196533203125 69.7972412109375 C-2 69 -2 69 0 69 C0 46.23000000000002 0 23.45999999999998 0 0 Z " fill="#E70215" transform="translate(653,336)"/>
</svg>
