<?xml version="1.0" encoding="UTF-8"?>
<!-- Generator: visioncortex VTracer 0.6.12 -->
<svg version="1.1" xmlns="http://www.w3.org/2000/svg" width="1280" height="854">
<path d="M0 0 C422.40000000000003 0 844.8000000000001 0 1280 0 C1280 281.82 1280 563.64 1280 854 C857.5999999999999 854 435.19999999999993 854 0 854 C0 572.1800000000001 0 290.36 0 0 Z " fill="#FEFEFE" transform="translate(0,0)"/>
<path d="M0 0 C422.40000000000003 0 844.8000000000001 0 1280 0 C1280 31.350000000000023 1280 62.700000000000045 1280 95 C857.5999999999999 95 435.19999999999993 95 0 95 C0 63.64999999999998 0 32.299999999999955 0 0 Z " fill="#FFFFFF" transform="translate(0,759)"/>
<path d="M0 0 C422.40000000000003 0 844.8000000000001 0 1280 0 C1280 31.350000000000023 1280 62.700000000000045 1280 95 C857.5999999999999 95 435.19999999999993 95 0 95 C0 63.64999999999998 0 32.299999999999955 0 0 Z " fill="#0139A8" transform="translate(0,664)"/>
<path d="M0 0 C422.40000000000003 0 844.8000000000001 0 1280 0 C1280 31.350000000000023 1280 62.700000000000045 1280 95 C857.5999999999999 95 435.19999999999993 95 0 95 C0 63.64999999999998 0 32.299999999999955 0 0 Z " fill="#FEFEFE" transform="translate(0,569)"/>
<path d="M0 0 C422.40000000000003 0 844.8000000000001 0 1280 0 C1280 31.350000000000023 1280 62.700000000000045 1280 95 C857.5999999999999 95 435.19999999999993 95 0 95 C0 63.64999999999998 0 32.30000000000001 0 0 Z " fill="#0038A8" transform="translate(0,474)"/>
<path d="M0 0 C265.98 0 531.96 0 806 0 C806 31.350000000000023 806 62.69999999999999 806 95 C540.02 95 274.03999999999996 95 0 95 C0 63.64999999999998 0 32.30000000000001 0 0 Z " fill="#0138A8" transform="translate(474,284)"/>
<path d="M0 0 C265.98 0 531.96 0 806 0 C806 31.349999999999994 806 62.69999999999999 806 95 C540.02 95 274.03999999999996 95 0 95 C0 63.650000000000006 0 32.3 0 0 Z " fill="#0138A8" transform="translate(474,95)"/>
<path d="M0 0 C0.6599999999999966 0 1.3199999999999932 0 2 0 C11.092371106202364 48.29524973344567 11.092371106202364 48.29524973344567 15.23486328125 71.259521484375 C15.4564208984375 72.48743408203126 15.677978515625 73.71534667968751 15.90625 74.98046875 C16.095097656250005 76.03129638671874 16.28394531250001 77.0821240234375 16.478515625 78.164794921875 C16.95995700698495 80.78229434555999 17.4699374790155 83.39196048074427 18 86 C28.02297532386524 75.47587590994146 33.960634544442655 62.389567891369836 37.388916015625 48.39794921875 C39.91231241214996 38.22071513331784 43.680148083274275 28.646555232934816 53 23 C55.71229977796645 21.599635710574248 58.465432750183936 20.31230298698641 61.25 19.0625 C61.96011230468753 18.743215332031255 62.670224609375 18.423930664062496 63.40185546875 18.094970703125 C68.62341510969611 15.874471703232047 68.62341510969611 15.874471703232047 72 17 C71.33613281250001 17.605859374999994 70.67226562500002 18.211718750000003 69.98828125 18.8359375 C63.024894222076625 25.44353103014629 57.50137396337607 31.03126234076143 56.671875 40.90625 C56.53746294009511 46.286500958621104 56.71821593017694 51.66965406938823 57.5 57 C59.38639116724664 69.86687706614515 57.51239259984618 81.62162279195758 54 94 C53.69191406250002 95.08667968750001 53.383828125000036 96.17335937500002 53.06640625 97.29296875 C52.404424282271464 99.5386396357394 51.72223182937705 101.77311852608756 51 104 C51.41378906249997 103.68998046875001 51.41378906249997 103.68998046875001 53.5078125 102.12109375 C61.96284705786752 95.83187488858508 70.5832507527142 89.82272971520268 79.3056640625 83.910888671875 C86.1961116593177 79.23859080109128 93.04643731947442 74.51225514187536 99.875 69.75 C108.89149435820332 63.46291346661579 117.93176506900858 57.21220157826987 127 51 C127 55.034281838199306 125.00876695874217 57.0840202591252 122.6875 60.1875 C121.75519400595283 61.462580182893745 120.82425136070208 62.73865810336535 119.89453125 64.015625 C119.41193847656251 64.67626953125 118.92934570312502 65.3369140625 118.43212890625 66.017578125 C116.19101056718978 69.1198421742958 114.03204375469 72.2764548431552 111.875 75.4375 C107.99088652252999 81.11725926960958 104.07129513613609 86.77092827936838 100.13134765625 92.412109375 C92.61092815949445 103.1824434572074 85.22957715331216 114.03240284128213 78 125 C96.70914544407236 123.06854738867048 111.44736052702382 116.06183895593597 127.7861328125 107.1357421875 C134.3666094281756 103.7598735046457 142.1655813343042 104.1083821656876 149.2421875 105.75390625 C155.107641557298 107.6568207342379 160.5756081787618 110.07917363471788 166 113 C166 113.32999999999998 166 113.66 166 114 C164.816640625 114.02578125 163.63328124999998 114.05156249999999 162.4140625 114.078125 C151.0878417729017 114.43293094086368 141.99590002756003 114.8704698366335 133.4375 123.0625 C130.28515041094033 126.43091572961032 127.38413763020355 129.96357609402676 124.5 133.5625 C115.00998294324444 145.30660028194018 102.67208860747002 153.7108392405638 89 160 C94.42476405757208 162.03648100543157 99.89525002893726 162.9810174045404 105.58203125 163.953125 C106.61762176513673 164.13406204223634 107.65321228027346 164.31499908447265 108.72018432617188 164.5014190673828 C112.08359792291759 165.08833303072427 115.44804231672379 165.66910425765857 118.8125 166.25 C122.27564692630551 166.85313422157105 125.7384926411612 167.45797577114905 129.20130920410156 168.06300354003906 C131.50911570508873 168.46619213741116 133.81700760295195 168.8688922386775 136.12498474121094 169.27110290527344 C145.9871883018493 170.99136523160195 155.83973905060355 172.7615822825338 165.6875 174.5625 C166.38694732666016 174.69023803710937 167.08639465332033 174.81797607421876 167.80703735351563 174.9495849609375 C171.53838172333042 175.6311181967697 175.26939433259287 176.31443505221188 179 177 C179 177.66 179 178.32 179 179 C177.9815802001953 179.18570053100586 176.96316040039062 179.37140106201173 175.91387939453125 179.56272888183594 C166.31994835739675 181.3122793715405 156.72626789949288 183.06319804234874 147.13283157348633 184.8154592514038 C142.20065904173305 185.7162853614277 137.26839925137494 186.6166278822661 132.3359375 187.515869140625 C127.57656140517929 188.38357332564473 122.81741790136635 189.252542679915 118.05843353271484 190.12239265441895 C116.24203480804215 190.45416469525333 114.42555249934571 190.78547946089284 112.6089859008789 191.11633110046387 C110.06625010711053 191.57952048701793 107.52381535270428 192.0443293469148 104.9814453125 192.509521484375 C104.22906585693357 192.64618728637694 103.4766864013672 192.7828530883789 102.70150756835938 192.9236602783203 C99.44011839712908 193.52198542146752 96.20176346786286 194.13225635958906 93 195 C104.99046386171949 205.8375346442465 118.40868605381684 211.32195862264257 133.842529296875 215.390869140625 C143.93273951423492 218.16745231539073 151.60118945308278 222.87679261202106 157 232 C159.86652776878157 237.46116265976548 162.49484211110303 242.76971937027076 163 249 C161.97916666666669 248.125 160.95833333333331 247.25 159.9375 246.375 C159.29683593750002 245.8297265625 158.65617187499998 245.28445312500003 157.99609375 244.72265625 C156.7224831425384 243.62351284904003 155.46289845890112 242.50775529090504 154.22265625 241.37109375 C153.6541796875 240.8567578125 153.085703125 240.342421875 152.5 239.8125 C152.24734375000003 239.57853515624998 152.24734375000003 239.57853515624998 150.96875 238.39453125 C144.83582397889052 234.05037531838076 139.57730112196583 233.61362715379835 132.2890625 233.84765625 C130.38411814179005 233.87589214377448 128.47917007345103 233.90387862119405 126.57421875 233.931640625 C123.6148558219499 233.9932432925001 120.65582456629829 234.0617161503484 117.69677734375 234.136962890625 C102.41048263420208 234.4955366441111 89.49779894561601 232.9634495715719 75 228 C75.6432421875 228.86238281249996 76.28648437499999 229.72476562500003 76.94921875 230.61328125 C82.7413308699887 238.4216969127915 88.3395036893221 246.33923440847298 93.804931640625 254.37939453125 C98.20190110179925 260.8457911359867 102.6533383141475 267.27255595657346 107.125 273.6875 C108.47274626888844 275.623635257508 109.82040417735095 277.55983202615954 111.16796875 279.49609375 C113.03209430477568 282.174231662944 114.89671632608605 284.8520067589669 116.76416015625 287.52783203125 C118.32537059010224 289.76619397858036 119.88205791915681 292.0076275268623 121.4375 294.25 C121.89205566406253 294.89928466796874 122.346611328125 295.5485693359375 122.81494140625 296.217529296875 C124.60356138589628 298.80354934989714 125.99952535928765 300.99857607786294 127 304 C115.14259725055496 298.3847701922168 104.41436758473282 289.43997447529273 93.6875 281.9609375 C86.48234275292975 276.9387997499726 79.2469183576464 271.96161108021187 72 267 C71.58395507812497 266.7151171875 71.58395507812497 266.7151171875 69.478515625 265.2734375 C63.986963033664665 261.51374381037493 58.49406655353465 257.75601895935455 53 254 C56.90868921073928 272.8320897536068 62.892460084871345 288.23004720707195 72.0478515625 305.105712890625 C75.4722146953684 311.91843944137514 75.00520761661477 320.42161612927094 72.98828125 327.6015625 C70.9607667384164 332.8986724852183 68.56557884241874 337.94407923136237 66 343 C65.66999999999996 343 65.34000000000003 343 65 343 C64.96261718749997 341.8772265625 64.925234375 340.754453125 64.88671875 339.59765625 C64.37884363989417 327.0368665793446 63.51823397778924 318.01470965473214 54 309 C50.74595705890749 306.1309937813374 47.409544678928 303.360298657665 44.078125 300.58203125 C32.97747168075688 291.30143089675795 25.54807222409852 279.81367858754965 19 267 C17.287877354701436 272.60820151250607 16.11246275808361 278.22519035758546 15.046875 283.98828125 C14.865937957763663 284.9529985046387 14.685000915527354 285.91771575927737 14.498580932617188 286.9116668701172 C13.912191118375489 290.0446307519362 13.330895018720753 293.17851304881214 12.75 296.3125 C12.347833179211449 298.4694188593802 11.945570189006531 300.6263197896913 11.543212890625 302.783203125 C8.245843258756565 320.5018029696743 5.0707430127893645 338.24077769264136 2 356 C1.3400000000000034 356 0.6800000000000068 356 0 356 C-0.04971450805663835 355.7171741485596 -0.04971450805663835 355.7171741485596 -0.301300048828125 354.28590393066406 C-8.765742685766241 306.1406664431066 -8.765742685766241 306.1406664431066 -12.12103271484375 287.5409851074219 C-12.372953928674804 286.14267833453306 -12.623814713428828 284.7441800832985 -12.87359619140625 283.3454895019531 C-13.21478026152107 281.4368127792505 -13.56037750156932 279.52892645134364 -13.90625 277.62109375 C-14.000673828125002 277.09737182617187 -14.000673828125002 277.09737182617187 -14.478515625 274.447021484375 C-14.999999999999972 272.00000000000006 -14.999999999999972 272.00000000000006 -16 270 C-26.393109116143165 281.49875902211585 -31.730531059000498 294.244783686222 -35.9267578125 308.968994140625 C-38.811979206986564 319.03292114758415 -41.972944052431274 327.03270500599166 -51 333 C-54.586376107550535 334.8912726738275 -58.23611266629297 336.49782075022455 -62 338 C-62.43634765625001 338.19787109375 -62.43634765625001 338.19787109375 -64.64453125 339.19921875 C-67.00000000000003 340 -67.00000000000003 340 -70 339 C-69.33613281250001 338.394140625 -68.672265625 337.78828125 -67.98828125 337.1640625 C-61.13132645147883 330.6574630561478 -55.23110636312532 324.8092090819347 -54.671875 314.98828125 C-54.558692122041066 310.15438338455067 -54.52968628511229 305.30380233777026 -55.5 300.55078125 C-58.523713410972874 285.1251183018337 -55.27842988517355 267.2584902999736 -49 253 C-56.33866778262467 257.5014722467935 -63.385288738645784 262.3368843921067 -70.399658203125 267.322265625 C-75.11438165817077 270.67229582720535 -79.85225242231473 273.98320751953315 -84.625 277.25 C-91.43221628584712 281.9151520510555 -98.22088288323661 286.60660279817125 -105 291.3125 C-105.96760253906251 291.982490234375 -106.935205078125 292.65248046875 -107.93212890625 293.3427734375 C-113.37209146075705 297.1227508839691 -118.7372153460944 300.9765709728648 -124 305 C-124.66 304.67 -125.32 304.34 -126 304 C-125.58339111328125 303.40276123046874 -125.1667822265625 302.8055224609375 -124.737548828125 302.190185546875 C-117.09821858513595 291.2345081834549 -109.47587299006167 280.2688927622292 -101.954345703125 269.23193359375 C-96.84944032065039 261.7525251511631 -91.66711769853339 254.32739208897556 -86.466796875 246.9140625 C-82.81960355529102 241.69537417775246 -79.31990744033698 236.4331562148592 -76 231 C-93.88025894381178 231.64918832899934 -108.21755769585343 239.28795123245612 -123.574951171875 247.750732421875 C-131.7403521496857 251.95715110741384 -140.6006713168061 252.59525620185275 -149.4375 249.984375 C-152.3663548214355 248.76890024910426 -155.18290443862506 247.45398480587096 -158 246 C-158.68449218749998 245.66999999999996 -159.368984375 245.34000000000003 -160.07421875 245 C-161.39570905694495 244.35927742693582 -162.70116964254 243.68549379977054 -164 243 C-164 242.66999999999996 -164 242.34000000000003 -164 242 C-162.8772265625 241.96261718749997 -161.754453125 241.925234375 -160.59765625 241.88671875 C-147.20499227295628 241.3466437169668 -138.59547251277667 240.12855431904205 -129 230 C-126.97529550493704 227.56638459711064 -125.03014418336448 225.08328982845603 -123.08984375 222.58203125 C-113.33131250749399 210.52522909804395 -101.57880670456248 203.00223731316783 -88 196 C-89.51679740592431 194.4832025940757 -91.1078839922028 194.53338589089677 -93.2080078125 194.17138671875 C-93.65940376281739 194.09250968933105 -93.65940376281739 194.09250968933105 -95.94374084472656 193.69334411621094 C-96.9368376159668 193.52383743286134 -97.92993438720703 193.35433074951172 -98.953125 193.1796875 C-99.46898918151857 193.089878616333 -99.46898918151857 193.089878616333 -102.07957458496094 192.63539123535156 C-104.30784907545143 192.24759269804278 -106.53641298803473 191.86145435582165 -108.76522827148438 191.47677612304688 C-114.58598478155247 190.4716048927004 -120.40444583919901 189.45338588214156 -126.22265625 188.43359375 C-127.3892024230957 188.2292219543457 -128.5557485961914 188.0248501586914 -129.7576446533203 187.8142852783203 C-140.41715406611604 185.93991886044913 -151.05642108117564 183.96638330875356 -161.6875 181.9375 C-162.4821667480469 181.7859344482422 -163.27683349609376 181.63436889648438 -164.0955810546875 181.47821044921875 C-168.39793833623173 180.65670399293268 -172.6994135570729 179.83073515605093 -177 179 C-177 178.34 -177 177.68 -177 177 C-168.6048065614293 175.4340546776602 -160.20887441240484 173.87210031972438 -151.8125 172.3125 C-150.57970306396484 172.08345977783202 -149.34690612792969 171.85441955566407 -148.07675170898438 171.61843872070313 C-132.68082506539227 168.76067965319822 -117.2835789184619 165.93141837834023 -101.837158203125 163.358642578125 C-101.32584350585938 163.27304077148438 -101.32584350585938 163.27304077148438 -98.73828125 162.83984375 C-97.88274658203125 162.69925537109376 -97.02721191406249 162.5586669921875 -96.145751953125 162.413818359375 C-94 162 -94 162 -91 161 C-101.98734687501917 150.53586011902937 -114.16574714474507 145.89819933670154 -128.585205078125 141.96533203125 C-138.62298037165954 139.14662376919446 -148.21143439305462 135.10619126823943 -154 126 C-155.8570771010866 122.40482288229757 -157.47482033884194 118.74663699371433 -159 115 C-159.39703125 114.12601562499998 -159.7940625 113.25203125000002 -160.203125 112.3515625 C-161 110 -161 110 -160 107 C-159.6970703125 107.33193359375 -159.6970703125 107.33193359375 -158.1640625 109.01171875 C-151.55646896985377 115.97510577792332 -145.96873765923854 121.49862603662396 -136.09375 122.328125 C-130.7134990413789 122.46253705990483 -125.33034593061177 122.28178406982306 -120 121.5 C-105.83875600614076 119.46816934001151 -93.55122584307094 122.08687627490411 -80 126 C-78.63673686477739 126.38808447256395 -77.27345745746527 126.77611179253057 -75.91015625 127.1640625 C-74.9498046875 127.43992187499998 -73.98945312500001 127.71578125000002 -73 128 C-73.6432421875 127.13761718749998 -74.28648437499999 126.275234375 -74.94921875 125.38671875 C-80.74133086998864 117.57830308720861 -86.33950368932216 109.66076559152697 -91.804931640625 101.62060546875 C-96.20190021402587 95.15421016961588 -100.65323112969065 88.72736834400615 -105.125 82.3125 C-107.75049879765123 78.5420138008148 -110.3754989961347 74.77118079596079 -113 71 C-113.57685546875 70.17113281249999 -114.1537109375 69.34226562499998 -114.748046875 68.48828125 C-116.29329558416657 66.26503399899933 -117.83484769143432 64.03927964152427 -119.375 61.8125 C-119.82117675781251 61.171594238281244 -120.26735351562499 60.5306884765625 -120.72705078125 59.870361328125 C-122.70759514068214 56.999865199743425 -124.56225261173162 54.183583502594274 -126 51 C-122.81299390691274 52.49029689067942 -120.01904497934544 54.289341865294375 -117.140625 56.30859375 C-116.1983203125 56.96730468749999 -115.256015625 57.62601562500001 -114.28515625 58.3046875 C-113.78435546875 58.6566015625 -113.78435546875 58.6566015625 -111.25 60.4375 C-109.15128549041782 61.9052966073227 -107.05232655151758 63.372743780909644 -104.953125 64.83984375 C-103.92896484375001 65.5564013671875 -102.90480468750002 66.272958984375 -101.849609375 67.01123046875 C-98.24585460576918 69.52632525543217 -94.62633789956561 72.01762792798496 -91 74.5 C-86.38065328739256 77.66340794349071 -81.77763549223414 80.84899609977839 -77.1875 84.0546875 C-76.16527343749999 84.76818359375 -75.14304687499998 85.48167968749999 -74.08984375 86.216796875 C-72.0808451028733 87.6200481424305 -70.07296939395087 89.02490894019292 -68.06640625 90.431640625 C-62.796533992814176 94.11178026646056 -57.48552075187291 97.64917482373801 -52 101 C-53.81635196088064 85.05912160648177 -58.1713264412613 73.0546499122276 -65.75927734375 59.045166015625 C-71.14061190125352 49.09971239253787 -74.11331590683909 40.387903341577854 -71.2421875 28.9921875 C-69.27910188400665 23.44299272723137 -66.7468707360108 18.19943389316333 -64 13 C-63.670000000000016 13 -63.34 13 -63 13 C-62.981308593749986 13.519492187499992 -62.981308593749986 13.519492187499992 -62.88671875 16.1484375 C-62.34081880087871 28.70564434069908 -61.1256901254273 38.59224308887768 -52 48 C-49.31397925649327 50.333024059692406 -46.56015848707443 52.551270033476044 -43.76953125 54.7578125 C-32.0919580226776 64.21187037374196 -24.265877260203695 75.98953853094775 -17 89 C-15.483202594075664 87.48320259407566 -15.533385890896767 85.8921160077972 -15.17138671875 83.7919921875 C-15.092509689331052 83.34059623718261 -15.092509689331052 83.34059623718261 -14.693344116210938 81.05625915527344 C-14.523837432861342 80.0631623840332 -14.354330749511718 79.07006561279297 -14.1796875 78.046875 C-14.08987861633301 77.53101081848143 -14.08987861633301 77.53101081848143 -13.635391235351563 74.92042541503906 C-13.24759269804278 72.69215092454857 -12.86145435582165 70.46358701196527 -12.476776123046875 68.23477172851563 C-11.471604892700412 62.41401521844753 -10.45338588214156 56.59555416080099 -9.43359375 50.77734375 C-9.22922195434569 49.610797576904304 -9.024850158691407 48.44425140380859 -8.814285278320313 47.24235534667969 C-6.939918860449126 36.58284593388396 -4.966383308753564 25.943578918824358 -2.9375 15.3125 C-2.7859344482421875 14.517833251953121 -2.634368896484375 13.723166503906242 -2.47821044921875 12.9044189453125 C-1.6567039929326768 8.602061663768282 -0.8307351560509346 4.300586442927134 0 0 Z " fill="#7F4403" transform="translate(236,59)"/>
<path d="M0 0 C14.064546765967918 9.798723272386042 23.044939385124337 22.862944879815956 26.125 39.8125 C26.782687634577485 47.66312581527296 26.537460235889 55.2861266599088 24.125 62.8125 C23.795000000000016 63.84246093749999 23.465000000000032 64.87242187499999 23.125 65.93359375 C20.527329171079543 73.32499265465844 17.399451913467317 79.03257977815872 12.125 84.8125 C11.506250000000023 85.511171875 10.887499999999989 86.20984375 10.25 86.9296875 C-0.6838602689962272 98.61304625517738 -14.708785464730312 103.5832331660074 -30.4375 104.125 C-45.6134137934867 103.96406772223236 -58.95247584679382 98.09487483451437 -69.75 87.5 C-80.33944447195097 76.25632260808652 -85.96930592895555 62.62383821388505 -86.4375 47.125 C-85.76455936824209 30.40773799001437 -78.88465577908647 16.695948379681226 -66.8203125 5.2890625 C-47.40073204909862 -11.039868542269858 -21.61281470074414 -12.827859076953615 0 0 Z " fill="#F9CE15" transform="translate(266.875,189.1875)"/>
<path d="M0 0 C7.338667782624668 4.501472246793526 14.385288738645755 9.336884392106697 21.399658203125 14.322265625 C26.114378190362117 17.672293363166062 30.852133229680334 20.983385165683984 35.625 24.25 C43.333592388309455 29.52913489878901 51.00326153070384 34.86339914094674 58.670654296875 40.2021484375 C65.7721658876628 45.14678981047945 72.88083576060706 50.08080781922945 80 55 C77.14325204650575 58.01693942752195 74.17651069443019 60.405545314337246 70.75 62.75 C70.303984375 63.056796875 70.303984375 63.056796875 68.046875 64.609375 C67.37140625 65.06828124999998 66.69593750000001 65.5271875 66 66 C59.585201882857916 60.76461463838024 53.807306634971496 54.923672431028876 47.980613708496094 49.05577850341797 C46.14177015484111 47.204059360607374 44.29972254786779 45.35558060517201 42.45684814453125 43.50787353515625 C38.55173469406168 39.59139661283254 34.65058978136335 35.67098157245849 30.75 31.75 C26.213906714090655 27.19028557034855 21.676190549266977 22.632210791404646 17.134254455566406 18.07831573486328 C15.320254054721772 16.25783754129131 13.509291788293439 14.434373613026082 11.69842529296875 12.61077880859375 C10.5891369675291 11.497858937624557 9.479708555499428 10.38507867249075 8.3701171875 9.2724609375 C7.868258972167979 8.765436401367197 7.3664007568359295 8.258411865234365 6.849334716796875 7.73602294921875 C4.651117849010859 5.537472967799204 2.6001003427466003 3.733400228497743 0 2 C0 1.3400000000000034 0 0.6800000000000068 0 0 Z " fill="#F9CD15" transform="translate(131,128)"/>
<path d="M0 0 C0 3.7818048256775967 -1.0363660923015345 4.708911940426617 -3.3125 7.6875 C-6.643412909547237 12.146156547334584 -9.863516737129714 16.652657024788937 -13 21.25 C-17.632907130703245 28.023715242839103 -22.308493896806908 34.76674338497199 -27 41.5 C-32.15293275287189 48.897606740480654 -37.28681772856379 56.307428486730885 -42.385986328125 63.7421875 C-45.89150741824733 68.8509879129108 -49.432202697742696 73.93445843775075 -53 79 C-57 75 -57 75 -64 64 C-42.879999999999995 42.879999999999995 -21.75999999999999 21.75999999999999 0 0 Z " fill="#F9CE15" transform="translate(344,132)"/>
<path d="M0 0 C4.535203061007564 3.796985090911562 8.860139969555235 7.717113540935259 13.027099609375 11.91357421875 C13.305587463378913 12.191989059448247 13.305587463378913 12.191989059448247 14.71490478515625 13.600936889648438 C16.529768993748462 15.416489999807936 18.341079112218438 17.23554393838151 20.15234375 19.0546875 C21.420073739173972 20.324285310184848 22.68802672931315 21.593660482930204 23.956192016601563 22.862823486328125 C27.274247764159156 26.184675742289983 30.58928789056472 29.509521334585543 33.9036865234375 32.83502197265625 C37.2939835487075 36.23559509178472 40.687155059629845 39.63329736716469 44.080078125 43.03125 C50.72285161595073 49.684710194666366 57.36243945796332 56.34133958555714 64 63 C60.48446149714567 63 59.69359690804015 62.33124368386598 56.89453125 60.32421875 C56.48956420898435 60.03683837890628 56.48956420898435 60.03683837890628 54.440185546875 58.58251953125 C53.57304931640624 57.95716308593751 52.70591308593748 57.33180664062502 51.8125 56.6875 C49.98218360469173 55.38613800766228 48.151449986861394 54.08536263601974 46.3203125 52.78515625 C45.41313476562499 52.13820800781252 44.50595703124998 51.49125976562499 43.5712890625 50.82470703125 C40.13570857130378 48.386658361367665 36.66646191542668 46.000530820453605 33.1875 43.625 C26.602821632692837 39.11505089798118 20.048893040137727 34.56173096512276 13.5 30 C4.357078733609967 23.63177362560367 -4.807922191848718 17.297040240126876 -14 11 C-11.143252046505722 7.983060572477996 -8.176510694430192 5.594454685662754 -4.75 3.25 C-3.8579687499999977 2.636406249999993 -2.9659374999999955 2.0228124999999864 -2.046875 1.390625 C-1.3714062500000068 0.9317187500000159 -0.6959375000000136 0.472812499999975 0 0 Z " fill="#F9CE15" transform="translate(277,280)"/>
<path d="M0 0 C4 4 4 4 11 15 C-9.460000000000008 35.45999999999998 -29.920000000000016 55.920000000000016 -51 77 C-51 73.5799767532223 -50.45223297388685 72.84251466187425 -48.54296875 70.11328125 C-48.278187255859365 69.73091308593752 -48.278187255859365 69.73091308593752 -46.938232421875 67.7958984375 C-46.36049072265624 66.976376953125 -45.7827490234375 66.15685546875 -45.1875 65.3125 C-44.59364501953124 64.45817382812498 -43.9997900390625 63.60384765624997 -43.387939453125 62.7236328125 C-42.170067260517015 60.97166901636632 -40.94960173938347 59.22150514606011 -39.7265625 57.47314453125 C-37.78943784511512 54.69838876852606 -35.8744853667194 51.90916794956445 -33.964111328125 49.115966796875 C-28.336758625413808 40.890712119724185 -22.634081001735296 32.7176710652505 -16.938232421875 24.539794921875 C-11.259116088468886 16.38241948442817 -5.61739625989307 8.199970387852375 0 0 Z " fill="#F9CE15" transform="translate(183,263)"/>
<path d="M0 0 C0.3300000000000125 0 0.6599999999999966 0 1 0 C5.334625015753289 21.63680865134539 9.223960972556341 43.34331983153652 13.015380859375 65.081298828125 C13.205648498535169 66.1697610473633 13.395916137695309 67.25822326660156 13.591949462890625 68.37966918945313 C13.951964377564707 70.44060396498423 14.310653107802523 72.50177098369358 14.667816162109375 74.56320190429688 C14.828757629394545 75.48489166259765 14.989699096679686 76.40658142089842 15.155517578125 77.356201171875 C15.295083770751944 78.15982589721679 15.434649963378916 78.96345062255858 15.578445434570313 79.79142761230469 C16 82 16 82 16.548873901367188 84.05586242675781 C17.23891587352074 87.02961306819384 17.058420067203656 89.96215650540978 17 93 C15.103996306699429 92.688535278453 13.20820412946145 92.37578282959737 11.3125 92.0625 C10.256757812500013 91.88847656249999 9.201015624999997 91.714453125 8.11328125 91.53515625 C5.400651724996948 91.06886986991793 2.6989638197208023 90.53979276394415 0 90 C0 60.30000000000001 0 30.599999999999994 0 0 Z " fill="#F9CD15" transform="translate(239,88)"/>
<path d="M0 0 C-0.9900000000000091 5.610000000000014 -1.9800000000000182 11.219999999999999 -3 17 C-32.370000000000005 17 -61.74000000000001 17 -92 17 C-89.10490980150294 15.069939867668637 -87.80741529503928 14.609697047227314 -84.50146484375 14.0419921875 C-83.58604919433594 13.881126251220707 -82.67063354492187 13.720260314941413 -81.72747802734375 13.554519653320313 C-80.73201965332031 13.386996917724616 -79.73656127929688 13.21947418212892 -78.7109375 13.046875 C-77.67132873535157 12.865937957763663 -76.63171997070313 12.685000915527354 -75.56060791015625 12.498580932617188 C-72.16650134350485 11.909174525581022 -68.77080389300782 11.329539815941416 -65.375 10.75 C-61.8863479594567 10.14726669863012 -58.39810190347326 9.542222747039148 -54.909881591796875 8.936996459960938 C-52.58330342470748 8.533471176306392 -50.25658178842818 8.130772217160114 -47.929718017578125 7.7288970947265625 C-41.09724623878745 6.5469509922540965 -34.27146157759597 5.335137562840657 -27.453125 4.07421875 C-26.68010040283201 3.9314852905273483 -25.90707580566408 3.7887518310546966 -25.110626220703125 3.641693115234375 C-22.26339544422524 3.1148574730452196 -19.416460396520506 2.586652878933023 -16.57098388671875 2.0504150390625 C-14.686025230799657 1.6953359015032845 -12.800068415347653 1.345567662800022 -10.9140625 0.99609375 C-9.882329101562505 0.8020092773437568 -8.850595703125009 0.6079248046875136 -7.78759765625 0.407958984375 C-5 0 -5 0 0 0 Z " fill="#F8CD15" transform="translate(181,218)"/>
<path d="M0 0 C29.370000000000005 0 58.74000000000001 0 89 0 C85.67687183556683 2.2154187762887716 83.65307456752862 2.563684166650404 79.73828125 3.19140625 C79.09559295654299 3.2974165344238315 78.45290466308592 3.403426818847663 77.79074096679688 3.5126495361328125 C76.37906779880547 3.745293290904499 74.96688924048743 3.974885522852219 73.55429077148438 4.20184326171875 C69.65055294462121 4.829872143651102 65.75087078327141 5.481817797317063 61.8515625 6.13671875 C61.006133880615266 6.278576049804684 60.160705261230476 6.420433349609368 59.28965759277344 6.56658935546875 C52.24767084254802 7.761083146590266 45.228097945607885 9.062543813541879 38.2109375 10.39453125 C37.13081893920901 10.59939651489259 36.05070037841796 10.80426177978515 34.93785095214844 11.015335083007813 C30.61535955425643 11.8371008176413 26.29341185157324 12.661457570279566 21.973297119140625 13.495635986328125 C18.934852973352577 14.082258567719208 15.895253086212392 14.66255669762873 12.85546875 15.2421875 C12.401472015380875 15.331105117797847 12.401472015380875 15.331105117797847 10.103973388671875 15.781082153320313 C5.6672813121120384 16.622816012978745 1.5412843794564992 17.20927577785511 -3 17 C-2.6898560773958025 14.916314617066803 -2.376794796568163 12.833063323240083 -2.0625 10.75 C-1.8884765624999886 9.58984375 -1.7144531249999773 8.4296875 -1.53515625 7.234375 C-1 4 -1 4 0 0 Z " fill="#FACF15" transform="translate(296,239)"/>
<path d="M0 0 C0.640664062500008 0.13277343750002046 1.2813281249999875 0.2655468749999841 1.94140625 0.40234375 C2.806367187500001 0.578945312500025 3.6713281250000023 0.7555468749999932 4.5625 0.9375 C5.409414062499991 1.1115234375000114 6.25632812500001 1.2855468750000227 7.12890625 1.46484375 C10.40244382327458 2.0750133384879064 13.703549171161683 2.5290784530230894 17 3 C17 32.370000000000005 17 61.74000000000001 17 92 C15.364271467330099 88.72854293466025 14.636974576459835 86.84311709882343 14.0419921875 83.387939453125 C13.881126251220707 82.47260437011721 13.720260314941413 81.55726928710936 13.554519653320313 80.61419677734375 C13.386996917724616 79.62389465332029 13.21947418212892 78.63359252929689 13.046875 77.61328125 C12.865937957763663 76.57504211425783 12.685000915527354 75.53680297851565 12.498580932617188 74.46710205078125 C11.909985438833417 71.08320086745266 11.329963692758128 67.69789024332658 10.75 64.3125 C10.147128908733464 60.83164844371049 9.542167354034177 57.35116465551323 8.936996459960938 53.87071228027344 C8.533587483521075 51.550085532584774 8.13088800501771 49.22933533704378 7.7288970947265625 46.90846252441406 C6.54321239587 40.07342681006742 5.3307212159461415 33.244246115977944 4.07421875 26.421875 C4.002852020263674 26.03405601501464 4.002852020263674 26.03405601501464 3.641693115234375 24.071456909179688 C3.1143711541169807 21.21214204212629 2.585544834954021 18.353134584906286 2.0504150390625 15.495269775390625 C1.6961473032662298 13.602842361167006 1.3460008785319815 11.709644784399188 0.99609375 9.81640625 C0.8020092773437568 8.779436035156266 0.6079248046875136 7.742465820312475 0.407958984375 6.674072265625 C0 4 0 4 0 0 Z " fill="#FACF15" transform="translate(218,293)"/>
<path d="M0 0 C0.5638037109375063 0.16371093750001364 0.5638037109375063 0.16371093750001364 3.4169921875 0.9921875 C8.110251671444956 2.1601594657197722 12.515110035059905 2.222666026328227 17.328125 2.125 C17.76325408935547 2.1212133789062477 17.76325408935547 2.1212133789062477 19.96527099609375 2.10205078125 C23.649456354237856 2.0697167241495436 27.333177864523535 2.0135897404940977 31.01708984375 1.958984375 C68.66506630372913 1.4499564064964545 68.66506630372913 1.4499564064964545 80.53662109375 12.419921875 C83.2481161226342 15.648626611706987 85.14844790593315 19.23534837383636 87 23 C87.987562345438 24.674066423906424 88.98353938737336 26.34332091195776 90 28 C86.6154745375243 26.690891094702806 83.33314492094706 25.225686210004596 80.045654296875 23.691162109375 C61.7703166299936 15.330549390027585 42.92916606231921 11.094960581897851 23.156982421875 8.128662109375 C7.535482978747396 5.737916741761666 7.535482978747396 5.737916741761666 1 2 C0.6700000000000017 1.3400000000000034 0.3400000000000034 0.6800000000000068 0 0 Z " fill="#F6CA15" transform="translate(89,182)"/>
<path d="M0 0 C0.3299999999999841 0.6599999999999966 0.660000000000025 1.3199999999999932 1 2 C0.8458764648437409 2.4206372070312483 0.8458764648437409 2.4206372070312483 0.06591796875 4.54931640625 C-1.2796253696249664 8.90522789149776 -1.1781593470118992 12.689345180870191 -1.0546875 17.2109375 C-1.0293589333584237 19.032543989038743 -1.0046397565274106 20.854159033501844 -0.98046875 22.67578125 C-0.9312886764180348 25.510209055154846 -0.8757356374203482 28.344173033356455 -0.80810546875 31.17822265625 C-0.5318933975441951 43.5555683037482 -1.3689473686655447 54.12885816942776 -5 66 C-5.307038574218723 67.20551513671876 -5.614077148437502 68.41103027343752 -5.930419921875 69.653076171875 C-8.416322422388532 79.23605629077457 -14.652948917490676 83.11486625855903 -22.67578125 88.05078125 C-23.772773437500007 88.6940234375 -24.869765625000014 89.33726562499999 -26 90 C-26 85.8172938915402 -24.114710815851993 82.65326561118542 -22.375 78.9375 C-15.014138431112599 62.58292113638271 -10.955983199219816 46.80421520110153 -8.09130859375 29.142578125 C-4.69249131710751 8.2677227968085 -4.69249131710751 8.2677227968085 0 0 Z " fill="#F6CA15" transform="translate(291,89)"/>
<path d="M0 0 C1.2284765625000205 0.2487890625000091 2.456953124999984 0.4975781250000182 3.72265625 0.75390625 C4.824804687500006 1.020742187499991 5.926953125000011 1.2875781249999818 7.0625 1.5625 C8.187851562499986 1.8319140625000045 9.313203125000001 2.101328125000009 10.47265625 2.37890625 C11.30667968749998 2.5838671875000045 12.140703125000016 2.788828125000009 13 3 C13 3.329999999999984 13 3.660000000000025 13 4 C12.247187499999995 4.207539062500018 11.494374999999991 4.4150781249999795 10.71875 4.62890625 C-8.844589776680976 10.303224461925652 -25.889305426030916 19.735740855280596 -42.2578125 31.734375 C-45.16299910375511 33.8448693040732 -48.11038406014178 35.893401948480005 -51.0625 37.9375 C-51.573613281250005 38.29263671875003 -51.573613281250005 38.29263671875003 -54.16015625 40.08984375 C-55.0973046875 40.72019531249998 -56.034453125 41.35054687500002 -57 42 C-57.8855859375 42.59941406249999 -58.77117187499999 43.19882812499998 -59.68359375 43.81640625 C-60.448007812499995 44.20699218750002 -61.212421875000004 44.597578124999984 -62 45 C-62.989999999999995 44.670000000000016 -63.980000000000004 44.34000000000003 -65 44 C-64.47857421875 43.65775390624998 -64.47857421875 43.65775390624998 -61.83984375 41.92578125 C-57.96816954733302 39.15807449662253 -55.35454534170758 36.00136571204371 -52.5625 32.1875 C-42.752763826858356 19.334110559945145 -31.275489986113996 10.74741173555799 -17.25 2.875 C-16.907794189453114 2.673624267578134 -16.907794189453114 2.673624267578134 -15.176025390625 1.654541015625 C-9.793662200358312 -1.2538848176665454 -5.91689003558173 -1.2521386102881422 0 0 Z " fill="#F6CB15" transform="translate(164,256)"/>
<path d="M0 0 C0.3299999999999841 0.660000000000025 0.6599999999999966 1.3199999999999932 1 2 C-0.14118314124556264 4.475582475717886 -1.341092606470994 6.849797144212118 -2.625 9.25 C-12.303442774056322 28.017250218100514 -16.15643699197119 47.68043620100525 -19.25 68.349365234375 C-19.448515625 69.65075439453125 -19.647031249999998 70.9521435546875 -19.8515625 72.29296875 C-20.025102539062487 73.46367919921875 -20.198642578125003 74.63438964843749 -20.37744140625 75.840576171875 C-20.956338196934325 78.77842063001071 -21.78347134176974 81.27288959650275 -23 84 C-23.330000000000013 84 -23.659999999999997 84 -24 84 C-24.444167414093272 78.00373990974066 -24.75070954826535 72.00741108199747 -25 66 C-25.04753417968749 64.92347167968751 -25.095068359375006 63.84694335937502 -25.14404296875 62.73779296875 C-25.814130208651875 45.49961463237298 -26.37110324734681 25.296879812813813 -15 11 C-12.34375 8.76953125 -12.34375 8.76953125 -9.5 6.8125 C-8.561562500000008 6.158945312500009 -7.623125000000016 5.505390625000018 -6.65625 4.83203125 C-5.779687499999994 4.227460937499984 -4.903124999999989 3.622890625000025 -4 3 C-2.6613311062624234 2.007153903811286 -1.325791308893315 1.0099778131427684 0 0 Z " fill="#F7CC15" transform="translate(209,295)"/>
<path d="M0 0 C2.064918535230788 2.064918535230788 2.513245673596657 3.059970124304016 3.41015625 5.75390625 C3.6728027343750114 6.51727294921875 3.9354492187500227 7.2806396484375 4.2060546875 8.067138671875 C4.347368164062516 8.478873291015645 4.347368164062516 8.478873291015645 5.0625 10.5625 C11.322584598370497 28.05927084174192 20.83711767428349 42.83755205278817 31.74609375 57.76171875 C41.99644904307735 71.81934886622037 41.99644904307735 71.81934886622037 44 78 C43.83499999999998 78.495 43.83499999999998 78.495 43 81 C42.75765624999997 80.48050781249998 42.51531249999999 79.96101562500002 42.265625 79.42578125 C42.09804687500002 79.07708984375 42.09804687500002 79.07708984375 41.25 77.3125 C40.925156249999986 76.62800781250002 40.60031249999997 75.94351562500003 40.265625 75.23828125 C37.53951679100504 70.41710839890703 34.0648510059483 67.03989636756478 29.75 63.625 C28.778046874999973 62.839960937499995 27.806093750000002 62.05492187499999 26.8046875 61.24609375 C25.148214931176483 59.919531456025766 23.48819533293573 58.59734364006948 21.8203125 57.28515625 C11.90349591979134 49.140622150993295 -1.5686536761646153 32.156081641658375 -3.265625 18.9296875 C-3.1455938697318118 3.1455938697317833 -3.1455938697318118 3.1455938697317833 0 0 Z " fill="#F6CA15" transform="translate(259,299)"/>
<path d="M0 0 C2.96410277384291 1.1369161324329298 5.85212442316714 2.3823494646903214 8.72265625 3.734375 C16.83174577041615 7.523264178800389 24.914422296944736 10.817766713102628 33.5 13.375 C34.299299316406234 13.613154296874995 35.09859863281247 13.851308593749991 35.922119140625 14.0966796875 C43.50861205880108 16.2729974324223 51.180923586731126 17.810736821527314 59 18.875 C67.43021075871582 20.126911537821286 75.70167613222901 22.081420070975526 84 24 C84 24.329999999999984 84 24.660000000000025 84 25 C40.880116096025176 27.671143250688715 40.880116096025176 27.671143250688715 23 22 C21.869492187499986 21.684179687499977 20.738984374999973 21.36835937500001 19.57421875 21.04296875 C10.832845307218406 18.136434865538376 7.341592919319282 12.867175603200224 3 5 C2.0043393042637376 3.330737421271351 1.00583861314675 1.6631495609477724 0 0 Z " fill="#F8CC15" transform="translate(295,264)"/>
<path d="M0 0 C0.9900000000000091 0.3300000000000125 1.9800000000000182 0.6599999999999966 3 1 C2.4779296875000227 1.3544921875 1.9558593749999886 1.708984375 1.41796875 2.07421875 C-3.591581938069112 5.6975890375175595 -7.593418379154514 9.629628118920294 -11.5 14.375 C-19.99155906970742 24.642944102368347 -28.51123677493331 32.28378833241496 -40 39 C-41.04929687499998 39.62648437499999 -42.09859375000002 40.25296875000001 -43.1796875 40.8984375 C-52.506057491328306 46.05822141728035 -60.11892382997053 45.91995657904576 -70.3203125 43.6328125 C-72 43 -72 43 -73 41 C-72.72643676757815 40.90239379882814 -72.72643676757815 40.90239379882814 -71.342041015625 40.408447265625 C-52.13447147329498 33.491155070626974 -35.54867829787918 24.915215195826818 -19 13 C-17.050255320235976 11.604641715099689 -15.099814545227673 10.210261960772016 -13.149169921875 8.816162109375 C-11.964700274732365 7.967368294707171 -10.782397950056065 7.115537867818773 -9.602783203125 6.260009765625 C-3.102641830687844 1.5645348924763312 -3.102641830687844 1.5645348924763312 0 0 Z " fill="#F7CB15" transform="translate(372,173)"/>
<path d="M0 0 C0.49500000000000455 0.6599999999999966 0.9900000000000091 1.3199999999999932 1.5 2 C6.302169912384215 7.7626038948610585 11.561128761568995 12.716700110711542 17.4375 17.375 C29.909846821084443 27.51414301411404 39.62367180597505 41.20009442590862 46 56 C46.14453125 58.1328125 46.14453125 58.1328125 45.8125 60.125 C45.69648437500001 60.87910156250001 45.580468749999994 61.633203124999994 45.4609375 62.41015625 C45.30882812499999 63.2648046875 45.15671875000001 64.119453125 45 65 C44.827265624999995 66.07121093749998 44.65453124999999 67.142421875 44.4765625 68.24609375 C44.001727464056984 71.16736147112766 43.508138472710726 74.08437051095112 43 77 C42.34 77 41.68000000000001 77 41 77 C40.74347656250001 76.13761718749998 40.486953125000014 75.275234375 40.22265625 74.38671875 C33.556879219798475 53.13254081195001 22.744460439840083 35.23461371006766 9.6044921875 17.390380859375 C0 4.310384814843275 0 4.310384814843275 0 0 Z " fill="#F6CB15" transform="translate(173,99)"/>
<path d="M0 0 C1.1633789062499886 -0.011601562500004547 2.3267578125000057 -0.023203125000009095 3.525390625 -0.03515625 C10.701853393257636 -0.010925087023338165 16.83438479656519 0.8458355293496425 23.5625 3.375 C23.5625 4.365000000000009 23.5625 5.355000000000018 23.5625 6.375 C13.225604083996302 12.196929883726227 4.566564899282753 15.39403232250936 -7.4375 13.375 C-11.732655700736444 11.782003889950033 -15.576139445387184 9.83222944384454 -19.4375 7.375 C-19.4375 7.045000000000016 -19.4375 6.714999999999975 -19.4375 6.375 C-18.020474871023026 6.517308079192105 -16.603890401862117 6.664007457869275 -15.1875 6.8125 C-14.793046874999987 6.853105468750016 -14.793046874999987 6.853105468750016 -12.796875 7.05859375 C-10.4375 7.375 -10.4375 7.375 -8.53125 7.90234375 C-1.1824991670099507 9.561296829835442 7.179097132316855 8.53318084198952 14.5625 7.375 C14.5625 6.714999999999975 14.5625 6.055000000000007 14.5625 5.375 C14.055374755859361 5.380236816406239 14.055374755859361 5.380236816406239 11.489013671875 5.40673828125 C7.726354257406086 5.442935888722161 3.9637102422206 5.465899555275598 0.200927734375 5.48486328125 C-1.427679322425007 5.494921418267779 -3.056268322714118 5.508569582092434 -4.684814453125 5.52587890625 C-7.025598719672644 5.550135738027677 -9.366144241587193 5.5614848322391595 -11.70703125 5.5703125 C-12.071143569946287 5.575473785400391 -12.071143569946287 5.575473785400391 -13.913772583007813 5.601593017578125 C-17.650250688995385 5.602422491994673 -19.244250564723416 5.503832956851056 -22.4375 3.375 C-14.82862613632011 0.3054649728164236 -8.156935984387275 -0.08107390818275917 0 0 Z " fill="#834801" transform="translate(236.4375,258.625)"/>
<path d="M0 0 C1.5070045502488938 3.5144632510297242 0.5066468859429278 5.976925909533122 -0.6875152587890625 9.463211059570313 C-4.932729407483379 22.008363683744335 -4.439877589107141 34.22263930636808 -4.0625 47.3125 C-3.9739986766121262 50.635278569377704 -3.8936480808061447 53.957304153135965 -3.8382415771484375 57.28080749511719 C-3.8036675968432405 59.32909967871109 -3.7502259387220818 61.377188038829274 -3.6750640869140625 63.42439270019531 C-3.596695836585411 67.82191965607979 -3.5622010225296776 70.2729603475434 -5.872802734375 74.110107421875 C-8.003746674270985 76.00332870486989 -9.194378497060853 76.69939769611369 -12 77 C-10 72 -10 72 -8.94140625 69.82421875 C-7.730616436778604 66.19184931033584 -7.746231128400126 62.78081351653998 -7.8125 59 C-7.813144531250003 58.301328125 -7.813789062500007 57.602656249999995 -7.814453125 56.8828125 C-7.846475300755657 53.11131179988786 -8.25589471380556 49.68076507980152 -9 46 C-10.04457890869628 31.077444161481594 -8.690645804800113 14.653269081340113 -2 1 C-1.3400000000000034 0.6700000000000159 -0.6800000000000068 0.339999999999975 0 0 Z " fill="#8A5312" transform="translate(189,311)"/>
<path d="M0 0 C3.718915381359011 1.5543454380293156 7.154683219366063 3.309366438732127 9 7 C7.680000000000007 6.6699999999999875 6.360000000000014 6.340000000000003 5 6 C4.958750000000009 6.763125000000002 4.917500000000018 7.5262500000000045 4.875 8.3125 C4 11 4 11 1.5 12.8125 C-3.9646715238033607 14.666584981290413 -8.70713309124119 14.982657246610898 -14.0625 12.6875 C-14.701875000000001 12.130625000000009 -15.341250000000002 11.57374999999999 -16 11 C-16 10.009999999999991 -16 9.02000000000001 -16 8 C-14.02000000000001 8.659999999999997 -12.039999999999992 9.319999999999993 -10 10 C-10.659999999999997 9.009999999999991 -11.319999999999993 8.02000000000001 -12 7 C-12 6.009999999999991 -12 5.02000000000001 -12 4 C-12.990000000000009 4.659999999999997 -12.990000000000009 4.659999999999997 -18 8 C-17.8125 5.6875 -17.8125 5.6875 -17 3 C-11.687693737680064 -0.9747434355572295 -6.387653062695051 -0.9078059908222826 0 0 Z " fill="#834801" transform="translate(265,216)"/>
<path d="M0 0 C2.1875 0.3125 2.1875 0.3125 4 1 C2.8476686493070815 4.456994052078727 2.411034654928528 4.585455903475491 -0.625 6.25 C-7.191518364648516 10.192243707373365 -11.630788297148229 15.49284651445086 -16.375 21.4375 C-25.614049595210986 32.81938798872207 -37.38899088296432 41.51057265890546 -51 47 C-51 45.68000000000001 -51 44.360000000000014 -51 43 C-50.177578125000025 42.587500000000006 -49.35515624999999 42.17500000000001 -48.5078125 41.75 C-34.81656481079625 34.66722983283688 -23.975702279417362 25.3524081187241 -14.375 13.25 C-10.902853651218038 8.903746878098076 -7.664553324494705 5.985314127676617 -3 3 C-2.742832031250032 2.7286523437500136 -2.742832031250032 2.7286523437500136 -1.44140625 1.35546875 C-1.2035742187500205 1.1318164062500102 -1.2035742187500205 1.1318164062500102 0 0 Z " fill="#854C09" transform="translate(377,171)"/>
<path d="M0 0 C2.9375 1.8125 2.9375 1.8125 3.875 4.5 C3.8956249999999955 5.263125000000002 3.916249999999991 6.0262500000000045 3.9375 6.8125 C1.9575000000000102 5.492500000000007 -0.022500000000007958 4.172500000000014 -2.0625 2.8125 C-3.0625 7.6875 -3.0625 7.6875 -3.0625 8.8125 C-1.4124999999999943 8.152500000000003 0.23750000000001137 7.492500000000007 1.9375 6.8125 C1.9375 7.802500000000009 1.9375 8.79249999999999 1.9375 9.8125 C-2.4735007719320095 13.782400694738811 -7.495469329260629 13.104363743902837 -13.0625 12.8125 C-13.206874999999997 12.173124999999999 -13.351249999999993 11.533749999999998 -13.5 10.875 C-14.0625 8.8125 -14.0625 8.8125 -15.0625 7.8125 C-15.103138320757836 6.146328848928249 -15.105221001320928 4.478619051515807 -15.0625 2.8125 C-15.722499999999997 2.8125 -16.382499999999993 2.8125 -17.0625 2.8125 C-17.392500000000013 3.4724999999999966 -17.722499999999997 4.132499999999993 -18.0625 4.8125 C-20.04138960719692 5.539439039378465 -22.042045575313296 6.210662511795448 -24.0625 6.8125 C-16.92858150116973 -0.7290709844777155 -10.201257303969413 -3.6808660375147326 0 0 Z " fill="#824701" transform="translate(223.0625,217.1875)"/>
<path d="M0 0 C0.16499999999999204 0.49500000000000455 0.16499999999999204 0.49500000000000455 1 3 C-0.6221985765573379 5.620003738741673 -2.289219739370793 8.035359631844926 -4.125 10.5 C-5.234555786870601 12.027569843980814 -6.342571630248642 13.556259159706315 -7.44921875 15.0859375 C-8.031069335937502 15.886123046875014 -8.612919921875005 16.686308593750027 -9.21240234375 17.5107421875 C-12.195311043622183 21.664489401908213 -15.064437607018704 25.894867012476993 -17.9375 30.125 C-18.9876176766347 31.66972214564788 -20.038370968617954 33.214012437800136 -21.08984375 34.7578125 C-21.576948242187484 35.474853515625 -22.064052734374997 36.19189453125 -22.56591796875 36.9306640625 C-23.94440805235004 38.919782542001826 -25.374586329055802 40.86125269434177 -26.81640625 42.8046875 C-29 46 -29 46 -29.523193359375 48.09423828125 C-30.213480713621067 50.853266999757295 -31.611596761472214 51.56695805688332 -34 53 C-36.24999999999997 53.6875 -36.24999999999997 53.6875 -38 54 C-36.38975793177441 49.09304931872089 -33.56148203336991 45.32040439502896 -30.5625 41.1875 C-29.47175546758936 39.66470730864751 -28.381932480361712 38.14125416841614 -27.29296875 36.6171875 C-26.741733398437503 35.847294921875005 -26.190498046875007 35.07740234375001 -25.62255859375 34.2841796875 C-23.163783978786398 30.822805131737198 -20.7687789065792 27.318983474775052 -18.375 23.8125 C-14.776258530032464 18.56490426303378 -11.164541960364886 13.326918091023686 -7.5 8.125 C-7.090561523437486 7.535656738281261 -6.681123046875001 6.946313476562523 -6.25927734375 6.339111328125 C-4.315231400694074 3.597330570983047 -2.8359328792789142 1.8906219195192762 0 0 Z " fill="#864D0C" transform="translate(161,292)"/>
<path d="M0 0 C0.6599999999999966 0.3299999999999841 1.3199999999999932 0.660000000000025 2 1 C0.5262357006549792 4.833443093240135 -1.3531636881754423 6.066792756632765 -4.875 8.0625 C-14.617474682277958 14.038224968946395 -22.391807991230166 21.769540129598 -29.3203125 30.83984375 C-31.37011068860312 33.475979559994244 -33.57306438664274 35.711746421691714 -36 38 C-36.556875000000005 38.59812499999998 -37.113749999999996 39.19625000000002 -37.6875 39.8125 C-39 41 -39 41 -41 41 C-41 41.65999999999997 -41 42.31999999999999 -41 43 C-44.507767844821856 44.60355101477569 -47.1435487892856 45.220368640612264 -51 45 C-50.762812499999995 44.77312499999999 -50.762812499999995 44.77312499999999 -49.5625 43.625 C-48 42 -48 42 -47 40 C-45.865624999999994 39.52562499999999 -44.73125 39.05124999999998 -43.5625 38.5625 C-37.33969503514027 35.58492128025529 -33.381048441467016 30.17107357025617 -29 25 C-21.61286796492196 16.455847284729032 -14.53722203194269 9.194594374445103 -5 3 C-4.11570312500001 2.4173437499999864 -3.231406249999992 1.8346874999999727 -2.3203125 1.234375 C-1.937460937499992 1.0307031250000023 -1.937460937499992 1.0307031250000023 0 0 Z " fill="#864D09" transform="translate(140,259)"/>
<path d="M0 0 C1 3 1 3 0.07421875 5.19921875 C-1.2942983773087917 8.767316132837806 -1.2577261776035584 12.051888189328224 -1.1875 15.8125 C-1.1810546875000227 16.53244140625 -1.1746093749999886 17.252382812500002 -1.16796875 17.994140625 C-1.1099190292356411 21.988687035097627 -0.8165558925274468 25.840805330073962 -0.23828125 29.78515625 C1.0902973950147725 42.1344036553011 -0.7044887684968444 53.11262020064939 -4 65 C-4.990000000000009 64.67000000000002 -5.980000000000018 64.34 -7 64 C-6.064886286339572 57.320616330996955 -6.064886286339572 57.320616330996955 -5.46435546875 54.353271484375 C-4.865655593026361 50.0298525605767 -4.934477524083036 45.82960018719288 -5.0078125 41.47265625 C-5.025326981430965 39.61003147241159 -5.042235436252099 37.747400915312454 -5.05859375 35.884765625 C-5.089535216196907 32.97061975707538 -5.125091085160818 30.056766908218677 -5.17138671875 27.142822265625 C-5.213892532143234 24.31523048815845 -5.237208639014739 21.487981289319777 -5.2578125 18.66015625 C-5.276433410644529 17.796408843994143 -5.295054321289058 16.932661437988287 -5.314239501953125 16.042739868164063 C-5.337219660839878 10.581066274795177 -4.578220586428927 6.841499204409416 -2 2 C-1.339999999999975 1.3400000000000034 -0.6800000000000068 0.6800000000000068 0 0 Z " fill="#88500E" transform="translate(294,88)"/>
<path d="M0 0 C1.3199999999999932 0 2.6399999999999864 0 4 0 C3.369019182113618 3.360317588547872 2.12002808606519 5.592671461933492 0.18359375 8.39453125 C-0.4084887695312318 9.257155761718764 -1.0005712890625205 10.119780273437499 -1.610595703125 11.008544921875 C-1.9326599121093864 11.47119750976563 -1.9326599121093864 11.47119750976563 -3.5625 13.8125 C-4.222741699218773 14.770676269531236 -4.882983398437489 15.728852539062501 -5.563232421875 16.716064453125 C-7.701994664538404 19.815497666696757 -9.850023162728291 22.908337116642514 -12 26 C-12.740566406250025 27.067021484375005 -13.481132812499993 28.13404296875001 -14.244140625 29.2333984375 C-18.335062049296994 35.127249922810165 -22.433417136321225 41.01582778385341 -26.542236328125 46.897216796875 C-27.712847789294813 48.585790991324075 -28.860281545808334 50.2904223187125 -30 52 C-32.625 53.1875 -32.625 53.1875 -35 54 C-33.525235174101454 49.70325275049021 -31.24127755370148 46.30467648069262 -28.5625 42.6875 C-27.656226229105187 41.44237020039816 -26.751329701129237 40.19623705756112 -25.84765625 38.94921875 C-25.378598632812498 38.30259277343751 -24.909541015624995 37.65596679687499 -24.42626953125 36.98974609375 C-22.065104376809927 33.69575499332436 -19.783694259983577 30.347955903732583 -17.5 27 C-14.760860548423125 22.984349455728136 -12.006702426382674 18.985697556535115 -9.15234375 15.05078125 C-8.696015624999973 14.421074218749993 -8.239687500000002 13.791367187499986 -7.76953125 13.142578125 C-6.908374372138724 11.959434437967673 -6.042778142389523 10.77950366449204 -5.171875 9.603515625 C-2.9268090569428296 6.519346962361681 -1.2398917424899878 3.6124413470383274 0 0 Z " fill="#864D0B" transform="translate(345,130)"/>
<path d="M0 0 C0.6599999999999966 0.3300000000000125 1.3199999999999932 0.6599999999999966 2 1 C1.3400000000000034 2.6500000000000057 0.6800000000000068 4.300000000000011 0 6 C1.6500000000000057 5.6699999999999875 3.3000000000000114 5.340000000000003 5 5 C5.329999999999984 5.659999999999997 5.659999999999997 6.319999999999993 6 7 C12.15234375 7.09765625 12.15234375 7.09765625 14 7 C14.329999999999984 6.6699999999999875 14.659999999999997 6.340000000000003 15 6 C16.66617115107175 5.959361679242164 18.333880948484193 5.957278998679072 20 6 C19.340000000000003 4.02000000000001 18.680000000000007 2.039999999999992 18 0 C19.875 0.6875 19.875 0.6875 22 2 C22.288749999999993 2.804374999999993 22.577499999999986 3.6087499999999864 22.875 4.4375 C24.424445497386927 7.9667925218257665 26.5731429714632 8.468851114909086 30 10 C30.16500000000002 10.330000000000013 30.16500000000002 10.330000000000013 31 12 C29.824375000000032 11.669999999999987 28.648750000000007 11.340000000000003 27.4375 11 C22.912998209239134 9.878884512023859 18.24803232728408 8.84192274049002 13.9375 11.0625 C11.080255546145281 12.445037638961963 9.013185567557798 11.720544374850789 6 11 C5.340000000000003 10.669999999999987 4.680000000000007 10.340000000000003 4 10 C-1.5313265125321323 9.718746109532276 -5.7579915670816035 10.252663855693868 -11 12 C-8.63707343755155 9.474112984968912 -7.335374891815775 8.111791630605268 -4 7 C-2.9349985033252324 5.033843390754299 -1.9316682558083187 3.0327307399454355 -1 1 C-0.6699999999999875 0.6699999999999875 -0.3400000000000034 0.3400000000000034 0 0 Z " fill="#884E02" transform="translate(227,241)"/>
<path d="M0 0 C4.22436126860174 1.70804498947075 8.136533505706666 3.4061265038044155 11.93359375 5.9375 C11.93359375 6.597499999999997 11.93359375 7.257499999999993 11.93359375 7.9375 C8.52602345218395 7.528591564262086 5.44900189406593 7.141266010444667 2.24609375 5.875 C-3.4838951530705913 4.2533050274328446 -9.998381859523022 3.489118469567501 -15.515625 6.09375 C-17.62890625 7.5 -17.62890625 7.5 -19.4453125 8.94140625 C-19.98027343749999 9.270117187500006 -20.515234375000006 9.598828125000011 -21.06640625 9.9375 C-22.05640625000001 9.607499999999987 -23.04640624999999 9.277500000000003 -24.06640625 8.9375 C-17.220512126146474 1.4498033020352068 -10.312262675945192 -3.5731661756141193 0 0 Z " fill="#824701" transform="translate(267.06640625,207.0625)"/>
<path d="M0 0 C4.965934493202269 2.5232751564485625 9.3022018464209 5.819880348127981 13 10 C12.340000000000003 10.330000000000013 11.680000000000007 10.659999999999997 11 11 C9.511618307909856 10.243949538878525 8.058336180213416 9.418326942554614 6.625 8.5625 C0.7221089570364541 5.49573026856163 -4.451015448711729 5.112002094740575 -11 6 C-13.49352386204069 6.8008397805094205 -15.635666178043408 7.841958944347795 -18 9 C-20.9375 9.1875 -20.9375 9.1875 -23 9 C-23 8.340000000000003 -23 7.680000000000007 -23 7 C-6.789217278337134 -2.03929847353038 -6.789217278337134 -2.03929847353038 0 0 Z " fill="#834801" transform="translate(218,206)"/>
<path d="M0 0 C0.3300000000000125 0.660000000000025 0.6599999999999966 1.3199999999999932 1 2 C5.626980584036318 3.093449463091133 10.290006731154335 3.2054157824360914 15.0234375 3.31640625 C15.39652542114257 3.3267967987060274 15.39652542114257 3.3267967987060274 17.284576416015625 3.3793792724609375 C19.647965081935922 3.4443122974534504 22.01145664040837 3.503495707856132 24.375 3.5625 C25.985687354992223 3.6057388421257883 27.59636463399039 3.6493547721453865 29.20703125 3.693359375 C33.13791771130647 3.79993526238394 37.0689067708517 3.9013579155829348 41 4 C41 4.660000000000025 41 5.319999999999993 41 6 C31.237239041810255 9.062826967275214 21.776736307937 8.74434703380689 12 6 C10.989374999999995 6 9.978749999999991 6 8.9375 6 C5.27333389489786 6 2.4818415657947526 5.114189301054296 -1 4 C-1 1 -1 1 0 0 Z " fill="#F2C514" transform="translate(210,260)"/>
<path d="M0 0 C2.4375 1.25 2.4375 1.25 4.4375 4.25 C3.117500000000007 3.9199999999999875 1.7975000000000136 3.5900000000000034 0.4375 3.25 C0.3550000000000182 4.033749999999998 0.27249999999997954 4.8174999999999955 0.1875 5.625 C-0.5625 8.25 -0.5625 8.25 -2.625 9.5625 C-3.2643749999999727 9.789375000000007 -3.9037500000000023 10.016250000000014 -4.5625 10.25 C-5.222500000000025 9.590000000000003 -5.882499999999993 8.930000000000007 -6.5625 8.25 C-6.232500000000016 7.9199999999999875 -5.902499999999975 7.590000000000003 -5.5625 7.25 C-5.521570625765662 4.917025668643305 -5.520082768109148 2.5829477539977574 -5.5625 0.25 C-2.5625 -0.75 -2.5625 -0.75 0 0 Z " fill="#9B6305" transform="translate(269.5625,218.75)"/>
<path d="M0 0 C1 3 1 3 0.3125 5.5 C-1.1515062421754294 8.288583318429403 -2.3034555464346056 9.41379738025563 -5 11 C-7.25 11.6875 -7.25 11.6875 -9 12 C-7.600907380364603 7.548341664796453 -5.398646354288815 5.143747877717146 -2 2 C-1.3400000000000034 1.339999999999975 -0.6800000000000068 0.6800000000000068 0 0 Z " fill="#8F560A" transform="translate(132,334)"/>
<path d="M0 0 C0.30937499999998863 0.9487499999999898 0.6187500000000057 1.897500000000008 0.9375 2.875 C2 6 2 6 3 8 C2.009999999999991 8.330000000000013 1.0200000000000102 8.659999999999997 0 9 C-3.1875 7.0625 -3.1875 7.0625 -6 5 C-5.340000000000003 4.6699999999999875 -4.680000000000007 4.340000000000003 -4 4 C-4.3300000000000125 3.009999999999991 -4.659999999999997 2.0200000000000102 -5 1 C-2 0 -2 0 0 0 Z " fill="#CD9B0E" transform="translate(208,220)"/>
<path d="M0 0 C0.6599999999999966 0.3299999999999841 1.3199999999999932 0.660000000000025 2 1 C0.6034470267290999 4.498732711983962 -0.7126048400568834 5.708918314864377 -4.125 7.25 C-4.4872265625000125 7.417578124999977 -4.4872265625000125 7.417578124999977 -6.3203125 8.265625 C-6.597460937499989 8.386796875000016 -6.597460937499989 8.386796875000016 -8 9 C-7.9375 6.75 -7.9375 6.75 -7 4 C-4.754121358516983 2.1829826066393707 -2.6737111876778954 1.2195875592916536 0 0 Z " fill="#88500E" transform="translate(140,259)"/>
<path d="M0 0 C0.3300000000000125 0.9900000000000091 0.6599999999999966 1.9800000000000182 1 3 C-0.8172567535031874 5.826843838782736 -2.0393794619877212 7.653109250162231 -5.25 8.8125 C-5.827499999999986 8.874374999999986 -6.405000000000001 8.936249999999973 -7 9 C-5.505178006962581 4.745506635201195 -4.101674898029614 2.050837449014807 0 0 Z " fill="#965F0C" transform="translate(184,379)"/>
<path d="M0 0 C0.3300000000000125 0.660000000000025 0.6599999999999966 1.3199999999999932 1 2 C3.94140625 2.6328125 3.94140625 2.6328125 7.5625 3.125 C8.161269531250014 3.2087890624999886 8.161269531250014 3.2087890624999886 11.19140625 3.6328125 C12.118242187499987 3.753984375000016 13.045078125000003 3.875156249999975 14 4 C14 4.660000000000025 14 5.319999999999993 14 6 C8.473222665557927 6.193922011734799 4.243850887757134 5.747950295919054 -1 4 C-1 1 -1 1 0 0 Z " fill="#C08D0B" transform="translate(210,260)"/>
<path d="M0 0 C1.3199999999999932 0.6599999999999966 2.6399999999999864 1.3199999999999932 4 2 C4 2.990000000000009 4 3.9799999999999898 4 5 C1.025888759982962 6.239213016673773 -1.8526281840023842 7.300584040889419 -5 8 C-4.360624999999999 7.236874999999998 -3.7212499999999977 6.4737499999999955 -3.0625 5.6875 C-1 3 -1 3 0 0 Z " fill="#EDC113" transform="translate(221,220)"/>
<path d="M0 0 C0.6599999999999966 0.3300000000000125 1.3199999999999932 0.6599999999999966 2 1 C2 3.3100000000000023 2 5.6200000000000045 2 8 C1.6699999999999875 8 1.3400000000000034 8 1 8 C1 6.349999999999994 1 4.699999999999989 1 3 C0.3400000000000034 3 -0.3199999999999932 3 -1 3 C-1.3300000000000125 3.6599999999999966 -1.6599999999999966 4.319999999999993 -2 5 C-3.978889607196919 5.726939039378465 -5.979545575313296 6.398162511795448 -8 7 C-5.422151536490048 4.3524799563952 -3.0835190231850618 2.0556793487900507 0 0 Z " fill="#9B6305" transform="translate(207,217)"/>
<path d="M0 0 C0.3299999999999841 0.6599999999999966 0.660000000000025 1.3199999999999932 1 2 C-1.3100000000000023 4.639999999999986 -3.6200000000000045 7.280000000000001 -6 10 C-6.990000000000009 9.669999999999987 -7.980000000000018 9.340000000000003 -9 9 C-6.029999999999973 6.030000000000001 -3.0600000000000023 3.0600000000000023 0 0 Z " fill="#89531B" transform="translate(358,192)"/>
<path d="M0 0 C-0.3299999999999841 0.9900000000000091 -0.660000000000025 1.9799999999999898 -1 3 C-4.5625 4.6875 -4.5625 4.6875 -8 6 C-7.398162511795476 3.9795455753132956 -6.726939039378465 1.978889607196919 -6 0 C-3.5090718940471106 -1.2454640529764447 -2.589192668788371 -0.776757800636517 0 0 Z " fill="#925A08" transform="translate(381,172)"/>
<path d="M0 0 C2.969999999999999 0.9900000000000091 5.939999999999998 1.9799999999999898 9 3 C8.670000000000016 3.164999999999992 8.670000000000016 3.164999999999992 7 4 C7 4.659999999999997 7 5.319999999999993 7 6 C4.0625 5.25 4.0625 5.25 1 4 C0.6699999999999875 2.680000000000007 0.3400000000000034 1.3600000000000136 0 0 Z " fill="#925903" transform="translate(249,224)"/>
<path d="M0 0 C0.9900000000000091 0 1.9800000000000182 0 3 0 C3.625 2.375 3.625 2.375 4 5 C3.339999999999975 5.659999999999997 2.680000000000007 6.319999999999993 2 7 C1.009999999999991 6.6699999999999875 0.01999999999998181 6.340000000000003 -1 6 C-0.6700000000000159 4.02000000000001 -0.339999999999975 2.039999999999992 0 0 Z " fill="#E9BC12" transform="translate(265,220)"/>
<path d="M0 0 C1.9799999999999898 0 3.960000000000008 0 6 0 C5.6699999999999875 1.3199999999999932 5.340000000000003 2.6399999999999864 5 4 C3.3499999999999943 3.6699999999999875 1.6999999999999886 3.3400000000000034 0 3 C0 2.009999999999991 0 1.0200000000000102 0 0 Z " fill="#945C04" transform="translate(234,249)"/>
<path d="M0 0 C0.9900000000000091 0.3300000000000125 1.9799999999999898 0.6599999999999966 3 1 C0.4721199282332691 3.798724365170301 -1.204111335324825 5.457730190760685 -5 6 C-3.6301649726083838 2.8388422444808725 -3.0109362040270184 2.007290802684679 0 0 Z " fill="#8C5303" transform="translate(223,224)"/>
<path d="M0 0 C0.6599999999999966 0.3300000000000125 1.3199999999999932 0.6599999999999966 2 1 C0.8652505184712993 4.4042484445861305 0.03188695523164142 5.216537085157853 -3 7 C-3.990000000000009 6.6699999999999875 -4.97999999999999 6.340000000000003 -6 6 C-4 4 -2 2 0 0 Z " fill="#8B5102" transform="translate(249,210)"/>
<path d="M0 0 C-1.1549999999999727 0.49500000000000455 -1.1549999999999727 0.49500000000000455 -7 3 C-7.666666666666657 1.6666666666666856 -8.333333333333343 0.3333333333333144 -9 -1 C-3.375 -2.25 -3.375 -2.25 0 0 Z " fill="#A46D06" transform="translate(260,265)"/>
</svg>
